<svg xmlns="http://www.w3.org/2000/svg" xmlns:xlink="http://www.w3.org/1999/xlink" width="890" zoomAndPan="magnify" viewBox="0 0 579.75 234.749995" height="318" preserveAspectRatio="xMidYMid meet" version="1.0"><defs><g/><clipPath id="78f3f6dfd2"><path d="M 30 215 L 579.316406 215 L 579.316406 216 L 30 216 Z M 30 215 " clip-rule="nonzero"/></clipPath><clipPath id="f3119e697a"><path d="M 30 190 L 579.316406 190 L 579.316406 192 L 30 192 Z M 30 190 " clip-rule="nonzero"/></clipPath><clipPath id="6b25316ba2"><path d="M 30 166 L 579.316406 166 L 579.316406 167 L 30 167 Z M 30 166 " clip-rule="nonzero"/></clipPath><clipPath id="8a9e18c67e"><path d="M 30 141 L 579.316406 141 L 579.316406 143 L 30 143 Z M 30 141 " clip-rule="nonzero"/></clipPath><clipPath id="90f47c79a7"><path d="M 30 117 L 579.316406 117 L 579.316406 119 L 30 119 Z M 30 117 " clip-rule="nonzero"/></clipPath><clipPath id="b071c29cbd"><path d="M 30 92 L 579.316406 92 L 579.316406 94 L 30 94 Z M 30 92 " clip-rule="nonzero"/></clipPath><clipPath id="409ac8c8e9"><path d="M 30 68 L 579.316406 68 L 579.316406 70 L 30 70 Z M 30 68 " clip-rule="nonzero"/></clipPath><clipPath id="64c4955ead"><path d="M 30 43 L 579.316406 43 L 579.316406 45 L 30 45 Z M 30 43 " clip-rule="nonzero"/></clipPath><clipPath id="c010b4f19d"><path d="M 30.484375 159.203125 L 71.265625 159.203125 L 71.265625 215.40625 L 30.484375 215.40625 Z M 30.484375 159.203125 " clip-rule="nonzero"/></clipPath><clipPath id="b63881201b"><path d="M 73.414062 128.65625 L 114.195312 128.65625 L 114.195312 215.40625 L 73.414062 215.40625 Z M 73.414062 128.65625 " clip-rule="nonzero"/></clipPath><clipPath id="1a14f846bf"><path d="M 123.496094 149.429688 L 164.277344 149.429688 L 164.277344 215.40625 L 123.496094 215.40625 Z M 123.496094 149.429688 " clip-rule="nonzero"/></clipPath><clipPath id="9390624fcc"><path d="M 166.425781 135.988281 L 207.207031 135.988281 L 207.207031 215.40625 L 166.425781 215.40625 Z M 166.425781 135.988281 " clip-rule="nonzero"/></clipPath><clipPath id="0eb8706cbe"><path d="M 216.507812 146.984375 L 257.289062 146.984375 L 257.289062 215.40625 L 216.507812 215.40625 Z M 216.507812 146.984375 " clip-rule="nonzero"/></clipPath><clipPath id="ec57c9a203"><path d="M 259.4375 164.089844 L 300.21875 164.089844 L 300.21875 215.40625 L 259.4375 215.40625 Z M 259.4375 164.089844 " clip-rule="nonzero"/></clipPath><clipPath id="a400f64078"><path d="M 309.519531 140.875 L 350.300781 140.875 L 350.300781 215.40625 L 309.519531 215.40625 Z M 309.519531 140.875 " clip-rule="nonzero"/></clipPath><clipPath id="d31807943e"><path d="M 352.449219 129.878906 L 393.230469 129.878906 L 393.230469 215.40625 L 352.449219 215.40625 Z M 352.449219 129.878906 " clip-rule="nonzero"/></clipPath><clipPath id="fff6a75063"><path d="M 402.53125 103 L 443.3125 103 L 443.3125 215.40625 L 402.53125 215.40625 Z M 402.53125 103 " clip-rule="nonzero"/></clipPath><clipPath id="dd676a2a6a"><path d="M 445.457031 105.441406 L 486.242188 105.441406 L 486.242188 215.40625 L 445.457031 215.40625 Z M 445.457031 105.441406 " clip-rule="nonzero"/></clipPath><clipPath id="eb461c1322"><path d="M 495.542969 59.015625 L 536.324219 59.015625 L 536.324219 215.40625 L 495.542969 215.40625 Z M 495.542969 59.015625 " clip-rule="nonzero"/></clipPath><clipPath id="4400312270"><path d="M 538.46875 105.441406 L 579.253906 105.441406 L 579.253906 215.40625 L 538.46875 215.40625 Z M 538.46875 105.441406 " clip-rule="nonzero"/></clipPath></defs><path fill="#e86c6c" d="M 202.828125 14.984375 L 215.714844 14.984375 C 215.921875 14.984375 216.097656 15.058594 216.242188 15.203125 C 216.390625 15.351562 216.460938 15.527344 216.460938 15.734375 L 216.460938 28.621094 C 216.460938 28.828125 216.390625 29.003906 216.242188 29.148438 C 216.097656 29.296875 215.921875 29.367188 215.714844 29.367188 L 202.828125 29.367188 C 202.621094 29.367188 202.445312 29.296875 202.296875 29.148438 C 202.152344 29.003906 202.078125 28.828125 202.078125 28.621094 L 202.078125 15.734375 C 202.078125 15.527344 202.152344 15.351562 202.296875 15.203125 C 202.445312 15.058594 202.621094 14.984375 202.828125 14.984375 Z M 202.828125 14.984375 " fill-opacity="1" fill-rule="nonzero"/><g fill="#000000" fill-opacity="1"><g transform="translate(225.441658, 25.543108)"><g><path d="M 7.4375 -2.28125 C 7.4375 -1.519531 7.140625 -0.929688 6.546875 -0.515625 C 5.953125 -0.0976562 5.113281 0.109375 4.03125 0.109375 C 2.03125 0.109375 0.867188 -0.585938 0.546875 -1.984375 L 1.625 -2.1875 C 1.75 -1.695312 2.015625 -1.332031 2.421875 -1.09375 C 2.828125 -0.863281 3.378906 -0.75 4.078125 -0.75 C 4.796875 -0.75 5.351562 -0.875 5.75 -1.125 C 6.144531 -1.375 6.34375 -1.738281 6.34375 -2.21875 C 6.34375 -2.488281 6.28125 -2.707031 6.15625 -2.875 C 6.03125 -3.039062 5.851562 -3.175781 5.625 -3.28125 C 5.40625 -3.394531 5.140625 -3.488281 4.828125 -3.5625 C 4.523438 -3.632812 4.1875 -3.710938 3.8125 -3.796875 C 3.164062 -3.941406 2.671875 -4.085938 2.328125 -4.234375 C 1.992188 -4.378906 1.726562 -4.539062 1.53125 -4.71875 C 1.332031 -4.894531 1.179688 -5.101562 1.078125 -5.34375 C 0.984375 -5.582031 0.9375 -5.851562 0.9375 -6.15625 C 0.9375 -6.863281 1.203125 -7.410156 1.734375 -7.796875 C 2.273438 -8.179688 3.050781 -8.375 4.0625 -8.375 C 5 -8.375 5.710938 -8.226562 6.203125 -7.9375 C 6.703125 -7.644531 7.050781 -7.15625 7.25 -6.46875 L 6.15625 -6.28125 C 6.03125 -6.71875 5.796875 -7.035156 5.453125 -7.234375 C 5.117188 -7.429688 4.648438 -7.53125 4.046875 -7.53125 C 3.390625 -7.53125 2.882812 -7.421875 2.53125 -7.203125 C 2.1875 -6.984375 2.015625 -6.65625 2.015625 -6.21875 C 2.015625 -5.96875 2.082031 -5.757812 2.21875 -5.59375 C 2.351562 -5.425781 2.546875 -5.285156 2.796875 -5.171875 C 3.054688 -5.054688 3.5625 -4.914062 4.3125 -4.75 C 4.570312 -4.6875 4.828125 -4.625 5.078125 -4.5625 C 5.328125 -4.507812 5.566406 -4.4375 5.796875 -4.34375 C 6.023438 -4.257812 6.238281 -4.160156 6.4375 -4.046875 C 6.644531 -3.941406 6.820312 -3.804688 6.96875 -3.640625 C 7.113281 -3.472656 7.226562 -3.28125 7.3125 -3.0625 C 7.394531 -2.84375 7.4375 -2.582031 7.4375 -2.28125 Z M 7.4375 -2.28125 "/></g></g><g transform="translate(233.437049, 25.543108)"><g><path d="M 1.609375 -2.9375 C 1.609375 -2.21875 1.757812 -1.660156 2.0625 -1.265625 C 2.363281 -0.867188 2.800781 -0.671875 3.375 -0.671875 C 3.832031 -0.671875 4.195312 -0.757812 4.46875 -0.9375 C 4.75 -1.125 4.9375 -1.359375 5.03125 -1.640625 L 5.96875 -1.375 C 5.582031 -0.382812 4.71875 0.109375 3.375 0.109375 C 2.445312 0.109375 1.738281 -0.164062 1.25 -0.71875 C 0.757812 -1.28125 0.515625 -2.109375 0.515625 -3.203125 C 0.515625 -4.253906 0.757812 -5.054688 1.25 -5.609375 C 1.738281 -6.171875 2.4375 -6.453125 3.34375 -6.453125 C 5.195312 -6.453125 6.125 -5.328125 6.125 -3.078125 L 6.125 -2.9375 Z M 5.046875 -3.75 C 4.984375 -4.414062 4.8125 -4.898438 4.53125 -5.203125 C 4.25 -5.515625 3.847656 -5.671875 3.328125 -5.671875 C 2.816406 -5.671875 2.410156 -5.5 2.109375 -5.15625 C 1.804688 -4.8125 1.644531 -4.34375 1.625 -3.75 Z M 5.046875 -3.75 "/></g></g><g transform="translate(240.103777, 25.543108)"><g><path d="M 4.5 0 L 4.5 -4.015625 C 4.5 -4.628906 4.410156 -5.050781 4.234375 -5.28125 C 4.066406 -5.519531 3.765625 -5.640625 3.328125 -5.640625 C 2.878906 -5.640625 2.523438 -5.46875 2.265625 -5.125 C 2.003906 -4.78125 1.875 -4.296875 1.875 -3.671875 L 1.875 0 L 0.828125 0 L 0.828125 -4.984375 C 0.828125 -5.710938 0.816406 -6.160156 0.796875 -6.328125 L 1.796875 -6.328125 C 1.796875 -6.304688 1.796875 -6.253906 1.796875 -6.171875 C 1.804688 -6.085938 1.8125 -5.988281 1.8125 -5.875 C 1.820312 -5.769531 1.832031 -5.5625 1.84375 -5.25 L 1.859375 -5.25 C 2.078125 -5.695312 2.332031 -6.007812 2.625 -6.1875 C 2.925781 -6.363281 3.285156 -6.453125 3.703125 -6.453125 C 4.179688 -6.453125 4.5625 -6.351562 4.84375 -6.15625 C 5.125 -5.96875 5.316406 -5.664062 5.421875 -5.25 L 5.4375 -5.25 C 5.65625 -5.675781 5.921875 -5.984375 6.234375 -6.171875 C 6.546875 -6.359375 6.921875 -6.453125 7.359375 -6.453125 C 8.003906 -6.453125 8.46875 -6.273438 8.75 -5.921875 C 9.039062 -5.578125 9.1875 -5.007812 9.1875 -4.21875 L 9.1875 0 L 8.15625 0 L 8.15625 -4.015625 C 8.15625 -4.628906 8.066406 -5.050781 7.890625 -5.28125 C 7.722656 -5.519531 7.425781 -5.640625 7 -5.640625 C 6.53125 -5.640625 6.164062 -5.46875 5.90625 -5.125 C 5.65625 -4.78125 5.53125 -4.296875 5.53125 -3.671875 L 5.53125 0 Z M 4.5 0 "/></g></g><g transform="translate(250.089236, 25.543108)"><g/></g><g transform="translate(253.419673, 25.543108)"><g><path d="M 1.609375 -3.1875 C 1.609375 -2.351562 1.738281 -1.734375 2 -1.328125 C 2.269531 -0.921875 2.671875 -0.71875 3.203125 -0.71875 C 3.578125 -0.71875 3.890625 -0.816406 4.140625 -1.015625 C 4.390625 -1.222656 4.546875 -1.535156 4.609375 -1.953125 L 5.671875 -1.890625 C 5.585938 -1.273438 5.328125 -0.785156 4.890625 -0.421875 C 4.460938 -0.0664062 3.910156 0.109375 3.234375 0.109375 C 2.347656 0.109375 1.671875 -0.164062 1.203125 -0.71875 C 0.742188 -1.28125 0.515625 -2.097656 0.515625 -3.171875 C 0.515625 -4.234375 0.742188 -5.046875 1.203125 -5.609375 C 1.671875 -6.171875 2.34375 -6.453125 3.21875 -6.453125 C 3.875 -6.453125 4.414062 -6.28125 4.84375 -5.9375 C 5.269531 -5.601562 5.535156 -5.144531 5.640625 -4.5625 L 4.5625 -4.484375 C 4.507812 -4.828125 4.367188 -5.101562 4.140625 -5.3125 C 3.921875 -5.519531 3.601562 -5.625 3.1875 -5.625 C 2.632812 -5.625 2.234375 -5.4375 1.984375 -5.0625 C 1.734375 -4.695312 1.609375 -4.070312 1.609375 -3.1875 Z M 1.609375 -3.1875 "/></g></g><g transform="translate(259.41329, 25.543108)"><g><path d="M 1.84375 -6.328125 L 1.84375 -2.3125 C 1.84375 -1.894531 1.878906 -1.570312 1.953125 -1.34375 C 2.035156 -1.113281 2.164062 -0.945312 2.34375 -0.84375 C 2.53125 -0.75 2.796875 -0.703125 3.140625 -0.703125 C 3.648438 -0.703125 4.050781 -0.875 4.34375 -1.21875 C 4.632812 -1.5625 4.78125 -2.039062 4.78125 -2.65625 L 4.78125 -6.328125 L 5.828125 -6.328125 L 5.828125 -1.359375 C 5.828125 -0.617188 5.84375 -0.164062 5.875 0 L 4.875 0 C 4.875 -0.0195312 4.867188 -0.0703125 4.859375 -0.15625 C 4.859375 -0.238281 4.851562 -0.335938 4.84375 -0.453125 C 4.84375 -0.566406 4.835938 -0.773438 4.828125 -1.078125 L 4.8125 -1.078125 C 4.570312 -0.640625 4.289062 -0.332031 3.96875 -0.15625 C 3.65625 0.0195312 3.257812 0.109375 2.78125 0.109375 C 2.09375 0.109375 1.585938 -0.0625 1.265625 -0.40625 C 0.941406 -0.75 0.78125 -1.316406 0.78125 -2.109375 L 0.78125 -6.328125 Z M 1.84375 -6.328125 "/></g></g><g transform="translate(266.080018, 25.543108)"><g><path d="M 6.15625 -3.1875 C 6.15625 -0.988281 5.378906 0.109375 3.828125 0.109375 C 2.859375 0.109375 2.203125 -0.253906 1.859375 -0.984375 L 1.84375 -0.984375 C 1.851562 -0.953125 1.859375 -0.617188 1.859375 0.015625 L 1.859375 2.484375 L 0.8125 2.484375 L 0.8125 -5.03125 C 0.8125 -5.6875 0.796875 -6.117188 0.765625 -6.328125 L 1.796875 -6.328125 C 1.796875 -6.316406 1.796875 -6.257812 1.796875 -6.15625 C 1.804688 -6.0625 1.816406 -5.914062 1.828125 -5.71875 C 1.835938 -5.519531 1.84375 -5.382812 1.84375 -5.3125 L 1.875 -5.3125 C 2.0625 -5.707031 2.304688 -5.992188 2.609375 -6.171875 C 2.921875 -6.347656 3.328125 -6.4375 3.828125 -6.4375 C 4.609375 -6.4375 5.191406 -6.175781 5.578125 -5.65625 C 5.960938 -5.132812 6.15625 -4.3125 6.15625 -3.1875 Z M 5.0625 -3.171875 C 5.0625 -4.054688 4.941406 -4.6875 4.703125 -5.0625 C 4.460938 -5.4375 4.082031 -5.625 3.5625 -5.625 C 3.144531 -5.625 2.816406 -5.535156 2.578125 -5.359375 C 2.347656 -5.191406 2.171875 -4.921875 2.046875 -4.546875 C 1.921875 -4.171875 1.859375 -3.6875 1.859375 -3.09375 C 1.859375 -2.257812 1.988281 -1.644531 2.25 -1.25 C 2.519531 -0.851562 2.953125 -0.65625 3.546875 -0.65625 C 4.078125 -0.65625 4.460938 -0.847656 4.703125 -1.234375 C 4.941406 -1.617188 5.0625 -2.265625 5.0625 -3.171875 Z M 5.0625 -3.171875 "/></g></g><g transform="translate(272.746746, 25.543108)"><g><path d="M 6.15625 -3.171875 C 6.15625 -2.066406 5.910156 -1.242188 5.421875 -0.703125 C 4.941406 -0.160156 4.238281 0.109375 3.3125 0.109375 C 2.382812 0.109375 1.679688 -0.171875 1.203125 -0.734375 C 0.734375 -1.296875 0.5 -2.109375 0.5 -3.171875 C 0.5 -5.359375 1.445312 -6.453125 3.34375 -6.453125 C 4.3125 -6.453125 5.019531 -6.179688 5.46875 -5.640625 C 5.925781 -5.109375 6.15625 -4.285156 6.15625 -3.171875 Z M 5.0625 -3.171875 C 5.0625 -4.046875 4.929688 -4.679688 4.671875 -5.078125 C 4.410156 -5.472656 3.972656 -5.671875 3.359375 -5.671875 C 2.742188 -5.671875 2.296875 -5.46875 2.015625 -5.0625 C 1.742188 -4.65625 1.609375 -4.023438 1.609375 -3.171875 C 1.609375 -2.335938 1.742188 -1.707031 2.015625 -1.28125 C 2.285156 -0.863281 2.710938 -0.65625 3.296875 -0.65625 C 3.929688 -0.65625 4.382812 -0.859375 4.65625 -1.265625 C 4.925781 -1.671875 5.0625 -2.304688 5.0625 -3.171875 Z M 5.0625 -3.171875 "/></g></g><g transform="translate(279.413473, 25.543108)"><g><path d="M 4.5 0 L 4.5 -4.015625 C 4.5 -4.628906 4.410156 -5.050781 4.234375 -5.28125 C 4.066406 -5.519531 3.765625 -5.640625 3.328125 -5.640625 C 2.878906 -5.640625 2.523438 -5.46875 2.265625 -5.125 C 2.003906 -4.78125 1.875 -4.296875 1.875 -3.671875 L 1.875 0 L 0.828125 0 L 0.828125 -4.984375 C 0.828125 -5.710938 0.816406 -6.160156 0.796875 -6.328125 L 1.796875 -6.328125 C 1.796875 -6.304688 1.796875 -6.253906 1.796875 -6.171875 C 1.804688 -6.085938 1.8125 -5.988281 1.8125 -5.875 C 1.820312 -5.769531 1.832031 -5.5625 1.84375 -5.25 L 1.859375 -5.25 C 2.078125 -5.695312 2.332031 -6.007812 2.625 -6.1875 C 2.925781 -6.363281 3.285156 -6.453125 3.703125 -6.453125 C 4.179688 -6.453125 4.5625 -6.351562 4.84375 -6.15625 C 5.125 -5.96875 5.316406 -5.664062 5.421875 -5.25 L 5.4375 -5.25 C 5.65625 -5.675781 5.921875 -5.984375 6.234375 -6.171875 C 6.546875 -6.359375 6.921875 -6.453125 7.359375 -6.453125 C 8.003906 -6.453125 8.46875 -6.273438 8.75 -5.921875 C 9.039062 -5.578125 9.1875 -5.007812 9.1875 -4.21875 L 9.1875 0 L 8.15625 0 L 8.15625 -4.015625 C 8.15625 -4.628906 8.066406 -5.050781 7.890625 -5.28125 C 7.722656 -5.519531 7.425781 -5.640625 7 -5.640625 C 6.53125 -5.640625 6.164062 -5.46875 5.90625 -5.125 C 5.65625 -4.78125 5.53125 -4.296875 5.53125 -3.671875 L 5.53125 0 Z M 4.5 0 "/></g></g></g><path fill="#8fd29e" d="M 314.609375 14.984375 L 327.496094 14.984375 C 327.703125 14.984375 327.878906 15.058594 328.023438 15.203125 C 328.171875 15.351562 328.242188 15.527344 328.242188 15.734375 L 328.242188 28.621094 C 328.242188 28.828125 328.171875 29.003906 328.023438 29.148438 C 327.878906 29.296875 327.703125 29.367188 327.496094 29.367188 L 314.609375 29.367188 C 314.402344 29.367188 314.226562 29.296875 314.078125 29.148438 C 313.933594 29.003906 313.859375 28.828125 313.859375 28.621094 L 313.859375 15.734375 C 313.859375 15.527344 313.933594 15.351562 314.078125 15.203125 C 314.226562 15.058594 314.402344 14.984375 314.609375 14.984375 Z M 314.609375 14.984375 " fill-opacity="1" fill-rule="nonzero"/><g fill="#000000" fill-opacity="1"><g transform="translate(337.224953, 25.543108)"><g><path d="M 4.640625 -7.453125 C 3.722656 -7.453125 3.007812 -7.15625 2.5 -6.5625 C 2 -5.976562 1.75 -5.175781 1.75 -4.15625 C 1.75 -3.144531 2.007812 -2.332031 2.53125 -1.71875 C 3.0625 -1.101562 3.78125 -0.796875 4.6875 -0.796875 C 5.832031 -0.796875 6.695312 -1.367188 7.28125 -2.515625 L 8.203125 -2.0625 C 7.859375 -1.351562 7.378906 -0.8125 6.765625 -0.4375 C 6.148438 -0.0703125 5.4375 0.109375 4.625 0.109375 C 3.789062 0.109375 3.070312 -0.0625 2.46875 -0.40625 C 1.863281 -0.75 1.398438 -1.238281 1.078125 -1.875 C 0.765625 -2.519531 0.609375 -3.28125 0.609375 -4.15625 C 0.609375 -5.46875 0.960938 -6.5 1.671875 -7.25 C 2.378906 -8 3.363281 -8.375 4.625 -8.375 C 5.5 -8.375 6.226562 -8.203125 6.8125 -7.859375 C 7.40625 -7.515625 7.84375 -7.003906 8.125 -6.328125 L 7.0625 -5.96875 C 6.875 -6.445312 6.566406 -6.8125 6.140625 -7.0625 C 5.710938 -7.320312 5.210938 -7.453125 4.640625 -7.453125 Z M 4.640625 -7.453125 "/></g></g><g transform="translate(345.881749, 25.543108)"><g><path d="M 6.15625 -3.171875 C 6.15625 -2.066406 5.910156 -1.242188 5.421875 -0.703125 C 4.941406 -0.160156 4.238281 0.109375 3.3125 0.109375 C 2.382812 0.109375 1.679688 -0.171875 1.203125 -0.734375 C 0.734375 -1.296875 0.5 -2.109375 0.5 -3.171875 C 0.5 -5.359375 1.445312 -6.453125 3.34375 -6.453125 C 4.3125 -6.453125 5.019531 -6.179688 5.46875 -5.640625 C 5.925781 -5.109375 6.15625 -4.285156 6.15625 -3.171875 Z M 5.0625 -3.171875 C 5.0625 -4.046875 4.929688 -4.679688 4.671875 -5.078125 C 4.410156 -5.472656 3.972656 -5.671875 3.359375 -5.671875 C 2.742188 -5.671875 2.296875 -5.46875 2.015625 -5.0625 C 1.742188 -4.65625 1.609375 -4.023438 1.609375 -3.171875 C 1.609375 -2.335938 1.742188 -1.707031 2.015625 -1.28125 C 2.285156 -0.863281 2.710938 -0.65625 3.296875 -0.65625 C 3.929688 -0.65625 4.382812 -0.859375 4.65625 -1.265625 C 4.925781 -1.671875 5.0625 -2.304688 5.0625 -3.171875 Z M 5.0625 -3.171875 "/></g></g><g transform="translate(352.548477, 25.543108)"><g><path d="M 4.5 0 L 4.5 -4.015625 C 4.5 -4.628906 4.410156 -5.050781 4.234375 -5.28125 C 4.066406 -5.519531 3.765625 -5.640625 3.328125 -5.640625 C 2.878906 -5.640625 2.523438 -5.46875 2.265625 -5.125 C 2.003906 -4.78125 1.875 -4.296875 1.875 -3.671875 L 1.875 0 L 0.828125 0 L 0.828125 -4.984375 C 0.828125 -5.710938 0.816406 -6.160156 0.796875 -6.328125 L 1.796875 -6.328125 C 1.796875 -6.304688 1.796875 -6.253906 1.796875 -6.171875 C 1.804688 -6.085938 1.8125 -5.988281 1.8125 -5.875 C 1.820312 -5.769531 1.832031 -5.5625 1.84375 -5.25 L 1.859375 -5.25 C 2.078125 -5.695312 2.332031 -6.007812 2.625 -6.1875 C 2.925781 -6.363281 3.285156 -6.453125 3.703125 -6.453125 C 4.179688 -6.453125 4.5625 -6.351562 4.84375 -6.15625 C 5.125 -5.96875 5.316406 -5.664062 5.421875 -5.25 L 5.4375 -5.25 C 5.65625 -5.675781 5.921875 -5.984375 6.234375 -6.171875 C 6.546875 -6.359375 6.921875 -6.453125 7.359375 -6.453125 C 8.003906 -6.453125 8.46875 -6.273438 8.75 -5.921875 C 9.039062 -5.578125 9.1875 -5.007812 9.1875 -4.21875 L 9.1875 0 L 8.15625 0 L 8.15625 -4.015625 C 8.15625 -4.628906 8.066406 -5.050781 7.890625 -5.28125 C 7.722656 -5.519531 7.425781 -5.640625 7 -5.640625 C 6.53125 -5.640625 6.164062 -5.46875 5.90625 -5.125 C 5.65625 -4.78125 5.53125 -4.296875 5.53125 -3.671875 L 5.53125 0 Z M 4.5 0 "/></g></g><g transform="translate(362.533936, 25.543108)"><g/></g><g transform="translate(365.864373, 25.543108)"><g><path d="M 1.609375 -3.1875 C 1.609375 -2.351562 1.738281 -1.734375 2 -1.328125 C 2.269531 -0.921875 2.671875 -0.71875 3.203125 -0.71875 C 3.578125 -0.71875 3.890625 -0.816406 4.140625 -1.015625 C 4.390625 -1.222656 4.546875 -1.535156 4.609375 -1.953125 L 5.671875 -1.890625 C 5.585938 -1.273438 5.328125 -0.785156 4.890625 -0.421875 C 4.460938 -0.0664062 3.910156 0.109375 3.234375 0.109375 C 2.347656 0.109375 1.671875 -0.164062 1.203125 -0.71875 C 0.742188 -1.28125 0.515625 -2.097656 0.515625 -3.171875 C 0.515625 -4.234375 0.742188 -5.046875 1.203125 -5.609375 C 1.671875 -6.171875 2.34375 -6.453125 3.21875 -6.453125 C 3.875 -6.453125 4.414062 -6.28125 4.84375 -5.9375 C 5.269531 -5.601562 5.535156 -5.144531 5.640625 -4.5625 L 4.5625 -4.484375 C 4.507812 -4.828125 4.367188 -5.101562 4.140625 -5.3125 C 3.921875 -5.519531 3.601562 -5.625 3.1875 -5.625 C 2.632812 -5.625 2.234375 -5.4375 1.984375 -5.0625 C 1.734375 -4.695312 1.609375 -4.070312 1.609375 -3.1875 Z M 1.609375 -3.1875 "/></g></g><g transform="translate(371.85799, 25.543108)"><g><path d="M 1.84375 -6.328125 L 1.84375 -2.3125 C 1.84375 -1.894531 1.878906 -1.570312 1.953125 -1.34375 C 2.035156 -1.113281 2.164062 -0.945312 2.34375 -0.84375 C 2.53125 -0.75 2.796875 -0.703125 3.140625 -0.703125 C 3.648438 -0.703125 4.050781 -0.875 4.34375 -1.21875 C 4.632812 -1.5625 4.78125 -2.039062 4.78125 -2.65625 L 4.78125 -6.328125 L 5.828125 -6.328125 L 5.828125 -1.359375 C 5.828125 -0.617188 5.84375 -0.164062 5.875 0 L 4.875 0 C 4.875 -0.0195312 4.867188 -0.0703125 4.859375 -0.15625 C 4.859375 -0.238281 4.851562 -0.335938 4.84375 -0.453125 C 4.84375 -0.566406 4.835938 -0.773438 4.828125 -1.078125 L 4.8125 -1.078125 C 4.570312 -0.640625 4.289062 -0.332031 3.96875 -0.15625 C 3.65625 0.0195312 3.257812 0.109375 2.78125 0.109375 C 2.09375 0.109375 1.585938 -0.0625 1.265625 -0.40625 C 0.941406 -0.75 0.78125 -1.316406 0.78125 -2.109375 L 0.78125 -6.328125 Z M 1.84375 -6.328125 "/></g></g><g transform="translate(378.524718, 25.543108)"><g><path d="M 6.15625 -3.1875 C 6.15625 -0.988281 5.378906 0.109375 3.828125 0.109375 C 2.859375 0.109375 2.203125 -0.253906 1.859375 -0.984375 L 1.84375 -0.984375 C 1.851562 -0.953125 1.859375 -0.617188 1.859375 0.015625 L 1.859375 2.484375 L 0.8125 2.484375 L 0.8125 -5.03125 C 0.8125 -5.6875 0.796875 -6.117188 0.765625 -6.328125 L 1.796875 -6.328125 C 1.796875 -6.316406 1.796875 -6.257812 1.796875 -6.15625 C 1.804688 -6.0625 1.816406 -5.914062 1.828125 -5.71875 C 1.835938 -5.519531 1.84375 -5.382812 1.84375 -5.3125 L 1.875 -5.3125 C 2.0625 -5.707031 2.304688 -5.992188 2.609375 -6.171875 C 2.921875 -6.347656 3.328125 -6.4375 3.828125 -6.4375 C 4.609375 -6.4375 5.191406 -6.175781 5.578125 -5.65625 C 5.960938 -5.132812 6.15625 -4.3125 6.15625 -3.1875 Z M 5.0625 -3.171875 C 5.0625 -4.054688 4.941406 -4.6875 4.703125 -5.0625 C 4.460938 -5.4375 4.082031 -5.625 3.5625 -5.625 C 3.144531 -5.625 2.816406 -5.535156 2.578125 -5.359375 C 2.347656 -5.191406 2.171875 -4.921875 2.046875 -4.546875 C 1.921875 -4.171875 1.859375 -3.6875 1.859375 -3.09375 C 1.859375 -2.257812 1.988281 -1.644531 2.25 -1.25 C 2.519531 -0.851562 2.953125 -0.65625 3.546875 -0.65625 C 4.078125 -0.65625 4.460938 -0.847656 4.703125 -1.234375 C 4.941406 -1.617188 5.0625 -2.265625 5.0625 -3.171875 Z M 5.0625 -3.171875 "/></g></g><g transform="translate(385.191446, 25.543108)"><g><path d="M 6.15625 -3.171875 C 6.15625 -2.066406 5.910156 -1.242188 5.421875 -0.703125 C 4.941406 -0.160156 4.238281 0.109375 3.3125 0.109375 C 2.382812 0.109375 1.679688 -0.171875 1.203125 -0.734375 C 0.734375 -1.296875 0.5 -2.109375 0.5 -3.171875 C 0.5 -5.359375 1.445312 -6.453125 3.34375 -6.453125 C 4.3125 -6.453125 5.019531 -6.179688 5.46875 -5.640625 C 5.925781 -5.109375 6.15625 -4.285156 6.15625 -3.171875 Z M 5.0625 -3.171875 C 5.0625 -4.046875 4.929688 -4.679688 4.671875 -5.078125 C 4.410156 -5.472656 3.972656 -5.671875 3.359375 -5.671875 C 2.742188 -5.671875 2.296875 -5.46875 2.015625 -5.0625 C 1.742188 -4.65625 1.609375 -4.023438 1.609375 -3.171875 C 1.609375 -2.335938 1.742188 -1.707031 2.015625 -1.28125 C 2.285156 -0.863281 2.710938 -0.65625 3.296875 -0.65625 C 3.929688 -0.65625 4.382812 -0.859375 4.65625 -1.265625 C 4.925781 -1.671875 5.0625 -2.304688 5.0625 -3.171875 Z M 5.0625 -3.171875 "/></g></g><g transform="translate(391.858174, 25.543108)"><g><path d="M 4.5 0 L 4.5 -4.015625 C 4.5 -4.628906 4.410156 -5.050781 4.234375 -5.28125 C 4.066406 -5.519531 3.765625 -5.640625 3.328125 -5.640625 C 2.878906 -5.640625 2.523438 -5.46875 2.265625 -5.125 C 2.003906 -4.78125 1.875 -4.296875 1.875 -3.671875 L 1.875 0 L 0.828125 0 L 0.828125 -4.984375 C 0.828125 -5.710938 0.816406 -6.160156 0.796875 -6.328125 L 1.796875 -6.328125 C 1.796875 -6.304688 1.796875 -6.253906 1.796875 -6.171875 C 1.804688 -6.085938 1.8125 -5.988281 1.8125 -5.875 C 1.820312 -5.769531 1.832031 -5.5625 1.84375 -5.25 L 1.859375 -5.25 C 2.078125 -5.695312 2.332031 -6.007812 2.625 -6.1875 C 2.925781 -6.363281 3.285156 -6.453125 3.703125 -6.453125 C 4.179688 -6.453125 4.5625 -6.351562 4.84375 -6.15625 C 5.125 -5.96875 5.316406 -5.664062 5.421875 -5.25 L 5.4375 -5.25 C 5.65625 -5.675781 5.921875 -5.984375 6.234375 -6.171875 C 6.546875 -6.359375 6.921875 -6.453125 7.359375 -6.453125 C 8.003906 -6.453125 8.46875 -6.273438 8.75 -5.921875 C 9.039062 -5.578125 9.1875 -5.007812 9.1875 -4.21875 L 9.1875 0 L 8.15625 0 L 8.15625 -4.015625 C 8.15625 -4.628906 8.066406 -5.050781 7.890625 -5.28125 C 7.722656 -5.519531 7.425781 -5.640625 7 -5.640625 C 6.53125 -5.640625 6.164062 -5.46875 5.90625 -5.125 C 5.65625 -4.78125 5.53125 -4.296875 5.53125 -3.671875 L 5.53125 0 Z M 4.5 0 "/></g></g></g><g fill="#000000" fill-opacity="1"><g transform="translate(62.050503, 231.139568)"><g><path d="M 7.4375 -2.28125 C 7.4375 -1.519531 7.140625 -0.929688 6.546875 -0.515625 C 5.953125 -0.0976562 5.113281 0.109375 4.03125 0.109375 C 2.03125 0.109375 0.867188 -0.585938 0.546875 -1.984375 L 1.625 -2.1875 C 1.75 -1.695312 2.015625 -1.332031 2.421875 -1.09375 C 2.828125 -0.863281 3.378906 -0.75 4.078125 -0.75 C 4.796875 -0.75 5.351562 -0.875 5.75 -1.125 C 6.144531 -1.375 6.34375 -1.738281 6.34375 -2.21875 C 6.34375 -2.488281 6.28125 -2.707031 6.15625 -2.875 C 6.03125 -3.039062 5.851562 -3.175781 5.625 -3.28125 C 5.40625 -3.394531 5.140625 -3.488281 4.828125 -3.5625 C 4.523438 -3.632812 4.1875 -3.710938 3.8125 -3.796875 C 3.164062 -3.941406 2.671875 -4.085938 2.328125 -4.234375 C 1.992188 -4.378906 1.726562 -4.539062 1.53125 -4.71875 C 1.332031 -4.894531 1.179688 -5.101562 1.078125 -5.34375 C 0.984375 -5.582031 0.9375 -5.851562 0.9375 -6.15625 C 0.9375 -6.863281 1.203125 -7.410156 1.734375 -7.796875 C 2.273438 -8.179688 3.050781 -8.375 4.0625 -8.375 C 5 -8.375 5.710938 -8.226562 6.203125 -7.9375 C 6.703125 -7.644531 7.050781 -7.15625 7.25 -6.46875 L 6.15625 -6.28125 C 6.03125 -6.71875 5.796875 -7.035156 5.453125 -7.234375 C 5.117188 -7.429688 4.648438 -7.53125 4.046875 -7.53125 C 3.390625 -7.53125 2.882812 -7.421875 2.53125 -7.203125 C 2.1875 -6.984375 2.015625 -6.65625 2.015625 -6.21875 C 2.015625 -5.96875 2.082031 -5.757812 2.21875 -5.59375 C 2.351562 -5.425781 2.546875 -5.285156 2.796875 -5.171875 C 3.054688 -5.054688 3.5625 -4.914062 4.3125 -4.75 C 4.570312 -4.6875 4.828125 -4.625 5.078125 -4.5625 C 5.328125 -4.507812 5.566406 -4.4375 5.796875 -4.34375 C 6.023438 -4.257812 6.238281 -4.160156 6.4375 -4.046875 C 6.644531 -3.941406 6.820312 -3.804688 6.96875 -3.640625 C 7.113281 -3.472656 7.226562 -3.28125 7.3125 -3.0625 C 7.394531 -2.84375 7.4375 -2.582031 7.4375 -2.28125 Z M 7.4375 -2.28125 "/></g></g><g transform="translate(70.045894, 231.139568)"><g><path d="M 1.609375 -2.9375 C 1.609375 -2.21875 1.757812 -1.660156 2.0625 -1.265625 C 2.363281 -0.867188 2.800781 -0.671875 3.375 -0.671875 C 3.832031 -0.671875 4.195312 -0.757812 4.46875 -0.9375 C 4.75 -1.125 4.9375 -1.359375 5.03125 -1.640625 L 5.96875 -1.375 C 5.582031 -0.382812 4.71875 0.109375 3.375 0.109375 C 2.445312 0.109375 1.738281 -0.164062 1.25 -0.71875 C 0.757812 -1.28125 0.515625 -2.109375 0.515625 -3.203125 C 0.515625 -4.253906 0.757812 -5.054688 1.25 -5.609375 C 1.738281 -6.171875 2.4375 -6.453125 3.34375 -6.453125 C 5.195312 -6.453125 6.125 -5.328125 6.125 -3.078125 L 6.125 -2.9375 Z M 5.046875 -3.75 C 4.984375 -4.414062 4.8125 -4.898438 4.53125 -5.203125 C 4.25 -5.515625 3.847656 -5.671875 3.328125 -5.671875 C 2.816406 -5.671875 2.410156 -5.5 2.109375 -5.15625 C 1.804688 -4.8125 1.644531 -4.34375 1.625 -3.75 Z M 5.046875 -3.75 "/></g></g><g transform="translate(76.712622, 231.139568)"><g><path d="M 3.203125 2.484375 C 2.515625 2.484375 1.960938 2.347656 1.546875 2.078125 C 1.140625 1.804688 0.878906 1.421875 0.765625 0.921875 L 1.828125 0.765625 C 1.898438 1.066406 2.054688 1.296875 2.296875 1.453125 C 2.535156 1.609375 2.847656 1.6875 3.234375 1.6875 C 4.285156 1.6875 4.8125 1.070312 4.8125 -0.15625 L 4.8125 -1.171875 L 4.796875 -1.171875 C 4.597656 -0.765625 4.320312 -0.457031 3.96875 -0.25 C 3.625 -0.0507812 3.222656 0.046875 2.765625 0.046875 C 1.984375 0.046875 1.410156 -0.207031 1.046875 -0.71875 C 0.679688 -1.238281 0.5 -2.050781 0.5 -3.15625 C 0.5 -4.269531 0.691406 -5.09375 1.078125 -5.625 C 1.472656 -6.164062 2.070312 -6.4375 2.875 -6.4375 C 3.320312 -6.4375 3.710938 -6.332031 4.046875 -6.125 C 4.378906 -5.914062 4.632812 -5.625 4.8125 -5.25 L 4.828125 -5.25 C 4.828125 -5.363281 4.832031 -5.566406 4.84375 -5.859375 C 4.863281 -6.148438 4.878906 -6.304688 4.890625 -6.328125 L 5.890625 -6.328125 C 5.867188 -6.117188 5.859375 -5.679688 5.859375 -5.015625 L 5.859375 -0.1875 C 5.859375 1.59375 4.972656 2.484375 3.203125 2.484375 Z M 4.8125 -3.171875 C 4.8125 -3.679688 4.738281 -4.125 4.59375 -4.5 C 4.457031 -4.875 4.257812 -5.15625 4 -5.34375 C 3.75 -5.539062 3.460938 -5.640625 3.140625 -5.640625 C 2.597656 -5.640625 2.203125 -5.445312 1.953125 -5.0625 C 1.710938 -4.675781 1.59375 -4.046875 1.59375 -3.171875 C 1.59375 -2.296875 1.707031 -1.671875 1.9375 -1.296875 C 2.164062 -0.921875 2.5625 -0.734375 3.125 -0.734375 C 3.445312 -0.734375 3.738281 -0.828125 4 -1.015625 C 4.257812 -1.210938 4.457031 -1.492188 4.59375 -1.859375 C 4.738281 -2.222656 4.8125 -2.660156 4.8125 -3.171875 Z M 4.8125 -3.171875 "/></g></g></g><g fill="#000000" fill-opacity="1"><g transform="translate(157.028475, 231.139568)"><g><path d="M 4.21875 -7.328125 L 4.21875 0 L 3.09375 0 L 3.09375 -7.328125 L 0.265625 -7.328125 L 0.265625 -8.25 L 7.046875 -8.25 L 7.046875 -7.328125 Z M 4.21875 -7.328125 "/></g></g></g><g fill="#000000" fill-opacity="1"><g transform="translate(163.022091, 231.139568)"><g><path d="M 1.609375 -2.9375 C 1.609375 -2.21875 1.757812 -1.660156 2.0625 -1.265625 C 2.363281 -0.867188 2.800781 -0.671875 3.375 -0.671875 C 3.832031 -0.671875 4.195312 -0.757812 4.46875 -0.9375 C 4.75 -1.125 4.9375 -1.359375 5.03125 -1.640625 L 5.96875 -1.375 C 5.582031 -0.382812 4.71875 0.109375 3.375 0.109375 C 2.445312 0.109375 1.738281 -0.164062 1.25 -0.71875 C 0.757812 -1.28125 0.515625 -2.109375 0.515625 -3.203125 C 0.515625 -4.253906 0.757812 -5.054688 1.25 -5.609375 C 1.738281 -6.171875 2.4375 -6.453125 3.34375 -6.453125 C 5.195312 -6.453125 6.125 -5.328125 6.125 -3.078125 L 6.125 -2.9375 Z M 5.046875 -3.75 C 4.984375 -4.414062 4.8125 -4.898438 4.53125 -5.203125 C 4.25 -5.515625 3.847656 -5.671875 3.328125 -5.671875 C 2.816406 -5.671875 2.410156 -5.5 2.109375 -5.15625 C 1.804688 -4.8125 1.644531 -4.34375 1.625 -3.75 Z M 5.046875 -3.75 "/></g></g><g transform="translate(169.688819, 231.139568)"><g><path d="M 0.828125 0 L 0.828125 -4.859375 C 0.828125 -5.304688 0.816406 -5.796875 0.796875 -6.328125 L 1.796875 -6.328125 C 1.828125 -5.609375 1.84375 -5.175781 1.84375 -5.03125 L 1.859375 -5.03125 C 2.023438 -5.582031 2.21875 -5.957031 2.4375 -6.15625 C 2.65625 -6.351562 2.960938 -6.453125 3.359375 -6.453125 C 3.503906 -6.453125 3.648438 -6.429688 3.796875 -6.390625 L 3.796875 -5.421875 C 3.648438 -5.460938 3.460938 -5.484375 3.234375 -5.484375 C 2.796875 -5.484375 2.460938 -5.296875 2.234375 -4.921875 C 2.003906 -4.546875 1.890625 -4.003906 1.890625 -3.296875 L 1.890625 0 Z M 0.828125 0 "/></g></g></g><g fill="#000000" fill-opacity="1"><g transform="translate(247.031291, 231.139568)"><g><path d="M 8.75 -4.15625 C 8.75 -3 8.457031 -2.046875 7.875 -1.296875 C 7.289062 -0.546875 6.476562 -0.101562 5.4375 0.03125 C 5.59375 0.519531 5.800781 0.875 6.0625 1.09375 C 6.320312 1.3125 6.648438 1.421875 7.046875 1.421875 C 7.265625 1.421875 7.488281 1.398438 7.71875 1.359375 L 7.71875 2.140625 C 7.351562 2.222656 7.003906 2.265625 6.671875 2.265625 C 6.085938 2.265625 5.601562 2.097656 5.21875 1.765625 C 4.84375 1.429688 4.535156 0.875 4.296875 0.09375 C 3.515625 0.0507812 2.84375 -0.144531 2.28125 -0.5 C 1.726562 -0.851562 1.300781 -1.34375 1 -1.96875 C 0.707031 -2.601562 0.5625 -3.332031 0.5625 -4.15625 C 0.5625 -5.476562 0.921875 -6.507812 1.640625 -7.25 C 2.367188 -8 3.375 -8.375 4.65625 -8.375 C 5.5 -8.375 6.226562 -8.207031 6.84375 -7.875 C 7.457031 -7.539062 7.925781 -7.050781 8.25 -6.40625 C 8.582031 -5.769531 8.75 -5.019531 8.75 -4.15625 Z M 7.609375 -4.15625 C 7.609375 -5.1875 7.347656 -5.992188 6.828125 -6.578125 C 6.316406 -7.160156 5.59375 -7.453125 4.65625 -7.453125 C 3.71875 -7.453125 2.988281 -7.160156 2.46875 -6.578125 C 1.957031 -6.003906 1.703125 -5.195312 1.703125 -4.15625 C 1.703125 -3.125 1.960938 -2.304688 2.484375 -1.703125 C 3.003906 -1.097656 3.726562 -0.796875 4.65625 -0.796875 C 5.601562 -0.796875 6.332031 -1.085938 6.84375 -1.671875 C 7.351562 -2.253906 7.609375 -3.082031 7.609375 -4.15625 Z M 7.609375 -4.15625 "/></g></g><g transform="translate(256.355345, 231.139568)"><g><path d="M 1.84375 -6.328125 L 1.84375 -2.3125 C 1.84375 -1.894531 1.878906 -1.570312 1.953125 -1.34375 C 2.035156 -1.113281 2.164062 -0.945312 2.34375 -0.84375 C 2.53125 -0.75 2.796875 -0.703125 3.140625 -0.703125 C 3.648438 -0.703125 4.050781 -0.875 4.34375 -1.21875 C 4.632812 -1.5625 4.78125 -2.039062 4.78125 -2.65625 L 4.78125 -6.328125 L 5.828125 -6.328125 L 5.828125 -1.359375 C 5.828125 -0.617188 5.84375 -0.164062 5.875 0 L 4.875 0 C 4.875 -0.0195312 4.867188 -0.0703125 4.859375 -0.15625 C 4.859375 -0.238281 4.851562 -0.335938 4.84375 -0.453125 C 4.84375 -0.566406 4.835938 -0.773438 4.828125 -1.078125 L 4.8125 -1.078125 C 4.570312 -0.640625 4.289062 -0.332031 3.96875 -0.15625 C 3.65625 0.0195312 3.257812 0.109375 2.78125 0.109375 C 2.09375 0.109375 1.585938 -0.0625 1.265625 -0.40625 C 0.941406 -0.75 0.78125 -1.316406 0.78125 -2.109375 L 0.78125 -6.328125 Z M 1.84375 -6.328125 "/></g></g><g transform="translate(263.022073, 231.139568)"><g><path d="M 2.421875 0.109375 C 1.785156 0.109375 1.304688 -0.0546875 0.984375 -0.390625 C 0.671875 -0.722656 0.515625 -1.179688 0.515625 -1.765625 C 0.515625 -2.421875 0.726562 -2.921875 1.15625 -3.265625 C 1.582031 -3.617188 2.273438 -3.8125 3.234375 -3.84375 L 4.65625 -3.859375 L 4.65625 -4.203125 C 4.65625 -4.722656 4.546875 -5.09375 4.328125 -5.3125 C 4.117188 -5.53125 3.78125 -5.640625 3.3125 -5.640625 C 2.832031 -5.640625 2.484375 -5.5625 2.265625 -5.40625 C 2.054688 -5.25 1.929688 -4.992188 1.890625 -4.640625 L 0.796875 -4.734375 C 0.972656 -5.878906 1.816406 -6.453125 3.328125 -6.453125 C 4.117188 -6.453125 4.71875 -6.269531 5.125 -5.90625 C 5.53125 -5.539062 5.734375 -5.007812 5.734375 -4.3125 L 5.734375 -1.59375 C 5.734375 -1.28125 5.769531 -1.046875 5.84375 -0.890625 C 5.925781 -0.734375 6.082031 -0.65625 6.3125 -0.65625 C 6.414062 -0.65625 6.535156 -0.664062 6.671875 -0.6875 L 6.671875 -0.03125 C 6.398438 0.03125 6.128906 0.0625 5.859375 0.0625 C 5.460938 0.0625 5.175781 -0.0390625 5 -0.25 C 4.820312 -0.457031 4.722656 -0.78125 4.703125 -1.21875 L 4.65625 -1.21875 C 4.394531 -0.726562 4.082031 -0.382812 3.71875 -0.1875 C 3.363281 0.0078125 2.929688 0.109375 2.421875 0.109375 Z M 2.65625 -0.671875 C 3.039062 -0.671875 3.382812 -0.757812 3.6875 -0.9375 C 3.988281 -1.113281 4.222656 -1.351562 4.390625 -1.65625 C 4.566406 -1.96875 4.65625 -2.285156 4.65625 -2.609375 L 4.65625 -3.125 L 3.515625 -3.09375 C 3.015625 -3.09375 2.632812 -3.046875 2.375 -2.953125 C 2.125 -2.859375 1.929688 -2.710938 1.796875 -2.515625 C 1.660156 -2.316406 1.59375 -2.0625 1.59375 -1.75 C 1.59375 -1.40625 1.679688 -1.140625 1.859375 -0.953125 C 2.046875 -0.765625 2.3125 -0.671875 2.65625 -0.671875 Z M 2.65625 -0.671875 "/></g></g></g><g fill="#000000" fill-opacity="1"><g transform="translate(342.418968, 231.139568)"><g><path d="M 8.75 -4.15625 C 8.75 -3 8.457031 -2.046875 7.875 -1.296875 C 7.289062 -0.546875 6.476562 -0.101562 5.4375 0.03125 C 5.59375 0.519531 5.800781 0.875 6.0625 1.09375 C 6.320312 1.3125 6.648438 1.421875 7.046875 1.421875 C 7.265625 1.421875 7.488281 1.398438 7.71875 1.359375 L 7.71875 2.140625 C 7.351562 2.222656 7.003906 2.265625 6.671875 2.265625 C 6.085938 2.265625 5.601562 2.097656 5.21875 1.765625 C 4.84375 1.429688 4.535156 0.875 4.296875 0.09375 C 3.515625 0.0507812 2.84375 -0.144531 2.28125 -0.5 C 1.726562 -0.851562 1.300781 -1.34375 1 -1.96875 C 0.707031 -2.601562 0.5625 -3.332031 0.5625 -4.15625 C 0.5625 -5.476562 0.921875 -6.507812 1.640625 -7.25 C 2.367188 -8 3.375 -8.375 4.65625 -8.375 C 5.5 -8.375 6.226562 -8.207031 6.84375 -7.875 C 7.457031 -7.539062 7.925781 -7.050781 8.25 -6.40625 C 8.582031 -5.769531 8.75 -5.019531 8.75 -4.15625 Z M 7.609375 -4.15625 C 7.609375 -5.1875 7.347656 -5.992188 6.828125 -6.578125 C 6.316406 -7.160156 5.59375 -7.453125 4.65625 -7.453125 C 3.71875 -7.453125 2.988281 -7.160156 2.46875 -6.578125 C 1.957031 -6.003906 1.703125 -5.195312 1.703125 -4.15625 C 1.703125 -3.125 1.960938 -2.304688 2.484375 -1.703125 C 3.003906 -1.097656 3.726562 -0.796875 4.65625 -0.796875 C 5.601562 -0.796875 6.332031 -1.085938 6.84375 -1.671875 C 7.351562 -2.253906 7.609375 -3.082031 7.609375 -4.15625 Z M 7.609375 -4.15625 "/></g></g><g transform="translate(351.743022, 231.139568)"><g><path d="M 1.84375 -6.328125 L 1.84375 -2.3125 C 1.84375 -1.894531 1.878906 -1.570312 1.953125 -1.34375 C 2.035156 -1.113281 2.164062 -0.945312 2.34375 -0.84375 C 2.53125 -0.75 2.796875 -0.703125 3.140625 -0.703125 C 3.648438 -0.703125 4.050781 -0.875 4.34375 -1.21875 C 4.632812 -1.5625 4.78125 -2.039062 4.78125 -2.65625 L 4.78125 -6.328125 L 5.828125 -6.328125 L 5.828125 -1.359375 C 5.828125 -0.617188 5.84375 -0.164062 5.875 0 L 4.875 0 C 4.875 -0.0195312 4.867188 -0.0703125 4.859375 -0.15625 C 4.859375 -0.238281 4.851562 -0.335938 4.84375 -0.453125 C 4.84375 -0.566406 4.835938 -0.773438 4.828125 -1.078125 L 4.8125 -1.078125 C 4.570312 -0.640625 4.289062 -0.332031 3.96875 -0.15625 C 3.65625 0.0195312 3.257812 0.109375 2.78125 0.109375 C 2.09375 0.109375 1.585938 -0.0625 1.265625 -0.40625 C 0.941406 -0.75 0.78125 -1.316406 0.78125 -2.109375 L 0.78125 -6.328125 Z M 1.84375 -6.328125 "/></g></g><g transform="translate(358.40975, 231.139568)"><g><path d="M 0.796875 -7.671875 L 0.796875 -8.6875 L 1.859375 -8.6875 L 1.859375 -7.671875 Z M 0.796875 0 L 0.796875 -6.328125 L 1.859375 -6.328125 L 1.859375 0 Z M 0.796875 0 "/></g></g></g><g fill="#000000" fill-opacity="1"><g transform="translate(434.060633, 231.139568)"><g><path d="M 7.4375 -2.28125 C 7.4375 -1.519531 7.140625 -0.929688 6.546875 -0.515625 C 5.953125 -0.0976562 5.113281 0.109375 4.03125 0.109375 C 2.03125 0.109375 0.867188 -0.585938 0.546875 -1.984375 L 1.625 -2.1875 C 1.75 -1.695312 2.015625 -1.332031 2.421875 -1.09375 C 2.828125 -0.863281 3.378906 -0.75 4.078125 -0.75 C 4.796875 -0.75 5.351562 -0.875 5.75 -1.125 C 6.144531 -1.375 6.34375 -1.738281 6.34375 -2.21875 C 6.34375 -2.488281 6.28125 -2.707031 6.15625 -2.875 C 6.03125 -3.039062 5.851562 -3.175781 5.625 -3.28125 C 5.40625 -3.394531 5.140625 -3.488281 4.828125 -3.5625 C 4.523438 -3.632812 4.1875 -3.710938 3.8125 -3.796875 C 3.164062 -3.941406 2.671875 -4.085938 2.328125 -4.234375 C 1.992188 -4.378906 1.726562 -4.539062 1.53125 -4.71875 C 1.332031 -4.894531 1.179688 -5.101562 1.078125 -5.34375 C 0.984375 -5.582031 0.9375 -5.851562 0.9375 -6.15625 C 0.9375 -6.863281 1.203125 -7.410156 1.734375 -7.796875 C 2.273438 -8.179688 3.050781 -8.375 4.0625 -8.375 C 5 -8.375 5.710938 -8.226562 6.203125 -7.9375 C 6.703125 -7.644531 7.050781 -7.15625 7.25 -6.46875 L 6.15625 -6.28125 C 6.03125 -6.71875 5.796875 -7.035156 5.453125 -7.234375 C 5.117188 -7.429688 4.648438 -7.53125 4.046875 -7.53125 C 3.390625 -7.53125 2.882812 -7.421875 2.53125 -7.203125 C 2.1875 -6.984375 2.015625 -6.65625 2.015625 -6.21875 C 2.015625 -5.96875 2.082031 -5.757812 2.21875 -5.59375 C 2.351562 -5.425781 2.546875 -5.285156 2.796875 -5.171875 C 3.054688 -5.054688 3.5625 -4.914062 4.3125 -4.75 C 4.570312 -4.6875 4.828125 -4.625 5.078125 -4.5625 C 5.328125 -4.507812 5.566406 -4.4375 5.796875 -4.34375 C 6.023438 -4.257812 6.238281 -4.160156 6.4375 -4.046875 C 6.644531 -3.941406 6.820312 -3.804688 6.96875 -3.640625 C 7.113281 -3.472656 7.226562 -3.28125 7.3125 -3.0625 C 7.394531 -2.84375 7.4375 -2.582031 7.4375 -2.28125 Z M 7.4375 -2.28125 "/></g></g><g transform="translate(442.056024, 231.139568)"><g><path d="M 1.609375 -2.9375 C 1.609375 -2.21875 1.757812 -1.660156 2.0625 -1.265625 C 2.363281 -0.867188 2.800781 -0.671875 3.375 -0.671875 C 3.832031 -0.671875 4.195312 -0.757812 4.46875 -0.9375 C 4.75 -1.125 4.9375 -1.359375 5.03125 -1.640625 L 5.96875 -1.375 C 5.582031 -0.382812 4.71875 0.109375 3.375 0.109375 C 2.445312 0.109375 1.738281 -0.164062 1.25 -0.71875 C 0.757812 -1.28125 0.515625 -2.109375 0.515625 -3.203125 C 0.515625 -4.253906 0.757812 -5.054688 1.25 -5.609375 C 1.738281 -6.171875 2.4375 -6.453125 3.34375 -6.453125 C 5.195312 -6.453125 6.125 -5.328125 6.125 -3.078125 L 6.125 -2.9375 Z M 5.046875 -3.75 C 4.984375 -4.414062 4.8125 -4.898438 4.53125 -5.203125 C 4.25 -5.515625 3.847656 -5.671875 3.328125 -5.671875 C 2.816406 -5.671875 2.410156 -5.5 2.109375 -5.15625 C 1.804688 -4.8125 1.644531 -4.34375 1.625 -3.75 Z M 5.046875 -3.75 "/></g></g><g transform="translate(448.722752, 231.139568)"><g><path d="M 4.6875 0 L 2.984375 -2.59375 L 1.265625 0 L 0.140625 0 L 2.390625 -3.25 L 0.234375 -6.328125 L 1.40625 -6.328125 L 2.984375 -3.875 L 4.546875 -6.328125 L 5.734375 -6.328125 L 3.578125 -3.265625 L 5.859375 0 Z M 4.6875 0 "/></g></g></g><g fill="#000000" fill-opacity="1"><g transform="translate(526.732515, 231.139568)"><g><path d="M 7.4375 -2.28125 C 7.4375 -1.519531 7.140625 -0.929688 6.546875 -0.515625 C 5.953125 -0.0976562 5.113281 0.109375 4.03125 0.109375 C 2.03125 0.109375 0.867188 -0.585938 0.546875 -1.984375 L 1.625 -2.1875 C 1.75 -1.695312 2.015625 -1.332031 2.421875 -1.09375 C 2.828125 -0.863281 3.378906 -0.75 4.078125 -0.75 C 4.796875 -0.75 5.351562 -0.875 5.75 -1.125 C 6.144531 -1.375 6.34375 -1.738281 6.34375 -2.21875 C 6.34375 -2.488281 6.28125 -2.707031 6.15625 -2.875 C 6.03125 -3.039062 5.851562 -3.175781 5.625 -3.28125 C 5.40625 -3.394531 5.140625 -3.488281 4.828125 -3.5625 C 4.523438 -3.632812 4.1875 -3.710938 3.8125 -3.796875 C 3.164062 -3.941406 2.671875 -4.085938 2.328125 -4.234375 C 1.992188 -4.378906 1.726562 -4.539062 1.53125 -4.71875 C 1.332031 -4.894531 1.179688 -5.101562 1.078125 -5.34375 C 0.984375 -5.582031 0.9375 -5.851562 0.9375 -6.15625 C 0.9375 -6.863281 1.203125 -7.410156 1.734375 -7.796875 C 2.273438 -8.179688 3.050781 -8.375 4.0625 -8.375 C 5 -8.375 5.710938 -8.226562 6.203125 -7.9375 C 6.703125 -7.644531 7.050781 -7.15625 7.25 -6.46875 L 6.15625 -6.28125 C 6.03125 -6.71875 5.796875 -7.035156 5.453125 -7.234375 C 5.117188 -7.429688 4.648438 -7.53125 4.046875 -7.53125 C 3.390625 -7.53125 2.882812 -7.421875 2.53125 -7.203125 C 2.1875 -6.984375 2.015625 -6.65625 2.015625 -6.21875 C 2.015625 -5.96875 2.082031 -5.757812 2.21875 -5.59375 C 2.351562 -5.425781 2.546875 -5.285156 2.796875 -5.171875 C 3.054688 -5.054688 3.5625 -4.914062 4.3125 -4.75 C 4.570312 -4.6875 4.828125 -4.625 5.078125 -4.5625 C 5.328125 -4.507812 5.566406 -4.4375 5.796875 -4.34375 C 6.023438 -4.257812 6.238281 -4.160156 6.4375 -4.046875 C 6.644531 -3.941406 6.820312 -3.804688 6.96875 -3.640625 C 7.113281 -3.472656 7.226562 -3.28125 7.3125 -3.0625 C 7.394531 -2.84375 7.4375 -2.582031 7.4375 -2.28125 Z M 7.4375 -2.28125 "/></g></g><g transform="translate(534.727906, 231.139568)"><g><path d="M 2.421875 0.109375 C 1.785156 0.109375 1.304688 -0.0546875 0.984375 -0.390625 C 0.671875 -0.722656 0.515625 -1.179688 0.515625 -1.765625 C 0.515625 -2.421875 0.726562 -2.921875 1.15625 -3.265625 C 1.582031 -3.617188 2.273438 -3.8125 3.234375 -3.84375 L 4.65625 -3.859375 L 4.65625 -4.203125 C 4.65625 -4.722656 4.546875 -5.09375 4.328125 -5.3125 C 4.117188 -5.53125 3.78125 -5.640625 3.3125 -5.640625 C 2.832031 -5.640625 2.484375 -5.5625 2.265625 -5.40625 C 2.054688 -5.25 1.929688 -4.992188 1.890625 -4.640625 L 0.796875 -4.734375 C 0.972656 -5.878906 1.816406 -6.453125 3.328125 -6.453125 C 4.117188 -6.453125 4.71875 -6.269531 5.125 -5.90625 C 5.53125 -5.539062 5.734375 -5.007812 5.734375 -4.3125 L 5.734375 -1.59375 C 5.734375 -1.28125 5.769531 -1.046875 5.84375 -0.890625 C 5.925781 -0.734375 6.082031 -0.65625 6.3125 -0.65625 C 6.414062 -0.65625 6.535156 -0.664062 6.671875 -0.6875 L 6.671875 -0.03125 C 6.398438 0.03125 6.128906 0.0625 5.859375 0.0625 C 5.460938 0.0625 5.175781 -0.0390625 5 -0.25 C 4.820312 -0.457031 4.722656 -0.78125 4.703125 -1.21875 L 4.65625 -1.21875 C 4.394531 -0.726562 4.082031 -0.382812 3.71875 -0.1875 C 3.363281 0.0078125 2.929688 0.109375 2.421875 0.109375 Z M 2.65625 -0.671875 C 3.039062 -0.671875 3.382812 -0.757812 3.6875 -0.9375 C 3.988281 -1.113281 4.222656 -1.351562 4.390625 -1.65625 C 4.566406 -1.96875 4.65625 -2.285156 4.65625 -2.609375 L 4.65625 -3.125 L 3.515625 -3.09375 C 3.015625 -3.09375 2.632812 -3.046875 2.375 -2.953125 C 2.125 -2.859375 1.929688 -2.710938 1.796875 -2.515625 C 1.660156 -2.316406 1.59375 -2.0625 1.59375 -1.75 C 1.59375 -1.40625 1.679688 -1.140625 1.859375 -0.953125 C 2.046875 -0.765625 2.3125 -0.671875 2.65625 -0.671875 Z M 2.65625 -0.671875 "/></g></g><g transform="translate(541.394634, 231.139568)"><g><path d="M 6.15625 -3.1875 C 6.15625 -0.988281 5.378906 0.109375 3.828125 0.109375 C 3.347656 0.109375 2.945312 0.0234375 2.625 -0.140625 C 2.3125 -0.316406 2.054688 -0.597656 1.859375 -0.984375 L 1.84375 -0.984375 C 1.84375 -0.859375 1.832031 -0.671875 1.8125 -0.421875 C 1.800781 -0.179688 1.796875 -0.0390625 1.796875 0 L 0.765625 0 C 0.796875 -0.207031 0.8125 -0.644531 0.8125 -1.3125 L 0.8125 -8.6875 L 1.859375 -8.6875 L 1.859375 -6.203125 C 1.859375 -5.953125 1.851562 -5.65625 1.84375 -5.3125 L 1.859375 -5.3125 C 2.054688 -5.71875 2.316406 -6.007812 2.640625 -6.1875 C 2.960938 -6.363281 3.359375 -6.453125 3.828125 -6.453125 C 4.628906 -6.453125 5.21875 -6.179688 5.59375 -5.640625 C 5.96875 -5.097656 6.15625 -4.28125 6.15625 -3.1875 Z M 5.0625 -3.15625 C 5.0625 -4.039062 4.941406 -4.675781 4.703125 -5.0625 C 4.472656 -5.445312 4.09375 -5.640625 3.5625 -5.640625 C 2.96875 -5.640625 2.535156 -5.4375 2.265625 -5.03125 C 1.992188 -4.625 1.859375 -3.976562 1.859375 -3.09375 C 1.859375 -2.257812 1.988281 -1.644531 2.25 -1.25 C 2.519531 -0.851562 2.953125 -0.65625 3.546875 -0.65625 C 4.078125 -0.65625 4.460938 -0.851562 4.703125 -1.25 C 4.941406 -1.644531 5.0625 -2.28125 5.0625 -3.15625 Z M 5.0625 -3.15625 "/></g></g></g><g fill="#000000" fill-opacity="1"><g transform="translate(14.078874, 219.901537)"><g><path d="M 6.203125 -4.125 C 6.203125 -2.75 5.957031 -1.695312 5.46875 -0.96875 C 4.976562 -0.25 4.257812 0.109375 3.3125 0.109375 C 2.363281 0.109375 1.648438 -0.25 1.171875 -0.96875 C 0.703125 -1.6875 0.46875 -2.738281 0.46875 -4.125 C 0.46875 -5.539062 0.695312 -6.601562 1.15625 -7.3125 C 1.625 -8.019531 2.359375 -8.375 3.359375 -8.375 C 4.328125 -8.375 5.039062 -8.015625 5.5 -7.296875 C 5.96875 -6.578125 6.203125 -5.519531 6.203125 -4.125 Z M 5.125 -4.125 C 5.125 -5.3125 4.984375 -6.171875 4.703125 -6.703125 C 4.429688 -7.242188 3.984375 -7.515625 3.359375 -7.515625 C 2.703125 -7.515625 2.234375 -7.25 1.953125 -6.71875 C 1.671875 -6.195312 1.53125 -5.332031 1.53125 -4.125 C 1.53125 -2.957031 1.671875 -2.101562 1.953125 -1.5625 C 2.242188 -1.019531 2.703125 -0.75 3.328125 -0.75 C 3.953125 -0.75 4.40625 -1.023438 4.6875 -1.578125 C 4.976562 -2.128906 5.125 -2.976562 5.125 -4.125 Z M 5.125 -4.125 "/></g></g></g><g fill="#000000" fill-opacity="1"><g transform="translate(7.757482, 195.465315)"><g><path d="M 0.609375 0 L 0.609375 -0.75 C 0.804688 -1.195312 1.046875 -1.59375 1.328125 -1.9375 C 1.617188 -2.289062 1.921875 -2.609375 2.234375 -2.890625 C 2.546875 -3.179688 2.859375 -3.445312 3.171875 -3.6875 C 3.484375 -3.925781 3.765625 -4.164062 4.015625 -4.40625 C 4.265625 -4.65625 4.460938 -4.910156 4.609375 -5.171875 C 4.765625 -5.441406 4.84375 -5.742188 4.84375 -6.078125 C 4.84375 -6.523438 4.710938 -6.875 4.453125 -7.125 C 4.191406 -7.375 3.820312 -7.5 3.34375 -7.5 C 2.894531 -7.5 2.523438 -7.375 2.234375 -7.125 C 1.941406 -6.882812 1.769531 -6.546875 1.71875 -6.109375 L 0.65625 -6.203125 C 0.726562 -6.867188 1.003906 -7.394531 1.484375 -7.78125 C 1.972656 -8.175781 2.59375 -8.375 3.34375 -8.375 C 4.175781 -8.375 4.816406 -8.175781 5.265625 -7.78125 C 5.710938 -7.382812 5.9375 -6.828125 5.9375 -6.109375 C 5.9375 -5.785156 5.863281 -5.46875 5.71875 -5.15625 C 5.570312 -4.84375 5.351562 -4.523438 5.0625 -4.203125 C 4.769531 -3.890625 4.21875 -3.398438 3.40625 -2.734375 C 2.957031 -2.367188 2.597656 -2.039062 2.328125 -1.75 C 2.066406 -1.457031 1.878906 -1.171875 1.765625 -0.890625 L 6.0625 -0.890625 L 6.0625 0 Z M 0.609375 0 "/></g></g><g transform="translate(14.42421, 195.465315)"><g><path d="M 6.203125 -4.125 C 6.203125 -2.75 5.957031 -1.695312 5.46875 -0.96875 C 4.976562 -0.25 4.257812 0.109375 3.3125 0.109375 C 2.363281 0.109375 1.648438 -0.25 1.171875 -0.96875 C 0.703125 -1.6875 0.46875 -2.738281 0.46875 -4.125 C 0.46875 -5.539062 0.695312 -6.601562 1.15625 -7.3125 C 1.625 -8.019531 2.359375 -8.375 3.359375 -8.375 C 4.328125 -8.375 5.039062 -8.015625 5.5 -7.296875 C 5.96875 -6.578125 6.203125 -5.519531 6.203125 -4.125 Z M 5.125 -4.125 C 5.125 -5.3125 4.984375 -6.171875 4.703125 -6.703125 C 4.429688 -7.242188 3.984375 -7.515625 3.359375 -7.515625 C 2.703125 -7.515625 2.234375 -7.25 1.953125 -6.71875 C 1.671875 -6.195312 1.53125 -5.332031 1.53125 -4.125 C 1.53125 -2.957031 1.671875 -2.101562 1.953125 -1.5625 C 2.242188 -1.019531 2.703125 -0.75 3.328125 -0.75 C 3.953125 -0.75 4.40625 -1.023438 4.6875 -1.578125 C 4.976562 -2.128906 5.125 -2.976562 5.125 -4.125 Z M 5.125 -4.125 "/></g></g></g><g fill="#000000" fill-opacity="1"><g transform="translate(7.757482, 171.029081)"><g><path d="M 5.15625 -1.859375 L 5.15625 0 L 4.15625 0 L 4.15625 -1.859375 L 0.28125 -1.859375 L 0.28125 -2.6875 L 4.046875 -8.25 L 5.15625 -8.25 L 5.15625 -2.703125 L 6.3125 -2.703125 L 6.3125 -1.859375 Z M 4.15625 -7.0625 C 4.15625 -7.03125 4.101562 -6.921875 4 -6.734375 C 3.894531 -6.554688 3.816406 -6.429688 3.765625 -6.359375 L 1.65625 -3.25 L 1.34375 -2.8125 L 1.25 -2.703125 L 4.15625 -2.703125 Z M 4.15625 -7.0625 "/></g></g><g transform="translate(14.42421, 171.029081)"><g><path d="M 6.203125 -4.125 C 6.203125 -2.75 5.957031 -1.695312 5.46875 -0.96875 C 4.976562 -0.25 4.257812 0.109375 3.3125 0.109375 C 2.363281 0.109375 1.648438 -0.25 1.171875 -0.96875 C 0.703125 -1.6875 0.46875 -2.738281 0.46875 -4.125 C 0.46875 -5.539062 0.695312 -6.601562 1.15625 -7.3125 C 1.625 -8.019531 2.359375 -8.375 3.359375 -8.375 C 4.328125 -8.375 5.039062 -8.015625 5.5 -7.296875 C 5.96875 -6.578125 6.203125 -5.519531 6.203125 -4.125 Z M 5.125 -4.125 C 5.125 -5.3125 4.984375 -6.171875 4.703125 -6.703125 C 4.429688 -7.242188 3.984375 -7.515625 3.359375 -7.515625 C 2.703125 -7.515625 2.234375 -7.25 1.953125 -6.71875 C 1.671875 -6.195312 1.53125 -5.332031 1.53125 -4.125 C 1.53125 -2.957031 1.671875 -2.101562 1.953125 -1.5625 C 2.242188 -1.019531 2.703125 -0.75 3.328125 -0.75 C 3.953125 -0.75 4.40625 -1.023438 4.6875 -1.578125 C 4.976562 -2.128906 5.125 -2.976562 5.125 -4.125 Z M 5.125 -4.125 "/></g></g></g><g fill="#000000" fill-opacity="1"><g transform="translate(7.757482, 146.592873)"><g><path d="M 6.140625 -2.703125 C 6.140625 -1.828125 5.898438 -1.140625 5.421875 -0.640625 C 4.953125 -0.140625 4.300781 0.109375 3.46875 0.109375 C 2.539062 0.109375 1.832031 -0.234375 1.34375 -0.921875 C 0.851562 -1.609375 0.609375 -2.613281 0.609375 -3.9375 C 0.609375 -5.363281 0.863281 -6.457031 1.375 -7.21875 C 1.882812 -7.988281 2.613281 -8.375 3.5625 -8.375 C 4.800781 -8.375 5.582031 -7.8125 5.90625 -6.6875 L 4.90625 -6.5 C 4.695312 -7.175781 4.242188 -7.515625 3.546875 -7.515625 C 2.941406 -7.515625 2.472656 -7.234375 2.140625 -6.671875 C 1.816406 -6.109375 1.65625 -5.300781 1.65625 -4.25 C 1.84375 -4.601562 2.109375 -4.867188 2.453125 -5.046875 C 2.804688 -5.234375 3.207031 -5.328125 3.65625 -5.328125 C 4.414062 -5.328125 5.019531 -5.085938 5.46875 -4.609375 C 5.914062 -4.140625 6.140625 -3.503906 6.140625 -2.703125 Z M 5.0625 -2.65625 C 5.0625 -3.25 4.914062 -3.707031 4.625 -4.03125 C 4.332031 -4.351562 3.925781 -4.515625 3.40625 -4.515625 C 2.914062 -4.515625 2.519531 -4.367188 2.21875 -4.078125 C 1.914062 -3.796875 1.765625 -3.40625 1.765625 -2.90625 C 1.765625 -2.269531 1.921875 -1.75 2.234375 -1.34375 C 2.546875 -0.9375 2.945312 -0.734375 3.4375 -0.734375 C 3.945312 -0.734375 4.34375 -0.898438 4.625 -1.234375 C 4.914062 -1.578125 5.0625 -2.050781 5.0625 -2.65625 Z M 5.0625 -2.65625 "/></g></g><g transform="translate(14.42421, 146.592873)"><g><path d="M 6.203125 -4.125 C 6.203125 -2.75 5.957031 -1.695312 5.46875 -0.96875 C 4.976562 -0.25 4.257812 0.109375 3.3125 0.109375 C 2.363281 0.109375 1.648438 -0.25 1.171875 -0.96875 C 0.703125 -1.6875 0.46875 -2.738281 0.46875 -4.125 C 0.46875 -5.539062 0.695312 -6.601562 1.15625 -7.3125 C 1.625 -8.019531 2.359375 -8.375 3.359375 -8.375 C 4.328125 -8.375 5.039062 -8.015625 5.5 -7.296875 C 5.96875 -6.578125 6.203125 -5.519531 6.203125 -4.125 Z M 5.125 -4.125 C 5.125 -5.3125 4.984375 -6.171875 4.703125 -6.703125 C 4.429688 -7.242188 3.984375 -7.515625 3.359375 -7.515625 C 2.703125 -7.515625 2.234375 -7.25 1.953125 -6.71875 C 1.671875 -6.195312 1.53125 -5.332031 1.53125 -4.125 C 1.53125 -2.957031 1.671875 -2.101562 1.953125 -1.5625 C 2.242188 -1.019531 2.703125 -0.75 3.328125 -0.75 C 3.953125 -0.75 4.40625 -1.023438 4.6875 -1.578125 C 4.976562 -2.128906 5.125 -2.976562 5.125 -4.125 Z M 5.125 -4.125 "/></g></g></g><g fill="#000000" fill-opacity="1"><g transform="translate(7.757482, 122.156646)"><g><path d="M 6.140625 -2.296875 C 6.140625 -1.535156 5.894531 -0.941406 5.40625 -0.515625 C 4.925781 -0.0976562 4.234375 0.109375 3.328125 0.109375 C 2.453125 0.109375 1.765625 -0.0976562 1.265625 -0.515625 C 0.765625 -0.929688 0.515625 -1.519531 0.515625 -2.28125 C 0.515625 -2.820312 0.671875 -3.273438 0.984375 -3.640625 C 1.296875 -4.015625 1.691406 -4.238281 2.171875 -4.3125 L 2.171875 -4.34375 C 1.722656 -4.445312 1.367188 -4.671875 1.109375 -5.015625 C 0.847656 -5.367188 0.71875 -5.78125 0.71875 -6.25 C 0.71875 -6.882812 0.953125 -7.394531 1.421875 -7.78125 C 1.890625 -8.175781 2.519531 -8.375 3.3125 -8.375 C 4.125 -8.375 4.765625 -8.179688 5.234375 -7.796875 C 5.703125 -7.410156 5.9375 -6.894531 5.9375 -6.25 C 5.9375 -5.769531 5.804688 -5.351562 5.546875 -5 C 5.285156 -4.65625 4.929688 -4.4375 4.484375 -4.34375 L 4.484375 -4.328125 C 5.003906 -4.242188 5.410156 -4.019531 5.703125 -3.65625 C 5.992188 -3.289062 6.140625 -2.835938 6.140625 -2.296875 Z M 4.84375 -6.1875 C 4.84375 -7.113281 4.332031 -7.578125 3.3125 -7.578125 C 2.8125 -7.578125 2.429688 -7.457031 2.171875 -7.21875 C 1.921875 -6.988281 1.796875 -6.644531 1.796875 -6.1875 C 1.796875 -5.71875 1.925781 -5.359375 2.1875 -5.109375 C 2.457031 -4.859375 2.835938 -4.734375 3.328125 -4.734375 C 3.816406 -4.734375 4.191406 -4.847656 4.453125 -5.078125 C 4.710938 -5.304688 4.84375 -5.675781 4.84375 -6.1875 Z M 5.046875 -2.40625 C 5.046875 -2.914062 4.894531 -3.296875 4.59375 -3.546875 C 4.289062 -3.804688 3.863281 -3.9375 3.3125 -3.9375 C 2.78125 -3.9375 2.363281 -3.796875 2.0625 -3.515625 C 1.757812 -3.242188 1.609375 -2.863281 1.609375 -2.375 C 1.609375 -1.238281 2.1875 -0.671875 3.34375 -0.671875 C 3.914062 -0.671875 4.34375 -0.804688 4.625 -1.078125 C 4.90625 -1.359375 5.046875 -1.800781 5.046875 -2.40625 Z M 5.046875 -2.40625 "/></g></g><g transform="translate(14.42421, 122.156646)"><g><path d="M 6.203125 -4.125 C 6.203125 -2.75 5.957031 -1.695312 5.46875 -0.96875 C 4.976562 -0.25 4.257812 0.109375 3.3125 0.109375 C 2.363281 0.109375 1.648438 -0.25 1.171875 -0.96875 C 0.703125 -1.6875 0.46875 -2.738281 0.46875 -4.125 C 0.46875 -5.539062 0.695312 -6.601562 1.15625 -7.3125 C 1.625 -8.019531 2.359375 -8.375 3.359375 -8.375 C 4.328125 -8.375 5.039062 -8.015625 5.5 -7.296875 C 5.96875 -6.578125 6.203125 -5.519531 6.203125 -4.125 Z M 5.125 -4.125 C 5.125 -5.3125 4.984375 -6.171875 4.703125 -6.703125 C 4.429688 -7.242188 3.984375 -7.515625 3.359375 -7.515625 C 2.703125 -7.515625 2.234375 -7.25 1.953125 -6.71875 C 1.671875 -6.195312 1.53125 -5.332031 1.53125 -4.125 C 1.53125 -2.957031 1.671875 -2.101562 1.953125 -1.5625 C 2.242188 -1.019531 2.703125 -0.75 3.328125 -0.75 C 3.953125 -0.75 4.40625 -1.023438 4.6875 -1.578125 C 4.976562 -2.128906 5.125 -2.976562 5.125 -4.125 Z M 5.125 -4.125 "/></g></g></g><g fill="#000000" fill-opacity="1"><g transform="translate(0.675181, 97.720424)"><g><path d="M 0.90625 0 L 0.90625 -0.890625 L 3.015625 -0.890625 L 3.015625 -7.234375 L 1.15625 -5.90625 L 1.15625 -6.90625 L 3.09375 -8.25 L 4.078125 -8.25 L 4.078125 -0.890625 L 6.078125 -0.890625 L 6.078125 0 Z M 0.90625 0 "/></g></g><g transform="translate(7.341909, 97.720424)"><g><path d="M 6.203125 -4.125 C 6.203125 -2.75 5.957031 -1.695312 5.46875 -0.96875 C 4.976562 -0.25 4.257812 0.109375 3.3125 0.109375 C 2.363281 0.109375 1.648438 -0.25 1.171875 -0.96875 C 0.703125 -1.6875 0.46875 -2.738281 0.46875 -4.125 C 0.46875 -5.539062 0.695312 -6.601562 1.15625 -7.3125 C 1.625 -8.019531 2.359375 -8.375 3.359375 -8.375 C 4.328125 -8.375 5.039062 -8.015625 5.5 -7.296875 C 5.96875 -6.578125 6.203125 -5.519531 6.203125 -4.125 Z M 5.125 -4.125 C 5.125 -5.3125 4.984375 -6.171875 4.703125 -6.703125 C 4.429688 -7.242188 3.984375 -7.515625 3.359375 -7.515625 C 2.703125 -7.515625 2.234375 -7.25 1.953125 -6.71875 C 1.671875 -6.195312 1.53125 -5.332031 1.53125 -4.125 C 1.53125 -2.957031 1.671875 -2.101562 1.953125 -1.5625 C 2.242188 -1.019531 2.703125 -0.75 3.328125 -0.75 C 3.953125 -0.75 4.40625 -1.023438 4.6875 -1.578125 C 4.976562 -2.128906 5.125 -2.976562 5.125 -4.125 Z M 5.125 -4.125 "/></g></g><g transform="translate(14.008637, 97.720424)"><g><path d="M 6.203125 -4.125 C 6.203125 -2.75 5.957031 -1.695312 5.46875 -0.96875 C 4.976562 -0.25 4.257812 0.109375 3.3125 0.109375 C 2.363281 0.109375 1.648438 -0.25 1.171875 -0.96875 C 0.703125 -1.6875 0.46875 -2.738281 0.46875 -4.125 C 0.46875 -5.539062 0.695312 -6.601562 1.15625 -7.3125 C 1.625 -8.019531 2.359375 -8.375 3.359375 -8.375 C 4.328125 -8.375 5.039062 -8.015625 5.5 -7.296875 C 5.96875 -6.578125 6.203125 -5.519531 6.203125 -4.125 Z M 5.125 -4.125 C 5.125 -5.3125 4.984375 -6.171875 4.703125 -6.703125 C 4.429688 -7.242188 3.984375 -7.515625 3.359375 -7.515625 C 2.703125 -7.515625 2.234375 -7.25 1.953125 -6.71875 C 1.671875 -6.195312 1.53125 -5.332031 1.53125 -4.125 C 1.53125 -2.957031 1.671875 -2.101562 1.953125 -1.5625 C 2.242188 -1.019531 2.703125 -0.75 3.328125 -0.75 C 3.953125 -0.75 4.40625 -1.023438 4.6875 -1.578125 C 4.976562 -2.128906 5.125 -2.976562 5.125 -4.125 Z M 5.125 -4.125 "/></g></g></g><g fill="#000000" fill-opacity="1"><g transform="translate(0.675181, 73.284198)"><g><path d="M 0.90625 0 L 0.90625 -0.890625 L 3.015625 -0.890625 L 3.015625 -7.234375 L 1.15625 -5.90625 L 1.15625 -6.90625 L 3.09375 -8.25 L 4.078125 -8.25 L 4.078125 -0.890625 L 6.078125 -0.890625 L 6.078125 0 Z M 0.90625 0 "/></g></g><g transform="translate(7.341909, 73.284198)"><g><path d="M 0.609375 0 L 0.609375 -0.75 C 0.804688 -1.195312 1.046875 -1.59375 1.328125 -1.9375 C 1.617188 -2.289062 1.921875 -2.609375 2.234375 -2.890625 C 2.546875 -3.179688 2.859375 -3.445312 3.171875 -3.6875 C 3.484375 -3.925781 3.765625 -4.164062 4.015625 -4.40625 C 4.265625 -4.65625 4.460938 -4.910156 4.609375 -5.171875 C 4.765625 -5.441406 4.84375 -5.742188 4.84375 -6.078125 C 4.84375 -6.523438 4.710938 -6.875 4.453125 -7.125 C 4.191406 -7.375 3.820312 -7.5 3.34375 -7.5 C 2.894531 -7.5 2.523438 -7.375 2.234375 -7.125 C 1.941406 -6.882812 1.769531 -6.546875 1.71875 -6.109375 L 0.65625 -6.203125 C 0.726562 -6.867188 1.003906 -7.394531 1.484375 -7.78125 C 1.972656 -8.175781 2.59375 -8.375 3.34375 -8.375 C 4.175781 -8.375 4.816406 -8.175781 5.265625 -7.78125 C 5.710938 -7.382812 5.9375 -6.828125 5.9375 -6.109375 C 5.9375 -5.785156 5.863281 -5.46875 5.71875 -5.15625 C 5.570312 -4.84375 5.351562 -4.523438 5.0625 -4.203125 C 4.769531 -3.890625 4.21875 -3.398438 3.40625 -2.734375 C 2.957031 -2.367188 2.597656 -2.039062 2.328125 -1.75 C 2.066406 -1.457031 1.878906 -1.171875 1.765625 -0.890625 L 6.0625 -0.890625 L 6.0625 0 Z M 0.609375 0 "/></g></g><g transform="translate(14.008637, 73.284198)"><g><path d="M 6.203125 -4.125 C 6.203125 -2.75 5.957031 -1.695312 5.46875 -0.96875 C 4.976562 -0.25 4.257812 0.109375 3.3125 0.109375 C 2.363281 0.109375 1.648438 -0.25 1.171875 -0.96875 C 0.703125 -1.6875 0.46875 -2.738281 0.46875 -4.125 C 0.46875 -5.539062 0.695312 -6.601562 1.15625 -7.3125 C 1.625 -8.019531 2.359375 -8.375 3.359375 -8.375 C 4.328125 -8.375 5.039062 -8.015625 5.5 -7.296875 C 5.96875 -6.578125 6.203125 -5.519531 6.203125 -4.125 Z M 5.125 -4.125 C 5.125 -5.3125 4.984375 -6.171875 4.703125 -6.703125 C 4.429688 -7.242188 3.984375 -7.515625 3.359375 -7.515625 C 2.703125 -7.515625 2.234375 -7.25 1.953125 -6.71875 C 1.671875 -6.195312 1.53125 -5.332031 1.53125 -4.125 C 1.53125 -2.957031 1.671875 -2.101562 1.953125 -1.5625 C 2.242188 -1.019531 2.703125 -0.75 3.328125 -0.75 C 3.953125 -0.75 4.40625 -1.023438 4.6875 -1.578125 C 4.976562 -2.128906 5.125 -2.976562 5.125 -4.125 Z M 5.125 -4.125 "/></g></g></g><g fill="#000000" fill-opacity="1"><g transform="translate(0.675181, 48.847971)"><g><path d="M 0.90625 0 L 0.90625 -0.890625 L 3.015625 -0.890625 L 3.015625 -7.234375 L 1.15625 -5.90625 L 1.15625 -6.90625 L 3.09375 -8.25 L 4.078125 -8.25 L 4.078125 -0.890625 L 6.078125 -0.890625 L 6.078125 0 Z M 0.90625 0 "/></g></g><g transform="translate(7.341909, 48.847971)"><g><path d="M 5.15625 -1.859375 L 5.15625 0 L 4.15625 0 L 4.15625 -1.859375 L 0.28125 -1.859375 L 0.28125 -2.6875 L 4.046875 -8.25 L 5.15625 -8.25 L 5.15625 -2.703125 L 6.3125 -2.703125 L 6.3125 -1.859375 Z M 4.15625 -7.0625 C 4.15625 -7.03125 4.101562 -6.921875 4 -6.734375 C 3.894531 -6.554688 3.816406 -6.429688 3.765625 -6.359375 L 1.65625 -3.25 L 1.34375 -2.8125 L 1.25 -2.703125 L 4.15625 -2.703125 Z M 4.15625 -7.0625 "/></g></g><g transform="translate(14.008637, 48.847971)"><g><path d="M 6.203125 -4.125 C 6.203125 -2.75 5.957031 -1.695312 5.46875 -0.96875 C 4.976562 -0.25 4.257812 0.109375 3.3125 0.109375 C 2.363281 0.109375 1.648438 -0.25 1.171875 -0.96875 C 0.703125 -1.6875 0.46875 -2.738281 0.46875 -4.125 C 0.46875 -5.539062 0.695312 -6.601562 1.15625 -7.3125 C 1.625 -8.019531 2.359375 -8.375 3.359375 -8.375 C 4.328125 -8.375 5.039062 -8.015625 5.5 -7.296875 C 5.96875 -6.578125 6.203125 -5.519531 6.203125 -4.125 Z M 5.125 -4.125 C 5.125 -5.3125 4.984375 -6.171875 4.703125 -6.703125 C 4.429688 -7.242188 3.984375 -7.515625 3.359375 -7.515625 C 2.703125 -7.515625 2.234375 -7.25 1.953125 -6.71875 C 1.671875 -6.195312 1.53125 -5.332031 1.53125 -4.125 C 1.53125 -2.957031 1.671875 -2.101562 1.953125 -1.5625 C 2.242188 -1.019531 2.703125 -0.75 3.328125 -0.75 C 3.953125 -0.75 4.40625 -1.023438 4.6875 -1.578125 C 4.976562 -2.128906 5.125 -2.976562 5.125 -4.125 Z M 5.125 -4.125 "/></g></g></g><g clip-path="url(#78f3f6dfd2)"><path stroke-linecap="butt" transform="matrix(0.749202, 0, 0, 0.749202, 30.48523, 44.352763)" fill="none" stroke-linejoin="miter" d="M -0.00114057 228.314218 L 732.47084 228.314218 " stroke="#000000" stroke-width="1" stroke-opacity="0.6" stroke-miterlimit="4"/></g><g clip-path="url(#f3119e697a)"><path stroke-linecap="butt" transform="matrix(0.749202, 0, 0, 0.749202, 30.48523, 44.352763)" fill="none" stroke-linejoin="miter" d="M -0.00114057 195.696183 L 732.47084 195.696183 " stroke="#000000" stroke-width="1" stroke-opacity="0.251" stroke-miterlimit="4"/></g><g clip-path="url(#6b25316ba2)"><path stroke-linecap="butt" transform="matrix(0.749202, 0, 0, 0.749202, 30.48523, 44.352763)" fill="none" stroke-linejoin="miter" d="M -0.00114057 163.083361 L 732.47084 163.083361 " stroke="#000000" stroke-width="1" stroke-opacity="0.251" stroke-miterlimit="4"/></g><g clip-path="url(#8a9e18c67e)"><path stroke-linecap="butt" transform="matrix(0.749202, 0, 0, 0.749202, 30.48523, 44.352763)" fill="none" stroke-linejoin="miter" d="M -0.00114057 130.465325 L 732.47084 130.465325 " stroke="#000000" stroke-width="1" stroke-opacity="0.251" stroke-miterlimit="4"/></g><g clip-path="url(#90f47c79a7)"><path stroke-linecap="butt" transform="matrix(0.749202, 0, 0, 0.749202, 30.48523, 44.352763)" fill="none" stroke-linejoin="miter" d="M -0.00114057 97.84729 L 732.47084 97.84729 " stroke="#000000" stroke-width="1" stroke-opacity="0.251" stroke-miterlimit="4"/></g><g clip-path="url(#b071c29cbd)"><path stroke-linecap="butt" transform="matrix(0.749202, 0, 0, 0.749202, 30.48523, 44.352763)" fill="none" stroke-linejoin="miter" d="M -0.00114057 65.234468 L 732.47084 65.234468 " stroke="#000000" stroke-width="1" stroke-opacity="0.251" stroke-miterlimit="4"/></g><g clip-path="url(#409ac8c8e9)"><path stroke-linecap="butt" transform="matrix(0.749202, 0, 0, 0.749202, 30.48523, 44.352763)" fill="none" stroke-linejoin="miter" d="M -0.00114057 32.616433 L 732.47084 32.616433 " stroke="#000000" stroke-width="1" stroke-opacity="0.251" stroke-miterlimit="4"/></g><g clip-path="url(#64c4955ead)"><path stroke-linecap="butt" transform="matrix(0.749202, 0, 0, 0.749202, 30.48523, 44.352763)" fill="none" stroke-linejoin="miter" d="M -0.00114057 -0.00160252 L 732.47084 -0.00160252 " stroke="#000000" stroke-width="1" stroke-opacity="0.251" stroke-miterlimit="4"/></g><g clip-path="url(#c010b4f19d)"><path fill="#e86c6c" d="M 33.746094 159.203125 L 68.003906 159.203125 C 68.4375 159.203125 68.851562 159.285156 69.253906 159.453125 C 69.652344 159.617188 70.003906 159.851562 70.3125 160.160156 C 70.617188 160.464844 70.851562 160.816406 71.019531 161.21875 C 71.183594 161.617188 71.265625 162.03125 71.265625 162.464844 L 71.265625 215.40625 C 71.265625 215.839844 71.183594 216.253906 71.019531 216.65625 C 70.851562 217.054688 70.617188 217.40625 70.3125 217.714844 C 70.003906 218.019531 69.652344 218.253906 69.253906 218.421875 C 68.851562 218.585938 68.4375 218.667969 68.003906 218.667969 L 33.746094 218.667969 C 33.316406 218.667969 32.898438 218.585938 32.5 218.421875 C 32.097656 218.253906 31.746094 218.019531 31.441406 217.714844 C 31.136719 217.40625 30.898438 217.054688 30.734375 216.65625 C 30.566406 216.253906 30.484375 215.839844 30.484375 215.40625 L 30.484375 162.464844 C 30.484375 162.03125 30.566406 161.617188 30.734375 161.21875 C 30.898438 160.816406 31.136719 160.464844 31.441406 160.160156 C 31.746094 159.851562 32.097656 159.617188 32.5 159.453125 C 32.898438 159.285156 33.316406 159.203125 33.746094 159.203125 Z M 33.746094 159.203125 " fill-opacity="1" fill-rule="nonzero"/></g><g clip-path="url(#b63881201b)"><path fill="#8fd29e" d="M 76.675781 128.65625 L 110.933594 128.65625 C 111.367188 128.65625 111.78125 128.742188 112.179688 128.90625 C 112.582031 129.070312 112.933594 129.308594 113.238281 129.613281 C 113.546875 129.917969 113.78125 130.273438 113.945312 130.671875 C 114.113281 131.070312 114.195312 131.488281 114.195312 131.921875 L 114.195312 215.40625 C 114.195312 215.839844 114.113281 216.253906 113.945312 216.65625 C 113.78125 217.054688 113.546875 217.40625 113.238281 217.714844 C 112.933594 218.019531 112.582031 218.253906 112.179688 218.421875 C 111.78125 218.585938 111.367188 218.667969 110.933594 218.667969 L 76.675781 218.667969 C 76.242188 218.667969 75.828125 218.585938 75.425781 218.421875 C 75.027344 218.253906 74.675781 218.019531 74.367188 217.714844 C 74.0625 217.40625 73.828125 217.054688 73.660156 216.65625 C 73.496094 216.253906 73.414062 215.839844 73.414062 215.40625 L 73.414062 131.921875 C 73.414062 131.488281 73.496094 131.070312 73.660156 130.671875 C 73.828125 130.273438 74.0625 129.917969 74.367188 129.613281 C 74.675781 129.308594 75.027344 129.070312 75.425781 128.90625 C 75.828125 128.742188 76.242188 128.65625 76.675781 128.65625 Z M 76.675781 128.65625 " fill-opacity="1" fill-rule="nonzero"/></g><g clip-path="url(#1a14f846bf)"><path fill="#e86c6c" d="M 126.757812 149.429688 L 161.015625 149.429688 C 161.449219 149.429688 161.863281 149.511719 162.265625 149.675781 C 162.664062 149.84375 163.015625 150.078125 163.324219 150.382812 C 163.628906 150.691406 163.863281 151.042969 164.03125 151.441406 C 164.195312 151.84375 164.277344 152.257812 164.277344 152.691406 L 164.277344 215.40625 C 164.277344 215.839844 164.195312 216.253906 164.03125 216.65625 C 163.863281 217.054688 163.628906 217.40625 163.324219 217.714844 C 163.015625 218.019531 162.664062 218.253906 162.265625 218.421875 C 161.863281 218.585938 161.449219 218.667969 161.015625 218.667969 L 126.757812 218.667969 C 126.328125 218.667969 125.910156 218.585938 125.511719 218.421875 C 125.109375 218.253906 124.757812 218.019531 124.453125 217.714844 C 124.144531 217.40625 123.910156 217.054688 123.746094 216.65625 C 123.578125 216.253906 123.496094 215.839844 123.496094 215.40625 L 123.496094 152.691406 C 123.496094 152.257812 123.578125 151.84375 123.746094 151.441406 C 123.910156 151.042969 124.144531 150.691406 124.453125 150.382812 C 124.757812 150.078125 125.109375 149.84375 125.511719 149.675781 C 125.910156 149.511719 126.328125 149.429688 126.757812 149.429688 Z M 126.757812 149.429688 " fill-opacity="1" fill-rule="nonzero"/></g><g clip-path="url(#9390624fcc)"><path fill="#8fd29e" d="M 169.6875 135.988281 L 203.945312 135.988281 C 204.375 135.988281 204.792969 136.070312 205.191406 136.238281 C 205.59375 136.402344 205.945312 136.636719 206.25 136.945312 C 206.558594 137.25 206.792969 137.601562 206.957031 138.003906 C 207.125 138.402344 207.207031 138.820312 207.207031 139.25 L 207.207031 215.40625 C 207.207031 215.839844 207.125 216.253906 206.957031 216.65625 C 206.792969 217.054688 206.558594 217.40625 206.25 217.714844 C 205.945312 218.019531 205.59375 218.253906 205.191406 218.421875 C 204.792969 218.585938 204.375 218.667969 203.945312 218.667969 L 169.6875 218.667969 C 169.253906 218.667969 168.839844 218.585938 168.4375 218.421875 C 168.039062 218.253906 167.6875 218.019531 167.378906 217.714844 C 167.074219 217.40625 166.839844 217.054688 166.671875 216.65625 C 166.507812 216.253906 166.425781 215.839844 166.425781 215.40625 L 166.425781 139.25 C 166.425781 138.820312 166.507812 138.402344 166.671875 138.003906 C 166.839844 137.601562 167.074219 137.25 167.378906 136.945312 C 167.6875 136.636719 168.039062 136.402344 168.4375 136.238281 C 168.839844 136.070312 169.253906 135.988281 169.6875 135.988281 Z M 169.6875 135.988281 " fill-opacity="1" fill-rule="nonzero"/></g><g clip-path="url(#0eb8706cbe)"><path fill="#e86c6c" d="M 219.769531 146.984375 L 254.027344 146.984375 C 254.460938 146.984375 254.875 147.066406 255.277344 147.234375 C 255.675781 147.398438 256.027344 147.632812 256.335938 147.941406 C 256.640625 148.246094 256.875 148.597656 257.042969 149 C 257.207031 149.398438 257.289062 149.816406 257.289062 150.246094 L 257.289062 215.40625 C 257.289062 215.839844 257.207031 216.253906 257.042969 216.65625 C 256.875 217.054688 256.640625 217.40625 256.335938 217.714844 C 256.027344 218.019531 255.675781 218.253906 255.277344 218.421875 C 254.875 218.585938 254.460938 218.667969 254.027344 218.667969 L 219.769531 218.667969 C 219.335938 218.667969 218.921875 218.585938 218.523438 218.421875 C 218.121094 218.253906 217.769531 218.019531 217.464844 217.714844 C 217.15625 217.40625 216.921875 217.054688 216.757812 216.65625 C 216.589844 216.253906 216.507812 215.839844 216.507812 215.40625 L 216.507812 150.246094 C 216.507812 149.816406 216.589844 149.398438 216.757812 149 C 216.921875 148.597656 217.15625 148.246094 217.464844 147.941406 C 217.769531 147.632812 218.121094 147.398438 218.523438 147.234375 C 218.921875 147.066406 219.335938 146.984375 219.769531 146.984375 Z M 219.769531 146.984375 " fill-opacity="1" fill-rule="nonzero"/></g><g clip-path="url(#ec57c9a203)"><path fill="#8fd29e" d="M 262.699219 164.089844 L 296.957031 164.089844 C 297.386719 164.089844 297.804688 164.171875 298.203125 164.339844 C 298.605469 164.503906 298.957031 164.738281 299.261719 165.046875 C 299.566406 165.351562 299.804688 165.703125 299.96875 166.105469 C 300.136719 166.503906 300.21875 166.921875 300.21875 167.351562 L 300.21875 215.40625 C 300.21875 215.839844 300.136719 216.253906 299.96875 216.65625 C 299.804688 217.054688 299.566406 217.40625 299.261719 217.714844 C 298.957031 218.019531 298.605469 218.253906 298.203125 218.421875 C 297.804688 218.585938 297.386719 218.667969 296.957031 218.667969 L 262.699219 218.667969 C 262.265625 218.667969 261.851562 218.585938 261.449219 218.421875 C 261.050781 218.253906 260.699219 218.019531 260.390625 217.714844 C 260.085938 217.40625 259.851562 217.054688 259.683594 216.65625 C 259.519531 216.253906 259.4375 215.839844 259.4375 215.40625 L 259.4375 167.351562 C 259.4375 166.921875 259.519531 166.503906 259.683594 166.105469 C 259.851562 165.703125 260.085938 165.351562 260.390625 165.046875 C 260.699219 164.738281 261.050781 164.503906 261.449219 164.339844 C 261.851562 164.171875 262.265625 164.089844 262.699219 164.089844 Z M 262.699219 164.089844 " fill-opacity="1" fill-rule="nonzero"/></g><g clip-path="url(#a400f64078)"><path fill="#e86c6c" d="M 312.78125 140.875 L 347.039062 140.875 C 347.472656 140.875 347.886719 140.957031 348.285156 141.125 C 348.6875 141.289062 349.039062 141.527344 349.34375 141.832031 C 349.652344 142.136719 349.886719 142.488281 350.050781 142.890625 C 350.21875 143.289062 350.300781 143.707031 350.300781 144.136719 L 350.300781 215.40625 C 350.300781 215.839844 350.21875 216.253906 350.050781 216.65625 C 349.886719 217.054688 349.652344 217.40625 349.34375 217.714844 C 349.039062 218.019531 348.6875 218.253906 348.285156 218.421875 C 347.886719 218.585938 347.472656 218.667969 347.039062 218.667969 L 312.78125 218.667969 C 312.347656 218.667969 311.933594 218.585938 311.53125 218.421875 C 311.132812 218.253906 310.78125 218.019531 310.476562 217.714844 C 310.167969 217.40625 309.933594 217.054688 309.765625 216.65625 C 309.601562 216.253906 309.519531 215.839844 309.519531 215.40625 L 309.519531 144.136719 C 309.519531 143.707031 309.601562 143.289062 309.765625 142.890625 C 309.933594 142.488281 310.167969 142.136719 310.476562 141.832031 C 310.78125 141.527344 311.132812 141.289062 311.535156 141.125 C 311.933594 140.957031 312.347656 140.875 312.78125 140.875 Z M 312.78125 140.875 " fill-opacity="1" fill-rule="nonzero"/></g><g clip-path="url(#d31807943e)"><path fill="#8fd29e" d="M 355.710938 129.878906 L 389.96875 129.878906 C 390.398438 129.878906 390.816406 129.960938 391.214844 130.128906 C 391.613281 130.292969 391.96875 130.527344 392.273438 130.835938 C 392.578125 131.140625 392.816406 131.492188 392.980469 131.894531 C 393.148438 132.292969 393.230469 132.710938 393.230469 133.140625 L 393.230469 215.40625 C 393.230469 215.839844 393.148438 216.253906 392.980469 216.65625 C 392.816406 217.054688 392.578125 217.40625 392.273438 217.714844 C 391.96875 218.019531 391.613281 218.253906 391.214844 218.421875 C 390.816406 218.585938 390.398438 218.667969 389.96875 218.667969 L 355.710938 218.667969 C 355.277344 218.667969 354.859375 218.585938 354.460938 218.421875 C 354.0625 218.253906 353.707031 218.019531 353.402344 217.714844 C 353.097656 217.40625 352.863281 217.054688 352.695312 216.65625 C 352.53125 216.253906 352.449219 215.839844 352.449219 215.40625 L 352.449219 133.140625 C 352.449219 132.710938 352.53125 132.292969 352.695312 131.894531 C 352.863281 131.492188 353.097656 131.140625 353.402344 130.835938 C 353.707031 130.527344 354.0625 130.292969 354.460938 130.128906 C 354.859375 129.960938 355.277344 129.878906 355.710938 129.878906 Z M 355.710938 129.878906 " fill-opacity="1" fill-rule="nonzero"/></g><g clip-path="url(#fff6a75063)"><path fill="#e86c6c" d="M 405.792969 103 L 440.050781 103 C 440.484375 103 440.898438 103.082031 441.296875 103.246094 C 441.699219 103.414062 442.050781 103.648438 442.355469 103.957031 C 442.664062 104.261719 442.898438 104.613281 443.0625 105.015625 C 443.230469 105.414062 443.3125 105.828125 443.3125 106.261719 L 443.3125 215.40625 C 443.3125 215.839844 443.230469 216.253906 443.0625 216.65625 C 442.898438 217.054688 442.664062 217.40625 442.355469 217.714844 C 442.050781 218.019531 441.699219 218.253906 441.296875 218.421875 C 440.898438 218.585938 440.484375 218.667969 440.050781 218.667969 L 405.792969 218.667969 C 405.359375 218.667969 404.945312 218.585938 404.542969 218.421875 C 404.144531 218.253906 403.792969 218.019531 403.484375 217.714844 C 403.179688 217.40625 402.945312 217.054688 402.777344 216.65625 C 402.613281 216.253906 402.53125 215.839844 402.53125 215.40625 L 402.53125 106.261719 C 402.53125 105.828125 402.613281 105.414062 402.777344 105.015625 C 402.945312 104.613281 403.179688 104.261719 403.484375 103.957031 C 403.792969 103.648438 404.144531 103.414062 404.542969 103.246094 C 404.945312 103.082031 405.359375 103 405.792969 103 Z M 405.792969 103 " fill-opacity="1" fill-rule="nonzero"/></g><g clip-path="url(#dd676a2a6a)"><path fill="#8fd29e" d="M 448.722656 105.441406 L 482.976562 105.441406 C 483.410156 105.441406 483.828125 105.527344 484.226562 105.691406 C 484.625 105.855469 484.980469 106.09375 485.285156 106.398438 C 485.589844 106.703125 485.828125 107.058594 485.992188 107.457031 C 486.15625 107.855469 486.242188 108.273438 486.242188 108.707031 L 486.242188 215.40625 C 486.242188 215.839844 486.15625 216.253906 485.992188 216.65625 C 485.828125 217.054688 485.589844 217.40625 485.285156 217.714844 C 484.980469 218.019531 484.625 218.253906 484.226562 218.421875 C 483.828125 218.585938 483.410156 218.667969 482.976562 218.667969 L 448.722656 218.667969 C 448.289062 218.667969 447.871094 218.585938 447.472656 218.421875 C 447.074219 218.253906 446.71875 218.019531 446.414062 217.714844 C 446.109375 217.40625 445.871094 217.054688 445.707031 216.65625 C 445.542969 216.253906 445.457031 215.839844 445.457031 215.40625 L 445.457031 108.707031 C 445.457031 108.273438 445.542969 107.855469 445.707031 107.457031 C 445.871094 107.058594 446.109375 106.703125 446.414062 106.398438 C 446.71875 106.09375 447.074219 105.855469 447.472656 105.691406 C 447.871094 105.527344 448.289062 105.441406 448.722656 105.441406 Z M 448.722656 105.441406 " fill-opacity="1" fill-rule="nonzero"/></g><g clip-path="url(#eb461c1322)"><path fill="#e86c6c" d="M 498.804688 59.015625 L 533.0625 59.015625 C 533.492188 59.015625 533.910156 59.097656 534.308594 59.261719 C 534.710938 59.429688 535.0625 59.664062 535.367188 59.96875 C 535.675781 60.277344 535.910156 60.628906 536.074219 61.027344 C 536.242188 61.429688 536.324219 61.84375 536.324219 62.277344 L 536.324219 215.40625 C 536.324219 215.839844 536.242188 216.253906 536.074219 216.65625 C 535.910156 217.054688 535.675781 217.40625 535.367188 217.714844 C 535.0625 218.019531 534.710938 218.253906 534.308594 218.421875 C 533.910156 218.585938 533.492188 218.667969 533.0625 218.667969 L 498.804688 218.667969 C 498.371094 218.667969 497.957031 218.585938 497.554688 218.421875 C 497.15625 218.253906 496.804688 218.019531 496.496094 217.714844 C 496.191406 217.40625 495.957031 217.054688 495.789062 216.65625 C 495.625 216.253906 495.542969 215.839844 495.542969 215.40625 L 495.542969 62.277344 C 495.542969 61.84375 495.625 61.429688 495.789062 61.027344 C 495.957031 60.628906 496.191406 60.277344 496.496094 59.96875 C 496.804688 59.664062 497.15625 59.429688 497.554688 59.261719 C 497.957031 59.097656 498.371094 59.015625 498.804688 59.015625 Z M 498.804688 59.015625 " fill-opacity="1" fill-rule="nonzero"/></g><g clip-path="url(#4400312270)"><path fill="#8fd29e" d="M 541.734375 105.441406 L 575.988281 105.441406 C 576.421875 105.441406 576.839844 105.527344 577.238281 105.691406 C 577.636719 105.855469 577.992188 106.09375 578.296875 106.398438 C 578.601562 106.703125 578.839844 107.058594 579.003906 107.457031 C 579.167969 107.855469 579.253906 108.273438 579.253906 108.707031 L 579.253906 215.40625 C 579.253906 215.839844 579.167969 216.253906 579.003906 216.65625 C 578.839844 217.054688 578.601562 217.40625 578.296875 217.714844 C 577.992188 218.019531 577.636719 218.253906 577.238281 218.421875 C 576.839844 218.585938 576.421875 218.667969 575.988281 218.667969 L 541.734375 218.667969 C 541.300781 218.667969 540.882812 218.585938 540.484375 218.421875 C 540.085938 218.253906 539.730469 218.019531 539.425781 217.714844 C 539.121094 217.40625 538.882812 217.054688 538.71875 216.65625 C 538.554688 216.253906 538.46875 215.839844 538.46875 215.40625 L 538.46875 108.707031 C 538.46875 108.273438 538.554688 107.855469 538.71875 107.457031 C 538.882812 107.058594 539.121094 106.703125 539.425781 106.398438 C 539.730469 106.09375 540.085938 105.855469 540.484375 105.691406 C 540.882812 105.527344 541.300781 105.441406 541.734375 105.441406 Z M 541.734375 105.441406 " fill-opacity="1" fill-rule="nonzero"/></g></svg>