<svg xmlns="http://www.w3.org/2000/svg" xmlns:xlink="http://www.w3.org/1999/xlink" width="900" zoomAndPan="magnify" viewBox="0 0 599.25 205.499994" height="274" preserveAspectRatio="xMidYMid meet" version="1.0"><defs><g/><clipPath id="8a6e9695d6"><path d="M 40 186 L 598.148438 186 L 598.148438 188 L 40 188 Z M 40 186 " clip-rule="nonzero"/></clipPath><clipPath id="708f4ebaef"><path d="M 40 150 L 598.148438 150 L 598.148438 152 L 40 152 Z M 40 150 " clip-rule="nonzero"/></clipPath><clipPath id="82d12bf063"><path d="M 40 113 L 598.148438 113 L 598.148438 115 L 40 115 Z M 40 113 " clip-rule="nonzero"/></clipPath><clipPath id="2487731ba8"><path d="M 40 77 L 598.148438 77 L 598.148438 79 L 40 79 Z M 40 77 " clip-rule="nonzero"/></clipPath><clipPath id="80bd54ce9e"><path d="M 40 40 L 598.148438 40 L 598.148438 42 L 40 42 Z M 40 40 " clip-rule="nonzero"/></clipPath><clipPath id="7b764c009e"><path d="M 40 4 L 598.148438 4 L 598.148438 6 L 40 6 Z M 40 4 " clip-rule="nonzero"/></clipPath></defs><path stroke-linecap="round" transform="matrix(0.685683, 0, 0, 0.685683, 40.428123, 4.799781)" fill-opacity="1" fill="#000000" fill-rule="nonzero" stroke-linejoin="miter" d="M 33.887288 58.565323 L 101.668695 94.501205 " stroke="#8fd29e" stroke-width="4.5" stroke-opacity="1" stroke-miterlimit="4"/><path stroke-linecap="round" transform="matrix(0.685683, 0, 0, 0.685683, 40.428123, 4.799781)" fill-opacity="1" fill="#000000" fill-rule="nonzero" stroke-linejoin="miter" d="M 101.668695 94.501205 L 169.450103 143.750681 " stroke="#8fd29e" stroke-width="4.5" stroke-opacity="1" stroke-miterlimit="4"/><path stroke-linecap="round" transform="matrix(0.685683, 0, 0, 0.685683, 40.428123, 4.799781)" fill-opacity="1" fill="#000000" fill-rule="nonzero" stroke-linejoin="miter" d="M 169.450103 143.750681 L 237.23151 117.129189 " stroke="#8fd29e" stroke-width="4.5" stroke-opacity="1" stroke-miterlimit="4"/><path stroke-linecap="round" transform="matrix(0.685683, 0, 0, 0.685683, 40.428123, 4.799781)" fill-opacity="1" fill="#000000" fill-rule="nonzero" stroke-linejoin="miter" d="M 237.23151 117.129189 L 305.012918 42.591289 " stroke="#8fd29e" stroke-width="4.5" stroke-opacity="1" stroke-miterlimit="4"/><path stroke-linecap="round" transform="matrix(0.685683, 0, 0, 0.685683, 40.428123, 4.799781)" fill-opacity="1" fill="#000000" fill-rule="nonzero" stroke-linejoin="miter" d="M 305.012918 42.591289 L 372.788628 107.809103 " stroke="#8fd29e" stroke-width="4.5" stroke-opacity="1" stroke-miterlimit="4"/><path stroke-linecap="round" transform="matrix(0.685683, 0, 0, 0.685683, 40.428123, 4.799781)" fill-opacity="1" fill="#000000" fill-rule="nonzero" stroke-linejoin="miter" d="M 372.788628 107.809103 L 440.570036 143.750681 " stroke="#8fd29e" stroke-width="4.5" stroke-opacity="1" stroke-miterlimit="4"/><path stroke-linecap="round" transform="matrix(0.685683, 0, 0, 0.685683, 40.428123, 4.799781)" fill-opacity="1" fill="#000000" fill-rule="nonzero" stroke-linejoin="miter" d="M 440.570036 143.750681 L 508.351443 97.161645 " stroke="#8fd29e" stroke-width="4.5" stroke-opacity="1" stroke-miterlimit="4"/><path stroke-linecap="round" transform="matrix(0.685683, 0, 0, 0.685683, 40.428123, 4.799781)" fill-opacity="1" fill="#000000" fill-rule="nonzero" stroke-linejoin="miter" d="M 508.351443 97.161645 L 576.132851 103.815594 " stroke="#8fd29e" stroke-width="4.5" stroke-opacity="1" stroke-miterlimit="4"/><path stroke-linecap="round" transform="matrix(0.685683, 0, 0, 0.685683, 40.428123, 4.799781)" fill-opacity="1" fill="#000000" fill-rule="nonzero" stroke-linejoin="miter" d="M 576.132851 103.815594 L 643.914258 94.501205 " stroke="#8fd29e" stroke-width="4.5" stroke-opacity="1" stroke-miterlimit="4"/><path stroke-linecap="round" transform="matrix(0.685683, 0, 0, 0.685683, 40.428123, 4.799781)" fill-opacity="1" fill="#000000" fill-rule="nonzero" stroke-linejoin="miter" d="M 643.914258 94.501205 L 711.689968 135.763664 " stroke="#8fd29e" stroke-width="4.5" stroke-opacity="1" stroke-miterlimit="4"/><path stroke-linecap="round" transform="matrix(0.685683, 0, 0, 0.685683, 40.428123, 4.799781)" fill-opacity="1" fill="#000000" fill-rule="nonzero" stroke-linejoin="miter" d="M 711.689968 135.763664 L 779.471376 53.238746 " stroke="#8fd29e" stroke-width="4.5" stroke-opacity="1" stroke-miterlimit="4"/><path fill="#8fd29e" d="M 67.09375 44.957031 C 67.09375 44.5 67.007812 44.0625 66.832031 43.644531 C 66.660156 43.222656 66.410156 42.851562 66.089844 42.53125 C 65.769531 42.210938 65.398438 41.960938 64.976562 41.789062 C 64.558594 41.613281 64.121094 41.527344 63.664062 41.527344 C 63.210938 41.527344 62.773438 41.613281 62.355469 41.789062 C 61.933594 41.960938 61.5625 42.210938 61.242188 42.53125 C 60.921875 42.851562 60.671875 43.222656 60.5 43.644531 C 60.324219 44.0625 60.238281 44.5 60.238281 44.957031 C 60.238281 45.410156 60.324219 45.847656 60.5 46.269531 C 60.671875 46.6875 60.921875 47.058594 61.242188 47.378906 C 61.5625 47.703125 61.933594 47.949219 62.355469 48.125 C 62.773438 48.296875 63.210938 48.382812 63.664062 48.382812 C 64.121094 48.382812 64.558594 48.296875 64.976562 48.125 C 65.398438 47.949219 65.769531 47.703125 66.089844 47.378906 C 66.410156 47.058594 66.660156 46.6875 66.832031 46.269531 C 67.007812 45.847656 67.09375 45.410156 67.09375 44.957031 Z M 67.09375 44.957031 " fill-opacity="1" fill-rule="nonzero"/><path fill="#8fd29e" d="M 113.570312 69.597656 C 113.570312 69.144531 113.484375 68.707031 113.308594 68.285156 C 113.136719 67.867188 112.886719 67.496094 112.566406 67.171875 C 112.246094 66.851562 111.875 66.605469 111.453125 66.429688 C 111.035156 66.257812 110.597656 66.167969 110.140625 66.167969 C 109.6875 66.167969 109.25 66.257812 108.828125 66.429688 C 108.410156 66.605469 108.039062 66.851562 107.71875 67.171875 C 107.394531 67.496094 107.148438 67.867188 106.972656 68.285156 C 106.800781 68.707031 106.714844 69.144531 106.714844 69.597656 C 106.714844 70.050781 106.800781 70.488281 106.972656 70.910156 C 107.148438 71.328125 107.394531 71.699219 107.71875 72.023438 C 108.039062 72.34375 108.410156 72.589844 108.828125 72.765625 C 109.25 72.9375 109.6875 73.027344 110.140625 73.027344 C 110.597656 73.027344 111.035156 72.9375 111.453125 72.765625 C 111.875 72.589844 112.246094 72.34375 112.566406 72.023438 C 112.886719 71.699219 113.136719 71.328125 113.308594 70.910156 C 113.484375 70.488281 113.570312 70.050781 113.570312 69.597656 Z M 113.570312 69.597656 " fill-opacity="1" fill-rule="nonzero"/><path fill="#8fd29e" d="M 160.046875 103.367188 C 160.046875 102.910156 159.957031 102.472656 159.785156 102.054688 C 159.609375 101.632812 159.363281 101.261719 159.042969 100.941406 C 158.71875 100.621094 158.347656 100.371094 157.929688 100.199219 C 157.507812 100.023438 157.070312 99.9375 156.617188 99.9375 C 156.164062 99.9375 155.726562 100.023438 155.304688 100.199219 C 154.886719 100.371094 154.515625 100.621094 154.191406 100.941406 C 153.871094 101.261719 153.625 101.632812 153.449219 102.054688 C 153.277344 102.472656 153.1875 102.910156 153.1875 103.367188 C 153.1875 103.820312 153.277344 104.257812 153.449219 104.675781 C 153.625 105.097656 153.871094 105.46875 154.191406 105.789062 C 154.515625 106.109375 154.886719 106.359375 155.304688 106.53125 C 155.726562 106.707031 156.164062 106.792969 156.617188 106.792969 C 157.070312 106.792969 157.507812 106.707031 157.929688 106.53125 C 158.347656 106.359375 158.71875 106.109375 159.042969 105.789062 C 159.363281 105.46875 159.609375 105.097656 159.785156 104.675781 C 159.957031 104.257812 160.046875 103.820312 160.046875 103.367188 Z M 160.046875 103.367188 " fill-opacity="1" fill-rule="nonzero"/><path fill="#8fd29e" d="M 206.523438 85.113281 C 206.523438 84.65625 206.433594 84.21875 206.261719 83.800781 C 206.085938 83.378906 205.839844 83.011719 205.515625 82.6875 C 205.195312 82.367188 204.824219 82.121094 204.40625 81.945312 C 203.984375 81.769531 203.546875 81.683594 203.09375 81.683594 C 202.636719 81.683594 202.203125 81.769531 201.78125 81.945312 C 201.359375 82.121094 200.992188 82.367188 200.667969 82.6875 C 200.347656 83.011719 200.101562 83.378906 199.925781 83.800781 C 199.75 84.21875 199.664062 84.65625 199.664062 85.113281 C 199.664062 85.566406 199.75 86.003906 199.925781 86.425781 C 200.101562 86.84375 200.347656 87.214844 200.667969 87.535156 C 200.992188 87.859375 201.359375 88.105469 201.78125 88.28125 C 202.203125 88.453125 202.636719 88.542969 203.09375 88.542969 C 203.546875 88.542969 203.984375 88.453125 204.40625 88.28125 C 204.824219 88.105469 205.195312 87.859375 205.515625 87.535156 C 205.839844 87.214844 206.085938 86.84375 206.261719 86.425781 C 206.433594 86.003906 206.523438 85.566406 206.523438 85.113281 Z M 206.523438 85.113281 " fill-opacity="1" fill-rule="nonzero"/><path fill="#8fd29e" d="M 252.996094 34.003906 C 252.996094 33.550781 252.910156 33.113281 252.738281 32.691406 C 252.5625 32.273438 252.316406 31.902344 251.992188 31.582031 C 251.671875 31.257812 251.300781 31.011719 250.882812 30.835938 C 250.460938 30.664062 250.023438 30.574219 249.570312 30.574219 C 249.113281 30.574219 248.675781 30.664062 248.257812 30.835938 C 247.835938 31.011719 247.464844 31.257812 247.144531 31.582031 C 246.824219 31.902344 246.574219 32.273438 246.402344 32.691406 C 246.226562 33.113281 246.140625 33.550781 246.140625 34.003906 C 246.140625 34.460938 246.226562 34.894531 246.402344 35.316406 C 246.574219 35.738281 246.824219 36.105469 247.144531 36.429688 C 247.464844 36.75 247.835938 36.996094 248.257812 37.171875 C 248.675781 37.347656 249.113281 37.433594 249.570312 37.433594 C 250.023438 37.433594 250.460938 37.347656 250.882812 37.171875 C 251.300781 36.996094 251.671875 36.75 251.992188 36.429688 C 252.316406 36.105469 252.5625 35.738281 252.738281 35.316406 C 252.910156 34.894531 252.996094 34.460938 252.996094 34.003906 Z M 252.996094 34.003906 " fill-opacity="1" fill-rule="nonzero"/><path fill="#8fd29e" d="M 299.472656 78.722656 C 299.472656 78.269531 299.386719 77.832031 299.210938 77.414062 C 299.039062 76.992188 298.789062 76.621094 298.46875 76.300781 C 298.148438 75.976562 297.777344 75.730469 297.355469 75.558594 C 296.9375 75.382812 296.5 75.296875 296.042969 75.296875 C 295.589844 75.296875 295.152344 75.382812 294.734375 75.558594 C 294.3125 75.730469 293.941406 75.976562 293.621094 76.300781 C 293.300781 76.621094 293.050781 76.992188 292.878906 77.414062 C 292.703125 77.832031 292.617188 78.269531 292.617188 78.722656 C 292.617188 79.179688 292.703125 79.617188 292.878906 80.035156 C 293.050781 80.457031 293.300781 80.828125 293.621094 81.148438 C 293.941406 81.46875 294.3125 81.71875 294.734375 81.890625 C 295.152344 82.066406 295.589844 82.152344 296.042969 82.152344 C 296.5 82.152344 296.9375 82.066406 297.355469 81.890625 C 297.777344 81.71875 298.148438 81.46875 298.46875 81.148438 C 298.789062 80.828125 299.039062 80.457031 299.210938 80.035156 C 299.386719 79.617188 299.472656 79.179688 299.472656 78.722656 Z M 299.472656 78.722656 " fill-opacity="1" fill-rule="nonzero"/><path fill="#8fd29e" d="M 345.949219 103.367188 C 345.949219 102.910156 345.863281 102.472656 345.6875 102.054688 C 345.515625 101.632812 345.265625 101.261719 344.945312 100.941406 C 344.625 100.621094 344.253906 100.371094 343.832031 100.199219 C 343.414062 100.023438 342.976562 99.9375 342.519531 99.9375 C 342.066406 99.9375 341.628906 100.023438 341.207031 100.199219 C 340.789062 100.371094 340.417969 100.621094 340.097656 100.941406 C 339.773438 101.261719 339.527344 101.632812 339.351562 102.054688 C 339.179688 102.472656 339.09375 102.910156 339.09375 103.367188 C 339.09375 103.820312 339.179688 104.257812 339.351562 104.675781 C 339.527344 105.097656 339.773438 105.46875 340.097656 105.789062 C 340.417969 106.109375 340.789062 106.359375 341.207031 106.53125 C 341.628906 106.707031 342.066406 106.792969 342.519531 106.792969 C 342.976562 106.792969 343.414062 106.707031 343.832031 106.53125 C 344.253906 106.359375 344.625 106.109375 344.945312 105.789062 C 345.265625 105.46875 345.515625 105.097656 345.6875 104.675781 C 345.863281 104.257812 345.949219 103.820312 345.949219 103.367188 Z M 345.949219 103.367188 " fill-opacity="1" fill-rule="nonzero"/><path fill="#8fd29e" d="M 392.425781 71.421875 C 392.425781 70.96875 392.335938 70.53125 392.164062 70.109375 C 391.988281 69.691406 391.742188 69.320312 391.421875 69 C 391.097656 68.675781 390.726562 68.429688 390.308594 68.253906 C 389.886719 68.082031 389.449219 67.996094 388.996094 67.996094 C 388.542969 67.996094 388.105469 68.082031 387.683594 68.253906 C 387.265625 68.429688 386.894531 68.675781 386.570312 69 C 386.25 69.320312 386.003906 69.691406 385.828125 70.109375 C 385.65625 70.53125 385.566406 70.96875 385.566406 71.421875 C 385.566406 71.878906 385.65625 72.316406 385.828125 72.734375 C 386.003906 73.15625 386.25 73.527344 386.570312 73.847656 C 386.894531 74.167969 387.265625 74.417969 387.683594 74.589844 C 388.105469 74.765625 388.542969 74.851562 388.996094 74.851562 C 389.449219 74.851562 389.886719 74.765625 390.308594 74.589844 C 390.726562 74.417969 391.097656 74.167969 391.421875 73.847656 C 391.742188 73.527344 391.988281 73.15625 392.164062 72.734375 C 392.335938 72.316406 392.425781 71.878906 392.425781 71.421875 Z M 392.425781 71.421875 " fill-opacity="1" fill-rule="nonzero"/><path fill="#8fd29e" d="M 438.902344 75.984375 C 438.902344 75.53125 438.8125 75.09375 438.640625 74.675781 C 438.464844 74.253906 438.21875 73.882812 437.894531 73.5625 C 437.574219 73.242188 437.203125 72.992188 436.785156 72.820312 C 436.363281 72.644531 435.925781 72.558594 435.472656 72.558594 C 435.015625 72.558594 434.582031 72.644531 434.160156 72.820312 C 433.738281 72.992188 433.371094 73.242188 433.046875 73.5625 C 432.726562 73.882812 432.480469 74.253906 432.304688 74.675781 C 432.128906 75.09375 432.042969 75.53125 432.042969 75.984375 C 432.042969 76.441406 432.128906 76.878906 432.304688 77.296875 C 432.480469 77.71875 432.726562 78.089844 433.046875 78.410156 C 433.371094 78.730469 433.738281 78.980469 434.160156 79.152344 C 434.582031 79.328125 435.015625 79.414062 435.472656 79.414062 C 435.925781 79.414062 436.363281 79.328125 436.785156 79.152344 C 437.203125 78.980469 437.574219 78.730469 437.894531 78.410156 C 438.21875 78.089844 438.464844 77.71875 438.640625 77.296875 C 438.8125 76.878906 438.902344 76.441406 438.902344 75.984375 Z M 438.902344 75.984375 " fill-opacity="1" fill-rule="nonzero"/><path fill="#8fd29e" d="M 485.375 69.597656 C 485.375 69.144531 485.289062 68.707031 485.113281 68.285156 C 484.941406 67.867188 484.695312 67.496094 484.371094 67.171875 C 484.050781 66.851562 483.679688 66.605469 483.261719 66.429688 C 482.839844 66.257812 482.402344 66.167969 481.949219 66.167969 C 481.492188 66.167969 481.054688 66.257812 480.636719 66.429688 C 480.214844 66.605469 479.84375 66.851562 479.523438 67.171875 C 479.203125 67.496094 478.953125 67.867188 478.78125 68.285156 C 478.605469 68.707031 478.519531 69.144531 478.519531 69.597656 C 478.519531 70.050781 478.605469 70.488281 478.78125 70.910156 C 478.953125 71.328125 479.203125 71.699219 479.523438 72.023438 C 479.84375 72.34375 480.214844 72.589844 480.636719 72.765625 C 481.054688 72.9375 481.492188 73.027344 481.949219 73.027344 C 482.402344 73.027344 482.839844 72.9375 483.261719 72.765625 C 483.679688 72.589844 484.050781 72.34375 484.371094 72.023438 C 484.695312 71.699219 484.941406 71.328125 485.113281 70.910156 C 485.289062 70.488281 485.375 70.050781 485.375 69.597656 Z M 485.375 69.597656 " fill-opacity="1" fill-rule="nonzero"/><path fill="#8fd29e" d="M 531.851562 97.890625 C 531.851562 97.433594 531.765625 96.996094 531.589844 96.578125 C 531.417969 96.15625 531.167969 95.785156 530.847656 95.464844 C 530.527344 95.144531 530.15625 94.894531 529.734375 94.722656 C 529.316406 94.546875 528.878906 94.460938 528.421875 94.460938 C 527.96875 94.460938 527.53125 94.546875 527.113281 94.722656 C 526.691406 94.894531 526.320312 95.144531 526 95.464844 C 525.679688 95.785156 525.429688 96.15625 525.257812 96.578125 C 525.082031 96.996094 524.996094 97.433594 524.996094 97.890625 C 524.996094 98.34375 525.082031 98.78125 525.257812 99.203125 C 525.429688 99.621094 525.679688 99.992188 526 100.3125 C 526.320312 100.636719 526.691406 100.882812 527.113281 101.058594 C 527.53125 101.230469 527.96875 101.316406 528.421875 101.316406 C 528.878906 101.316406 529.316406 101.230469 529.734375 101.058594 C 530.15625 100.882812 530.527344 100.636719 530.847656 100.3125 C 531.167969 99.992188 531.417969 99.621094 531.589844 99.203125 C 531.765625 98.78125 531.851562 98.34375 531.851562 97.890625 Z M 531.851562 97.890625 " fill-opacity="1" fill-rule="nonzero"/><path fill="#8fd29e" d="M 578.328125 41.304688 C 578.328125 40.851562 578.242188 40.414062 578.066406 39.992188 C 577.894531 39.574219 577.644531 39.203125 577.324219 38.882812 C 577.003906 38.558594 576.632812 38.3125 576.210938 38.136719 C 575.792969 37.964844 575.355469 37.878906 574.898438 37.878906 C 574.445312 37.878906 574.007812 37.964844 573.585938 38.136719 C 573.167969 38.3125 572.796875 38.558594 572.476562 38.882812 C 572.152344 39.203125 571.90625 39.574219 571.730469 39.992188 C 571.558594 40.414062 571.472656 40.851562 571.472656 41.304688 C 571.472656 41.761719 571.558594 42.199219 571.730469 42.617188 C 571.90625 43.039062 572.152344 43.410156 572.476562 43.730469 C 572.796875 44.050781 573.167969 44.300781 573.585938 44.472656 C 574.007812 44.648438 574.445312 44.734375 574.898438 44.734375 C 575.355469 44.734375 575.792969 44.648438 576.210938 44.472656 C 576.632812 44.300781 577.003906 44.050781 577.324219 43.730469 C 577.644531 43.410156 577.894531 43.039062 578.066406 42.617188 C 578.242188 42.199219 578.328125 41.761719 578.328125 41.304688 Z M 578.328125 41.304688 " fill-opacity="1" fill-rule="nonzero"/><g fill="#000000" fill-opacity="1"><g transform="translate(55.16996, 201.728367)"><g><path d="M 2.453125 0.109375 C 1.171875 0.109375 0.410156 -0.550781 0.171875 -1.875 L 1.171875 -2.046875 C 1.234375 -1.628906 1.375 -1.300781 1.59375 -1.0625 C 1.820312 -0.832031 2.109375 -0.71875 2.453125 -0.71875 C 2.828125 -0.71875 3.117188 -0.84375 3.328125 -1.09375 C 3.546875 -1.351562 3.65625 -1.734375 3.65625 -2.234375 L 3.65625 -6.703125 L 2.203125 -6.703125 L 2.203125 -7.546875 L 4.671875 -7.546875 L 4.671875 -2.25 C 4.671875 -1.519531 4.472656 -0.941406 4.078125 -0.515625 C 3.679688 -0.0976562 3.140625 0.109375 2.453125 0.109375 Z M 2.453125 0.109375 "/></g></g><g transform="translate(60.655425, 201.728367)"><g><path d="M 2.21875 0.109375 C 1.632812 0.109375 1.195312 -0.0390625 0.90625 -0.34375 C 0.613281 -0.65625 0.46875 -1.082031 0.46875 -1.625 C 0.46875 -2.21875 0.664062 -2.675781 1.0625 -3 C 1.457031 -3.320312 2.09375 -3.492188 2.96875 -3.515625 L 4.265625 -3.53125 L 4.265625 -3.84375 C 4.265625 -4.320312 4.164062 -4.660156 3.96875 -4.859375 C 3.769531 -5.066406 3.457031 -5.171875 3.03125 -5.171875 C 2.59375 -5.171875 2.273438 -5.097656 2.078125 -4.953125 C 1.878906 -4.804688 1.765625 -4.570312 1.734375 -4.25 L 0.71875 -4.34375 C 0.882812 -5.382812 1.660156 -5.90625 3.046875 -5.90625 C 3.773438 -5.90625 4.320312 -5.738281 4.6875 -5.40625 C 5.0625 -5.070312 5.25 -4.585938 5.25 -3.953125 L 5.25 -1.453125 C 5.25 -1.171875 5.285156 -0.957031 5.359375 -0.8125 C 5.429688 -0.664062 5.570312 -0.59375 5.78125 -0.59375 C 5.875 -0.59375 5.976562 -0.601562 6.09375 -0.625 L 6.09375 -0.03125 C 5.851562 0.0195312 5.609375 0.046875 5.359375 0.046875 C 4.992188 0.046875 4.726562 -0.046875 4.5625 -0.234375 C 4.40625 -0.421875 4.316406 -0.710938 4.296875 -1.109375 L 4.265625 -1.109375 C 4.023438 -0.660156 3.738281 -0.34375 3.40625 -0.15625 C 3.082031 0.0195312 2.6875 0.109375 2.21875 0.109375 Z M 2.4375 -0.609375 C 2.789062 -0.609375 3.101562 -0.6875 3.375 -0.84375 C 3.65625 -1.007812 3.875 -1.234375 4.03125 -1.515625 C 4.1875 -1.796875 4.265625 -2.085938 4.265625 -2.390625 L 4.265625 -2.859375 L 3.21875 -2.84375 C 2.757812 -2.832031 2.410156 -2.785156 2.171875 -2.703125 C 1.941406 -2.617188 1.765625 -2.484375 1.640625 -2.296875 C 1.515625 -2.117188 1.453125 -1.882812 1.453125 -1.59375 C 1.453125 -1.28125 1.535156 -1.035156 1.703125 -0.859375 C 1.878906 -0.691406 2.125 -0.609375 2.4375 -0.609375 Z M 2.4375 -0.609375 "/></g></g><g transform="translate(66.756933, 201.728367)"><g><path d="M 4.421875 0 L 4.421875 -3.671875 C 4.421875 -4.054688 4.378906 -4.351562 4.296875 -4.5625 C 4.222656 -4.769531 4.101562 -4.921875 3.9375 -5.015625 C 3.78125 -5.109375 3.539062 -5.15625 3.21875 -5.15625 C 2.757812 -5.15625 2.394531 -4.992188 2.125 -4.671875 C 1.851562 -4.359375 1.71875 -3.921875 1.71875 -3.359375 L 1.71875 0 L 0.765625 0 L 0.765625 -4.5625 C 0.765625 -5.226562 0.753906 -5.640625 0.734375 -5.796875 L 1.640625 -5.796875 C 1.640625 -5.773438 1.640625 -5.722656 1.640625 -5.640625 C 1.648438 -5.566406 1.65625 -5.476562 1.65625 -5.375 C 1.664062 -5.28125 1.675781 -5.085938 1.6875 -4.796875 L 1.703125 -4.796875 C 1.921875 -5.203125 2.175781 -5.488281 2.46875 -5.65625 C 2.757812 -5.820312 3.117188 -5.90625 3.546875 -5.90625 C 4.179688 -5.90625 4.644531 -5.742188 4.9375 -5.421875 C 5.238281 -5.109375 5.390625 -4.585938 5.390625 -3.859375 L 5.390625 0 Z M 4.421875 0 "/></g></g></g><g fill="#000000" fill-opacity="1"><g transform="translate(100.660045, 201.728367)"><g><path d="M 1.921875 -6.703125 L 1.921875 -3.90625 L 6.125 -3.90625 L 6.125 -3.0625 L 1.921875 -3.0625 L 1.921875 0 L 0.90625 0 L 0.90625 -7.546875 L 6.265625 -7.546875 L 6.265625 -6.703125 Z M 1.921875 -6.703125 "/></g></g><g transform="translate(107.361526, 201.728367)"><g><path d="M 1.484375 -2.6875 C 1.484375 -2.03125 1.617188 -1.519531 1.890625 -1.15625 C 2.160156 -0.789062 2.5625 -0.609375 3.09375 -0.609375 C 3.507812 -0.609375 3.84375 -0.691406 4.09375 -0.859375 C 4.351562 -1.035156 4.523438 -1.25 4.609375 -1.5 L 5.453125 -1.265625 C 5.109375 -0.347656 4.320312 0.109375 3.09375 0.109375 C 2.238281 0.109375 1.585938 -0.144531 1.140625 -0.65625 C 0.691406 -1.164062 0.46875 -1.925781 0.46875 -2.9375 C 0.46875 -3.894531 0.691406 -4.628906 1.140625 -5.140625 C 1.585938 -5.648438 2.226562 -5.90625 3.0625 -5.90625 C 4.757812 -5.90625 5.609375 -4.878906 5.609375 -2.828125 L 5.609375 -2.6875 Z M 4.609375 -3.4375 C 4.554688 -4.039062 4.398438 -4.484375 4.140625 -4.765625 C 3.890625 -5.046875 3.523438 -5.1875 3.046875 -5.1875 C 2.578125 -5.1875 2.203125 -5.03125 1.921875 -4.71875 C 1.648438 -4.40625 1.503906 -3.976562 1.484375 -3.4375 Z M 4.609375 -3.4375 "/></g></g><g transform="translate(113.463033, 201.728367)"><g><path d="M 3.28125 0 L 2.140625 0 L 0.03125 -5.796875 L 1.0625 -5.796875 L 2.34375 -2.03125 C 2.382812 -1.882812 2.503906 -1.457031 2.703125 -0.75 L 2.890625 -1.375 L 3.109375 -2.015625 L 4.421875 -5.796875 L 5.453125 -5.796875 Z M 3.28125 0 "/></g></g></g><g fill="#000000" fill-opacity="1"><g transform="translate(146.482259, 201.728367)"><g><path d="M 7.3125 0 L 7.3125 -5.03125 C 7.3125 -5.59375 7.328125 -6.128906 7.359375 -6.640625 C 7.191406 -6.003906 7.035156 -5.503906 6.890625 -5.140625 L 4.9375 0 L 4.21875 0 L 2.25 -5.140625 L 1.953125 -6.046875 L 1.765625 -6.640625 L 1.78125 -6.046875 L 1.8125 -5.03125 L 1.8125 0 L 0.90625 0 L 0.90625 -7.546875 L 2.25 -7.546875 L 4.25 -2.3125 C 4.320312 -2.101562 4.390625 -1.878906 4.453125 -1.640625 C 4.523438 -1.398438 4.570312 -1.222656 4.59375 -1.109375 C 4.613281 -1.253906 4.671875 -1.472656 4.765625 -1.765625 C 4.859375 -2.054688 4.921875 -2.238281 4.953125 -2.3125 L 6.921875 -7.546875 L 8.234375 -7.546875 L 8.234375 0 Z M 7.3125 0 "/></g></g><g transform="translate(155.621129, 201.728367)"><g><path d="M 2.21875 0.109375 C 1.632812 0.109375 1.195312 -0.0390625 0.90625 -0.34375 C 0.613281 -0.65625 0.46875 -1.082031 0.46875 -1.625 C 0.46875 -2.21875 0.664062 -2.675781 1.0625 -3 C 1.457031 -3.320312 2.09375 -3.492188 2.96875 -3.515625 L 4.265625 -3.53125 L 4.265625 -3.84375 C 4.265625 -4.320312 4.164062 -4.660156 3.96875 -4.859375 C 3.769531 -5.066406 3.457031 -5.171875 3.03125 -5.171875 C 2.59375 -5.171875 2.273438 -5.097656 2.078125 -4.953125 C 1.878906 -4.804688 1.765625 -4.570312 1.734375 -4.25 L 0.71875 -4.34375 C 0.882812 -5.382812 1.660156 -5.90625 3.046875 -5.90625 C 3.773438 -5.90625 4.320312 -5.738281 4.6875 -5.40625 C 5.0625 -5.070312 5.25 -4.585938 5.25 -3.953125 L 5.25 -1.453125 C 5.25 -1.171875 5.285156 -0.957031 5.359375 -0.8125 C 5.429688 -0.664062 5.570312 -0.59375 5.78125 -0.59375 C 5.875 -0.59375 5.976562 -0.601562 6.09375 -0.625 L 6.09375 -0.03125 C 5.851562 0.0195312 5.609375 0.046875 5.359375 0.046875 C 4.992188 0.046875 4.726562 -0.046875 4.5625 -0.234375 C 4.40625 -0.421875 4.316406 -0.710938 4.296875 -1.109375 L 4.265625 -1.109375 C 4.023438 -0.660156 3.738281 -0.34375 3.40625 -0.15625 C 3.082031 0.0195312 2.6875 0.109375 2.21875 0.109375 Z M 2.4375 -0.609375 C 2.789062 -0.609375 3.101562 -0.6875 3.375 -0.84375 C 3.65625 -1.007812 3.875 -1.234375 4.03125 -1.515625 C 4.1875 -1.796875 4.265625 -2.085938 4.265625 -2.390625 L 4.265625 -2.859375 L 3.21875 -2.84375 C 2.757812 -2.832031 2.410156 -2.785156 2.171875 -2.703125 C 1.941406 -2.617188 1.765625 -2.484375 1.640625 -2.296875 C 1.515625 -2.117188 1.453125 -1.882812 1.453125 -1.59375 C 1.453125 -1.28125 1.535156 -1.035156 1.703125 -0.859375 C 1.878906 -0.691406 2.125 -0.609375 2.4375 -0.609375 Z M 2.4375 -0.609375 "/></g></g><g transform="translate(161.722637, 201.728367)"><g><path d="M 0.765625 0 L 0.765625 -4.453125 C 0.765625 -4.859375 0.753906 -5.304688 0.734375 -5.796875 L 1.640625 -5.796875 C 1.671875 -5.140625 1.6875 -4.742188 1.6875 -4.609375 L 1.703125 -4.609375 C 1.859375 -5.109375 2.035156 -5.445312 2.234375 -5.625 C 2.429688 -5.8125 2.710938 -5.90625 3.078125 -5.90625 C 3.203125 -5.90625 3.332031 -5.882812 3.46875 -5.84375 L 3.46875 -4.96875 C 3.34375 -5 3.171875 -5.015625 2.953125 -5.015625 C 2.554688 -5.015625 2.25 -4.84375 2.03125 -4.5 C 1.820312 -4.15625 1.71875 -3.660156 1.71875 -3.015625 L 1.71875 0 Z M 0.765625 0 "/></g></g></g><g fill="#000000" fill-opacity="1"><g transform="translate(194.211538, 201.728367)"><g><path d="M 6.25 0 L 5.390625 -2.203125 L 1.953125 -2.203125 L 1.078125 0 L 0.015625 0 L 3.09375 -7.546875 L 4.265625 -7.546875 L 7.296875 0 Z M 3.671875 -6.78125 L 3.625 -6.625 C 3.53125 -6.332031 3.394531 -5.953125 3.21875 -5.484375 L 2.265625 -3 L 5.078125 -3 L 4.109375 -5.5 C 4.015625 -5.738281 3.914062 -6.015625 3.8125 -6.328125 Z M 3.671875 -6.78125 "/></g></g><g transform="translate(201.529062, 201.728367)"><g><path d="M 5.640625 -2.921875 C 5.640625 -0.898438 4.929688 0.109375 3.515625 0.109375 C 3.066406 0.109375 2.695312 0.03125 2.40625 -0.125 C 2.113281 -0.289062 1.878906 -0.550781 1.703125 -0.90625 L 1.6875 -0.90625 C 1.6875 -0.789062 1.679688 -0.617188 1.671875 -0.390625 C 1.660156 -0.160156 1.648438 -0.03125 1.640625 0 L 0.703125 0 C 0.722656 -0.195312 0.734375 -0.59375 0.734375 -1.1875 L 0.734375 -7.953125 L 1.703125 -7.953125 L 1.703125 -5.6875 C 1.703125 -5.445312 1.695312 -5.171875 1.6875 -4.859375 L 1.703125 -4.859375 C 1.878906 -5.234375 2.113281 -5.5 2.40625 -5.65625 C 2.707031 -5.820312 3.078125 -5.90625 3.515625 -5.90625 C 4.242188 -5.90625 4.78125 -5.65625 5.125 -5.15625 C 5.46875 -4.664062 5.640625 -3.921875 5.640625 -2.921875 Z M 4.625 -2.890625 C 4.625 -3.703125 4.515625 -4.28125 4.296875 -4.625 C 4.085938 -4.976562 3.742188 -5.15625 3.265625 -5.15625 C 2.722656 -5.15625 2.328125 -4.96875 2.078125 -4.59375 C 1.828125 -4.226562 1.703125 -3.640625 1.703125 -2.828125 C 1.703125 -2.066406 1.820312 -1.503906 2.0625 -1.140625 C 2.3125 -0.785156 2.707031 -0.609375 3.25 -0.609375 C 3.738281 -0.609375 4.085938 -0.785156 4.296875 -1.140625 C 4.515625 -1.503906 4.625 -2.085938 4.625 -2.890625 Z M 4.625 -2.890625 "/></g></g><g transform="translate(207.63057, 201.728367)"><g><path d="M 0.765625 0 L 0.765625 -4.453125 C 0.765625 -4.859375 0.753906 -5.304688 0.734375 -5.796875 L 1.640625 -5.796875 C 1.671875 -5.140625 1.6875 -4.742188 1.6875 -4.609375 L 1.703125 -4.609375 C 1.859375 -5.109375 2.035156 -5.445312 2.234375 -5.625 C 2.429688 -5.8125 2.710938 -5.90625 3.078125 -5.90625 C 3.203125 -5.90625 3.332031 -5.882812 3.46875 -5.84375 L 3.46875 -4.96875 C 3.34375 -5 3.171875 -5.015625 2.953125 -5.015625 C 2.554688 -5.015625 2.25 -4.84375 2.03125 -4.5 C 1.820312 -4.15625 1.71875 -3.660156 1.71875 -3.015625 L 1.71875 0 Z M 0.765625 0 "/></g></g></g><g fill="#000000" fill-opacity="1"><g transform="translate(240.387298, 201.728367)"><g><path d="M 7.3125 0 L 7.3125 -5.03125 C 7.3125 -5.59375 7.328125 -6.128906 7.359375 -6.640625 C 7.191406 -6.003906 7.035156 -5.503906 6.890625 -5.140625 L 4.9375 0 L 4.21875 0 L 2.25 -5.140625 L 1.953125 -6.046875 L 1.765625 -6.640625 L 1.78125 -6.046875 L 1.8125 -5.03125 L 1.8125 0 L 0.90625 0 L 0.90625 -7.546875 L 2.25 -7.546875 L 4.25 -2.3125 C 4.320312 -2.101562 4.390625 -1.878906 4.453125 -1.640625 C 4.523438 -1.398438 4.570312 -1.222656 4.59375 -1.109375 C 4.613281 -1.253906 4.671875 -1.472656 4.765625 -1.765625 C 4.859375 -2.054688 4.921875 -2.238281 4.953125 -2.3125 L 6.921875 -7.546875 L 8.234375 -7.546875 L 8.234375 0 Z M 7.3125 0 "/></g></g><g transform="translate(249.526167, 201.728367)"><g><path d="M 2.21875 0.109375 C 1.632812 0.109375 1.195312 -0.0390625 0.90625 -0.34375 C 0.613281 -0.65625 0.46875 -1.082031 0.46875 -1.625 C 0.46875 -2.21875 0.664062 -2.675781 1.0625 -3 C 1.457031 -3.320312 2.09375 -3.492188 2.96875 -3.515625 L 4.265625 -3.53125 L 4.265625 -3.84375 C 4.265625 -4.320312 4.164062 -4.660156 3.96875 -4.859375 C 3.769531 -5.066406 3.457031 -5.171875 3.03125 -5.171875 C 2.59375 -5.171875 2.273438 -5.097656 2.078125 -4.953125 C 1.878906 -4.804688 1.765625 -4.570312 1.734375 -4.25 L 0.71875 -4.34375 C 0.882812 -5.382812 1.660156 -5.90625 3.046875 -5.90625 C 3.773438 -5.90625 4.320312 -5.738281 4.6875 -5.40625 C 5.0625 -5.070312 5.25 -4.585938 5.25 -3.953125 L 5.25 -1.453125 C 5.25 -1.171875 5.285156 -0.957031 5.359375 -0.8125 C 5.429688 -0.664062 5.570312 -0.59375 5.78125 -0.59375 C 5.875 -0.59375 5.976562 -0.601562 6.09375 -0.625 L 6.09375 -0.03125 C 5.851562 0.0195312 5.609375 0.046875 5.359375 0.046875 C 4.992188 0.046875 4.726562 -0.046875 4.5625 -0.234375 C 4.40625 -0.421875 4.316406 -0.710938 4.296875 -1.109375 L 4.265625 -1.109375 C 4.023438 -0.660156 3.738281 -0.34375 3.40625 -0.15625 C 3.082031 0.0195312 2.6875 0.109375 2.21875 0.109375 Z M 2.4375 -0.609375 C 2.789062 -0.609375 3.101562 -0.6875 3.375 -0.84375 C 3.65625 -1.007812 3.875 -1.234375 4.03125 -1.515625 C 4.1875 -1.796875 4.265625 -2.085938 4.265625 -2.390625 L 4.265625 -2.859375 L 3.21875 -2.84375 C 2.757812 -2.832031 2.410156 -2.785156 2.171875 -2.703125 C 1.941406 -2.617188 1.765625 -2.484375 1.640625 -2.296875 C 1.515625 -2.117188 1.453125 -1.882812 1.453125 -1.59375 C 1.453125 -1.28125 1.535156 -1.035156 1.703125 -0.859375 C 1.878906 -0.691406 2.125 -0.609375 2.4375 -0.609375 Z M 2.4375 -0.609375 "/></g></g><g transform="translate(255.627675, 201.728367)"><g><path d="M 0.734375 -7.03125 L 0.734375 -7.953125 L 1.703125 -7.953125 L 1.703125 -7.03125 Z M 0.734375 0 L 0.734375 -5.796875 L 1.703125 -5.796875 L 1.703125 0 Z M 0.734375 0 "/></g></g></g><g fill="#000000" fill-opacity="1"><g transform="translate(287.548737, 201.728367)"><g><path d="M 2.453125 0.109375 C 1.171875 0.109375 0.410156 -0.550781 0.171875 -1.875 L 1.171875 -2.046875 C 1.234375 -1.628906 1.375 -1.300781 1.59375 -1.0625 C 1.820312 -0.832031 2.109375 -0.71875 2.453125 -0.71875 C 2.828125 -0.71875 3.117188 -0.84375 3.328125 -1.09375 C 3.546875 -1.351562 3.65625 -1.734375 3.65625 -2.234375 L 3.65625 -6.703125 L 2.203125 -6.703125 L 2.203125 -7.546875 L 4.671875 -7.546875 L 4.671875 -2.25 C 4.671875 -1.519531 4.472656 -0.941406 4.078125 -0.515625 C 3.679688 -0.0976562 3.140625 0.109375 2.453125 0.109375 Z M 2.453125 0.109375 "/></g></g><g transform="translate(293.034202, 201.728367)"><g><path d="M 1.6875 -5.796875 L 1.6875 -2.125 C 1.6875 -1.738281 1.722656 -1.441406 1.796875 -1.234375 C 1.867188 -1.023438 1.988281 -0.875 2.15625 -0.78125 C 2.320312 -0.6875 2.5625 -0.640625 2.875 -0.640625 C 3.34375 -0.640625 3.707031 -0.796875 3.96875 -1.109375 C 4.238281 -1.429688 4.375 -1.875 4.375 -2.4375 L 4.375 -5.796875 L 5.34375 -5.796875 L 5.34375 -1.234375 C 5.34375 -0.554688 5.351562 -0.144531 5.375 0 L 4.46875 0 C 4.457031 -0.0195312 4.453125 -0.0664062 4.453125 -0.140625 C 4.453125 -0.222656 4.445312 -0.3125 4.4375 -0.40625 C 4.425781 -0.507812 4.421875 -0.703125 4.421875 -0.984375 L 4.40625 -0.984375 C 4.1875 -0.585938 3.929688 -0.304688 3.640625 -0.140625 C 3.347656 0.0234375 2.984375 0.109375 2.546875 0.109375 C 1.910156 0.109375 1.445312 -0.046875 1.15625 -0.359375 C 0.863281 -0.679688 0.71875 -1.207031 0.71875 -1.9375 L 0.71875 -5.796875 Z M 1.6875 -5.796875 "/></g></g><g transform="translate(299.13571, 201.728367)"><g><path d="M 4.421875 0 L 4.421875 -3.671875 C 4.421875 -4.054688 4.378906 -4.351562 4.296875 -4.5625 C 4.222656 -4.769531 4.101562 -4.921875 3.9375 -5.015625 C 3.78125 -5.109375 3.539062 -5.15625 3.21875 -5.15625 C 2.757812 -5.15625 2.394531 -4.992188 2.125 -4.671875 C 1.851562 -4.359375 1.71875 -3.921875 1.71875 -3.359375 L 1.71875 0 L 0.765625 0 L 0.765625 -4.5625 C 0.765625 -5.226562 0.753906 -5.640625 0.734375 -5.796875 L 1.640625 -5.796875 C 1.640625 -5.773438 1.640625 -5.722656 1.640625 -5.640625 C 1.648438 -5.566406 1.65625 -5.476562 1.65625 -5.375 C 1.664062 -5.28125 1.675781 -5.085938 1.6875 -4.796875 L 1.703125 -4.796875 C 1.921875 -5.203125 2.175781 -5.488281 2.46875 -5.65625 C 2.757812 -5.820312 3.117188 -5.90625 3.546875 -5.90625 C 4.179688 -5.90625 4.644531 -5.742188 4.9375 -5.421875 C 5.238281 -5.109375 5.390625 -4.585938 5.390625 -3.859375 L 5.390625 0 Z M 4.421875 0 "/></g></g></g><g fill="#000000" fill-opacity="1"><g transform="translate(335.856571, 201.728367)"><g><path d="M 2.453125 0.109375 C 1.171875 0.109375 0.410156 -0.550781 0.171875 -1.875 L 1.171875 -2.046875 C 1.234375 -1.628906 1.375 -1.300781 1.59375 -1.0625 C 1.820312 -0.832031 2.109375 -0.71875 2.453125 -0.71875 C 2.828125 -0.71875 3.117188 -0.84375 3.328125 -1.09375 C 3.546875 -1.351562 3.65625 -1.734375 3.65625 -2.234375 L 3.65625 -6.703125 L 2.203125 -6.703125 L 2.203125 -7.546875 L 4.671875 -7.546875 L 4.671875 -2.25 C 4.671875 -1.519531 4.472656 -0.941406 4.078125 -0.515625 C 3.679688 -0.0976562 3.140625 0.109375 2.453125 0.109375 Z M 2.453125 0.109375 "/></g></g><g transform="translate(341.342036, 201.728367)"><g><path d="M 1.6875 -5.796875 L 1.6875 -2.125 C 1.6875 -1.738281 1.722656 -1.441406 1.796875 -1.234375 C 1.867188 -1.023438 1.988281 -0.875 2.15625 -0.78125 C 2.320312 -0.6875 2.5625 -0.640625 2.875 -0.640625 C 3.34375 -0.640625 3.707031 -0.796875 3.96875 -1.109375 C 4.238281 -1.429688 4.375 -1.875 4.375 -2.4375 L 4.375 -5.796875 L 5.34375 -5.796875 L 5.34375 -1.234375 C 5.34375 -0.554688 5.351562 -0.144531 5.375 0 L 4.46875 0 C 4.457031 -0.0195312 4.453125 -0.0664062 4.453125 -0.140625 C 4.453125 -0.222656 4.445312 -0.3125 4.4375 -0.40625 C 4.425781 -0.507812 4.421875 -0.703125 4.421875 -0.984375 L 4.40625 -0.984375 C 4.1875 -0.585938 3.929688 -0.304688 3.640625 -0.140625 C 3.347656 0.0234375 2.984375 0.109375 2.546875 0.109375 C 1.910156 0.109375 1.445312 -0.046875 1.15625 -0.359375 C 0.863281 -0.679688 0.71875 -1.207031 0.71875 -1.9375 L 0.71875 -5.796875 Z M 1.6875 -5.796875 "/></g></g><g transform="translate(347.443544, 201.728367)"><g><path d="M 0.734375 0 L 0.734375 -7.953125 L 1.703125 -7.953125 L 1.703125 0 Z M 0.734375 0 "/></g></g></g><g fill="#000000" fill-opacity="1"><g transform="translate(379.235994, 201.728367)"><g><path d="M 6.25 0 L 5.390625 -2.203125 L 1.953125 -2.203125 L 1.078125 0 L 0.015625 0 L 3.09375 -7.546875 L 4.265625 -7.546875 L 7.296875 0 Z M 3.671875 -6.78125 L 3.625 -6.625 C 3.53125 -6.332031 3.394531 -5.953125 3.21875 -5.484375 L 2.265625 -3 L 5.078125 -3 L 4.109375 -5.5 C 4.015625 -5.738281 3.914062 -6.015625 3.8125 -6.328125 Z M 3.671875 -6.78125 "/></g></g><g transform="translate(386.553518, 201.728367)"><g><path d="M 2.9375 2.28125 C 2.300781 2.28125 1.796875 2.15625 1.421875 1.90625 C 1.046875 1.65625 0.804688 1.300781 0.703125 0.84375 L 1.671875 0.703125 C 1.734375 0.972656 1.875 1.179688 2.09375 1.328125 C 2.3125 1.472656 2.601562 1.546875 2.96875 1.546875 C 3.925781 1.546875 4.40625 0.984375 4.40625 -0.140625 L 4.40625 -1.078125 L 4.390625 -1.078125 C 4.210938 -0.703125 3.960938 -0.421875 3.640625 -0.234375 C 3.328125 -0.046875 2.957031 0.046875 2.53125 0.046875 C 1.820312 0.046875 1.296875 -0.1875 0.953125 -0.65625 C 0.617188 -1.132812 0.453125 -1.878906 0.453125 -2.890625 C 0.453125 -3.910156 0.628906 -4.664062 0.984375 -5.15625 C 1.347656 -5.644531 1.898438 -5.890625 2.640625 -5.890625 C 3.046875 -5.890625 3.398438 -5.796875 3.703125 -5.609375 C 4.003906 -5.421875 4.238281 -5.148438 4.40625 -4.796875 C 4.40625 -4.910156 4.410156 -5.097656 4.421875 -5.359375 C 4.441406 -5.617188 4.460938 -5.765625 4.484375 -5.796875 L 5.390625 -5.796875 C 5.367188 -5.597656 5.359375 -5.195312 5.359375 -4.59375 L 5.359375 -0.171875 C 5.359375 1.460938 4.550781 2.28125 2.9375 2.28125 Z M 4.40625 -2.890625 C 4.40625 -3.367188 4.335938 -3.773438 4.203125 -4.109375 C 4.078125 -4.453125 3.894531 -4.710938 3.65625 -4.890625 C 3.425781 -5.078125 3.164062 -5.171875 2.875 -5.171875 C 2.375 -5.171875 2.007812 -4.988281 1.78125 -4.625 C 1.5625 -4.269531 1.453125 -3.691406 1.453125 -2.890625 C 1.453125 -2.097656 1.554688 -1.53125 1.765625 -1.1875 C 1.984375 -0.84375 2.347656 -0.671875 2.859375 -0.671875 C 3.160156 -0.671875 3.425781 -0.757812 3.65625 -0.9375 C 3.894531 -1.113281 4.078125 -1.367188 4.203125 -1.703125 C 4.335938 -2.035156 4.40625 -2.429688 4.40625 -2.890625 Z M 4.40625 -2.890625 "/></g></g><g transform="translate(392.655026, 201.728367)"><g><path d="M 5.640625 -2.90625 C 5.640625 -1.882812 5.414062 -1.125 4.96875 -0.625 C 4.519531 -0.132812 3.875 0.109375 3.03125 0.109375 C 2.175781 0.109375 1.53125 -0.144531 1.09375 -0.65625 C 0.664062 -1.175781 0.453125 -1.925781 0.453125 -2.90625 C 0.453125 -4.90625 1.320312 -5.90625 3.0625 -5.90625 C 3.945312 -5.90625 4.597656 -5.660156 5.015625 -5.171875 C 5.429688 -4.679688 5.640625 -3.925781 5.640625 -2.90625 Z M 4.625 -2.90625 C 4.625 -3.707031 4.503906 -4.285156 4.265625 -4.640625 C 4.035156 -5.003906 3.640625 -5.1875 3.078125 -5.1875 C 2.515625 -5.1875 2.101562 -5 1.84375 -4.625 C 1.59375 -4.257812 1.46875 -3.6875 1.46875 -2.90625 C 1.46875 -2.132812 1.59375 -1.554688 1.84375 -1.171875 C 2.09375 -0.796875 2.484375 -0.609375 3.015625 -0.609375 C 3.597656 -0.609375 4.007812 -0.789062 4.25 -1.15625 C 4.5 -1.53125 4.625 -2.113281 4.625 -2.90625 Z M 4.625 -2.90625 "/></g></g></g><g fill="#000000" fill-opacity="1"><g transform="translate(427.243837, 201.728367)"><g><path d="M 6.8125 -2.078125 C 6.8125 -1.378906 6.535156 -0.835938 5.984375 -0.453125 C 5.441406 -0.078125 4.679688 0.109375 3.703125 0.109375 C 1.859375 0.109375 0.789062 -0.53125 0.5 -1.8125 L 1.484375 -2.015625 C 1.597656 -1.554688 1.84375 -1.21875 2.21875 -1 C 2.59375 -0.789062 3.097656 -0.6875 3.734375 -0.6875 C 4.390625 -0.6875 4.894531 -0.800781 5.25 -1.03125 C 5.613281 -1.257812 5.796875 -1.59375 5.796875 -2.03125 C 5.796875 -2.28125 5.738281 -2.476562 5.625 -2.625 C 5.519531 -2.78125 5.363281 -2.90625 5.15625 -3 C 4.957031 -3.101562 4.710938 -3.1875 4.421875 -3.25 C 4.140625 -3.320312 3.828125 -3.398438 3.484375 -3.484375 C 2.890625 -3.609375 2.4375 -3.738281 2.125 -3.875 C 1.820312 -4.007812 1.582031 -4.15625 1.40625 -4.3125 C 1.226562 -4.476562 1.09375 -4.671875 1 -4.890625 C 0.90625 -5.109375 0.859375 -5.359375 0.859375 -5.640625 C 0.859375 -6.285156 1.101562 -6.78125 1.59375 -7.125 C 2.082031 -7.476562 2.789062 -7.65625 3.71875 -7.65625 C 4.570312 -7.65625 5.222656 -7.523438 5.671875 -7.265625 C 6.128906 -7.003906 6.453125 -6.554688 6.640625 -5.921875 L 5.625 -5.75 C 5.519531 -6.144531 5.3125 -6.429688 5 -6.609375 C 4.6875 -6.796875 4.253906 -6.890625 3.703125 -6.890625 C 3.097656 -6.890625 2.632812 -6.785156 2.3125 -6.578125 C 2 -6.378906 1.84375 -6.082031 1.84375 -5.6875 C 1.84375 -5.457031 1.90625 -5.265625 2.03125 -5.109375 C 2.15625 -4.960938 2.332031 -4.835938 2.5625 -4.734375 C 2.789062 -4.628906 3.253906 -4.5 3.953125 -4.34375 C 4.179688 -4.289062 4.410156 -4.234375 4.640625 -4.171875 C 4.867188 -4.117188 5.085938 -4.050781 5.296875 -3.96875 C 5.515625 -3.894531 5.710938 -3.804688 5.890625 -3.703125 C 6.078125 -3.609375 6.238281 -3.484375 6.375 -3.328125 C 6.507812 -3.179688 6.613281 -3.003906 6.6875 -2.796875 C 6.769531 -2.597656 6.8125 -2.359375 6.8125 -2.078125 Z M 6.8125 -2.078125 "/></g></g><g transform="translate(434.561361, 201.728367)"><g><path d="M 1.484375 -2.6875 C 1.484375 -2.03125 1.617188 -1.519531 1.890625 -1.15625 C 2.160156 -0.789062 2.5625 -0.609375 3.09375 -0.609375 C 3.507812 -0.609375 3.84375 -0.691406 4.09375 -0.859375 C 4.351562 -1.035156 4.523438 -1.25 4.609375 -1.5 L 5.453125 -1.265625 C 5.109375 -0.347656 4.320312 0.109375 3.09375 0.109375 C 2.238281 0.109375 1.585938 -0.144531 1.140625 -0.65625 C 0.691406 -1.164062 0.46875 -1.925781 0.46875 -2.9375 C 0.46875 -3.894531 0.691406 -4.628906 1.140625 -5.140625 C 1.585938 -5.648438 2.226562 -5.90625 3.0625 -5.90625 C 4.757812 -5.90625 5.609375 -4.878906 5.609375 -2.828125 L 5.609375 -2.6875 Z M 4.609375 -3.4375 C 4.554688 -4.039062 4.398438 -4.484375 4.140625 -4.765625 C 3.890625 -5.046875 3.523438 -5.1875 3.046875 -5.1875 C 2.578125 -5.1875 2.203125 -5.03125 1.921875 -4.71875 C 1.648438 -4.40625 1.503906 -3.976562 1.484375 -3.4375 Z M 4.609375 -3.4375 "/></g></g><g transform="translate(440.662869, 201.728367)"><g><path d="M 2.96875 -0.046875 C 2.644531 0.0351562 2.320312 0.078125 2 0.078125 C 1.21875 0.078125 0.828125 -0.351562 0.828125 -1.21875 L 0.828125 -5.09375 L 0.171875 -5.09375 L 0.171875 -5.796875 L 0.875 -5.796875 L 1.15625 -7.09375 L 1.796875 -7.09375 L 1.796875 -5.796875 L 2.875 -5.796875 L 2.875 -5.09375 L 1.796875 -5.09375 L 1.796875 -1.4375 C 1.796875 -1.15625 1.84375 -0.957031 1.9375 -0.84375 C 2.03125 -0.738281 2.1875 -0.6875 2.40625 -0.6875 C 2.539062 -0.6875 2.726562 -0.707031 2.96875 -0.75 Z M 2.96875 -0.046875 "/></g></g></g><g fill="#000000" fill-opacity="1"><g transform="translate(472.76607, 201.728367)"><g><path d="M 8 -3.8125 C 8 -3.019531 7.847656 -2.328125 7.546875 -1.734375 C 7.253906 -1.140625 6.820312 -0.679688 6.25 -0.359375 C 5.6875 -0.046875 5.023438 0.109375 4.265625 0.109375 C 3.484375 0.109375 2.8125 -0.046875 2.25 -0.359375 C 1.6875 -0.671875 1.253906 -1.125 0.953125 -1.71875 C 0.660156 -2.320312 0.515625 -3.019531 0.515625 -3.8125 C 0.515625 -5.019531 0.84375 -5.960938 1.5 -6.640625 C 2.164062 -7.316406 3.085938 -7.65625 4.265625 -7.65625 C 5.035156 -7.65625 5.703125 -7.503906 6.265625 -7.203125 C 6.828125 -6.898438 7.253906 -6.457031 7.546875 -5.875 C 7.847656 -5.289062 8 -4.601562 8 -3.8125 Z M 6.96875 -3.8125 C 6.96875 -4.75 6.726562 -5.484375 6.25 -6.015625 C 5.78125 -6.554688 5.117188 -6.828125 4.265625 -6.828125 C 3.398438 -6.828125 2.734375 -6.5625 2.265625 -6.03125 C 1.796875 -5.5 1.5625 -4.757812 1.5625 -3.8125 C 1.5625 -2.863281 1.796875 -2.109375 2.265625 -1.546875 C 2.742188 -0.992188 3.410156 -0.71875 4.265625 -0.71875 C 5.128906 -0.71875 5.796875 -0.984375 6.265625 -1.515625 C 6.734375 -2.054688 6.96875 -2.820312 6.96875 -3.8125 Z M 6.96875 -3.8125 "/></g></g><g transform="translate(481.29961, 201.728367)"><g><path d="M 1.6875 -5.796875 L 1.6875 -2.125 C 1.6875 -1.738281 1.722656 -1.441406 1.796875 -1.234375 C 1.867188 -1.023438 1.988281 -0.875 2.15625 -0.78125 C 2.320312 -0.6875 2.5625 -0.640625 2.875 -0.640625 C 3.34375 -0.640625 3.707031 -0.796875 3.96875 -1.109375 C 4.238281 -1.429688 4.375 -1.875 4.375 -2.4375 L 4.375 -5.796875 L 5.34375 -5.796875 L 5.34375 -1.234375 C 5.34375 -0.554688 5.351562 -0.144531 5.375 0 L 4.46875 0 C 4.457031 -0.0195312 4.453125 -0.0664062 4.453125 -0.140625 C 4.453125 -0.222656 4.445312 -0.3125 4.4375 -0.40625 C 4.425781 -0.507812 4.421875 -0.703125 4.421875 -0.984375 L 4.40625 -0.984375 C 4.1875 -0.585938 3.929688 -0.304688 3.640625 -0.140625 C 3.347656 0.0234375 2.984375 0.109375 2.546875 0.109375 C 1.910156 0.109375 1.445312 -0.046875 1.15625 -0.359375 C 0.863281 -0.679688 0.71875 -1.207031 0.71875 -1.9375 L 0.71875 -5.796875 Z M 1.6875 -5.796875 "/></g></g><g transform="translate(487.401117, 201.728367)"><g><path d="M 2.96875 -0.046875 C 2.644531 0.0351562 2.320312 0.078125 2 0.078125 C 1.21875 0.078125 0.828125 -0.351562 0.828125 -1.21875 L 0.828125 -5.09375 L 0.171875 -5.09375 L 0.171875 -5.796875 L 0.875 -5.796875 L 1.15625 -7.09375 L 1.796875 -7.09375 L 1.796875 -5.796875 L 2.875 -5.796875 L 2.875 -5.09375 L 1.796875 -5.09375 L 1.796875 -1.4375 C 1.796875 -1.15625 1.84375 -0.957031 1.9375 -0.84375 C 2.03125 -0.738281 2.1875 -0.6875 2.40625 -0.6875 C 2.539062 -0.6875 2.726562 -0.707031 2.96875 -0.75 Z M 2.96875 -0.046875 "/></g></g></g><g fill="#000000" fill-opacity="1"><g transform="translate(518.331186, 201.728367)"><g><path d="M 5.796875 0 L 1.75 -6.421875 L 1.78125 -5.90625 L 1.8125 -5.015625 L 1.8125 0 L 0.90625 0 L 0.90625 -7.546875 L 2.09375 -7.546875 L 6.171875 -1.078125 C 6.128906 -1.773438 6.109375 -2.28125 6.109375 -2.59375 L 6.109375 -7.546875 L 7.03125 -7.546875 L 7.03125 0 Z M 5.796875 0 "/></g></g><g transform="translate(526.254039, 201.728367)"><g><path d="M 5.640625 -2.90625 C 5.640625 -1.882812 5.414062 -1.125 4.96875 -0.625 C 4.519531 -0.132812 3.875 0.109375 3.03125 0.109375 C 2.175781 0.109375 1.53125 -0.144531 1.09375 -0.65625 C 0.664062 -1.175781 0.453125 -1.925781 0.453125 -2.90625 C 0.453125 -4.90625 1.320312 -5.90625 3.0625 -5.90625 C 3.945312 -5.90625 4.597656 -5.660156 5.015625 -5.171875 C 5.429688 -4.679688 5.640625 -3.925781 5.640625 -2.90625 Z M 4.625 -2.90625 C 4.625 -3.707031 4.503906 -4.285156 4.265625 -4.640625 C 4.035156 -5.003906 3.640625 -5.1875 3.078125 -5.1875 C 2.515625 -5.1875 2.101562 -5 1.84375 -4.625 C 1.59375 -4.257812 1.46875 -3.6875 1.46875 -2.90625 C 1.46875 -2.132812 1.59375 -1.554688 1.84375 -1.171875 C 2.09375 -0.796875 2.484375 -0.609375 3.015625 -0.609375 C 3.597656 -0.609375 4.007812 -0.789062 4.25 -1.15625 C 4.5 -1.53125 4.625 -2.113281 4.625 -2.90625 Z M 4.625 -2.90625 "/></g></g><g transform="translate(532.355547, 201.728367)"><g><path d="M 3.28125 0 L 2.140625 0 L 0.03125 -5.796875 L 1.0625 -5.796875 L 2.34375 -2.03125 C 2.382812 -1.882812 2.503906 -1.457031 2.703125 -0.75 L 2.890625 -1.375 L 3.109375 -2.015625 L 4.421875 -5.796875 L 5.453125 -5.796875 Z M 3.28125 0 "/></g></g></g><g fill="#000000" fill-opacity="1"><g transform="translate(564.806879, 201.728367)"><g><path d="M 7.390625 -3.84375 C 7.390625 -3.070312 7.238281 -2.394531 6.9375 -1.8125 C 6.632812 -1.226562 6.203125 -0.78125 5.640625 -0.46875 C 5.085938 -0.15625 4.445312 0 3.71875 0 L 0.90625 0 L 0.90625 -7.546875 L 3.390625 -7.546875 C 4.671875 -7.546875 5.65625 -7.222656 6.34375 -6.578125 C 7.039062 -5.941406 7.390625 -5.03125 7.390625 -3.84375 Z M 6.375 -3.84375 C 6.375 -4.78125 6.113281 -5.492188 5.59375 -5.984375 C 5.082031 -6.484375 4.34375 -6.734375 3.375 -6.734375 L 1.921875 -6.734375 L 1.921875 -0.8125 L 3.609375 -0.8125 C 4.160156 -0.8125 4.644531 -0.929688 5.0625 -1.171875 C 5.476562 -1.421875 5.800781 -1.773438 6.03125 -2.234375 C 6.257812 -2.691406 6.375 -3.226562 6.375 -3.84375 Z M 6.375 -3.84375 "/></g></g><g transform="translate(572.729733, 201.728367)"><g><path d="M 1.484375 -2.6875 C 1.484375 -2.03125 1.617188 -1.519531 1.890625 -1.15625 C 2.160156 -0.789062 2.5625 -0.609375 3.09375 -0.609375 C 3.507812 -0.609375 3.84375 -0.691406 4.09375 -0.859375 C 4.351562 -1.035156 4.523438 -1.25 4.609375 -1.5 L 5.453125 -1.265625 C 5.109375 -0.347656 4.320312 0.109375 3.09375 0.109375 C 2.238281 0.109375 1.585938 -0.144531 1.140625 -0.65625 C 0.691406 -1.164062 0.46875 -1.925781 0.46875 -2.9375 C 0.46875 -3.894531 0.691406 -4.628906 1.140625 -5.140625 C 1.585938 -5.648438 2.226562 -5.90625 3.0625 -5.90625 C 4.757812 -5.90625 5.609375 -4.878906 5.609375 -2.828125 L 5.609375 -2.6875 Z M 4.609375 -3.4375 C 4.554688 -4.039062 4.398438 -4.484375 4.140625 -4.765625 C 3.890625 -5.046875 3.523438 -5.1875 3.046875 -5.1875 C 2.578125 -5.1875 2.203125 -5.03125 1.921875 -4.71875 C 1.648438 -4.40625 1.503906 -3.976562 1.484375 -3.4375 Z M 4.609375 -3.4375 "/></g></g><g transform="translate(578.83124, 201.728367)"><g><path d="M 0.4375 0 L 0.4375 -0.734375 L 3.6875 -5.046875 L 0.625 -5.046875 L 0.625 -5.796875 L 4.828125 -5.796875 L 4.828125 -5.0625 L 1.578125 -0.75 L 4.9375 -0.75 L 4.9375 0 Z M 0.4375 0 "/></g></g></g><g fill="#000000" fill-opacity="1"><g transform="translate(25.412739, 191.443134)"><g><path d="M 5.671875 -3.78125 C 5.671875 -2.519531 5.445312 -1.554688 5 -0.890625 C 4.5625 -0.222656 3.90625 0.109375 3.03125 0.109375 C 2.164062 0.109375 1.515625 -0.21875 1.078125 -0.875 C 0.640625 -1.539062 0.421875 -2.507812 0.421875 -3.78125 C 0.421875 -5.070312 0.632812 -6.039062 1.0625 -6.6875 C 1.488281 -7.332031 2.15625 -7.65625 3.0625 -7.65625 C 3.957031 -7.65625 4.613281 -7.328125 5.03125 -6.671875 C 5.457031 -6.023438 5.671875 -5.0625 5.671875 -3.78125 Z M 4.6875 -3.78125 C 4.6875 -4.863281 4.5625 -5.648438 4.3125 -6.140625 C 4.0625 -6.628906 3.644531 -6.875 3.0625 -6.875 C 2.476562 -6.875 2.054688 -6.632812 1.796875 -6.15625 C 1.535156 -5.675781 1.40625 -4.882812 1.40625 -3.78125 C 1.40625 -2.707031 1.535156 -1.921875 1.796875 -1.421875 C 2.054688 -0.929688 2.472656 -0.6875 3.046875 -0.6875 C 3.617188 -0.6875 4.035156 -0.9375 4.296875 -1.4375 C 4.554688 -1.945312 4.6875 -2.726562 4.6875 -3.78125 Z M 4.6875 -3.78125 "/></g></g></g><g fill="#000000" fill-opacity="1"><g transform="translate(7.349274, 154.937289)"><g><path d="M 0.546875 0 L 0.546875 -0.6875 C 0.734375 -1.101562 0.957031 -1.46875 1.21875 -1.78125 C 1.476562 -2.101562 1.753906 -2.394531 2.046875 -2.65625 C 2.335938 -2.914062 2.625 -3.15625 2.90625 -3.375 C 3.1875 -3.59375 3.441406 -3.8125 3.671875 -4.03125 C 3.898438 -4.257812 4.082031 -4.492188 4.21875 -4.734375 C 4.363281 -4.972656 4.4375 -5.25 4.4375 -5.5625 C 4.4375 -5.976562 4.316406 -6.296875 4.078125 -6.515625 C 3.835938 -6.742188 3.5 -6.859375 3.0625 -6.859375 C 2.65625 -6.859375 2.316406 -6.75 2.046875 -6.53125 C 1.785156 -6.3125 1.628906 -6 1.578125 -5.59375 L 0.59375 -5.6875 C 0.664062 -6.289062 0.921875 -6.769531 1.359375 -7.125 C 1.804688 -7.476562 2.375 -7.65625 3.0625 -7.65625 C 3.820312 -7.65625 4.40625 -7.472656 4.8125 -7.109375 C 5.226562 -6.753906 5.4375 -6.25 5.4375 -5.59375 C 5.4375 -5.300781 5.367188 -5.007812 5.234375 -4.71875 C 5.097656 -4.425781 4.894531 -4.132812 4.625 -3.84375 C 4.363281 -3.5625 3.859375 -3.113281 3.109375 -2.5 C 2.703125 -2.164062 2.375 -1.863281 2.125 -1.59375 C 1.882812 -1.320312 1.710938 -1.0625 1.609375 -0.8125 L 5.546875 -0.8125 L 5.546875 0 Z M 0.546875 0 "/></g></g><g transform="translate(13.450782, 154.937289)"><g><path d="M 5.671875 -3.78125 C 5.671875 -2.519531 5.445312 -1.554688 5 -0.890625 C 4.5625 -0.222656 3.90625 0.109375 3.03125 0.109375 C 2.164062 0.109375 1.515625 -0.21875 1.078125 -0.875 C 0.640625 -1.539062 0.421875 -2.507812 0.421875 -3.78125 C 0.421875 -5.070312 0.632812 -6.039062 1.0625 -6.6875 C 1.488281 -7.332031 2.15625 -7.65625 3.0625 -7.65625 C 3.957031 -7.65625 4.613281 -7.328125 5.03125 -6.671875 C 5.457031 -6.023438 5.671875 -5.0625 5.671875 -3.78125 Z M 4.6875 -3.78125 C 4.6875 -4.863281 4.5625 -5.648438 4.3125 -6.140625 C 4.0625 -6.628906 3.644531 -6.875 3.0625 -6.875 C 2.476562 -6.875 2.054688 -6.632812 1.796875 -6.15625 C 1.535156 -5.675781 1.40625 -4.882812 1.40625 -3.78125 C 1.40625 -2.707031 1.535156 -1.921875 1.796875 -1.421875 C 2.054688 -0.929688 2.472656 -0.6875 3.046875 -0.6875 C 3.617188 -0.6875 4.035156 -0.9375 4.296875 -1.4375 C 4.554688 -1.945312 4.6875 -2.726562 4.6875 -3.78125 Z M 4.6875 -3.78125 "/></g></g><g transform="translate(19.55229, 154.937289)"><g><path d="M 5.671875 -3.78125 C 5.671875 -2.519531 5.445312 -1.554688 5 -0.890625 C 4.5625 -0.222656 3.90625 0.109375 3.03125 0.109375 C 2.164062 0.109375 1.515625 -0.21875 1.078125 -0.875 C 0.640625 -1.539062 0.421875 -2.507812 0.421875 -3.78125 C 0.421875 -5.070312 0.632812 -6.039062 1.0625 -6.6875 C 1.488281 -7.332031 2.15625 -7.65625 3.0625 -7.65625 C 3.957031 -7.65625 4.613281 -7.328125 5.03125 -6.671875 C 5.457031 -6.023438 5.671875 -5.0625 5.671875 -3.78125 Z M 4.6875 -3.78125 C 4.6875 -4.863281 4.5625 -5.648438 4.3125 -6.140625 C 4.0625 -6.628906 3.644531 -6.875 3.0625 -6.875 C 2.476562 -6.875 2.054688 -6.632812 1.796875 -6.15625 C 1.535156 -5.675781 1.40625 -4.882812 1.40625 -3.78125 C 1.40625 -2.707031 1.535156 -1.921875 1.796875 -1.421875 C 2.054688 -0.929688 2.472656 -0.6875 3.046875 -0.6875 C 3.617188 -0.6875 4.035156 -0.9375 4.296875 -1.4375 C 4.554688 -1.945312 4.6875 -2.726562 4.6875 -3.78125 Z M 4.6875 -3.78125 "/></g></g><g transform="translate(25.653798, 154.937289)"><g><path d="M 5.671875 -3.78125 C 5.671875 -2.519531 5.445312 -1.554688 5 -0.890625 C 4.5625 -0.222656 3.90625 0.109375 3.03125 0.109375 C 2.164062 0.109375 1.515625 -0.21875 1.078125 -0.875 C 0.640625 -1.539062 0.421875 -2.507812 0.421875 -3.78125 C 0.421875 -5.070312 0.632812 -6.039062 1.0625 -6.6875 C 1.488281 -7.332031 2.15625 -7.65625 3.0625 -7.65625 C 3.957031 -7.65625 4.613281 -7.328125 5.03125 -6.671875 C 5.457031 -6.023438 5.671875 -5.0625 5.671875 -3.78125 Z M 4.6875 -3.78125 C 4.6875 -4.863281 4.5625 -5.648438 4.3125 -6.140625 C 4.0625 -6.628906 3.644531 -6.875 3.0625 -6.875 C 2.476562 -6.875 2.054688 -6.632812 1.796875 -6.15625 C 1.535156 -5.675781 1.40625 -4.882812 1.40625 -3.78125 C 1.40625 -2.707031 1.535156 -1.921875 1.796875 -1.421875 C 2.054688 -0.929688 2.472656 -0.6875 3.046875 -0.6875 C 3.617188 -0.6875 4.035156 -0.9375 4.296875 -1.4375 C 4.554688 -1.945312 4.6875 -2.726562 4.6875 -3.78125 Z M 4.6875 -3.78125 "/></g></g></g><g fill="#000000" fill-opacity="1"><g transform="translate(7.349274, 118.431425)"><g><path d="M 4.71875 -1.703125 L 4.71875 0 L 3.8125 0 L 3.8125 -1.703125 L 0.25 -1.703125 L 0.25 -2.453125 L 3.703125 -7.546875 L 4.71875 -7.546875 L 4.71875 -2.46875 L 5.78125 -2.46875 L 5.78125 -1.703125 Z M 3.8125 -6.453125 C 3.800781 -6.429688 3.75 -6.335938 3.65625 -6.171875 C 3.5625 -6.003906 3.492188 -5.890625 3.453125 -5.828125 L 1.515625 -2.96875 L 1.21875 -2.578125 L 1.140625 -2.46875 L 3.8125 -2.46875 Z M 3.8125 -6.453125 "/></g></g><g transform="translate(13.450782, 118.431425)"><g><path d="M 5.671875 -3.78125 C 5.671875 -2.519531 5.445312 -1.554688 5 -0.890625 C 4.5625 -0.222656 3.90625 0.109375 3.03125 0.109375 C 2.164062 0.109375 1.515625 -0.21875 1.078125 -0.875 C 0.640625 -1.539062 0.421875 -2.507812 0.421875 -3.78125 C 0.421875 -5.070312 0.632812 -6.039062 1.0625 -6.6875 C 1.488281 -7.332031 2.15625 -7.65625 3.0625 -7.65625 C 3.957031 -7.65625 4.613281 -7.328125 5.03125 -6.671875 C 5.457031 -6.023438 5.671875 -5.0625 5.671875 -3.78125 Z M 4.6875 -3.78125 C 4.6875 -4.863281 4.5625 -5.648438 4.3125 -6.140625 C 4.0625 -6.628906 3.644531 -6.875 3.0625 -6.875 C 2.476562 -6.875 2.054688 -6.632812 1.796875 -6.15625 C 1.535156 -5.675781 1.40625 -4.882812 1.40625 -3.78125 C 1.40625 -2.707031 1.535156 -1.921875 1.796875 -1.421875 C 2.054688 -0.929688 2.472656 -0.6875 3.046875 -0.6875 C 3.617188 -0.6875 4.035156 -0.9375 4.296875 -1.4375 C 4.554688 -1.945312 4.6875 -2.726562 4.6875 -3.78125 Z M 4.6875 -3.78125 "/></g></g><g transform="translate(19.55229, 118.431425)"><g><path d="M 5.671875 -3.78125 C 5.671875 -2.519531 5.445312 -1.554688 5 -0.890625 C 4.5625 -0.222656 3.90625 0.109375 3.03125 0.109375 C 2.164062 0.109375 1.515625 -0.21875 1.078125 -0.875 C 0.640625 -1.539062 0.421875 -2.507812 0.421875 -3.78125 C 0.421875 -5.070312 0.632812 -6.039062 1.0625 -6.6875 C 1.488281 -7.332031 2.15625 -7.65625 3.0625 -7.65625 C 3.957031 -7.65625 4.613281 -7.328125 5.03125 -6.671875 C 5.457031 -6.023438 5.671875 -5.0625 5.671875 -3.78125 Z M 4.6875 -3.78125 C 4.6875 -4.863281 4.5625 -5.648438 4.3125 -6.140625 C 4.0625 -6.628906 3.644531 -6.875 3.0625 -6.875 C 2.476562 -6.875 2.054688 -6.632812 1.796875 -6.15625 C 1.535156 -5.675781 1.40625 -4.882812 1.40625 -3.78125 C 1.40625 -2.707031 1.535156 -1.921875 1.796875 -1.421875 C 2.054688 -0.929688 2.472656 -0.6875 3.046875 -0.6875 C 3.617188 -0.6875 4.035156 -0.9375 4.296875 -1.4375 C 4.554688 -1.945312 4.6875 -2.726562 4.6875 -3.78125 Z M 4.6875 -3.78125 "/></g></g><g transform="translate(25.653798, 118.431425)"><g><path d="M 5.671875 -3.78125 C 5.671875 -2.519531 5.445312 -1.554688 5 -0.890625 C 4.5625 -0.222656 3.90625 0.109375 3.03125 0.109375 C 2.164062 0.109375 1.515625 -0.21875 1.078125 -0.875 C 0.640625 -1.539062 0.421875 -2.507812 0.421875 -3.78125 C 0.421875 -5.070312 0.632812 -6.039062 1.0625 -6.6875 C 1.488281 -7.332031 2.15625 -7.65625 3.0625 -7.65625 C 3.957031 -7.65625 4.613281 -7.328125 5.03125 -6.671875 C 5.457031 -6.023438 5.671875 -5.0625 5.671875 -3.78125 Z M 4.6875 -3.78125 C 4.6875 -4.863281 4.5625 -5.648438 4.3125 -6.140625 C 4.0625 -6.628906 3.644531 -6.875 3.0625 -6.875 C 2.476562 -6.875 2.054688 -6.632812 1.796875 -6.15625 C 1.535156 -5.675781 1.40625 -4.882812 1.40625 -3.78125 C 1.40625 -2.707031 1.535156 -1.921875 1.796875 -1.421875 C 2.054688 -0.929688 2.472656 -0.6875 3.046875 -0.6875 C 3.617188 -0.6875 4.035156 -0.9375 4.296875 -1.4375 C 4.554688 -1.945312 4.6875 -2.726562 4.6875 -3.78125 Z M 4.6875 -3.78125 "/></g></g></g><g fill="#000000" fill-opacity="1"><g transform="translate(7.349274, 81.92558)"><g><path d="M 5.625 -2.46875 C 5.625 -1.675781 5.40625 -1.046875 4.96875 -0.578125 C 4.539062 -0.117188 3.945312 0.109375 3.1875 0.109375 C 2.332031 0.109375 1.679688 -0.203125 1.234375 -0.828125 C 0.785156 -1.460938 0.5625 -2.382812 0.5625 -3.59375 C 0.5625 -4.90625 0.789062 -5.910156 1.25 -6.609375 C 1.71875 -7.304688 2.382812 -7.65625 3.25 -7.65625 C 4.394531 -7.65625 5.113281 -7.144531 5.40625 -6.125 L 4.484375 -5.953125 C 4.296875 -6.566406 3.882812 -6.875 3.25 -6.875 C 2.695312 -6.875 2.269531 -6.617188 1.96875 -6.109375 C 1.664062 -5.597656 1.515625 -4.859375 1.515625 -3.890625 C 1.691406 -4.210938 1.9375 -4.457031 2.25 -4.625 C 2.570312 -4.789062 2.9375 -4.875 3.34375 -4.875 C 4.039062 -4.875 4.59375 -4.65625 5 -4.21875 C 5.414062 -3.789062 5.625 -3.207031 5.625 -2.46875 Z M 4.640625 -2.421875 C 4.640625 -2.972656 4.503906 -3.394531 4.234375 -3.6875 C 3.960938 -3.988281 3.585938 -4.140625 3.109375 -4.140625 C 2.660156 -4.140625 2.296875 -4.003906 2.015625 -3.734375 C 1.742188 -3.472656 1.609375 -3.113281 1.609375 -2.65625 C 1.609375 -2.070312 1.75 -1.59375 2.03125 -1.21875 C 2.320312 -0.851562 2.695312 -0.671875 3.15625 -0.671875 C 3.613281 -0.671875 3.972656 -0.828125 4.234375 -1.140625 C 4.503906 -1.453125 4.640625 -1.878906 4.640625 -2.421875 Z M 4.640625 -2.421875 "/></g></g><g transform="translate(13.450782, 81.92558)"><g><path d="M 5.671875 -3.78125 C 5.671875 -2.519531 5.445312 -1.554688 5 -0.890625 C 4.5625 -0.222656 3.90625 0.109375 3.03125 0.109375 C 2.164062 0.109375 1.515625 -0.21875 1.078125 -0.875 C 0.640625 -1.539062 0.421875 -2.507812 0.421875 -3.78125 C 0.421875 -5.070312 0.632812 -6.039062 1.0625 -6.6875 C 1.488281 -7.332031 2.15625 -7.65625 3.0625 -7.65625 C 3.957031 -7.65625 4.613281 -7.328125 5.03125 -6.671875 C 5.457031 -6.023438 5.671875 -5.0625 5.671875 -3.78125 Z M 4.6875 -3.78125 C 4.6875 -4.863281 4.5625 -5.648438 4.3125 -6.140625 C 4.0625 -6.628906 3.644531 -6.875 3.0625 -6.875 C 2.476562 -6.875 2.054688 -6.632812 1.796875 -6.15625 C 1.535156 -5.675781 1.40625 -4.882812 1.40625 -3.78125 C 1.40625 -2.707031 1.535156 -1.921875 1.796875 -1.421875 C 2.054688 -0.929688 2.472656 -0.6875 3.046875 -0.6875 C 3.617188 -0.6875 4.035156 -0.9375 4.296875 -1.4375 C 4.554688 -1.945312 4.6875 -2.726562 4.6875 -3.78125 Z M 4.6875 -3.78125 "/></g></g><g transform="translate(19.55229, 81.92558)"><g><path d="M 5.671875 -3.78125 C 5.671875 -2.519531 5.445312 -1.554688 5 -0.890625 C 4.5625 -0.222656 3.90625 0.109375 3.03125 0.109375 C 2.164062 0.109375 1.515625 -0.21875 1.078125 -0.875 C 0.640625 -1.539062 0.421875 -2.507812 0.421875 -3.78125 C 0.421875 -5.070312 0.632812 -6.039062 1.0625 -6.6875 C 1.488281 -7.332031 2.15625 -7.65625 3.0625 -7.65625 C 3.957031 -7.65625 4.613281 -7.328125 5.03125 -6.671875 C 5.457031 -6.023438 5.671875 -5.0625 5.671875 -3.78125 Z M 4.6875 -3.78125 C 4.6875 -4.863281 4.5625 -5.648438 4.3125 -6.140625 C 4.0625 -6.628906 3.644531 -6.875 3.0625 -6.875 C 2.476562 -6.875 2.054688 -6.632812 1.796875 -6.15625 C 1.535156 -5.675781 1.40625 -4.882812 1.40625 -3.78125 C 1.40625 -2.707031 1.535156 -1.921875 1.796875 -1.421875 C 2.054688 -0.929688 2.472656 -0.6875 3.046875 -0.6875 C 3.617188 -0.6875 4.035156 -0.9375 4.296875 -1.4375 C 4.554688 -1.945312 4.6875 -2.726562 4.6875 -3.78125 Z M 4.6875 -3.78125 "/></g></g><g transform="translate(25.653798, 81.92558)"><g><path d="M 5.671875 -3.78125 C 5.671875 -2.519531 5.445312 -1.554688 5 -0.890625 C 4.5625 -0.222656 3.90625 0.109375 3.03125 0.109375 C 2.164062 0.109375 1.515625 -0.21875 1.078125 -0.875 C 0.640625 -1.539062 0.421875 -2.507812 0.421875 -3.78125 C 0.421875 -5.070312 0.632812 -6.039062 1.0625 -6.6875 C 1.488281 -7.332031 2.15625 -7.65625 3.0625 -7.65625 C 3.957031 -7.65625 4.613281 -7.328125 5.03125 -6.671875 C 5.457031 -6.023438 5.671875 -5.0625 5.671875 -3.78125 Z M 4.6875 -3.78125 C 4.6875 -4.863281 4.5625 -5.648438 4.3125 -6.140625 C 4.0625 -6.628906 3.644531 -6.875 3.0625 -6.875 C 2.476562 -6.875 2.054688 -6.632812 1.796875 -6.15625 C 1.535156 -5.675781 1.40625 -4.882812 1.40625 -3.78125 C 1.40625 -2.707031 1.535156 -1.921875 1.796875 -1.421875 C 2.054688 -0.929688 2.472656 -0.6875 3.046875 -0.6875 C 3.617188 -0.6875 4.035156 -0.9375 4.296875 -1.4375 C 4.554688 -1.945312 4.6875 -2.726562 4.6875 -3.78125 Z M 4.6875 -3.78125 "/></g></g></g><g fill="#000000" fill-opacity="1"><g transform="translate(7.349274, 45.419728)"><g><path d="M 5.625 -2.109375 C 5.625 -1.410156 5.398438 -0.863281 4.953125 -0.46875 C 4.515625 -0.0820312 3.878906 0.109375 3.046875 0.109375 C 2.242188 0.109375 1.613281 -0.078125 1.15625 -0.453125 C 0.707031 -0.835938 0.484375 -1.382812 0.484375 -2.09375 C 0.484375 -2.582031 0.625 -2.992188 0.90625 -3.328125 C 1.1875 -3.671875 1.546875 -3.878906 1.984375 -3.953125 L 1.984375 -3.96875 C 1.566406 -4.0625 1.238281 -4.269531 1 -4.59375 C 0.769531 -4.914062 0.65625 -5.289062 0.65625 -5.71875 C 0.65625 -6.300781 0.867188 -6.769531 1.296875 -7.125 C 1.722656 -7.476562 2.300781 -7.65625 3.03125 -7.65625 C 3.769531 -7.65625 4.351562 -7.476562 4.78125 -7.125 C 5.21875 -6.78125 5.4375 -6.3125 5.4375 -5.71875 C 5.4375 -5.28125 5.316406 -4.898438 5.078125 -4.578125 C 4.835938 -4.265625 4.507812 -4.066406 4.09375 -3.984375 L 4.09375 -3.953125 C 4.570312 -3.878906 4.945312 -3.675781 5.21875 -3.34375 C 5.488281 -3.007812 5.625 -2.597656 5.625 -2.109375 Z M 4.4375 -5.65625 C 4.4375 -6.507812 3.96875 -6.9375 3.03125 -6.9375 C 2.570312 -6.9375 2.222656 -6.828125 1.984375 -6.609375 C 1.753906 -6.398438 1.640625 -6.082031 1.640625 -5.65625 C 1.640625 -5.226562 1.757812 -4.898438 2 -4.671875 C 2.25 -4.441406 2.597656 -4.328125 3.046875 -4.328125 C 3.492188 -4.328125 3.835938 -4.429688 4.078125 -4.640625 C 4.316406 -4.847656 4.4375 -5.1875 4.4375 -5.65625 Z M 4.625 -2.203125 C 4.625 -2.660156 4.484375 -3.007812 4.203125 -3.25 C 3.921875 -3.488281 3.53125 -3.609375 3.03125 -3.609375 C 2.539062 -3.609375 2.15625 -3.476562 1.875 -3.21875 C 1.601562 -2.96875 1.46875 -2.617188 1.46875 -2.171875 C 1.46875 -1.128906 2 -0.609375 3.0625 -0.609375 C 3.582031 -0.609375 3.972656 -0.734375 4.234375 -0.984375 C 4.492188 -1.242188 4.625 -1.648438 4.625 -2.203125 Z M 4.625 -2.203125 "/></g></g><g transform="translate(13.450782, 45.419728)"><g><path d="M 5.671875 -3.78125 C 5.671875 -2.519531 5.445312 -1.554688 5 -0.890625 C 4.5625 -0.222656 3.90625 0.109375 3.03125 0.109375 C 2.164062 0.109375 1.515625 -0.21875 1.078125 -0.875 C 0.640625 -1.539062 0.421875 -2.507812 0.421875 -3.78125 C 0.421875 -5.070312 0.632812 -6.039062 1.0625 -6.6875 C 1.488281 -7.332031 2.15625 -7.65625 3.0625 -7.65625 C 3.957031 -7.65625 4.613281 -7.328125 5.03125 -6.671875 C 5.457031 -6.023438 5.671875 -5.0625 5.671875 -3.78125 Z M 4.6875 -3.78125 C 4.6875 -4.863281 4.5625 -5.648438 4.3125 -6.140625 C 4.0625 -6.628906 3.644531 -6.875 3.0625 -6.875 C 2.476562 -6.875 2.054688 -6.632812 1.796875 -6.15625 C 1.535156 -5.675781 1.40625 -4.882812 1.40625 -3.78125 C 1.40625 -2.707031 1.535156 -1.921875 1.796875 -1.421875 C 2.054688 -0.929688 2.472656 -0.6875 3.046875 -0.6875 C 3.617188 -0.6875 4.035156 -0.9375 4.296875 -1.4375 C 4.554688 -1.945312 4.6875 -2.726562 4.6875 -3.78125 Z M 4.6875 -3.78125 "/></g></g><g transform="translate(19.55229, 45.419728)"><g><path d="M 5.671875 -3.78125 C 5.671875 -2.519531 5.445312 -1.554688 5 -0.890625 C 4.5625 -0.222656 3.90625 0.109375 3.03125 0.109375 C 2.164062 0.109375 1.515625 -0.21875 1.078125 -0.875 C 0.640625 -1.539062 0.421875 -2.507812 0.421875 -3.78125 C 0.421875 -5.070312 0.632812 -6.039062 1.0625 -6.6875 C 1.488281 -7.332031 2.15625 -7.65625 3.0625 -7.65625 C 3.957031 -7.65625 4.613281 -7.328125 5.03125 -6.671875 C 5.457031 -6.023438 5.671875 -5.0625 5.671875 -3.78125 Z M 4.6875 -3.78125 C 4.6875 -4.863281 4.5625 -5.648438 4.3125 -6.140625 C 4.0625 -6.628906 3.644531 -6.875 3.0625 -6.875 C 2.476562 -6.875 2.054688 -6.632812 1.796875 -6.15625 C 1.535156 -5.675781 1.40625 -4.882812 1.40625 -3.78125 C 1.40625 -2.707031 1.535156 -1.921875 1.796875 -1.421875 C 2.054688 -0.929688 2.472656 -0.6875 3.046875 -0.6875 C 3.617188 -0.6875 4.035156 -0.9375 4.296875 -1.4375 C 4.554688 -1.945312 4.6875 -2.726562 4.6875 -3.78125 Z M 4.6875 -3.78125 "/></g></g><g transform="translate(25.653798, 45.419728)"><g><path d="M 5.671875 -3.78125 C 5.671875 -2.519531 5.445312 -1.554688 5 -0.890625 C 4.5625 -0.222656 3.90625 0.109375 3.03125 0.109375 C 2.164062 0.109375 1.515625 -0.21875 1.078125 -0.875 C 0.640625 -1.539062 0.421875 -2.507812 0.421875 -3.78125 C 0.421875 -5.070312 0.632812 -6.039062 1.0625 -6.6875 C 1.488281 -7.332031 2.15625 -7.65625 3.0625 -7.65625 C 3.957031 -7.65625 4.613281 -7.328125 5.03125 -6.671875 C 5.457031 -6.023438 5.671875 -5.0625 5.671875 -3.78125 Z M 4.6875 -3.78125 C 4.6875 -4.863281 4.5625 -5.648438 4.3125 -6.140625 C 4.0625 -6.628906 3.644531 -6.875 3.0625 -6.875 C 2.476562 -6.875 2.054688 -6.632812 1.796875 -6.15625 C 1.535156 -5.675781 1.40625 -4.882812 1.40625 -3.78125 C 1.40625 -2.707031 1.535156 -1.921875 1.796875 -1.421875 C 2.054688 -0.929688 2.472656 -0.6875 3.046875 -0.6875 C 3.617188 -0.6875 4.035156 -0.9375 4.296875 -1.4375 C 4.554688 -1.945312 4.6875 -2.726562 4.6875 -3.78125 Z M 4.6875 -3.78125 "/></g></g></g><g fill="#000000" fill-opacity="1"><g transform="translate(0.867426, 8.913879)"><g><path d="M 0.828125 0 L 0.828125 -0.8125 L 2.765625 -0.8125 L 2.765625 -6.625 L 1.0625 -5.40625 L 1.0625 -6.3125 L 2.84375 -7.546875 L 3.734375 -7.546875 L 3.734375 -0.8125 L 5.5625 -0.8125 L 5.5625 0 Z M 0.828125 0 "/></g></g><g transform="translate(6.968934, 8.913879)"><g><path d="M 5.671875 -3.78125 C 5.671875 -2.519531 5.445312 -1.554688 5 -0.890625 C 4.5625 -0.222656 3.90625 0.109375 3.03125 0.109375 C 2.164062 0.109375 1.515625 -0.21875 1.078125 -0.875 C 0.640625 -1.539062 0.421875 -2.507812 0.421875 -3.78125 C 0.421875 -5.070312 0.632812 -6.039062 1.0625 -6.6875 C 1.488281 -7.332031 2.15625 -7.65625 3.0625 -7.65625 C 3.957031 -7.65625 4.613281 -7.328125 5.03125 -6.671875 C 5.457031 -6.023438 5.671875 -5.0625 5.671875 -3.78125 Z M 4.6875 -3.78125 C 4.6875 -4.863281 4.5625 -5.648438 4.3125 -6.140625 C 4.0625 -6.628906 3.644531 -6.875 3.0625 -6.875 C 2.476562 -6.875 2.054688 -6.632812 1.796875 -6.15625 C 1.535156 -5.675781 1.40625 -4.882812 1.40625 -3.78125 C 1.40625 -2.707031 1.535156 -1.921875 1.796875 -1.421875 C 2.054688 -0.929688 2.472656 -0.6875 3.046875 -0.6875 C 3.617188 -0.6875 4.035156 -0.9375 4.296875 -1.4375 C 4.554688 -1.945312 4.6875 -2.726562 4.6875 -3.78125 Z M 4.6875 -3.78125 "/></g></g><g transform="translate(13.070442, 8.913879)"><g><path d="M 5.671875 -3.78125 C 5.671875 -2.519531 5.445312 -1.554688 5 -0.890625 C 4.5625 -0.222656 3.90625 0.109375 3.03125 0.109375 C 2.164062 0.109375 1.515625 -0.21875 1.078125 -0.875 C 0.640625 -1.539062 0.421875 -2.507812 0.421875 -3.78125 C 0.421875 -5.070312 0.632812 -6.039062 1.0625 -6.6875 C 1.488281 -7.332031 2.15625 -7.65625 3.0625 -7.65625 C 3.957031 -7.65625 4.613281 -7.328125 5.03125 -6.671875 C 5.457031 -6.023438 5.671875 -5.0625 5.671875 -3.78125 Z M 4.6875 -3.78125 C 4.6875 -4.863281 4.5625 -5.648438 4.3125 -6.140625 C 4.0625 -6.628906 3.644531 -6.875 3.0625 -6.875 C 2.476562 -6.875 2.054688 -6.632812 1.796875 -6.15625 C 1.535156 -5.675781 1.40625 -4.882812 1.40625 -3.78125 C 1.40625 -2.707031 1.535156 -1.921875 1.796875 -1.421875 C 2.054688 -0.929688 2.472656 -0.6875 3.046875 -0.6875 C 3.617188 -0.6875 4.035156 -0.9375 4.296875 -1.4375 C 4.554688 -1.945312 4.6875 -2.726562 4.6875 -3.78125 Z M 4.6875 -3.78125 "/></g></g><g transform="translate(19.171949, 8.913879)"><g><path d="M 5.671875 -3.78125 C 5.671875 -2.519531 5.445312 -1.554688 5 -0.890625 C 4.5625 -0.222656 3.90625 0.109375 3.03125 0.109375 C 2.164062 0.109375 1.515625 -0.21875 1.078125 -0.875 C 0.640625 -1.539062 0.421875 -2.507812 0.421875 -3.78125 C 0.421875 -5.070312 0.632812 -6.039062 1.0625 -6.6875 C 1.488281 -7.332031 2.15625 -7.65625 3.0625 -7.65625 C 3.957031 -7.65625 4.613281 -7.328125 5.03125 -6.671875 C 5.457031 -6.023438 5.671875 -5.0625 5.671875 -3.78125 Z M 4.6875 -3.78125 C 4.6875 -4.863281 4.5625 -5.648438 4.3125 -6.140625 C 4.0625 -6.628906 3.644531 -6.875 3.0625 -6.875 C 2.476562 -6.875 2.054688 -6.632812 1.796875 -6.15625 C 1.535156 -5.675781 1.40625 -4.882812 1.40625 -3.78125 C 1.40625 -2.707031 1.535156 -1.921875 1.796875 -1.421875 C 2.054688 -0.929688 2.472656 -0.6875 3.046875 -0.6875 C 3.617188 -0.6875 4.035156 -0.9375 4.296875 -1.4375 C 4.554688 -1.945312 4.6875 -2.726562 4.6875 -3.78125 Z M 4.6875 -3.78125 "/></g></g><g transform="translate(25.273457, 8.913879)"><g><path d="M 5.671875 -3.78125 C 5.671875 -2.519531 5.445312 -1.554688 5 -0.890625 C 4.5625 -0.222656 3.90625 0.109375 3.03125 0.109375 C 2.164062 0.109375 1.515625 -0.21875 1.078125 -0.875 C 0.640625 -1.539062 0.421875 -2.507812 0.421875 -3.78125 C 0.421875 -5.070312 0.632812 -6.039062 1.0625 -6.6875 C 1.488281 -7.332031 2.15625 -7.65625 3.0625 -7.65625 C 3.957031 -7.65625 4.613281 -7.328125 5.03125 -6.671875 C 5.457031 -6.023438 5.671875 -5.0625 5.671875 -3.78125 Z M 4.6875 -3.78125 C 4.6875 -4.863281 4.5625 -5.648438 4.3125 -6.140625 C 4.0625 -6.628906 3.644531 -6.875 3.0625 -6.875 C 2.476562 -6.875 2.054688 -6.632812 1.796875 -6.15625 C 1.535156 -5.675781 1.40625 -4.882812 1.40625 -3.78125 C 1.40625 -2.707031 1.535156 -1.921875 1.796875 -1.421875 C 2.054688 -0.929688 2.472656 -0.6875 3.046875 -0.6875 C 3.617188 -0.6875 4.035156 -0.9375 4.296875 -1.4375 C 4.554688 -1.945312 4.6875 -2.726562 4.6875 -3.78125 Z M 4.6875 -3.78125 "/></g></g></g><g clip-path="url(#8a6e9695d6)"><path stroke-linecap="butt" transform="matrix(0.685683, 0, 0, 0.685683, 40.428123, 4.799781)" fill="none" stroke-linejoin="miter" d="M 0.00228107 266.199292 L 813.36208 266.199292 " stroke="#000000" stroke-width="1" stroke-opacity="0.6" stroke-miterlimit="4"/></g><g clip-path="url(#708f4ebaef)"><path stroke-linecap="butt" transform="matrix(0.685683, 0, 0, 0.685683, 40.428123, 4.799781)" fill="none" stroke-linejoin="miter" d="M 0.00228107 212.962004 L 813.36208 212.962004 " stroke="#000000" stroke-width="1" stroke-opacity="0.251" stroke-miterlimit="4"/></g><g clip-path="url(#82d12bf063)"><path stroke-linecap="butt" transform="matrix(0.685683, 0, 0, 0.685683, 40.428123, 4.799781)" fill="none" stroke-linejoin="miter" d="M 0.00228107 159.719019 L 813.36208 159.719019 " stroke="#000000" stroke-width="1" stroke-opacity="0.251" stroke-miterlimit="4"/></g><g clip-path="url(#2487731ba8)"><path stroke-linecap="butt" transform="matrix(0.685683, 0, 0, 0.685683, 40.428123, 4.799781)" fill="none" stroke-linejoin="miter" d="M 0.00228107 106.481731 L 813.36208 106.481731 " stroke="#000000" stroke-width="1" stroke-opacity="0.251" stroke-miterlimit="4"/></g><g clip-path="url(#80bd54ce9e)"><path stroke-linecap="butt" transform="matrix(0.685683, 0, 0, 0.685683, 40.428123, 4.799781)" fill="none" stroke-linejoin="miter" d="M 0.00228107 53.238746 L 813.36208 53.238746 " stroke="#000000" stroke-width="1" stroke-opacity="0.251" stroke-miterlimit="4"/></g><g clip-path="url(#7b764c009e)"><path stroke-linecap="butt" transform="matrix(0.685683, 0, 0, 0.685683, 40.428123, 4.799781)" fill="none" stroke-linejoin="miter" d="M 0.00228107 0.00145824 L 813.36208 0.00145824 " stroke="#000000" stroke-width="1" stroke-opacity="0.251" stroke-miterlimit="4"/></g></svg>