<svg xmlns="http://www.w3.org/2000/svg" xmlns:xlink="http://www.w3.org/1999/xlink" width="1920" zoomAndPan="magnify" viewBox="0 0 1440 809.999993" height="1080" preserveAspectRatio="xMidYMid meet" version="1.0"><defs><g/><clipPath id="9afbfce77d"><path d="M 339.515625 115.4375 L 374.167969 115.4375 L 374.167969 703.871094 L 339.515625 703.871094 Z M 339.515625 115.4375 " clip-rule="nonzero"/></clipPath><clipPath id="69f9d7c8b9"><path d="M 375.992188 115.4375 L 410.644531 115.4375 L 410.644531 703.871094 L 375.992188 703.871094 Z M 375.992188 115.4375 " clip-rule="nonzero"/></clipPath><clipPath id="81c3fd6c2e"><path d="M 416.414062 193.894531 L 451.066406 193.894531 L 451.066406 703.871094 L 416.414062 703.871094 Z M 416.414062 193.894531 " clip-rule="nonzero"/></clipPath><clipPath id="3a4b80d40b"><path d="M 452.890625 311.582031 L 487.542969 311.582031 L 487.542969 703.871094 L 452.890625 703.871094 Z M 452.890625 311.582031 " clip-rule="nonzero"/></clipPath><clipPath id="4a2b30f540"><path d="M 493.308594 311.582031 L 527.960938 311.582031 L 527.960938 703.871094 L 493.308594 703.871094 Z M 493.308594 311.582031 " clip-rule="nonzero"/></clipPath><clipPath id="e344c158c9"><path d="M 529.785156 311.582031 L 564.4375 311.582031 L 564.4375 703.871094 L 529.785156 703.871094 Z M 529.785156 311.582031 " clip-rule="nonzero"/></clipPath><clipPath id="b175bbcf20"><path d="M 570.207031 429.269531 L 604.859375 429.269531 L 604.859375 703.871094 L 570.207031 703.871094 Z M 570.207031 429.269531 " clip-rule="nonzero"/></clipPath><clipPath id="f5cb335c26"><path d="M 606.683594 429.269531 L 641.335938 429.269531 L 641.335938 703.871094 L 606.683594 703.871094 Z M 606.683594 429.269531 " clip-rule="nonzero"/></clipPath><clipPath id="f43e6b0e9f"><path d="M 647.101562 546.957031 L 681.753906 546.957031 L 681.753906 703.871094 L 647.101562 703.871094 Z M 647.101562 546.957031 " clip-rule="nonzero"/></clipPath><clipPath id="466d2f9797"><path d="M 683.578125 429.269531 L 718.230469 429.269531 L 718.230469 703.871094 L 683.578125 703.871094 Z M 683.578125 429.269531 " clip-rule="nonzero"/></clipPath><clipPath id="0346979e10"><path d="M 724 390.039062 L 758.652344 390.039062 L 758.652344 703.871094 L 724 703.871094 Z M 724 390.039062 " clip-rule="nonzero"/></clipPath><clipPath id="d916b87132"><path d="M 760.476562 429.269531 L 795.128906 429.269531 L 795.128906 703.871094 L 760.476562 703.871094 Z M 760.476562 429.269531 " clip-rule="nonzero"/></clipPath><clipPath id="81c913389e"><path d="M 800.894531 390.039062 L 835.550781 390.039062 L 835.550781 703.871094 L 800.894531 703.871094 Z M 800.894531 390.039062 " clip-rule="nonzero"/></clipPath><clipPath id="8396cc1fa3"><path d="M 837.371094 390.039062 L 872.027344 390.039062 L 872.027344 703.871094 L 837.371094 703.871094 Z M 837.371094 390.039062 " clip-rule="nonzero"/></clipPath><clipPath id="fc54c53b76"><path d="M 877.792969 390.039062 L 912.445312 390.039062 L 912.445312 703.871094 L 877.792969 703.871094 Z M 877.792969 390.039062 " clip-rule="nonzero"/></clipPath><clipPath id="90e362a9bd"><path d="M 914.269531 390.039062 L 948.921875 390.039062 L 948.921875 703.871094 L 914.269531 703.871094 Z M 914.269531 390.039062 " clip-rule="nonzero"/></clipPath><clipPath id="779f1acd06"><path d="M 954.691406 390.039062 L 989.34375 390.039062 L 989.34375 703.871094 L 954.691406 703.871094 Z M 954.691406 390.039062 " clip-rule="nonzero"/></clipPath><clipPath id="afb8922845"><path d="M 991.167969 350.8125 L 1025.820312 350.8125 L 1025.820312 703.871094 L 991.167969 703.871094 Z M 991.167969 350.8125 " clip-rule="nonzero"/></clipPath><clipPath id="19deefd871"><path d="M 1031.585938 390.039062 L 1066.238281 390.039062 L 1066.238281 703.871094 L 1031.585938 703.871094 Z M 1031.585938 390.039062 " clip-rule="nonzero"/></clipPath><clipPath id="78ea15b032"><path d="M 1068.0625 429.269531 L 1102.714844 429.269531 L 1102.714844 703.871094 L 1068.0625 703.871094 Z M 1068.0625 429.269531 " clip-rule="nonzero"/></clipPath><clipPath id="d6a721568a"><path d="M 1108.484375 390.039062 L 1143.136719 390.039062 L 1143.136719 703.871094 L 1108.484375 703.871094 Z M 1108.484375 390.039062 " clip-rule="nonzero"/></clipPath><clipPath id="2c461eb33b"><path d="M 1144.960938 390.039062 L 1179.613281 390.039062 L 1179.613281 703.871094 L 1144.960938 703.871094 Z M 1144.960938 390.039062 " clip-rule="nonzero"/></clipPath></defs><g fill="#000000" fill-opacity="1"><g transform="translate(350.777008, 745.062511)"><g><path d="M 7 0.3125 C 3.34375 0.3125 1.171875 -1.578125 0.484375 -5.359375 L 3.359375 -5.84375 C 3.535156 -4.65625 3.945312 -3.726562 4.59375 -3.0625 C 5.238281 -2.394531 6.046875 -2.0625 7.015625 -2.0625 C 8.078125 -2.0625 8.914062 -2.425781 9.53125 -3.15625 C 10.144531 -3.894531 10.453125 -4.96875 10.453125 -6.375 L 10.453125 -19.203125 L 6.296875 -19.203125 L 6.296875 -21.59375 L 13.359375 -21.59375 L 13.359375 -6.4375 C 13.359375 -4.34375 12.789062 -2.691406 11.65625 -1.484375 C 10.53125 -0.285156 8.976562 0.3125 7 0.3125 Z M 7 0.3125 "/></g></g><g transform="translate(366.468572, 745.062511)"><g><path d="M 6.34375 0.3125 C 4.675781 0.3125 3.421875 -0.125 2.578125 -1 C 1.742188 -1.882812 1.328125 -3.09375 1.328125 -4.625 C 1.328125 -6.34375 1.890625 -7.660156 3.015625 -8.578125 C 4.148438 -9.503906 5.972656 -10 8.484375 -10.0625 L 12.21875 -10.109375 L 12.21875 -11.015625 C 12.21875 -12.367188 11.929688 -13.335938 11.359375 -13.921875 C 10.785156 -14.503906 9.882812 -14.796875 8.65625 -14.796875 C 7.425781 -14.796875 6.53125 -14.582031 5.96875 -14.15625 C 5.40625 -13.738281 5.066406 -13.070312 4.953125 -12.15625 L 2.0625 -12.421875 C 2.539062 -15.398438 4.757812 -16.890625 8.71875 -16.890625 C 10.800781 -16.890625 12.367188 -16.410156 13.421875 -15.453125 C 14.472656 -14.503906 15 -13.125 15 -11.3125 L 15 -4.171875 C 15 -3.347656 15.109375 -2.726562 15.328125 -2.3125 C 15.546875 -1.90625 15.953125 -1.703125 16.546875 -1.703125 C 16.816406 -1.703125 17.117188 -1.738281 17.453125 -1.8125 L 17.453125 -0.09375 C 16.765625 0.0703125 16.054688 0.15625 15.328125 0.15625 C 14.304688 0.15625 13.5625 -0.109375 13.09375 -0.640625 C 12.632812 -1.179688 12.375 -2.023438 12.3125 -3.171875 L 12.21875 -3.171875 C 11.507812 -1.898438 10.6875 -1 9.75 -0.46875 C 8.820312 0.0507812 7.6875 0.3125 6.34375 0.3125 Z M 6.96875 -1.765625 C 7.976562 -1.765625 8.878906 -1.992188 9.671875 -2.453125 C 10.460938 -2.910156 11.082031 -3.539062 11.53125 -4.34375 C 11.988281 -5.144531 12.21875 -5.972656 12.21875 -6.828125 L 12.21875 -8.1875 L 9.203125 -8.125 C 7.898438 -8.101562 6.910156 -7.96875 6.234375 -7.71875 C 5.566406 -7.476562 5.054688 -7.101562 4.703125 -6.59375 C 4.347656 -6.082031 4.171875 -5.410156 4.171875 -4.578125 C 4.171875 -3.679688 4.410156 -2.988281 4.890625 -2.5 C 5.378906 -2.007812 6.070312 -1.765625 6.96875 -1.765625 Z M 6.96875 -1.765625 "/></g></g><g transform="translate(383.922373, 745.062511)"><g><path d="M 12.640625 0 L 12.640625 -10.515625 C 12.640625 -11.609375 12.53125 -12.457031 12.3125 -13.0625 C 12.101562 -13.664062 11.765625 -14.097656 11.296875 -14.359375 C 10.828125 -14.628906 10.140625 -14.765625 9.234375 -14.765625 C 7.898438 -14.765625 6.847656 -14.304688 6.078125 -13.390625 C 5.316406 -12.484375 4.9375 -11.222656 4.9375 -9.609375 L 4.9375 0 L 2.171875 0 L 2.171875 -13.046875 C 2.171875 -14.972656 2.140625 -16.148438 2.078125 -16.578125 L 4.6875 -16.578125 C 4.695312 -16.523438 4.707031 -16.382812 4.71875 -16.15625 C 4.726562 -15.9375 4.738281 -15.679688 4.75 -15.390625 C 4.769531 -15.097656 4.789062 -14.550781 4.8125 -13.75 L 4.859375 -13.75 C 5.492188 -14.894531 6.226562 -15.703125 7.0625 -16.171875 C 7.894531 -16.648438 8.925781 -16.890625 10.15625 -16.890625 C 11.976562 -16.890625 13.3125 -16.4375 14.15625 -15.53125 C 15 -14.625 15.421875 -13.128906 15.421875 -11.046875 L 15.421875 0 Z M 12.640625 0 "/></g></g></g><g fill="#000000" fill-opacity="1"><g transform="translate(424.854191, 745.062511)"><g><path d="M 5.5 -19.203125 L 5.5 -11.171875 L 17.546875 -11.171875 L 17.546875 -8.75 L 5.5 -8.75 L 5.5 0 L 2.578125 0 L 2.578125 -21.59375 L 17.921875 -21.59375 L 17.921875 -19.203125 Z M 5.5 -19.203125 "/></g></g><g transform="translate(444.024257, 745.062511)"><g><path d="M 4.234375 -7.703125 C 4.234375 -5.804688 4.625 -4.34375 5.40625 -3.3125 C 6.195312 -2.28125 7.347656 -1.765625 8.859375 -1.765625 C 10.054688 -1.765625 11.015625 -2.003906 11.734375 -2.484375 C 12.453125 -2.960938 12.941406 -3.570312 13.203125 -4.3125 L 15.625 -3.625 C 14.625 -1 12.367188 0.3125 8.859375 0.3125 C 6.410156 0.3125 4.539062 -0.414062 3.25 -1.875 C 1.96875 -3.34375 1.328125 -5.519531 1.328125 -8.40625 C 1.328125 -11.132812 1.96875 -13.226562 3.25 -14.6875 C 4.539062 -16.15625 6.375 -16.890625 8.75 -16.890625 C 13.625 -16.890625 16.0625 -13.953125 16.0625 -8.078125 L 16.0625 -7.703125 Z M 13.21875 -9.828125 C 13.0625 -11.578125 12.613281 -12.851562 11.875 -13.65625 C 11.144531 -14.457031 10.085938 -14.859375 8.703125 -14.859375 C 7.367188 -14.859375 6.3125 -14.410156 5.53125 -13.515625 C 4.75 -12.617188 4.328125 -11.390625 4.265625 -9.828125 Z M 13.21875 -9.828125 "/></g></g><g transform="translate(461.478058, 745.062511)"><g><path d="M 9.390625 0 L 6.125 0 L 0.109375 -16.578125 L 3.046875 -16.578125 L 6.703125 -5.796875 C 6.828125 -5.390625 7.175781 -4.175781 7.75 -2.15625 L 8.296875 -3.953125 L 8.890625 -5.765625 L 12.65625 -16.578125 L 15.59375 -16.578125 Z M 9.390625 0 "/></g></g></g><g fill="#000000" fill-opacity="1"><g transform="translate(499.881416, 745.062511)"><g><path d="M 20.9375 0 L 20.9375 -14.40625 C 20.9375 -16 20.984375 -17.53125 21.078125 -19 C 20.578125 -17.175781 20.125 -15.75 19.71875 -14.71875 L 14.140625 0 L 12.09375 0 L 6.4375 -14.71875 L 5.578125 -17.3125 L 5.078125 -19 L 5.125 -17.3125 L 5.1875 -14.40625 L 5.1875 0 L 2.578125 0 L 2.578125 -21.59375 L 6.421875 -21.59375 L 12.171875 -6.625 C 12.367188 -6.019531 12.5625 -5.367188 12.75 -4.671875 C 12.945312 -3.984375 13.078125 -3.488281 13.140625 -3.1875 C 13.222656 -3.59375 13.394531 -4.210938 13.65625 -5.046875 C 13.914062 -5.878906 14.085938 -6.40625 14.171875 -6.625 L 19.8125 -21.59375 L 23.578125 -21.59375 L 23.578125 0 Z M 20.9375 0 "/></g></g><g transform="translate(526.023808, 745.062511)"><g><path d="M 6.34375 0.3125 C 4.675781 0.3125 3.421875 -0.125 2.578125 -1 C 1.742188 -1.882812 1.328125 -3.09375 1.328125 -4.625 C 1.328125 -6.34375 1.890625 -7.660156 3.015625 -8.578125 C 4.148438 -9.503906 5.972656 -10 8.484375 -10.0625 L 12.21875 -10.109375 L 12.21875 -11.015625 C 12.21875 -12.367188 11.929688 -13.335938 11.359375 -13.921875 C 10.785156 -14.503906 9.882812 -14.796875 8.65625 -14.796875 C 7.425781 -14.796875 6.53125 -14.582031 5.96875 -14.15625 C 5.40625 -13.738281 5.066406 -13.070312 4.953125 -12.15625 L 2.0625 -12.421875 C 2.539062 -15.398438 4.757812 -16.890625 8.71875 -16.890625 C 10.800781 -16.890625 12.367188 -16.410156 13.421875 -15.453125 C 14.472656 -14.503906 15 -13.125 15 -11.3125 L 15 -4.171875 C 15 -3.347656 15.109375 -2.726562 15.328125 -2.3125 C 15.546875 -1.90625 15.953125 -1.703125 16.546875 -1.703125 C 16.816406 -1.703125 17.117188 -1.738281 17.453125 -1.8125 L 17.453125 -0.09375 C 16.765625 0.0703125 16.054688 0.15625 15.328125 0.15625 C 14.304688 0.15625 13.5625 -0.109375 13.09375 -0.640625 C 12.632812 -1.179688 12.375 -2.023438 12.3125 -3.171875 L 12.21875 -3.171875 C 11.507812 -1.898438 10.6875 -1 9.75 -0.46875 C 8.820312 0.0507812 7.6875 0.3125 6.34375 0.3125 Z M 6.96875 -1.765625 C 7.976562 -1.765625 8.878906 -1.992188 9.671875 -2.453125 C 10.460938 -2.910156 11.082031 -3.539062 11.53125 -4.34375 C 11.988281 -5.144531 12.21875 -5.972656 12.21875 -6.828125 L 12.21875 -8.1875 L 9.203125 -8.125 C 7.898438 -8.101562 6.910156 -7.96875 6.234375 -7.71875 C 5.566406 -7.476562 5.054688 -7.101562 4.703125 -6.59375 C 4.347656 -6.082031 4.171875 -5.410156 4.171875 -4.578125 C 4.171875 -3.679688 4.410156 -2.988281 4.890625 -2.5 C 5.378906 -2.007812 6.070312 -1.765625 6.96875 -1.765625 Z M 6.96875 -1.765625 "/></g></g><g transform="translate(543.477609, 745.062511)"><g><path d="M 2.171875 0 L 2.171875 -12.71875 C 2.171875 -13.882812 2.140625 -15.171875 2.078125 -16.578125 L 4.6875 -16.578125 C 4.769531 -14.703125 4.8125 -13.578125 4.8125 -13.203125 L 4.875 -13.203125 C 5.3125 -14.617188 5.816406 -15.585938 6.390625 -16.109375 C 6.960938 -16.628906 7.769531 -16.890625 8.8125 -16.890625 C 9.175781 -16.890625 9.550781 -16.835938 9.9375 -16.734375 L 9.9375 -14.203125 C 9.5625 -14.304688 9.066406 -14.359375 8.453125 -14.359375 C 7.316406 -14.359375 6.445312 -13.863281 5.84375 -12.875 C 5.238281 -11.894531 4.9375 -10.484375 4.9375 -8.640625 L 4.9375 0 Z M 2.171875 0 "/></g></g></g><g fill="#000000" fill-opacity="1"><g transform="translate(580.364009, 745.062511)"><g><path d="M 17.890625 0 L 15.421875 -6.3125 L 5.578125 -6.3125 L 3.09375 0 L 0.0625 0 L 8.875 -21.59375 L 12.203125 -21.59375 L 20.875 0 Z M 10.5 -19.390625 L 10.359375 -18.953125 C 10.109375 -18.109375 9.734375 -17.023438 9.234375 -15.703125 L 6.46875 -8.59375 L 14.546875 -8.59375 L 11.765625 -15.71875 C 11.484375 -16.425781 11.195312 -17.222656 10.90625 -18.109375 Z M 10.5 -19.390625 "/></g></g><g transform="translate(601.296311, 745.062511)"><g><path d="M 16.140625 -8.375 C 16.140625 -2.582031 14.109375 0.3125 10.046875 0.3125 C 8.785156 0.3125 7.738281 0.0820312 6.90625 -0.375 C 6.070312 -0.832031 5.394531 -1.566406 4.875 -2.578125 L 4.84375 -2.578125 C 4.84375 -2.253906 4.820312 -1.769531 4.78125 -1.125 C 4.738281 -0.476562 4.707031 -0.101562 4.6875 0 L 2.015625 0 C 2.078125 -0.550781 2.109375 -1.691406 2.109375 -3.421875 L 2.109375 -22.75 L 4.875 -22.75 L 4.875 -16.265625 C 4.875 -15.597656 4.851562 -14.816406 4.8125 -13.921875 L 4.875 -13.921875 C 5.382812 -14.984375 6.0625 -15.742188 6.90625 -16.203125 C 7.75 -16.660156 8.796875 -16.890625 10.046875 -16.890625 C 12.140625 -16.890625 13.675781 -16.179688 14.65625 -14.765625 C 15.644531 -13.359375 16.140625 -11.226562 16.140625 -8.375 Z M 13.25 -8.28125 C 13.25 -10.59375 12.941406 -12.25 12.328125 -13.25 C 11.710938 -14.257812 10.710938 -14.765625 9.328125 -14.765625 C 7.773438 -14.765625 6.644531 -14.234375 5.9375 -13.171875 C 5.226562 -12.109375 4.875 -10.421875 4.875 -8.109375 C 4.875 -5.929688 5.21875 -4.320312 5.90625 -3.28125 C 6.601562 -2.25 7.734375 -1.734375 9.296875 -1.734375 C 10.691406 -1.734375 11.695312 -2.242188 12.3125 -3.265625 C 12.9375 -4.296875 13.25 -5.96875 13.25 -8.28125 Z M 13.25 -8.28125 "/></g></g><g transform="translate(618.750112, 745.062511)"><g><path d="M 2.171875 0 L 2.171875 -12.71875 C 2.171875 -13.882812 2.140625 -15.171875 2.078125 -16.578125 L 4.6875 -16.578125 C 4.769531 -14.703125 4.8125 -13.578125 4.8125 -13.203125 L 4.875 -13.203125 C 5.3125 -14.617188 5.816406 -15.585938 6.390625 -16.109375 C 6.960938 -16.628906 7.769531 -16.890625 8.8125 -16.890625 C 9.175781 -16.890625 9.550781 -16.835938 9.9375 -16.734375 L 9.9375 -14.203125 C 9.5625 -14.304688 9.066406 -14.359375 8.453125 -14.359375 C 7.316406 -14.359375 6.445312 -13.863281 5.84375 -12.875 C 5.238281 -11.894531 4.9375 -10.484375 4.9375 -8.640625 L 4.9375 0 Z M 2.171875 0 "/></g></g></g><g fill="#000000" fill-opacity="1"><g transform="translate(656.402616, 745.062511)"><g><path d="M 20.9375 0 L 20.9375 -14.40625 C 20.9375 -16 20.984375 -17.53125 21.078125 -19 C 20.578125 -17.175781 20.125 -15.75 19.71875 -14.71875 L 14.140625 0 L 12.09375 0 L 6.4375 -14.71875 L 5.578125 -17.3125 L 5.078125 -19 L 5.125 -17.3125 L 5.1875 -14.40625 L 5.1875 0 L 2.578125 0 L 2.578125 -21.59375 L 6.421875 -21.59375 L 12.171875 -6.625 C 12.367188 -6.019531 12.5625 -5.367188 12.75 -4.671875 C 12.945312 -3.984375 13.078125 -3.488281 13.140625 -3.1875 C 13.222656 -3.59375 13.394531 -4.210938 13.65625 -5.046875 C 13.914062 -5.878906 14.085938 -6.40625 14.171875 -6.625 L 19.8125 -21.59375 L 23.578125 -21.59375 L 23.578125 0 Z M 20.9375 0 "/></g></g><g transform="translate(682.545008, 745.062511)"><g><path d="M 6.34375 0.3125 C 4.675781 0.3125 3.421875 -0.125 2.578125 -1 C 1.742188 -1.882812 1.328125 -3.09375 1.328125 -4.625 C 1.328125 -6.34375 1.890625 -7.660156 3.015625 -8.578125 C 4.148438 -9.503906 5.972656 -10 8.484375 -10.0625 L 12.21875 -10.109375 L 12.21875 -11.015625 C 12.21875 -12.367188 11.929688 -13.335938 11.359375 -13.921875 C 10.785156 -14.503906 9.882812 -14.796875 8.65625 -14.796875 C 7.425781 -14.796875 6.53125 -14.582031 5.96875 -14.15625 C 5.40625 -13.738281 5.066406 -13.070312 4.953125 -12.15625 L 2.0625 -12.421875 C 2.539062 -15.398438 4.757812 -16.890625 8.71875 -16.890625 C 10.800781 -16.890625 12.367188 -16.410156 13.421875 -15.453125 C 14.472656 -14.503906 15 -13.125 15 -11.3125 L 15 -4.171875 C 15 -3.347656 15.109375 -2.726562 15.328125 -2.3125 C 15.546875 -1.90625 15.953125 -1.703125 16.546875 -1.703125 C 16.816406 -1.703125 17.117188 -1.738281 17.453125 -1.8125 L 17.453125 -0.09375 C 16.765625 0.0703125 16.054688 0.15625 15.328125 0.15625 C 14.304688 0.15625 13.5625 -0.109375 13.09375 -0.640625 C 12.632812 -1.179688 12.375 -2.023438 12.3125 -3.171875 L 12.21875 -3.171875 C 11.507812 -1.898438 10.6875 -1 9.75 -0.46875 C 8.820312 0.0507812 7.6875 0.3125 6.34375 0.3125 Z M 6.96875 -1.765625 C 7.976562 -1.765625 8.878906 -1.992188 9.671875 -2.453125 C 10.460938 -2.910156 11.082031 -3.539062 11.53125 -4.34375 C 11.988281 -5.144531 12.21875 -5.972656 12.21875 -6.828125 L 12.21875 -8.1875 L 9.203125 -8.125 C 7.898438 -8.101562 6.910156 -7.96875 6.234375 -7.71875 C 5.566406 -7.476562 5.054688 -7.101562 4.703125 -6.59375 C 4.347656 -6.082031 4.171875 -5.410156 4.171875 -4.578125 C 4.171875 -3.679688 4.410156 -2.988281 4.890625 -2.5 C 5.378906 -2.007812 6.070312 -1.765625 6.96875 -1.765625 Z M 6.96875 -1.765625 "/></g></g><g transform="translate(699.998809, 745.062511)"><g><path d="M 2.09375 -20.109375 L 2.09375 -22.75 L 4.859375 -22.75 L 4.859375 -20.109375 Z M 2.09375 0 L 2.09375 -16.578125 L 4.859375 -16.578125 L 4.859375 0 Z M 2.09375 0 "/></g></g></g><g fill="#000000" fill-opacity="1"><g transform="translate(735.260828, 745.062511)"><g><path d="M 7 0.3125 C 3.34375 0.3125 1.171875 -1.578125 0.484375 -5.359375 L 3.359375 -5.84375 C 3.535156 -4.65625 3.945312 -3.726562 4.59375 -3.0625 C 5.238281 -2.394531 6.046875 -2.0625 7.015625 -2.0625 C 8.078125 -2.0625 8.914062 -2.425781 9.53125 -3.15625 C 10.144531 -3.894531 10.453125 -4.96875 10.453125 -6.375 L 10.453125 -19.203125 L 6.296875 -19.203125 L 6.296875 -21.59375 L 13.359375 -21.59375 L 13.359375 -6.4375 C 13.359375 -4.34375 12.789062 -2.691406 11.65625 -1.484375 C 10.53125 -0.285156 8.976562 0.3125 7 0.3125 Z M 7 0.3125 "/></g></g><g transform="translate(750.952393, 745.062511)"><g><path d="M 4.8125 -16.578125 L 4.8125 -6.0625 C 4.8125 -4.96875 4.914062 -4.117188 5.125 -3.515625 C 5.34375 -2.921875 5.6875 -2.488281 6.15625 -2.21875 C 6.625 -1.957031 7.316406 -1.828125 8.234375 -1.828125 C 9.554688 -1.828125 10.597656 -2.28125 11.359375 -3.1875 C 12.128906 -4.09375 12.515625 -5.351562 12.515625 -6.96875 L 12.515625 -16.578125 L 15.28125 -16.578125 L 15.28125 -3.546875 C 15.28125 -1.609375 15.3125 -0.425781 15.375 0 L 12.765625 0 C 12.753906 -0.0507812 12.742188 -0.1875 12.734375 -0.40625 C 12.722656 -0.632812 12.707031 -0.894531 12.6875 -1.1875 C 12.675781 -1.476562 12.660156 -2.023438 12.640625 -2.828125 L 12.59375 -2.828125 C 11.96875 -1.691406 11.238281 -0.882812 10.40625 -0.40625 C 9.570312 0.0703125 8.535156 0.3125 7.296875 0.3125 C 5.472656 0.3125 4.140625 -0.140625 3.296875 -1.046875 C 2.453125 -1.953125 2.03125 -3.445312 2.03125 -5.53125 L 2.03125 -16.578125 Z M 4.8125 -16.578125 "/></g></g><g transform="translate(768.406194, 745.062511)"><g><path d="M 12.640625 0 L 12.640625 -10.515625 C 12.640625 -11.609375 12.53125 -12.457031 12.3125 -13.0625 C 12.101562 -13.664062 11.765625 -14.097656 11.296875 -14.359375 C 10.828125 -14.628906 10.140625 -14.765625 9.234375 -14.765625 C 7.898438 -14.765625 6.847656 -14.304688 6.078125 -13.390625 C 5.316406 -12.484375 4.9375 -11.222656 4.9375 -9.609375 L 4.9375 0 L 2.171875 0 L 2.171875 -13.046875 C 2.171875 -14.972656 2.140625 -16.148438 2.078125 -16.578125 L 4.6875 -16.578125 C 4.695312 -16.523438 4.707031 -16.382812 4.71875 -16.15625 C 4.726562 -15.9375 4.738281 -15.679688 4.75 -15.390625 C 4.769531 -15.097656 4.789062 -14.550781 4.8125 -13.75 L 4.859375 -13.75 C 5.492188 -14.894531 6.226562 -15.703125 7.0625 -16.171875 C 7.894531 -16.648438 8.925781 -16.890625 10.15625 -16.890625 C 11.976562 -16.890625 13.3125 -16.4375 14.15625 -15.53125 C 15 -14.625 15.421875 -13.128906 15.421875 -11.046875 L 15.421875 0 Z M 12.640625 0 "/></g></g></g><g fill="#000000" fill-opacity="1"><g transform="translate(817.398306, 745.062511)"><g><path d="M 7 0.3125 C 3.34375 0.3125 1.171875 -1.578125 0.484375 -5.359375 L 3.359375 -5.84375 C 3.535156 -4.65625 3.945312 -3.726562 4.59375 -3.0625 C 5.238281 -2.394531 6.046875 -2.0625 7.015625 -2.0625 C 8.078125 -2.0625 8.914062 -2.425781 9.53125 -3.15625 C 10.144531 -3.894531 10.453125 -4.96875 10.453125 -6.375 L 10.453125 -19.203125 L 6.296875 -19.203125 L 6.296875 -21.59375 L 13.359375 -21.59375 L 13.359375 -6.4375 C 13.359375 -4.34375 12.789062 -2.691406 11.65625 -1.484375 C 10.53125 -0.285156 8.976562 0.3125 7 0.3125 Z M 7 0.3125 "/></g></g><g transform="translate(833.089871, 745.062511)"><g><path d="M 4.8125 -16.578125 L 4.8125 -6.0625 C 4.8125 -4.96875 4.914062 -4.117188 5.125 -3.515625 C 5.34375 -2.921875 5.6875 -2.488281 6.15625 -2.21875 C 6.625 -1.957031 7.316406 -1.828125 8.234375 -1.828125 C 9.554688 -1.828125 10.597656 -2.28125 11.359375 -3.1875 C 12.128906 -4.09375 12.515625 -5.351562 12.515625 -6.96875 L 12.515625 -16.578125 L 15.28125 -16.578125 L 15.28125 -3.546875 C 15.28125 -1.609375 15.3125 -0.425781 15.375 0 L 12.765625 0 C 12.753906 -0.0507812 12.742188 -0.1875 12.734375 -0.40625 C 12.722656 -0.632812 12.707031 -0.894531 12.6875 -1.1875 C 12.675781 -1.476562 12.660156 -2.023438 12.640625 -2.828125 L 12.59375 -2.828125 C 11.96875 -1.691406 11.238281 -0.882812 10.40625 -0.40625 C 9.570312 0.0703125 8.535156 0.3125 7.296875 0.3125 C 5.472656 0.3125 4.140625 -0.140625 3.296875 -1.046875 C 2.453125 -1.953125 2.03125 -3.445312 2.03125 -5.53125 L 2.03125 -16.578125 Z M 4.8125 -16.578125 "/></g></g><g transform="translate(850.543672, 745.062511)"><g><path d="M 2.109375 0 L 2.109375 -22.75 L 4.875 -22.75 L 4.875 0 Z M 2.109375 0 "/></g></g></g><g fill="#000000" fill-opacity="1"><g transform="translate(889.820533, 745.062511)"><g><path d="M 19.5 -5.96875 C 19.5 -3.96875 18.71875 -2.421875 17.15625 -1.328125 C 15.601562 -0.234375 13.410156 0.3125 10.578125 0.3125 C 5.316406 0.3125 2.265625 -1.519531 1.421875 -5.1875 L 4.265625 -5.75 C 4.585938 -4.445312 5.28125 -3.492188 6.34375 -2.890625 C 7.40625 -2.285156 8.851562 -1.984375 10.6875 -1.984375 C 12.570312 -1.984375 14.023438 -2.304688 15.046875 -2.953125 C 16.078125 -3.597656 16.59375 -4.550781 16.59375 -5.8125 C 16.59375 -6.507812 16.429688 -7.078125 16.109375 -7.515625 C 15.796875 -7.960938 15.347656 -8.328125 14.765625 -8.609375 C 14.179688 -8.898438 13.484375 -9.140625 12.671875 -9.328125 C 11.867188 -9.523438 10.976562 -9.738281 10 -9.96875 C 8.289062 -10.34375 6.992188 -10.71875 6.109375 -11.09375 C 5.222656 -11.476562 4.523438 -11.898438 4.015625 -12.359375 C 3.503906 -12.828125 3.113281 -13.367188 2.84375 -13.984375 C 2.570312 -14.609375 2.4375 -15.328125 2.4375 -16.140625 C 2.4375 -17.992188 3.144531 -19.421875 4.5625 -20.421875 C 5.976562 -21.421875 8.003906 -21.921875 10.640625 -21.921875 C 13.085938 -21.921875 14.957031 -21.546875 16.25 -20.796875 C 17.550781 -20.046875 18.460938 -18.765625 18.984375 -16.953125 L 16.109375 -16.453125 C 15.796875 -17.585938 15.191406 -18.414062 14.296875 -18.9375 C 13.410156 -19.457031 12.179688 -19.71875 10.609375 -19.71875 C 8.878906 -19.71875 7.554688 -19.429688 6.640625 -18.859375 C 5.734375 -18.285156 5.28125 -17.429688 5.28125 -16.296875 C 5.28125 -15.628906 5.457031 -15.078125 5.8125 -14.640625 C 6.164062 -14.210938 6.675781 -13.847656 7.34375 -13.546875 C 8.007812 -13.242188 9.332031 -12.875 11.3125 -12.4375 C 11.976562 -12.28125 12.640625 -12.117188 13.296875 -11.953125 C 13.953125 -11.796875 14.582031 -11.609375 15.1875 -11.390625 C 15.789062 -11.171875 16.351562 -10.910156 16.875 -10.609375 C 17.40625 -10.316406 17.863281 -9.957031 18.25 -9.53125 C 18.644531 -9.101562 18.953125 -8.597656 19.171875 -8.015625 C 19.390625 -7.429688 19.5 -6.75 19.5 -5.96875 Z M 19.5 -5.96875 "/></g></g><g transform="translate(910.752835, 745.062511)"><g><path d="M 4.234375 -7.703125 C 4.234375 -5.804688 4.625 -4.34375 5.40625 -3.3125 C 6.195312 -2.28125 7.347656 -1.765625 8.859375 -1.765625 C 10.054688 -1.765625 11.015625 -2.003906 11.734375 -2.484375 C 12.453125 -2.960938 12.941406 -3.570312 13.203125 -4.3125 L 15.625 -3.625 C 14.625 -1 12.367188 0.3125 8.859375 0.3125 C 6.410156 0.3125 4.539062 -0.414062 3.25 -1.875 C 1.96875 -3.34375 1.328125 -5.519531 1.328125 -8.40625 C 1.328125 -11.132812 1.96875 -13.226562 3.25 -14.6875 C 4.539062 -16.15625 6.375 -16.890625 8.75 -16.890625 C 13.625 -16.890625 16.0625 -13.953125 16.0625 -8.078125 L 16.0625 -7.703125 Z M 13.21875 -9.828125 C 13.0625 -11.578125 12.613281 -12.851562 11.875 -13.65625 C 11.144531 -14.457031 10.085938 -14.859375 8.703125 -14.859375 C 7.367188 -14.859375 6.3125 -14.410156 5.53125 -13.515625 C 4.75 -12.617188 4.328125 -11.390625 4.265625 -9.828125 Z M 13.21875 -9.828125 "/></g></g><g transform="translate(928.206636, 745.062511)"><g><path d="M 8.484375 -0.125 C 7.578125 0.125 6.648438 0.25 5.703125 0.25 C 3.492188 0.25 2.390625 -1.003906 2.390625 -3.515625 L 2.390625 -14.578125 L 0.46875 -14.578125 L 0.46875 -16.578125 L 2.5 -16.578125 L 3.3125 -20.296875 L 5.15625 -20.296875 L 5.15625 -16.578125 L 8.21875 -16.578125 L 8.21875 -14.578125 L 5.15625 -14.578125 L 5.15625 -4.109375 C 5.15625 -3.304688 5.285156 -2.742188 5.546875 -2.421875 C 5.804688 -2.109375 6.253906 -1.953125 6.890625 -1.953125 C 7.265625 -1.953125 7.796875 -2.019531 8.484375 -2.15625 Z M 8.484375 -0.125 "/></g></g></g><g fill="#000000" fill-opacity="1"><g transform="translate(963.989721, 745.062511)"><g><path d="M 22.921875 -10.890625 C 22.921875 -8.640625 22.488281 -6.664062 21.625 -4.96875 C 20.757812 -3.269531 19.519531 -1.960938 17.90625 -1.046875 C 16.289062 -0.140625 14.382812 0.3125 12.1875 0.3125 C 9.96875 0.3125 8.050781 -0.132812 6.4375 -1.03125 C 4.832031 -1.9375 3.601562 -3.238281 2.75 -4.9375 C 1.90625 -6.644531 1.484375 -8.628906 1.484375 -10.890625 C 1.484375 -14.347656 2.425781 -17.050781 4.3125 -19 C 6.207031 -20.945312 8.84375 -21.921875 12.21875 -21.921875 C 14.414062 -21.921875 16.320312 -21.484375 17.9375 -20.609375 C 19.550781 -19.734375 20.785156 -18.460938 21.640625 -16.796875 C 22.492188 -15.128906 22.921875 -13.160156 22.921875 -10.890625 Z M 19.921875 -10.890625 C 19.921875 -13.578125 19.25 -15.6875 17.90625 -17.21875 C 16.5625 -18.757812 14.664062 -19.53125 12.21875 -19.53125 C 9.738281 -19.53125 7.820312 -18.769531 6.46875 -17.25 C 5.125 -15.738281 4.453125 -13.617188 4.453125 -10.890625 C 4.453125 -8.191406 5.132812 -6.046875 6.5 -4.453125 C 7.863281 -2.859375 9.757812 -2.0625 12.1875 -2.0625 C 14.675781 -2.0625 16.585938 -2.832031 17.921875 -4.375 C 19.253906 -5.914062 19.921875 -8.085938 19.921875 -10.890625 Z M 19.921875 -10.890625 "/></g></g><g transform="translate(988.400524, 745.062511)"><g><path d="M 4.8125 -16.578125 L 4.8125 -6.0625 C 4.8125 -4.96875 4.914062 -4.117188 5.125 -3.515625 C 5.34375 -2.921875 5.6875 -2.488281 6.15625 -2.21875 C 6.625 -1.957031 7.316406 -1.828125 8.234375 -1.828125 C 9.554688 -1.828125 10.597656 -2.28125 11.359375 -3.1875 C 12.128906 -4.09375 12.515625 -5.351562 12.515625 -6.96875 L 12.515625 -16.578125 L 15.28125 -16.578125 L 15.28125 -3.546875 C 15.28125 -1.609375 15.3125 -0.425781 15.375 0 L 12.765625 0 C 12.753906 -0.0507812 12.742188 -0.1875 12.734375 -0.40625 C 12.722656 -0.632812 12.707031 -0.894531 12.6875 -1.1875 C 12.675781 -1.476562 12.660156 -2.023438 12.640625 -2.828125 L 12.59375 -2.828125 C 11.96875 -1.691406 11.238281 -0.882812 10.40625 -0.40625 C 9.570312 0.0703125 8.535156 0.3125 7.296875 0.3125 C 5.472656 0.3125 4.140625 -0.140625 3.296875 -1.046875 C 2.453125 -1.953125 2.03125 -3.445312 2.03125 -5.53125 L 2.03125 -16.578125 Z M 4.8125 -16.578125 "/></g></g><g transform="translate(1005.854325, 745.062511)"><g><path d="M 8.484375 -0.125 C 7.578125 0.125 6.648438 0.25 5.703125 0.25 C 3.492188 0.25 2.390625 -1.003906 2.390625 -3.515625 L 2.390625 -14.578125 L 0.46875 -14.578125 L 0.46875 -16.578125 L 2.5 -16.578125 L 3.3125 -20.296875 L 5.15625 -20.296875 L 5.15625 -16.578125 L 8.21875 -16.578125 L 8.21875 -14.578125 L 5.15625 -14.578125 L 5.15625 -4.109375 C 5.15625 -3.304688 5.285156 -2.742188 5.546875 -2.421875 C 5.804688 -2.109375 6.253906 -1.953125 6.890625 -1.953125 C 7.265625 -1.953125 7.796875 -2.019531 8.484375 -2.15625 Z M 8.484375 -0.125 "/></g></g></g><g fill="#000000" fill-opacity="1"><g transform="translate(1038.281464, 745.062511)"><g><path d="M 16.578125 0 L 5.03125 -18.390625 L 5.109375 -16.90625 L 5.1875 -14.34375 L 5.1875 0 L 2.578125 0 L 2.578125 -21.59375 L 5.984375 -21.59375 L 17.65625 -3.078125 C 17.53125 -5.078125 17.46875 -6.53125 17.46875 -7.4375 L 17.46875 -21.59375 L 20.109375 -21.59375 L 20.109375 0 Z M 16.578125 0 "/></g></g><g transform="translate(1060.945355, 745.062511)"><g><path d="M 16.140625 -8.3125 C 16.140625 -5.40625 15.5 -3.238281 14.21875 -1.8125 C 12.945312 -0.394531 11.09375 0.3125 8.65625 0.3125 C 6.238281 0.3125 4.410156 -0.425781 3.171875 -1.90625 C 1.929688 -3.382812 1.3125 -5.519531 1.3125 -8.3125 C 1.3125 -14.03125 3.789062 -16.890625 8.75 -16.890625 C 11.28125 -16.890625 13.144531 -16.191406 14.34375 -14.796875 C 15.539062 -13.398438 16.140625 -11.238281 16.140625 -8.3125 Z M 13.25 -8.3125 C 13.25 -10.59375 12.90625 -12.253906 12.21875 -13.296875 C 11.539062 -14.335938 10.398438 -14.859375 8.796875 -14.859375 C 7.179688 -14.859375 6.015625 -14.328125 5.296875 -13.265625 C 4.578125 -12.203125 4.21875 -10.550781 4.21875 -8.3125 C 4.21875 -6.125 4.570312 -4.476562 5.28125 -3.375 C 5.988281 -2.28125 7.101562 -1.734375 8.625 -1.734375 C 10.28125 -1.734375 11.460938 -2.265625 12.171875 -3.328125 C 12.890625 -4.390625 13.25 -6.050781 13.25 -8.3125 Z M 13.25 -8.3125 "/></g></g><g transform="translate(1078.399156, 745.062511)"><g><path d="M 9.390625 0 L 6.125 0 L 0.109375 -16.578125 L 3.046875 -16.578125 L 6.703125 -5.796875 C 6.828125 -5.390625 7.175781 -4.175781 7.75 -2.15625 L 8.296875 -3.953125 L 8.890625 -5.765625 L 12.65625 -16.578125 L 15.59375 -16.578125 Z M 9.390625 0 "/></g></g></g><g fill="#000000" fill-opacity="1"><g transform="translate(1115.178156, 745.062511)"><g><path d="M 21.171875 -11.015625 C 21.171875 -8.785156 20.734375 -6.835938 19.859375 -5.171875 C 18.992188 -3.503906 17.765625 -2.222656 16.171875 -1.328125 C 14.578125 -0.441406 12.738281 0 10.65625 0 L 2.578125 0 L 2.578125 -21.59375 L 9.71875 -21.59375 C 13.375 -21.59375 16.195312 -20.675781 18.1875 -18.84375 C 20.175781 -17.007812 21.171875 -14.398438 21.171875 -11.015625 Z M 18.21875 -11.015625 C 18.21875 -13.691406 17.484375 -15.734375 16.015625 -17.140625 C 14.554688 -18.546875 12.4375 -19.25 9.65625 -19.25 L 5.5 -19.25 L 5.5 -2.34375 L 10.3125 -2.34375 C 11.894531 -2.34375 13.285156 -2.6875 14.484375 -3.375 C 15.691406 -4.070312 16.613281 -5.078125 17.25 -6.390625 C 17.894531 -7.703125 18.21875 -9.242188 18.21875 -11.015625 Z M 18.21875 -11.015625 "/></g></g><g transform="translate(1137.842047, 745.062511)"><g><path d="M 4.234375 -7.703125 C 4.234375 -5.804688 4.625 -4.34375 5.40625 -3.3125 C 6.195312 -2.28125 7.347656 -1.765625 8.859375 -1.765625 C 10.054688 -1.765625 11.015625 -2.003906 11.734375 -2.484375 C 12.453125 -2.960938 12.941406 -3.570312 13.203125 -4.3125 L 15.625 -3.625 C 14.625 -1 12.367188 0.3125 8.859375 0.3125 C 6.410156 0.3125 4.539062 -0.414062 3.25 -1.875 C 1.96875 -3.34375 1.328125 -5.519531 1.328125 -8.40625 C 1.328125 -11.132812 1.96875 -13.226562 3.25 -14.6875 C 4.539062 -16.15625 6.375 -16.890625 8.75 -16.890625 C 13.625 -16.890625 16.0625 -13.953125 16.0625 -8.078125 L 16.0625 -7.703125 Z M 13.21875 -9.828125 C 13.0625 -11.578125 12.613281 -12.851562 11.875 -13.65625 C 11.144531 -14.457031 10.085938 -14.859375 8.703125 -14.859375 C 7.367188 -14.859375 6.3125 -14.410156 5.53125 -13.515625 C 4.75 -12.617188 4.328125 -11.390625 4.265625 -9.828125 Z M 13.21875 -9.828125 "/></g></g><g transform="translate(1155.295848, 745.062511)"><g><path d="M 1.265625 0 L 1.265625 -2.09375 L 10.546875 -14.453125 L 1.796875 -14.453125 L 1.796875 -16.578125 L 13.8125 -16.578125 L 13.8125 -14.484375 L 4.515625 -2.125 L 14.125 -2.125 L 14.125 0 Z M 1.265625 0 "/></g></g></g><g fill="#000000" fill-opacity="1"><g transform="translate(296.563181, 714.660104)"><g><path d="M 16.234375 -10.8125 C 16.234375 -7.195312 15.597656 -4.4375 14.328125 -2.53125 C 13.054688 -0.632812 11.175781 0.3125 8.6875 0.3125 C 6.207031 0.3125 4.34375 -0.628906 3.09375 -2.515625 C 1.84375 -4.410156 1.21875 -7.175781 1.21875 -10.8125 C 1.21875 -14.519531 1.820312 -17.296875 3.03125 -19.140625 C 4.25 -20.992188 6.164062 -21.921875 8.78125 -21.921875 C 11.320312 -21.921875 13.195312 -20.984375 14.40625 -19.109375 C 15.625 -17.242188 16.234375 -14.476562 16.234375 -10.8125 Z M 13.421875 -10.8125 C 13.421875 -13.925781 13.0625 -16.179688 12.34375 -17.578125 C 11.625 -18.984375 10.4375 -19.6875 8.78125 -19.6875 C 7.082031 -19.6875 5.863281 -18.992188 5.125 -17.609375 C 4.382812 -16.234375 4.015625 -13.96875 4.015625 -10.8125 C 4.015625 -7.738281 4.390625 -5.492188 5.140625 -4.078125 C 5.890625 -2.660156 7.082031 -1.953125 8.71875 -1.953125 C 10.34375 -1.953125 11.53125 -2.675781 12.28125 -4.125 C 13.039062 -5.570312 13.421875 -7.800781 13.421875 -10.8125 Z M 13.421875 -10.8125 "/></g></g></g><g fill="#000000" fill-opacity="1"><g transform="translate(261.471728, 557.744416)"><g><path d="M 1.578125 0 L 1.578125 -1.953125 C 2.097656 -3.140625 2.734375 -4.191406 3.484375 -5.109375 C 4.234375 -6.023438 5.019531 -6.851562 5.84375 -7.59375 C 6.675781 -8.332031 7.5 -9.019531 8.3125 -9.65625 C 9.125 -10.289062 9.859375 -10.921875 10.515625 -11.546875 C 11.171875 -12.179688 11.695312 -12.847656 12.09375 -13.546875 C 12.5 -14.242188 12.703125 -15.03125 12.703125 -15.90625 C 12.703125 -17.09375 12.351562 -18.015625 11.65625 -18.671875 C 10.96875 -19.328125 10.003906 -19.65625 8.765625 -19.65625 C 7.585938 -19.65625 6.617188 -19.332031 5.859375 -18.6875 C 5.097656 -18.050781 4.648438 -17.15625 4.515625 -16 L 1.703125 -16.265625 C 1.910156 -17.992188 2.644531 -19.367188 3.90625 -20.390625 C 5.164062 -21.410156 6.785156 -21.921875 8.765625 -21.921875 C 10.941406 -21.921875 12.613281 -21.40625 13.78125 -20.375 C 14.957031 -19.351562 15.546875 -17.894531 15.546875 -16 C 15.546875 -15.164062 15.351562 -14.332031 14.96875 -13.5 C 14.582031 -12.675781 14.007812 -11.847656 13.25 -11.015625 C 12.5 -10.191406 11.054688 -8.910156 8.921875 -7.171875 C 7.742188 -6.210938 6.804688 -5.347656 6.109375 -4.578125 C 5.421875 -3.804688 4.921875 -3.0625 4.609375 -2.34375 L 15.875 -2.34375 L 15.875 0 Z M 1.578125 0 "/></g></g><g transform="translate(278.925529, 557.744416)"><g><path d="M 16.234375 -10.8125 C 16.234375 -7.195312 15.597656 -4.4375 14.328125 -2.53125 C 13.054688 -0.632812 11.175781 0.3125 8.6875 0.3125 C 6.207031 0.3125 4.34375 -0.628906 3.09375 -2.515625 C 1.84375 -4.410156 1.21875 -7.175781 1.21875 -10.8125 C 1.21875 -14.519531 1.820312 -17.296875 3.03125 -19.140625 C 4.25 -20.992188 6.164062 -21.921875 8.78125 -21.921875 C 11.320312 -21.921875 13.195312 -20.984375 14.40625 -19.109375 C 15.625 -17.242188 16.234375 -14.476562 16.234375 -10.8125 Z M 13.421875 -10.8125 C 13.421875 -13.925781 13.0625 -16.179688 12.34375 -17.578125 C 11.625 -18.984375 10.4375 -19.6875 8.78125 -19.6875 C 7.082031 -19.6875 5.863281 -18.992188 5.125 -17.609375 C 4.382812 -16.234375 4.015625 -13.96875 4.015625 -10.8125 C 4.015625 -7.738281 4.390625 -5.492188 5.140625 -4.078125 C 5.890625 -2.660156 7.082031 -1.953125 8.71875 -1.953125 C 10.34375 -1.953125 11.53125 -2.675781 12.28125 -4.125 C 13.039062 -5.570312 13.421875 -7.800781 13.421875 -10.8125 Z M 13.421875 -10.8125 "/></g></g><g transform="translate(296.37933, 557.744416)"><g><path d="M 16.234375 -10.8125 C 16.234375 -7.195312 15.597656 -4.4375 14.328125 -2.53125 C 13.054688 -0.632812 11.175781 0.3125 8.6875 0.3125 C 6.207031 0.3125 4.34375 -0.628906 3.09375 -2.515625 C 1.84375 -4.410156 1.21875 -7.175781 1.21875 -10.8125 C 1.21875 -14.519531 1.820312 -17.296875 3.03125 -19.140625 C 4.25 -20.992188 6.164062 -21.921875 8.78125 -21.921875 C 11.320312 -21.921875 13.195312 -20.984375 14.40625 -19.109375 C 15.625 -17.242188 16.234375 -14.476562 16.234375 -10.8125 Z M 13.421875 -10.8125 C 13.421875 -13.925781 13.0625 -16.179688 12.34375 -17.578125 C 11.625 -18.984375 10.4375 -19.6875 8.78125 -19.6875 C 7.082031 -19.6875 5.863281 -18.992188 5.125 -17.609375 C 4.382812 -16.234375 4.015625 -13.96875 4.015625 -10.8125 C 4.015625 -7.738281 4.390625 -5.492188 5.140625 -4.078125 C 5.890625 -2.660156 7.082031 -1.953125 8.71875 -1.953125 C 10.34375 -1.953125 11.53125 -2.675781 12.28125 -4.125 C 13.039062 -5.570312 13.421875 -7.800781 13.421875 -10.8125 Z M 13.421875 -10.8125 "/></g></g></g><g fill="#000000" fill-opacity="1"><g transform="translate(261.471728, 400.8288)"><g><path d="M 13.5 -4.890625 L 13.5 0 L 10.890625 0 L 10.890625 -4.890625 L 0.71875 -4.890625 L 0.71875 -7.03125 L 10.609375 -21.59375 L 13.5 -21.59375 L 13.5 -7.0625 L 16.53125 -7.0625 L 16.53125 -4.890625 Z M 10.890625 -18.484375 C 10.867188 -18.421875 10.722656 -18.148438 10.453125 -17.671875 C 10.191406 -17.191406 10 -16.851562 9.875 -16.65625 L 4.34375 -8.5 L 3.515625 -7.375 L 3.265625 -7.0625 L 10.890625 -7.0625 Z M 10.890625 -18.484375 "/></g></g><g transform="translate(278.925529, 400.8288)"><g><path d="M 16.234375 -10.8125 C 16.234375 -7.195312 15.597656 -4.4375 14.328125 -2.53125 C 13.054688 -0.632812 11.175781 0.3125 8.6875 0.3125 C 6.207031 0.3125 4.34375 -0.628906 3.09375 -2.515625 C 1.84375 -4.410156 1.21875 -7.175781 1.21875 -10.8125 C 1.21875 -14.519531 1.820312 -17.296875 3.03125 -19.140625 C 4.25 -20.992188 6.164062 -21.921875 8.78125 -21.921875 C 11.320312 -21.921875 13.195312 -20.984375 14.40625 -19.109375 C 15.625 -17.242188 16.234375 -14.476562 16.234375 -10.8125 Z M 13.421875 -10.8125 C 13.421875 -13.925781 13.0625 -16.179688 12.34375 -17.578125 C 11.625 -18.984375 10.4375 -19.6875 8.78125 -19.6875 C 7.082031 -19.6875 5.863281 -18.992188 5.125 -17.609375 C 4.382812 -16.234375 4.015625 -13.96875 4.015625 -10.8125 C 4.015625 -7.738281 4.390625 -5.492188 5.140625 -4.078125 C 5.890625 -2.660156 7.082031 -1.953125 8.71875 -1.953125 C 10.34375 -1.953125 11.53125 -2.675781 12.28125 -4.125 C 13.039062 -5.570312 13.421875 -7.800781 13.421875 -10.8125 Z M 13.421875 -10.8125 "/></g></g><g transform="translate(296.37933, 400.8288)"><g><path d="M 16.234375 -10.8125 C 16.234375 -7.195312 15.597656 -4.4375 14.328125 -2.53125 C 13.054688 -0.632812 11.175781 0.3125 8.6875 0.3125 C 6.207031 0.3125 4.34375 -0.628906 3.09375 -2.515625 C 1.84375 -4.410156 1.21875 -7.175781 1.21875 -10.8125 C 1.21875 -14.519531 1.820312 -17.296875 3.03125 -19.140625 C 4.25 -20.992188 6.164062 -21.921875 8.78125 -21.921875 C 11.320312 -21.921875 13.195312 -20.984375 14.40625 -19.109375 C 15.625 -17.242188 16.234375 -14.476562 16.234375 -10.8125 Z M 13.421875 -10.8125 C 13.421875 -13.925781 13.0625 -16.179688 12.34375 -17.578125 C 11.625 -18.984375 10.4375 -19.6875 8.78125 -19.6875 C 7.082031 -19.6875 5.863281 -18.992188 5.125 -17.609375 C 4.382812 -16.234375 4.015625 -13.96875 4.015625 -10.8125 C 4.015625 -7.738281 4.390625 -5.492188 5.140625 -4.078125 C 5.890625 -2.660156 7.082031 -1.953125 8.71875 -1.953125 C 10.34375 -1.953125 11.53125 -2.675781 12.28125 -4.125 C 13.039062 -5.570312 13.421875 -7.800781 13.421875 -10.8125 Z M 13.421875 -10.8125 "/></g></g></g><g fill="#000000" fill-opacity="1"><g transform="translate(261.471728, 243.913162)"><g><path d="M 16.078125 -7.0625 C 16.078125 -4.78125 15.457031 -2.976562 14.21875 -1.65625 C 12.988281 -0.34375 11.285156 0.3125 9.109375 0.3125 C 6.671875 0.3125 4.804688 -0.59375 3.515625 -2.40625 C 2.234375 -4.21875 1.59375 -6.847656 1.59375 -10.296875 C 1.59375 -14.035156 2.257812 -16.90625 3.59375 -18.90625 C 4.9375 -20.914062 6.84375 -21.921875 9.3125 -21.921875 C 12.570312 -21.921875 14.628906 -20.453125 15.484375 -17.515625 L 12.84375 -17.046875 C 12.300781 -18.804688 11.113281 -19.6875 9.28125 -19.6875 C 7.707031 -19.6875 6.488281 -18.953125 5.625 -17.484375 C 4.769531 -16.015625 4.34375 -13.890625 4.34375 -11.109375 C 4.84375 -12.035156 5.546875 -12.742188 6.453125 -13.234375 C 7.359375 -13.722656 8.398438 -13.96875 9.578125 -13.96875 C 11.566406 -13.96875 13.144531 -13.34375 14.3125 -12.09375 C 15.488281 -10.84375 16.078125 -9.164062 16.078125 -7.0625 Z M 13.28125 -6.9375 C 13.28125 -8.5 12.894531 -9.703125 12.125 -10.546875 C 11.351562 -11.398438 10.285156 -11.828125 8.921875 -11.828125 C 7.628906 -11.828125 6.585938 -11.453125 5.796875 -10.703125 C 5.003906 -9.953125 4.609375 -8.921875 4.609375 -7.609375 C 4.609375 -5.941406 5.019531 -4.578125 5.84375 -3.515625 C 6.664062 -2.453125 7.722656 -1.921875 9.015625 -1.921875 C 10.335938 -1.921875 11.378906 -2.363281 12.140625 -3.25 C 12.898438 -4.144531 13.28125 -5.375 13.28125 -6.9375 Z M 13.28125 -6.9375 "/></g></g><g transform="translate(278.925529, 243.913162)"><g><path d="M 16.234375 -10.8125 C 16.234375 -7.195312 15.597656 -4.4375 14.328125 -2.53125 C 13.054688 -0.632812 11.175781 0.3125 8.6875 0.3125 C 6.207031 0.3125 4.34375 -0.628906 3.09375 -2.515625 C 1.84375 -4.410156 1.21875 -7.175781 1.21875 -10.8125 C 1.21875 -14.519531 1.820312 -17.296875 3.03125 -19.140625 C 4.25 -20.992188 6.164062 -21.921875 8.78125 -21.921875 C 11.320312 -21.921875 13.195312 -20.984375 14.40625 -19.109375 C 15.625 -17.242188 16.234375 -14.476562 16.234375 -10.8125 Z M 13.421875 -10.8125 C 13.421875 -13.925781 13.0625 -16.179688 12.34375 -17.578125 C 11.625 -18.984375 10.4375 -19.6875 8.78125 -19.6875 C 7.082031 -19.6875 5.863281 -18.992188 5.125 -17.609375 C 4.382812 -16.234375 4.015625 -13.96875 4.015625 -10.8125 C 4.015625 -7.738281 4.390625 -5.492188 5.140625 -4.078125 C 5.890625 -2.660156 7.082031 -1.953125 8.71875 -1.953125 C 10.34375 -1.953125 11.53125 -2.675781 12.28125 -4.125 C 13.039062 -5.570312 13.421875 -7.800781 13.421875 -10.8125 Z M 13.421875 -10.8125 "/></g></g><g transform="translate(296.37933, 243.913162)"><g><path d="M 16.234375 -10.8125 C 16.234375 -7.195312 15.597656 -4.4375 14.328125 -2.53125 C 13.054688 -0.632812 11.175781 0.3125 8.6875 0.3125 C 6.207031 0.3125 4.34375 -0.628906 3.09375 -2.515625 C 1.84375 -4.410156 1.21875 -7.175781 1.21875 -10.8125 C 1.21875 -14.519531 1.820312 -17.296875 3.03125 -19.140625 C 4.25 -20.992188 6.164062 -21.921875 8.78125 -21.921875 C 11.320312 -21.921875 13.195312 -20.984375 14.40625 -19.109375 C 15.625 -17.242188 16.234375 -14.476562 16.234375 -10.8125 Z M 13.421875 -10.8125 C 13.421875 -13.925781 13.0625 -16.179688 12.34375 -17.578125 C 11.625 -18.984375 10.4375 -19.6875 8.78125 -19.6875 C 7.082031 -19.6875 5.863281 -18.992188 5.125 -17.609375 C 4.382812 -16.234375 4.015625 -13.96875 4.015625 -10.8125 C 4.015625 -7.738281 4.390625 -5.492188 5.140625 -4.078125 C 5.890625 -2.660156 7.082031 -1.953125 8.71875 -1.953125 C 10.34375 -1.953125 11.53125 -2.675781 12.28125 -4.125 C 13.039062 -5.570312 13.421875 -7.800781 13.421875 -10.8125 Z M 13.421875 -10.8125 "/></g></g></g><g fill="#000000" fill-opacity="1"><g transform="translate(261.471728, 86.997517)"><g><path d="M 16.09375 -6.03125 C 16.09375 -4.03125 15.457031 -2.472656 14.1875 -1.359375 C 12.925781 -0.242188 11.109375 0.3125 8.734375 0.3125 C 6.421875 0.3125 4.613281 -0.234375 3.3125 -1.328125 C 2.007812 -2.421875 1.359375 -3.976562 1.359375 -6 C 1.359375 -7.40625 1.757812 -8.585938 2.5625 -9.546875 C 3.375 -10.503906 4.410156 -11.085938 5.671875 -11.296875 L 5.671875 -11.359375 C 4.492188 -11.628906 3.566406 -12.222656 2.890625 -13.140625 C 2.210938 -14.066406 1.875 -15.148438 1.875 -16.390625 C 1.875 -18.035156 2.488281 -19.367188 3.71875 -20.390625 C 4.945312 -21.410156 6.597656 -21.921875 8.671875 -21.921875 C 10.796875 -21.921875 12.472656 -21.421875 13.703125 -20.421875 C 14.941406 -19.421875 15.5625 -18.066406 15.5625 -16.359375 C 15.5625 -15.117188 15.21875 -14.035156 14.53125 -13.109375 C 13.84375 -12.191406 12.90625 -11.617188 11.71875 -11.390625 L 11.71875 -11.328125 C 13.101562 -11.097656 14.175781 -10.507812 14.9375 -9.5625 C 15.707031 -8.625 16.09375 -7.445312 16.09375 -6.03125 Z M 12.6875 -16.203125 C 12.6875 -18.640625 11.347656 -19.859375 8.671875 -19.859375 C 7.378906 -19.859375 6.390625 -19.550781 5.703125 -18.9375 C 5.023438 -18.332031 4.6875 -17.421875 4.6875 -16.203125 C 4.6875 -14.960938 5.035156 -14.019531 5.734375 -13.375 C 6.441406 -12.726562 7.429688 -12.40625 8.703125 -12.40625 C 10.003906 -12.40625 10.992188 -12.703125 11.671875 -13.296875 C 12.347656 -13.890625 12.6875 -14.859375 12.6875 -16.203125 Z M 13.234375 -6.28125 C 13.234375 -7.625 12.832031 -8.632812 12.03125 -9.3125 C 11.238281 -9.988281 10.117188 -10.328125 8.671875 -10.328125 C 7.273438 -10.328125 6.179688 -9.960938 5.390625 -9.234375 C 4.609375 -8.503906 4.21875 -7.5 4.21875 -6.21875 C 4.21875 -3.25 5.734375 -1.765625 8.765625 -1.765625 C 10.265625 -1.765625 11.382812 -2.125 12.125 -2.84375 C 12.863281 -3.5625 13.234375 -4.707031 13.234375 -6.28125 Z M 13.234375 -6.28125 "/></g></g><g transform="translate(278.925529, 86.997517)"><g><path d="M 16.234375 -10.8125 C 16.234375 -7.195312 15.597656 -4.4375 14.328125 -2.53125 C 13.054688 -0.632812 11.175781 0.3125 8.6875 0.3125 C 6.207031 0.3125 4.34375 -0.628906 3.09375 -2.515625 C 1.84375 -4.410156 1.21875 -7.175781 1.21875 -10.8125 C 1.21875 -14.519531 1.820312 -17.296875 3.03125 -19.140625 C 4.25 -20.992188 6.164062 -21.921875 8.78125 -21.921875 C 11.320312 -21.921875 13.195312 -20.984375 14.40625 -19.109375 C 15.625 -17.242188 16.234375 -14.476562 16.234375 -10.8125 Z M 13.421875 -10.8125 C 13.421875 -13.925781 13.0625 -16.179688 12.34375 -17.578125 C 11.625 -18.984375 10.4375 -19.6875 8.78125 -19.6875 C 7.082031 -19.6875 5.863281 -18.992188 5.125 -17.609375 C 4.382812 -16.234375 4.015625 -13.96875 4.015625 -10.8125 C 4.015625 -7.738281 4.390625 -5.492188 5.140625 -4.078125 C 5.890625 -2.660156 7.082031 -1.953125 8.71875 -1.953125 C 10.34375 -1.953125 11.53125 -2.675781 12.28125 -4.125 C 13.039062 -5.570312 13.421875 -7.800781 13.421875 -10.8125 Z M 13.421875 -10.8125 "/></g></g><g transform="translate(296.37933, 86.997517)"><g><path d="M 16.234375 -10.8125 C 16.234375 -7.195312 15.597656 -4.4375 14.328125 -2.53125 C 13.054688 -0.632812 11.175781 0.3125 8.6875 0.3125 C 6.207031 0.3125 4.34375 -0.628906 3.09375 -2.515625 C 1.84375 -4.410156 1.21875 -7.175781 1.21875 -10.8125 C 1.21875 -14.519531 1.820312 -17.296875 3.03125 -19.140625 C 4.25 -20.992188 6.164062 -21.921875 8.78125 -21.921875 C 11.320312 -21.921875 13.195312 -20.984375 14.40625 -19.109375 C 15.625 -17.242188 16.234375 -14.476562 16.234375 -10.8125 Z M 13.421875 -10.8125 C 13.421875 -13.925781 13.0625 -16.179688 12.34375 -17.578125 C 11.625 -18.984375 10.4375 -19.6875 8.78125 -19.6875 C 7.082031 -19.6875 5.863281 -18.992188 5.125 -17.609375 C 4.382812 -16.234375 4.015625 -13.96875 4.015625 -10.8125 C 4.015625 -7.738281 4.390625 -5.492188 5.140625 -4.078125 C 5.890625 -2.660156 7.082031 -1.953125 8.71875 -1.953125 C 10.34375 -1.953125 11.53125 -2.675781 12.28125 -4.125 C 13.039062 -5.570312 13.421875 -7.800781 13.421875 -10.8125 Z M 13.421875 -10.8125 "/></g></g></g><path stroke-linecap="butt" transform="matrix(1.961446, 0, 0, 1.961446, 339.51579, 76.209566)" fill="none" stroke-linejoin="miter" d="M -0.0000840919 319.999458 L 428.305273 319.999458 " stroke="#000000" stroke-width="1" stroke-opacity="0.6" stroke-miterlimit="4"/><path stroke-linecap="butt" transform="matrix(1.961446, 0, 0, 1.961446, 339.51579, 76.209566)" fill="none" stroke-linejoin="miter" d="M -0.0000840919 240.000266 L 428.305273 240.000266 " stroke="#000000" stroke-width="1" stroke-opacity="0.251" stroke-miterlimit="4"/><path stroke-linecap="butt" transform="matrix(1.961446, 0, 0, 1.961446, 339.51579, 76.209566)" fill="none" stroke-linejoin="miter" d="M -0.0000840919 159.999083 L 428.305273 159.999083 " stroke="#000000" stroke-width="1" stroke-opacity="0.251" stroke-miterlimit="4"/><path stroke-linecap="butt" transform="matrix(1.961446, 0, 0, 1.961446, 339.51579, 76.209566)" fill="none" stroke-linejoin="miter" d="M -0.0000840919 79.999891 L 428.305273 79.999891 " stroke="#000000" stroke-width="1" stroke-opacity="0.251" stroke-miterlimit="4"/><path stroke-linecap="butt" transform="matrix(1.961446, 0, 0, 1.961446, 339.51579, 76.209566)" fill="none" stroke-linejoin="miter" d="M -0.0000840919 0.000699348 L 428.305273 0.000699348 " stroke="#000000" stroke-width="1" stroke-opacity="0.251" stroke-miterlimit="4"/><g clip-path="url(#9afbfce77d)"><path fill="#8fd29e" d="M 342.289062 115.4375 L 371.394531 115.4375 C 371.765625 115.4375 372.117188 115.507812 372.457031 115.648438 C 372.796875 115.789062 373.097656 115.992188 373.355469 116.25 C 373.617188 116.511719 373.816406 116.808594 373.957031 117.148438 C 374.097656 117.488281 374.167969 117.84375 374.167969 118.210938 L 374.167969 703.871094 C 374.167969 704.238281 374.097656 704.59375 373.957031 704.933594 C 373.816406 705.273438 373.617188 705.574219 373.355469 705.832031 C 373.097656 706.09375 372.796875 706.292969 372.457031 706.433594 C 372.117188 706.574219 371.765625 706.644531 371.394531 706.644531 L 342.289062 706.644531 C 341.921875 706.644531 341.566406 706.574219 341.226562 706.433594 C 340.886719 706.292969 340.585938 706.09375 340.328125 705.832031 C 340.066406 705.574219 339.867188 705.273438 339.726562 704.933594 C 339.585938 704.59375 339.515625 704.238281 339.515625 703.871094 L 339.515625 118.210938 C 339.515625 117.84375 339.585938 117.488281 339.726562 117.148438 C 339.867188 116.808594 340.066406 116.511719 340.328125 116.25 C 340.585938 115.992188 340.886719 115.789062 341.226562 115.648438 C 341.566406 115.507812 341.921875 115.4375 342.289062 115.4375 Z M 342.289062 115.4375 " fill-opacity="1" fill-rule="nonzero"/></g><g clip-path="url(#69f9d7c8b9)"><path fill="#e86c6c" d="M 378.765625 115.4375 L 407.875 115.4375 C 408.242188 115.4375 408.59375 115.507812 408.933594 115.648438 C 409.273438 115.789062 409.574219 115.992188 409.832031 116.25 C 410.09375 116.511719 410.292969 116.808594 410.433594 117.148438 C 410.574219 117.488281 410.644531 117.84375 410.644531 118.210938 L 410.644531 703.871094 C 410.644531 704.238281 410.574219 704.59375 410.433594 704.933594 C 410.292969 705.273438 410.09375 705.574219 409.832031 705.832031 C 409.574219 706.09375 409.273438 706.292969 408.933594 706.433594 C 408.59375 706.574219 408.242188 706.644531 407.875 706.644531 L 378.765625 706.644531 C 378.398438 706.644531 378.042969 706.574219 377.703125 706.433594 C 377.363281 706.292969 377.0625 706.09375 376.804688 705.832031 C 376.542969 705.574219 376.34375 705.273438 376.203125 704.933594 C 376.0625 704.59375 375.992188 704.238281 375.992188 703.871094 L 375.992188 118.210938 C 375.992188 117.84375 376.0625 117.488281 376.203125 117.148438 C 376.34375 116.808594 376.542969 116.511719 376.804688 116.25 C 377.0625 115.992188 377.363281 115.789062 377.703125 115.648438 C 378.042969 115.507812 378.398438 115.4375 378.765625 115.4375 Z M 378.765625 115.4375 " fill-opacity="1" fill-rule="nonzero"/></g><g clip-path="url(#81c3fd6c2e)"><path fill="#8fd29e" d="M 419.183594 193.894531 L 448.292969 193.894531 C 448.660156 193.894531 449.015625 193.964844 449.355469 194.105469 C 449.695312 194.246094 449.992188 194.449219 450.253906 194.707031 C 450.511719 194.96875 450.714844 195.269531 450.855469 195.609375 C 450.996094 195.949219 451.066406 196.300781 451.066406 196.667969 L 451.066406 703.871094 C 451.066406 704.238281 450.996094 704.59375 450.855469 704.933594 C 450.714844 705.273438 450.511719 705.574219 450.253906 705.832031 C 449.992188 706.09375 449.695312 706.292969 449.355469 706.433594 C 449.015625 706.574219 448.660156 706.644531 448.292969 706.644531 L 419.183594 706.644531 C 418.816406 706.644531 418.464844 706.574219 418.125 706.433594 C 417.785156 706.292969 417.484375 706.09375 417.222656 705.832031 C 416.964844 705.574219 416.765625 705.273438 416.625 704.933594 C 416.484375 704.59375 416.414062 704.238281 416.414062 703.871094 L 416.414062 196.667969 C 416.414062 196.300781 416.484375 195.949219 416.625 195.609375 C 416.765625 195.269531 416.964844 194.96875 417.222656 194.707031 C 417.484375 194.449219 417.785156 194.246094 418.125 194.105469 C 418.464844 193.964844 418.816406 193.894531 419.183594 193.894531 Z M 419.183594 193.894531 " fill-opacity="1" fill-rule="nonzero"/></g><g clip-path="url(#3a4b80d40b)"><path fill="#e86c6c" d="M 455.660156 311.582031 L 484.769531 311.582031 C 485.136719 311.582031 485.492188 311.652344 485.832031 311.792969 C 486.171875 311.933594 486.46875 312.136719 486.730469 312.394531 C 486.988281 312.65625 487.191406 312.953125 487.332031 313.292969 C 487.472656 313.632812 487.542969 313.988281 487.542969 314.355469 L 487.542969 703.871094 C 487.542969 704.238281 487.472656 704.59375 487.332031 704.933594 C 487.191406 705.273438 486.988281 705.574219 486.730469 705.832031 C 486.46875 706.09375 486.171875 706.292969 485.832031 706.433594 C 485.492188 706.574219 485.136719 706.644531 484.769531 706.644531 L 455.660156 706.644531 C 455.292969 706.644531 454.941406 706.574219 454.601562 706.433594 C 454.261719 706.292969 453.960938 706.09375 453.703125 705.832031 C 453.441406 705.574219 453.242188 705.273438 453.101562 704.933594 C 452.960938 704.59375 452.890625 704.238281 452.890625 703.871094 L 452.890625 314.355469 C 452.890625 313.988281 452.960938 313.632812 453.101562 313.292969 C 453.242188 312.953125 453.441406 312.65625 453.703125 312.394531 C 453.960938 312.136719 454.261719 311.933594 454.601562 311.792969 C 454.941406 311.652344 455.292969 311.582031 455.660156 311.582031 Z M 455.660156 311.582031 " fill-opacity="1" fill-rule="nonzero"/></g><g clip-path="url(#4a2b30f540)"><path fill="#8fd29e" d="M 496.082031 311.582031 L 525.191406 311.582031 C 525.558594 311.582031 525.910156 311.652344 526.25 311.792969 C 526.589844 311.933594 526.890625 312.136719 527.148438 312.394531 C 527.410156 312.65625 527.609375 312.953125 527.75 313.292969 C 527.890625 313.632812 527.960938 313.988281 527.960938 314.355469 L 527.960938 703.871094 C 527.960938 704.238281 527.890625 704.59375 527.75 704.933594 C 527.609375 705.273438 527.410156 705.574219 527.148438 705.832031 C 526.890625 706.09375 526.589844 706.292969 526.25 706.433594 C 525.910156 706.574219 525.558594 706.644531 525.191406 706.644531 L 496.082031 706.644531 C 495.714844 706.644531 495.359375 706.574219 495.019531 706.433594 C 494.679688 706.292969 494.382812 706.09375 494.121094 705.832031 C 493.859375 705.574219 493.660156 705.273438 493.519531 704.933594 C 493.378906 704.59375 493.308594 704.238281 493.308594 703.871094 L 493.308594 314.355469 C 493.308594 313.988281 493.378906 313.632812 493.519531 313.292969 C 493.660156 312.953125 493.859375 312.65625 494.121094 312.394531 C 494.382812 312.136719 494.679688 311.933594 495.019531 311.792969 C 495.359375 311.652344 495.714844 311.582031 496.082031 311.582031 Z M 496.082031 311.582031 " fill-opacity="1" fill-rule="nonzero"/></g><g clip-path="url(#e344c158c9)"><path fill="#e86c6c" d="M 532.558594 311.582031 L 561.667969 311.582031 C 562.035156 311.582031 562.386719 311.652344 562.726562 311.792969 C 563.066406 311.933594 563.367188 312.136719 563.625 312.394531 C 563.886719 312.65625 564.085938 312.953125 564.226562 313.292969 C 564.367188 313.632812 564.4375 313.988281 564.4375 314.355469 L 564.4375 703.871094 C 564.4375 704.238281 564.367188 704.59375 564.226562 704.933594 C 564.085938 705.273438 563.886719 705.574219 563.625 705.832031 C 563.367188 706.09375 563.066406 706.292969 562.726562 706.433594 C 562.386719 706.574219 562.035156 706.644531 561.667969 706.644531 L 532.558594 706.644531 C 532.191406 706.644531 531.835938 706.574219 531.496094 706.433594 C 531.15625 706.292969 530.859375 706.09375 530.597656 705.832031 C 530.339844 705.574219 530.136719 705.273438 529.996094 704.933594 C 529.855469 704.59375 529.785156 704.238281 529.785156 703.871094 L 529.785156 314.355469 C 529.785156 313.988281 529.855469 313.632812 529.996094 313.292969 C 530.136719 312.953125 530.339844 312.65625 530.597656 312.394531 C 530.859375 312.136719 531.15625 311.933594 531.496094 311.792969 C 531.835938 311.652344 532.191406 311.582031 532.558594 311.582031 Z M 532.558594 311.582031 " fill-opacity="1" fill-rule="nonzero"/></g><g clip-path="url(#b175bbcf20)"><path fill="#8fd29e" d="M 572.976562 429.269531 L 602.085938 429.269531 C 602.453125 429.269531 602.808594 429.339844 603.148438 429.480469 C 603.488281 429.621094 603.785156 429.820312 604.046875 430.082031 C 604.308594 430.339844 604.507812 430.640625 604.648438 430.980469 C 604.789062 431.320312 604.859375 431.675781 604.859375 432.042969 L 604.859375 703.871094 C 604.859375 704.238281 604.789062 704.59375 604.648438 704.933594 C 604.507812 705.273438 604.308594 705.574219 604.046875 705.832031 C 603.785156 706.09375 603.488281 706.292969 603.148438 706.433594 C 602.808594 706.574219 602.453125 706.644531 602.085938 706.644531 L 572.976562 706.644531 C 572.609375 706.644531 572.257812 706.574219 571.917969 706.433594 C 571.578125 706.292969 571.277344 706.09375 571.019531 705.832031 C 570.757812 705.574219 570.558594 705.273438 570.417969 704.933594 C 570.277344 704.59375 570.207031 704.238281 570.207031 703.871094 L 570.207031 432.042969 C 570.207031 431.675781 570.277344 431.320312 570.417969 430.980469 C 570.558594 430.640625 570.757812 430.339844 571.019531 430.082031 C 571.277344 429.820312 571.578125 429.621094 571.917969 429.480469 C 572.257812 429.339844 572.609375 429.269531 572.976562 429.269531 Z M 572.976562 429.269531 " fill-opacity="1" fill-rule="nonzero"/></g><g clip-path="url(#f5cb335c26)"><path fill="#e86c6c" d="M 609.453125 429.269531 L 638.5625 429.269531 C 638.929688 429.269531 639.285156 429.339844 639.625 429.480469 C 639.964844 429.621094 640.265625 429.820312 640.523438 430.082031 C 640.785156 430.339844 640.984375 430.640625 641.125 430.980469 C 641.265625 431.320312 641.335938 431.675781 641.335938 432.042969 L 641.335938 703.871094 C 641.335938 704.238281 641.265625 704.59375 641.125 704.933594 C 640.984375 705.273438 640.785156 705.574219 640.523438 705.832031 C 640.265625 706.09375 639.964844 706.292969 639.625 706.433594 C 639.285156 706.574219 638.929688 706.644531 638.5625 706.644531 L 609.453125 706.644531 C 609.085938 706.644531 608.734375 706.574219 608.394531 706.433594 C 608.054688 706.292969 607.753906 706.09375 607.496094 705.832031 C 607.234375 705.574219 607.035156 705.273438 606.894531 704.933594 C 606.753906 704.59375 606.683594 704.238281 606.683594 703.871094 L 606.683594 432.042969 C 606.683594 431.675781 606.753906 431.320312 606.894531 430.980469 C 607.035156 430.640625 607.234375 430.339844 607.496094 430.082031 C 607.753906 429.820312 608.054688 429.621094 608.394531 429.480469 C 608.734375 429.339844 609.085938 429.269531 609.453125 429.269531 Z M 609.453125 429.269531 " fill-opacity="1" fill-rule="nonzero"/></g><g clip-path="url(#f43e6b0e9f)"><path fill="#8fd29e" d="M 649.875 546.957031 L 678.984375 546.957031 C 679.351562 546.957031 679.703125 547.027344 680.042969 547.167969 C 680.382812 547.308594 680.683594 547.507812 680.945312 547.769531 C 681.203125 548.027344 681.402344 548.328125 681.542969 548.667969 C 681.683594 549.007812 681.753906 549.359375 681.753906 549.730469 L 681.753906 703.871094 C 681.753906 704.238281 681.683594 704.59375 681.542969 704.933594 C 681.402344 705.273438 681.203125 705.574219 680.945312 705.832031 C 680.683594 706.09375 680.382812 706.292969 680.042969 706.433594 C 679.703125 706.574219 679.351562 706.644531 678.984375 706.644531 L 649.875 706.644531 C 649.507812 706.644531 649.152344 706.574219 648.8125 706.433594 C 648.472656 706.292969 648.175781 706.09375 647.914062 705.832031 C 647.65625 705.574219 647.453125 705.273438 647.3125 704.933594 C 647.171875 704.59375 647.101562 704.238281 647.101562 703.871094 L 647.101562 549.730469 C 647.101562 549.359375 647.171875 549.007812 647.3125 548.667969 C 647.453125 548.328125 647.65625 548.027344 647.914062 547.769531 C 648.175781 547.507812 648.472656 547.308594 648.8125 547.167969 C 649.152344 547.027344 649.507812 546.957031 649.875 546.957031 Z M 649.875 546.957031 " fill-opacity="1" fill-rule="nonzero"/></g><g clip-path="url(#466d2f9797)"><path fill="#e86c6c" d="M 686.351562 429.269531 L 715.460938 429.269531 C 715.828125 429.269531 716.179688 429.339844 716.519531 429.480469 C 716.859375 429.621094 717.160156 429.820312 717.421875 430.082031 C 717.679688 430.339844 717.878906 430.640625 718.019531 430.980469 C 718.160156 431.320312 718.230469 431.675781 718.230469 432.042969 L 718.230469 703.871094 C 718.230469 704.238281 718.160156 704.59375 718.019531 704.933594 C 717.878906 705.273438 717.679688 705.574219 717.421875 705.832031 C 717.160156 706.09375 716.859375 706.292969 716.519531 706.433594 C 716.179688 706.574219 715.828125 706.644531 715.460938 706.644531 L 686.351562 706.644531 C 685.984375 706.644531 685.628906 706.574219 685.289062 706.433594 C 684.953125 706.292969 684.652344 706.09375 684.390625 705.832031 C 684.132812 705.574219 683.929688 705.273438 683.789062 704.933594 C 683.648438 704.59375 683.578125 704.238281 683.578125 703.871094 L 683.578125 432.042969 C 683.578125 431.675781 683.648438 431.320312 683.789062 430.980469 C 683.929688 430.640625 684.132812 430.339844 684.390625 430.082031 C 684.652344 429.820312 684.953125 429.621094 685.289062 429.480469 C 685.628906 429.339844 685.984375 429.269531 686.351562 429.269531 Z M 686.351562 429.269531 " fill-opacity="1" fill-rule="nonzero"/></g><g clip-path="url(#0346979e10)"><path fill="#8fd29e" d="M 726.773438 390.039062 L 755.878906 390.039062 C 756.246094 390.039062 756.601562 390.109375 756.941406 390.25 C 757.28125 390.390625 757.582031 390.59375 757.839844 390.851562 C 758.101562 391.113281 758.300781 391.414062 758.441406 391.753906 C 758.582031 392.089844 758.652344 392.445312 758.652344 392.8125 L 758.652344 703.871094 C 758.652344 704.238281 758.582031 704.59375 758.441406 704.933594 C 758.300781 705.273438 758.101562 705.574219 757.839844 705.832031 C 757.582031 706.09375 757.28125 706.292969 756.941406 706.433594 C 756.601562 706.574219 756.246094 706.644531 755.878906 706.644531 L 726.773438 706.644531 C 726.402344 706.644531 726.050781 706.574219 725.710938 706.433594 C 725.371094 706.292969 725.070312 706.09375 724.8125 705.832031 C 724.550781 705.574219 724.351562 705.273438 724.210938 704.933594 C 724.070312 704.59375 724 704.238281 724 703.871094 L 724 392.8125 C 724 392.445312 724.070312 392.089844 724.210938 391.753906 C 724.351562 391.414062 724.550781 391.113281 724.8125 390.851562 C 725.070312 390.59375 725.371094 390.390625 725.710938 390.25 C 726.050781 390.109375 726.402344 390.039062 726.773438 390.039062 Z M 726.773438 390.039062 " fill-opacity="1" fill-rule="nonzero"/></g><g clip-path="url(#d916b87132)"><path fill="#e86c6c" d="M 763.25 429.269531 L 792.355469 429.269531 C 792.722656 429.269531 793.078125 429.339844 793.417969 429.480469 C 793.757812 429.621094 794.058594 429.820312 794.316406 430.082031 C 794.578125 430.339844 794.777344 430.640625 794.917969 430.980469 C 795.058594 431.320312 795.128906 431.675781 795.128906 432.042969 L 795.128906 703.871094 C 795.128906 704.238281 795.058594 704.59375 794.917969 704.933594 C 794.777344 705.273438 794.578125 705.574219 794.316406 705.832031 C 794.058594 706.09375 793.757812 706.292969 793.417969 706.433594 C 793.078125 706.574219 792.722656 706.644531 792.355469 706.644531 L 763.25 706.644531 C 762.882812 706.644531 762.527344 706.574219 762.1875 706.433594 C 761.847656 706.292969 761.546875 706.09375 761.289062 705.832031 C 761.027344 705.574219 760.828125 705.273438 760.6875 704.933594 C 760.546875 704.59375 760.476562 704.238281 760.476562 703.871094 L 760.476562 432.042969 C 760.476562 431.675781 760.546875 431.320312 760.6875 430.980469 C 760.828125 430.640625 761.027344 430.339844 761.289062 430.082031 C 761.546875 429.820312 761.847656 429.621094 762.1875 429.480469 C 762.527344 429.339844 762.882812 429.269531 763.25 429.269531 Z M 763.25 429.269531 " fill-opacity="1" fill-rule="nonzero"/></g><g clip-path="url(#81c913389e)"><path fill="#8fd29e" d="M 803.667969 390.039062 L 832.777344 390.039062 C 833.144531 390.039062 833.5 390.109375 833.835938 390.25 C 834.175781 390.390625 834.476562 390.59375 834.738281 390.851562 C 834.996094 391.113281 835.199219 391.414062 835.339844 391.753906 C 835.480469 392.089844 835.550781 392.445312 835.550781 392.8125 L 835.550781 703.871094 C 835.550781 704.238281 835.480469 704.59375 835.339844 704.933594 C 835.199219 705.273438 834.996094 705.574219 834.738281 705.832031 C 834.476562 706.09375 834.175781 706.292969 833.835938 706.433594 C 833.5 706.574219 833.144531 706.644531 832.777344 706.644531 L 803.667969 706.644531 C 803.300781 706.644531 802.949219 706.574219 802.609375 706.433594 C 802.269531 706.292969 801.96875 706.09375 801.707031 705.832031 C 801.449219 705.574219 801.246094 705.273438 801.105469 704.933594 C 800.964844 704.59375 800.894531 704.238281 800.894531 703.871094 L 800.894531 392.8125 C 800.894531 392.445312 800.964844 392.089844 801.105469 391.753906 C 801.246094 391.414062 801.449219 391.113281 801.707031 390.851562 C 801.96875 390.59375 802.269531 390.390625 802.609375 390.25 C 802.949219 390.109375 803.300781 390.039062 803.667969 390.039062 Z M 803.667969 390.039062 " fill-opacity="1" fill-rule="nonzero"/></g><g clip-path="url(#8396cc1fa3)"><path fill="#e86c6c" d="M 840.144531 390.039062 L 869.253906 390.039062 C 869.621094 390.039062 869.976562 390.109375 870.316406 390.25 C 870.652344 390.390625 870.953125 390.59375 871.214844 390.851562 C 871.472656 391.113281 871.675781 391.414062 871.816406 391.753906 C 871.957031 392.089844 872.027344 392.445312 872.027344 392.8125 L 872.027344 703.871094 C 872.027344 704.238281 871.957031 704.59375 871.816406 704.933594 C 871.675781 705.273438 871.472656 705.574219 871.214844 705.832031 C 870.953125 706.09375 870.652344 706.292969 870.316406 706.433594 C 869.976562 706.574219 869.621094 706.644531 869.253906 706.644531 L 840.144531 706.644531 C 839.777344 706.644531 839.425781 706.574219 839.085938 706.433594 C 838.746094 706.292969 838.445312 706.09375 838.183594 705.832031 C 837.925781 705.574219 837.726562 705.273438 837.585938 704.933594 C 837.441406 704.59375 837.371094 704.238281 837.371094 703.871094 L 837.371094 392.8125 C 837.371094 392.445312 837.441406 392.089844 837.585938 391.753906 C 837.726562 391.414062 837.925781 391.113281 838.183594 390.851562 C 838.445312 390.59375 838.746094 390.390625 839.085938 390.25 C 839.425781 390.109375 839.777344 390.039062 840.144531 390.039062 Z M 840.144531 390.039062 " fill-opacity="1" fill-rule="nonzero"/></g><g clip-path="url(#fc54c53b76)"><path fill="#8fd29e" d="M 880.566406 390.039062 L 909.671875 390.039062 C 910.042969 390.039062 910.394531 390.109375 910.734375 390.25 C 911.074219 390.390625 911.375 390.59375 911.632812 390.851562 C 911.894531 391.113281 912.09375 391.414062 912.234375 391.753906 C 912.375 392.089844 912.445312 392.445312 912.445312 392.8125 L 912.445312 703.871094 C 912.445312 704.238281 912.375 704.59375 912.234375 704.933594 C 912.09375 705.273438 911.894531 705.574219 911.632812 705.832031 C 911.375 706.09375 911.074219 706.292969 910.734375 706.433594 C 910.394531 706.574219 910.042969 706.644531 909.671875 706.644531 L 880.566406 706.644531 C 880.199219 706.644531 879.84375 706.574219 879.503906 706.433594 C 879.164062 706.292969 878.863281 706.09375 878.605469 705.832031 C 878.34375 705.574219 878.144531 705.273438 878.003906 704.933594 C 877.863281 704.59375 877.792969 704.238281 877.792969 703.871094 L 877.792969 392.8125 C 877.792969 392.445312 877.863281 392.089844 878.003906 391.753906 C 878.144531 391.414062 878.34375 391.113281 878.605469 390.851562 C 878.863281 390.59375 879.164062 390.390625 879.503906 390.25 C 879.84375 390.109375 880.199219 390.039062 880.566406 390.039062 Z M 880.566406 390.039062 " fill-opacity="1" fill-rule="nonzero"/></g><g clip-path="url(#90e362a9bd)"><path fill="#e86c6c" d="M 917.042969 390.039062 L 946.152344 390.039062 C 946.519531 390.039062 946.871094 390.109375 947.210938 390.25 C 947.550781 390.390625 947.851562 390.59375 948.109375 390.851562 C 948.371094 391.113281 948.570312 391.414062 948.710938 391.753906 C 948.851562 392.089844 948.921875 392.445312 948.921875 392.8125 L 948.921875 703.871094 C 948.921875 704.238281 948.851562 704.59375 948.710938 704.933594 C 948.570312 705.273438 948.371094 705.574219 948.109375 705.832031 C 947.851562 706.09375 947.550781 706.292969 947.210938 706.433594 C 946.871094 706.574219 946.519531 706.644531 946.152344 706.644531 L 917.042969 706.644531 C 916.675781 706.644531 916.320312 706.574219 915.980469 706.433594 C 915.640625 706.292969 915.339844 706.09375 915.082031 705.832031 C 914.820312 705.574219 914.621094 705.273438 914.480469 704.933594 C 914.339844 704.59375 914.269531 704.238281 914.269531 703.871094 L 914.269531 392.8125 C 914.269531 392.445312 914.339844 392.089844 914.480469 391.753906 C 914.621094 391.414062 914.820312 391.113281 915.082031 390.851562 C 915.339844 390.59375 915.640625 390.390625 915.980469 390.25 C 916.320312 390.109375 916.675781 390.039062 917.042969 390.039062 Z M 917.042969 390.039062 " fill-opacity="1" fill-rule="nonzero"/></g><g clip-path="url(#779f1acd06)"><path fill="#8fd29e" d="M 957.460938 390.039062 L 986.570312 390.039062 C 986.9375 390.039062 987.292969 390.109375 987.632812 390.25 C 987.972656 390.390625 988.269531 390.59375 988.53125 390.851562 C 988.789062 391.113281 988.992188 391.414062 989.132812 391.753906 C 989.273438 392.089844 989.34375 392.445312 989.34375 392.8125 L 989.34375 703.871094 C 989.34375 704.238281 989.273438 704.59375 989.132812 704.933594 C 988.992188 705.273438 988.789062 705.574219 988.53125 705.832031 C 988.269531 706.09375 987.972656 706.292969 987.632812 706.433594 C 987.292969 706.574219 986.9375 706.644531 986.570312 706.644531 L 957.460938 706.644531 C 957.09375 706.644531 956.742188 706.574219 956.402344 706.433594 C 956.0625 706.292969 955.761719 706.09375 955.5 705.832031 C 955.242188 705.574219 955.042969 705.273438 954.902344 704.933594 C 954.761719 704.59375 954.691406 704.238281 954.691406 703.871094 L 954.691406 392.8125 C 954.691406 392.445312 954.761719 392.089844 954.902344 391.753906 C 955.042969 391.414062 955.242188 391.113281 955.5 390.851562 C 955.761719 390.59375 956.0625 390.390625 956.402344 390.25 C 956.742188 390.109375 957.09375 390.039062 957.460938 390.039062 Z M 957.460938 390.039062 " fill-opacity="1" fill-rule="nonzero"/></g><g clip-path="url(#afb8922845)"><path fill="#e86c6c" d="M 993.9375 350.8125 L 1023.046875 350.8125 C 1023.414062 350.8125 1023.769531 350.882812 1024.109375 351.023438 C 1024.449219 351.164062 1024.746094 351.363281 1025.007812 351.625 C 1025.265625 351.882812 1025.46875 352.183594 1025.609375 352.523438 C 1025.75 352.863281 1025.820312 353.214844 1025.820312 353.585938 L 1025.820312 703.871094 C 1025.820312 704.238281 1025.75 704.59375 1025.609375 704.933594 C 1025.46875 705.273438 1025.265625 705.574219 1025.007812 705.832031 C 1024.746094 706.09375 1024.449219 706.292969 1024.109375 706.433594 C 1023.769531 706.574219 1023.414062 706.644531 1023.046875 706.644531 L 993.9375 706.644531 C 993.570312 706.644531 993.21875 706.574219 992.878906 706.433594 C 992.539062 706.292969 992.238281 706.09375 991.976562 705.832031 C 991.71875 705.574219 991.519531 705.273438 991.378906 704.933594 C 991.238281 704.59375 991.167969 704.238281 991.167969 703.871094 L 991.167969 353.585938 C 991.167969 353.214844 991.238281 352.863281 991.378906 352.523438 C 991.519531 352.183594 991.71875 351.882812 991.976562 351.625 C 992.238281 351.363281 992.539062 351.164062 992.878906 351.023438 C 993.21875 350.882812 993.570312 350.8125 993.9375 350.8125 Z M 993.9375 350.8125 " fill-opacity="1" fill-rule="nonzero"/></g><g clip-path="url(#19deefd871)"><path fill="#8fd29e" d="M 1034.359375 390.039062 L 1063.46875 390.039062 C 1063.835938 390.039062 1064.1875 390.109375 1064.527344 390.25 C 1064.867188 390.390625 1065.167969 390.59375 1065.425781 390.851562 C 1065.6875 391.113281 1065.886719 391.414062 1066.027344 391.753906 C 1066.167969 392.089844 1066.238281 392.445312 1066.238281 392.8125 L 1066.238281 703.871094 C 1066.238281 704.238281 1066.167969 704.59375 1066.027344 704.933594 C 1065.886719 705.273438 1065.6875 705.574219 1065.425781 705.832031 C 1065.167969 706.09375 1064.867188 706.292969 1064.527344 706.433594 C 1064.1875 706.574219 1063.835938 706.644531 1063.46875 706.644531 L 1034.359375 706.644531 C 1033.992188 706.644531 1033.636719 706.574219 1033.296875 706.433594 C 1032.957031 706.292969 1032.660156 706.09375 1032.398438 705.832031 C 1032.136719 705.574219 1031.9375 705.273438 1031.796875 704.933594 C 1031.65625 704.59375 1031.585938 704.238281 1031.585938 703.871094 L 1031.585938 392.8125 C 1031.585938 392.445312 1031.65625 392.089844 1031.796875 391.753906 C 1031.9375 391.414062 1032.136719 391.113281 1032.398438 390.851562 C 1032.660156 390.59375 1032.957031 390.390625 1033.296875 390.25 C 1033.636719 390.109375 1033.992188 390.039062 1034.359375 390.039062 Z M 1034.359375 390.039062 " fill-opacity="1" fill-rule="nonzero"/></g><g clip-path="url(#78ea15b032)"><path fill="#e86c6c" d="M 1070.835938 429.269531 L 1099.945312 429.269531 C 1100.3125 429.269531 1100.664062 429.339844 1101.003906 429.480469 C 1101.34375 429.621094 1101.644531 429.820312 1101.902344 430.082031 C 1102.164062 430.339844 1102.363281 430.640625 1102.503906 430.980469 C 1102.644531 431.320312 1102.714844 431.675781 1102.714844 432.042969 L 1102.714844 703.871094 C 1102.714844 704.238281 1102.644531 704.59375 1102.503906 704.933594 C 1102.363281 705.273438 1102.164062 705.574219 1101.902344 705.832031 C 1101.644531 706.09375 1101.34375 706.292969 1101.003906 706.433594 C 1100.664062 706.574219 1100.3125 706.644531 1099.945312 706.644531 L 1070.835938 706.644531 C 1070.46875 706.644531 1070.113281 706.574219 1069.773438 706.433594 C 1069.433594 706.292969 1069.136719 706.09375 1068.875 705.832031 C 1068.617188 705.574219 1068.414062 705.273438 1068.273438 704.933594 C 1068.132812 704.59375 1068.0625 704.238281 1068.0625 703.871094 L 1068.0625 432.042969 C 1068.0625 431.675781 1068.132812 431.320312 1068.273438 430.980469 C 1068.414062 430.640625 1068.617188 430.339844 1068.875 430.082031 C 1069.136719 429.820312 1069.433594 429.621094 1069.773438 429.480469 C 1070.113281 429.339844 1070.46875 429.269531 1070.835938 429.269531 Z M 1070.835938 429.269531 " fill-opacity="1" fill-rule="nonzero"/></g><g clip-path="url(#d6a721568a)"><path fill="#8fd29e" d="M 1111.253906 390.039062 L 1140.363281 390.039062 C 1140.730469 390.039062 1141.085938 390.109375 1141.425781 390.25 C 1141.765625 390.390625 1142.0625 390.59375 1142.324219 390.851562 C 1142.585938 391.113281 1142.785156 391.414062 1142.925781 391.753906 C 1143.066406 392.089844 1143.136719 392.445312 1143.136719 392.8125 L 1143.136719 703.871094 C 1143.136719 704.238281 1143.066406 704.59375 1142.925781 704.933594 C 1142.785156 705.273438 1142.585938 705.574219 1142.324219 705.832031 C 1142.0625 706.09375 1141.765625 706.292969 1141.425781 706.433594 C 1141.085938 706.574219 1140.730469 706.644531 1140.363281 706.644531 L 1111.253906 706.644531 C 1110.886719 706.644531 1110.535156 706.574219 1110.195312 706.433594 C 1109.855469 706.292969 1109.554688 706.09375 1109.296875 705.832031 C 1109.035156 705.574219 1108.835938 705.273438 1108.695312 704.933594 C 1108.554688 704.59375 1108.484375 704.238281 1108.484375 703.871094 L 1108.484375 392.8125 C 1108.484375 392.445312 1108.554688 392.089844 1108.695312 391.753906 C 1108.835938 391.414062 1109.035156 391.113281 1109.296875 390.851562 C 1109.554688 390.59375 1109.855469 390.390625 1110.195312 390.25 C 1110.535156 390.109375 1110.886719 390.039062 1111.253906 390.039062 Z M 1111.253906 390.039062 " fill-opacity="1" fill-rule="nonzero"/></g><g clip-path="url(#2c461eb33b)"><path fill="#e86c6c" d="M 1147.730469 390.039062 L 1176.839844 390.039062 C 1177.207031 390.039062 1177.5625 390.109375 1177.902344 390.25 C 1178.242188 390.390625 1178.542969 390.59375 1178.800781 390.851562 C 1179.0625 391.113281 1179.261719 391.414062 1179.402344 391.753906 C 1179.542969 392.089844 1179.613281 392.445312 1179.613281 392.8125 L 1179.613281 703.871094 C 1179.613281 704.238281 1179.542969 704.59375 1179.402344 704.933594 C 1179.261719 705.273438 1179.0625 705.574219 1178.800781 705.832031 C 1178.539062 706.09375 1178.242188 706.292969 1177.902344 706.433594 C 1177.5625 706.574219 1177.207031 706.644531 1176.839844 706.644531 L 1147.730469 706.644531 C 1147.363281 706.644531 1147.011719 706.574219 1146.671875 706.433594 C 1146.332031 706.292969 1146.03125 706.09375 1145.773438 705.832031 C 1145.511719 705.574219 1145.3125 705.273438 1145.171875 704.933594 C 1145.03125 704.59375 1144.960938 704.238281 1144.960938 703.871094 L 1144.960938 392.8125 C 1144.960938 392.445312 1145.03125 392.089844 1145.171875 391.753906 C 1145.3125 391.414062 1145.511719 391.113281 1145.773438 390.851562 C 1146.03125 390.59375 1146.332031 390.390625 1146.671875 390.25 C 1147.011719 390.109375 1147.363281 390.039062 1147.730469 390.039062 Z M 1147.730469 390.039062 " fill-opacity="1" fill-rule="nonzero"/></g></svg>