<svg xmlns="http://www.w3.org/2000/svg" xmlns:xlink="http://www.w3.org/1999/xlink" width="900" zoomAndPan="magnify" viewBox="0 0 318.75 270.749989" height="361" preserveAspectRatio="xMidYMid meet" version="1.0"><defs><g/><clipPath id="f3917b2dbd"><path d="M 0.0234375 240 L 52 240 L 52 249 L 0.0234375 249 Z M 0.0234375 240 " clip-rule="nonzero"/></clipPath></defs><path fill="#168639" d="M 141.460938 30.019531 C 145.695312 30.019531 149.921875 30.242188 154.132812 30.691406 C 158.34375 31.136719 162.523438 31.804688 166.664062 32.695312 C 170.804688 33.585938 174.886719 34.695312 178.910156 36.015625 C 182.933594 37.339844 186.878906 38.871094 190.738281 40.613281 C 194.601562 42.355469 198.359375 44.296875 202.015625 46.433594 C 205.671875 48.574219 209.203125 50.902344 212.613281 53.414062 C 216.023438 55.929688 219.289062 58.617188 222.414062 61.476562 C 225.539062 64.335938 228.503906 67.355469 231.308594 70.527344 L 141.460938 149.90625 Z M 141.460938 30.019531 " fill-opacity="1" fill-rule="nonzero"/><path fill="#23dd5e" d="M 231.308594 70.527344 C 240.746094 81.210938 248.046875 93.195312 253.207031 106.484375 L 141.460938 149.90625 Z M 231.308594 70.527344 " fill-opacity="1" fill-rule="nonzero"/><path fill="#1fc353" d="M 253.207031 106.484375 C 254.296875 109.277344 255.273438 112.109375 256.148438 114.980469 C 257.023438 117.847656 257.789062 120.746094 258.445312 123.671875 C 259.101562 126.597656 259.644531 129.546875 260.082031 132.511719 C 260.515625 135.480469 260.839844 138.460938 261.050781 141.449219 C 261.261719 144.441406 261.363281 147.4375 261.347656 150.4375 C 261.335938 153.433594 261.210938 156.429688 260.972656 159.417969 C 260.734375 162.410156 260.382812 165.386719 259.921875 168.347656 C 259.460938 171.3125 258.890625 174.253906 258.207031 177.175781 C 257.527344 180.09375 256.734375 182.984375 255.835938 185.847656 C 254.9375 188.707031 253.933594 191.53125 252.820312 194.316406 C 251.710938 197.101562 250.496094 199.84375 249.179688 202.539062 C 247.863281 205.230469 246.449219 207.875 244.933594 210.460938 C 243.417969 213.050781 241.808594 215.578125 240.105469 218.046875 C 238.398438 220.511719 236.605469 222.914062 234.71875 225.246094 C 232.835938 227.578125 230.867188 229.839844 228.8125 232.023438 C 226.757812 234.207031 224.625 236.3125 222.414062 238.339844 L 141.460938 149.90625 Z M 253.207031 106.484375 " fill-opacity="1" fill-rule="nonzero"/><path fill="#8fd29e" d="M 222.414062 238.339844 C 220.949219 239.679688 219.453125 240.980469 217.925781 242.246094 C 216.398438 243.511719 214.839844 244.738281 213.25 245.925781 C 211.660156 247.113281 210.042969 248.261719 208.398438 249.371094 C 206.75 250.480469 205.078125 251.542969 203.378906 252.570312 C 201.679688 253.59375 199.957031 254.578125 198.210938 255.515625 C 196.460938 256.453125 194.691406 257.351562 192.898438 258.199219 C 191.105469 259.050781 189.292969 259.859375 187.460938 260.621094 C 185.628906 261.382812 183.78125 262.097656 181.914062 262.765625 C 180.042969 263.4375 178.160156 264.058594 176.261719 264.632812 C 174.363281 265.210938 172.453125 265.738281 170.527344 266.21875 C 168.601562 266.699219 166.667969 267.132812 164.71875 267.519531 C 162.773438 267.902344 160.820312 268.238281 158.855469 268.527344 C 156.890625 268.816406 154.921875 269.054688 152.949219 269.246094 C 150.972656 269.433594 148.996094 269.574219 147.011719 269.667969 C 145.03125 269.761719 143.046875 269.800781 141.0625 269.796875 C 139.078125 269.789062 137.097656 269.734375 135.117188 269.628906 C 133.132812 269.523438 131.15625 269.371094 129.183594 269.167969 C 127.210938 268.964844 125.242188 268.710938 123.28125 268.410156 C 121.320312 268.109375 119.367188 267.761719 117.421875 267.363281 C 115.480469 266.964844 113.546875 266.519531 111.625 266.023438 C 109.703125 265.53125 107.792969 264.988281 105.898438 264.402344 C 104.003906 263.8125 102.125 263.175781 100.261719 262.496094 C 98.398438 261.8125 96.554688 261.085938 94.726562 260.3125 C 92.898438 259.539062 91.09375 258.722656 89.304688 257.859375 C 87.519531 256.996094 85.757812 256.089844 84.015625 255.136719 C 82.273438 254.1875 80.554688 253.191406 78.863281 252.15625 C 77.171875 251.121094 75.507812 250.042969 73.867188 248.925781 C 72.230469 247.808594 70.617188 246.648438 69.039062 245.449219 C 67.457031 244.25 65.90625 243.015625 64.386719 241.738281 C 62.867188 240.460938 61.378906 239.148438 59.925781 237.800781 C 58.46875 236.453125 57.050781 235.066406 55.664062 233.648438 C 54.277344 232.226562 52.929688 230.773438 51.613281 229.285156 C 50.300781 227.800781 49.023438 226.28125 47.785156 224.730469 C 46.546875 223.179688 45.347656 221.601562 44.1875 219.992188 C 43.027344 218.382812 41.910156 216.742188 40.832031 215.078125 C 39.753906 213.414062 38.714844 211.722656 37.722656 210.003906 C 36.726562 208.289062 35.777344 206.546875 34.867188 204.785156 C 33.960938 203.019531 33.09375 201.234375 32.277344 199.425781 C 31.457031 197.621094 30.683594 195.792969 29.953125 193.949219 C 29.226562 192.101562 28.542969 190.242188 27.90625 188.359375 C 27.269531 186.480469 26.679688 184.585938 26.136719 182.679688 C 25.59375 180.769531 25.101562 178.851562 24.652344 176.917969 C 24.207031 174.984375 23.808594 173.039062 23.457031 171.085938 C 23.105469 169.132812 22.804688 167.175781 22.550781 165.207031 C 22.296875 163.238281 22.09375 161.265625 21.9375 159.289062 C 21.785156 157.308594 21.675781 155.328125 21.621094 153.34375 C 21.5625 151.363281 21.554688 149.378906 21.597656 147.394531 C 21.640625 145.410156 21.730469 143.429688 21.871094 141.449219 C 22.011719 139.472656 22.199219 137.496094 22.4375 135.527344 C 22.675781 133.558594 22.960938 131.59375 23.296875 129.640625 C 23.632812 127.683594 24.015625 125.738281 24.449219 123.800781 C 24.878906 121.863281 25.359375 119.941406 25.886719 118.027344 C 26.414062 116.113281 26.988281 114.214844 27.613281 112.332031 C 28.234375 110.449219 28.902344 108.578125 29.617188 106.730469 C 30.332031 104.878906 31.089844 103.046875 31.898438 101.234375 C 32.703125 99.417969 33.550781 97.628906 34.445312 95.855469 C 35.339844 94.085938 36.28125 92.335938 37.261719 90.613281 C 38.242188 88.886719 39.265625 87.191406 40.332031 85.515625 C 41.398438 83.84375 42.503906 82.195312 43.652344 80.578125 C 44.796875 78.957031 45.984375 77.371094 47.210938 75.808594 C 48.4375 74.25 49.703125 72.722656 51.003906 71.222656 C 52.304688 69.726562 53.644531 68.261719 55.019531 66.832031 C 56.394531 65.402344 57.804688 64.007812 59.25 62.644531 C 60.691406 61.285156 62.167969 59.960938 63.679688 58.675781 L 141.460938 149.90625 Z M 222.414062 238.339844 " fill-opacity="1" fill-rule="nonzero"/><path fill="#00faa4" d="M 63.679688 58.675781 C 66.363281 56.386719 69.144531 54.21875 72.019531 52.175781 C 74.898438 50.132812 77.859375 48.21875 80.902344 46.4375 C 83.949219 44.652344 87.066406 43.007812 90.257812 41.503906 C 93.449219 39.996094 96.699219 38.632812 100.007812 37.414062 C 103.320312 36.191406 106.675781 35.121094 110.082031 34.195312 C 113.488281 33.273438 116.929688 32.503906 120.402344 31.882812 C 123.875 31.261719 127.371094 30.796875 130.882812 30.484375 C 134.398438 30.175781 137.921875 30.019531 141.449219 30.019531 L 141.460938 149.90625 Z M 63.679688 58.675781 " fill-opacity="1" fill-rule="nonzero"/><g clip-path="url(#f3917b2dbd)"><g fill="#000000" fill-opacity="1"><g transform="translate(-0.498259, 248.874696)"><g><path d="M 7.359375 -5.765625 C 7.359375 -4.984375 7.101562 -4.363281 6.59375 -3.90625 C 6.082031 -3.445312 5.390625 -3.21875 4.515625 -3.21875 L 2.09375 -3.21875 L 2.09375 0 L 0.984375 0 L 0.984375 -8.25 L 4.453125 -8.25 C 5.378906 -8.25 6.09375 -8.03125 6.59375 -7.59375 C 7.101562 -7.164062 7.359375 -6.554688 7.359375 -5.765625 Z M 6.234375 -5.75 C 6.234375 -6.8125 5.59375 -7.34375 4.3125 -7.34375 L 2.09375 -7.34375 L 2.09375 -4.09375 L 4.359375 -4.09375 C 5.609375 -4.09375 6.234375 -4.644531 6.234375 -5.75 Z M 6.234375 -5.75 "/></g></g><g transform="translate(7.498263, 248.874696)"><g><path d="M 0.828125 0 L 0.828125 -4.859375 C 0.828125 -5.304688 0.816406 -5.796875 0.796875 -6.328125 L 1.796875 -6.328125 C 1.828125 -5.609375 1.84375 -5.175781 1.84375 -5.03125 L 1.859375 -5.03125 C 2.023438 -5.582031 2.21875 -5.957031 2.4375 -6.15625 C 2.65625 -6.351562 2.960938 -6.453125 3.359375 -6.453125 C 3.503906 -6.453125 3.648438 -6.429688 3.796875 -6.390625 L 3.796875 -5.421875 C 3.648438 -5.460938 3.460938 -5.484375 3.234375 -5.484375 C 2.796875 -5.484375 2.460938 -5.296875 2.234375 -4.921875 C 2.003906 -4.546875 1.890625 -4.003906 1.890625 -3.296875 L 1.890625 0 Z M 0.828125 0 "/></g></g><g transform="translate(11.490669, 248.874696)"><g><path d="M 6.15625 -3.171875 C 6.15625 -2.066406 5.910156 -1.242188 5.421875 -0.703125 C 4.941406 -0.160156 4.238281 0.109375 3.3125 0.109375 C 2.382812 0.109375 1.679688 -0.171875 1.203125 -0.734375 C 0.734375 -1.296875 0.5 -2.109375 0.5 -3.171875 C 0.5 -5.359375 1.445312 -6.453125 3.34375 -6.453125 C 4.3125 -6.453125 5.019531 -6.179688 5.46875 -5.640625 C 5.925781 -5.109375 6.15625 -4.285156 6.15625 -3.171875 Z M 5.0625 -3.171875 C 5.0625 -4.046875 4.929688 -4.679688 4.671875 -5.078125 C 4.410156 -5.472656 3.972656 -5.671875 3.359375 -5.671875 C 2.742188 -5.671875 2.296875 -5.46875 2.015625 -5.0625 C 1.742188 -4.65625 1.609375 -4.023438 1.609375 -3.171875 C 1.609375 -2.335938 1.742188 -1.707031 2.015625 -1.28125 C 2.285156 -0.863281 2.710938 -0.65625 3.296875 -0.65625 C 3.929688 -0.65625 4.382812 -0.859375 4.65625 -1.265625 C 4.925781 -1.671875 5.0625 -2.304688 5.0625 -3.171875 Z M 5.0625 -3.171875 "/></g></g><g transform="translate(18.15834, 248.874696)"><g><path d="M 4.796875 -1.015625 C 4.609375 -0.609375 4.351562 -0.316406 4.03125 -0.140625 C 3.707031 0.0234375 3.304688 0.109375 2.828125 0.109375 C 2.023438 0.109375 1.4375 -0.15625 1.0625 -0.6875 C 0.6875 -1.226562 0.5 -2.046875 0.5 -3.140625 C 0.5 -5.347656 1.273438 -6.453125 2.828125 -6.453125 C 3.304688 -6.453125 3.707031 -6.363281 4.03125 -6.1875 C 4.351562 -6.007812 4.609375 -5.726562 4.796875 -5.34375 L 4.8125 -5.34375 L 4.796875 -6.0625 L 4.796875 -8.6875 L 5.859375 -8.6875 L 5.859375 -1.3125 C 5.859375 -0.644531 5.867188 -0.207031 5.890625 0 L 4.890625 0 C 4.878906 -0.0625 4.863281 -0.203125 4.84375 -0.421875 C 4.832031 -0.648438 4.828125 -0.847656 4.828125 -1.015625 Z M 1.609375 -3.171875 C 1.609375 -2.285156 1.722656 -1.648438 1.953125 -1.265625 C 2.191406 -0.890625 2.570312 -0.703125 3.09375 -0.703125 C 3.695312 -0.703125 4.128906 -0.90625 4.390625 -1.3125 C 4.660156 -1.726562 4.796875 -2.367188 4.796875 -3.234375 C 4.796875 -4.078125 4.660156 -4.691406 4.390625 -5.078125 C 4.128906 -5.472656 3.703125 -5.671875 3.109375 -5.671875 C 2.578125 -5.671875 2.191406 -5.472656 1.953125 -5.078125 C 1.722656 -4.691406 1.609375 -4.054688 1.609375 -3.171875 Z M 1.609375 -3.171875 "/></g></g><g transform="translate(24.826011, 248.874696)"><g><path d="M 1.84375 -6.328125 L 1.84375 -2.3125 C 1.84375 -1.894531 1.878906 -1.570312 1.953125 -1.34375 C 2.035156 -1.113281 2.164062 -0.945312 2.34375 -0.84375 C 2.53125 -0.75 2.796875 -0.703125 3.140625 -0.703125 C 3.648438 -0.703125 4.050781 -0.875 4.34375 -1.21875 C 4.632812 -1.5625 4.78125 -2.039062 4.78125 -2.65625 L 4.78125 -6.328125 L 5.828125 -6.328125 L 5.828125 -1.359375 C 5.828125 -0.617188 5.84375 -0.164062 5.875 0 L 4.875 0 C 4.875 -0.0195312 4.867188 -0.0703125 4.859375 -0.15625 C 4.859375 -0.238281 4.851562 -0.335938 4.84375 -0.453125 C 4.84375 -0.566406 4.835938 -0.773438 4.828125 -1.078125 L 4.8125 -1.078125 C 4.570312 -0.640625 4.289062 -0.332031 3.96875 -0.15625 C 3.65625 0.0195312 3.257812 0.109375 2.78125 0.109375 C 2.09375 0.109375 1.585938 -0.0625 1.265625 -0.40625 C 0.941406 -0.75 0.78125 -1.316406 0.78125 -2.109375 L 0.78125 -6.328125 Z M 1.84375 -6.328125 "/></g></g><g transform="translate(31.493682, 248.874696)"><g><path d="M 3.234375 -0.046875 C 2.890625 0.046875 2.535156 0.09375 2.171875 0.09375 C 1.328125 0.09375 0.90625 -0.382812 0.90625 -1.34375 L 0.90625 -5.5625 L 0.1875 -5.5625 L 0.1875 -6.328125 L 0.953125 -6.328125 L 1.265625 -7.75 L 1.96875 -7.75 L 1.96875 -6.328125 L 3.140625 -6.328125 L 3.140625 -5.5625 L 1.96875 -5.5625 L 1.96875 -1.5625 C 1.96875 -1.257812 2.015625 -1.046875 2.109375 -0.921875 C 2.210938 -0.804688 2.390625 -0.75 2.640625 -0.75 C 2.773438 -0.75 2.972656 -0.773438 3.234375 -0.828125 Z M 3.234375 -0.046875 "/></g></g><g transform="translate(34.824591, 248.874696)"><g><path d="M 6.15625 -3.171875 C 6.15625 -2.066406 5.910156 -1.242188 5.421875 -0.703125 C 4.941406 -0.160156 4.238281 0.109375 3.3125 0.109375 C 2.382812 0.109375 1.679688 -0.171875 1.203125 -0.734375 C 0.734375 -1.296875 0.5 -2.109375 0.5 -3.171875 C 0.5 -5.359375 1.445312 -6.453125 3.34375 -6.453125 C 4.3125 -6.453125 5.019531 -6.179688 5.46875 -5.640625 C 5.925781 -5.109375 6.15625 -4.285156 6.15625 -3.171875 Z M 5.0625 -3.171875 C 5.0625 -4.046875 4.929688 -4.679688 4.671875 -5.078125 C 4.410156 -5.472656 3.972656 -5.671875 3.359375 -5.671875 C 2.742188 -5.671875 2.296875 -5.46875 2.015625 -5.0625 C 1.742188 -4.65625 1.609375 -4.023438 1.609375 -3.171875 C 1.609375 -2.335938 1.742188 -1.707031 2.015625 -1.28125 C 2.285156 -0.863281 2.710938 -0.65625 3.296875 -0.65625 C 3.929688 -0.65625 4.382812 -0.859375 4.65625 -1.265625 C 4.925781 -1.671875 5.0625 -2.304688 5.0625 -3.171875 Z M 5.0625 -3.171875 "/></g></g><g transform="translate(41.492261, 248.874696)"><g/></g><g transform="translate(44.82317, 248.874696)"><g><path d="M 5.15625 -1.859375 L 5.15625 0 L 4.15625 0 L 4.15625 -1.859375 L 0.28125 -1.859375 L 0.28125 -2.6875 L 4.046875 -8.25 L 5.15625 -8.25 L 5.15625 -2.703125 L 6.3125 -2.703125 L 6.3125 -1.859375 Z M 4.15625 -7.0625 C 4.15625 -7.03125 4.101562 -6.921875 4 -6.734375 C 3.894531 -6.554688 3.816406 -6.429688 3.765625 -6.359375 L 1.65625 -3.25 L 1.34375 -2.8125 L 1.25 -2.703125 L 4.15625 -2.703125 Z M 4.15625 -7.0625 "/></g></g></g></g><g fill="#000000" fill-opacity="1"><g transform="translate(8.879803, 264.165264)"><g><path d="M 6.15625 -2.6875 C 6.15625 -1.8125 5.894531 -1.125 5.375 -0.625 C 4.863281 -0.132812 4.148438 0.109375 3.234375 0.109375 C 2.460938 0.109375 1.84375 -0.0546875 1.375 -0.390625 C 0.90625 -0.722656 0.609375 -1.207031 0.484375 -1.84375 L 1.546875 -1.96875 C 1.765625 -1.15625 2.335938 -0.75 3.265625 -0.75 C 3.828125 -0.75 4.265625 -0.914062 4.578125 -1.25 C 4.898438 -1.59375 5.0625 -2.0625 5.0625 -2.65625 C 5.0625 -3.175781 4.898438 -3.597656 4.578125 -3.921875 C 4.265625 -4.242188 3.832031 -4.40625 3.28125 -4.40625 C 3 -4.40625 2.734375 -4.359375 2.484375 -4.265625 C 2.242188 -4.171875 2 -4.019531 1.75 -3.8125 L 0.71875 -3.8125 L 1 -8.25 L 5.6875 -8.25 L 5.6875 -7.34375 L 1.953125 -7.34375 L 1.796875 -4.734375 C 2.253906 -5.085938 2.820312 -5.265625 3.5 -5.265625 C 4.3125 -5.265625 4.957031 -5.023438 5.4375 -4.546875 C 5.914062 -4.066406 6.15625 -3.445312 6.15625 -2.6875 Z M 6.15625 -2.6875 "/></g></g><g transform="translate(15.547474, 264.165264)"><g><path d="M 6.203125 -4.125 C 6.203125 -2.75 5.957031 -1.695312 5.46875 -0.96875 C 4.976562 -0.25 4.257812 0.109375 3.3125 0.109375 C 2.363281 0.109375 1.648438 -0.25 1.171875 -0.96875 C 0.703125 -1.6875 0.46875 -2.738281 0.46875 -4.125 C 0.46875 -5.539062 0.695312 -6.601562 1.15625 -7.3125 C 1.625 -8.019531 2.359375 -8.375 3.359375 -8.375 C 4.328125 -8.375 5.039062 -8.015625 5.5 -7.296875 C 5.96875 -6.578125 6.203125 -5.519531 6.203125 -4.125 Z M 5.125 -4.125 C 5.125 -5.3125 4.984375 -6.171875 4.703125 -6.703125 C 4.429688 -7.242188 3.984375 -7.515625 3.359375 -7.515625 C 2.703125 -7.515625 2.234375 -7.25 1.953125 -6.71875 C 1.671875 -6.195312 1.53125 -5.332031 1.53125 -4.125 C 1.53125 -2.957031 1.671875 -2.101562 1.953125 -1.5625 C 2.242188 -1.019531 2.703125 -0.75 3.328125 -0.75 C 3.953125 -0.75 4.40625 -1.023438 4.6875 -1.578125 C 4.976562 -2.128906 5.125 -2.976562 5.125 -4.125 Z M 5.125 -4.125 "/></g></g><g transform="translate(22.215145, 264.165264)"><g><path d="M 1.09375 0 L 1.09375 -1.28125 L 2.234375 -1.28125 L 2.234375 0 Z M 1.09375 0 "/></g></g><g transform="translate(25.546053, 264.165264)"><g><path d="M 6.140625 -2.703125 C 6.140625 -1.828125 5.898438 -1.140625 5.421875 -0.640625 C 4.953125 -0.140625 4.300781 0.109375 3.46875 0.109375 C 2.539062 0.109375 1.832031 -0.234375 1.34375 -0.921875 C 0.851562 -1.609375 0.609375 -2.613281 0.609375 -3.9375 C 0.609375 -5.363281 0.863281 -6.457031 1.375 -7.21875 C 1.882812 -7.988281 2.613281 -8.375 3.5625 -8.375 C 4.800781 -8.375 5.582031 -7.8125 5.90625 -6.6875 L 4.90625 -6.5 C 4.695312 -7.175781 4.242188 -7.515625 3.546875 -7.515625 C 2.941406 -7.515625 2.472656 -7.234375 2.140625 -6.671875 C 1.816406 -6.109375 1.65625 -5.300781 1.65625 -4.25 C 1.84375 -4.601562 2.109375 -4.867188 2.453125 -5.046875 C 2.804688 -5.234375 3.207031 -5.328125 3.65625 -5.328125 C 4.414062 -5.328125 5.019531 -5.085938 5.46875 -4.609375 C 5.914062 -4.140625 6.140625 -3.503906 6.140625 -2.703125 Z M 5.0625 -2.65625 C 5.0625 -3.25 4.914062 -3.707031 4.625 -4.03125 C 4.332031 -4.351562 3.925781 -4.515625 3.40625 -4.515625 C 2.914062 -4.515625 2.519531 -4.367188 2.21875 -4.078125 C 1.914062 -3.796875 1.765625 -3.40625 1.765625 -2.90625 C 1.765625 -2.269531 1.921875 -1.75 2.234375 -1.34375 C 2.546875 -0.9375 2.945312 -0.734375 3.4375 -0.734375 C 3.945312 -0.734375 4.34375 -0.898438 4.625 -1.234375 C 4.914062 -1.578125 5.0625 -2.050781 5.0625 -2.65625 Z M 5.0625 -2.65625 "/></g></g><g transform="translate(32.213724, 264.165264)"><g><path d="M 10.234375 -2.546875 C 10.234375 -1.703125 10.070312 -1.054688 9.75 -0.609375 C 9.4375 -0.160156 8.972656 0.0625 8.359375 0.0625 C 7.742188 0.0625 7.28125 -0.15625 6.96875 -0.59375 C 6.664062 -1.03125 6.515625 -1.679688 6.515625 -2.546875 C 6.515625 -3.429688 6.660156 -4.085938 6.953125 -4.515625 C 7.253906 -4.953125 7.726562 -5.171875 8.375 -5.171875 C 9.019531 -5.171875 9.488281 -4.945312 9.78125 -4.5 C 10.082031 -4.0625 10.234375 -3.410156 10.234375 -2.546875 Z M 3.078125 0 L 2.171875 0 L 7.578125 -8.25 L 8.484375 -8.25 Z M 2.3125 -8.3125 C 2.925781 -8.3125 3.382812 -8.09375 3.6875 -7.65625 C 3.988281 -7.21875 4.140625 -6.566406 4.140625 -5.703125 C 4.140625 -4.859375 3.984375 -4.207031 3.671875 -3.75 C 3.359375 -3.289062 2.894531 -3.0625 2.28125 -3.0625 C 1.664062 -3.0625 1.203125 -3.285156 0.890625 -3.734375 C 0.578125 -4.191406 0.421875 -4.847656 0.421875 -5.703125 C 0.421875 -6.578125 0.570312 -7.226562 0.875 -7.65625 C 1.175781 -8.09375 1.65625 -8.3125 2.3125 -8.3125 Z M 9.359375 -2.546875 C 9.359375 -3.242188 9.28125 -3.75 9.125 -4.0625 C 8.976562 -4.375 8.726562 -4.53125 8.375 -4.53125 C 8.019531 -4.53125 7.765625 -4.375 7.609375 -4.0625 C 7.453125 -3.757812 7.375 -3.253906 7.375 -2.546875 C 7.375 -1.867188 7.445312 -1.367188 7.59375 -1.046875 C 7.75 -0.734375 8.007812 -0.578125 8.375 -0.578125 C 8.71875 -0.578125 8.96875 -0.738281 9.125 -1.0625 C 9.28125 -1.382812 9.359375 -1.878906 9.359375 -2.546875 Z M 3.28125 -5.703125 C 3.28125 -6.390625 3.203125 -6.890625 3.046875 -7.203125 C 2.898438 -7.523438 2.65625 -7.6875 2.3125 -7.6875 C 1.9375 -7.6875 1.671875 -7.53125 1.515625 -7.21875 C 1.359375 -6.90625 1.28125 -6.398438 1.28125 -5.703125 C 1.28125 -5.023438 1.359375 -4.523438 1.515625 -4.203125 C 1.671875 -3.890625 1.929688 -3.734375 2.296875 -3.734375 C 2.628906 -3.734375 2.875 -3.894531 3.03125 -4.21875 C 3.195312 -4.539062 3.28125 -5.035156 3.28125 -5.703125 Z M 3.28125 -5.703125 "/></g></g></g><g fill="#000000" fill-opacity="1"><g transform="translate(265.517812, 181.893581)"><g><path d="M 7.359375 -5.765625 C 7.359375 -4.984375 7.101562 -4.363281 6.59375 -3.90625 C 6.082031 -3.445312 5.390625 -3.21875 4.515625 -3.21875 L 2.09375 -3.21875 L 2.09375 0 L 0.984375 0 L 0.984375 -8.25 L 4.453125 -8.25 C 5.378906 -8.25 6.09375 -8.03125 6.59375 -7.59375 C 7.101562 -7.164062 7.359375 -6.554688 7.359375 -5.765625 Z M 6.234375 -5.75 C 6.234375 -6.8125 5.59375 -7.34375 4.3125 -7.34375 L 2.09375 -7.34375 L 2.09375 -4.09375 L 4.359375 -4.09375 C 5.609375 -4.09375 6.234375 -4.644531 6.234375 -5.75 Z M 6.234375 -5.75 "/></g></g><g transform="translate(273.514334, 181.893581)"><g><path d="M 0.828125 0 L 0.828125 -4.859375 C 0.828125 -5.304688 0.816406 -5.796875 0.796875 -6.328125 L 1.796875 -6.328125 C 1.828125 -5.609375 1.84375 -5.175781 1.84375 -5.03125 L 1.859375 -5.03125 C 2.023438 -5.582031 2.21875 -5.957031 2.4375 -6.15625 C 2.65625 -6.351562 2.960938 -6.453125 3.359375 -6.453125 C 3.503906 -6.453125 3.648438 -6.429688 3.796875 -6.390625 L 3.796875 -5.421875 C 3.648438 -5.460938 3.460938 -5.484375 3.234375 -5.484375 C 2.796875 -5.484375 2.460938 -5.296875 2.234375 -4.921875 C 2.003906 -4.546875 1.890625 -4.003906 1.890625 -3.296875 L 1.890625 0 Z M 0.828125 0 "/></g></g><g transform="translate(277.506741, 181.893581)"><g><path d="M 6.15625 -3.171875 C 6.15625 -2.066406 5.910156 -1.242188 5.421875 -0.703125 C 4.941406 -0.160156 4.238281 0.109375 3.3125 0.109375 C 2.382812 0.109375 1.679688 -0.171875 1.203125 -0.734375 C 0.734375 -1.296875 0.5 -2.109375 0.5 -3.171875 C 0.5 -5.359375 1.445312 -6.453125 3.34375 -6.453125 C 4.3125 -6.453125 5.019531 -6.179688 5.46875 -5.640625 C 5.925781 -5.109375 6.15625 -4.285156 6.15625 -3.171875 Z M 5.0625 -3.171875 C 5.0625 -4.046875 4.929688 -4.679688 4.671875 -5.078125 C 4.410156 -5.472656 3.972656 -5.671875 3.359375 -5.671875 C 2.742188 -5.671875 2.296875 -5.46875 2.015625 -5.0625 C 1.742188 -4.65625 1.609375 -4.023438 1.609375 -3.171875 C 1.609375 -2.335938 1.742188 -1.707031 2.015625 -1.28125 C 2.285156 -0.863281 2.710938 -0.65625 3.296875 -0.65625 C 3.929688 -0.65625 4.382812 -0.859375 4.65625 -1.265625 C 4.925781 -1.671875 5.0625 -2.304688 5.0625 -3.171875 Z M 5.0625 -3.171875 "/></g></g><g transform="translate(284.174412, 181.893581)"><g><path d="M 4.796875 -1.015625 C 4.609375 -0.609375 4.351562 -0.316406 4.03125 -0.140625 C 3.707031 0.0234375 3.304688 0.109375 2.828125 0.109375 C 2.023438 0.109375 1.4375 -0.15625 1.0625 -0.6875 C 0.6875 -1.226562 0.5 -2.046875 0.5 -3.140625 C 0.5 -5.347656 1.273438 -6.453125 2.828125 -6.453125 C 3.304688 -6.453125 3.707031 -6.363281 4.03125 -6.1875 C 4.351562 -6.007812 4.609375 -5.726562 4.796875 -5.34375 L 4.8125 -5.34375 L 4.796875 -6.0625 L 4.796875 -8.6875 L 5.859375 -8.6875 L 5.859375 -1.3125 C 5.859375 -0.644531 5.867188 -0.207031 5.890625 0 L 4.890625 0 C 4.878906 -0.0625 4.863281 -0.203125 4.84375 -0.421875 C 4.832031 -0.648438 4.828125 -0.847656 4.828125 -1.015625 Z M 1.609375 -3.171875 C 1.609375 -2.285156 1.722656 -1.648438 1.953125 -1.265625 C 2.191406 -0.890625 2.570312 -0.703125 3.09375 -0.703125 C 3.695312 -0.703125 4.128906 -0.90625 4.390625 -1.3125 C 4.660156 -1.726562 4.796875 -2.367188 4.796875 -3.234375 C 4.796875 -4.078125 4.660156 -4.691406 4.390625 -5.078125 C 4.128906 -5.472656 3.703125 -5.671875 3.109375 -5.671875 C 2.578125 -5.671875 2.191406 -5.472656 1.953125 -5.078125 C 1.722656 -4.691406 1.609375 -4.054688 1.609375 -3.171875 Z M 1.609375 -3.171875 "/></g></g><g transform="translate(290.842083, 181.893581)"><g><path d="M 1.84375 -6.328125 L 1.84375 -2.3125 C 1.84375 -1.894531 1.878906 -1.570312 1.953125 -1.34375 C 2.035156 -1.113281 2.164062 -0.945312 2.34375 -0.84375 C 2.53125 -0.75 2.796875 -0.703125 3.140625 -0.703125 C 3.648438 -0.703125 4.050781 -0.875 4.34375 -1.21875 C 4.632812 -1.5625 4.78125 -2.039062 4.78125 -2.65625 L 4.78125 -6.328125 L 5.828125 -6.328125 L 5.828125 -1.359375 C 5.828125 -0.617188 5.84375 -0.164062 5.875 0 L 4.875 0 C 4.875 -0.0195312 4.867188 -0.0703125 4.859375 -0.15625 C 4.859375 -0.238281 4.851562 -0.335938 4.84375 -0.453125 C 4.84375 -0.566406 4.835938 -0.773438 4.828125 -1.078125 L 4.8125 -1.078125 C 4.570312 -0.640625 4.289062 -0.332031 3.96875 -0.15625 C 3.65625 0.0195312 3.257812 0.109375 2.78125 0.109375 C 2.09375 0.109375 1.585938 -0.0625 1.265625 -0.40625 C 0.941406 -0.75 0.78125 -1.316406 0.78125 -2.109375 L 0.78125 -6.328125 Z M 1.84375 -6.328125 "/></g></g><g transform="translate(297.509754, 181.893581)"><g><path d="M 3.234375 -0.046875 C 2.890625 0.046875 2.535156 0.09375 2.171875 0.09375 C 1.328125 0.09375 0.90625 -0.382812 0.90625 -1.34375 L 0.90625 -5.5625 L 0.1875 -5.5625 L 0.1875 -6.328125 L 0.953125 -6.328125 L 1.265625 -7.75 L 1.96875 -7.75 L 1.96875 -6.328125 L 3.140625 -6.328125 L 3.140625 -5.5625 L 1.96875 -5.5625 L 1.96875 -1.5625 C 1.96875 -1.257812 2.015625 -1.046875 2.109375 -0.921875 C 2.210938 -0.804688 2.390625 -0.75 2.640625 -0.75 C 2.773438 -0.75 2.972656 -0.773438 3.234375 -0.828125 Z M 3.234375 -0.046875 "/></g></g><g transform="translate(300.840662, 181.893581)"><g><path d="M 6.15625 -3.171875 C 6.15625 -2.066406 5.910156 -1.242188 5.421875 -0.703125 C 4.941406 -0.160156 4.238281 0.109375 3.3125 0.109375 C 2.382812 0.109375 1.679688 -0.171875 1.203125 -0.734375 C 0.734375 -1.296875 0.5 -2.109375 0.5 -3.171875 C 0.5 -5.359375 1.445312 -6.453125 3.34375 -6.453125 C 4.3125 -6.453125 5.019531 -6.179688 5.46875 -5.640625 C 5.925781 -5.109375 6.15625 -4.285156 6.15625 -3.171875 Z M 5.0625 -3.171875 C 5.0625 -4.046875 4.929688 -4.679688 4.671875 -5.078125 C 4.410156 -5.472656 3.972656 -5.671875 3.359375 -5.671875 C 2.742188 -5.671875 2.296875 -5.46875 2.015625 -5.0625 C 1.742188 -4.65625 1.609375 -4.023438 1.609375 -3.171875 C 1.609375 -2.335938 1.742188 -1.707031 2.015625 -1.28125 C 2.285156 -0.863281 2.710938 -0.65625 3.296875 -0.65625 C 3.929688 -0.65625 4.382812 -0.859375 4.65625 -1.265625 C 4.925781 -1.671875 5.0625 -2.304688 5.0625 -3.171875 Z M 5.0625 -3.171875 "/></g></g><g transform="translate(307.508333, 181.893581)"><g/></g><g transform="translate(310.839242, 181.893581)"><g><path d="M 6.140625 -2.28125 C 6.140625 -1.519531 5.894531 -0.929688 5.40625 -0.515625 C 4.925781 -0.0976562 4.238281 0.109375 3.34375 0.109375 C 2.507812 0.109375 1.84375 -0.078125 1.34375 -0.453125 C 0.84375 -0.828125 0.546875 -1.382812 0.453125 -2.125 L 1.546875 -2.21875 C 1.679688 -1.238281 2.28125 -0.75 3.34375 -0.75 C 3.875 -0.75 4.289062 -0.878906 4.59375 -1.140625 C 4.894531 -1.398438 5.046875 -1.789062 5.046875 -2.3125 C 5.046875 -2.757812 4.875 -3.109375 4.53125 -3.359375 C 4.1875 -3.609375 3.6875 -3.734375 3.03125 -3.734375 L 2.4375 -3.734375 L 2.4375 -4.65625 L 3 -4.65625 C 3.582031 -4.65625 4.03125 -4.78125 4.34375 -5.03125 C 4.664062 -5.28125 4.828125 -5.628906 4.828125 -6.078125 C 4.828125 -6.515625 4.695312 -6.859375 4.4375 -7.109375 C 4.175781 -7.367188 3.789062 -7.5 3.28125 -7.5 C 2.820312 -7.5 2.445312 -7.378906 2.15625 -7.140625 C 1.863281 -6.898438 1.695312 -6.566406 1.65625 -6.140625 L 0.59375 -6.21875 C 0.675781 -6.894531 0.957031 -7.421875 1.4375 -7.796875 C 1.914062 -8.179688 2.535156 -8.375 3.296875 -8.375 C 4.117188 -8.375 4.757812 -8.179688 5.21875 -7.796875 C 5.675781 -7.410156 5.90625 -6.875 5.90625 -6.1875 C 5.90625 -5.65625 5.757812 -5.222656 5.46875 -4.890625 C 5.175781 -4.566406 4.75 -4.347656 4.1875 -4.234375 L 4.1875 -4.203125 C 4.800781 -4.140625 5.28125 -3.929688 5.625 -3.578125 C 5.96875 -3.234375 6.140625 -2.800781 6.140625 -2.28125 Z M 6.140625 -2.28125 "/></g></g></g><g fill="#000000" fill-opacity="1"><g transform="translate(274.509509, 197.17244)"><g><path d="M 0.90625 0 L 0.90625 -0.890625 L 3.015625 -0.890625 L 3.015625 -7.234375 L 1.15625 -5.90625 L 1.15625 -6.90625 L 3.09375 -8.25 L 4.078125 -8.25 L 4.078125 -0.890625 L 6.078125 -0.890625 L 6.078125 0 Z M 0.90625 0 "/></g></g><g transform="translate(281.17718, 197.17244)"><g><path d="M 6.09375 -4.296875 C 6.09375 -2.878906 5.832031 -1.789062 5.3125 -1.03125 C 4.800781 -0.269531 4.066406 0.109375 3.109375 0.109375 C 2.460938 0.109375 1.945312 -0.0234375 1.5625 -0.296875 C 1.175781 -0.566406 0.898438 -1.003906 0.734375 -1.609375 L 1.734375 -1.765625 C 1.941406 -1.078125 2.40625 -0.734375 3.125 -0.734375 C 3.726562 -0.734375 4.195312 -1.015625 4.53125 -1.578125 C 4.863281 -2.140625 5.039062 -2.941406 5.0625 -3.984375 C 4.90625 -3.628906 4.632812 -3.34375 4.25 -3.125 C 3.875 -2.914062 3.457031 -2.8125 3 -2.8125 C 2.257812 -2.8125 1.664062 -3.066406 1.21875 -3.578125 C 0.78125 -4.085938 0.5625 -4.757812 0.5625 -5.59375 C 0.5625 -6.457031 0.800781 -7.132812 1.28125 -7.625 C 1.769531 -8.125 2.445312 -8.375 3.3125 -8.375 C 4.226562 -8.375 4.921875 -8.03125 5.390625 -7.34375 C 5.859375 -6.664062 6.09375 -5.648438 6.09375 -4.296875 Z M 4.953125 -5.3125 C 4.953125 -5.96875 4.796875 -6.5 4.484375 -6.90625 C 4.179688 -7.3125 3.773438 -7.515625 3.265625 -7.515625 C 2.765625 -7.515625 2.363281 -7.34375 2.0625 -7 C 1.769531 -6.65625 1.625 -6.1875 1.625 -5.59375 C 1.625 -4.988281 1.769531 -4.507812 2.0625 -4.15625 C 2.363281 -3.8125 2.765625 -3.640625 3.265625 -3.640625 C 3.566406 -3.640625 3.847656 -3.707031 4.109375 -3.84375 C 4.367188 -3.988281 4.570312 -4.1875 4.71875 -4.4375 C 4.875 -4.695312 4.953125 -4.988281 4.953125 -5.3125 Z M 4.953125 -5.3125 "/></g></g><g transform="translate(287.844851, 197.17244)"><g><path d="M 1.09375 0 L 1.09375 -1.28125 L 2.234375 -1.28125 L 2.234375 0 Z M 1.09375 0 "/></g></g><g transform="translate(291.175759, 197.17244)"><g><path d="M 0.90625 0 L 0.90625 -0.890625 L 3.015625 -0.890625 L 3.015625 -7.234375 L 1.15625 -5.90625 L 1.15625 -6.90625 L 3.09375 -8.25 L 4.078125 -8.25 L 4.078125 -0.890625 L 6.078125 -0.890625 L 6.078125 0 Z M 0.90625 0 "/></g></g><g transform="translate(297.84343, 197.17244)"><g><path d="M 10.234375 -2.546875 C 10.234375 -1.703125 10.070312 -1.054688 9.75 -0.609375 C 9.4375 -0.160156 8.972656 0.0625 8.359375 0.0625 C 7.742188 0.0625 7.28125 -0.15625 6.96875 -0.59375 C 6.664062 -1.03125 6.515625 -1.679688 6.515625 -2.546875 C 6.515625 -3.429688 6.660156 -4.085938 6.953125 -4.515625 C 7.253906 -4.953125 7.726562 -5.171875 8.375 -5.171875 C 9.019531 -5.171875 9.488281 -4.945312 9.78125 -4.5 C 10.082031 -4.0625 10.234375 -3.410156 10.234375 -2.546875 Z M 3.078125 0 L 2.171875 0 L 7.578125 -8.25 L 8.484375 -8.25 Z M 2.3125 -8.3125 C 2.925781 -8.3125 3.382812 -8.09375 3.6875 -7.65625 C 3.988281 -7.21875 4.140625 -6.566406 4.140625 -5.703125 C 4.140625 -4.859375 3.984375 -4.207031 3.671875 -3.75 C 3.359375 -3.289062 2.894531 -3.0625 2.28125 -3.0625 C 1.664062 -3.0625 1.203125 -3.285156 0.890625 -3.734375 C 0.578125 -4.191406 0.421875 -4.847656 0.421875 -5.703125 C 0.421875 -6.578125 0.570312 -7.226562 0.875 -7.65625 C 1.175781 -8.09375 1.65625 -8.3125 2.3125 -8.3125 Z M 9.359375 -2.546875 C 9.359375 -3.242188 9.28125 -3.75 9.125 -4.0625 C 8.976562 -4.375 8.726562 -4.53125 8.375 -4.53125 C 8.019531 -4.53125 7.765625 -4.375 7.609375 -4.0625 C 7.453125 -3.757812 7.375 -3.253906 7.375 -2.546875 C 7.375 -1.867188 7.445312 -1.367188 7.59375 -1.046875 C 7.75 -0.734375 8.007812 -0.578125 8.375 -0.578125 C 8.71875 -0.578125 8.96875 -0.738281 9.125 -1.0625 C 9.28125 -1.382812 9.359375 -1.878906 9.359375 -2.546875 Z M 3.28125 -5.703125 C 3.28125 -6.390625 3.203125 -6.890625 3.046875 -7.203125 C 2.898438 -7.523438 2.65625 -7.6875 2.3125 -7.6875 C 1.9375 -7.6875 1.671875 -7.53125 1.515625 -7.21875 C 1.359375 -6.90625 1.28125 -6.398438 1.28125 -5.703125 C 1.28125 -5.023438 1.359375 -4.523438 1.515625 -4.203125 C 1.671875 -3.890625 1.929688 -3.734375 2.296875 -3.734375 C 2.628906 -3.734375 2.875 -3.894531 3.03125 -4.21875 C 3.195312 -4.539062 3.28125 -5.035156 3.28125 -5.703125 Z M 3.28125 -5.703125 "/></g></g></g><g fill="#000000" fill-opacity="1"><g transform="translate(175.753049, 12.210426)"><g><path d="M 7.359375 -5.765625 C 7.359375 -4.984375 7.101562 -4.363281 6.59375 -3.90625 C 6.082031 -3.445312 5.390625 -3.21875 4.515625 -3.21875 L 2.09375 -3.21875 L 2.09375 0 L 0.984375 0 L 0.984375 -8.25 L 4.453125 -8.25 C 5.378906 -8.25 6.09375 -8.03125 6.59375 -7.59375 C 7.101562 -7.164062 7.359375 -6.554688 7.359375 -5.765625 Z M 6.234375 -5.75 C 6.234375 -6.8125 5.59375 -7.34375 4.3125 -7.34375 L 2.09375 -7.34375 L 2.09375 -4.09375 L 4.359375 -4.09375 C 5.609375 -4.09375 6.234375 -4.644531 6.234375 -5.75 Z M 6.234375 -5.75 "/></g></g><g transform="translate(183.749571, 12.210426)"><g><path d="M 0.828125 0 L 0.828125 -4.859375 C 0.828125 -5.304688 0.816406 -5.796875 0.796875 -6.328125 L 1.796875 -6.328125 C 1.828125 -5.609375 1.84375 -5.175781 1.84375 -5.03125 L 1.859375 -5.03125 C 2.023438 -5.582031 2.21875 -5.957031 2.4375 -6.15625 C 2.65625 -6.351562 2.960938 -6.453125 3.359375 -6.453125 C 3.503906 -6.453125 3.648438 -6.429688 3.796875 -6.390625 L 3.796875 -5.421875 C 3.648438 -5.460938 3.460938 -5.484375 3.234375 -5.484375 C 2.796875 -5.484375 2.460938 -5.296875 2.234375 -4.921875 C 2.003906 -4.546875 1.890625 -4.003906 1.890625 -3.296875 L 1.890625 0 Z M 0.828125 0 "/></g></g><g transform="translate(187.741978, 12.210426)"><g><path d="M 6.15625 -3.171875 C 6.15625 -2.066406 5.910156 -1.242188 5.421875 -0.703125 C 4.941406 -0.160156 4.238281 0.109375 3.3125 0.109375 C 2.382812 0.109375 1.679688 -0.171875 1.203125 -0.734375 C 0.734375 -1.296875 0.5 -2.109375 0.5 -3.171875 C 0.5 -5.359375 1.445312 -6.453125 3.34375 -6.453125 C 4.3125 -6.453125 5.019531 -6.179688 5.46875 -5.640625 C 5.925781 -5.109375 6.15625 -4.285156 6.15625 -3.171875 Z M 5.0625 -3.171875 C 5.0625 -4.046875 4.929688 -4.679688 4.671875 -5.078125 C 4.410156 -5.472656 3.972656 -5.671875 3.359375 -5.671875 C 2.742188 -5.671875 2.296875 -5.46875 2.015625 -5.0625 C 1.742188 -4.65625 1.609375 -4.023438 1.609375 -3.171875 C 1.609375 -2.335938 1.742188 -1.707031 2.015625 -1.28125 C 2.285156 -0.863281 2.710938 -0.65625 3.296875 -0.65625 C 3.929688 -0.65625 4.382812 -0.859375 4.65625 -1.265625 C 4.925781 -1.671875 5.0625 -2.304688 5.0625 -3.171875 Z M 5.0625 -3.171875 "/></g></g><g transform="translate(194.409648, 12.210426)"><g><path d="M 4.796875 -1.015625 C 4.609375 -0.609375 4.351562 -0.316406 4.03125 -0.140625 C 3.707031 0.0234375 3.304688 0.109375 2.828125 0.109375 C 2.023438 0.109375 1.4375 -0.15625 1.0625 -0.6875 C 0.6875 -1.226562 0.5 -2.046875 0.5 -3.140625 C 0.5 -5.347656 1.273438 -6.453125 2.828125 -6.453125 C 3.304688 -6.453125 3.707031 -6.363281 4.03125 -6.1875 C 4.351562 -6.007812 4.609375 -5.726562 4.796875 -5.34375 L 4.8125 -5.34375 L 4.796875 -6.0625 L 4.796875 -8.6875 L 5.859375 -8.6875 L 5.859375 -1.3125 C 5.859375 -0.644531 5.867188 -0.207031 5.890625 0 L 4.890625 0 C 4.878906 -0.0625 4.863281 -0.203125 4.84375 -0.421875 C 4.832031 -0.648438 4.828125 -0.847656 4.828125 -1.015625 Z M 1.609375 -3.171875 C 1.609375 -2.285156 1.722656 -1.648438 1.953125 -1.265625 C 2.191406 -0.890625 2.570312 -0.703125 3.09375 -0.703125 C 3.695312 -0.703125 4.128906 -0.90625 4.390625 -1.3125 C 4.660156 -1.726562 4.796875 -2.367188 4.796875 -3.234375 C 4.796875 -4.078125 4.660156 -4.691406 4.390625 -5.078125 C 4.128906 -5.472656 3.703125 -5.671875 3.109375 -5.671875 C 2.578125 -5.671875 2.191406 -5.472656 1.953125 -5.078125 C 1.722656 -4.691406 1.609375 -4.054688 1.609375 -3.171875 Z M 1.609375 -3.171875 "/></g></g><g transform="translate(201.077319, 12.210426)"><g><path d="M 1.84375 -6.328125 L 1.84375 -2.3125 C 1.84375 -1.894531 1.878906 -1.570312 1.953125 -1.34375 C 2.035156 -1.113281 2.164062 -0.945312 2.34375 -0.84375 C 2.53125 -0.75 2.796875 -0.703125 3.140625 -0.703125 C 3.648438 -0.703125 4.050781 -0.875 4.34375 -1.21875 C 4.632812 -1.5625 4.78125 -2.039062 4.78125 -2.65625 L 4.78125 -6.328125 L 5.828125 -6.328125 L 5.828125 -1.359375 C 5.828125 -0.617188 5.84375 -0.164062 5.875 0 L 4.875 0 C 4.875 -0.0195312 4.867188 -0.0703125 4.859375 -0.15625 C 4.859375 -0.238281 4.851562 -0.335938 4.84375 -0.453125 C 4.84375 -0.566406 4.835938 -0.773438 4.828125 -1.078125 L 4.8125 -1.078125 C 4.570312 -0.640625 4.289062 -0.332031 3.96875 -0.15625 C 3.65625 0.0195312 3.257812 0.109375 2.78125 0.109375 C 2.09375 0.109375 1.585938 -0.0625 1.265625 -0.40625 C 0.941406 -0.75 0.78125 -1.316406 0.78125 -2.109375 L 0.78125 -6.328125 Z M 1.84375 -6.328125 "/></g></g><g transform="translate(207.74499, 12.210426)"><g><path d="M 3.234375 -0.046875 C 2.890625 0.046875 2.535156 0.09375 2.171875 0.09375 C 1.328125 0.09375 0.90625 -0.382812 0.90625 -1.34375 L 0.90625 -5.5625 L 0.1875 -5.5625 L 0.1875 -6.328125 L 0.953125 -6.328125 L 1.265625 -7.75 L 1.96875 -7.75 L 1.96875 -6.328125 L 3.140625 -6.328125 L 3.140625 -5.5625 L 1.96875 -5.5625 L 1.96875 -1.5625 C 1.96875 -1.257812 2.015625 -1.046875 2.109375 -0.921875 C 2.210938 -0.804688 2.390625 -0.75 2.640625 -0.75 C 2.773438 -0.75 2.972656 -0.773438 3.234375 -0.828125 Z M 3.234375 -0.046875 "/></g></g><g transform="translate(211.075899, 12.210426)"><g><path d="M 6.15625 -3.171875 C 6.15625 -2.066406 5.910156 -1.242188 5.421875 -0.703125 C 4.941406 -0.160156 4.238281 0.109375 3.3125 0.109375 C 2.382812 0.109375 1.679688 -0.171875 1.203125 -0.734375 C 0.734375 -1.296875 0.5 -2.109375 0.5 -3.171875 C 0.5 -5.359375 1.445312 -6.453125 3.34375 -6.453125 C 4.3125 -6.453125 5.019531 -6.179688 5.46875 -5.640625 C 5.925781 -5.109375 6.15625 -4.285156 6.15625 -3.171875 Z M 5.0625 -3.171875 C 5.0625 -4.046875 4.929688 -4.679688 4.671875 -5.078125 C 4.410156 -5.472656 3.972656 -5.671875 3.359375 -5.671875 C 2.742188 -5.671875 2.296875 -5.46875 2.015625 -5.0625 C 1.742188 -4.65625 1.609375 -4.023438 1.609375 -3.171875 C 1.609375 -2.335938 1.742188 -1.707031 2.015625 -1.28125 C 2.285156 -0.863281 2.710938 -0.65625 3.296875 -0.65625 C 3.929688 -0.65625 4.382812 -0.859375 4.65625 -1.265625 C 4.925781 -1.671875 5.0625 -2.304688 5.0625 -3.171875 Z M 5.0625 -3.171875 "/></g></g><g transform="translate(217.74357, 12.210426)"><g/></g><g transform="translate(221.074478, 12.210426)"><g><path d="M 0.90625 0 L 0.90625 -0.890625 L 3.015625 -0.890625 L 3.015625 -7.234375 L 1.15625 -5.90625 L 1.15625 -6.90625 L 3.09375 -8.25 L 4.078125 -8.25 L 4.078125 -0.890625 L 6.078125 -0.890625 L 6.078125 0 Z M 0.90625 0 "/></g></g></g><g fill="#000000" fill-opacity="1"><g transform="translate(184.744745, 27.500997)"><g><path d="M 0.90625 0 L 0.90625 -0.890625 L 3.015625 -0.890625 L 3.015625 -7.234375 L 1.15625 -5.90625 L 1.15625 -6.90625 L 3.09375 -8.25 L 4.078125 -8.25 L 4.078125 -0.890625 L 6.078125 -0.890625 L 6.078125 0 Z M 0.90625 0 "/></g></g><g transform="translate(191.412416, 27.500997)"><g><path d="M 6.140625 -2.28125 C 6.140625 -1.519531 5.894531 -0.929688 5.40625 -0.515625 C 4.925781 -0.0976562 4.238281 0.109375 3.34375 0.109375 C 2.507812 0.109375 1.84375 -0.078125 1.34375 -0.453125 C 0.84375 -0.828125 0.546875 -1.382812 0.453125 -2.125 L 1.546875 -2.21875 C 1.679688 -1.238281 2.28125 -0.75 3.34375 -0.75 C 3.875 -0.75 4.289062 -0.878906 4.59375 -1.140625 C 4.894531 -1.398438 5.046875 -1.789062 5.046875 -2.3125 C 5.046875 -2.757812 4.875 -3.109375 4.53125 -3.359375 C 4.1875 -3.609375 3.6875 -3.734375 3.03125 -3.734375 L 2.4375 -3.734375 L 2.4375 -4.65625 L 3 -4.65625 C 3.582031 -4.65625 4.03125 -4.78125 4.34375 -5.03125 C 4.664062 -5.28125 4.828125 -5.628906 4.828125 -6.078125 C 4.828125 -6.515625 4.695312 -6.859375 4.4375 -7.109375 C 4.175781 -7.367188 3.789062 -7.5 3.28125 -7.5 C 2.820312 -7.5 2.445312 -7.378906 2.15625 -7.140625 C 1.863281 -6.898438 1.695312 -6.566406 1.65625 -6.140625 L 0.59375 -6.21875 C 0.675781 -6.894531 0.957031 -7.421875 1.4375 -7.796875 C 1.914062 -8.179688 2.535156 -8.375 3.296875 -8.375 C 4.117188 -8.375 4.757812 -8.179688 5.21875 -7.796875 C 5.675781 -7.410156 5.90625 -6.875 5.90625 -6.1875 C 5.90625 -5.65625 5.757812 -5.222656 5.46875 -4.890625 C 5.175781 -4.566406 4.75 -4.347656 4.1875 -4.234375 L 4.1875 -4.203125 C 4.800781 -4.140625 5.28125 -3.929688 5.625 -3.578125 C 5.96875 -3.234375 6.140625 -2.800781 6.140625 -2.28125 Z M 6.140625 -2.28125 "/></g></g><g transform="translate(198.080087, 27.500997)"><g><path d="M 1.09375 0 L 1.09375 -1.28125 L 2.234375 -1.28125 L 2.234375 0 Z M 1.09375 0 "/></g></g><g transform="translate(201.410996, 27.500997)"><g><path d="M 6.15625 -2.6875 C 6.15625 -1.8125 5.894531 -1.125 5.375 -0.625 C 4.863281 -0.132812 4.148438 0.109375 3.234375 0.109375 C 2.460938 0.109375 1.84375 -0.0546875 1.375 -0.390625 C 0.90625 -0.722656 0.609375 -1.207031 0.484375 -1.84375 L 1.546875 -1.96875 C 1.765625 -1.15625 2.335938 -0.75 3.265625 -0.75 C 3.828125 -0.75 4.265625 -0.914062 4.578125 -1.25 C 4.898438 -1.59375 5.0625 -2.0625 5.0625 -2.65625 C 5.0625 -3.175781 4.898438 -3.597656 4.578125 -3.921875 C 4.265625 -4.242188 3.832031 -4.40625 3.28125 -4.40625 C 3 -4.40625 2.734375 -4.359375 2.484375 -4.265625 C 2.242188 -4.171875 2 -4.019531 1.75 -3.8125 L 0.71875 -3.8125 L 1 -8.25 L 5.6875 -8.25 L 5.6875 -7.34375 L 1.953125 -7.34375 L 1.796875 -4.734375 C 2.253906 -5.085938 2.820312 -5.265625 3.5 -5.265625 C 4.3125 -5.265625 4.957031 -5.023438 5.4375 -4.546875 C 5.914062 -4.066406 6.15625 -3.445312 6.15625 -2.6875 Z M 6.15625 -2.6875 "/></g></g><g transform="translate(208.078666, 27.500997)"><g><path d="M 10.234375 -2.546875 C 10.234375 -1.703125 10.070312 -1.054688 9.75 -0.609375 C 9.4375 -0.160156 8.972656 0.0625 8.359375 0.0625 C 7.742188 0.0625 7.28125 -0.15625 6.96875 -0.59375 C 6.664062 -1.03125 6.515625 -1.679688 6.515625 -2.546875 C 6.515625 -3.429688 6.660156 -4.085938 6.953125 -4.515625 C 7.253906 -4.953125 7.726562 -5.171875 8.375 -5.171875 C 9.019531 -5.171875 9.488281 -4.945312 9.78125 -4.5 C 10.082031 -4.0625 10.234375 -3.410156 10.234375 -2.546875 Z M 3.078125 0 L 2.171875 0 L 7.578125 -8.25 L 8.484375 -8.25 Z M 2.3125 -8.3125 C 2.925781 -8.3125 3.382812 -8.09375 3.6875 -7.65625 C 3.988281 -7.21875 4.140625 -6.566406 4.140625 -5.703125 C 4.140625 -4.859375 3.984375 -4.207031 3.671875 -3.75 C 3.359375 -3.289062 2.894531 -3.0625 2.28125 -3.0625 C 1.664062 -3.0625 1.203125 -3.285156 0.890625 -3.734375 C 0.578125 -4.191406 0.421875 -4.847656 0.421875 -5.703125 C 0.421875 -6.578125 0.570312 -7.226562 0.875 -7.65625 C 1.175781 -8.09375 1.65625 -8.3125 2.3125 -8.3125 Z M 9.359375 -2.546875 C 9.359375 -3.242188 9.28125 -3.75 9.125 -4.0625 C 8.976562 -4.375 8.726562 -4.53125 8.375 -4.53125 C 8.019531 -4.53125 7.765625 -4.375 7.609375 -4.0625 C 7.453125 -3.757812 7.375 -3.253906 7.375 -2.546875 C 7.375 -1.867188 7.445312 -1.367188 7.59375 -1.046875 C 7.75 -0.734375 8.007812 -0.578125 8.375 -0.578125 C 8.71875 -0.578125 8.96875 -0.738281 9.125 -1.0625 C 9.28125 -1.382812 9.359375 -1.878906 9.359375 -2.546875 Z M 3.28125 -5.703125 C 3.28125 -6.390625 3.203125 -6.890625 3.046875 -7.203125 C 2.898438 -7.523438 2.65625 -7.6875 2.3125 -7.6875 C 1.9375 -7.6875 1.671875 -7.53125 1.515625 -7.21875 C 1.359375 -6.90625 1.28125 -6.398438 1.28125 -5.703125 C 1.28125 -5.023438 1.359375 -4.523438 1.515625 -4.203125 C 1.671875 -3.890625 1.929688 -3.734375 2.296875 -3.734375 C 2.628906 -3.734375 2.875 -3.894531 3.03125 -4.21875 C 3.195312 -4.539062 3.28125 -5.035156 3.28125 -5.703125 Z M 3.28125 -5.703125 "/></g></g></g><g fill="#000000" fill-opacity="1"><g transform="translate(64.60959, 9.751759)"><g><path d="M 7.359375 -5.765625 C 7.359375 -4.984375 7.101562 -4.363281 6.59375 -3.90625 C 6.082031 -3.445312 5.390625 -3.21875 4.515625 -3.21875 L 2.09375 -3.21875 L 2.09375 0 L 0.984375 0 L 0.984375 -8.25 L 4.453125 -8.25 C 5.378906 -8.25 6.09375 -8.03125 6.59375 -7.59375 C 7.101562 -7.164062 7.359375 -6.554688 7.359375 -5.765625 Z M 6.234375 -5.75 C 6.234375 -6.8125 5.59375 -7.34375 4.3125 -7.34375 L 2.09375 -7.34375 L 2.09375 -4.09375 L 4.359375 -4.09375 C 5.609375 -4.09375 6.234375 -4.644531 6.234375 -5.75 Z M 6.234375 -5.75 "/></g></g><g transform="translate(72.606112, 9.751759)"><g><path d="M 0.828125 0 L 0.828125 -4.859375 C 0.828125 -5.304688 0.816406 -5.796875 0.796875 -6.328125 L 1.796875 -6.328125 C 1.828125 -5.609375 1.84375 -5.175781 1.84375 -5.03125 L 1.859375 -5.03125 C 2.023438 -5.582031 2.21875 -5.957031 2.4375 -6.15625 C 2.65625 -6.351562 2.960938 -6.453125 3.359375 -6.453125 C 3.503906 -6.453125 3.648438 -6.429688 3.796875 -6.390625 L 3.796875 -5.421875 C 3.648438 -5.460938 3.460938 -5.484375 3.234375 -5.484375 C 2.796875 -5.484375 2.460938 -5.296875 2.234375 -4.921875 C 2.003906 -4.546875 1.890625 -4.003906 1.890625 -3.296875 L 1.890625 0 Z M 0.828125 0 "/></g></g><g transform="translate(76.598519, 9.751759)"><g><path d="M 6.15625 -3.171875 C 6.15625 -2.066406 5.910156 -1.242188 5.421875 -0.703125 C 4.941406 -0.160156 4.238281 0.109375 3.3125 0.109375 C 2.382812 0.109375 1.679688 -0.171875 1.203125 -0.734375 C 0.734375 -1.296875 0.5 -2.109375 0.5 -3.171875 C 0.5 -5.359375 1.445312 -6.453125 3.34375 -6.453125 C 4.3125 -6.453125 5.019531 -6.179688 5.46875 -5.640625 C 5.925781 -5.109375 6.15625 -4.285156 6.15625 -3.171875 Z M 5.0625 -3.171875 C 5.0625 -4.046875 4.929688 -4.679688 4.671875 -5.078125 C 4.410156 -5.472656 3.972656 -5.671875 3.359375 -5.671875 C 2.742188 -5.671875 2.296875 -5.46875 2.015625 -5.0625 C 1.742188 -4.65625 1.609375 -4.023438 1.609375 -3.171875 C 1.609375 -2.335938 1.742188 -1.707031 2.015625 -1.28125 C 2.285156 -0.863281 2.710938 -0.65625 3.296875 -0.65625 C 3.929688 -0.65625 4.382812 -0.859375 4.65625 -1.265625 C 4.925781 -1.671875 5.0625 -2.304688 5.0625 -3.171875 Z M 5.0625 -3.171875 "/></g></g><g transform="translate(83.266189, 9.751759)"><g><path d="M 4.796875 -1.015625 C 4.609375 -0.609375 4.351562 -0.316406 4.03125 -0.140625 C 3.707031 0.0234375 3.304688 0.109375 2.828125 0.109375 C 2.023438 0.109375 1.4375 -0.15625 1.0625 -0.6875 C 0.6875 -1.226562 0.5 -2.046875 0.5 -3.140625 C 0.5 -5.347656 1.273438 -6.453125 2.828125 -6.453125 C 3.304688 -6.453125 3.707031 -6.363281 4.03125 -6.1875 C 4.351562 -6.007812 4.609375 -5.726562 4.796875 -5.34375 L 4.8125 -5.34375 L 4.796875 -6.0625 L 4.796875 -8.6875 L 5.859375 -8.6875 L 5.859375 -1.3125 C 5.859375 -0.644531 5.867188 -0.207031 5.890625 0 L 4.890625 0 C 4.878906 -0.0625 4.863281 -0.203125 4.84375 -0.421875 C 4.832031 -0.648438 4.828125 -0.847656 4.828125 -1.015625 Z M 1.609375 -3.171875 C 1.609375 -2.285156 1.722656 -1.648438 1.953125 -1.265625 C 2.191406 -0.890625 2.570312 -0.703125 3.09375 -0.703125 C 3.695312 -0.703125 4.128906 -0.90625 4.390625 -1.3125 C 4.660156 -1.726562 4.796875 -2.367188 4.796875 -3.234375 C 4.796875 -4.078125 4.660156 -4.691406 4.390625 -5.078125 C 4.128906 -5.472656 3.703125 -5.671875 3.109375 -5.671875 C 2.578125 -5.671875 2.191406 -5.472656 1.953125 -5.078125 C 1.722656 -4.691406 1.609375 -4.054688 1.609375 -3.171875 Z M 1.609375 -3.171875 "/></g></g><g transform="translate(89.93386, 9.751759)"><g><path d="M 1.84375 -6.328125 L 1.84375 -2.3125 C 1.84375 -1.894531 1.878906 -1.570312 1.953125 -1.34375 C 2.035156 -1.113281 2.164062 -0.945312 2.34375 -0.84375 C 2.53125 -0.75 2.796875 -0.703125 3.140625 -0.703125 C 3.648438 -0.703125 4.050781 -0.875 4.34375 -1.21875 C 4.632812 -1.5625 4.78125 -2.039062 4.78125 -2.65625 L 4.78125 -6.328125 L 5.828125 -6.328125 L 5.828125 -1.359375 C 5.828125 -0.617188 5.84375 -0.164062 5.875 0 L 4.875 0 C 4.875 -0.0195312 4.867188 -0.0703125 4.859375 -0.15625 C 4.859375 -0.238281 4.851562 -0.335938 4.84375 -0.453125 C 4.84375 -0.566406 4.835938 -0.773438 4.828125 -1.078125 L 4.8125 -1.078125 C 4.570312 -0.640625 4.289062 -0.332031 3.96875 -0.15625 C 3.65625 0.0195312 3.257812 0.109375 2.78125 0.109375 C 2.09375 0.109375 1.585938 -0.0625 1.265625 -0.40625 C 0.941406 -0.75 0.78125 -1.316406 0.78125 -2.109375 L 0.78125 -6.328125 Z M 1.84375 -6.328125 "/></g></g><g transform="translate(96.601531, 9.751759)"><g><path d="M 3.234375 -0.046875 C 2.890625 0.046875 2.535156 0.09375 2.171875 0.09375 C 1.328125 0.09375 0.90625 -0.382812 0.90625 -1.34375 L 0.90625 -5.5625 L 0.1875 -5.5625 L 0.1875 -6.328125 L 0.953125 -6.328125 L 1.265625 -7.75 L 1.96875 -7.75 L 1.96875 -6.328125 L 3.140625 -6.328125 L 3.140625 -5.5625 L 1.96875 -5.5625 L 1.96875 -1.5625 C 1.96875 -1.257812 2.015625 -1.046875 2.109375 -0.921875 C 2.210938 -0.804688 2.390625 -0.75 2.640625 -0.75 C 2.773438 -0.75 2.972656 -0.773438 3.234375 -0.828125 Z M 3.234375 -0.046875 "/></g></g><g transform="translate(99.93244, 9.751759)"><g><path d="M 6.15625 -3.171875 C 6.15625 -2.066406 5.910156 -1.242188 5.421875 -0.703125 C 4.941406 -0.160156 4.238281 0.109375 3.3125 0.109375 C 2.382812 0.109375 1.679688 -0.171875 1.203125 -0.734375 C 0.734375 -1.296875 0.5 -2.109375 0.5 -3.171875 C 0.5 -5.359375 1.445312 -6.453125 3.34375 -6.453125 C 4.3125 -6.453125 5.019531 -6.179688 5.46875 -5.640625 C 5.925781 -5.109375 6.15625 -4.285156 6.15625 -3.171875 Z M 5.0625 -3.171875 C 5.0625 -4.046875 4.929688 -4.679688 4.671875 -5.078125 C 4.410156 -5.472656 3.972656 -5.671875 3.359375 -5.671875 C 2.742188 -5.671875 2.296875 -5.46875 2.015625 -5.0625 C 1.742188 -4.65625 1.609375 -4.023438 1.609375 -3.171875 C 1.609375 -2.335938 1.742188 -1.707031 2.015625 -1.28125 C 2.285156 -0.863281 2.710938 -0.65625 3.296875 -0.65625 C 3.929688 -0.65625 4.382812 -0.859375 4.65625 -1.265625 C 4.925781 -1.671875 5.0625 -2.304688 5.0625 -3.171875 Z M 5.0625 -3.171875 "/></g></g><g transform="translate(106.60011, 9.751759)"><g/></g><g transform="translate(109.931019, 9.751759)"><g><path d="M 6.15625 -2.6875 C 6.15625 -1.8125 5.894531 -1.125 5.375 -0.625 C 4.863281 -0.132812 4.148438 0.109375 3.234375 0.109375 C 2.460938 0.109375 1.84375 -0.0546875 1.375 -0.390625 C 0.90625 -0.722656 0.609375 -1.207031 0.484375 -1.84375 L 1.546875 -1.96875 C 1.765625 -1.15625 2.335938 -0.75 3.265625 -0.75 C 3.828125 -0.75 4.265625 -0.914062 4.578125 -1.25 C 4.898438 -1.59375 5.0625 -2.0625 5.0625 -2.65625 C 5.0625 -3.175781 4.898438 -3.597656 4.578125 -3.921875 C 4.265625 -4.242188 3.832031 -4.40625 3.28125 -4.40625 C 3 -4.40625 2.734375 -4.359375 2.484375 -4.265625 C 2.242188 -4.171875 2 -4.019531 1.75 -3.8125 L 0.71875 -3.8125 L 1 -8.25 L 5.6875 -8.25 L 5.6875 -7.34375 L 1.953125 -7.34375 L 1.796875 -4.734375 C 2.253906 -5.085938 2.820312 -5.265625 3.5 -5.265625 C 4.3125 -5.265625 4.957031 -5.023438 5.4375 -4.546875 C 5.914062 -4.066406 6.15625 -3.445312 6.15625 -2.6875 Z M 6.15625 -2.6875 "/></g></g></g><g fill="#000000" fill-opacity="1"><g transform="translate(74.43255, 25.030622)"><g><path d="M 0.90625 0 L 0.90625 -0.890625 L 3.015625 -0.890625 L 3.015625 -7.234375 L 1.15625 -5.90625 L 1.15625 -6.90625 L 3.09375 -8.25 L 4.078125 -8.25 L 4.078125 -0.890625 L 6.078125 -0.890625 L 6.078125 0 Z M 0.90625 0 "/></g></g></g><g fill="#000000" fill-opacity="1"><g transform="translate(80.210418, 25.030622)"><g><path d="M 0.90625 0 L 0.90625 -0.890625 L 3.015625 -0.890625 L 3.015625 -7.234375 L 1.15625 -5.90625 L 1.15625 -6.90625 L 3.09375 -8.25 L 4.078125 -8.25 L 4.078125 -0.890625 L 6.078125 -0.890625 L 6.078125 0 Z M 0.90625 0 "/></g></g><g transform="translate(86.878088, 25.030622)"><g><path d="M 1.09375 0 L 1.09375 -1.28125 L 2.234375 -1.28125 L 2.234375 0 Z M 1.09375 0 "/></g></g><g transform="translate(90.208997, 25.030622)"><g><path d="M 0.609375 0 L 0.609375 -0.75 C 0.804688 -1.195312 1.046875 -1.59375 1.328125 -1.9375 C 1.617188 -2.289062 1.921875 -2.609375 2.234375 -2.890625 C 2.546875 -3.179688 2.859375 -3.445312 3.171875 -3.6875 C 3.484375 -3.925781 3.765625 -4.164062 4.015625 -4.40625 C 4.265625 -4.65625 4.460938 -4.910156 4.609375 -5.171875 C 4.765625 -5.441406 4.84375 -5.742188 4.84375 -6.078125 C 4.84375 -6.523438 4.710938 -6.875 4.453125 -7.125 C 4.191406 -7.375 3.820312 -7.5 3.34375 -7.5 C 2.894531 -7.5 2.523438 -7.375 2.234375 -7.125 C 1.941406 -6.882812 1.769531 -6.546875 1.71875 -6.109375 L 0.65625 -6.203125 C 0.726562 -6.867188 1.003906 -7.394531 1.484375 -7.78125 C 1.972656 -8.175781 2.59375 -8.375 3.34375 -8.375 C 4.175781 -8.375 4.816406 -8.175781 5.265625 -7.78125 C 5.710938 -7.382812 5.9375 -6.828125 5.9375 -6.109375 C 5.9375 -5.785156 5.863281 -5.46875 5.71875 -5.15625 C 5.570312 -4.84375 5.351562 -4.523438 5.0625 -4.203125 C 4.769531 -3.890625 4.21875 -3.398438 3.40625 -2.734375 C 2.957031 -2.367188 2.597656 -2.039062 2.328125 -1.75 C 2.066406 -1.457031 1.878906 -1.171875 1.765625 -0.890625 L 6.0625 -0.890625 L 6.0625 0 Z M 0.609375 0 "/></g></g><g transform="translate(96.876668, 25.030622)"><g><path d="M 10.234375 -2.546875 C 10.234375 -1.703125 10.070312 -1.054688 9.75 -0.609375 C 9.4375 -0.160156 8.972656 0.0625 8.359375 0.0625 C 7.742188 0.0625 7.28125 -0.15625 6.96875 -0.59375 C 6.664062 -1.03125 6.515625 -1.679688 6.515625 -2.546875 C 6.515625 -3.429688 6.660156 -4.085938 6.953125 -4.515625 C 7.253906 -4.953125 7.726562 -5.171875 8.375 -5.171875 C 9.019531 -5.171875 9.488281 -4.945312 9.78125 -4.5 C 10.082031 -4.0625 10.234375 -3.410156 10.234375 -2.546875 Z M 3.078125 0 L 2.171875 0 L 7.578125 -8.25 L 8.484375 -8.25 Z M 2.3125 -8.3125 C 2.925781 -8.3125 3.382812 -8.09375 3.6875 -7.65625 C 3.988281 -7.21875 4.140625 -6.566406 4.140625 -5.703125 C 4.140625 -4.859375 3.984375 -4.207031 3.671875 -3.75 C 3.359375 -3.289062 2.894531 -3.0625 2.28125 -3.0625 C 1.664062 -3.0625 1.203125 -3.285156 0.890625 -3.734375 C 0.578125 -4.191406 0.421875 -4.847656 0.421875 -5.703125 C 0.421875 -6.578125 0.570312 -7.226562 0.875 -7.65625 C 1.175781 -8.09375 1.65625 -8.3125 2.3125 -8.3125 Z M 9.359375 -2.546875 C 9.359375 -3.242188 9.28125 -3.75 9.125 -4.0625 C 8.976562 -4.375 8.726562 -4.53125 8.375 -4.53125 C 8.019531 -4.53125 7.765625 -4.375 7.609375 -4.0625 C 7.453125 -3.757812 7.375 -3.253906 7.375 -2.546875 C 7.375 -1.867188 7.445312 -1.367188 7.59375 -1.046875 C 7.75 -0.734375 8.007812 -0.578125 8.375 -0.578125 C 8.71875 -0.578125 8.96875 -0.738281 9.125 -1.0625 C 9.28125 -1.382812 9.359375 -1.878906 9.359375 -2.546875 Z M 3.28125 -5.703125 C 3.28125 -6.390625 3.203125 -6.890625 3.046875 -7.203125 C 2.898438 -7.523438 2.65625 -7.6875 2.3125 -7.6875 C 1.9375 -7.6875 1.671875 -7.53125 1.515625 -7.21875 C 1.359375 -6.90625 1.28125 -6.398438 1.28125 -5.703125 C 1.28125 -5.023438 1.359375 -4.523438 1.515625 -4.203125 C 1.671875 -3.890625 1.929688 -3.734375 2.296875 -3.734375 C 2.628906 -3.734375 2.875 -3.894531 3.03125 -4.21875 C 3.195312 -4.539062 3.28125 -5.035156 3.28125 -5.703125 Z M 3.28125 -5.703125 "/></g></g></g><g fill="#000000" fill-opacity="1"><g transform="translate(247.721746, 65.973283)"><g><path d="M 7.359375 -5.765625 C 7.359375 -4.984375 7.101562 -4.363281 6.59375 -3.90625 C 6.082031 -3.445312 5.390625 -3.21875 4.515625 -3.21875 L 2.09375 -3.21875 L 2.09375 0 L 0.984375 0 L 0.984375 -8.25 L 4.453125 -8.25 C 5.378906 -8.25 6.09375 -8.03125 6.59375 -7.59375 C 7.101562 -7.164062 7.359375 -6.554688 7.359375 -5.765625 Z M 6.234375 -5.75 C 6.234375 -6.8125 5.59375 -7.34375 4.3125 -7.34375 L 2.09375 -7.34375 L 2.09375 -4.09375 L 4.359375 -4.09375 C 5.609375 -4.09375 6.234375 -4.644531 6.234375 -5.75 Z M 6.234375 -5.75 "/></g></g><g transform="translate(255.718268, 65.973283)"><g><path d="M 0.828125 0 L 0.828125 -4.859375 C 0.828125 -5.304688 0.816406 -5.796875 0.796875 -6.328125 L 1.796875 -6.328125 C 1.828125 -5.609375 1.84375 -5.175781 1.84375 -5.03125 L 1.859375 -5.03125 C 2.023438 -5.582031 2.21875 -5.957031 2.4375 -6.15625 C 2.65625 -6.351562 2.960938 -6.453125 3.359375 -6.453125 C 3.503906 -6.453125 3.648438 -6.429688 3.796875 -6.390625 L 3.796875 -5.421875 C 3.648438 -5.460938 3.460938 -5.484375 3.234375 -5.484375 C 2.796875 -5.484375 2.460938 -5.296875 2.234375 -4.921875 C 2.003906 -4.546875 1.890625 -4.003906 1.890625 -3.296875 L 1.890625 0 Z M 0.828125 0 "/></g></g><g transform="translate(259.710675, 65.973283)"><g><path d="M 6.15625 -3.171875 C 6.15625 -2.066406 5.910156 -1.242188 5.421875 -0.703125 C 4.941406 -0.160156 4.238281 0.109375 3.3125 0.109375 C 2.382812 0.109375 1.679688 -0.171875 1.203125 -0.734375 C 0.734375 -1.296875 0.5 -2.109375 0.5 -3.171875 C 0.5 -5.359375 1.445312 -6.453125 3.34375 -6.453125 C 4.3125 -6.453125 5.019531 -6.179688 5.46875 -5.640625 C 5.925781 -5.109375 6.15625 -4.285156 6.15625 -3.171875 Z M 5.0625 -3.171875 C 5.0625 -4.046875 4.929688 -4.679688 4.671875 -5.078125 C 4.410156 -5.472656 3.972656 -5.671875 3.359375 -5.671875 C 2.742188 -5.671875 2.296875 -5.46875 2.015625 -5.0625 C 1.742188 -4.65625 1.609375 -4.023438 1.609375 -3.171875 C 1.609375 -2.335938 1.742188 -1.707031 2.015625 -1.28125 C 2.285156 -0.863281 2.710938 -0.65625 3.296875 -0.65625 C 3.929688 -0.65625 4.382812 -0.859375 4.65625 -1.265625 C 4.925781 -1.671875 5.0625 -2.304688 5.0625 -3.171875 Z M 5.0625 -3.171875 "/></g></g><g transform="translate(266.378346, 65.973283)"><g><path d="M 4.796875 -1.015625 C 4.609375 -0.609375 4.351562 -0.316406 4.03125 -0.140625 C 3.707031 0.0234375 3.304688 0.109375 2.828125 0.109375 C 2.023438 0.109375 1.4375 -0.15625 1.0625 -0.6875 C 0.6875 -1.226562 0.5 -2.046875 0.5 -3.140625 C 0.5 -5.347656 1.273438 -6.453125 2.828125 -6.453125 C 3.304688 -6.453125 3.707031 -6.363281 4.03125 -6.1875 C 4.351562 -6.007812 4.609375 -5.726562 4.796875 -5.34375 L 4.8125 -5.34375 L 4.796875 -6.0625 L 4.796875 -8.6875 L 5.859375 -8.6875 L 5.859375 -1.3125 C 5.859375 -0.644531 5.867188 -0.207031 5.890625 0 L 4.890625 0 C 4.878906 -0.0625 4.863281 -0.203125 4.84375 -0.421875 C 4.832031 -0.648438 4.828125 -0.847656 4.828125 -1.015625 Z M 1.609375 -3.171875 C 1.609375 -2.285156 1.722656 -1.648438 1.953125 -1.265625 C 2.191406 -0.890625 2.570312 -0.703125 3.09375 -0.703125 C 3.695312 -0.703125 4.128906 -0.90625 4.390625 -1.3125 C 4.660156 -1.726562 4.796875 -2.367188 4.796875 -3.234375 C 4.796875 -4.078125 4.660156 -4.691406 4.390625 -5.078125 C 4.128906 -5.472656 3.703125 -5.671875 3.109375 -5.671875 C 2.578125 -5.671875 2.191406 -5.472656 1.953125 -5.078125 C 1.722656 -4.691406 1.609375 -4.054688 1.609375 -3.171875 Z M 1.609375 -3.171875 "/></g></g><g transform="translate(273.046017, 65.973283)"><g><path d="M 1.84375 -6.328125 L 1.84375 -2.3125 C 1.84375 -1.894531 1.878906 -1.570312 1.953125 -1.34375 C 2.035156 -1.113281 2.164062 -0.945312 2.34375 -0.84375 C 2.53125 -0.75 2.796875 -0.703125 3.140625 -0.703125 C 3.648438 -0.703125 4.050781 -0.875 4.34375 -1.21875 C 4.632812 -1.5625 4.78125 -2.039062 4.78125 -2.65625 L 4.78125 -6.328125 L 5.828125 -6.328125 L 5.828125 -1.359375 C 5.828125 -0.617188 5.84375 -0.164062 5.875 0 L 4.875 0 C 4.875 -0.0195312 4.867188 -0.0703125 4.859375 -0.15625 C 4.859375 -0.238281 4.851562 -0.335938 4.84375 -0.453125 C 4.84375 -0.566406 4.835938 -0.773438 4.828125 -1.078125 L 4.8125 -1.078125 C 4.570312 -0.640625 4.289062 -0.332031 3.96875 -0.15625 C 3.65625 0.0195312 3.257812 0.109375 2.78125 0.109375 C 2.09375 0.109375 1.585938 -0.0625 1.265625 -0.40625 C 0.941406 -0.75 0.78125 -1.316406 0.78125 -2.109375 L 0.78125 -6.328125 Z M 1.84375 -6.328125 "/></g></g><g transform="translate(279.713687, 65.973283)"><g><path d="M 3.234375 -0.046875 C 2.890625 0.046875 2.535156 0.09375 2.171875 0.09375 C 1.328125 0.09375 0.90625 -0.382812 0.90625 -1.34375 L 0.90625 -5.5625 L 0.1875 -5.5625 L 0.1875 -6.328125 L 0.953125 -6.328125 L 1.265625 -7.75 L 1.96875 -7.75 L 1.96875 -6.328125 L 3.140625 -6.328125 L 3.140625 -5.5625 L 1.96875 -5.5625 L 1.96875 -1.5625 C 1.96875 -1.257812 2.015625 -1.046875 2.109375 -0.921875 C 2.210938 -0.804688 2.390625 -0.75 2.640625 -0.75 C 2.773438 -0.75 2.972656 -0.773438 3.234375 -0.828125 Z M 3.234375 -0.046875 "/></g></g><g transform="translate(283.044596, 65.973283)"><g><path d="M 6.15625 -3.171875 C 6.15625 -2.066406 5.910156 -1.242188 5.421875 -0.703125 C 4.941406 -0.160156 4.238281 0.109375 3.3125 0.109375 C 2.382812 0.109375 1.679688 -0.171875 1.203125 -0.734375 C 0.734375 -1.296875 0.5 -2.109375 0.5 -3.171875 C 0.5 -5.359375 1.445312 -6.453125 3.34375 -6.453125 C 4.3125 -6.453125 5.019531 -6.179688 5.46875 -5.640625 C 5.925781 -5.109375 6.15625 -4.285156 6.15625 -3.171875 Z M 5.0625 -3.171875 C 5.0625 -4.046875 4.929688 -4.679688 4.671875 -5.078125 C 4.410156 -5.472656 3.972656 -5.671875 3.359375 -5.671875 C 2.742188 -5.671875 2.296875 -5.46875 2.015625 -5.0625 C 1.742188 -4.65625 1.609375 -4.023438 1.609375 -3.171875 C 1.609375 -2.335938 1.742188 -1.707031 2.015625 -1.28125 C 2.285156 -0.863281 2.710938 -0.65625 3.296875 -0.65625 C 3.929688 -0.65625 4.382812 -0.859375 4.65625 -1.265625 C 4.925781 -1.671875 5.0625 -2.304688 5.0625 -3.171875 Z M 5.0625 -3.171875 "/></g></g><g transform="translate(289.712267, 65.973283)"><g/></g><g transform="translate(293.043175, 65.973283)"><g><path d="M 0.609375 0 L 0.609375 -0.75 C 0.804688 -1.195312 1.046875 -1.59375 1.328125 -1.9375 C 1.617188 -2.289062 1.921875 -2.609375 2.234375 -2.890625 C 2.546875 -3.179688 2.859375 -3.445312 3.171875 -3.6875 C 3.484375 -3.925781 3.765625 -4.164062 4.015625 -4.40625 C 4.265625 -4.65625 4.460938 -4.910156 4.609375 -5.171875 C 4.765625 -5.441406 4.84375 -5.742188 4.84375 -6.078125 C 4.84375 -6.523438 4.710938 -6.875 4.453125 -7.125 C 4.191406 -7.375 3.820312 -7.5 3.34375 -7.5 C 2.894531 -7.5 2.523438 -7.375 2.234375 -7.125 C 1.941406 -6.882812 1.769531 -6.546875 1.71875 -6.109375 L 0.65625 -6.203125 C 0.726562 -6.867188 1.003906 -7.394531 1.484375 -7.78125 C 1.972656 -8.175781 2.59375 -8.375 3.34375 -8.375 C 4.175781 -8.375 4.816406 -8.175781 5.265625 -7.78125 C 5.710938 -7.382812 5.9375 -6.828125 5.9375 -6.109375 C 5.9375 -5.785156 5.863281 -5.46875 5.71875 -5.15625 C 5.570312 -4.84375 5.351562 -4.523438 5.0625 -4.203125 C 4.769531 -3.890625 4.21875 -3.398438 3.40625 -2.734375 C 2.957031 -2.367188 2.597656 -2.039062 2.328125 -1.75 C 2.066406 -1.457031 1.878906 -1.171875 1.765625 -0.890625 L 6.0625 -0.890625 L 6.0625 0 Z M 0.609375 0 "/></g></g></g><g fill="#000000" fill-opacity="1"><g transform="translate(260.424859, 81.252142)"><g><path d="M 6.15625 -2.6875 C 6.15625 -1.8125 5.894531 -1.125 5.375 -0.625 C 4.863281 -0.132812 4.148438 0.109375 3.234375 0.109375 C 2.460938 0.109375 1.84375 -0.0546875 1.375 -0.390625 C 0.90625 -0.722656 0.609375 -1.207031 0.484375 -1.84375 L 1.546875 -1.96875 C 1.765625 -1.15625 2.335938 -0.75 3.265625 -0.75 C 3.828125 -0.75 4.265625 -0.914062 4.578125 -1.25 C 4.898438 -1.59375 5.0625 -2.0625 5.0625 -2.65625 C 5.0625 -3.175781 4.898438 -3.597656 4.578125 -3.921875 C 4.265625 -4.242188 3.832031 -4.40625 3.28125 -4.40625 C 3 -4.40625 2.734375 -4.359375 2.484375 -4.265625 C 2.242188 -4.171875 2 -4.019531 1.75 -3.8125 L 0.71875 -3.8125 L 1 -8.25 L 5.6875 -8.25 L 5.6875 -7.34375 L 1.953125 -7.34375 L 1.796875 -4.734375 C 2.253906 -5.085938 2.820312 -5.265625 3.5 -5.265625 C 4.3125 -5.265625 4.957031 -5.023438 5.4375 -4.546875 C 5.914062 -4.066406 6.15625 -3.445312 6.15625 -2.6875 Z M 6.15625 -2.6875 "/></g></g><g transform="translate(267.09253, 81.252142)"><g><path d="M 1.09375 0 L 1.09375 -1.28125 L 2.234375 -1.28125 L 2.234375 0 Z M 1.09375 0 "/></g></g><g transform="translate(270.423438, 81.252142)"><g><path d="M 6.140625 -2.703125 C 6.140625 -1.828125 5.898438 -1.140625 5.421875 -0.640625 C 4.953125 -0.140625 4.300781 0.109375 3.46875 0.109375 C 2.539062 0.109375 1.832031 -0.234375 1.34375 -0.921875 C 0.851562 -1.609375 0.609375 -2.613281 0.609375 -3.9375 C 0.609375 -5.363281 0.863281 -6.457031 1.375 -7.21875 C 1.882812 -7.988281 2.613281 -8.375 3.5625 -8.375 C 4.800781 -8.375 5.582031 -7.8125 5.90625 -6.6875 L 4.90625 -6.5 C 4.695312 -7.175781 4.242188 -7.515625 3.546875 -7.515625 C 2.941406 -7.515625 2.472656 -7.234375 2.140625 -6.671875 C 1.816406 -6.109375 1.65625 -5.300781 1.65625 -4.25 C 1.84375 -4.601562 2.109375 -4.867188 2.453125 -5.046875 C 2.804688 -5.234375 3.207031 -5.328125 3.65625 -5.328125 C 4.414062 -5.328125 5.019531 -5.085938 5.46875 -4.609375 C 5.914062 -4.140625 6.140625 -3.503906 6.140625 -2.703125 Z M 5.0625 -2.65625 C 5.0625 -3.25 4.914062 -3.707031 4.625 -4.03125 C 4.332031 -4.351562 3.925781 -4.515625 3.40625 -4.515625 C 2.914062 -4.515625 2.519531 -4.367188 2.21875 -4.078125 C 1.914062 -3.796875 1.765625 -3.40625 1.765625 -2.90625 C 1.765625 -2.269531 1.921875 -1.75 2.234375 -1.34375 C 2.546875 -0.9375 2.945312 -0.734375 3.4375 -0.734375 C 3.945312 -0.734375 4.34375 -0.898438 4.625 -1.234375 C 4.914062 -1.578125 5.0625 -2.050781 5.0625 -2.65625 Z M 5.0625 -2.65625 "/></g></g><g transform="translate(277.091109, 81.252142)"><g><path d="M 10.234375 -2.546875 C 10.234375 -1.703125 10.070312 -1.054688 9.75 -0.609375 C 9.4375 -0.160156 8.972656 0.0625 8.359375 0.0625 C 7.742188 0.0625 7.28125 -0.15625 6.96875 -0.59375 C 6.664062 -1.03125 6.515625 -1.679688 6.515625 -2.546875 C 6.515625 -3.429688 6.660156 -4.085938 6.953125 -4.515625 C 7.253906 -4.953125 7.726562 -5.171875 8.375 -5.171875 C 9.019531 -5.171875 9.488281 -4.945312 9.78125 -4.5 C 10.082031 -4.0625 10.234375 -3.410156 10.234375 -2.546875 Z M 3.078125 0 L 2.171875 0 L 7.578125 -8.25 L 8.484375 -8.25 Z M 2.3125 -8.3125 C 2.925781 -8.3125 3.382812 -8.09375 3.6875 -7.65625 C 3.988281 -7.21875 4.140625 -6.566406 4.140625 -5.703125 C 4.140625 -4.859375 3.984375 -4.207031 3.671875 -3.75 C 3.359375 -3.289062 2.894531 -3.0625 2.28125 -3.0625 C 1.664062 -3.0625 1.203125 -3.285156 0.890625 -3.734375 C 0.578125 -4.191406 0.421875 -4.847656 0.421875 -5.703125 C 0.421875 -6.578125 0.570312 -7.226562 0.875 -7.65625 C 1.175781 -8.09375 1.65625 -8.3125 2.3125 -8.3125 Z M 9.359375 -2.546875 C 9.359375 -3.242188 9.28125 -3.75 9.125 -4.0625 C 8.976562 -4.375 8.726562 -4.53125 8.375 -4.53125 C 8.019531 -4.53125 7.765625 -4.375 7.609375 -4.0625 C 7.453125 -3.757812 7.375 -3.253906 7.375 -2.546875 C 7.375 -1.867188 7.445312 -1.367188 7.59375 -1.046875 C 7.75 -0.734375 8.007812 -0.578125 8.375 -0.578125 C 8.71875 -0.578125 8.96875 -0.738281 9.125 -1.0625 C 9.28125 -1.382812 9.359375 -1.878906 9.359375 -2.546875 Z M 3.28125 -5.703125 C 3.28125 -6.390625 3.203125 -6.890625 3.046875 -7.203125 C 2.898438 -7.523438 2.65625 -7.6875 2.3125 -7.6875 C 1.9375 -7.6875 1.671875 -7.53125 1.515625 -7.21875 C 1.359375 -6.90625 1.28125 -6.398438 1.28125 -5.703125 C 1.28125 -5.023438 1.359375 -4.523438 1.515625 -4.203125 C 1.671875 -3.890625 1.929688 -3.734375 2.296875 -3.734375 C 2.628906 -3.734375 2.875 -3.894531 3.03125 -4.21875 C 3.195312 -4.539062 3.28125 -5.035156 3.28125 -5.703125 Z M 3.28125 -5.703125 "/></g></g></g></svg>