<svg xmlns="http://www.w3.org/2000/svg" xmlns:xlink="http://www.w3.org/1999/xlink" width="900" zoomAndPan="magnify" viewBox="0 0 346.5 303.749991" height="405" preserveAspectRatio="xMidYMid meet" version="1.0"><defs><g/></defs><path fill="#168639" d="M 167.640625 31.179688 C 173.839844 31.179688 180 31.65625 186.125 32.613281 C 192.246094 33.570312 198.261719 34.992188 204.164062 36.882812 C 210.066406 38.769531 215.789062 41.101562 221.332031 43.878906 C 226.871094 46.65625 232.167969 49.847656 237.210938 53.445312 L 167.640625 151.007812 Z M 167.640625 31.179688 " fill-opacity="1" fill-rule="nonzero"/><path fill="#23dd5e" d="M 237.210938 53.445312 C 239.371094 54.984375 241.476562 56.59375 243.53125 58.273438 C 245.582031 59.953125 247.578125 61.699219 249.511719 63.511719 C 251.449219 65.324219 253.324219 67.195312 255.136719 69.132812 C 256.949219 71.070312 258.695312 73.0625 260.375 75.117188 C 262.054688 77.167969 263.664062 79.273438 265.203125 81.433594 C 266.742188 83.59375 268.207031 85.800781 269.601562 88.058594 C 270.996094 90.316406 272.3125 92.613281 273.550781 94.957031 C 274.792969 97.304688 275.953125 99.683594 277.035156 102.105469 C 278.117188 104.527344 279.117188 106.980469 280.039062 109.46875 C 280.957031 111.957031 281.792969 114.472656 282.546875 117.015625 C 283.296875 119.558594 283.964844 122.125 284.546875 124.710938 C 285.128906 127.296875 285.625 129.902344 286.035156 132.523438 C 286.441406 135.144531 286.765625 137.773438 287 140.414062 C 287.234375 143.058594 287.378906 145.703125 287.4375 148.355469 C 287.496094 151.007812 287.46875 153.65625 287.351562 156.304688 C 287.234375 158.957031 287.027344 161.597656 286.734375 164.234375 C 286.441406 166.871094 286.0625 169.492188 285.59375 172.105469 C 285.128906 174.714844 284.574219 177.308594 283.9375 179.878906 C 283.296875 182.453125 282.574219 185.003906 281.765625 187.53125 C 280.957031 190.054688 280.066406 192.550781 279.09375 195.019531 C 278.117188 197.484375 277.0625 199.917969 275.925781 202.3125 C 274.792969 204.710938 273.578125 207.066406 272.285156 209.382812 C 270.996094 211.699219 269.625 213.96875 268.183594 216.195312 C 266.742188 218.417969 265.226562 220.59375 263.640625 222.71875 C 262.050781 224.84375 260.394531 226.914062 258.671875 228.929688 C 256.945312 230.941406 255.15625 232.898438 253.304688 234.792969 C 251.449219 236.691406 249.535156 238.523438 247.558594 240.292969 C 245.582031 242.058594 243.550781 243.761719 241.460938 245.394531 C 239.371094 247.027344 237.230469 248.589844 235.039062 250.082031 C 232.84375 251.574219 230.605469 252.992188 228.316406 254.335938 C 226.03125 255.675781 223.703125 256.941406 221.332031 258.132812 C 218.960938 259.320312 216.550781 260.429688 214.109375 261.457031 L 167.640625 151.007812 Z M 237.210938 53.445312 " fill-opacity="1" fill-rule="nonzero"/><path fill="#1fc353" d="M 214.109375 261.457031 C 205.929688 264.898438 197.472656 267.398438 188.738281 268.960938 C 180.003906 270.523438 171.203125 271.109375 162.339844 270.714844 L 167.640625 151.007812 Z M 214.109375 261.457031 " fill-opacity="1" fill-rule="nonzero"/><path fill="#8fd29e" d="M 162.339844 270.714844 C 159.582031 270.59375 156.828125 270.375 154.082031 270.0625 C 151.339844 269.75 148.605469 269.34375 145.890625 268.84375 C 143.175781 268.339844 140.476562 267.746094 137.800781 267.058594 C 135.125 266.371094 132.476562 265.589844 129.855469 264.71875 C 127.234375 263.847656 124.644531 262.886719 122.089844 261.839844 C 119.535156 260.789062 117.019531 259.652344 114.542969 258.425781 C 112.066406 257.203125 109.636719 255.894531 107.25 254.503906 C 104.863281 253.109375 102.527344 251.636719 100.242188 250.082031 C 97.960938 248.527344 95.730469 246.898438 93.558594 245.191406 C 91.390625 243.480469 89.277344 241.703125 87.230469 239.847656 C 85.183594 237.992188 83.199219 236.070312 81.285156 234.082031 C 79.371094 232.089844 77.527344 230.035156 75.753906 227.917969 C 73.980469 225.796875 72.28125 223.621094 70.660156 221.386719 C 69.035156 219.148438 67.492188 216.859375 66.027344 214.515625 C 64.566406 212.175781 63.183594 209.785156 61.882812 207.347656 C 60.585938 204.90625 59.371094 202.425781 58.246094 199.90625 C 57.117188 197.382812 56.078125 194.824219 55.128906 192.230469 C 54.179688 189.636719 53.316406 187.015625 52.550781 184.359375 C 51.78125 181.707031 51.105469 179.03125 50.519531 176.328125 C 49.9375 173.628906 49.445312 170.914062 49.050781 168.179688 C 48.65625 165.445312 48.351562 162.699219 48.148438 159.945312 C 47.941406 157.191406 47.832031 154.429688 47.816406 151.667969 C 47.800781 148.90625 47.878906 146.144531 48.054688 143.390625 C 48.230469 140.632812 48.503906 137.886719 48.867188 135.144531 C 49.234375 132.40625 49.691406 129.6875 50.246094 126.980469 C 50.800781 124.273438 51.449219 121.589844 52.1875 118.925781 C 52.925781 116.265625 53.757812 113.632812 54.679688 111.027344 C 55.601562 108.421875 56.613281 105.855469 57.710938 103.320312 C 58.808594 100.785156 59.996094 98.292969 61.269531 95.839844 C 62.539062 93.386719 63.894531 90.980469 65.332031 88.621094 C 66.769531 86.265625 68.289062 83.957031 69.886719 81.703125 C 71.484375 79.449219 73.160156 77.253906 74.90625 75.117188 L 167.640625 151.007812 Z M 162.339844 270.714844 " fill-opacity="1" fill-rule="nonzero"/><path fill="#00faa4" d="M 74.90625 75.117188 C 77.707031 71.695312 80.691406 68.4375 83.851562 65.34375 C 87.011719 62.253906 90.335938 59.34375 93.820312 56.621094 C 97.300781 53.894531 100.925781 51.371094 104.6875 49.046875 C 108.453125 46.722656 112.332031 44.617188 116.328125 42.722656 C 120.324219 40.828125 124.414062 39.160156 128.59375 37.71875 C 132.773438 36.277344 137.023438 35.074219 141.335938 34.101562 C 145.652344 33.128906 150.007812 32.402344 154.402344 31.914062 C 158.796875 31.425781 163.207031 31.179688 167.628906 31.179688 L 167.640625 151.007812 Z M 74.90625 75.117188 " fill-opacity="1" fill-rule="nonzero"/><g fill="#000000" fill-opacity="1"><g transform="translate(-0.515234, 211.23554)"><g><path d="M 7.359375 -5.765625 C 7.359375 -4.984375 7.101562 -4.363281 6.59375 -3.90625 C 6.082031 -3.445312 5.390625 -3.21875 4.515625 -3.21875 L 2.09375 -3.21875 L 2.09375 0 L 0.984375 0 L 0.984375 -8.25 L 4.453125 -8.25 C 5.378906 -8.25 6.09375 -8.03125 6.59375 -7.59375 C 7.101562 -7.164062 7.359375 -6.554688 7.359375 -5.765625 Z M 6.234375 -5.75 C 6.234375 -6.8125 5.59375 -7.34375 4.3125 -7.34375 L 2.09375 -7.34375 L 2.09375 -4.09375 L 4.359375 -4.09375 C 5.609375 -4.09375 6.234375 -4.644531 6.234375 -5.75 Z M 6.234375 -5.75 "/></g></g><g transform="translate(7.477139, 211.23554)"><g><path d="M 0.828125 0 L 0.828125 -4.859375 C 0.828125 -5.304688 0.816406 -5.796875 0.796875 -6.328125 L 1.796875 -6.328125 C 1.828125 -5.609375 1.84375 -5.175781 1.84375 -5.03125 L 1.859375 -5.03125 C 2.023438 -5.582031 2.21875 -5.957031 2.4375 -6.15625 C 2.65625 -6.351562 2.960938 -6.453125 3.359375 -6.453125 C 3.503906 -6.453125 3.648438 -6.429688 3.796875 -6.390625 L 3.796875 -5.421875 C 3.648438 -5.460938 3.460938 -5.484375 3.234375 -5.484375 C 2.796875 -5.484375 2.460938 -5.296875 2.234375 -4.921875 C 2.003906 -4.546875 1.890625 -4.003906 1.890625 -3.296875 L 1.890625 0 Z M 0.828125 0 "/></g></g><g transform="translate(11.467474, 211.23554)"><g><path d="M 6.15625 -3.171875 C 6.15625 -2.066406 5.910156 -1.242188 5.421875 -0.703125 C 4.941406 -0.160156 4.238281 0.109375 3.3125 0.109375 C 2.382812 0.109375 1.679688 -0.171875 1.203125 -0.734375 C 0.734375 -1.296875 0.5 -2.109375 0.5 -3.171875 C 0.5 -5.359375 1.445312 -6.453125 3.34375 -6.453125 C 4.3125 -6.453125 5.019531 -6.179688 5.46875 -5.640625 C 5.925781 -5.109375 6.15625 -4.285156 6.15625 -3.171875 Z M 5.0625 -3.171875 C 5.0625 -4.046875 4.929688 -4.679688 4.671875 -5.078125 C 4.410156 -5.472656 3.972656 -5.671875 3.359375 -5.671875 C 2.742188 -5.671875 2.296875 -5.46875 2.015625 -5.0625 C 1.742188 -4.65625 1.609375 -4.023438 1.609375 -3.171875 C 1.609375 -2.335938 1.742188 -1.707031 2.015625 -1.28125 C 2.285156 -0.863281 2.710938 -0.65625 3.296875 -0.65625 C 3.929688 -0.65625 4.382812 -0.859375 4.65625 -1.265625 C 4.925781 -1.671875 5.0625 -2.304688 5.0625 -3.171875 Z M 5.0625 -3.171875 "/></g></g><g transform="translate(18.131686, 211.23554)"><g><path d="M 4.796875 -1.015625 C 4.609375 -0.609375 4.351562 -0.316406 4.03125 -0.140625 C 3.707031 0.0234375 3.304688 0.109375 2.828125 0.109375 C 2.023438 0.109375 1.4375 -0.15625 1.0625 -0.6875 C 0.6875 -1.226562 0.5 -2.046875 0.5 -3.140625 C 0.5 -5.347656 1.273438 -6.453125 2.828125 -6.453125 C 3.304688 -6.453125 3.707031 -6.363281 4.03125 -6.1875 C 4.351562 -6.007812 4.609375 -5.726562 4.796875 -5.34375 L 4.8125 -5.34375 L 4.796875 -6.0625 L 4.796875 -8.6875 L 5.859375 -8.6875 L 5.859375 -1.3125 C 5.859375 -0.644531 5.867188 -0.207031 5.890625 0 L 4.890625 0 C 4.878906 -0.0625 4.863281 -0.203125 4.84375 -0.421875 C 4.832031 -0.648438 4.828125 -0.847656 4.828125 -1.015625 Z M 1.609375 -3.171875 C 1.609375 -2.285156 1.722656 -1.648438 1.953125 -1.265625 C 2.191406 -0.890625 2.570312 -0.703125 3.09375 -0.703125 C 3.695312 -0.703125 4.128906 -0.90625 4.390625 -1.3125 C 4.660156 -1.726562 4.796875 -2.367188 4.796875 -3.234375 C 4.796875 -4.078125 4.660156 -4.691406 4.390625 -5.078125 C 4.128906 -5.472656 3.703125 -5.671875 3.109375 -5.671875 C 2.578125 -5.671875 2.191406 -5.472656 1.953125 -5.078125 C 1.722656 -4.691406 1.609375 -4.054688 1.609375 -3.171875 Z M 1.609375 -3.171875 "/></g></g><g transform="translate(24.795897, 211.23554)"><g><path d="M 1.84375 -6.328125 L 1.84375 -2.3125 C 1.84375 -1.894531 1.878906 -1.570312 1.953125 -1.34375 C 2.035156 -1.113281 2.164062 -0.945312 2.34375 -0.84375 C 2.53125 -0.75 2.796875 -0.703125 3.140625 -0.703125 C 3.648438 -0.703125 4.050781 -0.875 4.34375 -1.21875 C 4.632812 -1.5625 4.78125 -2.039062 4.78125 -2.65625 L 4.78125 -6.328125 L 5.828125 -6.328125 L 5.828125 -1.359375 C 5.828125 -0.617188 5.84375 -0.164062 5.875 0 L 4.875 0 C 4.875 -0.0195312 4.867188 -0.0703125 4.859375 -0.15625 C 4.859375 -0.238281 4.851562 -0.335938 4.84375 -0.453125 C 4.84375 -0.566406 4.835938 -0.773438 4.828125 -1.078125 L 4.8125 -1.078125 C 4.570312 -0.640625 4.289062 -0.332031 3.96875 -0.15625 C 3.65625 0.0195312 3.257812 0.109375 2.78125 0.109375 C 2.09375 0.109375 1.585938 -0.0625 1.265625 -0.40625 C 0.941406 -0.75 0.78125 -1.316406 0.78125 -2.109375 L 0.78125 -6.328125 Z M 1.84375 -6.328125 "/></g></g><g transform="translate(31.460108, 211.23554)"><g><path d="M 3.234375 -0.046875 C 2.890625 0.046875 2.535156 0.09375 2.171875 0.09375 C 1.328125 0.09375 0.90625 -0.382812 0.90625 -1.34375 L 0.90625 -5.5625 L 0.1875 -5.5625 L 0.1875 -6.328125 L 0.953125 -6.328125 L 1.265625 -7.75 L 1.96875 -7.75 L 1.96875 -6.328125 L 3.140625 -6.328125 L 3.140625 -5.5625 L 1.96875 -5.5625 L 1.96875 -1.5625 C 1.96875 -1.257812 2.015625 -1.046875 2.109375 -0.921875 C 2.210938 -0.804688 2.390625 -0.75 2.640625 -0.75 C 2.773438 -0.75 2.972656 -0.773438 3.234375 -0.828125 Z M 3.234375 -0.046875 "/></g></g><g transform="translate(34.789289, 211.23554)"><g><path d="M 6.15625 -3.171875 C 6.15625 -2.066406 5.910156 -1.242188 5.421875 -0.703125 C 4.941406 -0.160156 4.238281 0.109375 3.3125 0.109375 C 2.382812 0.109375 1.679688 -0.171875 1.203125 -0.734375 C 0.734375 -1.296875 0.5 -2.109375 0.5 -3.171875 C 0.5 -5.359375 1.445312 -6.453125 3.34375 -6.453125 C 4.3125 -6.453125 5.019531 -6.179688 5.46875 -5.640625 C 5.925781 -5.109375 6.15625 -4.285156 6.15625 -3.171875 Z M 5.0625 -3.171875 C 5.0625 -4.046875 4.929688 -4.679688 4.671875 -5.078125 C 4.410156 -5.472656 3.972656 -5.671875 3.359375 -5.671875 C 2.742188 -5.671875 2.296875 -5.46875 2.015625 -5.0625 C 1.742188 -4.65625 1.609375 -4.023438 1.609375 -3.171875 C 1.609375 -2.335938 1.742188 -1.707031 2.015625 -1.28125 C 2.285156 -0.863281 2.710938 -0.65625 3.296875 -0.65625 C 3.929688 -0.65625 4.382812 -0.859375 4.65625 -1.265625 C 4.925781 -1.671875 5.0625 -2.304688 5.0625 -3.171875 Z M 5.0625 -3.171875 "/></g></g><g transform="translate(41.4535, 211.23554)"><g/></g><g transform="translate(44.78268, 211.23554)"><g><path d="M 5.15625 -1.859375 L 5.15625 0 L 4.15625 0 L 4.15625 -1.859375 L 0.28125 -1.859375 L 0.28125 -2.6875 L 4.046875 -8.25 L 5.15625 -8.25 L 5.15625 -2.703125 L 6.3125 -2.703125 L 6.3125 -1.859375 Z M 4.15625 -7.0625 C 4.15625 -7.03125 4.101562 -6.921875 4 -6.734375 C 3.894531 -6.554688 3.816406 -6.429688 3.765625 -6.359375 L 1.65625 -3.25 L 1.34375 -2.8125 L 1.25 -2.703125 L 4.15625 -2.703125 Z M 4.15625 -7.0625 "/></g></g></g><g fill="#000000" fill-opacity="1"><g transform="translate(8.857955, 226.518174)"><g><path d="M 6.140625 -2.28125 C 6.140625 -1.519531 5.894531 -0.929688 5.40625 -0.515625 C 4.925781 -0.0976562 4.238281 0.109375 3.34375 0.109375 C 2.507812 0.109375 1.84375 -0.078125 1.34375 -0.453125 C 0.84375 -0.828125 0.546875 -1.382812 0.453125 -2.125 L 1.546875 -2.21875 C 1.679688 -1.238281 2.28125 -0.75 3.34375 -0.75 C 3.875 -0.75 4.289062 -0.878906 4.59375 -1.140625 C 4.894531 -1.398438 5.046875 -1.789062 5.046875 -2.3125 C 5.046875 -2.757812 4.875 -3.109375 4.53125 -3.359375 C 4.1875 -3.609375 3.6875 -3.734375 3.03125 -3.734375 L 2.4375 -3.734375 L 2.4375 -4.65625 L 3 -4.65625 C 3.582031 -4.65625 4.03125 -4.78125 4.34375 -5.03125 C 4.664062 -5.28125 4.828125 -5.628906 4.828125 -6.078125 C 4.828125 -6.515625 4.695312 -6.859375 4.4375 -7.109375 C 4.175781 -7.367188 3.789062 -7.5 3.28125 -7.5 C 2.820312 -7.5 2.445312 -7.378906 2.15625 -7.140625 C 1.863281 -6.898438 1.695312 -6.566406 1.65625 -6.140625 L 0.59375 -6.21875 C 0.675781 -6.894531 0.957031 -7.421875 1.4375 -7.796875 C 1.914062 -8.179688 2.535156 -8.375 3.296875 -8.375 C 4.117188 -8.375 4.757812 -8.179688 5.21875 -7.796875 C 5.675781 -7.410156 5.90625 -6.875 5.90625 -6.1875 C 5.90625 -5.65625 5.757812 -5.222656 5.46875 -4.890625 C 5.175781 -4.566406 4.75 -4.347656 4.1875 -4.234375 L 4.1875 -4.203125 C 4.800781 -4.140625 5.28125 -3.929688 5.625 -3.578125 C 5.96875 -3.234375 6.140625 -2.800781 6.140625 -2.28125 Z M 6.140625 -2.28125 "/></g></g><g transform="translate(15.522166, 226.518174)"><g><path d="M 6.15625 -2.6875 C 6.15625 -1.8125 5.894531 -1.125 5.375 -0.625 C 4.863281 -0.132812 4.148438 0.109375 3.234375 0.109375 C 2.460938 0.109375 1.84375 -0.0546875 1.375 -0.390625 C 0.90625 -0.722656 0.609375 -1.207031 0.484375 -1.84375 L 1.546875 -1.96875 C 1.765625 -1.15625 2.335938 -0.75 3.265625 -0.75 C 3.828125 -0.75 4.265625 -0.914062 4.578125 -1.25 C 4.898438 -1.59375 5.0625 -2.0625 5.0625 -2.65625 C 5.0625 -3.175781 4.898438 -3.597656 4.578125 -3.921875 C 4.265625 -4.242188 3.832031 -4.40625 3.28125 -4.40625 C 3 -4.40625 2.734375 -4.359375 2.484375 -4.265625 C 2.242188 -4.171875 2 -4.019531 1.75 -3.8125 L 0.71875 -3.8125 L 1 -8.25 L 5.6875 -8.25 L 5.6875 -7.34375 L 1.953125 -7.34375 L 1.796875 -4.734375 C 2.253906 -5.085938 2.820312 -5.265625 3.5 -5.265625 C 4.3125 -5.265625 4.957031 -5.023438 5.4375 -4.546875 C 5.914062 -4.066406 6.15625 -3.445312 6.15625 -2.6875 Z M 6.15625 -2.6875 "/></g></g><g transform="translate(22.186378, 226.518174)"><g><path d="M 1.09375 0 L 1.09375 -1.28125 L 2.234375 -1.28125 L 2.234375 0 Z M 1.09375 0 "/></g></g><g transform="translate(25.515558, 226.518174)"><g><path d="M 0.609375 0 L 0.609375 -0.75 C 0.804688 -1.195312 1.046875 -1.59375 1.328125 -1.9375 C 1.617188 -2.289062 1.921875 -2.609375 2.234375 -2.890625 C 2.546875 -3.179688 2.859375 -3.445312 3.171875 -3.6875 C 3.484375 -3.925781 3.765625 -4.164062 4.015625 -4.40625 C 4.265625 -4.65625 4.460938 -4.910156 4.609375 -5.171875 C 4.765625 -5.441406 4.84375 -5.742188 4.84375 -6.078125 C 4.84375 -6.523438 4.710938 -6.875 4.453125 -7.125 C 4.191406 -7.375 3.820312 -7.5 3.34375 -7.5 C 2.894531 -7.5 2.523438 -7.375 2.234375 -7.125 C 1.941406 -6.882812 1.769531 -6.546875 1.71875 -6.109375 L 0.65625 -6.203125 C 0.726562 -6.867188 1.003906 -7.394531 1.484375 -7.78125 C 1.972656 -8.175781 2.59375 -8.375 3.34375 -8.375 C 4.175781 -8.375 4.816406 -8.175781 5.265625 -7.78125 C 5.710938 -7.382812 5.9375 -6.828125 5.9375 -6.109375 C 5.9375 -5.785156 5.863281 -5.46875 5.71875 -5.15625 C 5.570312 -4.84375 5.351562 -4.523438 5.0625 -4.203125 C 4.769531 -3.890625 4.21875 -3.398438 3.40625 -2.734375 C 2.957031 -2.367188 2.597656 -2.039062 2.328125 -1.75 C 2.066406 -1.457031 1.878906 -1.171875 1.765625 -0.890625 L 6.0625 -0.890625 L 6.0625 0 Z M 0.609375 0 "/></g></g><g transform="translate(32.179769, 226.518174)"><g><path d="M 10.234375 -2.546875 C 10.234375 -1.703125 10.070312 -1.054688 9.75 -0.609375 C 9.4375 -0.160156 8.972656 0.0625 8.359375 0.0625 C 7.742188 0.0625 7.28125 -0.15625 6.96875 -0.59375 C 6.664062 -1.03125 6.515625 -1.679688 6.515625 -2.546875 C 6.515625 -3.429688 6.660156 -4.085938 6.953125 -4.515625 C 7.253906 -4.953125 7.726562 -5.171875 8.375 -5.171875 C 9.019531 -5.171875 9.488281 -4.945312 9.78125 -4.5 C 10.082031 -4.0625 10.234375 -3.410156 10.234375 -2.546875 Z M 3.078125 0 L 2.171875 0 L 7.578125 -8.25 L 8.484375 -8.25 Z M 2.3125 -8.3125 C 2.925781 -8.3125 3.382812 -8.09375 3.6875 -7.65625 C 3.988281 -7.21875 4.140625 -6.566406 4.140625 -5.703125 C 4.140625 -4.859375 3.984375 -4.207031 3.671875 -3.75 C 3.359375 -3.289062 2.894531 -3.0625 2.28125 -3.0625 C 1.664062 -3.0625 1.203125 -3.285156 0.890625 -3.734375 C 0.578125 -4.191406 0.421875 -4.847656 0.421875 -5.703125 C 0.421875 -6.578125 0.570312 -7.226562 0.875 -7.65625 C 1.175781 -8.09375 1.65625 -8.3125 2.3125 -8.3125 Z M 9.359375 -2.546875 C 9.359375 -3.242188 9.28125 -3.75 9.125 -4.0625 C 8.976562 -4.375 8.726562 -4.53125 8.375 -4.53125 C 8.019531 -4.53125 7.765625 -4.375 7.609375 -4.0625 C 7.453125 -3.757812 7.375 -3.253906 7.375 -2.546875 C 7.375 -1.867188 7.445312 -1.367188 7.59375 -1.046875 C 7.75 -0.734375 8.007812 -0.578125 8.375 -0.578125 C 8.71875 -0.578125 8.96875 -0.738281 9.125 -1.0625 C 9.28125 -1.382812 9.359375 -1.878906 9.359375 -2.546875 Z M 3.28125 -5.703125 C 3.28125 -6.390625 3.203125 -6.890625 3.046875 -7.203125 C 2.898438 -7.523438 2.65625 -7.6875 2.3125 -7.6875 C 1.9375 -7.6875 1.671875 -7.53125 1.515625 -7.21875 C 1.359375 -6.90625 1.28125 -6.398438 1.28125 -5.703125 C 1.28125 -5.023438 1.359375 -4.523438 1.515625 -4.203125 C 1.671875 -3.890625 1.929688 -3.734375 2.296875 -3.734375 C 2.628906 -3.734375 2.875 -3.894531 3.03125 -4.21875 C 3.195312 -4.539062 3.28125 -5.035156 3.28125 -5.703125 Z M 3.28125 -5.703125 "/></g></g></g><g fill="#000000" fill-opacity="1"><g transform="translate(293.540903, 164.76744)"><g><path d="M 7.359375 -5.765625 C 7.359375 -4.984375 7.101562 -4.363281 6.59375 -3.90625 C 6.082031 -3.445312 5.390625 -3.21875 4.515625 -3.21875 L 2.09375 -3.21875 L 2.09375 0 L 0.984375 0 L 0.984375 -8.25 L 4.453125 -8.25 C 5.378906 -8.25 6.09375 -8.03125 6.59375 -7.59375 C 7.101562 -7.164062 7.359375 -6.554688 7.359375 -5.765625 Z M 6.234375 -5.75 C 6.234375 -6.8125 5.59375 -7.34375 4.3125 -7.34375 L 2.09375 -7.34375 L 2.09375 -4.09375 L 4.359375 -4.09375 C 5.609375 -4.09375 6.234375 -4.644531 6.234375 -5.75 Z M 6.234375 -5.75 "/></g></g><g transform="translate(301.533276, 164.76744)"><g><path d="M 0.828125 0 L 0.828125 -4.859375 C 0.828125 -5.304688 0.816406 -5.796875 0.796875 -6.328125 L 1.796875 -6.328125 C 1.828125 -5.609375 1.84375 -5.175781 1.84375 -5.03125 L 1.859375 -5.03125 C 2.023438 -5.582031 2.21875 -5.957031 2.4375 -6.15625 C 2.65625 -6.351562 2.960938 -6.453125 3.359375 -6.453125 C 3.503906 -6.453125 3.648438 -6.429688 3.796875 -6.390625 L 3.796875 -5.421875 C 3.648438 -5.460938 3.460938 -5.484375 3.234375 -5.484375 C 2.796875 -5.484375 2.460938 -5.296875 2.234375 -4.921875 C 2.003906 -4.546875 1.890625 -4.003906 1.890625 -3.296875 L 1.890625 0 Z M 0.828125 0 "/></g></g><g transform="translate(305.523611, 164.76744)"><g><path d="M 6.15625 -3.171875 C 6.15625 -2.066406 5.910156 -1.242188 5.421875 -0.703125 C 4.941406 -0.160156 4.238281 0.109375 3.3125 0.109375 C 2.382812 0.109375 1.679688 -0.171875 1.203125 -0.734375 C 0.734375 -1.296875 0.5 -2.109375 0.5 -3.171875 C 0.5 -5.359375 1.445312 -6.453125 3.34375 -6.453125 C 4.3125 -6.453125 5.019531 -6.179688 5.46875 -5.640625 C 5.925781 -5.109375 6.15625 -4.285156 6.15625 -3.171875 Z M 5.0625 -3.171875 C 5.0625 -4.046875 4.929688 -4.679688 4.671875 -5.078125 C 4.410156 -5.472656 3.972656 -5.671875 3.359375 -5.671875 C 2.742188 -5.671875 2.296875 -5.46875 2.015625 -5.0625 C 1.742188 -4.65625 1.609375 -4.023438 1.609375 -3.171875 C 1.609375 -2.335938 1.742188 -1.707031 2.015625 -1.28125 C 2.285156 -0.863281 2.710938 -0.65625 3.296875 -0.65625 C 3.929688 -0.65625 4.382812 -0.859375 4.65625 -1.265625 C 4.925781 -1.671875 5.0625 -2.304688 5.0625 -3.171875 Z M 5.0625 -3.171875 "/></g></g><g transform="translate(312.187823, 164.76744)"><g><path d="M 4.796875 -1.015625 C 4.609375 -0.609375 4.351562 -0.316406 4.03125 -0.140625 C 3.707031 0.0234375 3.304688 0.109375 2.828125 0.109375 C 2.023438 0.109375 1.4375 -0.15625 1.0625 -0.6875 C 0.6875 -1.226562 0.5 -2.046875 0.5 -3.140625 C 0.5 -5.347656 1.273438 -6.453125 2.828125 -6.453125 C 3.304688 -6.453125 3.707031 -6.363281 4.03125 -6.1875 C 4.351562 -6.007812 4.609375 -5.726562 4.796875 -5.34375 L 4.8125 -5.34375 L 4.796875 -6.0625 L 4.796875 -8.6875 L 5.859375 -8.6875 L 5.859375 -1.3125 C 5.859375 -0.644531 5.867188 -0.207031 5.890625 0 L 4.890625 0 C 4.878906 -0.0625 4.863281 -0.203125 4.84375 -0.421875 C 4.832031 -0.648438 4.828125 -0.847656 4.828125 -1.015625 Z M 1.609375 -3.171875 C 1.609375 -2.285156 1.722656 -1.648438 1.953125 -1.265625 C 2.191406 -0.890625 2.570312 -0.703125 3.09375 -0.703125 C 3.695312 -0.703125 4.128906 -0.90625 4.390625 -1.3125 C 4.660156 -1.726562 4.796875 -2.367188 4.796875 -3.234375 C 4.796875 -4.078125 4.660156 -4.691406 4.390625 -5.078125 C 4.128906 -5.472656 3.703125 -5.671875 3.109375 -5.671875 C 2.578125 -5.671875 2.191406 -5.472656 1.953125 -5.078125 C 1.722656 -4.691406 1.609375 -4.054688 1.609375 -3.171875 Z M 1.609375 -3.171875 "/></g></g><g transform="translate(318.852034, 164.76744)"><g><path d="M 1.84375 -6.328125 L 1.84375 -2.3125 C 1.84375 -1.894531 1.878906 -1.570312 1.953125 -1.34375 C 2.035156 -1.113281 2.164062 -0.945312 2.34375 -0.84375 C 2.53125 -0.75 2.796875 -0.703125 3.140625 -0.703125 C 3.648438 -0.703125 4.050781 -0.875 4.34375 -1.21875 C 4.632812 -1.5625 4.78125 -2.039062 4.78125 -2.65625 L 4.78125 -6.328125 L 5.828125 -6.328125 L 5.828125 -1.359375 C 5.828125 -0.617188 5.84375 -0.164062 5.875 0 L 4.875 0 C 4.875 -0.0195312 4.867188 -0.0703125 4.859375 -0.15625 C 4.859375 -0.238281 4.851562 -0.335938 4.84375 -0.453125 C 4.84375 -0.566406 4.835938 -0.773438 4.828125 -1.078125 L 4.8125 -1.078125 C 4.570312 -0.640625 4.289062 -0.332031 3.96875 -0.15625 C 3.65625 0.0195312 3.257812 0.109375 2.78125 0.109375 C 2.09375 0.109375 1.585938 -0.0625 1.265625 -0.40625 C 0.941406 -0.75 0.78125 -1.316406 0.78125 -2.109375 L 0.78125 -6.328125 Z M 1.84375 -6.328125 "/></g></g><g transform="translate(325.516245, 164.76744)"><g><path d="M 3.234375 -0.046875 C 2.890625 0.046875 2.535156 0.09375 2.171875 0.09375 C 1.328125 0.09375 0.90625 -0.382812 0.90625 -1.34375 L 0.90625 -5.5625 L 0.1875 -5.5625 L 0.1875 -6.328125 L 0.953125 -6.328125 L 1.265625 -7.75 L 1.96875 -7.75 L 1.96875 -6.328125 L 3.140625 -6.328125 L 3.140625 -5.5625 L 1.96875 -5.5625 L 1.96875 -1.5625 C 1.96875 -1.257812 2.015625 -1.046875 2.109375 -0.921875 C 2.210938 -0.804688 2.390625 -0.75 2.640625 -0.75 C 2.773438 -0.75 2.972656 -0.773438 3.234375 -0.828125 Z M 3.234375 -0.046875 "/></g></g><g transform="translate(328.845425, 164.76744)"><g><path d="M 6.15625 -3.171875 C 6.15625 -2.066406 5.910156 -1.242188 5.421875 -0.703125 C 4.941406 -0.160156 4.238281 0.109375 3.3125 0.109375 C 2.382812 0.109375 1.679688 -0.171875 1.203125 -0.734375 C 0.734375 -1.296875 0.5 -2.109375 0.5 -3.171875 C 0.5 -5.359375 1.445312 -6.453125 3.34375 -6.453125 C 4.3125 -6.453125 5.019531 -6.179688 5.46875 -5.640625 C 5.925781 -5.109375 6.15625 -4.285156 6.15625 -3.171875 Z M 5.0625 -3.171875 C 5.0625 -4.046875 4.929688 -4.679688 4.671875 -5.078125 C 4.410156 -5.472656 3.972656 -5.671875 3.359375 -5.671875 C 2.742188 -5.671875 2.296875 -5.46875 2.015625 -5.0625 C 1.742188 -4.65625 1.609375 -4.023438 1.609375 -3.171875 C 1.609375 -2.335938 1.742188 -1.707031 2.015625 -1.28125 C 2.285156 -0.863281 2.710938 -0.65625 3.296875 -0.65625 C 3.929688 -0.65625 4.382812 -0.859375 4.65625 -1.265625 C 4.925781 -1.671875 5.0625 -2.304688 5.0625 -3.171875 Z M 5.0625 -3.171875 "/></g></g><g transform="translate(335.509637, 164.76744)"><g/></g><g transform="translate(338.838817, 164.76744)"><g><path d="M 0.609375 0 L 0.609375 -0.75 C 0.804688 -1.195312 1.046875 -1.59375 1.328125 -1.9375 C 1.617188 -2.289062 1.921875 -2.609375 2.234375 -2.890625 C 2.546875 -3.179688 2.859375 -3.445312 3.171875 -3.6875 C 3.484375 -3.925781 3.765625 -4.164062 4.015625 -4.40625 C 4.265625 -4.65625 4.460938 -4.910156 4.609375 -5.171875 C 4.765625 -5.441406 4.84375 -5.742188 4.84375 -6.078125 C 4.84375 -6.523438 4.710938 -6.875 4.453125 -7.125 C 4.191406 -7.375 3.820312 -7.5 3.34375 -7.5 C 2.894531 -7.5 2.523438 -7.375 2.234375 -7.125 C 1.941406 -6.882812 1.769531 -6.546875 1.71875 -6.109375 L 0.65625 -6.203125 C 0.726562 -6.867188 1.003906 -7.394531 1.484375 -7.78125 C 1.972656 -8.175781 2.59375 -8.375 3.34375 -8.375 C 4.175781 -8.375 4.816406 -8.175781 5.265625 -7.78125 C 5.710938 -7.382812 5.9375 -6.828125 5.9375 -6.109375 C 5.9375 -5.785156 5.863281 -5.46875 5.71875 -5.15625 C 5.570312 -4.84375 5.351562 -4.523438 5.0625 -4.203125 C 4.769531 -3.890625 4.21875 -3.398438 3.40625 -2.734375 C 2.957031 -2.367188 2.597656 -2.039062 2.328125 -1.75 C 2.066406 -1.457031 1.878906 -1.171875 1.765625 -0.890625 L 6.0625 -0.890625 L 6.0625 0 Z M 0.609375 0 "/></g></g></g><g fill="#000000" fill-opacity="1"><g transform="translate(302.902394, 180.050074)"><g><path d="M 6.140625 -2.28125 C 6.140625 -1.519531 5.894531 -0.929688 5.40625 -0.515625 C 4.925781 -0.0976562 4.238281 0.109375 3.34375 0.109375 C 2.507812 0.109375 1.84375 -0.078125 1.34375 -0.453125 C 0.84375 -0.828125 0.546875 -1.382812 0.453125 -2.125 L 1.546875 -2.21875 C 1.679688 -1.238281 2.28125 -0.75 3.34375 -0.75 C 3.875 -0.75 4.289062 -0.878906 4.59375 -1.140625 C 4.894531 -1.398438 5.046875 -1.789062 5.046875 -2.3125 C 5.046875 -2.757812 4.875 -3.109375 4.53125 -3.359375 C 4.1875 -3.609375 3.6875 -3.734375 3.03125 -3.734375 L 2.4375 -3.734375 L 2.4375 -4.65625 L 3 -4.65625 C 3.582031 -4.65625 4.03125 -4.78125 4.34375 -5.03125 C 4.664062 -5.28125 4.828125 -5.628906 4.828125 -6.078125 C 4.828125 -6.515625 4.695312 -6.859375 4.4375 -7.109375 C 4.175781 -7.367188 3.789062 -7.5 3.28125 -7.5 C 2.820312 -7.5 2.445312 -7.378906 2.15625 -7.140625 C 1.863281 -6.898438 1.695312 -6.566406 1.65625 -6.140625 L 0.59375 -6.21875 C 0.675781 -6.894531 0.957031 -7.421875 1.4375 -7.796875 C 1.914062 -8.179688 2.535156 -8.375 3.296875 -8.375 C 4.117188 -8.375 4.757812 -8.179688 5.21875 -7.796875 C 5.675781 -7.410156 5.90625 -6.875 5.90625 -6.1875 C 5.90625 -5.65625 5.757812 -5.222656 5.46875 -4.890625 C 5.175781 -4.566406 4.75 -4.347656 4.1875 -4.234375 L 4.1875 -4.203125 C 4.800781 -4.140625 5.28125 -3.929688 5.625 -3.578125 C 5.96875 -3.234375 6.140625 -2.800781 6.140625 -2.28125 Z M 6.140625 -2.28125 "/></g></g><g transform="translate(309.566605, 180.050074)"><g><path d="M 6.140625 -2.28125 C 6.140625 -1.519531 5.894531 -0.929688 5.40625 -0.515625 C 4.925781 -0.0976562 4.238281 0.109375 3.34375 0.109375 C 2.507812 0.109375 1.84375 -0.078125 1.34375 -0.453125 C 0.84375 -0.828125 0.546875 -1.382812 0.453125 -2.125 L 1.546875 -2.21875 C 1.679688 -1.238281 2.28125 -0.75 3.34375 -0.75 C 3.875 -0.75 4.289062 -0.878906 4.59375 -1.140625 C 4.894531 -1.398438 5.046875 -1.789062 5.046875 -2.3125 C 5.046875 -2.757812 4.875 -3.109375 4.53125 -3.359375 C 4.1875 -3.609375 3.6875 -3.734375 3.03125 -3.734375 L 2.4375 -3.734375 L 2.4375 -4.65625 L 3 -4.65625 C 3.582031 -4.65625 4.03125 -4.78125 4.34375 -5.03125 C 4.664062 -5.28125 4.828125 -5.628906 4.828125 -6.078125 C 4.828125 -6.515625 4.695312 -6.859375 4.4375 -7.109375 C 4.175781 -7.367188 3.789062 -7.5 3.28125 -7.5 C 2.820312 -7.5 2.445312 -7.378906 2.15625 -7.140625 C 1.863281 -6.898438 1.695312 -6.566406 1.65625 -6.140625 L 0.59375 -6.21875 C 0.675781 -6.894531 0.957031 -7.421875 1.4375 -7.796875 C 1.914062 -8.179688 2.535156 -8.375 3.296875 -8.375 C 4.117188 -8.375 4.757812 -8.179688 5.21875 -7.796875 C 5.675781 -7.410156 5.90625 -6.875 5.90625 -6.1875 C 5.90625 -5.65625 5.757812 -5.222656 5.46875 -4.890625 C 5.175781 -4.566406 4.75 -4.347656 4.1875 -4.234375 L 4.1875 -4.203125 C 4.800781 -4.140625 5.28125 -3.929688 5.625 -3.578125 C 5.96875 -3.234375 6.140625 -2.800781 6.140625 -2.28125 Z M 6.140625 -2.28125 "/></g></g><g transform="translate(316.230816, 180.050074)"><g><path d="M 1.09375 0 L 1.09375 -1.28125 L 2.234375 -1.28125 L 2.234375 0 Z M 1.09375 0 "/></g></g><g transform="translate(319.559997, 180.050074)"><g><path d="M 6.140625 -2.296875 C 6.140625 -1.535156 5.894531 -0.941406 5.40625 -0.515625 C 4.925781 -0.0976562 4.234375 0.109375 3.328125 0.109375 C 2.453125 0.109375 1.765625 -0.0976562 1.265625 -0.515625 C 0.765625 -0.929688 0.515625 -1.519531 0.515625 -2.28125 C 0.515625 -2.820312 0.671875 -3.273438 0.984375 -3.640625 C 1.296875 -4.015625 1.691406 -4.238281 2.171875 -4.3125 L 2.171875 -4.34375 C 1.722656 -4.445312 1.367188 -4.671875 1.109375 -5.015625 C 0.847656 -5.367188 0.71875 -5.78125 0.71875 -6.25 C 0.71875 -6.882812 0.953125 -7.394531 1.421875 -7.78125 C 1.890625 -8.175781 2.519531 -8.375 3.3125 -8.375 C 4.125 -8.375 4.765625 -8.179688 5.234375 -7.796875 C 5.703125 -7.410156 5.9375 -6.894531 5.9375 -6.25 C 5.9375 -5.769531 5.804688 -5.351562 5.546875 -5 C 5.285156 -4.65625 4.929688 -4.4375 4.484375 -4.34375 L 4.484375 -4.328125 C 5.003906 -4.242188 5.410156 -4.019531 5.703125 -3.65625 C 5.992188 -3.289062 6.140625 -2.835938 6.140625 -2.296875 Z M 4.84375 -6.1875 C 4.84375 -7.113281 4.332031 -7.578125 3.3125 -7.578125 C 2.8125 -7.578125 2.429688 -7.457031 2.171875 -7.21875 C 1.921875 -6.988281 1.796875 -6.644531 1.796875 -6.1875 C 1.796875 -5.71875 1.925781 -5.359375 2.1875 -5.109375 C 2.457031 -4.859375 2.835938 -4.734375 3.328125 -4.734375 C 3.816406 -4.734375 4.191406 -4.847656 4.453125 -5.078125 C 4.710938 -5.304688 4.84375 -5.675781 4.84375 -6.1875 Z M 5.046875 -2.40625 C 5.046875 -2.914062 4.894531 -3.296875 4.59375 -3.546875 C 4.289062 -3.804688 3.863281 -3.9375 3.3125 -3.9375 C 2.78125 -3.9375 2.363281 -3.796875 2.0625 -3.515625 C 1.757812 -3.242188 1.609375 -2.863281 1.609375 -2.375 C 1.609375 -1.238281 2.1875 -0.671875 3.34375 -0.671875 C 3.914062 -0.671875 4.34375 -0.804688 4.625 -1.078125 C 4.90625 -1.359375 5.046875 -1.800781 5.046875 -2.40625 Z M 5.046875 -2.40625 "/></g></g><g transform="translate(326.224208, 180.050074)"><g><path d="M 10.234375 -2.546875 C 10.234375 -1.703125 10.070312 -1.054688 9.75 -0.609375 C 9.4375 -0.160156 8.972656 0.0625 8.359375 0.0625 C 7.742188 0.0625 7.28125 -0.15625 6.96875 -0.59375 C 6.664062 -1.03125 6.515625 -1.679688 6.515625 -2.546875 C 6.515625 -3.429688 6.660156 -4.085938 6.953125 -4.515625 C 7.253906 -4.953125 7.726562 -5.171875 8.375 -5.171875 C 9.019531 -5.171875 9.488281 -4.945312 9.78125 -4.5 C 10.082031 -4.0625 10.234375 -3.410156 10.234375 -2.546875 Z M 3.078125 0 L 2.171875 0 L 7.578125 -8.25 L 8.484375 -8.25 Z M 2.3125 -8.3125 C 2.925781 -8.3125 3.382812 -8.09375 3.6875 -7.65625 C 3.988281 -7.21875 4.140625 -6.566406 4.140625 -5.703125 C 4.140625 -4.859375 3.984375 -4.207031 3.671875 -3.75 C 3.359375 -3.289062 2.894531 -3.0625 2.28125 -3.0625 C 1.664062 -3.0625 1.203125 -3.285156 0.890625 -3.734375 C 0.578125 -4.191406 0.421875 -4.847656 0.421875 -5.703125 C 0.421875 -6.578125 0.570312 -7.226562 0.875 -7.65625 C 1.175781 -8.09375 1.65625 -8.3125 2.3125 -8.3125 Z M 9.359375 -2.546875 C 9.359375 -3.242188 9.28125 -3.75 9.125 -4.0625 C 8.976562 -4.375 8.726562 -4.53125 8.375 -4.53125 C 8.019531 -4.53125 7.765625 -4.375 7.609375 -4.0625 C 7.453125 -3.757812 7.375 -3.253906 7.375 -2.546875 C 7.375 -1.867188 7.445312 -1.367188 7.59375 -1.046875 C 7.75 -0.734375 8.007812 -0.578125 8.375 -0.578125 C 8.71875 -0.578125 8.96875 -0.738281 9.125 -1.0625 C 9.28125 -1.382812 9.359375 -1.878906 9.359375 -2.546875 Z M 3.28125 -5.703125 C 3.28125 -6.390625 3.203125 -6.890625 3.046875 -7.203125 C 2.898438 -7.523438 2.65625 -7.6875 2.3125 -7.6875 C 1.9375 -7.6875 1.671875 -7.53125 1.515625 -7.21875 C 1.359375 -6.90625 1.28125 -6.398438 1.28125 -5.703125 C 1.28125 -5.023438 1.359375 -4.523438 1.515625 -4.203125 C 1.671875 -3.890625 1.929688 -3.734375 2.296875 -3.734375 C 2.628906 -3.734375 2.875 -3.894531 3.03125 -4.21875 C 3.195312 -4.539062 3.28125 -5.035156 3.28125 -5.703125 Z M 3.28125 -5.703125 "/></g></g></g><g fill="#000000" fill-opacity="1"><g transform="translate(77.945762, 14.187857)"><g><path d="M 7.359375 -5.765625 C 7.359375 -4.984375 7.101562 -4.363281 6.59375 -3.90625 C 6.082031 -3.445312 5.390625 -3.21875 4.515625 -3.21875 L 2.09375 -3.21875 L 2.09375 0 L 0.984375 0 L 0.984375 -8.25 L 4.453125 -8.25 C 5.378906 -8.25 6.09375 -8.03125 6.59375 -7.59375 C 7.101562 -7.164062 7.359375 -6.554688 7.359375 -5.765625 Z M 6.234375 -5.75 C 6.234375 -6.8125 5.59375 -7.34375 4.3125 -7.34375 L 2.09375 -7.34375 L 2.09375 -4.09375 L 4.359375 -4.09375 C 5.609375 -4.09375 6.234375 -4.644531 6.234375 -5.75 Z M 6.234375 -5.75 "/></g></g><g transform="translate(85.938135, 14.187857)"><g><path d="M 0.828125 0 L 0.828125 -4.859375 C 0.828125 -5.304688 0.816406 -5.796875 0.796875 -6.328125 L 1.796875 -6.328125 C 1.828125 -5.609375 1.84375 -5.175781 1.84375 -5.03125 L 1.859375 -5.03125 C 2.023438 -5.582031 2.21875 -5.957031 2.4375 -6.15625 C 2.65625 -6.351562 2.960938 -6.453125 3.359375 -6.453125 C 3.503906 -6.453125 3.648438 -6.429688 3.796875 -6.390625 L 3.796875 -5.421875 C 3.648438 -5.460938 3.460938 -5.484375 3.234375 -5.484375 C 2.796875 -5.484375 2.460938 -5.296875 2.234375 -4.921875 C 2.003906 -4.546875 1.890625 -4.003906 1.890625 -3.296875 L 1.890625 0 Z M 0.828125 0 "/></g></g><g transform="translate(89.928471, 14.187857)"><g><path d="M 6.15625 -3.171875 C 6.15625 -2.066406 5.910156 -1.242188 5.421875 -0.703125 C 4.941406 -0.160156 4.238281 0.109375 3.3125 0.109375 C 2.382812 0.109375 1.679688 -0.171875 1.203125 -0.734375 C 0.734375 -1.296875 0.5 -2.109375 0.5 -3.171875 C 0.5 -5.359375 1.445312 -6.453125 3.34375 -6.453125 C 4.3125 -6.453125 5.019531 -6.179688 5.46875 -5.640625 C 5.925781 -5.109375 6.15625 -4.285156 6.15625 -3.171875 Z M 5.0625 -3.171875 C 5.0625 -4.046875 4.929688 -4.679688 4.671875 -5.078125 C 4.410156 -5.472656 3.972656 -5.671875 3.359375 -5.671875 C 2.742188 -5.671875 2.296875 -5.46875 2.015625 -5.0625 C 1.742188 -4.65625 1.609375 -4.023438 1.609375 -3.171875 C 1.609375 -2.335938 1.742188 -1.707031 2.015625 -1.28125 C 2.285156 -0.863281 2.710938 -0.65625 3.296875 -0.65625 C 3.929688 -0.65625 4.382812 -0.859375 4.65625 -1.265625 C 4.925781 -1.671875 5.0625 -2.304688 5.0625 -3.171875 Z M 5.0625 -3.171875 "/></g></g><g transform="translate(96.592682, 14.187857)"><g><path d="M 4.796875 -1.015625 C 4.609375 -0.609375 4.351562 -0.316406 4.03125 -0.140625 C 3.707031 0.0234375 3.304688 0.109375 2.828125 0.109375 C 2.023438 0.109375 1.4375 -0.15625 1.0625 -0.6875 C 0.6875 -1.226562 0.5 -2.046875 0.5 -3.140625 C 0.5 -5.347656 1.273438 -6.453125 2.828125 -6.453125 C 3.304688 -6.453125 3.707031 -6.363281 4.03125 -6.1875 C 4.351562 -6.007812 4.609375 -5.726562 4.796875 -5.34375 L 4.8125 -5.34375 L 4.796875 -6.0625 L 4.796875 -8.6875 L 5.859375 -8.6875 L 5.859375 -1.3125 C 5.859375 -0.644531 5.867188 -0.207031 5.890625 0 L 4.890625 0 C 4.878906 -0.0625 4.863281 -0.203125 4.84375 -0.421875 C 4.832031 -0.648438 4.828125 -0.847656 4.828125 -1.015625 Z M 1.609375 -3.171875 C 1.609375 -2.285156 1.722656 -1.648438 1.953125 -1.265625 C 2.191406 -0.890625 2.570312 -0.703125 3.09375 -0.703125 C 3.695312 -0.703125 4.128906 -0.90625 4.390625 -1.3125 C 4.660156 -1.726562 4.796875 -2.367188 4.796875 -3.234375 C 4.796875 -4.078125 4.660156 -4.691406 4.390625 -5.078125 C 4.128906 -5.472656 3.703125 -5.671875 3.109375 -5.671875 C 2.578125 -5.671875 2.191406 -5.472656 1.953125 -5.078125 C 1.722656 -4.691406 1.609375 -4.054688 1.609375 -3.171875 Z M 1.609375 -3.171875 "/></g></g><g transform="translate(103.256893, 14.187857)"><g><path d="M 1.84375 -6.328125 L 1.84375 -2.3125 C 1.84375 -1.894531 1.878906 -1.570312 1.953125 -1.34375 C 2.035156 -1.113281 2.164062 -0.945312 2.34375 -0.84375 C 2.53125 -0.75 2.796875 -0.703125 3.140625 -0.703125 C 3.648438 -0.703125 4.050781 -0.875 4.34375 -1.21875 C 4.632812 -1.5625 4.78125 -2.039062 4.78125 -2.65625 L 4.78125 -6.328125 L 5.828125 -6.328125 L 5.828125 -1.359375 C 5.828125 -0.617188 5.84375 -0.164062 5.875 0 L 4.875 0 C 4.875 -0.0195312 4.867188 -0.0703125 4.859375 -0.15625 C 4.859375 -0.238281 4.851562 -0.335938 4.84375 -0.453125 C 4.84375 -0.566406 4.835938 -0.773438 4.828125 -1.078125 L 4.8125 -1.078125 C 4.570312 -0.640625 4.289062 -0.332031 3.96875 -0.15625 C 3.65625 0.0195312 3.257812 0.109375 2.78125 0.109375 C 2.09375 0.109375 1.585938 -0.0625 1.265625 -0.40625 C 0.941406 -0.75 0.78125 -1.316406 0.78125 -2.109375 L 0.78125 -6.328125 Z M 1.84375 -6.328125 "/></g></g><g transform="translate(109.921105, 14.187857)"><g><path d="M 3.234375 -0.046875 C 2.890625 0.046875 2.535156 0.09375 2.171875 0.09375 C 1.328125 0.09375 0.90625 -0.382812 0.90625 -1.34375 L 0.90625 -5.5625 L 0.1875 -5.5625 L 0.1875 -6.328125 L 0.953125 -6.328125 L 1.265625 -7.75 L 1.96875 -7.75 L 1.96875 -6.328125 L 3.140625 -6.328125 L 3.140625 -5.5625 L 1.96875 -5.5625 L 1.96875 -1.5625 C 1.96875 -1.257812 2.015625 -1.046875 2.109375 -0.921875 C 2.210938 -0.804688 2.390625 -0.75 2.640625 -0.75 C 2.773438 -0.75 2.972656 -0.773438 3.234375 -0.828125 Z M 3.234375 -0.046875 "/></g></g><g transform="translate(113.250285, 14.187857)"><g><path d="M 6.15625 -3.171875 C 6.15625 -2.066406 5.910156 -1.242188 5.421875 -0.703125 C 4.941406 -0.160156 4.238281 0.109375 3.3125 0.109375 C 2.382812 0.109375 1.679688 -0.171875 1.203125 -0.734375 C 0.734375 -1.296875 0.5 -2.109375 0.5 -3.171875 C 0.5 -5.359375 1.445312 -6.453125 3.34375 -6.453125 C 4.3125 -6.453125 5.019531 -6.179688 5.46875 -5.640625 C 5.925781 -5.109375 6.15625 -4.285156 6.15625 -3.171875 Z M 5.0625 -3.171875 C 5.0625 -4.046875 4.929688 -4.679688 4.671875 -5.078125 C 4.410156 -5.472656 3.972656 -5.671875 3.359375 -5.671875 C 2.742188 -5.671875 2.296875 -5.46875 2.015625 -5.0625 C 1.742188 -4.65625 1.609375 -4.023438 1.609375 -3.171875 C 1.609375 -2.335938 1.742188 -1.707031 2.015625 -1.28125 C 2.285156 -0.863281 2.710938 -0.65625 3.296875 -0.65625 C 3.929688 -0.65625 4.382812 -0.859375 4.65625 -1.265625 C 4.925781 -1.671875 5.0625 -2.304688 5.0625 -3.171875 Z M 5.0625 -3.171875 "/></g></g><g transform="translate(119.914496, 14.187857)"><g/></g><g transform="translate(123.243676, 14.187857)"><g><path d="M 6.15625 -2.6875 C 6.15625 -1.8125 5.894531 -1.125 5.375 -0.625 C 4.863281 -0.132812 4.148438 0.109375 3.234375 0.109375 C 2.460938 0.109375 1.84375 -0.0546875 1.375 -0.390625 C 0.90625 -0.722656 0.609375 -1.207031 0.484375 -1.84375 L 1.546875 -1.96875 C 1.765625 -1.15625 2.335938 -0.75 3.265625 -0.75 C 3.828125 -0.75 4.265625 -0.914062 4.578125 -1.25 C 4.898438 -1.59375 5.0625 -2.0625 5.0625 -2.65625 C 5.0625 -3.175781 4.898438 -3.597656 4.578125 -3.921875 C 4.265625 -4.242188 3.832031 -4.40625 3.28125 -4.40625 C 3 -4.40625 2.734375 -4.359375 2.484375 -4.265625 C 2.242188 -4.171875 2 -4.019531 1.75 -3.8125 L 0.71875 -3.8125 L 1 -8.25 L 5.6875 -8.25 L 5.6875 -7.34375 L 1.953125 -7.34375 L 1.796875 -4.734375 C 2.253906 -5.085938 2.820312 -5.265625 3.5 -5.265625 C 4.3125 -5.265625 4.957031 -5.023438 5.4375 -4.546875 C 5.914062 -4.066406 6.15625 -3.445312 6.15625 -2.6875 Z M 6.15625 -2.6875 "/></g></g></g><g fill="#000000" fill-opacity="1"><g transform="translate(86.944495, 29.470491)"><g><path d="M 0.90625 0 L 0.90625 -0.890625 L 3.015625 -0.890625 L 3.015625 -7.234375 L 1.15625 -5.90625 L 1.15625 -6.90625 L 3.09375 -8.25 L 4.078125 -8.25 L 4.078125 -0.890625 L 6.078125 -0.890625 L 6.078125 0 Z M 0.90625 0 "/></g></g><g transform="translate(93.608707, 29.470491)"><g><path d="M 5.15625 -1.859375 L 5.15625 0 L 4.15625 0 L 4.15625 -1.859375 L 0.28125 -1.859375 L 0.28125 -2.6875 L 4.046875 -8.25 L 5.15625 -8.25 L 5.15625 -2.703125 L 6.3125 -2.703125 L 6.3125 -1.859375 Z M 4.15625 -7.0625 C 4.15625 -7.03125 4.101562 -6.921875 4 -6.734375 C 3.894531 -6.554688 3.816406 -6.429688 3.765625 -6.359375 L 1.65625 -3.25 L 1.34375 -2.8125 L 1.25 -2.703125 L 4.15625 -2.703125 Z M 4.15625 -7.0625 "/></g></g><g transform="translate(100.272918, 29.470491)"><g><path d="M 1.09375 0 L 1.09375 -1.28125 L 2.234375 -1.28125 L 2.234375 0 Z M 1.09375 0 "/></g></g><g transform="translate(103.602098, 29.470491)"><g><path d="M 0.90625 0 L 0.90625 -0.890625 L 3.015625 -0.890625 L 3.015625 -7.234375 L 1.15625 -5.90625 L 1.15625 -6.90625 L 3.09375 -8.25 L 4.078125 -8.25 L 4.078125 -0.890625 L 6.078125 -0.890625 L 6.078125 0 Z M 0.90625 0 "/></g></g><g transform="translate(110.26631, 29.470491)"><g><path d="M 10.234375 -2.546875 C 10.234375 -1.703125 10.070312 -1.054688 9.75 -0.609375 C 9.4375 -0.160156 8.972656 0.0625 8.359375 0.0625 C 7.742188 0.0625 7.28125 -0.15625 6.96875 -0.59375 C 6.664062 -1.03125 6.515625 -1.679688 6.515625 -2.546875 C 6.515625 -3.429688 6.660156 -4.085938 6.953125 -4.515625 C 7.253906 -4.953125 7.726562 -5.171875 8.375 -5.171875 C 9.019531 -5.171875 9.488281 -4.945312 9.78125 -4.5 C 10.082031 -4.0625 10.234375 -3.410156 10.234375 -2.546875 Z M 3.078125 0 L 2.171875 0 L 7.578125 -8.25 L 8.484375 -8.25 Z M 2.3125 -8.3125 C 2.925781 -8.3125 3.382812 -8.09375 3.6875 -7.65625 C 3.988281 -7.21875 4.140625 -6.566406 4.140625 -5.703125 C 4.140625 -4.859375 3.984375 -4.207031 3.671875 -3.75 C 3.359375 -3.289062 2.894531 -3.0625 2.28125 -3.0625 C 1.664062 -3.0625 1.203125 -3.285156 0.890625 -3.734375 C 0.578125 -4.191406 0.421875 -4.847656 0.421875 -5.703125 C 0.421875 -6.578125 0.570312 -7.226562 0.875 -7.65625 C 1.175781 -8.09375 1.65625 -8.3125 2.3125 -8.3125 Z M 9.359375 -2.546875 C 9.359375 -3.242188 9.28125 -3.75 9.125 -4.0625 C 8.976562 -4.375 8.726562 -4.53125 8.375 -4.53125 C 8.019531 -4.53125 7.765625 -4.375 7.609375 -4.0625 C 7.453125 -3.757812 7.375 -3.253906 7.375 -2.546875 C 7.375 -1.867188 7.445312 -1.367188 7.59375 -1.046875 C 7.75 -0.734375 8.007812 -0.578125 8.375 -0.578125 C 8.71875 -0.578125 8.96875 -0.738281 9.125 -1.0625 C 9.28125 -1.382812 9.359375 -1.878906 9.359375 -2.546875 Z M 3.28125 -5.703125 C 3.28125 -6.390625 3.203125 -6.890625 3.046875 -7.203125 C 2.898438 -7.523438 2.65625 -7.6875 2.3125 -7.6875 C 1.9375 -7.6875 1.671875 -7.53125 1.515625 -7.21875 C 1.359375 -6.90625 1.28125 -6.398438 1.28125 -5.703125 C 1.28125 -5.023438 1.359375 -4.523438 1.515625 -4.203125 C 1.671875 -3.890625 1.929688 -3.734375 2.296875 -3.734375 C 2.628906 -3.734375 2.875 -3.894531 3.03125 -4.21875 C 3.195312 -4.539062 3.28125 -5.035156 3.28125 -5.703125 Z M 3.28125 -5.703125 "/></g></g></g><g fill="#000000" fill-opacity="1"><g transform="translate(185.450784, 9.834764)"><g><path d="M 7.359375 -5.765625 C 7.359375 -4.984375 7.101562 -4.363281 6.59375 -3.90625 C 6.082031 -3.445312 5.390625 -3.21875 4.515625 -3.21875 L 2.09375 -3.21875 L 2.09375 0 L 0.984375 0 L 0.984375 -8.25 L 4.453125 -8.25 C 5.378906 -8.25 6.09375 -8.03125 6.59375 -7.59375 C 7.101562 -7.164062 7.359375 -6.554688 7.359375 -5.765625 Z M 6.234375 -5.75 C 6.234375 -6.8125 5.59375 -7.34375 4.3125 -7.34375 L 2.09375 -7.34375 L 2.09375 -4.09375 L 4.359375 -4.09375 C 5.609375 -4.09375 6.234375 -4.644531 6.234375 -5.75 Z M 6.234375 -5.75 "/></g></g><g transform="translate(193.443157, 9.834764)"><g><path d="M 0.828125 0 L 0.828125 -4.859375 C 0.828125 -5.304688 0.816406 -5.796875 0.796875 -6.328125 L 1.796875 -6.328125 C 1.828125 -5.609375 1.84375 -5.175781 1.84375 -5.03125 L 1.859375 -5.03125 C 2.023438 -5.582031 2.21875 -5.957031 2.4375 -6.15625 C 2.65625 -6.351562 2.960938 -6.453125 3.359375 -6.453125 C 3.503906 -6.453125 3.648438 -6.429688 3.796875 -6.390625 L 3.796875 -5.421875 C 3.648438 -5.460938 3.460938 -5.484375 3.234375 -5.484375 C 2.796875 -5.484375 2.460938 -5.296875 2.234375 -4.921875 C 2.003906 -4.546875 1.890625 -4.003906 1.890625 -3.296875 L 1.890625 0 Z M 0.828125 0 "/></g></g><g transform="translate(197.433492, 9.834764)"><g><path d="M 6.15625 -3.171875 C 6.15625 -2.066406 5.910156 -1.242188 5.421875 -0.703125 C 4.941406 -0.160156 4.238281 0.109375 3.3125 0.109375 C 2.382812 0.109375 1.679688 -0.171875 1.203125 -0.734375 C 0.734375 -1.296875 0.5 -2.109375 0.5 -3.171875 C 0.5 -5.359375 1.445312 -6.453125 3.34375 -6.453125 C 4.3125 -6.453125 5.019531 -6.179688 5.46875 -5.640625 C 5.925781 -5.109375 6.15625 -4.285156 6.15625 -3.171875 Z M 5.0625 -3.171875 C 5.0625 -4.046875 4.929688 -4.679688 4.671875 -5.078125 C 4.410156 -5.472656 3.972656 -5.671875 3.359375 -5.671875 C 2.742188 -5.671875 2.296875 -5.46875 2.015625 -5.0625 C 1.742188 -4.65625 1.609375 -4.023438 1.609375 -3.171875 C 1.609375 -2.335938 1.742188 -1.707031 2.015625 -1.28125 C 2.285156 -0.863281 2.710938 -0.65625 3.296875 -0.65625 C 3.929688 -0.65625 4.382812 -0.859375 4.65625 -1.265625 C 4.925781 -1.671875 5.0625 -2.304688 5.0625 -3.171875 Z M 5.0625 -3.171875 "/></g></g><g transform="translate(204.097704, 9.834764)"><g><path d="M 4.796875 -1.015625 C 4.609375 -0.609375 4.351562 -0.316406 4.03125 -0.140625 C 3.707031 0.0234375 3.304688 0.109375 2.828125 0.109375 C 2.023438 0.109375 1.4375 -0.15625 1.0625 -0.6875 C 0.6875 -1.226562 0.5 -2.046875 0.5 -3.140625 C 0.5 -5.347656 1.273438 -6.453125 2.828125 -6.453125 C 3.304688 -6.453125 3.707031 -6.363281 4.03125 -6.1875 C 4.351562 -6.007812 4.609375 -5.726562 4.796875 -5.34375 L 4.8125 -5.34375 L 4.796875 -6.0625 L 4.796875 -8.6875 L 5.859375 -8.6875 L 5.859375 -1.3125 C 5.859375 -0.644531 5.867188 -0.207031 5.890625 0 L 4.890625 0 C 4.878906 -0.0625 4.863281 -0.203125 4.84375 -0.421875 C 4.832031 -0.648438 4.828125 -0.847656 4.828125 -1.015625 Z M 1.609375 -3.171875 C 1.609375 -2.285156 1.722656 -1.648438 1.953125 -1.265625 C 2.191406 -0.890625 2.570312 -0.703125 3.09375 -0.703125 C 3.695312 -0.703125 4.128906 -0.90625 4.390625 -1.3125 C 4.660156 -1.726562 4.796875 -2.367188 4.796875 -3.234375 C 4.796875 -4.078125 4.660156 -4.691406 4.390625 -5.078125 C 4.128906 -5.472656 3.703125 -5.671875 3.109375 -5.671875 C 2.578125 -5.671875 2.191406 -5.472656 1.953125 -5.078125 C 1.722656 -4.691406 1.609375 -4.054688 1.609375 -3.171875 Z M 1.609375 -3.171875 "/></g></g><g transform="translate(210.761915, 9.834764)"><g><path d="M 1.84375 -6.328125 L 1.84375 -2.3125 C 1.84375 -1.894531 1.878906 -1.570312 1.953125 -1.34375 C 2.035156 -1.113281 2.164062 -0.945312 2.34375 -0.84375 C 2.53125 -0.75 2.796875 -0.703125 3.140625 -0.703125 C 3.648438 -0.703125 4.050781 -0.875 4.34375 -1.21875 C 4.632812 -1.5625 4.78125 -2.039062 4.78125 -2.65625 L 4.78125 -6.328125 L 5.828125 -6.328125 L 5.828125 -1.359375 C 5.828125 -0.617188 5.84375 -0.164062 5.875 0 L 4.875 0 C 4.875 -0.0195312 4.867188 -0.0703125 4.859375 -0.15625 C 4.859375 -0.238281 4.851562 -0.335938 4.84375 -0.453125 C 4.84375 -0.566406 4.835938 -0.773438 4.828125 -1.078125 L 4.8125 -1.078125 C 4.570312 -0.640625 4.289062 -0.332031 3.96875 -0.15625 C 3.65625 0.0195312 3.257812 0.109375 2.78125 0.109375 C 2.09375 0.109375 1.585938 -0.0625 1.265625 -0.40625 C 0.941406 -0.75 0.78125 -1.316406 0.78125 -2.109375 L 0.78125 -6.328125 Z M 1.84375 -6.328125 "/></g></g><g transform="translate(217.426126, 9.834764)"><g><path d="M 3.234375 -0.046875 C 2.890625 0.046875 2.535156 0.09375 2.171875 0.09375 C 1.328125 0.09375 0.90625 -0.382812 0.90625 -1.34375 L 0.90625 -5.5625 L 0.1875 -5.5625 L 0.1875 -6.328125 L 0.953125 -6.328125 L 1.265625 -7.75 L 1.96875 -7.75 L 1.96875 -6.328125 L 3.140625 -6.328125 L 3.140625 -5.5625 L 1.96875 -5.5625 L 1.96875 -1.5625 C 1.96875 -1.257812 2.015625 -1.046875 2.109375 -0.921875 C 2.210938 -0.804688 2.390625 -0.75 2.640625 -0.75 C 2.773438 -0.75 2.972656 -0.773438 3.234375 -0.828125 Z M 3.234375 -0.046875 "/></g></g><g transform="translate(220.755307, 9.834764)"><g><path d="M 6.15625 -3.171875 C 6.15625 -2.066406 5.910156 -1.242188 5.421875 -0.703125 C 4.941406 -0.160156 4.238281 0.109375 3.3125 0.109375 C 2.382812 0.109375 1.679688 -0.171875 1.203125 -0.734375 C 0.734375 -1.296875 0.5 -2.109375 0.5 -3.171875 C 0.5 -5.359375 1.445312 -6.453125 3.34375 -6.453125 C 4.3125 -6.453125 5.019531 -6.179688 5.46875 -5.640625 C 5.925781 -5.109375 6.15625 -4.285156 6.15625 -3.171875 Z M 5.0625 -3.171875 C 5.0625 -4.046875 4.929688 -4.679688 4.671875 -5.078125 C 4.410156 -5.472656 3.972656 -5.671875 3.359375 -5.671875 C 2.742188 -5.671875 2.296875 -5.46875 2.015625 -5.0625 C 1.742188 -4.65625 1.609375 -4.023438 1.609375 -3.171875 C 1.609375 -2.335938 1.742188 -1.707031 2.015625 -1.28125 C 2.285156 -0.863281 2.710938 -0.65625 3.296875 -0.65625 C 3.929688 -0.65625 4.382812 -0.859375 4.65625 -1.265625 C 4.925781 -1.671875 5.0625 -2.304688 5.0625 -3.171875 Z M 5.0625 -3.171875 "/></g></g><g transform="translate(227.419518, 9.834764)"><g/></g><g transform="translate(230.748698, 9.834764)"><g><path d="M 0.90625 0 L 0.90625 -0.890625 L 3.015625 -0.890625 L 3.015625 -7.234375 L 1.15625 -5.90625 L 1.15625 -6.90625 L 3.09375 -8.25 L 4.078125 -8.25 L 4.078125 -0.890625 L 6.078125 -0.890625 L 6.078125 0 Z M 0.90625 0 "/></g></g></g><g fill="#000000" fill-opacity="1"><g transform="translate(198.159008, 25.117398)"><g><path d="M 6.09375 -4.296875 C 6.09375 -2.878906 5.832031 -1.789062 5.3125 -1.03125 C 4.800781 -0.269531 4.066406 0.109375 3.109375 0.109375 C 2.460938 0.109375 1.945312 -0.0234375 1.5625 -0.296875 C 1.175781 -0.566406 0.898438 -1.003906 0.734375 -1.609375 L 1.734375 -1.765625 C 1.941406 -1.078125 2.40625 -0.734375 3.125 -0.734375 C 3.726562 -0.734375 4.195312 -1.015625 4.53125 -1.578125 C 4.863281 -2.140625 5.039062 -2.941406 5.0625 -3.984375 C 4.90625 -3.628906 4.632812 -3.34375 4.25 -3.125 C 3.875 -2.914062 3.457031 -2.8125 3 -2.8125 C 2.257812 -2.8125 1.664062 -3.066406 1.21875 -3.578125 C 0.78125 -4.085938 0.5625 -4.757812 0.5625 -5.59375 C 0.5625 -6.457031 0.800781 -7.132812 1.28125 -7.625 C 1.769531 -8.125 2.445312 -8.375 3.3125 -8.375 C 4.226562 -8.375 4.921875 -8.03125 5.390625 -7.34375 C 5.859375 -6.664062 6.09375 -5.648438 6.09375 -4.296875 Z M 4.953125 -5.3125 C 4.953125 -5.96875 4.796875 -6.5 4.484375 -6.90625 C 4.179688 -7.3125 3.773438 -7.515625 3.265625 -7.515625 C 2.765625 -7.515625 2.363281 -7.34375 2.0625 -7 C 1.769531 -6.65625 1.625 -6.1875 1.625 -5.59375 C 1.625 -4.988281 1.769531 -4.507812 2.0625 -4.15625 C 2.363281 -3.8125 2.765625 -3.640625 3.265625 -3.640625 C 3.566406 -3.640625 3.847656 -3.707031 4.109375 -3.84375 C 4.367188 -3.988281 4.570312 -4.1875 4.71875 -4.4375 C 4.875 -4.695312 4.953125 -4.988281 4.953125 -5.3125 Z M 4.953125 -5.3125 "/></g></g><g transform="translate(204.823219, 25.117398)"><g><path d="M 1.09375 0 L 1.09375 -1.28125 L 2.234375 -1.28125 L 2.234375 0 Z M 1.09375 0 "/></g></g><g transform="translate(208.1524, 25.117398)"><g><path d="M 6.09375 -4.296875 C 6.09375 -2.878906 5.832031 -1.789062 5.3125 -1.03125 C 4.800781 -0.269531 4.066406 0.109375 3.109375 0.109375 C 2.460938 0.109375 1.945312 -0.0234375 1.5625 -0.296875 C 1.175781 -0.566406 0.898438 -1.003906 0.734375 -1.609375 L 1.734375 -1.765625 C 1.941406 -1.078125 2.40625 -0.734375 3.125 -0.734375 C 3.726562 -0.734375 4.195312 -1.015625 4.53125 -1.578125 C 4.863281 -2.140625 5.039062 -2.941406 5.0625 -3.984375 C 4.90625 -3.628906 4.632812 -3.34375 4.25 -3.125 C 3.875 -2.914062 3.457031 -2.8125 3 -2.8125 C 2.257812 -2.8125 1.664062 -3.066406 1.21875 -3.578125 C 0.78125 -4.085938 0.5625 -4.757812 0.5625 -5.59375 C 0.5625 -6.457031 0.800781 -7.132812 1.28125 -7.625 C 1.769531 -8.125 2.445312 -8.375 3.3125 -8.375 C 4.226562 -8.375 4.921875 -8.03125 5.390625 -7.34375 C 5.859375 -6.664062 6.09375 -5.648438 6.09375 -4.296875 Z M 4.953125 -5.3125 C 4.953125 -5.96875 4.796875 -6.5 4.484375 -6.90625 C 4.179688 -7.3125 3.773438 -7.515625 3.265625 -7.515625 C 2.765625 -7.515625 2.363281 -7.34375 2.0625 -7 C 1.769531 -6.65625 1.625 -6.1875 1.625 -5.59375 C 1.625 -4.988281 1.769531 -4.507812 2.0625 -4.15625 C 2.363281 -3.8125 2.765625 -3.640625 3.265625 -3.640625 C 3.566406 -3.640625 3.847656 -3.707031 4.109375 -3.84375 C 4.367188 -3.988281 4.570312 -4.1875 4.71875 -4.4375 C 4.875 -4.695312 4.953125 -4.988281 4.953125 -5.3125 Z M 4.953125 -5.3125 "/></g></g><g transform="translate(214.816611, 25.117398)"><g><path d="M 10.234375 -2.546875 C 10.234375 -1.703125 10.070312 -1.054688 9.75 -0.609375 C 9.4375 -0.160156 8.972656 0.0625 8.359375 0.0625 C 7.742188 0.0625 7.28125 -0.15625 6.96875 -0.59375 C 6.664062 -1.03125 6.515625 -1.679688 6.515625 -2.546875 C 6.515625 -3.429688 6.660156 -4.085938 6.953125 -4.515625 C 7.253906 -4.953125 7.726562 -5.171875 8.375 -5.171875 C 9.019531 -5.171875 9.488281 -4.945312 9.78125 -4.5 C 10.082031 -4.0625 10.234375 -3.410156 10.234375 -2.546875 Z M 3.078125 0 L 2.171875 0 L 7.578125 -8.25 L 8.484375 -8.25 Z M 2.3125 -8.3125 C 2.925781 -8.3125 3.382812 -8.09375 3.6875 -7.65625 C 3.988281 -7.21875 4.140625 -6.566406 4.140625 -5.703125 C 4.140625 -4.859375 3.984375 -4.207031 3.671875 -3.75 C 3.359375 -3.289062 2.894531 -3.0625 2.28125 -3.0625 C 1.664062 -3.0625 1.203125 -3.285156 0.890625 -3.734375 C 0.578125 -4.191406 0.421875 -4.847656 0.421875 -5.703125 C 0.421875 -6.578125 0.570312 -7.226562 0.875 -7.65625 C 1.175781 -8.09375 1.65625 -8.3125 2.3125 -8.3125 Z M 9.359375 -2.546875 C 9.359375 -3.242188 9.28125 -3.75 9.125 -4.0625 C 8.976562 -4.375 8.726562 -4.53125 8.375 -4.53125 C 8.019531 -4.53125 7.765625 -4.375 7.609375 -4.0625 C 7.453125 -3.757812 7.375 -3.253906 7.375 -2.546875 C 7.375 -1.867188 7.445312 -1.367188 7.59375 -1.046875 C 7.75 -0.734375 8.007812 -0.578125 8.375 -0.578125 C 8.71875 -0.578125 8.96875 -0.738281 9.125 -1.0625 C 9.28125 -1.382812 9.359375 -1.878906 9.359375 -2.546875 Z M 3.28125 -5.703125 C 3.28125 -6.390625 3.203125 -6.890625 3.046875 -7.203125 C 2.898438 -7.523438 2.65625 -7.6875 2.3125 -7.6875 C 1.9375 -7.6875 1.671875 -7.53125 1.515625 -7.21875 C 1.359375 -6.90625 1.28125 -6.398438 1.28125 -5.703125 C 1.28125 -5.023438 1.359375 -4.523438 1.515625 -4.203125 C 1.671875 -3.890625 1.929688 -3.734375 2.296875 -3.734375 C 2.628906 -3.734375 2.875 -3.894531 3.03125 -4.21875 C 3.195312 -4.539062 3.28125 -5.035156 3.28125 -5.703125 Z M 3.28125 -5.703125 "/></g></g></g><g fill="#000000" fill-opacity="1"><g transform="translate(166.21292, 287.227447)"><g><path d="M 7.359375 -5.765625 C 7.359375 -4.984375 7.101562 -4.363281 6.59375 -3.90625 C 6.082031 -3.445312 5.390625 -3.21875 4.515625 -3.21875 L 2.09375 -3.21875 L 2.09375 0 L 0.984375 0 L 0.984375 -8.25 L 4.453125 -8.25 C 5.378906 -8.25 6.09375 -8.03125 6.59375 -7.59375 C 7.101562 -7.164062 7.359375 -6.554688 7.359375 -5.765625 Z M 6.234375 -5.75 C 6.234375 -6.8125 5.59375 -7.34375 4.3125 -7.34375 L 2.09375 -7.34375 L 2.09375 -4.09375 L 4.359375 -4.09375 C 5.609375 -4.09375 6.234375 -4.644531 6.234375 -5.75 Z M 6.234375 -5.75 "/></g></g><g transform="translate(174.205293, 287.227447)"><g><path d="M 0.828125 0 L 0.828125 -4.859375 C 0.828125 -5.304688 0.816406 -5.796875 0.796875 -6.328125 L 1.796875 -6.328125 C 1.828125 -5.609375 1.84375 -5.175781 1.84375 -5.03125 L 1.859375 -5.03125 C 2.023438 -5.582031 2.21875 -5.957031 2.4375 -6.15625 C 2.65625 -6.351562 2.960938 -6.453125 3.359375 -6.453125 C 3.503906 -6.453125 3.648438 -6.429688 3.796875 -6.390625 L 3.796875 -5.421875 C 3.648438 -5.460938 3.460938 -5.484375 3.234375 -5.484375 C 2.796875 -5.484375 2.460938 -5.296875 2.234375 -4.921875 C 2.003906 -4.546875 1.890625 -4.003906 1.890625 -3.296875 L 1.890625 0 Z M 0.828125 0 "/></g></g><g transform="translate(178.195629, 287.227447)"><g><path d="M 6.15625 -3.171875 C 6.15625 -2.066406 5.910156 -1.242188 5.421875 -0.703125 C 4.941406 -0.160156 4.238281 0.109375 3.3125 0.109375 C 2.382812 0.109375 1.679688 -0.171875 1.203125 -0.734375 C 0.734375 -1.296875 0.5 -2.109375 0.5 -3.171875 C 0.5 -5.359375 1.445312 -6.453125 3.34375 -6.453125 C 4.3125 -6.453125 5.019531 -6.179688 5.46875 -5.640625 C 5.925781 -5.109375 6.15625 -4.285156 6.15625 -3.171875 Z M 5.0625 -3.171875 C 5.0625 -4.046875 4.929688 -4.679688 4.671875 -5.078125 C 4.410156 -5.472656 3.972656 -5.671875 3.359375 -5.671875 C 2.742188 -5.671875 2.296875 -5.46875 2.015625 -5.0625 C 1.742188 -4.65625 1.609375 -4.023438 1.609375 -3.171875 C 1.609375 -2.335938 1.742188 -1.707031 2.015625 -1.28125 C 2.285156 -0.863281 2.710938 -0.65625 3.296875 -0.65625 C 3.929688 -0.65625 4.382812 -0.859375 4.65625 -1.265625 C 4.925781 -1.671875 5.0625 -2.304688 5.0625 -3.171875 Z M 5.0625 -3.171875 "/></g></g><g transform="translate(184.85984, 287.227447)"><g><path d="M 4.796875 -1.015625 C 4.609375 -0.609375 4.351562 -0.316406 4.03125 -0.140625 C 3.707031 0.0234375 3.304688 0.109375 2.828125 0.109375 C 2.023438 0.109375 1.4375 -0.15625 1.0625 -0.6875 C 0.6875 -1.226562 0.5 -2.046875 0.5 -3.140625 C 0.5 -5.347656 1.273438 -6.453125 2.828125 -6.453125 C 3.304688 -6.453125 3.707031 -6.363281 4.03125 -6.1875 C 4.351562 -6.007812 4.609375 -5.726562 4.796875 -5.34375 L 4.8125 -5.34375 L 4.796875 -6.0625 L 4.796875 -8.6875 L 5.859375 -8.6875 L 5.859375 -1.3125 C 5.859375 -0.644531 5.867188 -0.207031 5.890625 0 L 4.890625 0 C 4.878906 -0.0625 4.863281 -0.203125 4.84375 -0.421875 C 4.832031 -0.648438 4.828125 -0.847656 4.828125 -1.015625 Z M 1.609375 -3.171875 C 1.609375 -2.285156 1.722656 -1.648438 1.953125 -1.265625 C 2.191406 -0.890625 2.570312 -0.703125 3.09375 -0.703125 C 3.695312 -0.703125 4.128906 -0.90625 4.390625 -1.3125 C 4.660156 -1.726562 4.796875 -2.367188 4.796875 -3.234375 C 4.796875 -4.078125 4.660156 -4.691406 4.390625 -5.078125 C 4.128906 -5.472656 3.703125 -5.671875 3.109375 -5.671875 C 2.578125 -5.671875 2.191406 -5.472656 1.953125 -5.078125 C 1.722656 -4.691406 1.609375 -4.054688 1.609375 -3.171875 Z M 1.609375 -3.171875 "/></g></g><g transform="translate(191.524051, 287.227447)"><g><path d="M 1.84375 -6.328125 L 1.84375 -2.3125 C 1.84375 -1.894531 1.878906 -1.570312 1.953125 -1.34375 C 2.035156 -1.113281 2.164062 -0.945312 2.34375 -0.84375 C 2.53125 -0.75 2.796875 -0.703125 3.140625 -0.703125 C 3.648438 -0.703125 4.050781 -0.875 4.34375 -1.21875 C 4.632812 -1.5625 4.78125 -2.039062 4.78125 -2.65625 L 4.78125 -6.328125 L 5.828125 -6.328125 L 5.828125 -1.359375 C 5.828125 -0.617188 5.84375 -0.164062 5.875 0 L 4.875 0 C 4.875 -0.0195312 4.867188 -0.0703125 4.859375 -0.15625 C 4.859375 -0.238281 4.851562 -0.335938 4.84375 -0.453125 C 4.84375 -0.566406 4.835938 -0.773438 4.828125 -1.078125 L 4.8125 -1.078125 C 4.570312 -0.640625 4.289062 -0.332031 3.96875 -0.15625 C 3.65625 0.0195312 3.257812 0.109375 2.78125 0.109375 C 2.09375 0.109375 1.585938 -0.0625 1.265625 -0.40625 C 0.941406 -0.75 0.78125 -1.316406 0.78125 -2.109375 L 0.78125 -6.328125 Z M 1.84375 -6.328125 "/></g></g><g transform="translate(198.188263, 287.227447)"><g><path d="M 3.234375 -0.046875 C 2.890625 0.046875 2.535156 0.09375 2.171875 0.09375 C 1.328125 0.09375 0.90625 -0.382812 0.90625 -1.34375 L 0.90625 -5.5625 L 0.1875 -5.5625 L 0.1875 -6.328125 L 0.953125 -6.328125 L 1.265625 -7.75 L 1.96875 -7.75 L 1.96875 -6.328125 L 3.140625 -6.328125 L 3.140625 -5.5625 L 1.96875 -5.5625 L 1.96875 -1.5625 C 1.96875 -1.257812 2.015625 -1.046875 2.109375 -0.921875 C 2.210938 -0.804688 2.390625 -0.75 2.640625 -0.75 C 2.773438 -0.75 2.972656 -0.773438 3.234375 -0.828125 Z M 3.234375 -0.046875 "/></g></g><g transform="translate(201.517443, 287.227447)"><g><path d="M 6.15625 -3.171875 C 6.15625 -2.066406 5.910156 -1.242188 5.421875 -0.703125 C 4.941406 -0.160156 4.238281 0.109375 3.3125 0.109375 C 2.382812 0.109375 1.679688 -0.171875 1.203125 -0.734375 C 0.734375 -1.296875 0.5 -2.109375 0.5 -3.171875 C 0.5 -5.359375 1.445312 -6.453125 3.34375 -6.453125 C 4.3125 -6.453125 5.019531 -6.179688 5.46875 -5.640625 C 5.925781 -5.109375 6.15625 -4.285156 6.15625 -3.171875 Z M 5.0625 -3.171875 C 5.0625 -4.046875 4.929688 -4.679688 4.671875 -5.078125 C 4.410156 -5.472656 3.972656 -5.671875 3.359375 -5.671875 C 2.742188 -5.671875 2.296875 -5.46875 2.015625 -5.0625 C 1.742188 -4.65625 1.609375 -4.023438 1.609375 -3.171875 C 1.609375 -2.335938 1.742188 -1.707031 2.015625 -1.28125 C 2.285156 -0.863281 2.710938 -0.65625 3.296875 -0.65625 C 3.929688 -0.65625 4.382812 -0.859375 4.65625 -1.265625 C 4.925781 -1.671875 5.0625 -2.304688 5.0625 -3.171875 Z M 5.0625 -3.171875 "/></g></g><g transform="translate(208.181654, 287.227447)"><g/></g><g transform="translate(211.510834, 287.227447)"><g><path d="M 6.140625 -2.28125 C 6.140625 -1.519531 5.894531 -0.929688 5.40625 -0.515625 C 4.925781 -0.0976562 4.238281 0.109375 3.34375 0.109375 C 2.507812 0.109375 1.84375 -0.078125 1.34375 -0.453125 C 0.84375 -0.828125 0.546875 -1.382812 0.453125 -2.125 L 1.546875 -2.21875 C 1.679688 -1.238281 2.28125 -0.75 3.34375 -0.75 C 3.875 -0.75 4.289062 -0.878906 4.59375 -1.140625 C 4.894531 -1.398438 5.046875 -1.789062 5.046875 -2.3125 C 5.046875 -2.757812 4.875 -3.109375 4.53125 -3.359375 C 4.1875 -3.609375 3.6875 -3.734375 3.03125 -3.734375 L 2.4375 -3.734375 L 2.4375 -4.65625 L 3 -4.65625 C 3.582031 -4.65625 4.03125 -4.78125 4.34375 -5.03125 C 4.664062 -5.28125 4.828125 -5.628906 4.828125 -6.078125 C 4.828125 -6.515625 4.695312 -6.859375 4.4375 -7.109375 C 4.175781 -7.367188 3.789062 -7.5 3.28125 -7.5 C 2.820312 -7.5 2.445312 -7.378906 2.15625 -7.140625 C 1.863281 -6.898438 1.695312 -6.566406 1.65625 -6.140625 L 0.59375 -6.21875 C 0.675781 -6.894531 0.957031 -7.421875 1.4375 -7.796875 C 1.914062 -8.179688 2.535156 -8.375 3.296875 -8.375 C 4.117188 -8.375 4.757812 -8.179688 5.21875 -7.796875 C 5.675781 -7.410156 5.90625 -6.875 5.90625 -6.1875 C 5.90625 -5.65625 5.757812 -5.222656 5.46875 -4.890625 C 5.175781 -4.566406 4.75 -4.347656 4.1875 -4.234375 L 4.1875 -4.203125 C 4.800781 -4.140625 5.28125 -3.929688 5.625 -3.578125 C 5.96875 -3.234375 6.140625 -2.800781 6.140625 -2.28125 Z M 6.140625 -2.28125 "/></g></g></g><g fill="#000000" fill-opacity="1"><g transform="translate(183.906138, 302.498375)"><g><path d="M 6.0625 -7.390625 C 5.21875 -6.097656 4.617188 -5.085938 4.265625 -4.359375 C 3.921875 -3.628906 3.660156 -2.910156 3.484375 -2.203125 C 3.316406 -1.492188 3.234375 -0.757812 3.234375 0 L 2.140625 0 C 2.140625 -1.050781 2.359375 -2.160156 2.796875 -3.328125 C 3.242188 -4.492188 3.992188 -5.832031 5.046875 -7.34375 L 0.609375 -7.34375 L 0.609375 -8.25 L 6.0625 -8.25 Z M 6.0625 -7.390625 "/></g></g><g transform="translate(190.570349, 302.498375)"><g><path d="M 10.234375 -2.546875 C 10.234375 -1.703125 10.070312 -1.054688 9.75 -0.609375 C 9.4375 -0.160156 8.972656 0.0625 8.359375 0.0625 C 7.742188 0.0625 7.28125 -0.15625 6.96875 -0.59375 C 6.664062 -1.03125 6.515625 -1.679688 6.515625 -2.546875 C 6.515625 -3.429688 6.660156 -4.085938 6.953125 -4.515625 C 7.253906 -4.953125 7.726562 -5.171875 8.375 -5.171875 C 9.019531 -5.171875 9.488281 -4.945312 9.78125 -4.5 C 10.082031 -4.0625 10.234375 -3.410156 10.234375 -2.546875 Z M 3.078125 0 L 2.171875 0 L 7.578125 -8.25 L 8.484375 -8.25 Z M 2.3125 -8.3125 C 2.925781 -8.3125 3.382812 -8.09375 3.6875 -7.65625 C 3.988281 -7.21875 4.140625 -6.566406 4.140625 -5.703125 C 4.140625 -4.859375 3.984375 -4.207031 3.671875 -3.75 C 3.359375 -3.289062 2.894531 -3.0625 2.28125 -3.0625 C 1.664062 -3.0625 1.203125 -3.285156 0.890625 -3.734375 C 0.578125 -4.191406 0.421875 -4.847656 0.421875 -5.703125 C 0.421875 -6.578125 0.570312 -7.226562 0.875 -7.65625 C 1.175781 -8.09375 1.65625 -8.3125 2.3125 -8.3125 Z M 9.359375 -2.546875 C 9.359375 -3.242188 9.28125 -3.75 9.125 -4.0625 C 8.976562 -4.375 8.726562 -4.53125 8.375 -4.53125 C 8.019531 -4.53125 7.765625 -4.375 7.609375 -4.0625 C 7.453125 -3.757812 7.375 -3.253906 7.375 -2.546875 C 7.375 -1.867188 7.445312 -1.367188 7.59375 -1.046875 C 7.75 -0.734375 8.007812 -0.578125 8.375 -0.578125 C 8.71875 -0.578125 8.96875 -0.738281 9.125 -1.0625 C 9.28125 -1.382812 9.359375 -1.878906 9.359375 -2.546875 Z M 3.28125 -5.703125 C 3.28125 -6.390625 3.203125 -6.890625 3.046875 -7.203125 C 2.898438 -7.523438 2.65625 -7.6875 2.3125 -7.6875 C 1.9375 -7.6875 1.671875 -7.53125 1.515625 -7.21875 C 1.359375 -6.90625 1.28125 -6.398438 1.28125 -5.703125 C 1.28125 -5.023438 1.359375 -4.523438 1.515625 -4.203125 C 1.671875 -3.890625 1.929688 -3.734375 2.296875 -3.734375 C 2.628906 -3.734375 2.875 -3.894531 3.03125 -4.21875 C 3.195312 -4.539062 3.28125 -5.035156 3.28125 -5.703125 Z M 3.28125 -5.703125 "/></g></g></g></svg>