<svg xmlns="http://www.w3.org/2000/svg" xmlns:xlink="http://www.w3.org/1999/xlink" width="900" zoomAndPan="magnify" viewBox="0 0 328.5 301.499996" height="402" preserveAspectRatio="xMidYMid meet" version="1.0"><defs><g/><clipPath id="239ebee302"><path d="M 0.0234375 178 L 52 178 L 52 187 L 0.0234375 187 Z M 0.0234375 178 " clip-rule="nonzero"/></clipPath></defs><path fill="#168639" d="M 174.984375 29.050781 C 177.375 29.050781 179.761719 29.121094 182.148438 29.265625 C 184.539062 29.410156 186.917969 29.625 189.292969 29.910156 C 191.664062 30.195312 194.03125 30.550781 196.382812 30.976562 C 198.734375 31.40625 201.074219 31.902344 203.394531 32.46875 C 205.71875 33.035156 208.023438 33.671875 210.308594 34.378906 C 212.59375 35.082031 214.855469 35.855469 217.09375 36.695312 C 219.332031 37.535156 221.542969 38.441406 223.726562 39.417969 C 225.914062 40.390625 228.066406 41.425781 230.1875 42.527344 C 232.308594 43.628906 234.398438 44.792969 236.449219 46.023438 C 238.503906 47.25 240.515625 48.535156 242.492188 49.882812 C 244.46875 51.230469 246.402344 52.636719 248.292969 54.097656 C 250.183594 55.5625 252.027344 57.082031 253.828125 58.65625 C 255.628906 60.230469 257.382812 61.855469 259.085938 63.535156 C 260.789062 65.210938 262.4375 66.941406 264.039062 68.71875 C 265.636719 70.496094 267.183594 72.320312 268.671875 74.191406 C 270.164062 76.058594 271.597656 77.972656 272.972656 79.929688 C 274.347656 81.882812 275.664062 83.878906 276.917969 85.914062 C 278.175781 87.949219 279.371094 90.019531 280.503906 92.125 C 281.636719 94.230469 282.703125 96.371094 283.707031 98.539062 C 284.710938 100.710938 285.648438 102.910156 286.523438 105.136719 C 287.394531 107.359375 288.199219 109.613281 288.9375 111.886719 C 289.675781 114.160156 290.34375 116.457031 290.945312 118.769531 C 291.546875 121.085938 292.078125 123.414062 292.539062 125.761719 C 293 128.109375 293.390625 130.464844 293.707031 132.835938 C 294.027344 135.207031 294.277344 137.582031 294.453125 139.96875 C 294.632812 142.351562 294.738281 144.742188 294.773438 147.132812 C 294.804688 149.523438 294.769531 151.914062 294.660156 154.300781 C 294.550781 156.691406 294.371094 159.074219 294.121094 161.449219 C 293.867188 163.828125 293.546875 166.199219 293.152344 168.554688 C 292.757812 170.914062 292.296875 173.257812 291.761719 175.589844 C 291.226562 177.921875 290.625 180.234375 289.953125 182.527344 C 289.28125 184.824219 288.539062 187.097656 287.734375 189.347656 L 174.984375 148.851562 Z M 174.984375 29.050781 " fill-opacity="1" fill-rule="nonzero"/><path fill="#23dd5e" d="M 287.734375 189.347656 C 285.917969 194.394531 283.777344 199.296875 281.308594 204.058594 C 278.835938 208.816406 276.058594 213.390625 272.972656 217.777344 C 269.886719 222.164062 266.523438 226.324219 262.878906 230.257812 C 259.234375 234.191406 255.34375 237.867188 251.207031 241.277344 L 174.984375 148.851562 Z M 287.734375 189.347656 " fill-opacity="1" fill-rule="nonzero"/><path fill="#1fc353" d="M 251.207031 241.277344 C 247.660156 244.203125 243.960938 246.910156 240.101562 249.410156 C 236.246094 251.90625 232.257812 254.175781 228.140625 256.214844 C 224.023438 258.253906 219.800781 260.050781 215.476562 261.601562 C 211.152344 263.15625 206.753906 264.457031 202.28125 265.503906 C 197.804688 266.550781 193.285156 267.335938 188.722656 267.863281 C 184.15625 268.390625 179.578125 268.652344 174.984375 268.652344 C 170.386719 268.652344 165.808594 268.390625 161.242188 267.863281 C 156.679688 267.335938 152.160156 266.550781 147.6875 265.503906 L 174.984375 148.851562 Z M 251.207031 241.277344 " fill-opacity="1" fill-rule="nonzero"/><path fill="#8fd29e" d="M 147.6875 265.503906 C 145.078125 264.890625 142.492188 264.195312 139.933594 263.410156 C 137.371094 262.628906 134.839844 261.757812 132.335938 260.804688 C 129.832031 259.851562 127.363281 258.816406 124.929688 257.695312 C 122.496094 256.578125 120.105469 255.378906 117.75 254.097656 C 115.398438 252.820312 113.089844 251.464844 110.828125 250.027344 C 108.566406 248.59375 106.355469 247.085938 104.195312 245.503906 C 102.035156 243.921875 99.929688 242.265625 97.878906 240.542969 C 95.828125 238.820312 93.839844 237.027344 91.910156 235.171875 C 89.980469 233.316406 88.113281 231.394531 86.3125 229.414062 C 84.511719 227.429688 82.777344 225.390625 81.113281 223.289062 C 79.449219 221.191406 77.859375 219.039062 76.339844 216.835938 C 74.816406 214.628906 73.375 212.375 72.003906 210.074219 C 70.636719 207.769531 69.347656 205.425781 68.136719 203.035156 C 66.921875 200.648438 65.792969 198.222656 64.746094 195.757812 C 63.695312 193.292969 62.730469 190.792969 61.851562 188.265625 C 60.96875 185.734375 60.171875 183.179688 59.464844 180.597656 C 58.753906 178.015625 58.132812 175.410156 57.597656 172.785156 C 57.0625 170.164062 56.613281 167.523438 56.257812 164.867188 C 55.898438 162.214844 55.628906 159.550781 55.449219 156.878906 C 55.269531 154.207031 55.179688 151.53125 55.179688 148.851562 C 55.179688 146.175781 55.269531 143.5 55.449219 140.828125 C 55.628906 138.152344 55.898438 135.492188 56.257812 132.835938 C 56.613281 130.183594 57.0625 127.542969 57.597656 124.917969 C 58.132812 122.292969 58.753906 119.691406 59.464844 117.105469 C 60.171875 114.523438 60.96875 111.96875 61.851562 109.4375 C 62.730469 106.910156 63.695312 104.414062 64.746094 101.949219 C 65.792969 99.484375 66.921875 97.058594 68.136719 94.667969 C 69.347656 92.28125 70.636719 89.933594 72.003906 87.632812 C 73.375 85.328125 74.816406 83.074219 76.339844 80.871094 C 77.859375 78.664062 79.449219 76.511719 81.113281 74.414062 C 82.777344 72.316406 84.511719 70.273438 86.3125 68.292969 C 88.113281 66.308594 89.980469 64.390625 91.910156 62.53125 L 174.984375 148.851562 Z M 147.6875 265.503906 " fill-opacity="1" fill-rule="nonzero"/><path fill="#00faa4" d="M 91.910156 62.53125 C 94.667969 59.878906 97.542969 57.363281 100.542969 54.984375 C 103.542969 52.605469 106.648438 50.378906 109.859375 48.296875 C 113.074219 46.214844 116.378906 44.292969 119.773438 42.53125 C 123.171875 40.765625 126.644531 39.167969 130.195312 37.738281 C 133.742188 36.308594 137.351562 35.050781 141.023438 33.964844 C 144.695312 32.878906 148.40625 31.972656 152.164062 31.246094 C 155.921875 30.515625 159.707031 29.96875 163.515625 29.601562 C 167.324219 29.234375 171.144531 29.050781 174.972656 29.050781 L 174.984375 148.851562 Z M 91.910156 62.53125 " fill-opacity="1" fill-rule="nonzero"/><g clip-path="url(#239ebee302)"><g fill="#000000" fill-opacity="1"><g transform="translate(-0.495711, 186.688125)"><g><path d="M 7.359375 -5.765625 C 7.359375 -4.984375 7.101562 -4.363281 6.59375 -3.90625 C 6.082031 -3.445312 5.390625 -3.21875 4.515625 -3.21875 L 2.09375 -3.21875 L 2.09375 0 L 0.984375 0 L 0.984375 -8.25 L 4.453125 -8.25 C 5.378906 -8.25 6.09375 -8.03125 6.59375 -7.59375 C 7.101562 -7.164062 7.359375 -6.554688 7.359375 -5.765625 Z M 6.234375 -5.75 C 6.234375 -6.8125 5.59375 -7.34375 4.3125 -7.34375 L 2.09375 -7.34375 L 2.09375 -4.09375 L 4.359375 -4.09375 C 5.609375 -4.09375 6.234375 -4.644531 6.234375 -5.75 Z M 6.234375 -5.75 "/></g></g><g transform="translate(7.494943, 186.688125)"><g><path d="M 0.828125 0 L 0.828125 -4.859375 C 0.828125 -5.304688 0.816406 -5.796875 0.796875 -6.328125 L 1.796875 -6.328125 C 1.828125 -5.609375 1.84375 -5.175781 1.84375 -5.03125 L 1.859375 -5.03125 C 2.023438 -5.582031 2.21875 -5.957031 2.4375 -6.15625 C 2.65625 -6.351562 2.960938 -6.453125 3.359375 -6.453125 C 3.503906 -6.453125 3.648438 -6.429688 3.796875 -6.390625 L 3.796875 -5.421875 C 3.648438 -5.460938 3.460938 -5.484375 3.234375 -5.484375 C 2.796875 -5.484375 2.460938 -5.296875 2.234375 -4.921875 C 2.003906 -4.546875 1.890625 -4.003906 1.890625 -3.296875 L 1.890625 0 Z M 0.828125 0 "/></g></g><g transform="translate(11.48442, 186.688125)"><g><path d="M 6.15625 -3.171875 C 6.15625 -2.066406 5.910156 -1.242188 5.421875 -0.703125 C 4.941406 -0.160156 4.238281 0.109375 3.3125 0.109375 C 2.382812 0.109375 1.679688 -0.171875 1.203125 -0.734375 C 0.734375 -1.296875 0.5 -2.109375 0.5 -3.171875 C 0.5 -5.359375 1.445312 -6.453125 3.34375 -6.453125 C 4.3125 -6.453125 5.019531 -6.179688 5.46875 -5.640625 C 5.925781 -5.109375 6.15625 -4.285156 6.15625 -3.171875 Z M 5.0625 -3.171875 C 5.0625 -4.046875 4.929688 -4.679688 4.671875 -5.078125 C 4.410156 -5.472656 3.972656 -5.671875 3.359375 -5.671875 C 2.742188 -5.671875 2.296875 -5.46875 2.015625 -5.0625 C 1.742188 -4.65625 1.609375 -4.023438 1.609375 -3.171875 C 1.609375 -2.335938 1.742188 -1.707031 2.015625 -1.28125 C 2.285156 -0.863281 2.710938 -0.65625 3.296875 -0.65625 C 3.929688 -0.65625 4.382812 -0.859375 4.65625 -1.265625 C 4.925781 -1.671875 5.0625 -2.304688 5.0625 -3.171875 Z M 5.0625 -3.171875 "/></g></g><g transform="translate(18.147199, 186.688125)"><g><path d="M 4.796875 -1.015625 C 4.609375 -0.609375 4.351562 -0.316406 4.03125 -0.140625 C 3.707031 0.0234375 3.304688 0.109375 2.828125 0.109375 C 2.023438 0.109375 1.4375 -0.15625 1.0625 -0.6875 C 0.6875 -1.226562 0.5 -2.046875 0.5 -3.140625 C 0.5 -5.347656 1.273438 -6.453125 2.828125 -6.453125 C 3.304688 -6.453125 3.707031 -6.363281 4.03125 -6.1875 C 4.351562 -6.007812 4.609375 -5.726562 4.796875 -5.34375 L 4.8125 -5.34375 L 4.796875 -6.0625 L 4.796875 -8.6875 L 5.859375 -8.6875 L 5.859375 -1.3125 C 5.859375 -0.644531 5.867188 -0.207031 5.890625 0 L 4.890625 0 C 4.878906 -0.0625 4.863281 -0.203125 4.84375 -0.421875 C 4.832031 -0.648438 4.828125 -0.847656 4.828125 -1.015625 Z M 1.609375 -3.171875 C 1.609375 -2.285156 1.722656 -1.648438 1.953125 -1.265625 C 2.191406 -0.890625 2.570312 -0.703125 3.09375 -0.703125 C 3.695312 -0.703125 4.128906 -0.90625 4.390625 -1.3125 C 4.660156 -1.726562 4.796875 -2.367188 4.796875 -3.234375 C 4.796875 -4.078125 4.660156 -4.691406 4.390625 -5.078125 C 4.128906 -5.472656 3.703125 -5.671875 3.109375 -5.671875 C 2.578125 -5.671875 2.191406 -5.472656 1.953125 -5.078125 C 1.722656 -4.691406 1.609375 -4.054688 1.609375 -3.171875 Z M 1.609375 -3.171875 "/></g></g><g transform="translate(24.809977, 186.688125)"><g><path d="M 1.84375 -6.328125 L 1.84375 -2.3125 C 1.84375 -1.894531 1.878906 -1.570312 1.953125 -1.34375 C 2.035156 -1.113281 2.164062 -0.945312 2.34375 -0.84375 C 2.53125 -0.75 2.796875 -0.703125 3.140625 -0.703125 C 3.648438 -0.703125 4.050781 -0.875 4.34375 -1.21875 C 4.632812 -1.5625 4.78125 -2.039062 4.78125 -2.65625 L 4.78125 -6.328125 L 5.828125 -6.328125 L 5.828125 -1.359375 C 5.828125 -0.617188 5.84375 -0.164062 5.875 0 L 4.875 0 C 4.875 -0.0195312 4.867188 -0.0703125 4.859375 -0.15625 C 4.859375 -0.238281 4.851562 -0.335938 4.84375 -0.453125 C 4.84375 -0.566406 4.835938 -0.773438 4.828125 -1.078125 L 4.8125 -1.078125 C 4.570312 -0.640625 4.289062 -0.332031 3.96875 -0.15625 C 3.65625 0.0195312 3.257812 0.109375 2.78125 0.109375 C 2.09375 0.109375 1.585938 -0.0625 1.265625 -0.40625 C 0.941406 -0.75 0.78125 -1.316406 0.78125 -2.109375 L 0.78125 -6.328125 Z M 1.84375 -6.328125 "/></g></g><g transform="translate(31.472755, 186.688125)"><g><path d="M 3.234375 -0.046875 C 2.890625 0.046875 2.535156 0.09375 2.171875 0.09375 C 1.328125 0.09375 0.90625 -0.382812 0.90625 -1.34375 L 0.90625 -5.5625 L 0.1875 -5.5625 L 0.1875 -6.328125 L 0.953125 -6.328125 L 1.265625 -7.75 L 1.96875 -7.75 L 1.96875 -6.328125 L 3.140625 -6.328125 L 3.140625 -5.5625 L 1.96875 -5.5625 L 1.96875 -1.5625 C 1.96875 -1.257812 2.015625 -1.046875 2.109375 -0.921875 C 2.210938 -0.804688 2.390625 -0.75 2.640625 -0.75 C 2.773438 -0.75 2.972656 -0.773438 3.234375 -0.828125 Z M 3.234375 -0.046875 "/></g></g><g transform="translate(34.80122, 186.688125)"><g><path d="M 6.15625 -3.171875 C 6.15625 -2.066406 5.910156 -1.242188 5.421875 -0.703125 C 4.941406 -0.160156 4.238281 0.109375 3.3125 0.109375 C 2.382812 0.109375 1.679688 -0.171875 1.203125 -0.734375 C 0.734375 -1.296875 0.5 -2.109375 0.5 -3.171875 C 0.5 -5.359375 1.445312 -6.453125 3.34375 -6.453125 C 4.3125 -6.453125 5.019531 -6.179688 5.46875 -5.640625 C 5.925781 -5.109375 6.15625 -4.285156 6.15625 -3.171875 Z M 5.0625 -3.171875 C 5.0625 -4.046875 4.929688 -4.679688 4.671875 -5.078125 C 4.410156 -5.472656 3.972656 -5.671875 3.359375 -5.671875 C 2.742188 -5.671875 2.296875 -5.46875 2.015625 -5.0625 C 1.742188 -4.65625 1.609375 -4.023438 1.609375 -3.171875 C 1.609375 -2.335938 1.742188 -1.707031 2.015625 -1.28125 C 2.285156 -0.863281 2.710938 -0.65625 3.296875 -0.65625 C 3.929688 -0.65625 4.382812 -0.859375 4.65625 -1.265625 C 4.925781 -1.671875 5.0625 -2.304688 5.0625 -3.171875 Z M 5.0625 -3.171875 "/></g></g><g transform="translate(41.463998, 186.688125)"><g/></g><g transform="translate(44.792462, 186.688125)"><g><path d="M 5.15625 -1.859375 L 5.15625 0 L 4.15625 0 L 4.15625 -1.859375 L 0.28125 -1.859375 L 0.28125 -2.6875 L 4.046875 -8.25 L 5.15625 -8.25 L 5.15625 -2.703125 L 6.3125 -2.703125 L 6.3125 -1.859375 Z M 4.15625 -7.0625 C 4.15625 -7.03125 4.101562 -6.921875 4 -6.734375 C 3.894531 -6.554688 3.816406 -6.429688 3.765625 -6.359375 L 1.65625 -3.25 L 1.34375 -2.8125 L 1.25 -2.703125 L 4.15625 -2.703125 Z M 4.15625 -7.0625 "/></g></g></g></g><g fill="#000000" fill-opacity="1"><g transform="translate(8.87547, 201.955774)"><g><path d="M 6.140625 -2.28125 C 6.140625 -1.519531 5.894531 -0.929688 5.40625 -0.515625 C 4.925781 -0.0976562 4.238281 0.109375 3.34375 0.109375 C 2.507812 0.109375 1.84375 -0.078125 1.34375 -0.453125 C 0.84375 -0.828125 0.546875 -1.382812 0.453125 -2.125 L 1.546875 -2.21875 C 1.679688 -1.238281 2.28125 -0.75 3.34375 -0.75 C 3.875 -0.75 4.289062 -0.878906 4.59375 -1.140625 C 4.894531 -1.398438 5.046875 -1.789062 5.046875 -2.3125 C 5.046875 -2.757812 4.875 -3.109375 4.53125 -3.359375 C 4.1875 -3.609375 3.6875 -3.734375 3.03125 -3.734375 L 2.4375 -3.734375 L 2.4375 -4.65625 L 3 -4.65625 C 3.582031 -4.65625 4.03125 -4.78125 4.34375 -5.03125 C 4.664062 -5.28125 4.828125 -5.628906 4.828125 -6.078125 C 4.828125 -6.515625 4.695312 -6.859375 4.4375 -7.109375 C 4.175781 -7.367188 3.789062 -7.5 3.28125 -7.5 C 2.820312 -7.5 2.445312 -7.378906 2.15625 -7.140625 C 1.863281 -6.898438 1.695312 -6.566406 1.65625 -6.140625 L 0.59375 -6.21875 C 0.675781 -6.894531 0.957031 -7.421875 1.4375 -7.796875 C 1.914062 -8.179688 2.535156 -8.375 3.296875 -8.375 C 4.117188 -8.375 4.757812 -8.179688 5.21875 -7.796875 C 5.675781 -7.410156 5.90625 -6.875 5.90625 -6.1875 C 5.90625 -5.65625 5.757812 -5.222656 5.46875 -4.890625 C 5.175781 -4.566406 4.75 -4.347656 4.1875 -4.234375 L 4.1875 -4.203125 C 4.800781 -4.140625 5.28125 -3.929688 5.625 -3.578125 C 5.96875 -3.234375 6.140625 -2.800781 6.140625 -2.28125 Z M 6.140625 -2.28125 "/></g></g><g transform="translate(15.538248, 201.955774)"><g><path d="M 5.15625 -1.859375 L 5.15625 0 L 4.15625 0 L 4.15625 -1.859375 L 0.28125 -1.859375 L 0.28125 -2.6875 L 4.046875 -8.25 L 5.15625 -8.25 L 5.15625 -2.703125 L 6.3125 -2.703125 L 6.3125 -1.859375 Z M 4.15625 -7.0625 C 4.15625 -7.03125 4.101562 -6.921875 4 -6.734375 C 3.894531 -6.554688 3.816406 -6.429688 3.765625 -6.359375 L 1.65625 -3.25 L 1.34375 -2.8125 L 1.25 -2.703125 L 4.15625 -2.703125 Z M 4.15625 -7.0625 "/></g></g><g transform="translate(22.201026, 201.955774)"><g><path d="M 1.09375 0 L 1.09375 -1.28125 L 2.234375 -1.28125 L 2.234375 0 Z M 1.09375 0 "/></g></g><g transform="translate(25.529491, 201.955774)"><g><path d="M 0.90625 0 L 0.90625 -0.890625 L 3.015625 -0.890625 L 3.015625 -7.234375 L 1.15625 -5.90625 L 1.15625 -6.90625 L 3.09375 -8.25 L 4.078125 -8.25 L 4.078125 -0.890625 L 6.078125 -0.890625 L 6.078125 0 Z M 0.90625 0 "/></g></g><g transform="translate(32.192269, 201.955774)"><g><path d="M 10.234375 -2.546875 C 10.234375 -1.703125 10.070312 -1.054688 9.75 -0.609375 C 9.4375 -0.160156 8.972656 0.0625 8.359375 0.0625 C 7.742188 0.0625 7.28125 -0.15625 6.96875 -0.59375 C 6.664062 -1.03125 6.515625 -1.679688 6.515625 -2.546875 C 6.515625 -3.429688 6.660156 -4.085938 6.953125 -4.515625 C 7.253906 -4.953125 7.726562 -5.171875 8.375 -5.171875 C 9.019531 -5.171875 9.488281 -4.945312 9.78125 -4.5 C 10.082031 -4.0625 10.234375 -3.410156 10.234375 -2.546875 Z M 3.078125 0 L 2.171875 0 L 7.578125 -8.25 L 8.484375 -8.25 Z M 2.3125 -8.3125 C 2.925781 -8.3125 3.382812 -8.09375 3.6875 -7.65625 C 3.988281 -7.21875 4.140625 -6.566406 4.140625 -5.703125 C 4.140625 -4.859375 3.984375 -4.207031 3.671875 -3.75 C 3.359375 -3.289062 2.894531 -3.0625 2.28125 -3.0625 C 1.664062 -3.0625 1.203125 -3.285156 0.890625 -3.734375 C 0.578125 -4.191406 0.421875 -4.847656 0.421875 -5.703125 C 0.421875 -6.578125 0.570312 -7.226562 0.875 -7.65625 C 1.175781 -8.09375 1.65625 -8.3125 2.3125 -8.3125 Z M 9.359375 -2.546875 C 9.359375 -3.242188 9.28125 -3.75 9.125 -4.0625 C 8.976562 -4.375 8.726562 -4.53125 8.375 -4.53125 C 8.019531 -4.53125 7.765625 -4.375 7.609375 -4.0625 C 7.453125 -3.757812 7.375 -3.253906 7.375 -2.546875 C 7.375 -1.867188 7.445312 -1.367188 7.59375 -1.046875 C 7.75 -0.734375 8.007812 -0.578125 8.375 -0.578125 C 8.71875 -0.578125 8.96875 -0.738281 9.125 -1.0625 C 9.28125 -1.382812 9.359375 -1.878906 9.359375 -2.546875 Z M 3.28125 -5.703125 C 3.28125 -6.390625 3.203125 -6.890625 3.046875 -7.203125 C 2.898438 -7.523438 2.65625 -7.6875 2.3125 -7.6875 C 1.9375 -7.6875 1.671875 -7.53125 1.515625 -7.21875 C 1.359375 -6.90625 1.28125 -6.398438 1.28125 -5.703125 C 1.28125 -5.023438 1.359375 -4.523438 1.515625 -4.203125 C 1.671875 -3.890625 1.929688 -3.734375 2.296875 -3.734375 C 2.628906 -3.734375 2.875 -3.894531 3.03125 -4.21875 C 3.195312 -4.539062 3.28125 -5.035156 3.28125 -5.703125 Z M 3.28125 -5.703125 "/></g></g></g><g fill="#000000" fill-opacity="1"><g transform="translate(275.339807, 56.579682)"><g><path d="M 7.359375 -5.765625 C 7.359375 -4.984375 7.101562 -4.363281 6.59375 -3.90625 C 6.082031 -3.445312 5.390625 -3.21875 4.515625 -3.21875 L 2.09375 -3.21875 L 2.09375 0 L 0.984375 0 L 0.984375 -8.25 L 4.453125 -8.25 C 5.378906 -8.25 6.09375 -8.03125 6.59375 -7.59375 C 7.101562 -7.164062 7.359375 -6.554688 7.359375 -5.765625 Z M 6.234375 -5.75 C 6.234375 -6.8125 5.59375 -7.34375 4.3125 -7.34375 L 2.09375 -7.34375 L 2.09375 -4.09375 L 4.359375 -4.09375 C 5.609375 -4.09375 6.234375 -4.644531 6.234375 -5.75 Z M 6.234375 -5.75 "/></g></g><g transform="translate(283.330462, 56.579682)"><g><path d="M 0.828125 0 L 0.828125 -4.859375 C 0.828125 -5.304688 0.816406 -5.796875 0.796875 -6.328125 L 1.796875 -6.328125 C 1.828125 -5.609375 1.84375 -5.175781 1.84375 -5.03125 L 1.859375 -5.03125 C 2.023438 -5.582031 2.21875 -5.957031 2.4375 -6.15625 C 2.65625 -6.351562 2.960938 -6.453125 3.359375 -6.453125 C 3.503906 -6.453125 3.648438 -6.429688 3.796875 -6.390625 L 3.796875 -5.421875 C 3.648438 -5.460938 3.460938 -5.484375 3.234375 -5.484375 C 2.796875 -5.484375 2.460938 -5.296875 2.234375 -4.921875 C 2.003906 -4.546875 1.890625 -4.003906 1.890625 -3.296875 L 1.890625 0 Z M 0.828125 0 "/></g></g><g transform="translate(287.319939, 56.579682)"><g><path d="M 6.15625 -3.171875 C 6.15625 -2.066406 5.910156 -1.242188 5.421875 -0.703125 C 4.941406 -0.160156 4.238281 0.109375 3.3125 0.109375 C 2.382812 0.109375 1.679688 -0.171875 1.203125 -0.734375 C 0.734375 -1.296875 0.5 -2.109375 0.5 -3.171875 C 0.5 -5.359375 1.445312 -6.453125 3.34375 -6.453125 C 4.3125 -6.453125 5.019531 -6.179688 5.46875 -5.640625 C 5.925781 -5.109375 6.15625 -4.285156 6.15625 -3.171875 Z M 5.0625 -3.171875 C 5.0625 -4.046875 4.929688 -4.679688 4.671875 -5.078125 C 4.410156 -5.472656 3.972656 -5.671875 3.359375 -5.671875 C 2.742188 -5.671875 2.296875 -5.46875 2.015625 -5.0625 C 1.742188 -4.65625 1.609375 -4.023438 1.609375 -3.171875 C 1.609375 -2.335938 1.742188 -1.707031 2.015625 -1.28125 C 2.285156 -0.863281 2.710938 -0.65625 3.296875 -0.65625 C 3.929688 -0.65625 4.382812 -0.859375 4.65625 -1.265625 C 4.925781 -1.671875 5.0625 -2.304688 5.0625 -3.171875 Z M 5.0625 -3.171875 "/></g></g><g transform="translate(293.982717, 56.579682)"><g><path d="M 4.796875 -1.015625 C 4.609375 -0.609375 4.351562 -0.316406 4.03125 -0.140625 C 3.707031 0.0234375 3.304688 0.109375 2.828125 0.109375 C 2.023438 0.109375 1.4375 -0.15625 1.0625 -0.6875 C 0.6875 -1.226562 0.5 -2.046875 0.5 -3.140625 C 0.5 -5.347656 1.273438 -6.453125 2.828125 -6.453125 C 3.304688 -6.453125 3.707031 -6.363281 4.03125 -6.1875 C 4.351562 -6.007812 4.609375 -5.726562 4.796875 -5.34375 L 4.8125 -5.34375 L 4.796875 -6.0625 L 4.796875 -8.6875 L 5.859375 -8.6875 L 5.859375 -1.3125 C 5.859375 -0.644531 5.867188 -0.207031 5.890625 0 L 4.890625 0 C 4.878906 -0.0625 4.863281 -0.203125 4.84375 -0.421875 C 4.832031 -0.648438 4.828125 -0.847656 4.828125 -1.015625 Z M 1.609375 -3.171875 C 1.609375 -2.285156 1.722656 -1.648438 1.953125 -1.265625 C 2.191406 -0.890625 2.570312 -0.703125 3.09375 -0.703125 C 3.695312 -0.703125 4.128906 -0.90625 4.390625 -1.3125 C 4.660156 -1.726562 4.796875 -2.367188 4.796875 -3.234375 C 4.796875 -4.078125 4.660156 -4.691406 4.390625 -5.078125 C 4.128906 -5.472656 3.703125 -5.671875 3.109375 -5.671875 C 2.578125 -5.671875 2.191406 -5.472656 1.953125 -5.078125 C 1.722656 -4.691406 1.609375 -4.054688 1.609375 -3.171875 Z M 1.609375 -3.171875 "/></g></g><g transform="translate(300.645496, 56.579682)"><g><path d="M 1.84375 -6.328125 L 1.84375 -2.3125 C 1.84375 -1.894531 1.878906 -1.570312 1.953125 -1.34375 C 2.035156 -1.113281 2.164062 -0.945312 2.34375 -0.84375 C 2.53125 -0.75 2.796875 -0.703125 3.140625 -0.703125 C 3.648438 -0.703125 4.050781 -0.875 4.34375 -1.21875 C 4.632812 -1.5625 4.78125 -2.039062 4.78125 -2.65625 L 4.78125 -6.328125 L 5.828125 -6.328125 L 5.828125 -1.359375 C 5.828125 -0.617188 5.84375 -0.164062 5.875 0 L 4.875 0 C 4.875 -0.0195312 4.867188 -0.0703125 4.859375 -0.15625 C 4.859375 -0.238281 4.851562 -0.335938 4.84375 -0.453125 C 4.84375 -0.566406 4.835938 -0.773438 4.828125 -1.078125 L 4.8125 -1.078125 C 4.570312 -0.640625 4.289062 -0.332031 3.96875 -0.15625 C 3.65625 0.0195312 3.257812 0.109375 2.78125 0.109375 C 2.09375 0.109375 1.585938 -0.0625 1.265625 -0.40625 C 0.941406 -0.75 0.78125 -1.316406 0.78125 -2.109375 L 0.78125 -6.328125 Z M 1.84375 -6.328125 "/></g></g><g transform="translate(307.308274, 56.579682)"><g><path d="M 3.234375 -0.046875 C 2.890625 0.046875 2.535156 0.09375 2.171875 0.09375 C 1.328125 0.09375 0.90625 -0.382812 0.90625 -1.34375 L 0.90625 -5.5625 L 0.1875 -5.5625 L 0.1875 -6.328125 L 0.953125 -6.328125 L 1.265625 -7.75 L 1.96875 -7.75 L 1.96875 -6.328125 L 3.140625 -6.328125 L 3.140625 -5.5625 L 1.96875 -5.5625 L 1.96875 -1.5625 C 1.96875 -1.257812 2.015625 -1.046875 2.109375 -0.921875 C 2.210938 -0.804688 2.390625 -0.75 2.640625 -0.75 C 2.773438 -0.75 2.972656 -0.773438 3.234375 -0.828125 Z M 3.234375 -0.046875 "/></g></g><g transform="translate(310.636738, 56.579682)"><g><path d="M 6.15625 -3.171875 C 6.15625 -2.066406 5.910156 -1.242188 5.421875 -0.703125 C 4.941406 -0.160156 4.238281 0.109375 3.3125 0.109375 C 2.382812 0.109375 1.679688 -0.171875 1.203125 -0.734375 C 0.734375 -1.296875 0.5 -2.109375 0.5 -3.171875 C 0.5 -5.359375 1.445312 -6.453125 3.34375 -6.453125 C 4.3125 -6.453125 5.019531 -6.179688 5.46875 -5.640625 C 5.925781 -5.109375 6.15625 -4.285156 6.15625 -3.171875 Z M 5.0625 -3.171875 C 5.0625 -4.046875 4.929688 -4.679688 4.671875 -5.078125 C 4.410156 -5.472656 3.972656 -5.671875 3.359375 -5.671875 C 2.742188 -5.671875 2.296875 -5.46875 2.015625 -5.0625 C 1.742188 -4.65625 1.609375 -4.023438 1.609375 -3.171875 C 1.609375 -2.335938 1.742188 -1.707031 2.015625 -1.28125 C 2.285156 -0.863281 2.710938 -0.65625 3.296875 -0.65625 C 3.929688 -0.65625 4.382812 -0.859375 4.65625 -1.265625 C 4.925781 -1.671875 5.0625 -2.304688 5.0625 -3.171875 Z M 5.0625 -3.171875 "/></g></g><g transform="translate(317.299517, 56.579682)"><g/></g><g transform="translate(320.627981, 56.579682)"><g><path d="M 0.90625 0 L 0.90625 -0.890625 L 3.015625 -0.890625 L 3.015625 -7.234375 L 1.15625 -5.90625 L 1.15625 -6.90625 L 3.09375 -8.25 L 4.078125 -8.25 L 4.078125 -0.890625 L 6.078125 -0.890625 L 6.078125 0 Z M 0.90625 0 "/></g></g></g><g fill="#000000" fill-opacity="1"><g transform="translate(284.699285, 71.85903)"><g><path d="M 6.140625 -2.28125 C 6.140625 -1.519531 5.894531 -0.929688 5.40625 -0.515625 C 4.925781 -0.0976562 4.238281 0.109375 3.34375 0.109375 C 2.507812 0.109375 1.84375 -0.078125 1.34375 -0.453125 C 0.84375 -0.828125 0.546875 -1.382812 0.453125 -2.125 L 1.546875 -2.21875 C 1.679688 -1.238281 2.28125 -0.75 3.34375 -0.75 C 3.875 -0.75 4.289062 -0.878906 4.59375 -1.140625 C 4.894531 -1.398438 5.046875 -1.789062 5.046875 -2.3125 C 5.046875 -2.757812 4.875 -3.109375 4.53125 -3.359375 C 4.1875 -3.609375 3.6875 -3.734375 3.03125 -3.734375 L 2.4375 -3.734375 L 2.4375 -4.65625 L 3 -4.65625 C 3.582031 -4.65625 4.03125 -4.78125 4.34375 -5.03125 C 4.664062 -5.28125 4.828125 -5.628906 4.828125 -6.078125 C 4.828125 -6.515625 4.695312 -6.859375 4.4375 -7.109375 C 4.175781 -7.367188 3.789062 -7.5 3.28125 -7.5 C 2.820312 -7.5 2.445312 -7.378906 2.15625 -7.140625 C 1.863281 -6.898438 1.695312 -6.566406 1.65625 -6.140625 L 0.59375 -6.21875 C 0.675781 -6.894531 0.957031 -7.421875 1.4375 -7.796875 C 1.914062 -8.179688 2.535156 -8.375 3.296875 -8.375 C 4.117188 -8.375 4.757812 -8.179688 5.21875 -7.796875 C 5.675781 -7.410156 5.90625 -6.875 5.90625 -6.1875 C 5.90625 -5.65625 5.757812 -5.222656 5.46875 -4.890625 C 5.175781 -4.566406 4.75 -4.347656 4.1875 -4.234375 L 4.1875 -4.203125 C 4.800781 -4.140625 5.28125 -3.929688 5.625 -3.578125 C 5.96875 -3.234375 6.140625 -2.800781 6.140625 -2.28125 Z M 6.140625 -2.28125 "/></g></g><g transform="translate(291.362063, 71.85903)"><g><path d="M 6.203125 -4.125 C 6.203125 -2.75 5.957031 -1.695312 5.46875 -0.96875 C 4.976562 -0.25 4.257812 0.109375 3.3125 0.109375 C 2.363281 0.109375 1.648438 -0.25 1.171875 -0.96875 C 0.703125 -1.6875 0.46875 -2.738281 0.46875 -4.125 C 0.46875 -5.539062 0.695312 -6.601562 1.15625 -7.3125 C 1.625 -8.019531 2.359375 -8.375 3.359375 -8.375 C 4.328125 -8.375 5.039062 -8.015625 5.5 -7.296875 C 5.96875 -6.578125 6.203125 -5.519531 6.203125 -4.125 Z M 5.125 -4.125 C 5.125 -5.3125 4.984375 -6.171875 4.703125 -6.703125 C 4.429688 -7.242188 3.984375 -7.515625 3.359375 -7.515625 C 2.703125 -7.515625 2.234375 -7.25 1.953125 -6.71875 C 1.671875 -6.195312 1.53125 -5.332031 1.53125 -4.125 C 1.53125 -2.957031 1.671875 -2.101562 1.953125 -1.5625 C 2.242188 -1.019531 2.703125 -0.75 3.328125 -0.75 C 3.953125 -0.75 4.40625 -1.023438 4.6875 -1.578125 C 4.976562 -2.128906 5.125 -2.976562 5.125 -4.125 Z M 5.125 -4.125 "/></g></g><g transform="translate(298.024842, 71.85903)"><g><path d="M 1.09375 0 L 1.09375 -1.28125 L 2.234375 -1.28125 L 2.234375 0 Z M 1.09375 0 "/></g></g><g transform="translate(301.353306, 71.85903)"><g><path d="M 6.15625 -2.6875 C 6.15625 -1.8125 5.894531 -1.125 5.375 -0.625 C 4.863281 -0.132812 4.148438 0.109375 3.234375 0.109375 C 2.460938 0.109375 1.84375 -0.0546875 1.375 -0.390625 C 0.90625 -0.722656 0.609375 -1.207031 0.484375 -1.84375 L 1.546875 -1.96875 C 1.765625 -1.15625 2.335938 -0.75 3.265625 -0.75 C 3.828125 -0.75 4.265625 -0.914062 4.578125 -1.25 C 4.898438 -1.59375 5.0625 -2.0625 5.0625 -2.65625 C 5.0625 -3.175781 4.898438 -3.597656 4.578125 -3.921875 C 4.265625 -4.242188 3.832031 -4.40625 3.28125 -4.40625 C 3 -4.40625 2.734375 -4.359375 2.484375 -4.265625 C 2.242188 -4.171875 2 -4.019531 1.75 -3.8125 L 0.71875 -3.8125 L 1 -8.25 L 5.6875 -8.25 L 5.6875 -7.34375 L 1.953125 -7.34375 L 1.796875 -4.734375 C 2.253906 -5.085938 2.820312 -5.265625 3.5 -5.265625 C 4.3125 -5.265625 4.957031 -5.023438 5.4375 -4.546875 C 5.914062 -4.066406 6.15625 -3.445312 6.15625 -2.6875 Z M 6.15625 -2.6875 "/></g></g><g transform="translate(308.016084, 71.85903)"><g><path d="M 10.234375 -2.546875 C 10.234375 -1.703125 10.070312 -1.054688 9.75 -0.609375 C 9.4375 -0.160156 8.972656 0.0625 8.359375 0.0625 C 7.742188 0.0625 7.28125 -0.15625 6.96875 -0.59375 C 6.664062 -1.03125 6.515625 -1.679688 6.515625 -2.546875 C 6.515625 -3.429688 6.660156 -4.085938 6.953125 -4.515625 C 7.253906 -4.953125 7.726562 -5.171875 8.375 -5.171875 C 9.019531 -5.171875 9.488281 -4.945312 9.78125 -4.5 C 10.082031 -4.0625 10.234375 -3.410156 10.234375 -2.546875 Z M 3.078125 0 L 2.171875 0 L 7.578125 -8.25 L 8.484375 -8.25 Z M 2.3125 -8.3125 C 2.925781 -8.3125 3.382812 -8.09375 3.6875 -7.65625 C 3.988281 -7.21875 4.140625 -6.566406 4.140625 -5.703125 C 4.140625 -4.859375 3.984375 -4.207031 3.671875 -3.75 C 3.359375 -3.289062 2.894531 -3.0625 2.28125 -3.0625 C 1.664062 -3.0625 1.203125 -3.285156 0.890625 -3.734375 C 0.578125 -4.191406 0.421875 -4.847656 0.421875 -5.703125 C 0.421875 -6.578125 0.570312 -7.226562 0.875 -7.65625 C 1.175781 -8.09375 1.65625 -8.3125 2.3125 -8.3125 Z M 9.359375 -2.546875 C 9.359375 -3.242188 9.28125 -3.75 9.125 -4.0625 C 8.976562 -4.375 8.726562 -4.53125 8.375 -4.53125 C 8.019531 -4.53125 7.765625 -4.375 7.609375 -4.0625 C 7.453125 -3.757812 7.375 -3.253906 7.375 -2.546875 C 7.375 -1.867188 7.445312 -1.367188 7.59375 -1.046875 C 7.75 -0.734375 8.007812 -0.578125 8.375 -0.578125 C 8.71875 -0.578125 8.96875 -0.738281 9.125 -1.0625 C 9.28125 -1.382812 9.359375 -1.878906 9.359375 -2.546875 Z M 3.28125 -5.703125 C 3.28125 -6.390625 3.203125 -6.890625 3.046875 -7.203125 C 2.898438 -7.523438 2.65625 -7.6875 2.3125 -7.6875 C 1.9375 -7.6875 1.671875 -7.53125 1.515625 -7.21875 C 1.359375 -6.90625 1.28125 -6.398438 1.28125 -5.703125 C 1.28125 -5.023438 1.359375 -4.523438 1.515625 -4.203125 C 1.671875 -3.890625 1.929688 -3.734375 2.296875 -3.734375 C 2.628906 -3.734375 2.875 -3.894531 3.03125 -4.21875 C 3.195312 -4.539062 3.28125 -5.035156 3.28125 -5.703125 Z M 3.28125 -5.703125 "/></g></g></g><g fill="#000000" fill-opacity="1"><g transform="translate(181.183459, 284.857353)"><g><path d="M 7.359375 -5.765625 C 7.359375 -4.984375 7.101562 -4.363281 6.59375 -3.90625 C 6.082031 -3.445312 5.390625 -3.21875 4.515625 -3.21875 L 2.09375 -3.21875 L 2.09375 0 L 0.984375 0 L 0.984375 -8.25 L 4.453125 -8.25 C 5.378906 -8.25 6.09375 -8.03125 6.59375 -7.59375 C 7.101562 -7.164062 7.359375 -6.554688 7.359375 -5.765625 Z M 6.234375 -5.75 C 6.234375 -6.8125 5.59375 -7.34375 4.3125 -7.34375 L 2.09375 -7.34375 L 2.09375 -4.09375 L 4.359375 -4.09375 C 5.609375 -4.09375 6.234375 -4.644531 6.234375 -5.75 Z M 6.234375 -5.75 "/></g></g><g transform="translate(189.174113, 284.857353)"><g><path d="M 0.828125 0 L 0.828125 -4.859375 C 0.828125 -5.304688 0.816406 -5.796875 0.796875 -6.328125 L 1.796875 -6.328125 C 1.828125 -5.609375 1.84375 -5.175781 1.84375 -5.03125 L 1.859375 -5.03125 C 2.023438 -5.582031 2.21875 -5.957031 2.4375 -6.15625 C 2.65625 -6.351562 2.960938 -6.453125 3.359375 -6.453125 C 3.503906 -6.453125 3.648438 -6.429688 3.796875 -6.390625 L 3.796875 -5.421875 C 3.648438 -5.460938 3.460938 -5.484375 3.234375 -5.484375 C 2.796875 -5.484375 2.460938 -5.296875 2.234375 -4.921875 C 2.003906 -4.546875 1.890625 -4.003906 1.890625 -3.296875 L 1.890625 0 Z M 0.828125 0 "/></g></g><g transform="translate(193.163591, 284.857353)"><g><path d="M 6.15625 -3.171875 C 6.15625 -2.066406 5.910156 -1.242188 5.421875 -0.703125 C 4.941406 -0.160156 4.238281 0.109375 3.3125 0.109375 C 2.382812 0.109375 1.679688 -0.171875 1.203125 -0.734375 C 0.734375 -1.296875 0.5 -2.109375 0.5 -3.171875 C 0.5 -5.359375 1.445312 -6.453125 3.34375 -6.453125 C 4.3125 -6.453125 5.019531 -6.179688 5.46875 -5.640625 C 5.925781 -5.109375 6.15625 -4.285156 6.15625 -3.171875 Z M 5.0625 -3.171875 C 5.0625 -4.046875 4.929688 -4.679688 4.671875 -5.078125 C 4.410156 -5.472656 3.972656 -5.671875 3.359375 -5.671875 C 2.742188 -5.671875 2.296875 -5.46875 2.015625 -5.0625 C 1.742188 -4.65625 1.609375 -4.023438 1.609375 -3.171875 C 1.609375 -2.335938 1.742188 -1.707031 2.015625 -1.28125 C 2.285156 -0.863281 2.710938 -0.65625 3.296875 -0.65625 C 3.929688 -0.65625 4.382812 -0.859375 4.65625 -1.265625 C 4.925781 -1.671875 5.0625 -2.304688 5.0625 -3.171875 Z M 5.0625 -3.171875 "/></g></g><g transform="translate(199.826369, 284.857353)"><g><path d="M 4.796875 -1.015625 C 4.609375 -0.609375 4.351562 -0.316406 4.03125 -0.140625 C 3.707031 0.0234375 3.304688 0.109375 2.828125 0.109375 C 2.023438 0.109375 1.4375 -0.15625 1.0625 -0.6875 C 0.6875 -1.226562 0.5 -2.046875 0.5 -3.140625 C 0.5 -5.347656 1.273438 -6.453125 2.828125 -6.453125 C 3.304688 -6.453125 3.707031 -6.363281 4.03125 -6.1875 C 4.351562 -6.007812 4.609375 -5.726562 4.796875 -5.34375 L 4.8125 -5.34375 L 4.796875 -6.0625 L 4.796875 -8.6875 L 5.859375 -8.6875 L 5.859375 -1.3125 C 5.859375 -0.644531 5.867188 -0.207031 5.890625 0 L 4.890625 0 C 4.878906 -0.0625 4.863281 -0.203125 4.84375 -0.421875 C 4.832031 -0.648438 4.828125 -0.847656 4.828125 -1.015625 Z M 1.609375 -3.171875 C 1.609375 -2.285156 1.722656 -1.648438 1.953125 -1.265625 C 2.191406 -0.890625 2.570312 -0.703125 3.09375 -0.703125 C 3.695312 -0.703125 4.128906 -0.90625 4.390625 -1.3125 C 4.660156 -1.726562 4.796875 -2.367188 4.796875 -3.234375 C 4.796875 -4.078125 4.660156 -4.691406 4.390625 -5.078125 C 4.128906 -5.472656 3.703125 -5.671875 3.109375 -5.671875 C 2.578125 -5.671875 2.191406 -5.472656 1.953125 -5.078125 C 1.722656 -4.691406 1.609375 -4.054688 1.609375 -3.171875 Z M 1.609375 -3.171875 "/></g></g><g transform="translate(206.489147, 284.857353)"><g><path d="M 1.84375 -6.328125 L 1.84375 -2.3125 C 1.84375 -1.894531 1.878906 -1.570312 1.953125 -1.34375 C 2.035156 -1.113281 2.164062 -0.945312 2.34375 -0.84375 C 2.53125 -0.75 2.796875 -0.703125 3.140625 -0.703125 C 3.648438 -0.703125 4.050781 -0.875 4.34375 -1.21875 C 4.632812 -1.5625 4.78125 -2.039062 4.78125 -2.65625 L 4.78125 -6.328125 L 5.828125 -6.328125 L 5.828125 -1.359375 C 5.828125 -0.617188 5.84375 -0.164062 5.875 0 L 4.875 0 C 4.875 -0.0195312 4.867188 -0.0703125 4.859375 -0.15625 C 4.859375 -0.238281 4.851562 -0.335938 4.84375 -0.453125 C 4.84375 -0.566406 4.835938 -0.773438 4.828125 -1.078125 L 4.8125 -1.078125 C 4.570312 -0.640625 4.289062 -0.332031 3.96875 -0.15625 C 3.65625 0.0195312 3.257812 0.109375 2.78125 0.109375 C 2.09375 0.109375 1.585938 -0.0625 1.265625 -0.40625 C 0.941406 -0.75 0.78125 -1.316406 0.78125 -2.109375 L 0.78125 -6.328125 Z M 1.84375 -6.328125 "/></g></g><g transform="translate(213.151926, 284.857353)"><g><path d="M 3.234375 -0.046875 C 2.890625 0.046875 2.535156 0.09375 2.171875 0.09375 C 1.328125 0.09375 0.90625 -0.382812 0.90625 -1.34375 L 0.90625 -5.5625 L 0.1875 -5.5625 L 0.1875 -6.328125 L 0.953125 -6.328125 L 1.265625 -7.75 L 1.96875 -7.75 L 1.96875 -6.328125 L 3.140625 -6.328125 L 3.140625 -5.5625 L 1.96875 -5.5625 L 1.96875 -1.5625 C 1.96875 -1.257812 2.015625 -1.046875 2.109375 -0.921875 C 2.210938 -0.804688 2.390625 -0.75 2.640625 -0.75 C 2.773438 -0.75 2.972656 -0.773438 3.234375 -0.828125 Z M 3.234375 -0.046875 "/></g></g><g transform="translate(216.48039, 284.857353)"><g><path d="M 6.15625 -3.171875 C 6.15625 -2.066406 5.910156 -1.242188 5.421875 -0.703125 C 4.941406 -0.160156 4.238281 0.109375 3.3125 0.109375 C 2.382812 0.109375 1.679688 -0.171875 1.203125 -0.734375 C 0.734375 -1.296875 0.5 -2.109375 0.5 -3.171875 C 0.5 -5.359375 1.445312 -6.453125 3.34375 -6.453125 C 4.3125 -6.453125 5.019531 -6.179688 5.46875 -5.640625 C 5.925781 -5.109375 6.15625 -4.285156 6.15625 -3.171875 Z M 5.0625 -3.171875 C 5.0625 -4.046875 4.929688 -4.679688 4.671875 -5.078125 C 4.410156 -5.472656 3.972656 -5.671875 3.359375 -5.671875 C 2.742188 -5.671875 2.296875 -5.46875 2.015625 -5.0625 C 1.742188 -4.65625 1.609375 -4.023438 1.609375 -3.171875 C 1.609375 -2.335938 1.742188 -1.707031 2.015625 -1.28125 C 2.285156 -0.863281 2.710938 -0.65625 3.296875 -0.65625 C 3.929688 -0.65625 4.382812 -0.859375 4.65625 -1.265625 C 4.925781 -1.671875 5.0625 -2.304688 5.0625 -3.171875 Z M 5.0625 -3.171875 "/></g></g><g transform="translate(223.143168, 284.857353)"><g/></g><g transform="translate(226.471633, 284.857353)"><g><path d="M 6.140625 -2.28125 C 6.140625 -1.519531 5.894531 -0.929688 5.40625 -0.515625 C 4.925781 -0.0976562 4.238281 0.109375 3.34375 0.109375 C 2.507812 0.109375 1.84375 -0.078125 1.34375 -0.453125 C 0.84375 -0.828125 0.546875 -1.382812 0.453125 -2.125 L 1.546875 -2.21875 C 1.679688 -1.238281 2.28125 -0.75 3.34375 -0.75 C 3.875 -0.75 4.289062 -0.878906 4.59375 -1.140625 C 4.894531 -1.398438 5.046875 -1.789062 5.046875 -2.3125 C 5.046875 -2.757812 4.875 -3.109375 4.53125 -3.359375 C 4.1875 -3.609375 3.6875 -3.734375 3.03125 -3.734375 L 2.4375 -3.734375 L 2.4375 -4.65625 L 3 -4.65625 C 3.582031 -4.65625 4.03125 -4.78125 4.34375 -5.03125 C 4.664062 -5.28125 4.828125 -5.628906 4.828125 -6.078125 C 4.828125 -6.515625 4.695312 -6.859375 4.4375 -7.109375 C 4.175781 -7.367188 3.789062 -7.5 3.28125 -7.5 C 2.820312 -7.5 2.445312 -7.378906 2.15625 -7.140625 C 1.863281 -6.898438 1.695312 -6.566406 1.65625 -6.140625 L 0.59375 -6.21875 C 0.675781 -6.894531 0.957031 -7.421875 1.4375 -7.796875 C 1.914062 -8.179688 2.535156 -8.375 3.296875 -8.375 C 4.117188 -8.375 4.757812 -8.179688 5.21875 -7.796875 C 5.675781 -7.410156 5.90625 -6.875 5.90625 -6.1875 C 5.90625 -5.65625 5.757812 -5.222656 5.46875 -4.890625 C 5.175781 -4.566406 4.75 -4.347656 4.1875 -4.234375 L 4.1875 -4.203125 C 4.800781 -4.140625 5.28125 -3.929688 5.625 -3.578125 C 5.96875 -3.234375 6.140625 -2.800781 6.140625 -2.28125 Z M 6.140625 -2.28125 "/></g></g></g><g fill="#000000" fill-opacity="1"><g transform="translate(190.180257, 300.136701)"><g><path d="M 0.90625 0 L 0.90625 -0.890625 L 3.015625 -0.890625 L 3.015625 -7.234375 L 1.15625 -5.90625 L 1.15625 -6.90625 L 3.09375 -8.25 L 4.078125 -8.25 L 4.078125 -0.890625 L 6.078125 -0.890625 L 6.078125 0 Z M 0.90625 0 "/></g></g><g transform="translate(196.843035, 300.136701)"><g><path d="M 5.15625 -1.859375 L 5.15625 0 L 4.15625 0 L 4.15625 -1.859375 L 0.28125 -1.859375 L 0.28125 -2.6875 L 4.046875 -8.25 L 5.15625 -8.25 L 5.15625 -2.703125 L 6.3125 -2.703125 L 6.3125 -1.859375 Z M 4.15625 -7.0625 C 4.15625 -7.03125 4.101562 -6.921875 4 -6.734375 C 3.894531 -6.554688 3.816406 -6.429688 3.765625 -6.359375 L 1.65625 -3.25 L 1.34375 -2.8125 L 1.25 -2.703125 L 4.15625 -2.703125 Z M 4.15625 -7.0625 "/></g></g><g transform="translate(203.505814, 300.136701)"><g><path d="M 1.09375 0 L 1.09375 -1.28125 L 2.234375 -1.28125 L 2.234375 0 Z M 1.09375 0 "/></g></g><g transform="translate(206.834278, 300.136701)"><g><path d="M 6.140625 -2.703125 C 6.140625 -1.828125 5.898438 -1.140625 5.421875 -0.640625 C 4.953125 -0.140625 4.300781 0.109375 3.46875 0.109375 C 2.539062 0.109375 1.832031 -0.234375 1.34375 -0.921875 C 0.851562 -1.609375 0.609375 -2.613281 0.609375 -3.9375 C 0.609375 -5.363281 0.863281 -6.457031 1.375 -7.21875 C 1.882812 -7.988281 2.613281 -8.375 3.5625 -8.375 C 4.800781 -8.375 5.582031 -7.8125 5.90625 -6.6875 L 4.90625 -6.5 C 4.695312 -7.175781 4.242188 -7.515625 3.546875 -7.515625 C 2.941406 -7.515625 2.472656 -7.234375 2.140625 -6.671875 C 1.816406 -6.109375 1.65625 -5.300781 1.65625 -4.25 C 1.84375 -4.601562 2.109375 -4.867188 2.453125 -5.046875 C 2.804688 -5.234375 3.207031 -5.328125 3.65625 -5.328125 C 4.414062 -5.328125 5.019531 -5.085938 5.46875 -4.609375 C 5.914062 -4.140625 6.140625 -3.503906 6.140625 -2.703125 Z M 5.0625 -2.65625 C 5.0625 -3.25 4.914062 -3.707031 4.625 -4.03125 C 4.332031 -4.351562 3.925781 -4.515625 3.40625 -4.515625 C 2.914062 -4.515625 2.519531 -4.367188 2.21875 -4.078125 C 1.914062 -3.796875 1.765625 -3.40625 1.765625 -2.90625 C 1.765625 -2.269531 1.921875 -1.75 2.234375 -1.34375 C 2.546875 -0.9375 2.945312 -0.734375 3.4375 -0.734375 C 3.945312 -0.734375 4.34375 -0.898438 4.625 -1.234375 C 4.914062 -1.578125 5.0625 -2.050781 5.0625 -2.65625 Z M 5.0625 -2.65625 "/></g></g><g transform="translate(213.497056, 300.136701)"><g><path d="M 10.234375 -2.546875 C 10.234375 -1.703125 10.070312 -1.054688 9.75 -0.609375 C 9.4375 -0.160156 8.972656 0.0625 8.359375 0.0625 C 7.742188 0.0625 7.28125 -0.15625 6.96875 -0.59375 C 6.664062 -1.03125 6.515625 -1.679688 6.515625 -2.546875 C 6.515625 -3.429688 6.660156 -4.085938 6.953125 -4.515625 C 7.253906 -4.953125 7.726562 -5.171875 8.375 -5.171875 C 9.019531 -5.171875 9.488281 -4.945312 9.78125 -4.5 C 10.082031 -4.0625 10.234375 -3.410156 10.234375 -2.546875 Z M 3.078125 0 L 2.171875 0 L 7.578125 -8.25 L 8.484375 -8.25 Z M 2.3125 -8.3125 C 2.925781 -8.3125 3.382812 -8.09375 3.6875 -7.65625 C 3.988281 -7.21875 4.140625 -6.566406 4.140625 -5.703125 C 4.140625 -4.859375 3.984375 -4.207031 3.671875 -3.75 C 3.359375 -3.289062 2.894531 -3.0625 2.28125 -3.0625 C 1.664062 -3.0625 1.203125 -3.285156 0.890625 -3.734375 C 0.578125 -4.191406 0.421875 -4.847656 0.421875 -5.703125 C 0.421875 -6.578125 0.570312 -7.226562 0.875 -7.65625 C 1.175781 -8.09375 1.65625 -8.3125 2.3125 -8.3125 Z M 9.359375 -2.546875 C 9.359375 -3.242188 9.28125 -3.75 9.125 -4.0625 C 8.976562 -4.375 8.726562 -4.53125 8.375 -4.53125 C 8.019531 -4.53125 7.765625 -4.375 7.609375 -4.0625 C 7.453125 -3.757812 7.375 -3.253906 7.375 -2.546875 C 7.375 -1.867188 7.445312 -1.367188 7.59375 -1.046875 C 7.75 -0.734375 8.007812 -0.578125 8.375 -0.578125 C 8.71875 -0.578125 8.96875 -0.738281 9.125 -1.0625 C 9.28125 -1.382812 9.359375 -1.878906 9.359375 -2.546875 Z M 3.28125 -5.703125 C 3.28125 -6.390625 3.203125 -6.890625 3.046875 -7.203125 C 2.898438 -7.523438 2.65625 -7.6875 2.3125 -7.6875 C 1.9375 -7.6875 1.671875 -7.53125 1.515625 -7.21875 C 1.359375 -6.90625 1.28125 -6.398438 1.28125 -5.703125 C 1.28125 -5.023438 1.359375 -4.523438 1.515625 -4.203125 C 1.671875 -3.890625 1.929688 -3.734375 2.296875 -3.734375 C 2.628906 -3.734375 2.875 -3.894531 3.03125 -4.21875 C 3.195312 -4.539062 3.28125 -5.035156 3.28125 -5.703125 Z M 3.28125 -5.703125 "/></g></g></g><g fill="#000000" fill-opacity="1"><g transform="translate(93.836131, 9.735491)"><g><path d="M 7.359375 -5.765625 C 7.359375 -4.984375 7.101562 -4.363281 6.59375 -3.90625 C 6.082031 -3.445312 5.390625 -3.21875 4.515625 -3.21875 L 2.09375 -3.21875 L 2.09375 0 L 0.984375 0 L 0.984375 -8.25 L 4.453125 -8.25 C 5.378906 -8.25 6.09375 -8.03125 6.59375 -7.59375 C 7.101562 -7.164062 7.359375 -6.554688 7.359375 -5.765625 Z M 6.234375 -5.75 C 6.234375 -6.8125 5.59375 -7.34375 4.3125 -7.34375 L 2.09375 -7.34375 L 2.09375 -4.09375 L 4.359375 -4.09375 C 5.609375 -4.09375 6.234375 -4.644531 6.234375 -5.75 Z M 6.234375 -5.75 "/></g></g><g transform="translate(101.826785, 9.735491)"><g><path d="M 0.828125 0 L 0.828125 -4.859375 C 0.828125 -5.304688 0.816406 -5.796875 0.796875 -6.328125 L 1.796875 -6.328125 C 1.828125 -5.609375 1.84375 -5.175781 1.84375 -5.03125 L 1.859375 -5.03125 C 2.023438 -5.582031 2.21875 -5.957031 2.4375 -6.15625 C 2.65625 -6.351562 2.960938 -6.453125 3.359375 -6.453125 C 3.503906 -6.453125 3.648438 -6.429688 3.796875 -6.390625 L 3.796875 -5.421875 C 3.648438 -5.460938 3.460938 -5.484375 3.234375 -5.484375 C 2.796875 -5.484375 2.460938 -5.296875 2.234375 -4.921875 C 2.003906 -4.546875 1.890625 -4.003906 1.890625 -3.296875 L 1.890625 0 Z M 0.828125 0 "/></g></g><g transform="translate(105.816263, 9.735491)"><g><path d="M 6.15625 -3.171875 C 6.15625 -2.066406 5.910156 -1.242188 5.421875 -0.703125 C 4.941406 -0.160156 4.238281 0.109375 3.3125 0.109375 C 2.382812 0.109375 1.679688 -0.171875 1.203125 -0.734375 C 0.734375 -1.296875 0.5 -2.109375 0.5 -3.171875 C 0.5 -5.359375 1.445312 -6.453125 3.34375 -6.453125 C 4.3125 -6.453125 5.019531 -6.179688 5.46875 -5.640625 C 5.925781 -5.109375 6.15625 -4.285156 6.15625 -3.171875 Z M 5.0625 -3.171875 C 5.0625 -4.046875 4.929688 -4.679688 4.671875 -5.078125 C 4.410156 -5.472656 3.972656 -5.671875 3.359375 -5.671875 C 2.742188 -5.671875 2.296875 -5.46875 2.015625 -5.0625 C 1.742188 -4.65625 1.609375 -4.023438 1.609375 -3.171875 C 1.609375 -2.335938 1.742188 -1.707031 2.015625 -1.28125 C 2.285156 -0.863281 2.710938 -0.65625 3.296875 -0.65625 C 3.929688 -0.65625 4.382812 -0.859375 4.65625 -1.265625 C 4.925781 -1.671875 5.0625 -2.304688 5.0625 -3.171875 Z M 5.0625 -3.171875 "/></g></g><g transform="translate(112.479041, 9.735491)"><g><path d="M 4.796875 -1.015625 C 4.609375 -0.609375 4.351562 -0.316406 4.03125 -0.140625 C 3.707031 0.0234375 3.304688 0.109375 2.828125 0.109375 C 2.023438 0.109375 1.4375 -0.15625 1.0625 -0.6875 C 0.6875 -1.226562 0.5 -2.046875 0.5 -3.140625 C 0.5 -5.347656 1.273438 -6.453125 2.828125 -6.453125 C 3.304688 -6.453125 3.707031 -6.363281 4.03125 -6.1875 C 4.351562 -6.007812 4.609375 -5.726562 4.796875 -5.34375 L 4.8125 -5.34375 L 4.796875 -6.0625 L 4.796875 -8.6875 L 5.859375 -8.6875 L 5.859375 -1.3125 C 5.859375 -0.644531 5.867188 -0.207031 5.890625 0 L 4.890625 0 C 4.878906 -0.0625 4.863281 -0.203125 4.84375 -0.421875 C 4.832031 -0.648438 4.828125 -0.847656 4.828125 -1.015625 Z M 1.609375 -3.171875 C 1.609375 -2.285156 1.722656 -1.648438 1.953125 -1.265625 C 2.191406 -0.890625 2.570312 -0.703125 3.09375 -0.703125 C 3.695312 -0.703125 4.128906 -0.90625 4.390625 -1.3125 C 4.660156 -1.726562 4.796875 -2.367188 4.796875 -3.234375 C 4.796875 -4.078125 4.660156 -4.691406 4.390625 -5.078125 C 4.128906 -5.472656 3.703125 -5.671875 3.109375 -5.671875 C 2.578125 -5.671875 2.191406 -5.472656 1.953125 -5.078125 C 1.722656 -4.691406 1.609375 -4.054688 1.609375 -3.171875 Z M 1.609375 -3.171875 "/></g></g><g transform="translate(119.141819, 9.735491)"><g><path d="M 1.84375 -6.328125 L 1.84375 -2.3125 C 1.84375 -1.894531 1.878906 -1.570312 1.953125 -1.34375 C 2.035156 -1.113281 2.164062 -0.945312 2.34375 -0.84375 C 2.53125 -0.75 2.796875 -0.703125 3.140625 -0.703125 C 3.648438 -0.703125 4.050781 -0.875 4.34375 -1.21875 C 4.632812 -1.5625 4.78125 -2.039062 4.78125 -2.65625 L 4.78125 -6.328125 L 5.828125 -6.328125 L 5.828125 -1.359375 C 5.828125 -0.617188 5.84375 -0.164062 5.875 0 L 4.875 0 C 4.875 -0.0195312 4.867188 -0.0703125 4.859375 -0.15625 C 4.859375 -0.238281 4.851562 -0.335938 4.84375 -0.453125 C 4.84375 -0.566406 4.835938 -0.773438 4.828125 -1.078125 L 4.8125 -1.078125 C 4.570312 -0.640625 4.289062 -0.332031 3.96875 -0.15625 C 3.65625 0.0195312 3.257812 0.109375 2.78125 0.109375 C 2.09375 0.109375 1.585938 -0.0625 1.265625 -0.40625 C 0.941406 -0.75 0.78125 -1.316406 0.78125 -2.109375 L 0.78125 -6.328125 Z M 1.84375 -6.328125 "/></g></g><g transform="translate(125.804598, 9.735491)"><g><path d="M 3.234375 -0.046875 C 2.890625 0.046875 2.535156 0.09375 2.171875 0.09375 C 1.328125 0.09375 0.90625 -0.382812 0.90625 -1.34375 L 0.90625 -5.5625 L 0.1875 -5.5625 L 0.1875 -6.328125 L 0.953125 -6.328125 L 1.265625 -7.75 L 1.96875 -7.75 L 1.96875 -6.328125 L 3.140625 -6.328125 L 3.140625 -5.5625 L 1.96875 -5.5625 L 1.96875 -1.5625 C 1.96875 -1.257812 2.015625 -1.046875 2.109375 -0.921875 C 2.210938 -0.804688 2.390625 -0.75 2.640625 -0.75 C 2.773438 -0.75 2.972656 -0.773438 3.234375 -0.828125 Z M 3.234375 -0.046875 "/></g></g><g transform="translate(129.133062, 9.735491)"><g><path d="M 6.15625 -3.171875 C 6.15625 -2.066406 5.910156 -1.242188 5.421875 -0.703125 C 4.941406 -0.160156 4.238281 0.109375 3.3125 0.109375 C 2.382812 0.109375 1.679688 -0.171875 1.203125 -0.734375 C 0.734375 -1.296875 0.5 -2.109375 0.5 -3.171875 C 0.5 -5.359375 1.445312 -6.453125 3.34375 -6.453125 C 4.3125 -6.453125 5.019531 -6.179688 5.46875 -5.640625 C 5.925781 -5.109375 6.15625 -4.285156 6.15625 -3.171875 Z M 5.0625 -3.171875 C 5.0625 -4.046875 4.929688 -4.679688 4.671875 -5.078125 C 4.410156 -5.472656 3.972656 -5.671875 3.359375 -5.671875 C 2.742188 -5.671875 2.296875 -5.46875 2.015625 -5.0625 C 1.742188 -4.65625 1.609375 -4.023438 1.609375 -3.171875 C 1.609375 -2.335938 1.742188 -1.707031 2.015625 -1.28125 C 2.285156 -0.863281 2.710938 -0.65625 3.296875 -0.65625 C 3.929688 -0.65625 4.382812 -0.859375 4.65625 -1.265625 C 4.925781 -1.671875 5.0625 -2.304688 5.0625 -3.171875 Z M 5.0625 -3.171875 "/></g></g><g transform="translate(135.79584, 9.735491)"><g/></g><g transform="translate(139.124305, 9.735491)"><g><path d="M 6.15625 -2.6875 C 6.15625 -1.8125 5.894531 -1.125 5.375 -0.625 C 4.863281 -0.132812 4.148438 0.109375 3.234375 0.109375 C 2.460938 0.109375 1.84375 -0.0546875 1.375 -0.390625 C 0.90625 -0.722656 0.609375 -1.207031 0.484375 -1.84375 L 1.546875 -1.96875 C 1.765625 -1.15625 2.335938 -0.75 3.265625 -0.75 C 3.828125 -0.75 4.265625 -0.914062 4.578125 -1.25 C 4.898438 -1.59375 5.0625 -2.0625 5.0625 -2.65625 C 5.0625 -3.175781 4.898438 -3.597656 4.578125 -3.921875 C 4.265625 -4.242188 3.832031 -4.40625 3.28125 -4.40625 C 3 -4.40625 2.734375 -4.359375 2.484375 -4.265625 C 2.242188 -4.171875 2 -4.019531 1.75 -3.8125 L 0.71875 -3.8125 L 1 -8.25 L 5.6875 -8.25 L 5.6875 -7.34375 L 1.953125 -7.34375 L 1.796875 -4.734375 C 2.253906 -5.085938 2.820312 -5.265625 3.5 -5.265625 C 4.3125 -5.265625 4.957031 -5.023438 5.4375 -4.546875 C 5.914062 -4.066406 6.15625 -3.445312 6.15625 -2.6875 Z M 6.15625 -2.6875 "/></g></g></g><g fill="#000000" fill-opacity="1"><g transform="translate(102.82123, 25.014843)"><g><path d="M 0.90625 0 L 0.90625 -0.890625 L 3.015625 -0.890625 L 3.015625 -7.234375 L 1.15625 -5.90625 L 1.15625 -6.90625 L 3.09375 -8.25 L 4.078125 -8.25 L 4.078125 -0.890625 L 6.078125 -0.890625 L 6.078125 0 Z M 0.90625 0 "/></g></g><g transform="translate(109.484008, 25.014843)"><g><path d="M 0.609375 0 L 0.609375 -0.75 C 0.804688 -1.195312 1.046875 -1.59375 1.328125 -1.9375 C 1.617188 -2.289062 1.921875 -2.609375 2.234375 -2.890625 C 2.546875 -3.179688 2.859375 -3.445312 3.171875 -3.6875 C 3.484375 -3.925781 3.765625 -4.164062 4.015625 -4.40625 C 4.265625 -4.65625 4.460938 -4.910156 4.609375 -5.171875 C 4.765625 -5.441406 4.84375 -5.742188 4.84375 -6.078125 C 4.84375 -6.523438 4.710938 -6.875 4.453125 -7.125 C 4.191406 -7.375 3.820312 -7.5 3.34375 -7.5 C 2.894531 -7.5 2.523438 -7.375 2.234375 -7.125 C 1.941406 -6.882812 1.769531 -6.546875 1.71875 -6.109375 L 0.65625 -6.203125 C 0.726562 -6.867188 1.003906 -7.394531 1.484375 -7.78125 C 1.972656 -8.175781 2.59375 -8.375 3.34375 -8.375 C 4.175781 -8.375 4.816406 -8.175781 5.265625 -7.78125 C 5.710938 -7.382812 5.9375 -6.828125 5.9375 -6.109375 C 5.9375 -5.785156 5.863281 -5.46875 5.71875 -5.15625 C 5.570312 -4.84375 5.351562 -4.523438 5.0625 -4.203125 C 4.769531 -3.890625 4.21875 -3.398438 3.40625 -2.734375 C 2.957031 -2.367188 2.597656 -2.039062 2.328125 -1.75 C 2.066406 -1.457031 1.878906 -1.171875 1.765625 -0.890625 L 6.0625 -0.890625 L 6.0625 0 Z M 0.609375 0 "/></g></g><g transform="translate(116.146786, 25.014843)"><g><path d="M 1.09375 0 L 1.09375 -1.28125 L 2.234375 -1.28125 L 2.234375 0 Z M 1.09375 0 "/></g></g><g transform="translate(119.475251, 25.014843)"><g><path d="M 0.609375 0 L 0.609375 -0.75 C 0.804688 -1.195312 1.046875 -1.59375 1.328125 -1.9375 C 1.617188 -2.289062 1.921875 -2.609375 2.234375 -2.890625 C 2.546875 -3.179688 2.859375 -3.445312 3.171875 -3.6875 C 3.484375 -3.925781 3.765625 -4.164062 4.015625 -4.40625 C 4.265625 -4.65625 4.460938 -4.910156 4.609375 -5.171875 C 4.765625 -5.441406 4.84375 -5.742188 4.84375 -6.078125 C 4.84375 -6.523438 4.710938 -6.875 4.453125 -7.125 C 4.191406 -7.375 3.820312 -7.5 3.34375 -7.5 C 2.894531 -7.5 2.523438 -7.375 2.234375 -7.125 C 1.941406 -6.882812 1.769531 -6.546875 1.71875 -6.109375 L 0.65625 -6.203125 C 0.726562 -6.867188 1.003906 -7.394531 1.484375 -7.78125 C 1.972656 -8.175781 2.59375 -8.375 3.34375 -8.375 C 4.175781 -8.375 4.816406 -8.175781 5.265625 -7.78125 C 5.710938 -7.382812 5.9375 -6.828125 5.9375 -6.109375 C 5.9375 -5.785156 5.863281 -5.46875 5.71875 -5.15625 C 5.570312 -4.84375 5.351562 -4.523438 5.0625 -4.203125 C 4.769531 -3.890625 4.21875 -3.398438 3.40625 -2.734375 C 2.957031 -2.367188 2.597656 -2.039062 2.328125 -1.75 C 2.066406 -1.457031 1.878906 -1.171875 1.765625 -0.890625 L 6.0625 -0.890625 L 6.0625 0 Z M 0.609375 0 "/></g></g><g transform="translate(126.138029, 25.014843)"><g><path d="M 10.234375 -2.546875 C 10.234375 -1.703125 10.070312 -1.054688 9.75 -0.609375 C 9.4375 -0.160156 8.972656 0.0625 8.359375 0.0625 C 7.742188 0.0625 7.28125 -0.15625 6.96875 -0.59375 C 6.664062 -1.03125 6.515625 -1.679688 6.515625 -2.546875 C 6.515625 -3.429688 6.660156 -4.085938 6.953125 -4.515625 C 7.253906 -4.953125 7.726562 -5.171875 8.375 -5.171875 C 9.019531 -5.171875 9.488281 -4.945312 9.78125 -4.5 C 10.082031 -4.0625 10.234375 -3.410156 10.234375 -2.546875 Z M 3.078125 0 L 2.171875 0 L 7.578125 -8.25 L 8.484375 -8.25 Z M 2.3125 -8.3125 C 2.925781 -8.3125 3.382812 -8.09375 3.6875 -7.65625 C 3.988281 -7.21875 4.140625 -6.566406 4.140625 -5.703125 C 4.140625 -4.859375 3.984375 -4.207031 3.671875 -3.75 C 3.359375 -3.289062 2.894531 -3.0625 2.28125 -3.0625 C 1.664062 -3.0625 1.203125 -3.285156 0.890625 -3.734375 C 0.578125 -4.191406 0.421875 -4.847656 0.421875 -5.703125 C 0.421875 -6.578125 0.570312 -7.226562 0.875 -7.65625 C 1.175781 -8.09375 1.65625 -8.3125 2.3125 -8.3125 Z M 9.359375 -2.546875 C 9.359375 -3.242188 9.28125 -3.75 9.125 -4.0625 C 8.976562 -4.375 8.726562 -4.53125 8.375 -4.53125 C 8.019531 -4.53125 7.765625 -4.375 7.609375 -4.0625 C 7.453125 -3.757812 7.375 -3.253906 7.375 -2.546875 C 7.375 -1.867188 7.445312 -1.367188 7.59375 -1.046875 C 7.75 -0.734375 8.007812 -0.578125 8.375 -0.578125 C 8.71875 -0.578125 8.96875 -0.738281 9.125 -1.0625 C 9.28125 -1.382812 9.359375 -1.878906 9.359375 -2.546875 Z M 3.28125 -5.703125 C 3.28125 -6.390625 3.203125 -6.890625 3.046875 -7.203125 C 2.898438 -7.523438 2.65625 -7.6875 2.3125 -7.6875 C 1.9375 -7.6875 1.671875 -7.53125 1.515625 -7.21875 C 1.359375 -6.90625 1.28125 -6.398438 1.28125 -5.703125 C 1.28125 -5.023438 1.359375 -4.523438 1.515625 -4.203125 C 1.671875 -3.890625 1.929688 -3.734375 2.296875 -3.734375 C 2.628906 -3.734375 2.875 -3.894531 3.03125 -4.21875 C 3.195312 -4.539062 3.28125 -5.035156 3.28125 -5.703125 Z M 3.28125 -5.703125 "/></g></g></g><g fill="#000000" fill-opacity="1"><g transform="translate(275.339807, 234.83094)"><g><path d="M 7.359375 -5.765625 C 7.359375 -4.984375 7.101562 -4.363281 6.59375 -3.90625 C 6.082031 -3.445312 5.390625 -3.21875 4.515625 -3.21875 L 2.09375 -3.21875 L 2.09375 0 L 0.984375 0 L 0.984375 -8.25 L 4.453125 -8.25 C 5.378906 -8.25 6.09375 -8.03125 6.59375 -7.59375 C 7.101562 -7.164062 7.359375 -6.554688 7.359375 -5.765625 Z M 6.234375 -5.75 C 6.234375 -6.8125 5.59375 -7.34375 4.3125 -7.34375 L 2.09375 -7.34375 L 2.09375 -4.09375 L 4.359375 -4.09375 C 5.609375 -4.09375 6.234375 -4.644531 6.234375 -5.75 Z M 6.234375 -5.75 "/></g></g><g transform="translate(283.330462, 234.83094)"><g><path d="M 0.828125 0 L 0.828125 -4.859375 C 0.828125 -5.304688 0.816406 -5.796875 0.796875 -6.328125 L 1.796875 -6.328125 C 1.828125 -5.609375 1.84375 -5.175781 1.84375 -5.03125 L 1.859375 -5.03125 C 2.023438 -5.582031 2.21875 -5.957031 2.4375 -6.15625 C 2.65625 -6.351562 2.960938 -6.453125 3.359375 -6.453125 C 3.503906 -6.453125 3.648438 -6.429688 3.796875 -6.390625 L 3.796875 -5.421875 C 3.648438 -5.460938 3.460938 -5.484375 3.234375 -5.484375 C 2.796875 -5.484375 2.460938 -5.296875 2.234375 -4.921875 C 2.003906 -4.546875 1.890625 -4.003906 1.890625 -3.296875 L 1.890625 0 Z M 0.828125 0 "/></g></g><g transform="translate(287.319939, 234.83094)"><g><path d="M 6.15625 -3.171875 C 6.15625 -2.066406 5.910156 -1.242188 5.421875 -0.703125 C 4.941406 -0.160156 4.238281 0.109375 3.3125 0.109375 C 2.382812 0.109375 1.679688 -0.171875 1.203125 -0.734375 C 0.734375 -1.296875 0.5 -2.109375 0.5 -3.171875 C 0.5 -5.359375 1.445312 -6.453125 3.34375 -6.453125 C 4.3125 -6.453125 5.019531 -6.179688 5.46875 -5.640625 C 5.925781 -5.109375 6.15625 -4.285156 6.15625 -3.171875 Z M 5.0625 -3.171875 C 5.0625 -4.046875 4.929688 -4.679688 4.671875 -5.078125 C 4.410156 -5.472656 3.972656 -5.671875 3.359375 -5.671875 C 2.742188 -5.671875 2.296875 -5.46875 2.015625 -5.0625 C 1.742188 -4.65625 1.609375 -4.023438 1.609375 -3.171875 C 1.609375 -2.335938 1.742188 -1.707031 2.015625 -1.28125 C 2.285156 -0.863281 2.710938 -0.65625 3.296875 -0.65625 C 3.929688 -0.65625 4.382812 -0.859375 4.65625 -1.265625 C 4.925781 -1.671875 5.0625 -2.304688 5.0625 -3.171875 Z M 5.0625 -3.171875 "/></g></g><g transform="translate(293.982717, 234.83094)"><g><path d="M 4.796875 -1.015625 C 4.609375 -0.609375 4.351562 -0.316406 4.03125 -0.140625 C 3.707031 0.0234375 3.304688 0.109375 2.828125 0.109375 C 2.023438 0.109375 1.4375 -0.15625 1.0625 -0.6875 C 0.6875 -1.226562 0.5 -2.046875 0.5 -3.140625 C 0.5 -5.347656 1.273438 -6.453125 2.828125 -6.453125 C 3.304688 -6.453125 3.707031 -6.363281 4.03125 -6.1875 C 4.351562 -6.007812 4.609375 -5.726562 4.796875 -5.34375 L 4.8125 -5.34375 L 4.796875 -6.0625 L 4.796875 -8.6875 L 5.859375 -8.6875 L 5.859375 -1.3125 C 5.859375 -0.644531 5.867188 -0.207031 5.890625 0 L 4.890625 0 C 4.878906 -0.0625 4.863281 -0.203125 4.84375 -0.421875 C 4.832031 -0.648438 4.828125 -0.847656 4.828125 -1.015625 Z M 1.609375 -3.171875 C 1.609375 -2.285156 1.722656 -1.648438 1.953125 -1.265625 C 2.191406 -0.890625 2.570312 -0.703125 3.09375 -0.703125 C 3.695312 -0.703125 4.128906 -0.90625 4.390625 -1.3125 C 4.660156 -1.726562 4.796875 -2.367188 4.796875 -3.234375 C 4.796875 -4.078125 4.660156 -4.691406 4.390625 -5.078125 C 4.128906 -5.472656 3.703125 -5.671875 3.109375 -5.671875 C 2.578125 -5.671875 2.191406 -5.472656 1.953125 -5.078125 C 1.722656 -4.691406 1.609375 -4.054688 1.609375 -3.171875 Z M 1.609375 -3.171875 "/></g></g><g transform="translate(300.645496, 234.83094)"><g><path d="M 1.84375 -6.328125 L 1.84375 -2.3125 C 1.84375 -1.894531 1.878906 -1.570312 1.953125 -1.34375 C 2.035156 -1.113281 2.164062 -0.945312 2.34375 -0.84375 C 2.53125 -0.75 2.796875 -0.703125 3.140625 -0.703125 C 3.648438 -0.703125 4.050781 -0.875 4.34375 -1.21875 C 4.632812 -1.5625 4.78125 -2.039062 4.78125 -2.65625 L 4.78125 -6.328125 L 5.828125 -6.328125 L 5.828125 -1.359375 C 5.828125 -0.617188 5.84375 -0.164062 5.875 0 L 4.875 0 C 4.875 -0.0195312 4.867188 -0.0703125 4.859375 -0.15625 C 4.859375 -0.238281 4.851562 -0.335938 4.84375 -0.453125 C 4.84375 -0.566406 4.835938 -0.773438 4.828125 -1.078125 L 4.8125 -1.078125 C 4.570312 -0.640625 4.289062 -0.332031 3.96875 -0.15625 C 3.65625 0.0195312 3.257812 0.109375 2.78125 0.109375 C 2.09375 0.109375 1.585938 -0.0625 1.265625 -0.40625 C 0.941406 -0.75 0.78125 -1.316406 0.78125 -2.109375 L 0.78125 -6.328125 Z M 1.84375 -6.328125 "/></g></g><g transform="translate(307.308274, 234.83094)"><g><path d="M 3.234375 -0.046875 C 2.890625 0.046875 2.535156 0.09375 2.171875 0.09375 C 1.328125 0.09375 0.90625 -0.382812 0.90625 -1.34375 L 0.90625 -5.5625 L 0.1875 -5.5625 L 0.1875 -6.328125 L 0.953125 -6.328125 L 1.265625 -7.75 L 1.96875 -7.75 L 1.96875 -6.328125 L 3.140625 -6.328125 L 3.140625 -5.5625 L 1.96875 -5.5625 L 1.96875 -1.5625 C 1.96875 -1.257812 2.015625 -1.046875 2.109375 -0.921875 C 2.210938 -0.804688 2.390625 -0.75 2.640625 -0.75 C 2.773438 -0.75 2.972656 -0.773438 3.234375 -0.828125 Z M 3.234375 -0.046875 "/></g></g><g transform="translate(310.636738, 234.83094)"><g><path d="M 6.15625 -3.171875 C 6.15625 -2.066406 5.910156 -1.242188 5.421875 -0.703125 C 4.941406 -0.160156 4.238281 0.109375 3.3125 0.109375 C 2.382812 0.109375 1.679688 -0.171875 1.203125 -0.734375 C 0.734375 -1.296875 0.5 -2.109375 0.5 -3.171875 C 0.5 -5.359375 1.445312 -6.453125 3.34375 -6.453125 C 4.3125 -6.453125 5.019531 -6.179688 5.46875 -5.640625 C 5.925781 -5.109375 6.15625 -4.285156 6.15625 -3.171875 Z M 5.0625 -3.171875 C 5.0625 -4.046875 4.929688 -4.679688 4.671875 -5.078125 C 4.410156 -5.472656 3.972656 -5.671875 3.359375 -5.671875 C 2.742188 -5.671875 2.296875 -5.46875 2.015625 -5.0625 C 1.742188 -4.65625 1.609375 -4.023438 1.609375 -3.171875 C 1.609375 -2.335938 1.742188 -1.707031 2.015625 -1.28125 C 2.285156 -0.863281 2.710938 -0.65625 3.296875 -0.65625 C 3.929688 -0.65625 4.382812 -0.859375 4.65625 -1.265625 C 4.925781 -1.671875 5.0625 -2.304688 5.0625 -3.171875 Z M 5.0625 -3.171875 "/></g></g><g transform="translate(317.299517, 234.83094)"><g/></g><g transform="translate(320.627981, 234.83094)"><g><path d="M 0.609375 0 L 0.609375 -0.75 C 0.804688 -1.195312 1.046875 -1.59375 1.328125 -1.9375 C 1.617188 -2.289062 1.921875 -2.609375 2.234375 -2.890625 C 2.546875 -3.179688 2.859375 -3.445312 3.171875 -3.6875 C 3.484375 -3.925781 3.765625 -4.164062 4.015625 -4.40625 C 4.265625 -4.65625 4.460938 -4.910156 4.609375 -5.171875 C 4.765625 -5.441406 4.84375 -5.742188 4.84375 -6.078125 C 4.84375 -6.523438 4.710938 -6.875 4.453125 -7.125 C 4.191406 -7.375 3.820312 -7.5 3.34375 -7.5 C 2.894531 -7.5 2.523438 -7.375 2.234375 -7.125 C 1.941406 -6.882812 1.769531 -6.546875 1.71875 -6.109375 L 0.65625 -6.203125 C 0.726562 -6.867188 1.003906 -7.394531 1.484375 -7.78125 C 1.972656 -8.175781 2.59375 -8.375 3.34375 -8.375 C 4.175781 -8.375 4.816406 -8.175781 5.265625 -7.78125 C 5.710938 -7.382812 5.9375 -6.828125 5.9375 -6.109375 C 5.9375 -5.785156 5.863281 -5.46875 5.71875 -5.15625 C 5.570312 -4.84375 5.351562 -4.523438 5.0625 -4.203125 C 4.769531 -3.890625 4.21875 -3.398438 3.40625 -2.734375 C 2.957031 -2.367188 2.597656 -2.039062 2.328125 -1.75 C 2.066406 -1.457031 1.878906 -1.171875 1.765625 -0.890625 L 6.0625 -0.890625 L 6.0625 0 Z M 0.609375 0 "/></g></g></g><g fill="#000000" fill-opacity="1"><g transform="translate(288.033599, 250.110288)"><g><path d="M 6.140625 -2.296875 C 6.140625 -1.535156 5.894531 -0.941406 5.40625 -0.515625 C 4.925781 -0.0976562 4.234375 0.109375 3.328125 0.109375 C 2.453125 0.109375 1.765625 -0.0976562 1.265625 -0.515625 C 0.765625 -0.929688 0.515625 -1.519531 0.515625 -2.28125 C 0.515625 -2.820312 0.671875 -3.273438 0.984375 -3.640625 C 1.296875 -4.015625 1.691406 -4.238281 2.171875 -4.3125 L 2.171875 -4.34375 C 1.722656 -4.445312 1.367188 -4.671875 1.109375 -5.015625 C 0.847656 -5.367188 0.71875 -5.78125 0.71875 -6.25 C 0.71875 -6.882812 0.953125 -7.394531 1.421875 -7.78125 C 1.890625 -8.175781 2.519531 -8.375 3.3125 -8.375 C 4.125 -8.375 4.765625 -8.179688 5.234375 -7.796875 C 5.703125 -7.410156 5.9375 -6.894531 5.9375 -6.25 C 5.9375 -5.769531 5.804688 -5.351562 5.546875 -5 C 5.285156 -4.65625 4.929688 -4.4375 4.484375 -4.34375 L 4.484375 -4.328125 C 5.003906 -4.242188 5.410156 -4.019531 5.703125 -3.65625 C 5.992188 -3.289062 6.140625 -2.835938 6.140625 -2.296875 Z M 4.84375 -6.1875 C 4.84375 -7.113281 4.332031 -7.578125 3.3125 -7.578125 C 2.8125 -7.578125 2.429688 -7.457031 2.171875 -7.21875 C 1.921875 -6.988281 1.796875 -6.644531 1.796875 -6.1875 C 1.796875 -5.71875 1.925781 -5.359375 2.1875 -5.109375 C 2.457031 -4.859375 2.835938 -4.734375 3.328125 -4.734375 C 3.816406 -4.734375 4.191406 -4.847656 4.453125 -5.078125 C 4.710938 -5.304688 4.84375 -5.675781 4.84375 -6.1875 Z M 5.046875 -2.40625 C 5.046875 -2.914062 4.894531 -3.296875 4.59375 -3.546875 C 4.289062 -3.804688 3.863281 -3.9375 3.3125 -3.9375 C 2.78125 -3.9375 2.363281 -3.796875 2.0625 -3.515625 C 1.757812 -3.242188 1.609375 -2.863281 1.609375 -2.375 C 1.609375 -1.238281 2.1875 -0.671875 3.34375 -0.671875 C 3.914062 -0.671875 4.34375 -0.804688 4.625 -1.078125 C 4.90625 -1.359375 5.046875 -1.800781 5.046875 -2.40625 Z M 5.046875 -2.40625 "/></g></g><g transform="translate(294.696378, 250.110288)"><g><path d="M 1.09375 0 L 1.09375 -1.28125 L 2.234375 -1.28125 L 2.234375 0 Z M 1.09375 0 "/></g></g><g transform="translate(298.024842, 250.110288)"><g><path d="M 6.15625 -2.6875 C 6.15625 -1.8125 5.894531 -1.125 5.375 -0.625 C 4.863281 -0.132812 4.148438 0.109375 3.234375 0.109375 C 2.460938 0.109375 1.84375 -0.0546875 1.375 -0.390625 C 0.90625 -0.722656 0.609375 -1.207031 0.484375 -1.84375 L 1.546875 -1.96875 C 1.765625 -1.15625 2.335938 -0.75 3.265625 -0.75 C 3.828125 -0.75 4.265625 -0.914062 4.578125 -1.25 C 4.898438 -1.59375 5.0625 -2.0625 5.0625 -2.65625 C 5.0625 -3.175781 4.898438 -3.597656 4.578125 -3.921875 C 4.265625 -4.242188 3.832031 -4.40625 3.28125 -4.40625 C 3 -4.40625 2.734375 -4.359375 2.484375 -4.265625 C 2.242188 -4.171875 2 -4.019531 1.75 -3.8125 L 0.71875 -3.8125 L 1 -8.25 L 5.6875 -8.25 L 5.6875 -7.34375 L 1.953125 -7.34375 L 1.796875 -4.734375 C 2.253906 -5.085938 2.820312 -5.265625 3.5 -5.265625 C 4.3125 -5.265625 4.957031 -5.023438 5.4375 -4.546875 C 5.914062 -4.066406 6.15625 -3.445312 6.15625 -2.6875 Z M 6.15625 -2.6875 "/></g></g><g transform="translate(304.68762, 250.110288)"><g><path d="M 10.234375 -2.546875 C 10.234375 -1.703125 10.070312 -1.054688 9.75 -0.609375 C 9.4375 -0.160156 8.972656 0.0625 8.359375 0.0625 C 7.742188 0.0625 7.28125 -0.15625 6.96875 -0.59375 C 6.664062 -1.03125 6.515625 -1.679688 6.515625 -2.546875 C 6.515625 -3.429688 6.660156 -4.085938 6.953125 -4.515625 C 7.253906 -4.953125 7.726562 -5.171875 8.375 -5.171875 C 9.019531 -5.171875 9.488281 -4.945312 9.78125 -4.5 C 10.082031 -4.0625 10.234375 -3.410156 10.234375 -2.546875 Z M 3.078125 0 L 2.171875 0 L 7.578125 -8.25 L 8.484375 -8.25 Z M 2.3125 -8.3125 C 2.925781 -8.3125 3.382812 -8.09375 3.6875 -7.65625 C 3.988281 -7.21875 4.140625 -6.566406 4.140625 -5.703125 C 4.140625 -4.859375 3.984375 -4.207031 3.671875 -3.75 C 3.359375 -3.289062 2.894531 -3.0625 2.28125 -3.0625 C 1.664062 -3.0625 1.203125 -3.285156 0.890625 -3.734375 C 0.578125 -4.191406 0.421875 -4.847656 0.421875 -5.703125 C 0.421875 -6.578125 0.570312 -7.226562 0.875 -7.65625 C 1.175781 -8.09375 1.65625 -8.3125 2.3125 -8.3125 Z M 9.359375 -2.546875 C 9.359375 -3.242188 9.28125 -3.75 9.125 -4.0625 C 8.976562 -4.375 8.726562 -4.53125 8.375 -4.53125 C 8.019531 -4.53125 7.765625 -4.375 7.609375 -4.0625 C 7.453125 -3.757812 7.375 -3.253906 7.375 -2.546875 C 7.375 -1.867188 7.445312 -1.367188 7.59375 -1.046875 C 7.75 -0.734375 8.007812 -0.578125 8.375 -0.578125 C 8.71875 -0.578125 8.96875 -0.738281 9.125 -1.0625 C 9.28125 -1.382812 9.359375 -1.878906 9.359375 -2.546875 Z M 3.28125 -5.703125 C 3.28125 -6.390625 3.203125 -6.890625 3.046875 -7.203125 C 2.898438 -7.523438 2.65625 -7.6875 2.3125 -7.6875 C 1.9375 -7.6875 1.671875 -7.53125 1.515625 -7.21875 C 1.359375 -6.90625 1.28125 -6.398438 1.28125 -5.703125 C 1.28125 -5.023438 1.359375 -4.523438 1.515625 -4.203125 C 1.671875 -3.890625 1.929688 -3.734375 2.296875 -3.734375 C 2.628906 -3.734375 2.875 -3.894531 3.03125 -4.21875 C 3.195312 -4.539062 3.28125 -5.035156 3.28125 -5.703125 Z M 3.28125 -5.703125 "/></g></g></g></svg>