<svg width="205" height="136" viewBox="0 0 205 136" fill="none" xmlns="http://www.w3.org/2000/svg">
<path d="M0 55.5324H15.6025L24.2706 17.0273H8.66807L0 55.5324ZM11.9186 13.5445H30.3383L33.3721 0H14.9524L11.9186 13.5445ZM21.6702 66.3679H37.2727L46.8076 24.767H58.5095L60.2431 17.0273H48.7579L49.1913 15.2859C49.8414 11.9965 51.1416 8.32017 56.9926 8.32017C60.4598 8.32017 63.7104 8.51367 66.9609 9.86812L68.6945 1.74143C65.0106 0.580476 61.1099 0 57.426 0C44.8573 0 36.1892 6.57875 32.9387 17.0273H27.5211L25.7875 24.767H31.2051L21.6702 66.3679Z" fill="#EA1D2C"/>
<path d="M71.0782 56.3063C89.4979 56.3063 102.283 41.4073 102.283 29.2173C102.283 20.1232 92.9651 16.2533 83.8637 16.2533C63.7104 16.2533 52.6586 32.3132 52.6586 43.3423C52.6586 52.4364 62.1935 56.3063 71.0782 56.3063ZM120.486 56.3063C138.906 56.3063 151.691 41.4073 151.691 29.2173C151.691 20.1232 142.156 16.2533 133.055 16.2533C112.902 16.2533 101.85 32.3132 101.85 43.3423C101.85 52.4364 111.601 56.3063 120.486 56.3063ZM177.045 55.5323H192.431L205 0.773926H189.397L185.714 17.0273L179.212 16.4468C164.043 16.4468 150.174 33.8611 150.174 46.2447C150.174 51.2755 153.858 56.3063 160.143 56.3063C169.027 56.3063 175.312 52.4364 177.912 48.5666H178.779L177.045 55.5323ZM128.938 84.3627C116.827 93.3216 101.272 97.6965 85.5973 96.5527C65.0106 95.3918 50.2749 81.2668 47.6744 66.3679H48.5412C53.3087 75.6555 64.7939 84.3627 78.8795 85.7171C93.1818 87.2651 110.301 81.4603 119.619 73.5271L109.218 66.3679H140.64L133.705 96.1657L129.154 84.5562L128.938 84.3627Z" fill="#EA1D2C"/>
<path d="M39.8047 134.375C39.8047 134.557 39.7526 134.714 39.6484 134.844C39.5443 134.948 39.388 135 39.1797 135H33.4766C33.2943 135 33.138 134.948 33.0078 134.844C32.9036 134.714 32.8516 134.557 32.8516 134.375V107.422C32.8516 107.214 32.9036 107.057 33.0078 106.953C33.138 106.849 33.2943 106.797 33.4766 106.797H43.7891C46.1068 106.797 48.112 107.227 49.8047 108.086C51.5234 108.945 52.8385 110.143 53.75 111.68C54.6875 113.216 55.1562 114.987 55.1562 116.992C55.1562 118.971 54.6875 120.742 53.75 122.305C52.8385 123.841 51.5234 125.039 49.8047 125.898C48.0859 126.758 46.0807 127.188 43.7891 127.188H39.8047V134.375ZM43.7891 120.703C45.1693 120.703 46.224 120.378 46.9531 119.727C47.6823 119.049 48.0469 118.138 48.0469 116.992C48.0469 115.846 47.6823 114.948 46.9531 114.297C46.224 113.62 45.1693 113.281 43.7891 113.281H39.8047V120.703H43.7891ZM64.5703 135.586C63.2422 135.586 62.0443 135.326 60.9766 134.805C59.9349 134.284 59.1146 133.568 58.5156 132.656C57.9427 131.719 57.6562 130.664 57.6562 129.492C57.6562 127.773 58.2812 126.393 59.5312 125.352C60.7812 124.284 62.487 123.659 64.6484 123.477L69.7266 123.086V122.812C69.7266 121.875 69.4531 121.146 68.9062 120.625C68.3854 120.104 67.6172 119.844 66.6016 119.844C65.013 119.844 63.8542 120.417 63.125 121.562C62.9167 121.901 62.6432 122.005 62.3047 121.875L58.3203 120.391C58.0339 120.26 57.8906 120.091 57.8906 119.883C57.8906 119.831 57.9167 119.727 57.9688 119.57C58.724 117.956 59.8698 116.667 61.4062 115.703C62.9427 114.74 64.8177 114.258 67.0312 114.258C68.8802 114.258 70.4688 114.609 71.7969 115.312C73.151 116.016 74.1797 116.992 74.8828 118.242C75.612 119.492 75.9766 120.924 75.9766 122.539V125.82C75.9766 127.148 76.1068 128.333 76.3672 129.375C76.6536 130.417 77.1094 131.497 77.7344 132.617C77.8125 132.773 77.8516 132.904 77.8516 133.008C77.8516 133.19 77.7344 133.346 77.5 133.477L73.125 135.508L72.8125 135.586C72.6042 135.586 72.4349 135.482 72.3047 135.273C71.6536 134.284 71.1849 133.32 70.8984 132.383C70.2474 133.32 69.388 134.089 68.3203 134.688C67.2786 135.286 66.0286 135.586 64.5703 135.586ZM66.0156 130.508C67.6042 130.508 68.8411 129.883 69.7266 128.633V126.836L65.4297 127.344C64.3359 127.474 63.7891 128.008 63.7891 128.945C63.7891 129.466 63.9844 129.857 64.375 130.117C64.7917 130.378 65.3385 130.508 66.0156 130.508ZM87.5781 134.375C87.5781 134.557 87.526 134.714 87.4219 134.844C87.3177 134.948 87.1615 135 86.9531 135H81.7578C81.5755 135 81.4193 134.948 81.2891 134.844C81.1849 134.714 81.1328 134.557 81.1328 134.375V115.469C81.1328 115.26 81.1849 115.104 81.2891 115C81.4193 114.896 81.5755 114.844 81.7578 114.844H86.6797C86.888 114.844 87.0443 114.896 87.1484 115C87.2526 115.104 87.3047 115.26 87.3047 115.469V117.852C88.9193 116.029 90.7812 114.844 92.8906 114.297C92.9427 114.271 93.0208 114.258 93.125 114.258C93.3854 114.258 93.5547 114.427 93.6328 114.766L94.6094 120.156V120.312C94.6094 120.625 94.4271 120.807 94.0625 120.859C92.6823 120.99 91.4714 121.237 90.4297 121.602C89.388 121.94 88.4375 122.422 87.5781 123.047V134.375ZM112.383 134.375C112.383 134.557 112.331 134.714 112.227 134.844C112.122 134.948 111.966 135 111.758 135H110.625C103.62 135 100.117 131.953 100.117 125.859V120.547H96.8359C96.6536 120.547 96.4974 120.495 96.3672 120.391C96.263 120.26 96.2109 120.104 96.2109 119.922V115.469C96.2109 115.26 96.263 115.104 96.3672 115C96.4974 114.896 96.6536 114.844 96.8359 114.844H100.117V109.766C100.117 109.557 100.169 109.401 100.273 109.297C100.404 109.193 100.56 109.141 100.742 109.141H105.938C106.146 109.141 106.302 109.193 106.406 109.297C106.51 109.401 106.562 109.557 106.562 109.766V114.844H111.602C111.81 114.844 111.966 114.896 112.07 115C112.174 115.104 112.227 115.26 112.227 115.469V119.922C112.227 120.104 112.174 120.26 112.07 120.391C111.966 120.495 111.81 120.547 111.602 120.547H106.562V124.961C106.562 125.924 106.68 126.68 106.914 127.227C107.174 127.773 107.63 128.19 108.281 128.477C108.932 128.737 109.87 128.867 111.094 128.867H111.758C111.966 128.867 112.122 128.919 112.227 129.023C112.331 129.128 112.383 129.284 112.383 129.492V134.375ZM122.695 134.375C122.695 134.557 122.643 134.714 122.539 134.844C122.435 134.948 122.279 135 122.07 135H116.875C116.693 135 116.536 134.948 116.406 134.844C116.302 134.714 116.25 134.557 116.25 134.375V115.469C116.25 115.26 116.302 115.104 116.406 115C116.536 114.896 116.693 114.844 116.875 114.844H121.797C122.005 114.844 122.161 114.896 122.266 115C122.37 115.104 122.422 115.26 122.422 115.469V117.305C123.411 116.237 124.427 115.469 125.469 115C126.51 114.505 127.669 114.258 128.945 114.258C131.263 114.258 133.047 115.013 134.297 116.523C135.573 118.008 136.211 120.039 136.211 122.617V134.375C136.211 134.557 136.159 134.714 136.055 134.844C135.951 134.948 135.794 135 135.586 135H130.391C130.208 135 130.052 134.948 129.922 134.844C129.818 134.714 129.766 134.557 129.766 134.375V123.281C129.766 122.292 129.544 121.536 129.102 121.016C128.659 120.469 128.008 120.195 127.148 120.195C126.445 120.195 125.703 120.391 124.922 120.781C124.141 121.172 123.398 121.758 122.695 122.539V134.375ZM150.586 135.586C148.555 135.586 146.745 135.143 145.156 134.258C143.568 133.372 142.331 132.122 141.445 130.508C140.56 128.867 140.117 126.979 140.117 124.844C140.117 122.839 140.521 121.029 141.328 119.414C142.161 117.799 143.333 116.536 144.844 115.625C146.38 114.714 148.151 114.258 150.156 114.258C152.057 114.258 153.711 114.688 155.117 115.547C156.549 116.38 157.643 117.552 158.398 119.062C159.154 120.547 159.531 122.24 159.531 124.141C159.531 124.505 159.505 125.026 159.453 125.703C159.427 126.094 159.206 126.289 158.789 126.289H146.562C146.745 127.513 147.214 128.477 147.969 129.18C148.75 129.857 149.714 130.195 150.859 130.195C152.292 130.195 153.411 129.622 154.219 128.477C154.375 128.268 154.557 128.164 154.766 128.164L155.078 128.242L158.984 130.078C159.375 130.286 159.492 130.508 159.336 130.742C158.607 132.227 157.513 133.411 156.055 134.297C154.596 135.156 152.773 135.586 150.586 135.586ZM153.398 122.5C153.32 121.406 152.982 120.586 152.383 120.039C151.81 119.466 151.068 119.18 150.156 119.18C149.271 119.18 148.503 119.479 147.852 120.078C147.227 120.651 146.823 121.458 146.641 122.5H153.398ZM170 134.375C170 134.557 169.948 134.714 169.844 134.844C169.74 134.948 169.583 135 169.375 135H164.18C163.997 135 163.841 134.948 163.711 134.844C163.607 134.714 163.555 134.557 163.555 134.375V115.469C163.555 115.26 163.607 115.104 163.711 115C163.841 114.896 163.997 114.844 164.18 114.844H169.102C169.31 114.844 169.466 114.896 169.57 115C169.674 115.104 169.727 115.26 169.727 115.469V117.852C171.341 116.029 173.203 114.844 175.312 114.297C175.365 114.271 175.443 114.258 175.547 114.258C175.807 114.258 175.977 114.427 176.055 114.766L177.031 120.156V120.312C177.031 120.625 176.849 120.807 176.484 120.859C175.104 120.99 173.893 121.237 172.852 121.602C171.81 121.94 170.859 122.422 170 123.047V134.375Z" fill="#EA1D2C"/>
</svg>
