<svg width="404" height="148" viewBox="0 0 404 148" fill="none" xmlns="http://www.w3.org/2000/svg">
<path d="M0 84.9649H24.0508L37.4123 26.052H13.3615L0 84.9649ZM18.3721 20.7232H46.7654L51.4419 0H23.0486L18.3721 20.7232ZM33.4038 101.543H57.4546L72.1523 37.8938H90.1903L92.8626 26.052H75.1586L75.8267 23.3876C76.8288 18.3548 78.833 12.7299 87.8521 12.7299C93.1967 12.7299 98.2072 13.026 103.218 15.0983L105.89 2.6644C100.211 0.888133 94.1988 0 88.5201 0C69.1459 0 55.7844 10.0655 50.7738 26.052H42.4229L39.7505 37.8938H48.1015L33.4038 101.543Z" fill="#EA1D2C"/>
<path d="M109.564 86.149C137.958 86.149 157.666 63.3535 157.666 44.7027C157.666 30.7886 143.302 24.8677 129.273 24.8677C98.2071 24.8677 81.1712 49.4394 81.1712 66.314C81.1712 80.2281 95.8688 86.149 109.564 86.149ZM185.725 86.149C214.118 86.149 233.827 63.3535 233.827 44.7027C233.827 30.7886 219.129 24.8677 205.099 24.8677C174.034 24.8677 156.998 49.4394 156.998 66.314C156.998 80.2281 172.03 86.149 185.725 86.149ZM272.909 84.9648H296.626L316 1.18408H291.949L286.271 26.0519L276.249 25.1637C252.867 25.1637 231.488 51.8078 231.488 70.7546C231.488 78.4518 237.167 86.149 246.854 86.149C260.55 86.149 270.237 80.2281 274.245 74.3072H275.581L272.909 84.9648ZM198.753 129.075C180.084 142.783 156.107 149.476 131.945 147.726C100.211 145.95 77.4967 124.339 73.4883 101.543H74.8244C82.1733 115.753 99.8773 129.075 121.59 131.148C143.636 133.516 170.025 124.635 184.389 112.497L168.355 101.543H216.791L206.101 147.134L199.087 129.372L198.753 129.075Z" fill="#EA1D2C"/>
<path d="M238.766 135.25C238.766 135.469 238.703 135.656 238.578 135.812C238.453 135.938 238.266 136 238.016 136H231.172C230.953 136 230.766 135.938 230.609 135.812C230.484 135.656 230.422 135.469 230.422 135.25V102.906C230.422 102.656 230.484 102.469 230.609 102.344C230.766 102.219 230.953 102.156 231.172 102.156H243.547C246.328 102.156 248.734 102.672 250.766 103.703C252.828 104.734 254.406 106.172 255.5 108.016C256.625 109.859 257.188 111.984 257.188 114.391C257.188 116.766 256.625 118.891 255.5 120.766C254.406 122.609 252.828 124.047 250.766 125.078C248.703 126.109 246.297 126.625 243.547 126.625H238.766V135.25ZM243.547 118.844C245.203 118.844 246.469 118.453 247.344 117.672C248.219 116.859 248.656 115.766 248.656 114.391C248.656 113.016 248.219 111.938 247.344 111.156C246.469 110.344 245.203 109.938 243.547 109.938H238.766V118.844H243.547ZM268.484 136.703C266.891 136.703 265.453 136.391 264.172 135.766C262.922 135.141 261.938 134.281 261.219 133.188C260.531 132.062 260.188 130.797 260.188 129.391C260.188 127.328 260.938 125.672 262.438 124.422C263.938 123.141 265.984 122.391 268.578 122.172L274.672 121.703V121.375C274.672 120.25 274.344 119.375 273.688 118.75C273.062 118.125 272.141 117.812 270.922 117.812C269.016 117.812 267.625 118.5 266.75 119.875C266.5 120.281 266.172 120.406 265.766 120.25L260.984 118.469C260.641 118.312 260.469 118.109 260.469 117.859C260.469 117.797 260.5 117.672 260.562 117.484C261.469 115.547 262.844 114 264.688 112.844C266.531 111.688 268.781 111.109 271.438 111.109C273.656 111.109 275.562 111.531 277.156 112.375C278.781 113.219 280.016 114.391 280.859 115.891C281.734 117.391 282.172 119.109 282.172 121.047V124.984C282.172 126.578 282.328 128 282.641 129.25C282.984 130.5 283.531 131.797 284.281 133.141C284.375 133.328 284.422 133.484 284.422 133.609C284.422 133.828 284.281 134.016 284 134.172L278.75 136.609L278.375 136.703C278.125 136.703 277.922 136.578 277.766 136.328C276.984 135.141 276.422 133.984 276.078 132.859C275.297 133.984 274.266 134.906 272.984 135.625C271.734 136.344 270.234 136.703 268.484 136.703ZM270.219 130.609C272.125 130.609 273.609 129.859 274.672 128.359V126.203L269.516 126.812C268.203 126.969 267.547 127.609 267.547 128.734C267.547 129.359 267.781 129.828 268.25 130.141C268.75 130.453 269.406 130.609 270.219 130.609ZM296.094 135.25C296.094 135.469 296.031 135.656 295.906 135.812C295.781 135.938 295.594 136 295.344 136H289.109C288.891 136 288.703 135.938 288.547 135.812C288.422 135.656 288.359 135.469 288.359 135.25V112.562C288.359 112.312 288.422 112.125 288.547 112C288.703 111.875 288.891 111.812 289.109 111.812H295.016C295.266 111.812 295.453 111.875 295.578 112C295.703 112.125 295.766 112.312 295.766 112.562V115.422C297.703 113.234 299.938 111.812 302.469 111.156C302.531 111.125 302.625 111.109 302.75 111.109C303.062 111.109 303.266 111.312 303.359 111.719L304.531 118.188V118.375C304.531 118.75 304.312 118.969 303.875 119.031C302.219 119.188 300.766 119.484 299.516 119.922C298.266 120.328 297.125 120.906 296.094 121.656V135.25ZM325.859 135.25C325.859 135.469 325.797 135.656 325.672 135.812C325.547 135.938 325.359 136 325.109 136H323.75C315.344 136 311.141 132.344 311.141 125.031V118.656H307.203C306.984 118.656 306.797 118.594 306.641 118.469C306.516 118.312 306.453 118.125 306.453 117.906V112.562C306.453 112.312 306.516 112.125 306.641 112C306.797 111.875 306.984 111.812 307.203 111.812H311.141V105.719C311.141 105.469 311.203 105.281 311.328 105.156C311.484 105.031 311.672 104.969 311.891 104.969H318.125C318.375 104.969 318.562 105.031 318.688 105.156C318.812 105.281 318.875 105.469 318.875 105.719V111.812H324.922C325.172 111.812 325.359 111.875 325.484 112C325.609 112.125 325.672 112.312 325.672 112.562V117.906C325.672 118.125 325.609 118.312 325.484 118.469C325.359 118.594 325.172 118.656 324.922 118.656H318.875V123.953C318.875 125.109 319.016 126.016 319.297 126.672C319.609 127.328 320.156 127.828 320.938 128.172C321.719 128.484 322.844 128.641 324.312 128.641H325.109C325.359 128.641 325.547 128.703 325.672 128.828C325.797 128.953 325.859 129.141 325.859 129.391V135.25ZM338.234 135.25C338.234 135.469 338.172 135.656 338.047 135.812C337.922 135.938 337.734 136 337.484 136H331.25C331.031 136 330.844 135.938 330.688 135.812C330.562 135.656 330.5 135.469 330.5 135.25V112.562C330.5 112.312 330.562 112.125 330.688 112C330.844 111.875 331.031 111.812 331.25 111.812H337.156C337.406 111.812 337.594 111.875 337.719 112C337.844 112.125 337.906 112.312 337.906 112.562V114.766C339.094 113.484 340.312 112.562 341.562 112C342.812 111.406 344.203 111.109 345.734 111.109C348.516 111.109 350.656 112.016 352.156 113.828C353.688 115.609 354.453 118.047 354.453 121.141V135.25C354.453 135.469 354.391 135.656 354.266 135.812C354.141 135.938 353.953 136 353.703 136H347.469C347.25 136 347.062 135.938 346.906 135.812C346.781 135.656 346.719 135.469 346.719 135.25V121.938C346.719 120.75 346.453 119.844 345.922 119.219C345.391 118.562 344.609 118.234 343.578 118.234C342.734 118.234 341.844 118.469 340.906 118.938C339.969 119.406 339.078 120.109 338.234 121.047V135.25ZM371.703 136.703C369.266 136.703 367.094 136.172 365.188 135.109C363.281 134.047 361.797 132.547 360.734 130.609C359.672 128.641 359.141 126.375 359.141 123.812C359.141 121.406 359.625 119.234 360.594 117.297C361.594 115.359 363 113.844 364.812 112.75C366.656 111.656 368.781 111.109 371.188 111.109C373.469 111.109 375.453 111.625 377.141 112.656C378.859 113.656 380.172 115.062 381.078 116.875C381.984 118.656 382.438 120.688 382.438 122.969C382.438 123.406 382.406 124.031 382.344 124.844C382.312 125.312 382.047 125.547 381.547 125.547H366.875C367.094 127.016 367.656 128.172 368.562 129.016C369.5 129.828 370.656 130.234 372.031 130.234C373.75 130.234 375.094 129.547 376.062 128.172C376.25 127.922 376.469 127.797 376.719 127.797L377.094 127.891L381.781 130.094C382.25 130.344 382.391 130.609 382.203 130.891C381.328 132.672 380.016 134.094 378.266 135.156C376.516 136.188 374.328 136.703 371.703 136.703ZM375.078 121C374.984 119.688 374.578 118.703 373.859 118.047C373.172 117.359 372.281 117.016 371.188 117.016C370.125 117.016 369.203 117.375 368.422 118.094C367.672 118.781 367.188 119.75 366.969 121H375.078ZM395 135.25C395 135.469 394.938 135.656 394.812 135.812C394.688 135.938 394.5 136 394.25 136H388.016C387.797 136 387.609 135.938 387.453 135.812C387.328 135.656 387.266 135.469 387.266 135.25V112.562C387.266 112.312 387.328 112.125 387.453 112C387.609 111.875 387.797 111.812 388.016 111.812H393.922C394.172 111.812 394.359 111.875 394.484 112C394.609 112.125 394.672 112.312 394.672 112.562V115.422C396.609 113.234 398.844 111.812 401.375 111.156C401.438 111.125 401.531 111.109 401.656 111.109C401.969 111.109 402.172 111.312 402.266 111.719L403.438 118.188V118.375C403.438 118.75 403.219 118.969 402.781 119.031C401.125 119.188 399.672 119.484 398.422 119.922C397.172 120.328 396.031 120.906 395 121.656V135.25Z" fill="#EA1D2C"/>
</svg>
