<svg xmlns="http://www.w3.org/2000/svg" xmlns:xlink="http://www.w3.org/1999/xlink" width="1920" zoomAndPan="magnify" viewBox="0 0 1440 809.999993" height="1080" preserveAspectRatio="xMidYMid meet" version="1.0"><defs><g/><clipPath id="010b3b4716"><path d="M 357.515625 201.742188 L 392.167969 201.742188 L 392.167969 703.871094 L 357.515625 703.871094 Z M 357.515625 201.742188 " clip-rule="nonzero"/></clipPath><clipPath id="dda46e1be0"><path d="M 393.992188 201.742188 L 428.644531 201.742188 L 428.644531 703.871094 L 393.992188 703.871094 Z M 393.992188 201.742188 " clip-rule="nonzero"/></clipPath><clipPath id="07b318679b"><path d="M 434.414062 201.742188 L 469.066406 201.742188 L 469.066406 703.871094 L 434.414062 703.871094 Z M 434.414062 201.742188 " clip-rule="nonzero"/></clipPath><clipPath id="a9ad12e20c"><path d="M 470.890625 201.742188 L 505.542969 201.742188 L 505.542969 703.871094 L 470.890625 703.871094 Z M 470.890625 201.742188 " clip-rule="nonzero"/></clipPath><clipPath id="740fde608a"><path d="M 511.308594 208.019531 L 545.960938 208.019531 L 545.960938 703.871094 L 511.308594 703.871094 Z M 511.308594 208.019531 " clip-rule="nonzero"/></clipPath><clipPath id="3a5415a2f0"><path d="M 547.785156 214.296875 L 582.4375 214.296875 L 582.4375 703.871094 L 547.785156 703.871094 Z M 547.785156 214.296875 " clip-rule="nonzero"/></clipPath><clipPath id="6403abdce1"><path d="M 588.207031 186.050781 L 622.859375 186.050781 L 622.859375 703.871094 L 588.207031 703.871094 Z M 588.207031 186.050781 " clip-rule="nonzero"/></clipPath><clipPath id="c7f409e0e6"><path d="M 624.683594 186.050781 L 659.335938 186.050781 L 659.335938 703.871094 L 624.683594 703.871094 Z M 624.683594 186.050781 " clip-rule="nonzero"/></clipPath><clipPath id="60244cd4be"><path d="M 665.101562 186.050781 L 699.753906 186.050781 L 699.753906 703.871094 L 665.101562 703.871094 Z M 665.101562 186.050781 " clip-rule="nonzero"/></clipPath><clipPath id="50a94aad12"><path d="M 701.578125 186.050781 L 736.230469 186.050781 L 736.230469 703.871094 L 701.578125 703.871094 Z M 701.578125 186.050781 " clip-rule="nonzero"/></clipPath><clipPath id="6d814550c3"><path d="M 742 138.976562 L 776.652344 138.976562 L 776.652344 703.871094 L 742 703.871094 Z M 742 138.976562 " clip-rule="nonzero"/></clipPath><clipPath id="62c0e96940"><path d="M 778.476562 138.976562 L 813.128906 138.976562 L 813.128906 703.871094 L 778.476562 703.871094 Z M 778.476562 138.976562 " clip-rule="nonzero"/></clipPath><clipPath id="1d6c62e6df"><path d="M 818.894531 138.976562 L 853.550781 138.976562 L 853.550781 703.871094 L 818.894531 703.871094 Z M 818.894531 138.976562 " clip-rule="nonzero"/></clipPath><clipPath id="8d718d049c"><path d="M 855.371094 138.976562 L 890.027344 138.976562 L 890.027344 703.871094 L 855.371094 703.871094 Z M 855.371094 138.976562 " clip-rule="nonzero"/></clipPath><clipPath id="0b7a5f8a70"><path d="M 895.792969 138.976562 L 930.445312 138.976562 L 930.445312 703.871094 L 895.792969 703.871094 Z M 895.792969 138.976562 " clip-rule="nonzero"/></clipPath><clipPath id="8f62a2af2f"><path d="M 932.269531 214.296875 L 966.921875 214.296875 L 966.921875 703.871094 L 932.269531 703.871094 Z M 932.269531 214.296875 " clip-rule="nonzero"/></clipPath><clipPath id="cdf024cfbc"><path d="M 972.691406 214.296875 L 1007.34375 214.296875 L 1007.34375 703.871094 L 972.691406 703.871094 Z M 972.691406 214.296875 " clip-rule="nonzero"/></clipPath><clipPath id="aba193c483"><path d="M 1009.167969 214.296875 L 1043.820312 214.296875 L 1043.820312 703.871094 L 1009.167969 703.871094 Z M 1009.167969 214.296875 " clip-rule="nonzero"/></clipPath><clipPath id="c7c720ca25"><path d="M 1049.585938 214.296875 L 1084.238281 214.296875 L 1084.238281 703.871094 L 1049.585938 703.871094 Z M 1049.585938 214.296875 " clip-rule="nonzero"/></clipPath><clipPath id="0fd10aea96"><path d="M 1086.0625 214.296875 L 1120.714844 214.296875 L 1120.714844 703.871094 L 1086.0625 703.871094 Z M 1086.0625 214.296875 " clip-rule="nonzero"/></clipPath><clipPath id="a249483ab5"><path d="M 1126.484375 201.742188 L 1161.136719 201.742188 L 1161.136719 703.871094 L 1126.484375 703.871094 Z M 1126.484375 201.742188 " clip-rule="nonzero"/></clipPath><clipPath id="9acca08cce"><path d="M 1162.960938 214.296875 L 1197.613281 214.296875 L 1197.613281 703.871094 L 1162.960938 703.871094 Z M 1162.960938 214.296875 " clip-rule="nonzero"/></clipPath></defs><g fill="#000000" fill-opacity="1"><g transform="translate(368.777007, 745.062511)"><g><path d="M 7 0.3125 C 3.34375 0.3125 1.171875 -1.578125 0.484375 -5.359375 L 3.359375 -5.84375 C 3.535156 -4.65625 3.945312 -3.726562 4.59375 -3.0625 C 5.238281 -2.394531 6.046875 -2.0625 7.015625 -2.0625 C 8.078125 -2.0625 8.914062 -2.425781 9.53125 -3.15625 C 10.144531 -3.894531 10.453125 -4.96875 10.453125 -6.375 L 10.453125 -19.203125 L 6.296875 -19.203125 L 6.296875 -21.59375 L 13.359375 -21.59375 L 13.359375 -6.4375 C 13.359375 -4.34375 12.789062 -2.691406 11.65625 -1.484375 C 10.53125 -0.285156 8.976562 0.3125 7 0.3125 Z M 7 0.3125 "/></g></g><g transform="translate(384.468572, 745.062511)"><g><path d="M 6.34375 0.3125 C 4.675781 0.3125 3.421875 -0.125 2.578125 -1 C 1.742188 -1.882812 1.328125 -3.09375 1.328125 -4.625 C 1.328125 -6.34375 1.890625 -7.660156 3.015625 -8.578125 C 4.148438 -9.503906 5.972656 -10 8.484375 -10.0625 L 12.21875 -10.109375 L 12.21875 -11.015625 C 12.21875 -12.367188 11.929688 -13.335938 11.359375 -13.921875 C 10.785156 -14.503906 9.882812 -14.796875 8.65625 -14.796875 C 7.425781 -14.796875 6.53125 -14.582031 5.96875 -14.15625 C 5.40625 -13.738281 5.066406 -13.070312 4.953125 -12.15625 L 2.0625 -12.421875 C 2.539062 -15.398438 4.757812 -16.890625 8.71875 -16.890625 C 10.800781 -16.890625 12.367188 -16.410156 13.421875 -15.453125 C 14.472656 -14.503906 15 -13.125 15 -11.3125 L 15 -4.171875 C 15 -3.347656 15.109375 -2.726562 15.328125 -2.3125 C 15.546875 -1.90625 15.953125 -1.703125 16.546875 -1.703125 C 16.816406 -1.703125 17.117188 -1.738281 17.453125 -1.8125 L 17.453125 -0.09375 C 16.765625 0.0703125 16.054688 0.15625 15.328125 0.15625 C 14.304688 0.15625 13.5625 -0.109375 13.09375 -0.640625 C 12.632812 -1.179688 12.375 -2.023438 12.3125 -3.171875 L 12.21875 -3.171875 C 11.507812 -1.898438 10.6875 -1 9.75 -0.46875 C 8.820312 0.0507812 7.6875 0.3125 6.34375 0.3125 Z M 6.96875 -1.765625 C 7.976562 -1.765625 8.878906 -1.992188 9.671875 -2.453125 C 10.460938 -2.910156 11.082031 -3.539062 11.53125 -4.34375 C 11.988281 -5.144531 12.21875 -5.972656 12.21875 -6.828125 L 12.21875 -8.1875 L 9.203125 -8.125 C 7.898438 -8.101562 6.910156 -7.96875 6.234375 -7.71875 C 5.566406 -7.476562 5.054688 -7.101562 4.703125 -6.59375 C 4.347656 -6.082031 4.171875 -5.410156 4.171875 -4.578125 C 4.171875 -3.679688 4.410156 -2.988281 4.890625 -2.5 C 5.378906 -2.007812 6.070312 -1.765625 6.96875 -1.765625 Z M 6.96875 -1.765625 "/></g></g><g transform="translate(401.922372, 745.062511)"><g><path d="M 12.640625 0 L 12.640625 -10.515625 C 12.640625 -11.609375 12.53125 -12.457031 12.3125 -13.0625 C 12.101562 -13.664062 11.765625 -14.097656 11.296875 -14.359375 C 10.828125 -14.628906 10.140625 -14.765625 9.234375 -14.765625 C 7.898438 -14.765625 6.847656 -14.304688 6.078125 -13.390625 C 5.316406 -12.484375 4.9375 -11.222656 4.9375 -9.609375 L 4.9375 0 L 2.171875 0 L 2.171875 -13.046875 C 2.171875 -14.972656 2.140625 -16.148438 2.078125 -16.578125 L 4.6875 -16.578125 C 4.695312 -16.523438 4.707031 -16.382812 4.71875 -16.15625 C 4.726562 -15.9375 4.738281 -15.679688 4.75 -15.390625 C 4.769531 -15.097656 4.789062 -14.550781 4.8125 -13.75 L 4.859375 -13.75 C 5.492188 -14.894531 6.226562 -15.703125 7.0625 -16.171875 C 7.894531 -16.648438 8.925781 -16.890625 10.15625 -16.890625 C 11.976562 -16.890625 13.3125 -16.4375 14.15625 -15.53125 C 15 -14.625 15.421875 -13.128906 15.421875 -11.046875 L 15.421875 0 Z M 12.640625 0 "/></g></g></g><g fill="#000000" fill-opacity="1"><g transform="translate(442.854191, 745.062511)"><g><path d="M 5.5 -19.203125 L 5.5 -11.171875 L 17.546875 -11.171875 L 17.546875 -8.75 L 5.5 -8.75 L 5.5 0 L 2.578125 0 L 2.578125 -21.59375 L 17.921875 -21.59375 L 17.921875 -19.203125 Z M 5.5 -19.203125 "/></g></g><g transform="translate(462.024256, 745.062511)"><g><path d="M 4.234375 -7.703125 C 4.234375 -5.804688 4.625 -4.34375 5.40625 -3.3125 C 6.195312 -2.28125 7.347656 -1.765625 8.859375 -1.765625 C 10.054688 -1.765625 11.015625 -2.003906 11.734375 -2.484375 C 12.453125 -2.960938 12.941406 -3.570312 13.203125 -4.3125 L 15.625 -3.625 C 14.625 -1 12.367188 0.3125 8.859375 0.3125 C 6.410156 0.3125 4.539062 -0.414062 3.25 -1.875 C 1.96875 -3.34375 1.328125 -5.519531 1.328125 -8.40625 C 1.328125 -11.132812 1.96875 -13.226562 3.25 -14.6875 C 4.539062 -16.15625 6.375 -16.890625 8.75 -16.890625 C 13.625 -16.890625 16.0625 -13.953125 16.0625 -8.078125 L 16.0625 -7.703125 Z M 13.21875 -9.828125 C 13.0625 -11.578125 12.613281 -12.851562 11.875 -13.65625 C 11.144531 -14.457031 10.085938 -14.859375 8.703125 -14.859375 C 7.367188 -14.859375 6.3125 -14.410156 5.53125 -13.515625 C 4.75 -12.617188 4.328125 -11.390625 4.265625 -9.828125 Z M 13.21875 -9.828125 "/></g></g><g transform="translate(479.478057, 745.062511)"><g><path d="M 9.390625 0 L 6.125 0 L 0.109375 -16.578125 L 3.046875 -16.578125 L 6.703125 -5.796875 C 6.828125 -5.390625 7.175781 -4.175781 7.75 -2.15625 L 8.296875 -3.953125 L 8.890625 -5.765625 L 12.65625 -16.578125 L 15.59375 -16.578125 Z M 9.390625 0 "/></g></g></g><g fill="#000000" fill-opacity="1"><g transform="translate(517.881415, 745.062511)"><g><path d="M 20.9375 0 L 20.9375 -14.40625 C 20.9375 -16 20.984375 -17.53125 21.078125 -19 C 20.578125 -17.175781 20.125 -15.75 19.71875 -14.71875 L 14.140625 0 L 12.09375 0 L 6.4375 -14.71875 L 5.578125 -17.3125 L 5.078125 -19 L 5.125 -17.3125 L 5.1875 -14.40625 L 5.1875 0 L 2.578125 0 L 2.578125 -21.59375 L 6.421875 -21.59375 L 12.171875 -6.625 C 12.367188 -6.019531 12.5625 -5.367188 12.75 -4.671875 C 12.945312 -3.984375 13.078125 -3.488281 13.140625 -3.1875 C 13.222656 -3.59375 13.394531 -4.210938 13.65625 -5.046875 C 13.914062 -5.878906 14.085938 -6.40625 14.171875 -6.625 L 19.8125 -21.59375 L 23.578125 -21.59375 L 23.578125 0 Z M 20.9375 0 "/></g></g><g transform="translate(544.023807, 745.062511)"><g><path d="M 6.34375 0.3125 C 4.675781 0.3125 3.421875 -0.125 2.578125 -1 C 1.742188 -1.882812 1.328125 -3.09375 1.328125 -4.625 C 1.328125 -6.34375 1.890625 -7.660156 3.015625 -8.578125 C 4.148438 -9.503906 5.972656 -10 8.484375 -10.0625 L 12.21875 -10.109375 L 12.21875 -11.015625 C 12.21875 -12.367188 11.929688 -13.335938 11.359375 -13.921875 C 10.785156 -14.503906 9.882812 -14.796875 8.65625 -14.796875 C 7.425781 -14.796875 6.53125 -14.582031 5.96875 -14.15625 C 5.40625 -13.738281 5.066406 -13.070312 4.953125 -12.15625 L 2.0625 -12.421875 C 2.539062 -15.398438 4.757812 -16.890625 8.71875 -16.890625 C 10.800781 -16.890625 12.367188 -16.410156 13.421875 -15.453125 C 14.472656 -14.503906 15 -13.125 15 -11.3125 L 15 -4.171875 C 15 -3.347656 15.109375 -2.726562 15.328125 -2.3125 C 15.546875 -1.90625 15.953125 -1.703125 16.546875 -1.703125 C 16.816406 -1.703125 17.117188 -1.738281 17.453125 -1.8125 L 17.453125 -0.09375 C 16.765625 0.0703125 16.054688 0.15625 15.328125 0.15625 C 14.304688 0.15625 13.5625 -0.109375 13.09375 -0.640625 C 12.632812 -1.179688 12.375 -2.023438 12.3125 -3.171875 L 12.21875 -3.171875 C 11.507812 -1.898438 10.6875 -1 9.75 -0.46875 C 8.820312 0.0507812 7.6875 0.3125 6.34375 0.3125 Z M 6.96875 -1.765625 C 7.976562 -1.765625 8.878906 -1.992188 9.671875 -2.453125 C 10.460938 -2.910156 11.082031 -3.539062 11.53125 -4.34375 C 11.988281 -5.144531 12.21875 -5.972656 12.21875 -6.828125 L 12.21875 -8.1875 L 9.203125 -8.125 C 7.898438 -8.101562 6.910156 -7.96875 6.234375 -7.71875 C 5.566406 -7.476562 5.054688 -7.101562 4.703125 -6.59375 C 4.347656 -6.082031 4.171875 -5.410156 4.171875 -4.578125 C 4.171875 -3.679688 4.410156 -2.988281 4.890625 -2.5 C 5.378906 -2.007812 6.070312 -1.765625 6.96875 -1.765625 Z M 6.96875 -1.765625 "/></g></g><g transform="translate(561.477608, 745.062511)"><g><path d="M 2.171875 0 L 2.171875 -12.71875 C 2.171875 -13.882812 2.140625 -15.171875 2.078125 -16.578125 L 4.6875 -16.578125 C 4.769531 -14.703125 4.8125 -13.578125 4.8125 -13.203125 L 4.875 -13.203125 C 5.3125 -14.617188 5.816406 -15.585938 6.390625 -16.109375 C 6.960938 -16.628906 7.769531 -16.890625 8.8125 -16.890625 C 9.175781 -16.890625 9.550781 -16.835938 9.9375 -16.734375 L 9.9375 -14.203125 C 9.5625 -14.304688 9.066406 -14.359375 8.453125 -14.359375 C 7.316406 -14.359375 6.445312 -13.863281 5.84375 -12.875 C 5.238281 -11.894531 4.9375 -10.484375 4.9375 -8.640625 L 4.9375 0 Z M 2.171875 0 "/></g></g></g><g fill="#000000" fill-opacity="1"><g transform="translate(598.364008, 745.062511)"><g><path d="M 17.890625 0 L 15.421875 -6.3125 L 5.578125 -6.3125 L 3.09375 0 L 0.0625 0 L 8.875 -21.59375 L 12.203125 -21.59375 L 20.875 0 Z M 10.5 -19.390625 L 10.359375 -18.953125 C 10.109375 -18.109375 9.734375 -17.023438 9.234375 -15.703125 L 6.46875 -8.59375 L 14.546875 -8.59375 L 11.765625 -15.71875 C 11.484375 -16.425781 11.195312 -17.222656 10.90625 -18.109375 Z M 10.5 -19.390625 "/></g></g><g transform="translate(619.29631, 745.062511)"><g><path d="M 16.140625 -8.375 C 16.140625 -2.582031 14.109375 0.3125 10.046875 0.3125 C 8.785156 0.3125 7.738281 0.0820312 6.90625 -0.375 C 6.070312 -0.832031 5.394531 -1.566406 4.875 -2.578125 L 4.84375 -2.578125 C 4.84375 -2.253906 4.820312 -1.769531 4.78125 -1.125 C 4.738281 -0.476562 4.707031 -0.101562 4.6875 0 L 2.015625 0 C 2.078125 -0.550781 2.109375 -1.691406 2.109375 -3.421875 L 2.109375 -22.75 L 4.875 -22.75 L 4.875 -16.265625 C 4.875 -15.597656 4.851562 -14.816406 4.8125 -13.921875 L 4.875 -13.921875 C 5.382812 -14.984375 6.0625 -15.742188 6.90625 -16.203125 C 7.75 -16.660156 8.796875 -16.890625 10.046875 -16.890625 C 12.140625 -16.890625 13.675781 -16.179688 14.65625 -14.765625 C 15.644531 -13.359375 16.140625 -11.226562 16.140625 -8.375 Z M 13.25 -8.28125 C 13.25 -10.59375 12.941406 -12.25 12.328125 -13.25 C 11.710938 -14.257812 10.710938 -14.765625 9.328125 -14.765625 C 7.773438 -14.765625 6.644531 -14.234375 5.9375 -13.171875 C 5.226562 -12.109375 4.875 -10.421875 4.875 -8.109375 C 4.875 -5.929688 5.21875 -4.320312 5.90625 -3.28125 C 6.601562 -2.25 7.734375 -1.734375 9.296875 -1.734375 C 10.691406 -1.734375 11.695312 -2.242188 12.3125 -3.265625 C 12.9375 -4.296875 13.25 -5.96875 13.25 -8.28125 Z M 13.25 -8.28125 "/></g></g><g transform="translate(636.750111, 745.062511)"><g><path d="M 2.171875 0 L 2.171875 -12.71875 C 2.171875 -13.882812 2.140625 -15.171875 2.078125 -16.578125 L 4.6875 -16.578125 C 4.769531 -14.703125 4.8125 -13.578125 4.8125 -13.203125 L 4.875 -13.203125 C 5.3125 -14.617188 5.816406 -15.585938 6.390625 -16.109375 C 6.960938 -16.628906 7.769531 -16.890625 8.8125 -16.890625 C 9.175781 -16.890625 9.550781 -16.835938 9.9375 -16.734375 L 9.9375 -14.203125 C 9.5625 -14.304688 9.066406 -14.359375 8.453125 -14.359375 C 7.316406 -14.359375 6.445312 -13.863281 5.84375 -12.875 C 5.238281 -11.894531 4.9375 -10.484375 4.9375 -8.640625 L 4.9375 0 Z M 2.171875 0 "/></g></g></g><g fill="#000000" fill-opacity="1"><g transform="translate(674.402615, 745.062511)"><g><path d="M 20.9375 0 L 20.9375 -14.40625 C 20.9375 -16 20.984375 -17.53125 21.078125 -19 C 20.578125 -17.175781 20.125 -15.75 19.71875 -14.71875 L 14.140625 0 L 12.09375 0 L 6.4375 -14.71875 L 5.578125 -17.3125 L 5.078125 -19 L 5.125 -17.3125 L 5.1875 -14.40625 L 5.1875 0 L 2.578125 0 L 2.578125 -21.59375 L 6.421875 -21.59375 L 12.171875 -6.625 C 12.367188 -6.019531 12.5625 -5.367188 12.75 -4.671875 C 12.945312 -3.984375 13.078125 -3.488281 13.140625 -3.1875 C 13.222656 -3.59375 13.394531 -4.210938 13.65625 -5.046875 C 13.914062 -5.878906 14.085938 -6.40625 14.171875 -6.625 L 19.8125 -21.59375 L 23.578125 -21.59375 L 23.578125 0 Z M 20.9375 0 "/></g></g><g transform="translate(700.545007, 745.062511)"><g><path d="M 6.34375 0.3125 C 4.675781 0.3125 3.421875 -0.125 2.578125 -1 C 1.742188 -1.882812 1.328125 -3.09375 1.328125 -4.625 C 1.328125 -6.34375 1.890625 -7.660156 3.015625 -8.578125 C 4.148438 -9.503906 5.972656 -10 8.484375 -10.0625 L 12.21875 -10.109375 L 12.21875 -11.015625 C 12.21875 -12.367188 11.929688 -13.335938 11.359375 -13.921875 C 10.785156 -14.503906 9.882812 -14.796875 8.65625 -14.796875 C 7.425781 -14.796875 6.53125 -14.582031 5.96875 -14.15625 C 5.40625 -13.738281 5.066406 -13.070312 4.953125 -12.15625 L 2.0625 -12.421875 C 2.539062 -15.398438 4.757812 -16.890625 8.71875 -16.890625 C 10.800781 -16.890625 12.367188 -16.410156 13.421875 -15.453125 C 14.472656 -14.503906 15 -13.125 15 -11.3125 L 15 -4.171875 C 15 -3.347656 15.109375 -2.726562 15.328125 -2.3125 C 15.546875 -1.90625 15.953125 -1.703125 16.546875 -1.703125 C 16.816406 -1.703125 17.117188 -1.738281 17.453125 -1.8125 L 17.453125 -0.09375 C 16.765625 0.0703125 16.054688 0.15625 15.328125 0.15625 C 14.304688 0.15625 13.5625 -0.109375 13.09375 -0.640625 C 12.632812 -1.179688 12.375 -2.023438 12.3125 -3.171875 L 12.21875 -3.171875 C 11.507812 -1.898438 10.6875 -1 9.75 -0.46875 C 8.820312 0.0507812 7.6875 0.3125 6.34375 0.3125 Z M 6.96875 -1.765625 C 7.976562 -1.765625 8.878906 -1.992188 9.671875 -2.453125 C 10.460938 -2.910156 11.082031 -3.539062 11.53125 -4.34375 C 11.988281 -5.144531 12.21875 -5.972656 12.21875 -6.828125 L 12.21875 -8.1875 L 9.203125 -8.125 C 7.898438 -8.101562 6.910156 -7.96875 6.234375 -7.71875 C 5.566406 -7.476562 5.054688 -7.101562 4.703125 -6.59375 C 4.347656 -6.082031 4.171875 -5.410156 4.171875 -4.578125 C 4.171875 -3.679688 4.410156 -2.988281 4.890625 -2.5 C 5.378906 -2.007812 6.070312 -1.765625 6.96875 -1.765625 Z M 6.96875 -1.765625 "/></g></g><g transform="translate(717.998808, 745.062511)"><g><path d="M 2.09375 -20.109375 L 2.09375 -22.75 L 4.859375 -22.75 L 4.859375 -20.109375 Z M 2.09375 0 L 2.09375 -16.578125 L 4.859375 -16.578125 L 4.859375 0 Z M 2.09375 0 "/></g></g></g><g fill="#000000" fill-opacity="1"><g transform="translate(753.260827, 745.062511)"><g><path d="M 7 0.3125 C 3.34375 0.3125 1.171875 -1.578125 0.484375 -5.359375 L 3.359375 -5.84375 C 3.535156 -4.65625 3.945312 -3.726562 4.59375 -3.0625 C 5.238281 -2.394531 6.046875 -2.0625 7.015625 -2.0625 C 8.078125 -2.0625 8.914062 -2.425781 9.53125 -3.15625 C 10.144531 -3.894531 10.453125 -4.96875 10.453125 -6.375 L 10.453125 -19.203125 L 6.296875 -19.203125 L 6.296875 -21.59375 L 13.359375 -21.59375 L 13.359375 -6.4375 C 13.359375 -4.34375 12.789062 -2.691406 11.65625 -1.484375 C 10.53125 -0.285156 8.976562 0.3125 7 0.3125 Z M 7 0.3125 "/></g></g><g transform="translate(768.952392, 745.062511)"><g><path d="M 4.8125 -16.578125 L 4.8125 -6.0625 C 4.8125 -4.96875 4.914062 -4.117188 5.125 -3.515625 C 5.34375 -2.921875 5.6875 -2.488281 6.15625 -2.21875 C 6.625 -1.957031 7.316406 -1.828125 8.234375 -1.828125 C 9.554688 -1.828125 10.597656 -2.28125 11.359375 -3.1875 C 12.128906 -4.09375 12.515625 -5.351562 12.515625 -6.96875 L 12.515625 -16.578125 L 15.28125 -16.578125 L 15.28125 -3.546875 C 15.28125 -1.609375 15.3125 -0.425781 15.375 0 L 12.765625 0 C 12.753906 -0.0507812 12.742188 -0.1875 12.734375 -0.40625 C 12.722656 -0.632812 12.707031 -0.894531 12.6875 -1.1875 C 12.675781 -1.476562 12.660156 -2.023438 12.640625 -2.828125 L 12.59375 -2.828125 C 11.96875 -1.691406 11.238281 -0.882812 10.40625 -0.40625 C 9.570312 0.0703125 8.535156 0.3125 7.296875 0.3125 C 5.472656 0.3125 4.140625 -0.140625 3.296875 -1.046875 C 2.453125 -1.953125 2.03125 -3.445312 2.03125 -5.53125 L 2.03125 -16.578125 Z M 4.8125 -16.578125 "/></g></g><g transform="translate(786.406193, 745.062511)"><g><path d="M 12.640625 0 L 12.640625 -10.515625 C 12.640625 -11.609375 12.53125 -12.457031 12.3125 -13.0625 C 12.101562 -13.664062 11.765625 -14.097656 11.296875 -14.359375 C 10.828125 -14.628906 10.140625 -14.765625 9.234375 -14.765625 C 7.898438 -14.765625 6.847656 -14.304688 6.078125 -13.390625 C 5.316406 -12.484375 4.9375 -11.222656 4.9375 -9.609375 L 4.9375 0 L 2.171875 0 L 2.171875 -13.046875 C 2.171875 -14.972656 2.140625 -16.148438 2.078125 -16.578125 L 4.6875 -16.578125 C 4.695312 -16.523438 4.707031 -16.382812 4.71875 -16.15625 C 4.726562 -15.9375 4.738281 -15.679688 4.75 -15.390625 C 4.769531 -15.097656 4.789062 -14.550781 4.8125 -13.75 L 4.859375 -13.75 C 5.492188 -14.894531 6.226562 -15.703125 7.0625 -16.171875 C 7.894531 -16.648438 8.925781 -16.890625 10.15625 -16.890625 C 11.976562 -16.890625 13.3125 -16.4375 14.15625 -15.53125 C 15 -14.625 15.421875 -13.128906 15.421875 -11.046875 L 15.421875 0 Z M 12.640625 0 "/></g></g></g><g fill="#000000" fill-opacity="1"><g transform="translate(835.398305, 745.062511)"><g><path d="M 7 0.3125 C 3.34375 0.3125 1.171875 -1.578125 0.484375 -5.359375 L 3.359375 -5.84375 C 3.535156 -4.65625 3.945312 -3.726562 4.59375 -3.0625 C 5.238281 -2.394531 6.046875 -2.0625 7.015625 -2.0625 C 8.078125 -2.0625 8.914062 -2.425781 9.53125 -3.15625 C 10.144531 -3.894531 10.453125 -4.96875 10.453125 -6.375 L 10.453125 -19.203125 L 6.296875 -19.203125 L 6.296875 -21.59375 L 13.359375 -21.59375 L 13.359375 -6.4375 C 13.359375 -4.34375 12.789062 -2.691406 11.65625 -1.484375 C 10.53125 -0.285156 8.976562 0.3125 7 0.3125 Z M 7 0.3125 "/></g></g><g transform="translate(851.08987, 745.062511)"><g><path d="M 4.8125 -16.578125 L 4.8125 -6.0625 C 4.8125 -4.96875 4.914062 -4.117188 5.125 -3.515625 C 5.34375 -2.921875 5.6875 -2.488281 6.15625 -2.21875 C 6.625 -1.957031 7.316406 -1.828125 8.234375 -1.828125 C 9.554688 -1.828125 10.597656 -2.28125 11.359375 -3.1875 C 12.128906 -4.09375 12.515625 -5.351562 12.515625 -6.96875 L 12.515625 -16.578125 L 15.28125 -16.578125 L 15.28125 -3.546875 C 15.28125 -1.609375 15.3125 -0.425781 15.375 0 L 12.765625 0 C 12.753906 -0.0507812 12.742188 -0.1875 12.734375 -0.40625 C 12.722656 -0.632812 12.707031 -0.894531 12.6875 -1.1875 C 12.675781 -1.476562 12.660156 -2.023438 12.640625 -2.828125 L 12.59375 -2.828125 C 11.96875 -1.691406 11.238281 -0.882812 10.40625 -0.40625 C 9.570312 0.0703125 8.535156 0.3125 7.296875 0.3125 C 5.472656 0.3125 4.140625 -0.140625 3.296875 -1.046875 C 2.453125 -1.953125 2.03125 -3.445312 2.03125 -5.53125 L 2.03125 -16.578125 Z M 4.8125 -16.578125 "/></g></g><g transform="translate(868.543671, 745.062511)"><g><path d="M 2.109375 0 L 2.109375 -22.75 L 4.875 -22.75 L 4.875 0 Z M 2.109375 0 "/></g></g></g><g fill="#000000" fill-opacity="1"><g transform="translate(907.820532, 745.062511)"><g><path d="M 19.5 -5.96875 C 19.5 -3.96875 18.71875 -2.421875 17.15625 -1.328125 C 15.601562 -0.234375 13.410156 0.3125 10.578125 0.3125 C 5.316406 0.3125 2.265625 -1.519531 1.421875 -5.1875 L 4.265625 -5.75 C 4.585938 -4.445312 5.28125 -3.492188 6.34375 -2.890625 C 7.40625 -2.285156 8.851562 -1.984375 10.6875 -1.984375 C 12.570312 -1.984375 14.023438 -2.304688 15.046875 -2.953125 C 16.078125 -3.597656 16.59375 -4.550781 16.59375 -5.8125 C 16.59375 -6.507812 16.429688 -7.078125 16.109375 -7.515625 C 15.796875 -7.960938 15.347656 -8.328125 14.765625 -8.609375 C 14.179688 -8.898438 13.484375 -9.140625 12.671875 -9.328125 C 11.867188 -9.523438 10.976562 -9.738281 10 -9.96875 C 8.289062 -10.34375 6.992188 -10.71875 6.109375 -11.09375 C 5.222656 -11.476562 4.523438 -11.898438 4.015625 -12.359375 C 3.503906 -12.828125 3.113281 -13.367188 2.84375 -13.984375 C 2.570312 -14.609375 2.4375 -15.328125 2.4375 -16.140625 C 2.4375 -17.992188 3.144531 -19.421875 4.5625 -20.421875 C 5.976562 -21.421875 8.003906 -21.921875 10.640625 -21.921875 C 13.085938 -21.921875 14.957031 -21.546875 16.25 -20.796875 C 17.550781 -20.046875 18.460938 -18.765625 18.984375 -16.953125 L 16.109375 -16.453125 C 15.796875 -17.585938 15.191406 -18.414062 14.296875 -18.9375 C 13.410156 -19.457031 12.179688 -19.71875 10.609375 -19.71875 C 8.878906 -19.71875 7.554688 -19.429688 6.640625 -18.859375 C 5.734375 -18.285156 5.28125 -17.429688 5.28125 -16.296875 C 5.28125 -15.628906 5.457031 -15.078125 5.8125 -14.640625 C 6.164062 -14.210938 6.675781 -13.847656 7.34375 -13.546875 C 8.007812 -13.242188 9.332031 -12.875 11.3125 -12.4375 C 11.976562 -12.28125 12.640625 -12.117188 13.296875 -11.953125 C 13.953125 -11.796875 14.582031 -11.609375 15.1875 -11.390625 C 15.789062 -11.171875 16.351562 -10.910156 16.875 -10.609375 C 17.40625 -10.316406 17.863281 -9.957031 18.25 -9.53125 C 18.644531 -9.101562 18.953125 -8.597656 19.171875 -8.015625 C 19.390625 -7.429688 19.5 -6.75 19.5 -5.96875 Z M 19.5 -5.96875 "/></g></g><g transform="translate(928.752835, 745.062511)"><g><path d="M 4.234375 -7.703125 C 4.234375 -5.804688 4.625 -4.34375 5.40625 -3.3125 C 6.195312 -2.28125 7.347656 -1.765625 8.859375 -1.765625 C 10.054688 -1.765625 11.015625 -2.003906 11.734375 -2.484375 C 12.453125 -2.960938 12.941406 -3.570312 13.203125 -4.3125 L 15.625 -3.625 C 14.625 -1 12.367188 0.3125 8.859375 0.3125 C 6.410156 0.3125 4.539062 -0.414062 3.25 -1.875 C 1.96875 -3.34375 1.328125 -5.519531 1.328125 -8.40625 C 1.328125 -11.132812 1.96875 -13.226562 3.25 -14.6875 C 4.539062 -16.15625 6.375 -16.890625 8.75 -16.890625 C 13.625 -16.890625 16.0625 -13.953125 16.0625 -8.078125 L 16.0625 -7.703125 Z M 13.21875 -9.828125 C 13.0625 -11.578125 12.613281 -12.851562 11.875 -13.65625 C 11.144531 -14.457031 10.085938 -14.859375 8.703125 -14.859375 C 7.367188 -14.859375 6.3125 -14.410156 5.53125 -13.515625 C 4.75 -12.617188 4.328125 -11.390625 4.265625 -9.828125 Z M 13.21875 -9.828125 "/></g></g><g transform="translate(946.206635, 745.062511)"><g><path d="M 8.484375 -0.125 C 7.578125 0.125 6.648438 0.25 5.703125 0.25 C 3.492188 0.25 2.390625 -1.003906 2.390625 -3.515625 L 2.390625 -14.578125 L 0.46875 -14.578125 L 0.46875 -16.578125 L 2.5 -16.578125 L 3.3125 -20.296875 L 5.15625 -20.296875 L 5.15625 -16.578125 L 8.21875 -16.578125 L 8.21875 -14.578125 L 5.15625 -14.578125 L 5.15625 -4.109375 C 5.15625 -3.304688 5.285156 -2.742188 5.546875 -2.421875 C 5.804688 -2.109375 6.253906 -1.953125 6.890625 -1.953125 C 7.265625 -1.953125 7.796875 -2.019531 8.484375 -2.15625 Z M 8.484375 -0.125 "/></g></g></g><g fill="#000000" fill-opacity="1"><g transform="translate(981.98972, 745.062511)"><g><path d="M 22.921875 -10.890625 C 22.921875 -8.640625 22.488281 -6.664062 21.625 -4.96875 C 20.757812 -3.269531 19.519531 -1.960938 17.90625 -1.046875 C 16.289062 -0.140625 14.382812 0.3125 12.1875 0.3125 C 9.96875 0.3125 8.050781 -0.132812 6.4375 -1.03125 C 4.832031 -1.9375 3.601562 -3.238281 2.75 -4.9375 C 1.90625 -6.644531 1.484375 -8.628906 1.484375 -10.890625 C 1.484375 -14.347656 2.425781 -17.050781 4.3125 -19 C 6.207031 -20.945312 8.84375 -21.921875 12.21875 -21.921875 C 14.414062 -21.921875 16.320312 -21.484375 17.9375 -20.609375 C 19.550781 -19.734375 20.785156 -18.460938 21.640625 -16.796875 C 22.492188 -15.128906 22.921875 -13.160156 22.921875 -10.890625 Z M 19.921875 -10.890625 C 19.921875 -13.578125 19.25 -15.6875 17.90625 -17.21875 C 16.5625 -18.757812 14.664062 -19.53125 12.21875 -19.53125 C 9.738281 -19.53125 7.820312 -18.769531 6.46875 -17.25 C 5.125 -15.738281 4.453125 -13.617188 4.453125 -10.890625 C 4.453125 -8.191406 5.132812 -6.046875 6.5 -4.453125 C 7.863281 -2.859375 9.757812 -2.0625 12.1875 -2.0625 C 14.675781 -2.0625 16.585938 -2.832031 17.921875 -4.375 C 19.253906 -5.914062 19.921875 -8.085938 19.921875 -10.890625 Z M 19.921875 -10.890625 "/></g></g><g transform="translate(1006.400523, 745.062511)"><g><path d="M 4.8125 -16.578125 L 4.8125 -6.0625 C 4.8125 -4.96875 4.914062 -4.117188 5.125 -3.515625 C 5.34375 -2.921875 5.6875 -2.488281 6.15625 -2.21875 C 6.625 -1.957031 7.316406 -1.828125 8.234375 -1.828125 C 9.554688 -1.828125 10.597656 -2.28125 11.359375 -3.1875 C 12.128906 -4.09375 12.515625 -5.351562 12.515625 -6.96875 L 12.515625 -16.578125 L 15.28125 -16.578125 L 15.28125 -3.546875 C 15.28125 -1.609375 15.3125 -0.425781 15.375 0 L 12.765625 0 C 12.753906 -0.0507812 12.742188 -0.1875 12.734375 -0.40625 C 12.722656 -0.632812 12.707031 -0.894531 12.6875 -1.1875 C 12.675781 -1.476562 12.660156 -2.023438 12.640625 -2.828125 L 12.59375 -2.828125 C 11.96875 -1.691406 11.238281 -0.882812 10.40625 -0.40625 C 9.570312 0.0703125 8.535156 0.3125 7.296875 0.3125 C 5.472656 0.3125 4.140625 -0.140625 3.296875 -1.046875 C 2.453125 -1.953125 2.03125 -3.445312 2.03125 -5.53125 L 2.03125 -16.578125 Z M 4.8125 -16.578125 "/></g></g><g transform="translate(1023.854324, 745.062511)"><g><path d="M 8.484375 -0.125 C 7.578125 0.125 6.648438 0.25 5.703125 0.25 C 3.492188 0.25 2.390625 -1.003906 2.390625 -3.515625 L 2.390625 -14.578125 L 0.46875 -14.578125 L 0.46875 -16.578125 L 2.5 -16.578125 L 3.3125 -20.296875 L 5.15625 -20.296875 L 5.15625 -16.578125 L 8.21875 -16.578125 L 8.21875 -14.578125 L 5.15625 -14.578125 L 5.15625 -4.109375 C 5.15625 -3.304688 5.285156 -2.742188 5.546875 -2.421875 C 5.804688 -2.109375 6.253906 -1.953125 6.890625 -1.953125 C 7.265625 -1.953125 7.796875 -2.019531 8.484375 -2.15625 Z M 8.484375 -0.125 "/></g></g></g><g fill="#000000" fill-opacity="1"><g transform="translate(1056.281463, 745.062511)"><g><path d="M 16.578125 0 L 5.03125 -18.390625 L 5.109375 -16.90625 L 5.1875 -14.34375 L 5.1875 0 L 2.578125 0 L 2.578125 -21.59375 L 5.984375 -21.59375 L 17.65625 -3.078125 C 17.53125 -5.078125 17.46875 -6.53125 17.46875 -7.4375 L 17.46875 -21.59375 L 20.109375 -21.59375 L 20.109375 0 Z M 16.578125 0 "/></g></g><g transform="translate(1078.945354, 745.062511)"><g><path d="M 16.140625 -8.3125 C 16.140625 -5.40625 15.5 -3.238281 14.21875 -1.8125 C 12.945312 -0.394531 11.09375 0.3125 8.65625 0.3125 C 6.238281 0.3125 4.410156 -0.425781 3.171875 -1.90625 C 1.929688 -3.382812 1.3125 -5.519531 1.3125 -8.3125 C 1.3125 -14.03125 3.789062 -16.890625 8.75 -16.890625 C 11.28125 -16.890625 13.144531 -16.191406 14.34375 -14.796875 C 15.539062 -13.398438 16.140625 -11.238281 16.140625 -8.3125 Z M 13.25 -8.3125 C 13.25 -10.59375 12.90625 -12.253906 12.21875 -13.296875 C 11.539062 -14.335938 10.398438 -14.859375 8.796875 -14.859375 C 7.179688 -14.859375 6.015625 -14.328125 5.296875 -13.265625 C 4.578125 -12.203125 4.21875 -10.550781 4.21875 -8.3125 C 4.21875 -6.125 4.570312 -4.476562 5.28125 -3.375 C 5.988281 -2.28125 7.101562 -1.734375 8.625 -1.734375 C 10.28125 -1.734375 11.460938 -2.265625 12.171875 -3.328125 C 12.890625 -4.390625 13.25 -6.050781 13.25 -8.3125 Z M 13.25 -8.3125 "/></g></g><g transform="translate(1096.399155, 745.062511)"><g><path d="M 9.390625 0 L 6.125 0 L 0.109375 -16.578125 L 3.046875 -16.578125 L 6.703125 -5.796875 C 6.828125 -5.390625 7.175781 -4.175781 7.75 -2.15625 L 8.296875 -3.953125 L 8.890625 -5.765625 L 12.65625 -16.578125 L 15.59375 -16.578125 Z M 9.390625 0 "/></g></g></g><g fill="#000000" fill-opacity="1"><g transform="translate(1133.178155, 745.062511)"><g><path d="M 21.171875 -11.015625 C 21.171875 -8.785156 20.734375 -6.835938 19.859375 -5.171875 C 18.992188 -3.503906 17.765625 -2.222656 16.171875 -1.328125 C 14.578125 -0.441406 12.738281 0 10.65625 0 L 2.578125 0 L 2.578125 -21.59375 L 9.71875 -21.59375 C 13.375 -21.59375 16.195312 -20.675781 18.1875 -18.84375 C 20.175781 -17.007812 21.171875 -14.398438 21.171875 -11.015625 Z M 18.21875 -11.015625 C 18.21875 -13.691406 17.484375 -15.734375 16.015625 -17.140625 C 14.554688 -18.546875 12.4375 -19.25 9.65625 -19.25 L 5.5 -19.25 L 5.5 -2.34375 L 10.3125 -2.34375 C 11.894531 -2.34375 13.285156 -2.6875 14.484375 -3.375 C 15.691406 -4.070312 16.613281 -5.078125 17.25 -6.390625 C 17.894531 -7.703125 18.21875 -9.242188 18.21875 -11.015625 Z M 18.21875 -11.015625 "/></g></g><g transform="translate(1155.842046, 745.062511)"><g><path d="M 4.234375 -7.703125 C 4.234375 -5.804688 4.625 -4.34375 5.40625 -3.3125 C 6.195312 -2.28125 7.347656 -1.765625 8.859375 -1.765625 C 10.054688 -1.765625 11.015625 -2.003906 11.734375 -2.484375 C 12.453125 -2.960938 12.941406 -3.570312 13.203125 -4.3125 L 15.625 -3.625 C 14.625 -1 12.367188 0.3125 8.859375 0.3125 C 6.410156 0.3125 4.539062 -0.414062 3.25 -1.875 C 1.96875 -3.34375 1.328125 -5.519531 1.328125 -8.40625 C 1.328125 -11.132812 1.96875 -13.226562 3.25 -14.6875 C 4.539062 -16.15625 6.375 -16.890625 8.75 -16.890625 C 13.625 -16.890625 16.0625 -13.953125 16.0625 -8.078125 L 16.0625 -7.703125 Z M 13.21875 -9.828125 C 13.0625 -11.578125 12.613281 -12.851562 11.875 -13.65625 C 11.144531 -14.457031 10.085938 -14.859375 8.703125 -14.859375 C 7.367188 -14.859375 6.3125 -14.410156 5.53125 -13.515625 C 4.75 -12.617188 4.328125 -11.390625 4.265625 -9.828125 Z M 13.21875 -9.828125 "/></g></g><g transform="translate(1173.295847, 745.062511)"><g><path d="M 1.265625 0 L 1.265625 -2.09375 L 10.546875 -14.453125 L 1.796875 -14.453125 L 1.796875 -16.578125 L 13.8125 -16.578125 L 13.8125 -14.484375 L 4.515625 -2.125 L 14.125 -2.125 L 14.125 0 Z M 1.265625 0 "/></g></g></g><g fill="#000000" fill-opacity="1"><g transform="translate(314.56318, 714.660104)"><g><path d="M 16.234375 -10.8125 C 16.234375 -7.195312 15.597656 -4.4375 14.328125 -2.53125 C 13.054688 -0.632812 11.175781 0.3125 8.6875 0.3125 C 6.207031 0.3125 4.34375 -0.628906 3.09375 -2.515625 C 1.84375 -4.410156 1.21875 -7.175781 1.21875 -10.8125 C 1.21875 -14.519531 1.820312 -17.296875 3.03125 -19.140625 C 4.25 -20.992188 6.164062 -21.921875 8.78125 -21.921875 C 11.320312 -21.921875 13.195312 -20.984375 14.40625 -19.109375 C 15.625 -17.242188 16.234375 -14.476562 16.234375 -10.8125 Z M 13.421875 -10.8125 C 13.421875 -13.925781 13.0625 -16.179688 12.34375 -17.578125 C 11.625 -18.984375 10.4375 -19.6875 8.78125 -19.6875 C 7.082031 -19.6875 5.863281 -18.992188 5.125 -17.609375 C 4.382812 -16.234375 4.015625 -13.96875 4.015625 -10.8125 C 4.015625 -7.738281 4.390625 -5.492188 5.140625 -4.078125 C 5.890625 -2.660156 7.082031 -1.953125 8.71875 -1.953125 C 10.34375 -1.953125 11.53125 -2.675781 12.28125 -4.125 C 13.039062 -5.570312 13.421875 -7.800781 13.421875 -10.8125 Z M 13.421875 -10.8125 "/></g></g></g><g fill="#000000" fill-opacity="1"><g transform="translate(262.891373, 557.744416)"><g><path d="M 16.140625 -7.03125 C 16.140625 -4.757812 15.460938 -2.96875 14.109375 -1.65625 C 12.753906 -0.34375 10.875 0.3125 8.46875 0.3125 C 6.457031 0.3125 4.832031 -0.125 3.59375 -1 C 2.363281 -1.882812 1.582031 -3.160156 1.25 -4.828125 L 4.046875 -5.15625 C 4.628906 -3.019531 6.125 -1.953125 8.53125 -1.953125 C 10.019531 -1.953125 11.179688 -2.394531 12.015625 -3.28125 C 12.859375 -4.175781 13.28125 -5.40625 13.28125 -6.96875 C 13.28125 -8.332031 12.859375 -9.429688 12.015625 -10.265625 C 11.171875 -11.109375 10.03125 -11.53125 8.59375 -11.53125 C 7.851562 -11.53125 7.160156 -11.410156 6.515625 -11.171875 C 5.867188 -10.941406 5.222656 -10.546875 4.578125 -9.984375 L 1.890625 -9.984375 L 2.609375 -21.59375 L 14.890625 -21.59375 L 14.890625 -19.25 L 5.125 -19.25 L 4.703125 -12.40625 C 5.898438 -13.320312 7.390625 -13.78125 9.171875 -13.78125 C 11.296875 -13.78125 12.988281 -13.15625 14.25 -11.90625 C 15.507812 -10.664062 16.140625 -9.039062 16.140625 -7.03125 Z M 16.140625 -7.03125 "/></g></g><g transform="translate(280.345174, 557.744416)"><g><path d="M 16.234375 -10.8125 C 16.234375 -7.195312 15.597656 -4.4375 14.328125 -2.53125 C 13.054688 -0.632812 11.175781 0.3125 8.6875 0.3125 C 6.207031 0.3125 4.34375 -0.628906 3.09375 -2.515625 C 1.84375 -4.410156 1.21875 -7.175781 1.21875 -10.8125 C 1.21875 -14.519531 1.820312 -17.296875 3.03125 -19.140625 C 4.25 -20.992188 6.164062 -21.921875 8.78125 -21.921875 C 11.320312 -21.921875 13.195312 -20.984375 14.40625 -19.109375 C 15.625 -17.242188 16.234375 -14.476562 16.234375 -10.8125 Z M 13.421875 -10.8125 C 13.421875 -13.925781 13.0625 -16.179688 12.34375 -17.578125 C 11.625 -18.984375 10.4375 -19.6875 8.78125 -19.6875 C 7.082031 -19.6875 5.863281 -18.992188 5.125 -17.609375 C 4.382812 -16.234375 4.015625 -13.96875 4.015625 -10.8125 C 4.015625 -7.738281 4.390625 -5.492188 5.140625 -4.078125 C 5.890625 -2.660156 7.082031 -1.953125 8.71875 -1.953125 C 10.34375 -1.953125 11.53125 -2.675781 12.28125 -4.125 C 13.039062 -5.570312 13.421875 -7.800781 13.421875 -10.8125 Z M 13.421875 -10.8125 "/></g></g><g transform="translate(297.798975, 557.744416)"><g><path d="M 16.234375 -10.8125 C 16.234375 -7.195312 15.597656 -4.4375 14.328125 -2.53125 C 13.054688 -0.632812 11.175781 0.3125 8.6875 0.3125 C 6.207031 0.3125 4.34375 -0.628906 3.09375 -2.515625 C 1.84375 -4.410156 1.21875 -7.175781 1.21875 -10.8125 C 1.21875 -14.519531 1.820312 -17.296875 3.03125 -19.140625 C 4.25 -20.992188 6.164062 -21.921875 8.78125 -21.921875 C 11.320312 -21.921875 13.195312 -20.984375 14.40625 -19.109375 C 15.625 -17.242188 16.234375 -14.476562 16.234375 -10.8125 Z M 13.421875 -10.8125 C 13.421875 -13.925781 13.0625 -16.179688 12.34375 -17.578125 C 11.625 -18.984375 10.4375 -19.6875 8.78125 -19.6875 C 7.082031 -19.6875 5.863281 -18.992188 5.125 -17.609375 C 4.382812 -16.234375 4.015625 -13.96875 4.015625 -10.8125 C 4.015625 -7.738281 4.390625 -5.492188 5.140625 -4.078125 C 5.890625 -2.660156 7.082031 -1.953125 8.71875 -1.953125 C 10.34375 -1.953125 11.53125 -2.675781 12.28125 -4.125 C 13.039062 -5.570312 13.421875 -7.800781 13.421875 -10.8125 Z M 13.421875 -10.8125 "/></g></g><g transform="translate(315.252776, 557.744416)"><g><path d="M 16.234375 -10.8125 C 16.234375 -7.195312 15.597656 -4.4375 14.328125 -2.53125 C 13.054688 -0.632812 11.175781 0.3125 8.6875 0.3125 C 6.207031 0.3125 4.34375 -0.628906 3.09375 -2.515625 C 1.84375 -4.410156 1.21875 -7.175781 1.21875 -10.8125 C 1.21875 -14.519531 1.820312 -17.296875 3.03125 -19.140625 C 4.25 -20.992188 6.164062 -21.921875 8.78125 -21.921875 C 11.320312 -21.921875 13.195312 -20.984375 14.40625 -19.109375 C 15.625 -17.242188 16.234375 -14.476562 16.234375 -10.8125 Z M 13.421875 -10.8125 C 13.421875 -13.925781 13.0625 -16.179688 12.34375 -17.578125 C 11.625 -18.984375 10.4375 -19.6875 8.78125 -19.6875 C 7.082031 -19.6875 5.863281 -18.992188 5.125 -17.609375 C 4.382812 -16.234375 4.015625 -13.96875 4.015625 -10.8125 C 4.015625 -7.738281 4.390625 -5.492188 5.140625 -4.078125 C 5.890625 -2.660156 7.082031 -1.953125 8.71875 -1.953125 C 10.34375 -1.953125 11.53125 -2.675781 12.28125 -4.125 C 13.039062 -5.570312 13.421875 -7.800781 13.421875 -10.8125 Z M 13.421875 -10.8125 "/></g></g></g><g fill="#000000" fill-opacity="1"><g transform="translate(244.349595, 400.8288)"><g><path d="M 2.390625 0 L 2.390625 -2.34375 L 7.890625 -2.34375 L 7.890625 -18.953125 L 3.015625 -15.484375 L 3.015625 -18.09375 L 8.125 -21.59375 L 10.671875 -21.59375 L 10.671875 -2.34375 L 15.921875 -2.34375 L 15.921875 0 Z M 2.390625 0 "/></g></g><g transform="translate(261.803396, 400.8288)"><g><path d="M 16.234375 -10.8125 C 16.234375 -7.195312 15.597656 -4.4375 14.328125 -2.53125 C 13.054688 -0.632812 11.175781 0.3125 8.6875 0.3125 C 6.207031 0.3125 4.34375 -0.628906 3.09375 -2.515625 C 1.84375 -4.410156 1.21875 -7.175781 1.21875 -10.8125 C 1.21875 -14.519531 1.820312 -17.296875 3.03125 -19.140625 C 4.25 -20.992188 6.164062 -21.921875 8.78125 -21.921875 C 11.320312 -21.921875 13.195312 -20.984375 14.40625 -19.109375 C 15.625 -17.242188 16.234375 -14.476562 16.234375 -10.8125 Z M 13.421875 -10.8125 C 13.421875 -13.925781 13.0625 -16.179688 12.34375 -17.578125 C 11.625 -18.984375 10.4375 -19.6875 8.78125 -19.6875 C 7.082031 -19.6875 5.863281 -18.992188 5.125 -17.609375 C 4.382812 -16.234375 4.015625 -13.96875 4.015625 -10.8125 C 4.015625 -7.738281 4.390625 -5.492188 5.140625 -4.078125 C 5.890625 -2.660156 7.082031 -1.953125 8.71875 -1.953125 C 10.34375 -1.953125 11.53125 -2.675781 12.28125 -4.125 C 13.039062 -5.570312 13.421875 -7.800781 13.421875 -10.8125 Z M 13.421875 -10.8125 "/></g></g><g transform="translate(279.257197, 400.8288)"><g><path d="M 16.234375 -10.8125 C 16.234375 -7.195312 15.597656 -4.4375 14.328125 -2.53125 C 13.054688 -0.632812 11.175781 0.3125 8.6875 0.3125 C 6.207031 0.3125 4.34375 -0.628906 3.09375 -2.515625 C 1.84375 -4.410156 1.21875 -7.175781 1.21875 -10.8125 C 1.21875 -14.519531 1.820312 -17.296875 3.03125 -19.140625 C 4.25 -20.992188 6.164062 -21.921875 8.78125 -21.921875 C 11.320312 -21.921875 13.195312 -20.984375 14.40625 -19.109375 C 15.625 -17.242188 16.234375 -14.476562 16.234375 -10.8125 Z M 13.421875 -10.8125 C 13.421875 -13.925781 13.0625 -16.179688 12.34375 -17.578125 C 11.625 -18.984375 10.4375 -19.6875 8.78125 -19.6875 C 7.082031 -19.6875 5.863281 -18.992188 5.125 -17.609375 C 4.382812 -16.234375 4.015625 -13.96875 4.015625 -10.8125 C 4.015625 -7.738281 4.390625 -5.492188 5.140625 -4.078125 C 5.890625 -2.660156 7.082031 -1.953125 8.71875 -1.953125 C 10.34375 -1.953125 11.53125 -2.675781 12.28125 -4.125 C 13.039062 -5.570312 13.421875 -7.800781 13.421875 -10.8125 Z M 13.421875 -10.8125 "/></g></g><g transform="translate(296.710998, 400.8288)"><g><path d="M 16.234375 -10.8125 C 16.234375 -7.195312 15.597656 -4.4375 14.328125 -2.53125 C 13.054688 -0.632812 11.175781 0.3125 8.6875 0.3125 C 6.207031 0.3125 4.34375 -0.628906 3.09375 -2.515625 C 1.84375 -4.410156 1.21875 -7.175781 1.21875 -10.8125 C 1.21875 -14.519531 1.820312 -17.296875 3.03125 -19.140625 C 4.25 -20.992188 6.164062 -21.921875 8.78125 -21.921875 C 11.320312 -21.921875 13.195312 -20.984375 14.40625 -19.109375 C 15.625 -17.242188 16.234375 -14.476562 16.234375 -10.8125 Z M 13.421875 -10.8125 C 13.421875 -13.925781 13.0625 -16.179688 12.34375 -17.578125 C 11.625 -18.984375 10.4375 -19.6875 8.78125 -19.6875 C 7.082031 -19.6875 5.863281 -18.992188 5.125 -17.609375 C 4.382812 -16.234375 4.015625 -13.96875 4.015625 -10.8125 C 4.015625 -7.738281 4.390625 -5.492188 5.140625 -4.078125 C 5.890625 -2.660156 7.082031 -1.953125 8.71875 -1.953125 C 10.34375 -1.953125 11.53125 -2.675781 12.28125 -4.125 C 13.039062 -5.570312 13.421875 -7.800781 13.421875 -10.8125 Z M 13.421875 -10.8125 "/></g></g><g transform="translate(314.164799, 400.8288)"><g><path d="M 16.234375 -10.8125 C 16.234375 -7.195312 15.597656 -4.4375 14.328125 -2.53125 C 13.054688 -0.632812 11.175781 0.3125 8.6875 0.3125 C 6.207031 0.3125 4.34375 -0.628906 3.09375 -2.515625 C 1.84375 -4.410156 1.21875 -7.175781 1.21875 -10.8125 C 1.21875 -14.519531 1.820312 -17.296875 3.03125 -19.140625 C 4.25 -20.992188 6.164062 -21.921875 8.78125 -21.921875 C 11.320312 -21.921875 13.195312 -20.984375 14.40625 -19.109375 C 15.625 -17.242188 16.234375 -14.476562 16.234375 -10.8125 Z M 13.421875 -10.8125 C 13.421875 -13.925781 13.0625 -16.179688 12.34375 -17.578125 C 11.625 -18.984375 10.4375 -19.6875 8.78125 -19.6875 C 7.082031 -19.6875 5.863281 -18.992188 5.125 -17.609375 C 4.382812 -16.234375 4.015625 -13.96875 4.015625 -10.8125 C 4.015625 -7.738281 4.390625 -5.492188 5.140625 -4.078125 C 5.890625 -2.660156 7.082031 -1.953125 8.71875 -1.953125 C 10.34375 -1.953125 11.53125 -2.675781 12.28125 -4.125 C 13.039062 -5.570312 13.421875 -7.800781 13.421875 -10.8125 Z M 13.421875 -10.8125 "/></g></g></g><g fill="#000000" fill-opacity="1"><g transform="translate(244.349595, 243.913162)"><g><path d="M 2.390625 0 L 2.390625 -2.34375 L 7.890625 -2.34375 L 7.890625 -18.953125 L 3.015625 -15.484375 L 3.015625 -18.09375 L 8.125 -21.59375 L 10.671875 -21.59375 L 10.671875 -2.34375 L 15.921875 -2.34375 L 15.921875 0 Z M 2.390625 0 "/></g></g><g transform="translate(261.803396, 243.913162)"><g><path d="M 16.140625 -7.03125 C 16.140625 -4.757812 15.460938 -2.96875 14.109375 -1.65625 C 12.753906 -0.34375 10.875 0.3125 8.46875 0.3125 C 6.457031 0.3125 4.832031 -0.125 3.59375 -1 C 2.363281 -1.882812 1.582031 -3.160156 1.25 -4.828125 L 4.046875 -5.15625 C 4.628906 -3.019531 6.125 -1.953125 8.53125 -1.953125 C 10.019531 -1.953125 11.179688 -2.394531 12.015625 -3.28125 C 12.859375 -4.175781 13.28125 -5.40625 13.28125 -6.96875 C 13.28125 -8.332031 12.859375 -9.429688 12.015625 -10.265625 C 11.171875 -11.109375 10.03125 -11.53125 8.59375 -11.53125 C 7.851562 -11.53125 7.160156 -11.410156 6.515625 -11.171875 C 5.867188 -10.941406 5.222656 -10.546875 4.578125 -9.984375 L 1.890625 -9.984375 L 2.609375 -21.59375 L 14.890625 -21.59375 L 14.890625 -19.25 L 5.125 -19.25 L 4.703125 -12.40625 C 5.898438 -13.320312 7.390625 -13.78125 9.171875 -13.78125 C 11.296875 -13.78125 12.988281 -13.15625 14.25 -11.90625 C 15.507812 -10.664062 16.140625 -9.039062 16.140625 -7.03125 Z M 16.140625 -7.03125 "/></g></g><g transform="translate(279.257197, 243.913162)"><g><path d="M 16.234375 -10.8125 C 16.234375 -7.195312 15.597656 -4.4375 14.328125 -2.53125 C 13.054688 -0.632812 11.175781 0.3125 8.6875 0.3125 C 6.207031 0.3125 4.34375 -0.628906 3.09375 -2.515625 C 1.84375 -4.410156 1.21875 -7.175781 1.21875 -10.8125 C 1.21875 -14.519531 1.820312 -17.296875 3.03125 -19.140625 C 4.25 -20.992188 6.164062 -21.921875 8.78125 -21.921875 C 11.320312 -21.921875 13.195312 -20.984375 14.40625 -19.109375 C 15.625 -17.242188 16.234375 -14.476562 16.234375 -10.8125 Z M 13.421875 -10.8125 C 13.421875 -13.925781 13.0625 -16.179688 12.34375 -17.578125 C 11.625 -18.984375 10.4375 -19.6875 8.78125 -19.6875 C 7.082031 -19.6875 5.863281 -18.992188 5.125 -17.609375 C 4.382812 -16.234375 4.015625 -13.96875 4.015625 -10.8125 C 4.015625 -7.738281 4.390625 -5.492188 5.140625 -4.078125 C 5.890625 -2.660156 7.082031 -1.953125 8.71875 -1.953125 C 10.34375 -1.953125 11.53125 -2.675781 12.28125 -4.125 C 13.039062 -5.570312 13.421875 -7.800781 13.421875 -10.8125 Z M 13.421875 -10.8125 "/></g></g><g transform="translate(296.710998, 243.913162)"><g><path d="M 16.234375 -10.8125 C 16.234375 -7.195312 15.597656 -4.4375 14.328125 -2.53125 C 13.054688 -0.632812 11.175781 0.3125 8.6875 0.3125 C 6.207031 0.3125 4.34375 -0.628906 3.09375 -2.515625 C 1.84375 -4.410156 1.21875 -7.175781 1.21875 -10.8125 C 1.21875 -14.519531 1.820312 -17.296875 3.03125 -19.140625 C 4.25 -20.992188 6.164062 -21.921875 8.78125 -21.921875 C 11.320312 -21.921875 13.195312 -20.984375 14.40625 -19.109375 C 15.625 -17.242188 16.234375 -14.476562 16.234375 -10.8125 Z M 13.421875 -10.8125 C 13.421875 -13.925781 13.0625 -16.179688 12.34375 -17.578125 C 11.625 -18.984375 10.4375 -19.6875 8.78125 -19.6875 C 7.082031 -19.6875 5.863281 -18.992188 5.125 -17.609375 C 4.382812 -16.234375 4.015625 -13.96875 4.015625 -10.8125 C 4.015625 -7.738281 4.390625 -5.492188 5.140625 -4.078125 C 5.890625 -2.660156 7.082031 -1.953125 8.71875 -1.953125 C 10.34375 -1.953125 11.53125 -2.675781 12.28125 -4.125 C 13.039062 -5.570312 13.421875 -7.800781 13.421875 -10.8125 Z M 13.421875 -10.8125 "/></g></g><g transform="translate(314.164799, 243.913162)"><g><path d="M 16.234375 -10.8125 C 16.234375 -7.195312 15.597656 -4.4375 14.328125 -2.53125 C 13.054688 -0.632812 11.175781 0.3125 8.6875 0.3125 C 6.207031 0.3125 4.34375 -0.628906 3.09375 -2.515625 C 1.84375 -4.410156 1.21875 -7.175781 1.21875 -10.8125 C 1.21875 -14.519531 1.820312 -17.296875 3.03125 -19.140625 C 4.25 -20.992188 6.164062 -21.921875 8.78125 -21.921875 C 11.320312 -21.921875 13.195312 -20.984375 14.40625 -19.109375 C 15.625 -17.242188 16.234375 -14.476562 16.234375 -10.8125 Z M 13.421875 -10.8125 C 13.421875 -13.925781 13.0625 -16.179688 12.34375 -17.578125 C 11.625 -18.984375 10.4375 -19.6875 8.78125 -19.6875 C 7.082031 -19.6875 5.863281 -18.992188 5.125 -17.609375 C 4.382812 -16.234375 4.015625 -13.96875 4.015625 -10.8125 C 4.015625 -7.738281 4.390625 -5.492188 5.140625 -4.078125 C 5.890625 -2.660156 7.082031 -1.953125 8.71875 -1.953125 C 10.34375 -1.953125 11.53125 -2.675781 12.28125 -4.125 C 13.039062 -5.570312 13.421875 -7.800781 13.421875 -10.8125 Z M 13.421875 -10.8125 "/></g></g></g><g fill="#000000" fill-opacity="1"><g transform="translate(244.349595, 86.997517)"><g><path d="M 1.578125 0 L 1.578125 -1.953125 C 2.097656 -3.140625 2.734375 -4.191406 3.484375 -5.109375 C 4.234375 -6.023438 5.019531 -6.851562 5.84375 -7.59375 C 6.675781 -8.332031 7.5 -9.019531 8.3125 -9.65625 C 9.125 -10.289062 9.859375 -10.921875 10.515625 -11.546875 C 11.171875 -12.179688 11.695312 -12.847656 12.09375 -13.546875 C 12.5 -14.242188 12.703125 -15.03125 12.703125 -15.90625 C 12.703125 -17.09375 12.351562 -18.015625 11.65625 -18.671875 C 10.96875 -19.328125 10.003906 -19.65625 8.765625 -19.65625 C 7.585938 -19.65625 6.617188 -19.332031 5.859375 -18.6875 C 5.097656 -18.050781 4.648438 -17.15625 4.515625 -16 L 1.703125 -16.265625 C 1.910156 -17.992188 2.644531 -19.367188 3.90625 -20.390625 C 5.164062 -21.410156 6.785156 -21.921875 8.765625 -21.921875 C 10.941406 -21.921875 12.613281 -21.40625 13.78125 -20.375 C 14.957031 -19.351562 15.546875 -17.894531 15.546875 -16 C 15.546875 -15.164062 15.351562 -14.332031 14.96875 -13.5 C 14.582031 -12.675781 14.007812 -11.847656 13.25 -11.015625 C 12.5 -10.191406 11.054688 -8.910156 8.921875 -7.171875 C 7.742188 -6.210938 6.804688 -5.347656 6.109375 -4.578125 C 5.421875 -3.804688 4.921875 -3.0625 4.609375 -2.34375 L 15.875 -2.34375 L 15.875 0 Z M 1.578125 0 "/></g></g><g transform="translate(261.803396, 86.997517)"><g><path d="M 16.234375 -10.8125 C 16.234375 -7.195312 15.597656 -4.4375 14.328125 -2.53125 C 13.054688 -0.632812 11.175781 0.3125 8.6875 0.3125 C 6.207031 0.3125 4.34375 -0.628906 3.09375 -2.515625 C 1.84375 -4.410156 1.21875 -7.175781 1.21875 -10.8125 C 1.21875 -14.519531 1.820312 -17.296875 3.03125 -19.140625 C 4.25 -20.992188 6.164062 -21.921875 8.78125 -21.921875 C 11.320312 -21.921875 13.195312 -20.984375 14.40625 -19.109375 C 15.625 -17.242188 16.234375 -14.476562 16.234375 -10.8125 Z M 13.421875 -10.8125 C 13.421875 -13.925781 13.0625 -16.179688 12.34375 -17.578125 C 11.625 -18.984375 10.4375 -19.6875 8.78125 -19.6875 C 7.082031 -19.6875 5.863281 -18.992188 5.125 -17.609375 C 4.382812 -16.234375 4.015625 -13.96875 4.015625 -10.8125 C 4.015625 -7.738281 4.390625 -5.492188 5.140625 -4.078125 C 5.890625 -2.660156 7.082031 -1.953125 8.71875 -1.953125 C 10.34375 -1.953125 11.53125 -2.675781 12.28125 -4.125 C 13.039062 -5.570312 13.421875 -7.800781 13.421875 -10.8125 Z M 13.421875 -10.8125 "/></g></g><g transform="translate(279.257197, 86.997517)"><g><path d="M 16.234375 -10.8125 C 16.234375 -7.195312 15.597656 -4.4375 14.328125 -2.53125 C 13.054688 -0.632812 11.175781 0.3125 8.6875 0.3125 C 6.207031 0.3125 4.34375 -0.628906 3.09375 -2.515625 C 1.84375 -4.410156 1.21875 -7.175781 1.21875 -10.8125 C 1.21875 -14.519531 1.820312 -17.296875 3.03125 -19.140625 C 4.25 -20.992188 6.164062 -21.921875 8.78125 -21.921875 C 11.320312 -21.921875 13.195312 -20.984375 14.40625 -19.109375 C 15.625 -17.242188 16.234375 -14.476562 16.234375 -10.8125 Z M 13.421875 -10.8125 C 13.421875 -13.925781 13.0625 -16.179688 12.34375 -17.578125 C 11.625 -18.984375 10.4375 -19.6875 8.78125 -19.6875 C 7.082031 -19.6875 5.863281 -18.992188 5.125 -17.609375 C 4.382812 -16.234375 4.015625 -13.96875 4.015625 -10.8125 C 4.015625 -7.738281 4.390625 -5.492188 5.140625 -4.078125 C 5.890625 -2.660156 7.082031 -1.953125 8.71875 -1.953125 C 10.34375 -1.953125 11.53125 -2.675781 12.28125 -4.125 C 13.039062 -5.570312 13.421875 -7.800781 13.421875 -10.8125 Z M 13.421875 -10.8125 "/></g></g><g transform="translate(296.710998, 86.997517)"><g><path d="M 16.234375 -10.8125 C 16.234375 -7.195312 15.597656 -4.4375 14.328125 -2.53125 C 13.054688 -0.632812 11.175781 0.3125 8.6875 0.3125 C 6.207031 0.3125 4.34375 -0.628906 3.09375 -2.515625 C 1.84375 -4.410156 1.21875 -7.175781 1.21875 -10.8125 C 1.21875 -14.519531 1.820312 -17.296875 3.03125 -19.140625 C 4.25 -20.992188 6.164062 -21.921875 8.78125 -21.921875 C 11.320312 -21.921875 13.195312 -20.984375 14.40625 -19.109375 C 15.625 -17.242188 16.234375 -14.476562 16.234375 -10.8125 Z M 13.421875 -10.8125 C 13.421875 -13.925781 13.0625 -16.179688 12.34375 -17.578125 C 11.625 -18.984375 10.4375 -19.6875 8.78125 -19.6875 C 7.082031 -19.6875 5.863281 -18.992188 5.125 -17.609375 C 4.382812 -16.234375 4.015625 -13.96875 4.015625 -10.8125 C 4.015625 -7.738281 4.390625 -5.492188 5.140625 -4.078125 C 5.890625 -2.660156 7.082031 -1.953125 8.71875 -1.953125 C 10.34375 -1.953125 11.53125 -2.675781 12.28125 -4.125 C 13.039062 -5.570312 13.421875 -7.800781 13.421875 -10.8125 Z M 13.421875 -10.8125 "/></g></g><g transform="translate(314.164799, 86.997517)"><g><path d="M 16.234375 -10.8125 C 16.234375 -7.195312 15.597656 -4.4375 14.328125 -2.53125 C 13.054688 -0.632812 11.175781 0.3125 8.6875 0.3125 C 6.207031 0.3125 4.34375 -0.628906 3.09375 -2.515625 C 1.84375 -4.410156 1.21875 -7.175781 1.21875 -10.8125 C 1.21875 -14.519531 1.820312 -17.296875 3.03125 -19.140625 C 4.25 -20.992188 6.164062 -21.921875 8.78125 -21.921875 C 11.320312 -21.921875 13.195312 -20.984375 14.40625 -19.109375 C 15.625 -17.242188 16.234375 -14.476562 16.234375 -10.8125 Z M 13.421875 -10.8125 C 13.421875 -13.925781 13.0625 -16.179688 12.34375 -17.578125 C 11.625 -18.984375 10.4375 -19.6875 8.78125 -19.6875 C 7.082031 -19.6875 5.863281 -18.992188 5.125 -17.609375 C 4.382812 -16.234375 4.015625 -13.96875 4.015625 -10.8125 C 4.015625 -7.738281 4.390625 -5.492188 5.140625 -4.078125 C 5.890625 -2.660156 7.082031 -1.953125 8.71875 -1.953125 C 10.34375 -1.953125 11.53125 -2.675781 12.28125 -4.125 C 13.039062 -5.570312 13.421875 -7.800781 13.421875 -10.8125 Z M 13.421875 -10.8125 "/></g></g></g><path stroke-linecap="butt" transform="matrix(1.961446, 0, 0, 1.961446, 357.515789, 76.209566)" fill="none" stroke-linejoin="miter" d="M -0.0000836302 319.999458 L 428.305273 319.999458 " stroke="#000000" stroke-width="1" stroke-opacity="0.6" stroke-miterlimit="4"/><path stroke-linecap="butt" transform="matrix(1.961446, 0, 0, 1.961446, 357.515789, 76.209566)" fill="none" stroke-linejoin="miter" d="M -0.0000836302 240.000266 L 428.305273 240.000266 " stroke="#000000" stroke-width="1" stroke-opacity="0.251" stroke-miterlimit="4"/><path stroke-linecap="butt" transform="matrix(1.961446, 0, 0, 1.961446, 357.515789, 76.209566)" fill="none" stroke-linejoin="miter" d="M -0.0000836302 159.999083 L 428.305273 159.999083 " stroke="#000000" stroke-width="1" stroke-opacity="0.251" stroke-miterlimit="4"/><path stroke-linecap="butt" transform="matrix(1.961446, 0, 0, 1.961446, 357.515789, 76.209566)" fill="none" stroke-linejoin="miter" d="M -0.0000836302 79.999891 L 428.305273 79.999891 " stroke="#000000" stroke-width="1" stroke-opacity="0.251" stroke-miterlimit="4"/><path stroke-linecap="butt" transform="matrix(1.961446, 0, 0, 1.961446, 357.515789, 76.209566)" fill="none" stroke-linejoin="miter" d="M -0.0000836302 0.000699348 L 428.305273 0.000699348 " stroke="#000000" stroke-width="1" stroke-opacity="0.251" stroke-miterlimit="4"/><g clip-path="url(#010b3b4716)"><path fill="#8fd29e" d="M 360.289062 201.742188 L 389.394531 201.742188 C 389.765625 201.742188 390.117188 201.8125 390.457031 201.953125 C 390.796875 202.09375 391.097656 202.292969 391.355469 202.554688 C 391.617188 202.8125 391.816406 203.113281 391.957031 203.453125 C 392.097656 203.792969 392.167969 204.148438 392.167969 204.515625 L 392.167969 703.871094 C 392.167969 704.238281 392.097656 704.59375 391.957031 704.933594 C 391.816406 705.273438 391.617188 705.574219 391.355469 705.832031 C 391.097656 706.09375 390.796875 706.292969 390.457031 706.433594 C 390.117188 706.574219 389.765625 706.644531 389.394531 706.644531 L 360.289062 706.644531 C 359.921875 706.644531 359.566406 706.574219 359.226562 706.433594 C 358.886719 706.292969 358.585938 706.09375 358.328125 705.832031 C 358.066406 705.574219 357.867188 705.273438 357.726562 704.933594 C 357.585938 704.59375 357.515625 704.238281 357.515625 703.871094 L 357.515625 204.515625 C 357.515625 204.148438 357.585938 203.792969 357.726562 203.453125 C 357.867188 203.113281 358.066406 202.8125 358.328125 202.554688 C 358.585938 202.292969 358.886719 202.09375 359.226562 201.953125 C 359.566406 201.8125 359.921875 201.742188 360.289062 201.742188 Z M 360.289062 201.742188 " fill-opacity="1" fill-rule="nonzero"/></g><g clip-path="url(#dda46e1be0)"><path fill="#e86c6c" d="M 396.765625 201.742188 L 425.875 201.742188 C 426.242188 201.742188 426.59375 201.8125 426.933594 201.953125 C 427.273438 202.09375 427.574219 202.292969 427.832031 202.554688 C 428.09375 202.8125 428.292969 203.113281 428.433594 203.453125 C 428.574219 203.792969 428.644531 204.148438 428.644531 204.515625 L 428.644531 703.871094 C 428.644531 704.238281 428.574219 704.59375 428.433594 704.933594 C 428.292969 705.273438 428.09375 705.574219 427.832031 705.832031 C 427.574219 706.09375 427.273438 706.292969 426.933594 706.433594 C 426.59375 706.574219 426.242188 706.644531 425.875 706.644531 L 396.765625 706.644531 C 396.398438 706.644531 396.042969 706.574219 395.703125 706.433594 C 395.363281 706.292969 395.0625 706.09375 394.804688 705.832031 C 394.542969 705.574219 394.34375 705.273438 394.203125 704.933594 C 394.0625 704.59375 393.992188 704.238281 393.992188 703.871094 L 393.992188 204.515625 C 393.992188 204.148438 394.0625 203.792969 394.203125 203.453125 C 394.34375 203.113281 394.542969 202.8125 394.804688 202.554688 C 395.0625 202.292969 395.363281 202.09375 395.703125 201.953125 C 396.042969 201.8125 396.398438 201.742188 396.765625 201.742188 Z M 396.765625 201.742188 " fill-opacity="1" fill-rule="nonzero"/></g><g clip-path="url(#07b318679b)"><path fill="#8fd29e" d="M 437.183594 201.742188 L 466.292969 201.742188 C 466.660156 201.742188 467.015625 201.8125 467.355469 201.953125 C 467.695312 202.09375 467.992188 202.292969 468.253906 202.554688 C 468.511719 202.8125 468.714844 203.113281 468.855469 203.453125 C 468.996094 203.792969 469.066406 204.148438 469.066406 204.515625 L 469.066406 703.871094 C 469.066406 704.238281 468.996094 704.59375 468.855469 704.933594 C 468.714844 705.273438 468.511719 705.574219 468.253906 705.832031 C 467.992188 706.09375 467.695312 706.292969 467.355469 706.433594 C 467.015625 706.574219 466.660156 706.644531 466.292969 706.644531 L 437.183594 706.644531 C 436.816406 706.644531 436.464844 706.574219 436.125 706.433594 C 435.785156 706.292969 435.484375 706.09375 435.222656 705.832031 C 434.964844 705.574219 434.765625 705.273438 434.625 704.933594 C 434.484375 704.59375 434.414062 704.238281 434.414062 703.871094 L 434.414062 204.515625 C 434.414062 204.148438 434.484375 203.792969 434.625 203.453125 C 434.765625 203.113281 434.964844 202.8125 435.222656 202.554688 C 435.484375 202.292969 435.785156 202.09375 436.125 201.953125 C 436.464844 201.8125 436.816406 201.742188 437.183594 201.742188 Z M 437.183594 201.742188 " fill-opacity="1" fill-rule="nonzero"/></g><g clip-path="url(#a9ad12e20c)"><path fill="#e86c6c" d="M 473.660156 201.742188 L 502.769531 201.742188 C 503.136719 201.742188 503.492188 201.8125 503.832031 201.953125 C 504.171875 202.09375 504.46875 202.292969 504.730469 202.554688 C 504.988281 202.8125 505.191406 203.113281 505.332031 203.453125 C 505.472656 203.792969 505.542969 204.148438 505.542969 204.515625 L 505.542969 703.871094 C 505.542969 704.238281 505.472656 704.59375 505.332031 704.933594 C 505.191406 705.273438 504.988281 705.574219 504.730469 705.832031 C 504.46875 706.09375 504.171875 706.292969 503.832031 706.433594 C 503.492188 706.574219 503.136719 706.644531 502.769531 706.644531 L 473.660156 706.644531 C 473.292969 706.644531 472.941406 706.574219 472.601562 706.433594 C 472.261719 706.292969 471.960938 706.09375 471.703125 705.832031 C 471.441406 705.574219 471.242188 705.273438 471.101562 704.933594 C 470.960938 704.59375 470.890625 704.238281 470.890625 703.871094 L 470.890625 204.515625 C 470.890625 204.148438 470.960938 203.792969 471.101562 203.453125 C 471.242188 203.113281 471.441406 202.8125 471.703125 202.554688 C 471.960938 202.292969 472.261719 202.09375 472.601562 201.953125 C 472.941406 201.8125 473.292969 201.742188 473.660156 201.742188 Z M 473.660156 201.742188 " fill-opacity="1" fill-rule="nonzero"/></g><g clip-path="url(#740fde608a)"><path fill="#8fd29e" d="M 514.082031 208.019531 L 543.191406 208.019531 C 543.558594 208.019531 543.910156 208.089844 544.25 208.230469 C 544.589844 208.371094 544.890625 208.570312 545.148438 208.832031 C 545.410156 209.089844 545.609375 209.390625 545.75 209.730469 C 545.890625 210.070312 545.960938 210.421875 545.960938 210.789062 L 545.960938 703.871094 C 545.960938 704.238281 545.890625 704.59375 545.75 704.933594 C 545.609375 705.273438 545.410156 705.574219 545.148438 705.832031 C 544.890625 706.09375 544.589844 706.292969 544.25 706.433594 C 543.910156 706.574219 543.558594 706.644531 543.191406 706.644531 L 514.082031 706.644531 C 513.714844 706.644531 513.359375 706.574219 513.019531 706.433594 C 512.679688 706.292969 512.382812 706.09375 512.121094 705.832031 C 511.859375 705.574219 511.660156 705.273438 511.519531 704.933594 C 511.378906 704.59375 511.308594 704.238281 511.308594 703.871094 L 511.308594 210.789062 C 511.308594 210.421875 511.378906 210.070312 511.519531 209.730469 C 511.660156 209.390625 511.859375 209.089844 512.121094 208.832031 C 512.382812 208.570312 512.679688 208.371094 513.019531 208.230469 C 513.359375 208.089844 513.714844 208.019531 514.082031 208.019531 Z M 514.082031 208.019531 " fill-opacity="1" fill-rule="nonzero"/></g><g clip-path="url(#3a5415a2f0)"><path fill="#e86c6c" d="M 550.558594 214.296875 L 579.667969 214.296875 C 580.035156 214.296875 580.386719 214.367188 580.726562 214.507812 C 581.066406 214.648438 581.367188 214.847656 581.625 215.105469 C 581.886719 215.367188 582.085938 215.667969 582.226562 216.007812 C 582.367188 216.347656 582.4375 216.699219 582.4375 217.066406 L 582.4375 703.871094 C 582.4375 704.238281 582.367188 704.59375 582.226562 704.933594 C 582.085938 705.273438 581.886719 705.574219 581.625 705.832031 C 581.367188 706.09375 581.066406 706.292969 580.726562 706.433594 C 580.386719 706.574219 580.035156 706.644531 579.667969 706.644531 L 550.558594 706.644531 C 550.191406 706.644531 549.835938 706.574219 549.496094 706.433594 C 549.15625 706.292969 548.859375 706.09375 548.597656 705.832031 C 548.339844 705.574219 548.136719 705.273438 547.996094 704.933594 C 547.855469 704.59375 547.785156 704.238281 547.785156 703.871094 L 547.785156 217.066406 C 547.785156 216.699219 547.855469 216.347656 547.996094 216.007812 C 548.136719 215.667969 548.339844 215.367188 548.597656 215.105469 C 548.859375 214.847656 549.15625 214.648438 549.496094 214.507812 C 549.835938 214.367188 550.191406 214.296875 550.558594 214.296875 Z M 550.558594 214.296875 " fill-opacity="1" fill-rule="nonzero"/></g><g clip-path="url(#6403abdce1)"><path fill="#8fd29e" d="M 590.976562 186.050781 L 620.085938 186.050781 C 620.453125 186.050781 620.808594 186.121094 621.148438 186.261719 C 621.488281 186.402344 621.785156 186.601562 622.046875 186.863281 C 622.308594 187.121094 622.507812 187.421875 622.648438 187.761719 C 622.789062 188.101562 622.859375 188.457031 622.859375 188.824219 L 622.859375 703.871094 C 622.859375 704.238281 622.789062 704.59375 622.648438 704.933594 C 622.507812 705.273438 622.308594 705.574219 622.046875 705.832031 C 621.785156 706.09375 621.488281 706.292969 621.148438 706.433594 C 620.808594 706.574219 620.453125 706.644531 620.085938 706.644531 L 590.976562 706.644531 C 590.609375 706.644531 590.257812 706.574219 589.917969 706.433594 C 589.578125 706.292969 589.277344 706.09375 589.019531 705.832031 C 588.757812 705.574219 588.558594 705.273438 588.417969 704.933594 C 588.277344 704.59375 588.207031 704.238281 588.207031 703.871094 L 588.207031 188.824219 C 588.207031 188.457031 588.277344 188.101562 588.417969 187.761719 C 588.558594 187.421875 588.757812 187.121094 589.019531 186.863281 C 589.277344 186.601562 589.578125 186.402344 589.917969 186.261719 C 590.257812 186.121094 590.609375 186.050781 590.976562 186.050781 Z M 590.976562 186.050781 " fill-opacity="1" fill-rule="nonzero"/></g><g clip-path="url(#c7f409e0e6)"><path fill="#e86c6c" d="M 627.453125 186.050781 L 656.5625 186.050781 C 656.929688 186.050781 657.285156 186.121094 657.625 186.261719 C 657.964844 186.402344 658.265625 186.601562 658.523438 186.863281 C 658.785156 187.121094 658.984375 187.421875 659.125 187.761719 C 659.265625 188.101562 659.335938 188.457031 659.335938 188.824219 L 659.335938 703.871094 C 659.335938 704.238281 659.265625 704.59375 659.125 704.933594 C 658.984375 705.273438 658.785156 705.574219 658.523438 705.832031 C 658.265625 706.09375 657.964844 706.292969 657.625 706.433594 C 657.285156 706.574219 656.929688 706.644531 656.5625 706.644531 L 627.453125 706.644531 C 627.085938 706.644531 626.734375 706.574219 626.394531 706.433594 C 626.054688 706.292969 625.753906 706.09375 625.496094 705.832031 C 625.234375 705.574219 625.035156 705.273438 624.894531 704.933594 C 624.753906 704.59375 624.683594 704.238281 624.683594 703.871094 L 624.683594 188.824219 C 624.683594 188.457031 624.753906 188.101562 624.894531 187.761719 C 625.035156 187.421875 625.234375 187.121094 625.496094 186.863281 C 625.753906 186.601562 626.054688 186.402344 626.394531 186.261719 C 626.734375 186.121094 627.085938 186.050781 627.453125 186.050781 Z M 627.453125 186.050781 " fill-opacity="1" fill-rule="nonzero"/></g><g clip-path="url(#60244cd4be)"><path fill="#8fd29e" d="M 667.875 186.050781 L 696.984375 186.050781 C 697.351562 186.050781 697.703125 186.121094 698.042969 186.261719 C 698.382812 186.402344 698.683594 186.601562 698.945312 186.863281 C 699.203125 187.121094 699.402344 187.421875 699.542969 187.761719 C 699.683594 188.101562 699.753906 188.457031 699.753906 188.824219 L 699.753906 703.871094 C 699.753906 704.238281 699.683594 704.59375 699.542969 704.933594 C 699.402344 705.273438 699.203125 705.574219 698.945312 705.832031 C 698.683594 706.09375 698.382812 706.292969 698.042969 706.433594 C 697.703125 706.574219 697.351562 706.644531 696.984375 706.644531 L 667.875 706.644531 C 667.507812 706.644531 667.152344 706.574219 666.8125 706.433594 C 666.472656 706.292969 666.175781 706.09375 665.914062 705.832031 C 665.65625 705.574219 665.453125 705.273438 665.3125 704.933594 C 665.171875 704.59375 665.101562 704.238281 665.101562 703.871094 L 665.101562 188.824219 C 665.101562 188.457031 665.171875 188.101562 665.3125 187.761719 C 665.453125 187.421875 665.65625 187.121094 665.914062 186.863281 C 666.175781 186.601562 666.472656 186.402344 666.8125 186.261719 C 667.152344 186.121094 667.507812 186.050781 667.875 186.050781 Z M 667.875 186.050781 " fill-opacity="1" fill-rule="nonzero"/></g><g clip-path="url(#50a94aad12)"><path fill="#e86c6c" d="M 704.351562 186.050781 L 733.460938 186.050781 C 733.828125 186.050781 734.179688 186.121094 734.519531 186.261719 C 734.859375 186.402344 735.160156 186.601562 735.421875 186.863281 C 735.679688 187.121094 735.878906 187.421875 736.019531 187.761719 C 736.160156 188.101562 736.230469 188.457031 736.230469 188.824219 L 736.230469 703.871094 C 736.230469 704.238281 736.160156 704.59375 736.019531 704.933594 C 735.878906 705.273438 735.679688 705.574219 735.421875 705.832031 C 735.160156 706.09375 734.859375 706.292969 734.519531 706.433594 C 734.179688 706.574219 733.828125 706.644531 733.460938 706.644531 L 704.351562 706.644531 C 703.984375 706.644531 703.628906 706.574219 703.289062 706.433594 C 702.953125 706.292969 702.652344 706.09375 702.390625 705.832031 C 702.132812 705.574219 701.929688 705.273438 701.789062 704.933594 C 701.648438 704.59375 701.578125 704.238281 701.578125 703.871094 L 701.578125 188.824219 C 701.578125 188.457031 701.648438 188.101562 701.789062 187.761719 C 701.929688 187.421875 702.132812 187.121094 702.390625 186.863281 C 702.652344 186.601562 702.953125 186.402344 703.289062 186.261719 C 703.628906 186.121094 703.984375 186.050781 704.351562 186.050781 Z M 704.351562 186.050781 " fill-opacity="1" fill-rule="nonzero"/></g><g clip-path="url(#6d814550c3)"><path fill="#8fd29e" d="M 744.773438 138.976562 L 773.878906 138.976562 C 774.246094 138.976562 774.601562 139.046875 774.941406 139.1875 C 775.28125 139.328125 775.582031 139.527344 775.839844 139.789062 C 776.101562 140.046875 776.300781 140.347656 776.441406 140.6875 C 776.582031 141.027344 776.652344 141.378906 776.652344 141.75 L 776.652344 703.871094 C 776.652344 704.238281 776.582031 704.59375 776.441406 704.933594 C 776.300781 705.273438 776.101562 705.574219 775.839844 705.832031 C 775.582031 706.09375 775.28125 706.292969 774.941406 706.433594 C 774.601562 706.574219 774.246094 706.644531 773.878906 706.644531 L 744.773438 706.644531 C 744.402344 706.644531 744.050781 706.574219 743.710938 706.433594 C 743.371094 706.292969 743.070312 706.09375 742.8125 705.832031 C 742.550781 705.574219 742.351562 705.273438 742.210938 704.933594 C 742.070312 704.59375 742 704.238281 742 703.871094 L 742 141.75 C 742 141.378906 742.070312 141.027344 742.210938 140.6875 C 742.351562 140.347656 742.550781 140.046875 742.8125 139.789062 C 743.070312 139.527344 743.371094 139.328125 743.710938 139.1875 C 744.050781 139.046875 744.402344 138.976562 744.773438 138.976562 Z M 744.773438 138.976562 " fill-opacity="1" fill-rule="nonzero"/></g><g clip-path="url(#62c0e96940)"><path fill="#e86c6c" d="M 781.25 138.976562 L 810.355469 138.976562 C 810.722656 138.976562 811.078125 139.046875 811.417969 139.1875 C 811.757812 139.328125 812.058594 139.527344 812.316406 139.789062 C 812.578125 140.046875 812.777344 140.347656 812.917969 140.6875 C 813.058594 141.027344 813.128906 141.378906 813.128906 141.75 L 813.128906 703.871094 C 813.128906 704.238281 813.058594 704.59375 812.917969 704.933594 C 812.777344 705.273438 812.578125 705.574219 812.316406 705.832031 C 812.058594 706.09375 811.757812 706.292969 811.417969 706.433594 C 811.078125 706.574219 810.722656 706.644531 810.355469 706.644531 L 781.25 706.644531 C 780.882812 706.644531 780.527344 706.574219 780.1875 706.433594 C 779.847656 706.292969 779.546875 706.09375 779.289062 705.832031 C 779.027344 705.574219 778.828125 705.273438 778.6875 704.933594 C 778.546875 704.59375 778.476562 704.238281 778.476562 703.871094 L 778.476562 141.75 C 778.476562 141.378906 778.546875 141.027344 778.6875 140.6875 C 778.828125 140.347656 779.027344 140.046875 779.289062 139.789062 C 779.546875 139.527344 779.847656 139.328125 780.1875 139.1875 C 780.527344 139.046875 780.882812 138.976562 781.25 138.976562 Z M 781.25 138.976562 " fill-opacity="1" fill-rule="nonzero"/></g><g clip-path="url(#1d6c62e6df)"><path fill="#8fd29e" d="M 821.667969 138.976562 L 850.777344 138.976562 C 851.144531 138.976562 851.5 139.046875 851.835938 139.1875 C 852.175781 139.328125 852.476562 139.527344 852.738281 139.789062 C 852.996094 140.046875 853.199219 140.347656 853.339844 140.6875 C 853.480469 141.027344 853.550781 141.378906 853.550781 141.75 L 853.550781 703.871094 C 853.550781 704.238281 853.480469 704.59375 853.339844 704.933594 C 853.199219 705.273438 852.996094 705.574219 852.738281 705.832031 C 852.476562 706.09375 852.175781 706.292969 851.835938 706.433594 C 851.5 706.574219 851.144531 706.644531 850.777344 706.644531 L 821.667969 706.644531 C 821.300781 706.644531 820.949219 706.574219 820.609375 706.433594 C 820.269531 706.292969 819.96875 706.09375 819.707031 705.832031 C 819.449219 705.574219 819.246094 705.273438 819.105469 704.933594 C 818.964844 704.59375 818.894531 704.238281 818.894531 703.871094 L 818.894531 141.75 C 818.894531 141.378906 818.964844 141.027344 819.105469 140.6875 C 819.246094 140.347656 819.449219 140.046875 819.707031 139.789062 C 819.96875 139.527344 820.269531 139.328125 820.609375 139.1875 C 820.949219 139.046875 821.300781 138.976562 821.667969 138.976562 Z M 821.667969 138.976562 " fill-opacity="1" fill-rule="nonzero"/></g><g clip-path="url(#8d718d049c)"><path fill="#e86c6c" d="M 858.144531 138.976562 L 887.253906 138.976562 C 887.621094 138.976562 887.976562 139.046875 888.316406 139.1875 C 888.652344 139.328125 888.953125 139.527344 889.214844 139.789062 C 889.472656 140.046875 889.675781 140.347656 889.816406 140.6875 C 889.957031 141.027344 890.027344 141.378906 890.027344 141.75 L 890.027344 703.871094 C 890.027344 704.238281 889.957031 704.59375 889.816406 704.933594 C 889.675781 705.273438 889.472656 705.574219 889.214844 705.832031 C 888.953125 706.09375 888.652344 706.292969 888.316406 706.433594 C 887.976562 706.574219 887.621094 706.644531 887.253906 706.644531 L 858.144531 706.644531 C 857.777344 706.644531 857.425781 706.574219 857.085938 706.433594 C 856.746094 706.292969 856.445312 706.09375 856.183594 705.832031 C 855.925781 705.574219 855.726562 705.273438 855.585938 704.933594 C 855.441406 704.59375 855.371094 704.238281 855.371094 703.871094 L 855.371094 141.75 C 855.371094 141.378906 855.441406 141.027344 855.585938 140.6875 C 855.726562 140.347656 855.925781 140.046875 856.183594 139.789062 C 856.445312 139.527344 856.746094 139.328125 857.085938 139.1875 C 857.425781 139.046875 857.777344 138.976562 858.144531 138.976562 Z M 858.144531 138.976562 " fill-opacity="1" fill-rule="nonzero"/></g><g clip-path="url(#0b7a5f8a70)"><path fill="#8fd29e" d="M 898.566406 138.976562 L 927.671875 138.976562 C 928.042969 138.976562 928.394531 139.046875 928.734375 139.1875 C 929.074219 139.328125 929.375 139.527344 929.632812 139.789062 C 929.894531 140.046875 930.09375 140.347656 930.234375 140.6875 C 930.375 141.027344 930.445312 141.378906 930.445312 141.75 L 930.445312 703.871094 C 930.445312 704.238281 930.375 704.59375 930.234375 704.933594 C 930.09375 705.273438 929.894531 705.574219 929.632812 705.832031 C 929.375 706.09375 929.074219 706.292969 928.734375 706.433594 C 928.394531 706.574219 928.042969 706.644531 927.671875 706.644531 L 898.566406 706.644531 C 898.199219 706.644531 897.84375 706.574219 897.503906 706.433594 C 897.164062 706.292969 896.863281 706.09375 896.605469 705.832031 C 896.34375 705.574219 896.144531 705.273438 896.003906 704.933594 C 895.863281 704.59375 895.792969 704.238281 895.792969 703.871094 L 895.792969 141.75 C 895.792969 141.378906 895.863281 141.027344 896.003906 140.6875 C 896.144531 140.347656 896.34375 140.046875 896.605469 139.789062 C 896.863281 139.527344 897.164062 139.328125 897.503906 139.1875 C 897.84375 139.046875 898.199219 138.976562 898.566406 138.976562 Z M 898.566406 138.976562 " fill-opacity="1" fill-rule="nonzero"/></g><g clip-path="url(#8f62a2af2f)"><path fill="#e86c6c" d="M 935.042969 214.296875 L 964.152344 214.296875 C 964.519531 214.296875 964.871094 214.367188 965.210938 214.507812 C 965.550781 214.648438 965.851562 214.847656 966.109375 215.105469 C 966.371094 215.367188 966.570312 215.667969 966.710938 216.007812 C 966.851562 216.347656 966.921875 216.699219 966.921875 217.066406 L 966.921875 703.871094 C 966.921875 704.238281 966.851562 704.59375 966.710938 704.933594 C 966.570312 705.273438 966.371094 705.574219 966.109375 705.832031 C 965.851562 706.09375 965.550781 706.292969 965.210938 706.433594 C 964.871094 706.574219 964.519531 706.644531 964.152344 706.644531 L 935.042969 706.644531 C 934.675781 706.644531 934.320312 706.574219 933.980469 706.433594 C 933.640625 706.292969 933.339844 706.09375 933.082031 705.832031 C 932.820312 705.574219 932.621094 705.273438 932.480469 704.933594 C 932.339844 704.59375 932.269531 704.238281 932.269531 703.871094 L 932.269531 217.066406 C 932.269531 216.699219 932.339844 216.347656 932.480469 216.007812 C 932.621094 215.667969 932.820312 215.367188 933.082031 215.105469 C 933.339844 214.847656 933.640625 214.648438 933.980469 214.507812 C 934.320312 214.367188 934.675781 214.296875 935.042969 214.296875 Z M 935.042969 214.296875 " fill-opacity="1" fill-rule="nonzero"/></g><g clip-path="url(#cdf024cfbc)"><path fill="#8fd29e" d="M 975.460938 214.296875 L 1004.570312 214.296875 C 1004.9375 214.296875 1005.292969 214.367188 1005.632812 214.507812 C 1005.972656 214.648438 1006.269531 214.847656 1006.53125 215.105469 C 1006.789062 215.367188 1006.992188 215.667969 1007.132812 216.007812 C 1007.273438 216.347656 1007.34375 216.699219 1007.34375 217.066406 L 1007.34375 703.871094 C 1007.34375 704.238281 1007.273438 704.59375 1007.132812 704.933594 C 1006.992188 705.273438 1006.789062 705.574219 1006.53125 705.832031 C 1006.269531 706.09375 1005.972656 706.292969 1005.632812 706.433594 C 1005.292969 706.574219 1004.9375 706.644531 1004.570312 706.644531 L 975.460938 706.644531 C 975.09375 706.644531 974.742188 706.574219 974.402344 706.433594 C 974.0625 706.292969 973.761719 706.09375 973.5 705.832031 C 973.242188 705.574219 973.042969 705.273438 972.902344 704.933594 C 972.761719 704.59375 972.691406 704.238281 972.691406 703.871094 L 972.691406 217.066406 C 972.691406 216.699219 972.761719 216.347656 972.902344 216.007812 C 973.042969 215.667969 973.242188 215.367188 973.5 215.105469 C 973.761719 214.847656 974.0625 214.648438 974.402344 214.507812 C 974.742188 214.367188 975.09375 214.296875 975.460938 214.296875 Z M 975.460938 214.296875 " fill-opacity="1" fill-rule="nonzero"/></g><g clip-path="url(#aba193c483)"><path fill="#e86c6c" d="M 1011.9375 214.296875 L 1041.046875 214.296875 C 1041.414062 214.296875 1041.769531 214.367188 1042.109375 214.507812 C 1042.449219 214.648438 1042.746094 214.847656 1043.007812 215.105469 C 1043.265625 215.367188 1043.46875 215.667969 1043.609375 216.007812 C 1043.75 216.347656 1043.820312 216.699219 1043.820312 217.066406 L 1043.820312 703.871094 C 1043.820312 704.238281 1043.75 704.59375 1043.609375 704.933594 C 1043.46875 705.273438 1043.265625 705.574219 1043.007812 705.832031 C 1042.746094 706.09375 1042.449219 706.292969 1042.109375 706.433594 C 1041.769531 706.574219 1041.414062 706.644531 1041.046875 706.644531 L 1011.9375 706.644531 C 1011.570312 706.644531 1011.21875 706.574219 1010.878906 706.433594 C 1010.539062 706.292969 1010.238281 706.09375 1009.976562 705.832031 C 1009.71875 705.574219 1009.519531 705.273438 1009.378906 704.933594 C 1009.238281 704.59375 1009.167969 704.238281 1009.167969 703.871094 L 1009.167969 217.066406 C 1009.167969 216.699219 1009.238281 216.347656 1009.378906 216.007812 C 1009.519531 215.667969 1009.71875 215.367188 1009.976562 215.105469 C 1010.238281 214.847656 1010.539062 214.648438 1010.878906 214.507812 C 1011.21875 214.367188 1011.570312 214.296875 1011.9375 214.296875 Z M 1011.9375 214.296875 " fill-opacity="1" fill-rule="nonzero"/></g><g clip-path="url(#c7c720ca25)"><path fill="#8fd29e" d="M 1052.359375 214.296875 L 1081.46875 214.296875 C 1081.835938 214.296875 1082.1875 214.367188 1082.527344 214.507812 C 1082.867188 214.648438 1083.167969 214.847656 1083.425781 215.105469 C 1083.6875 215.367188 1083.886719 215.667969 1084.027344 216.007812 C 1084.167969 216.347656 1084.238281 216.699219 1084.238281 217.066406 L 1084.238281 703.871094 C 1084.238281 704.238281 1084.167969 704.59375 1084.027344 704.933594 C 1083.886719 705.273438 1083.6875 705.574219 1083.425781 705.832031 C 1083.167969 706.09375 1082.867188 706.292969 1082.527344 706.433594 C 1082.1875 706.574219 1081.835938 706.644531 1081.46875 706.644531 L 1052.359375 706.644531 C 1051.992188 706.644531 1051.636719 706.574219 1051.296875 706.433594 C 1050.957031 706.292969 1050.660156 706.09375 1050.398438 705.832031 C 1050.136719 705.574219 1049.9375 705.273438 1049.796875 704.933594 C 1049.65625 704.59375 1049.585938 704.238281 1049.585938 703.871094 L 1049.585938 217.066406 C 1049.585938 216.699219 1049.65625 216.347656 1049.796875 216.007812 C 1049.9375 215.667969 1050.136719 215.367188 1050.398438 215.105469 C 1050.660156 214.847656 1050.957031 214.648438 1051.296875 214.507812 C 1051.636719 214.367188 1051.992188 214.296875 1052.359375 214.296875 Z M 1052.359375 214.296875 " fill-opacity="1" fill-rule="nonzero"/></g><g clip-path="url(#0fd10aea96)"><path fill="#e86c6c" d="M 1088.835938 214.296875 L 1117.945312 214.296875 C 1118.3125 214.296875 1118.664062 214.367188 1119.003906 214.507812 C 1119.34375 214.648438 1119.644531 214.847656 1119.902344 215.105469 C 1120.164062 215.367188 1120.363281 215.667969 1120.503906 216.007812 C 1120.644531 216.347656 1120.714844 216.699219 1120.714844 217.066406 L 1120.714844 703.871094 C 1120.714844 704.238281 1120.644531 704.59375 1120.503906 704.933594 C 1120.363281 705.273438 1120.164062 705.574219 1119.902344 705.832031 C 1119.644531 706.09375 1119.34375 706.292969 1119.003906 706.433594 C 1118.664062 706.574219 1118.3125 706.644531 1117.945312 706.644531 L 1088.835938 706.644531 C 1088.46875 706.644531 1088.113281 706.574219 1087.773438 706.433594 C 1087.433594 706.292969 1087.136719 706.09375 1086.875 705.832031 C 1086.617188 705.574219 1086.414062 705.273438 1086.273438 704.933594 C 1086.132812 704.59375 1086.0625 704.238281 1086.0625 703.871094 L 1086.0625 217.066406 C 1086.0625 216.699219 1086.132812 216.347656 1086.273438 216.007812 C 1086.414062 215.667969 1086.617188 215.367188 1086.875 215.105469 C 1087.136719 214.847656 1087.433594 214.648438 1087.773438 214.507812 C 1088.113281 214.367188 1088.46875 214.296875 1088.835938 214.296875 Z M 1088.835938 214.296875 " fill-opacity="1" fill-rule="nonzero"/></g><g clip-path="url(#a249483ab5)"><path fill="#8fd29e" d="M 1129.253906 201.742188 L 1158.363281 201.742188 C 1158.730469 201.742188 1159.085938 201.8125 1159.425781 201.953125 C 1159.765625 202.09375 1160.0625 202.292969 1160.324219 202.554688 C 1160.585938 202.8125 1160.785156 203.113281 1160.925781 203.453125 C 1161.066406 203.792969 1161.136719 204.148438 1161.136719 204.515625 L 1161.136719 703.871094 C 1161.136719 704.238281 1161.066406 704.59375 1160.925781 704.933594 C 1160.785156 705.273438 1160.585938 705.574219 1160.324219 705.832031 C 1160.0625 706.09375 1159.765625 706.292969 1159.425781 706.433594 C 1159.085938 706.574219 1158.730469 706.644531 1158.363281 706.644531 L 1129.253906 706.644531 C 1128.886719 706.644531 1128.535156 706.574219 1128.195312 706.433594 C 1127.855469 706.292969 1127.554688 706.09375 1127.296875 705.832031 C 1127.035156 705.574219 1126.835938 705.273438 1126.695312 704.933594 C 1126.554688 704.59375 1126.484375 704.238281 1126.484375 703.871094 L 1126.484375 204.515625 C 1126.484375 204.148438 1126.554688 203.792969 1126.695312 203.453125 C 1126.835938 203.113281 1127.035156 202.8125 1127.296875 202.554688 C 1127.554688 202.292969 1127.855469 202.09375 1128.195312 201.953125 C 1128.535156 201.8125 1128.886719 201.742188 1129.253906 201.742188 Z M 1129.253906 201.742188 " fill-opacity="1" fill-rule="nonzero"/></g><g clip-path="url(#9acca08cce)"><path fill="#e86c6c" d="M 1165.730469 214.296875 L 1194.839844 214.296875 C 1195.207031 214.296875 1195.5625 214.367188 1195.902344 214.507812 C 1196.242188 214.648438 1196.542969 214.847656 1196.800781 215.105469 C 1197.0625 215.367188 1197.261719 215.667969 1197.402344 216.007812 C 1197.542969 216.347656 1197.613281 216.699219 1197.613281 217.066406 L 1197.613281 703.871094 C 1197.613281 704.238281 1197.542969 704.59375 1197.402344 704.933594 C 1197.261719 705.273438 1197.0625 705.574219 1196.800781 705.832031 C 1196.539062 706.09375 1196.242188 706.292969 1195.902344 706.433594 C 1195.5625 706.574219 1195.207031 706.644531 1194.839844 706.644531 L 1165.730469 706.644531 C 1165.363281 706.644531 1165.011719 706.574219 1164.671875 706.433594 C 1164.332031 706.292969 1164.03125 706.09375 1163.773438 705.832031 C 1163.511719 705.574219 1163.3125 705.273438 1163.171875 704.933594 C 1163.03125 704.59375 1162.960938 704.238281 1162.960938 703.871094 L 1162.960938 217.066406 C 1162.960938 216.699219 1163.03125 216.347656 1163.171875 216.007812 C 1163.3125 215.667969 1163.511719 215.367188 1163.773438 215.105469 C 1164.03125 214.847656 1164.332031 214.648438 1164.671875 214.507812 C 1165.011719 214.367188 1165.363281 214.296875 1165.730469 214.296875 Z M 1165.730469 214.296875 " fill-opacity="1" fill-rule="nonzero"/></g></svg>