<svg xmlns="http://www.w3.org/2000/svg" xmlns:xlink="http://www.w3.org/1999/xlink" width="1920" zoomAndPan="magnify" viewBox="0 0 1440 809.999993" height="1080" preserveAspectRatio="xMidYMid meet" version="1.0"><defs><g/><clipPath id="80c6cfa53f"><path d="M 347.765625 421.425781 L 382.417969 421.425781 L 382.417969 703.871094 L 347.765625 703.871094 Z M 347.765625 421.425781 " clip-rule="nonzero"/></clipPath><clipPath id="3590b5f9c1"><path d="M 384.242188 390.039062 L 418.894531 390.039062 L 418.894531 703.871094 L 384.242188 703.871094 Z M 384.242188 390.039062 " clip-rule="nonzero"/></clipPath><clipPath id="ff5700eeb9"><path d="M 424.664062 390.039062 L 459.316406 390.039062 L 459.316406 703.871094 L 424.664062 703.871094 Z M 424.664062 390.039062 " clip-rule="nonzero"/></clipPath><clipPath id="9e4295d682"><path d="M 461.140625 390.039062 L 495.792969 390.039062 L 495.792969 703.871094 L 461.140625 703.871094 Z M 461.140625 390.039062 " clip-rule="nonzero"/></clipPath><clipPath id="e6753ec615"><path d="M 501.558594 327.273438 L 536.210938 327.273438 L 536.210938 703.871094 L 501.558594 703.871094 Z M 501.558594 327.273438 " clip-rule="nonzero"/></clipPath><clipPath id="570f84ae35"><path d="M 538.035156 421.425781 L 572.6875 421.425781 L 572.6875 703.871094 L 538.035156 703.871094 Z M 538.035156 421.425781 " clip-rule="nonzero"/></clipPath><clipPath id="e9f95575da"><path d="M 578.457031 484.191406 L 613.109375 484.191406 L 613.109375 703.871094 L 578.457031 703.871094 Z M 578.457031 484.191406 " clip-rule="nonzero"/></clipPath><clipPath id="e9b21ce236"><path d="M 614.933594 421.425781 L 649.585938 421.425781 L 649.585938 703.871094 L 614.933594 703.871094 Z M 614.933594 421.425781 " clip-rule="nonzero"/></clipPath><clipPath id="18e6fdc385"><path d="M 655.351562 452.808594 L 690.003906 452.808594 L 690.003906 703.871094 L 655.351562 703.871094 Z M 655.351562 452.808594 " clip-rule="nonzero"/></clipPath><clipPath id="31b36ec65e"><path d="M 691.828125 390.039062 L 726.484375 390.039062 L 726.484375 703.871094 L 691.828125 703.871094 Z M 691.828125 390.039062 " clip-rule="nonzero"/></clipPath><clipPath id="8a840fddc9"><path d="M 732.25 390.039062 L 766.902344 390.039062 L 766.902344 703.871094 L 732.25 703.871094 Z M 732.25 390.039062 " clip-rule="nonzero"/></clipPath><clipPath id="55a39dee64"><path d="M 768.726562 233.125 L 803.378906 233.125 L 803.378906 703.871094 L 768.726562 703.871094 Z M 768.726562 233.125 " clip-rule="nonzero"/></clipPath><clipPath id="befc69334d"><path d="M 809.144531 208.019531 L 843.800781 208.019531 L 843.800781 703.871094 L 809.144531 703.871094 Z M 809.144531 208.019531 " clip-rule="nonzero"/></clipPath><clipPath id="ad497e8f29"><path d="M 845.625 201.742188 L 880.277344 201.742188 L 880.277344 703.871094 L 845.625 703.871094 Z M 845.625 201.742188 " clip-rule="nonzero"/></clipPath><clipPath id="468aa6777e"><path d="M 886.042969 415.148438 L 920.695312 415.148438 L 920.695312 703.871094 L 886.042969 703.871094 Z M 886.042969 415.148438 " clip-rule="nonzero"/></clipPath><clipPath id="5d9ec5a7fb"><path d="M 922.519531 452.808594 L 957.171875 452.808594 L 957.171875 703.871094 L 922.519531 703.871094 Z M 922.519531 452.808594 " clip-rule="nonzero"/></clipPath><clipPath id="cfa330c2ec"><path d="M 962.941406 484.191406 L 997.59375 484.191406 L 997.59375 703.871094 L 962.941406 703.871094 Z M 962.941406 484.191406 " clip-rule="nonzero"/></clipPath><clipPath id="a2817455a7"><path d="M 999.417969 578.339844 L 1034.070312 578.339844 L 1034.070312 703.871094 L 999.417969 703.871094 Z M 999.417969 578.339844 " clip-rule="nonzero"/></clipPath><clipPath id="d2f6692108"><path d="M 1039.835938 584.617188 L 1074.488281 584.617188 L 1074.488281 703.871094 L 1039.835938 703.871094 Z M 1039.835938 584.617188 " clip-rule="nonzero"/></clipPath><clipPath id="6d89ae056d"><path d="M 1076.3125 578.339844 L 1110.964844 578.339844 L 1110.964844 703.871094 L 1076.3125 703.871094 Z M 1076.3125 578.339844 " clip-rule="nonzero"/></clipPath><clipPath id="a07fc463dd"><path d="M 1116.734375 214.296875 L 1151.386719 214.296875 L 1151.386719 703.871094 L 1116.734375 703.871094 Z M 1116.734375 214.296875 " clip-rule="nonzero"/></clipPath><clipPath id="dffcaf4014"><path d="M 1153.210938 138.976562 L 1187.863281 138.976562 L 1187.863281 703.871094 L 1153.210938 703.871094 Z M 1153.210938 138.976562 " clip-rule="nonzero"/></clipPath></defs><g fill="#000000" fill-opacity="1"><g transform="translate(359.027065, 745.062511)"><g><path d="M 7 0.3125 C 3.34375 0.3125 1.171875 -1.578125 0.484375 -5.359375 L 3.359375 -5.84375 C 3.535156 -4.65625 3.945312 -3.726562 4.59375 -3.0625 C 5.238281 -2.394531 6.046875 -2.0625 7.015625 -2.0625 C 8.078125 -2.0625 8.914062 -2.425781 9.53125 -3.15625 C 10.144531 -3.894531 10.453125 -4.96875 10.453125 -6.375 L 10.453125 -19.203125 L 6.296875 -19.203125 L 6.296875 -21.59375 L 13.359375 -21.59375 L 13.359375 -6.4375 C 13.359375 -4.34375 12.789062 -2.691406 11.65625 -1.484375 C 10.53125 -0.285156 8.976562 0.3125 7 0.3125 Z M 7 0.3125 "/></g></g><g transform="translate(374.71863, 745.062511)"><g><path d="M 6.34375 0.3125 C 4.675781 0.3125 3.421875 -0.125 2.578125 -1 C 1.742188 -1.882812 1.328125 -3.09375 1.328125 -4.625 C 1.328125 -6.34375 1.890625 -7.660156 3.015625 -8.578125 C 4.148438 -9.503906 5.972656 -10 8.484375 -10.0625 L 12.21875 -10.109375 L 12.21875 -11.015625 C 12.21875 -12.367188 11.929688 -13.335938 11.359375 -13.921875 C 10.785156 -14.503906 9.882812 -14.796875 8.65625 -14.796875 C 7.425781 -14.796875 6.53125 -14.582031 5.96875 -14.15625 C 5.40625 -13.738281 5.066406 -13.070312 4.953125 -12.15625 L 2.0625 -12.421875 C 2.539062 -15.398438 4.757812 -16.890625 8.71875 -16.890625 C 10.800781 -16.890625 12.367188 -16.410156 13.421875 -15.453125 C 14.472656 -14.503906 15 -13.125 15 -11.3125 L 15 -4.171875 C 15 -3.347656 15.109375 -2.726562 15.328125 -2.3125 C 15.546875 -1.90625 15.953125 -1.703125 16.546875 -1.703125 C 16.816406 -1.703125 17.117188 -1.738281 17.453125 -1.8125 L 17.453125 -0.09375 C 16.765625 0.0703125 16.054688 0.15625 15.328125 0.15625 C 14.304688 0.15625 13.5625 -0.109375 13.09375 -0.640625 C 12.632812 -1.179688 12.375 -2.023438 12.3125 -3.171875 L 12.21875 -3.171875 C 11.507812 -1.898438 10.6875 -1 9.75 -0.46875 C 8.820312 0.0507812 7.6875 0.3125 6.34375 0.3125 Z M 6.96875 -1.765625 C 7.976562 -1.765625 8.878906 -1.992188 9.671875 -2.453125 C 10.460938 -2.910156 11.082031 -3.539062 11.53125 -4.34375 C 11.988281 -5.144531 12.21875 -5.972656 12.21875 -6.828125 L 12.21875 -8.1875 L 9.203125 -8.125 C 7.898438 -8.101562 6.910156 -7.96875 6.234375 -7.71875 C 5.566406 -7.476562 5.054688 -7.101562 4.703125 -6.59375 C 4.347656 -6.082031 4.171875 -5.410156 4.171875 -4.578125 C 4.171875 -3.679688 4.410156 -2.988281 4.890625 -2.5 C 5.378906 -2.007812 6.070312 -1.765625 6.96875 -1.765625 Z M 6.96875 -1.765625 "/></g></g><g transform="translate(392.172431, 745.062511)"><g><path d="M 12.640625 0 L 12.640625 -10.515625 C 12.640625 -11.609375 12.53125 -12.457031 12.3125 -13.0625 C 12.101562 -13.664062 11.765625 -14.097656 11.296875 -14.359375 C 10.828125 -14.628906 10.140625 -14.765625 9.234375 -14.765625 C 7.898438 -14.765625 6.847656 -14.304688 6.078125 -13.390625 C 5.316406 -12.484375 4.9375 -11.222656 4.9375 -9.609375 L 4.9375 0 L 2.171875 0 L 2.171875 -13.046875 C 2.171875 -14.972656 2.140625 -16.148438 2.078125 -16.578125 L 4.6875 -16.578125 C 4.695312 -16.523438 4.707031 -16.382812 4.71875 -16.15625 C 4.726562 -15.9375 4.738281 -15.679688 4.75 -15.390625 C 4.769531 -15.097656 4.789062 -14.550781 4.8125 -13.75 L 4.859375 -13.75 C 5.492188 -14.894531 6.226562 -15.703125 7.0625 -16.171875 C 7.894531 -16.648438 8.925781 -16.890625 10.15625 -16.890625 C 11.976562 -16.890625 13.3125 -16.4375 14.15625 -15.53125 C 15 -14.625 15.421875 -13.128906 15.421875 -11.046875 L 15.421875 0 Z M 12.640625 0 "/></g></g></g><g fill="#000000" fill-opacity="1"><g transform="translate(433.104239, 745.062511)"><g><path d="M 5.5 -19.203125 L 5.5 -11.171875 L 17.546875 -11.171875 L 17.546875 -8.75 L 5.5 -8.75 L 5.5 0 L 2.578125 0 L 2.578125 -21.59375 L 17.921875 -21.59375 L 17.921875 -19.203125 Z M 5.5 -19.203125 "/></g></g><g transform="translate(452.274305, 745.062511)"><g><path d="M 4.234375 -7.703125 C 4.234375 -5.804688 4.625 -4.34375 5.40625 -3.3125 C 6.195312 -2.28125 7.347656 -1.765625 8.859375 -1.765625 C 10.054688 -1.765625 11.015625 -2.003906 11.734375 -2.484375 C 12.453125 -2.960938 12.941406 -3.570312 13.203125 -4.3125 L 15.625 -3.625 C 14.625 -1 12.367188 0.3125 8.859375 0.3125 C 6.410156 0.3125 4.539062 -0.414062 3.25 -1.875 C 1.96875 -3.34375 1.328125 -5.519531 1.328125 -8.40625 C 1.328125 -11.132812 1.96875 -13.226562 3.25 -14.6875 C 4.539062 -16.15625 6.375 -16.890625 8.75 -16.890625 C 13.625 -16.890625 16.0625 -13.953125 16.0625 -8.078125 L 16.0625 -7.703125 Z M 13.21875 -9.828125 C 13.0625 -11.578125 12.613281 -12.851562 11.875 -13.65625 C 11.144531 -14.457031 10.085938 -14.859375 8.703125 -14.859375 C 7.367188 -14.859375 6.3125 -14.410156 5.53125 -13.515625 C 4.75 -12.617188 4.328125 -11.390625 4.265625 -9.828125 Z M 13.21875 -9.828125 "/></g></g><g transform="translate(469.728106, 745.062511)"><g><path d="M 9.390625 0 L 6.125 0 L 0.109375 -16.578125 L 3.046875 -16.578125 L 6.703125 -5.796875 C 6.828125 -5.390625 7.175781 -4.175781 7.75 -2.15625 L 8.296875 -3.953125 L 8.890625 -5.765625 L 12.65625 -16.578125 L 15.59375 -16.578125 Z M 9.390625 0 "/></g></g></g><g fill="#000000" fill-opacity="1"><g transform="translate(508.131487, 745.062511)"><g><path d="M 20.9375 0 L 20.9375 -14.40625 C 20.9375 -16 20.984375 -17.53125 21.078125 -19 C 20.578125 -17.175781 20.125 -15.75 19.71875 -14.71875 L 14.140625 0 L 12.09375 0 L 6.4375 -14.71875 L 5.578125 -17.3125 L 5.078125 -19 L 5.125 -17.3125 L 5.1875 -14.40625 L 5.1875 0 L 2.578125 0 L 2.578125 -21.59375 L 6.421875 -21.59375 L 12.171875 -6.625 C 12.367188 -6.019531 12.5625 -5.367188 12.75 -4.671875 C 12.945312 -3.984375 13.078125 -3.488281 13.140625 -3.1875 C 13.222656 -3.59375 13.394531 -4.210938 13.65625 -5.046875 C 13.914062 -5.878906 14.085938 -6.40625 14.171875 -6.625 L 19.8125 -21.59375 L 23.578125 -21.59375 L 23.578125 0 Z M 20.9375 0 "/></g></g><g transform="translate(534.273879, 745.062511)"><g><path d="M 6.34375 0.3125 C 4.675781 0.3125 3.421875 -0.125 2.578125 -1 C 1.742188 -1.882812 1.328125 -3.09375 1.328125 -4.625 C 1.328125 -6.34375 1.890625 -7.660156 3.015625 -8.578125 C 4.148438 -9.503906 5.972656 -10 8.484375 -10.0625 L 12.21875 -10.109375 L 12.21875 -11.015625 C 12.21875 -12.367188 11.929688 -13.335938 11.359375 -13.921875 C 10.785156 -14.503906 9.882812 -14.796875 8.65625 -14.796875 C 7.425781 -14.796875 6.53125 -14.582031 5.96875 -14.15625 C 5.40625 -13.738281 5.066406 -13.070312 4.953125 -12.15625 L 2.0625 -12.421875 C 2.539062 -15.398438 4.757812 -16.890625 8.71875 -16.890625 C 10.800781 -16.890625 12.367188 -16.410156 13.421875 -15.453125 C 14.472656 -14.503906 15 -13.125 15 -11.3125 L 15 -4.171875 C 15 -3.347656 15.109375 -2.726562 15.328125 -2.3125 C 15.546875 -1.90625 15.953125 -1.703125 16.546875 -1.703125 C 16.816406 -1.703125 17.117188 -1.738281 17.453125 -1.8125 L 17.453125 -0.09375 C 16.765625 0.0703125 16.054688 0.15625 15.328125 0.15625 C 14.304688 0.15625 13.5625 -0.109375 13.09375 -0.640625 C 12.632812 -1.179688 12.375 -2.023438 12.3125 -3.171875 L 12.21875 -3.171875 C 11.507812 -1.898438 10.6875 -1 9.75 -0.46875 C 8.820312 0.0507812 7.6875 0.3125 6.34375 0.3125 Z M 6.96875 -1.765625 C 7.976562 -1.765625 8.878906 -1.992188 9.671875 -2.453125 C 10.460938 -2.910156 11.082031 -3.539062 11.53125 -4.34375 C 11.988281 -5.144531 12.21875 -5.972656 12.21875 -6.828125 L 12.21875 -8.1875 L 9.203125 -8.125 C 7.898438 -8.101562 6.910156 -7.96875 6.234375 -7.71875 C 5.566406 -7.476562 5.054688 -7.101562 4.703125 -6.59375 C 4.347656 -6.082031 4.171875 -5.410156 4.171875 -4.578125 C 4.171875 -3.679688 4.410156 -2.988281 4.890625 -2.5 C 5.378906 -2.007812 6.070312 -1.765625 6.96875 -1.765625 Z M 6.96875 -1.765625 "/></g></g><g transform="translate(551.72768, 745.062511)"><g><path d="M 2.171875 0 L 2.171875 -12.71875 C 2.171875 -13.882812 2.140625 -15.171875 2.078125 -16.578125 L 4.6875 -16.578125 C 4.769531 -14.703125 4.8125 -13.578125 4.8125 -13.203125 L 4.875 -13.203125 C 5.3125 -14.617188 5.816406 -15.585938 6.390625 -16.109375 C 6.960938 -16.628906 7.769531 -16.890625 8.8125 -16.890625 C 9.175781 -16.890625 9.550781 -16.835938 9.9375 -16.734375 L 9.9375 -14.203125 C 9.5625 -14.304688 9.066406 -14.359375 8.453125 -14.359375 C 7.316406 -14.359375 6.445312 -13.863281 5.84375 -12.875 C 5.238281 -11.894531 4.9375 -10.484375 4.9375 -8.640625 L 4.9375 0 Z M 2.171875 0 "/></g></g></g><g fill="#000000" fill-opacity="1"><g transform="translate(588.614008, 745.062511)"><g><path d="M 17.890625 0 L 15.421875 -6.3125 L 5.578125 -6.3125 L 3.09375 0 L 0.0625 0 L 8.875 -21.59375 L 12.203125 -21.59375 L 20.875 0 Z M 10.5 -19.390625 L 10.359375 -18.953125 C 10.109375 -18.109375 9.734375 -17.023438 9.234375 -15.703125 L 6.46875 -8.59375 L 14.546875 -8.59375 L 11.765625 -15.71875 C 11.484375 -16.425781 11.195312 -17.222656 10.90625 -18.109375 Z M 10.5 -19.390625 "/></g></g><g transform="translate(609.54631, 745.062511)"><g><path d="M 16.140625 -8.375 C 16.140625 -2.582031 14.109375 0.3125 10.046875 0.3125 C 8.785156 0.3125 7.738281 0.0820312 6.90625 -0.375 C 6.070312 -0.832031 5.394531 -1.566406 4.875 -2.578125 L 4.84375 -2.578125 C 4.84375 -2.253906 4.820312 -1.769531 4.78125 -1.125 C 4.738281 -0.476562 4.707031 -0.101562 4.6875 0 L 2.015625 0 C 2.078125 -0.550781 2.109375 -1.691406 2.109375 -3.421875 L 2.109375 -22.75 L 4.875 -22.75 L 4.875 -16.265625 C 4.875 -15.597656 4.851562 -14.816406 4.8125 -13.921875 L 4.875 -13.921875 C 5.382812 -14.984375 6.0625 -15.742188 6.90625 -16.203125 C 7.75 -16.660156 8.796875 -16.890625 10.046875 -16.890625 C 12.140625 -16.890625 13.675781 -16.179688 14.65625 -14.765625 C 15.644531 -13.359375 16.140625 -11.226562 16.140625 -8.375 Z M 13.25 -8.28125 C 13.25 -10.59375 12.941406 -12.25 12.328125 -13.25 C 11.710938 -14.257812 10.710938 -14.765625 9.328125 -14.765625 C 7.773438 -14.765625 6.644531 -14.234375 5.9375 -13.171875 C 5.226562 -12.109375 4.875 -10.421875 4.875 -8.109375 C 4.875 -5.929688 5.21875 -4.320312 5.90625 -3.28125 C 6.601562 -2.25 7.734375 -1.734375 9.296875 -1.734375 C 10.691406 -1.734375 11.695312 -2.242188 12.3125 -3.265625 C 12.9375 -4.296875 13.25 -5.96875 13.25 -8.28125 Z M 13.25 -8.28125 "/></g></g><g transform="translate(627.000111, 745.062511)"><g><path d="M 2.171875 0 L 2.171875 -12.71875 C 2.171875 -13.882812 2.140625 -15.171875 2.078125 -16.578125 L 4.6875 -16.578125 C 4.769531 -14.703125 4.8125 -13.578125 4.8125 -13.203125 L 4.875 -13.203125 C 5.3125 -14.617188 5.816406 -15.585938 6.390625 -16.109375 C 6.960938 -16.628906 7.769531 -16.890625 8.8125 -16.890625 C 9.175781 -16.890625 9.550781 -16.835938 9.9375 -16.734375 L 9.9375 -14.203125 C 9.5625 -14.304688 9.066406 -14.359375 8.453125 -14.359375 C 7.316406 -14.359375 6.445312 -13.863281 5.84375 -12.875 C 5.238281 -11.894531 4.9375 -10.484375 4.9375 -8.640625 L 4.9375 0 Z M 2.171875 0 "/></g></g></g><g fill="#000000" fill-opacity="1"><g transform="translate(664.652616, 745.062511)"><g><path d="M 20.9375 0 L 20.9375 -14.40625 C 20.9375 -16 20.984375 -17.53125 21.078125 -19 C 20.578125 -17.175781 20.125 -15.75 19.71875 -14.71875 L 14.140625 0 L 12.09375 0 L 6.4375 -14.71875 L 5.578125 -17.3125 L 5.078125 -19 L 5.125 -17.3125 L 5.1875 -14.40625 L 5.1875 0 L 2.578125 0 L 2.578125 -21.59375 L 6.421875 -21.59375 L 12.171875 -6.625 C 12.367188 -6.019531 12.5625 -5.367188 12.75 -4.671875 C 12.945312 -3.984375 13.078125 -3.488281 13.140625 -3.1875 C 13.222656 -3.59375 13.394531 -4.210938 13.65625 -5.046875 C 13.914062 -5.878906 14.085938 -6.40625 14.171875 -6.625 L 19.8125 -21.59375 L 23.578125 -21.59375 L 23.578125 0 Z M 20.9375 0 "/></g></g><g transform="translate(690.795008, 745.062511)"><g><path d="M 6.34375 0.3125 C 4.675781 0.3125 3.421875 -0.125 2.578125 -1 C 1.742188 -1.882812 1.328125 -3.09375 1.328125 -4.625 C 1.328125 -6.34375 1.890625 -7.660156 3.015625 -8.578125 C 4.148438 -9.503906 5.972656 -10 8.484375 -10.0625 L 12.21875 -10.109375 L 12.21875 -11.015625 C 12.21875 -12.367188 11.929688 -13.335938 11.359375 -13.921875 C 10.785156 -14.503906 9.882812 -14.796875 8.65625 -14.796875 C 7.425781 -14.796875 6.53125 -14.582031 5.96875 -14.15625 C 5.40625 -13.738281 5.066406 -13.070312 4.953125 -12.15625 L 2.0625 -12.421875 C 2.539062 -15.398438 4.757812 -16.890625 8.71875 -16.890625 C 10.800781 -16.890625 12.367188 -16.410156 13.421875 -15.453125 C 14.472656 -14.503906 15 -13.125 15 -11.3125 L 15 -4.171875 C 15 -3.347656 15.109375 -2.726562 15.328125 -2.3125 C 15.546875 -1.90625 15.953125 -1.703125 16.546875 -1.703125 C 16.816406 -1.703125 17.117188 -1.738281 17.453125 -1.8125 L 17.453125 -0.09375 C 16.765625 0.0703125 16.054688 0.15625 15.328125 0.15625 C 14.304688 0.15625 13.5625 -0.109375 13.09375 -0.640625 C 12.632812 -1.179688 12.375 -2.023438 12.3125 -3.171875 L 12.21875 -3.171875 C 11.507812 -1.898438 10.6875 -1 9.75 -0.46875 C 8.820312 0.0507812 7.6875 0.3125 6.34375 0.3125 Z M 6.96875 -1.765625 C 7.976562 -1.765625 8.878906 -1.992188 9.671875 -2.453125 C 10.460938 -2.910156 11.082031 -3.539062 11.53125 -4.34375 C 11.988281 -5.144531 12.21875 -5.972656 12.21875 -6.828125 L 12.21875 -8.1875 L 9.203125 -8.125 C 7.898438 -8.101562 6.910156 -7.96875 6.234375 -7.71875 C 5.566406 -7.476562 5.054688 -7.101562 4.703125 -6.59375 C 4.347656 -6.082031 4.171875 -5.410156 4.171875 -4.578125 C 4.171875 -3.679688 4.410156 -2.988281 4.890625 -2.5 C 5.378906 -2.007812 6.070312 -1.765625 6.96875 -1.765625 Z M 6.96875 -1.765625 "/></g></g><g transform="translate(708.248809, 745.062511)"><g><path d="M 2.09375 -20.109375 L 2.09375 -22.75 L 4.859375 -22.75 L 4.859375 -20.109375 Z M 2.09375 0 L 2.09375 -16.578125 L 4.859375 -16.578125 L 4.859375 0 Z M 2.09375 0 "/></g></g></g><g fill="#000000" fill-opacity="1"><g transform="translate(743.510828, 745.062511)"><g><path d="M 7 0.3125 C 3.34375 0.3125 1.171875 -1.578125 0.484375 -5.359375 L 3.359375 -5.84375 C 3.535156 -4.65625 3.945312 -3.726562 4.59375 -3.0625 C 5.238281 -2.394531 6.046875 -2.0625 7.015625 -2.0625 C 8.078125 -2.0625 8.914062 -2.425781 9.53125 -3.15625 C 10.144531 -3.894531 10.453125 -4.96875 10.453125 -6.375 L 10.453125 -19.203125 L 6.296875 -19.203125 L 6.296875 -21.59375 L 13.359375 -21.59375 L 13.359375 -6.4375 C 13.359375 -4.34375 12.789062 -2.691406 11.65625 -1.484375 C 10.53125 -0.285156 8.976562 0.3125 7 0.3125 Z M 7 0.3125 "/></g></g><g transform="translate(759.202393, 745.062511)"><g><path d="M 4.8125 -16.578125 L 4.8125 -6.0625 C 4.8125 -4.96875 4.914062 -4.117188 5.125 -3.515625 C 5.34375 -2.921875 5.6875 -2.488281 6.15625 -2.21875 C 6.625 -1.957031 7.316406 -1.828125 8.234375 -1.828125 C 9.554688 -1.828125 10.597656 -2.28125 11.359375 -3.1875 C 12.128906 -4.09375 12.515625 -5.351562 12.515625 -6.96875 L 12.515625 -16.578125 L 15.28125 -16.578125 L 15.28125 -3.546875 C 15.28125 -1.609375 15.3125 -0.425781 15.375 0 L 12.765625 0 C 12.753906 -0.0507812 12.742188 -0.1875 12.734375 -0.40625 C 12.722656 -0.632812 12.707031 -0.894531 12.6875 -1.1875 C 12.675781 -1.476562 12.660156 -2.023438 12.640625 -2.828125 L 12.59375 -2.828125 C 11.96875 -1.691406 11.238281 -0.882812 10.40625 -0.40625 C 9.570312 0.0703125 8.535156 0.3125 7.296875 0.3125 C 5.472656 0.3125 4.140625 -0.140625 3.296875 -1.046875 C 2.453125 -1.953125 2.03125 -3.445312 2.03125 -5.53125 L 2.03125 -16.578125 Z M 4.8125 -16.578125 "/></g></g><g transform="translate(776.656194, 745.062511)"><g><path d="M 12.640625 0 L 12.640625 -10.515625 C 12.640625 -11.609375 12.53125 -12.457031 12.3125 -13.0625 C 12.101562 -13.664062 11.765625 -14.097656 11.296875 -14.359375 C 10.828125 -14.628906 10.140625 -14.765625 9.234375 -14.765625 C 7.898438 -14.765625 6.847656 -14.304688 6.078125 -13.390625 C 5.316406 -12.484375 4.9375 -11.222656 4.9375 -9.609375 L 4.9375 0 L 2.171875 0 L 2.171875 -13.046875 C 2.171875 -14.972656 2.140625 -16.148438 2.078125 -16.578125 L 4.6875 -16.578125 C 4.695312 -16.523438 4.707031 -16.382812 4.71875 -16.15625 C 4.726562 -15.9375 4.738281 -15.679688 4.75 -15.390625 C 4.769531 -15.097656 4.789062 -14.550781 4.8125 -13.75 L 4.859375 -13.75 C 5.492188 -14.894531 6.226562 -15.703125 7.0625 -16.171875 C 7.894531 -16.648438 8.925781 -16.890625 10.15625 -16.890625 C 11.976562 -16.890625 13.3125 -16.4375 14.15625 -15.53125 C 15 -14.625 15.421875 -13.128906 15.421875 -11.046875 L 15.421875 0 Z M 12.640625 0 "/></g></g></g><g fill="#000000" fill-opacity="1"><g transform="translate(825.648353, 745.062511)"><g><path d="M 7 0.3125 C 3.34375 0.3125 1.171875 -1.578125 0.484375 -5.359375 L 3.359375 -5.84375 C 3.535156 -4.65625 3.945312 -3.726562 4.59375 -3.0625 C 5.238281 -2.394531 6.046875 -2.0625 7.015625 -2.0625 C 8.078125 -2.0625 8.914062 -2.425781 9.53125 -3.15625 C 10.144531 -3.894531 10.453125 -4.96875 10.453125 -6.375 L 10.453125 -19.203125 L 6.296875 -19.203125 L 6.296875 -21.59375 L 13.359375 -21.59375 L 13.359375 -6.4375 C 13.359375 -4.34375 12.789062 -2.691406 11.65625 -1.484375 C 10.53125 -0.285156 8.976562 0.3125 7 0.3125 Z M 7 0.3125 "/></g></g><g transform="translate(841.339918, 745.062511)"><g><path d="M 4.8125 -16.578125 L 4.8125 -6.0625 C 4.8125 -4.96875 4.914062 -4.117188 5.125 -3.515625 C 5.34375 -2.921875 5.6875 -2.488281 6.15625 -2.21875 C 6.625 -1.957031 7.316406 -1.828125 8.234375 -1.828125 C 9.554688 -1.828125 10.597656 -2.28125 11.359375 -3.1875 C 12.128906 -4.09375 12.515625 -5.351562 12.515625 -6.96875 L 12.515625 -16.578125 L 15.28125 -16.578125 L 15.28125 -3.546875 C 15.28125 -1.609375 15.3125 -0.425781 15.375 0 L 12.765625 0 C 12.753906 -0.0507812 12.742188 -0.1875 12.734375 -0.40625 C 12.722656 -0.632812 12.707031 -0.894531 12.6875 -1.1875 C 12.675781 -1.476562 12.660156 -2.023438 12.640625 -2.828125 L 12.59375 -2.828125 C 11.96875 -1.691406 11.238281 -0.882812 10.40625 -0.40625 C 9.570312 0.0703125 8.535156 0.3125 7.296875 0.3125 C 5.472656 0.3125 4.140625 -0.140625 3.296875 -1.046875 C 2.453125 -1.953125 2.03125 -3.445312 2.03125 -5.53125 L 2.03125 -16.578125 Z M 4.8125 -16.578125 "/></g></g><g transform="translate(858.793719, 745.062511)"><g><path d="M 2.109375 0 L 2.109375 -22.75 L 4.875 -22.75 L 4.875 0 Z M 2.109375 0 "/></g></g></g><g fill="#000000" fill-opacity="1"><g transform="translate(898.070629, 745.062511)"><g><path d="M 19.5 -5.96875 C 19.5 -3.96875 18.71875 -2.421875 17.15625 -1.328125 C 15.601562 -0.234375 13.410156 0.3125 10.578125 0.3125 C 5.316406 0.3125 2.265625 -1.519531 1.421875 -5.1875 L 4.265625 -5.75 C 4.585938 -4.445312 5.28125 -3.492188 6.34375 -2.890625 C 7.40625 -2.285156 8.851562 -1.984375 10.6875 -1.984375 C 12.570312 -1.984375 14.023438 -2.304688 15.046875 -2.953125 C 16.078125 -3.597656 16.59375 -4.550781 16.59375 -5.8125 C 16.59375 -6.507812 16.429688 -7.078125 16.109375 -7.515625 C 15.796875 -7.960938 15.347656 -8.328125 14.765625 -8.609375 C 14.179688 -8.898438 13.484375 -9.140625 12.671875 -9.328125 C 11.867188 -9.523438 10.976562 -9.738281 10 -9.96875 C 8.289062 -10.34375 6.992188 -10.71875 6.109375 -11.09375 C 5.222656 -11.476562 4.523438 -11.898438 4.015625 -12.359375 C 3.503906 -12.828125 3.113281 -13.367188 2.84375 -13.984375 C 2.570312 -14.609375 2.4375 -15.328125 2.4375 -16.140625 C 2.4375 -17.992188 3.144531 -19.421875 4.5625 -20.421875 C 5.976562 -21.421875 8.003906 -21.921875 10.640625 -21.921875 C 13.085938 -21.921875 14.957031 -21.546875 16.25 -20.796875 C 17.550781 -20.046875 18.460938 -18.765625 18.984375 -16.953125 L 16.109375 -16.453125 C 15.796875 -17.585938 15.191406 -18.414062 14.296875 -18.9375 C 13.410156 -19.457031 12.179688 -19.71875 10.609375 -19.71875 C 8.878906 -19.71875 7.554688 -19.429688 6.640625 -18.859375 C 5.734375 -18.285156 5.28125 -17.429688 5.28125 -16.296875 C 5.28125 -15.628906 5.457031 -15.078125 5.8125 -14.640625 C 6.164062 -14.210938 6.675781 -13.847656 7.34375 -13.546875 C 8.007812 -13.242188 9.332031 -12.875 11.3125 -12.4375 C 11.976562 -12.28125 12.640625 -12.117188 13.296875 -11.953125 C 13.953125 -11.796875 14.582031 -11.609375 15.1875 -11.390625 C 15.789062 -11.171875 16.351562 -10.910156 16.875 -10.609375 C 17.40625 -10.316406 17.863281 -9.957031 18.25 -9.53125 C 18.644531 -9.101562 18.953125 -8.597656 19.171875 -8.015625 C 19.390625 -7.429688 19.5 -6.75 19.5 -5.96875 Z M 19.5 -5.96875 "/></g></g><g transform="translate(919.002931, 745.062511)"><g><path d="M 4.234375 -7.703125 C 4.234375 -5.804688 4.625 -4.34375 5.40625 -3.3125 C 6.195312 -2.28125 7.347656 -1.765625 8.859375 -1.765625 C 10.054688 -1.765625 11.015625 -2.003906 11.734375 -2.484375 C 12.453125 -2.960938 12.941406 -3.570312 13.203125 -4.3125 L 15.625 -3.625 C 14.625 -1 12.367188 0.3125 8.859375 0.3125 C 6.410156 0.3125 4.539062 -0.414062 3.25 -1.875 C 1.96875 -3.34375 1.328125 -5.519531 1.328125 -8.40625 C 1.328125 -11.132812 1.96875 -13.226562 3.25 -14.6875 C 4.539062 -16.15625 6.375 -16.890625 8.75 -16.890625 C 13.625 -16.890625 16.0625 -13.953125 16.0625 -8.078125 L 16.0625 -7.703125 Z M 13.21875 -9.828125 C 13.0625 -11.578125 12.613281 -12.851562 11.875 -13.65625 C 11.144531 -14.457031 10.085938 -14.859375 8.703125 -14.859375 C 7.367188 -14.859375 6.3125 -14.410156 5.53125 -13.515625 C 4.75 -12.617188 4.328125 -11.390625 4.265625 -9.828125 Z M 13.21875 -9.828125 "/></g></g><g transform="translate(936.456732, 745.062511)"><g><path d="M 8.484375 -0.125 C 7.578125 0.125 6.648438 0.25 5.703125 0.25 C 3.492188 0.25 2.390625 -1.003906 2.390625 -3.515625 L 2.390625 -14.578125 L 0.46875 -14.578125 L 0.46875 -16.578125 L 2.5 -16.578125 L 3.3125 -20.296875 L 5.15625 -20.296875 L 5.15625 -16.578125 L 8.21875 -16.578125 L 8.21875 -14.578125 L 5.15625 -14.578125 L 5.15625 -4.109375 C 5.15625 -3.304688 5.285156 -2.742188 5.546875 -2.421875 C 5.804688 -2.109375 6.253906 -1.953125 6.890625 -1.953125 C 7.265625 -1.953125 7.796875 -2.019531 8.484375 -2.15625 Z M 8.484375 -0.125 "/></g></g></g><g fill="#000000" fill-opacity="1"><g transform="translate(972.23972, 745.062511)"><g><path d="M 22.921875 -10.890625 C 22.921875 -8.640625 22.488281 -6.664062 21.625 -4.96875 C 20.757812 -3.269531 19.519531 -1.960938 17.90625 -1.046875 C 16.289062 -0.140625 14.382812 0.3125 12.1875 0.3125 C 9.96875 0.3125 8.050781 -0.132812 6.4375 -1.03125 C 4.832031 -1.9375 3.601562 -3.238281 2.75 -4.9375 C 1.90625 -6.644531 1.484375 -8.628906 1.484375 -10.890625 C 1.484375 -14.347656 2.425781 -17.050781 4.3125 -19 C 6.207031 -20.945312 8.84375 -21.921875 12.21875 -21.921875 C 14.414062 -21.921875 16.320312 -21.484375 17.9375 -20.609375 C 19.550781 -19.734375 20.785156 -18.460938 21.640625 -16.796875 C 22.492188 -15.128906 22.921875 -13.160156 22.921875 -10.890625 Z M 19.921875 -10.890625 C 19.921875 -13.578125 19.25 -15.6875 17.90625 -17.21875 C 16.5625 -18.757812 14.664062 -19.53125 12.21875 -19.53125 C 9.738281 -19.53125 7.820312 -18.769531 6.46875 -17.25 C 5.125 -15.738281 4.453125 -13.617188 4.453125 -10.890625 C 4.453125 -8.191406 5.132812 -6.046875 6.5 -4.453125 C 7.863281 -2.859375 9.757812 -2.0625 12.1875 -2.0625 C 14.675781 -2.0625 16.585938 -2.832031 17.921875 -4.375 C 19.253906 -5.914062 19.921875 -8.085938 19.921875 -10.890625 Z M 19.921875 -10.890625 "/></g></g><g transform="translate(996.650524, 745.062511)"><g><path d="M 4.8125 -16.578125 L 4.8125 -6.0625 C 4.8125 -4.96875 4.914062 -4.117188 5.125 -3.515625 C 5.34375 -2.921875 5.6875 -2.488281 6.15625 -2.21875 C 6.625 -1.957031 7.316406 -1.828125 8.234375 -1.828125 C 9.554688 -1.828125 10.597656 -2.28125 11.359375 -3.1875 C 12.128906 -4.09375 12.515625 -5.351562 12.515625 -6.96875 L 12.515625 -16.578125 L 15.28125 -16.578125 L 15.28125 -3.546875 C 15.28125 -1.609375 15.3125 -0.425781 15.375 0 L 12.765625 0 C 12.753906 -0.0507812 12.742188 -0.1875 12.734375 -0.40625 C 12.722656 -0.632812 12.707031 -0.894531 12.6875 -1.1875 C 12.675781 -1.476562 12.660156 -2.023438 12.640625 -2.828125 L 12.59375 -2.828125 C 11.96875 -1.691406 11.238281 -0.882812 10.40625 -0.40625 C 9.570312 0.0703125 8.535156 0.3125 7.296875 0.3125 C 5.472656 0.3125 4.140625 -0.140625 3.296875 -1.046875 C 2.453125 -1.953125 2.03125 -3.445312 2.03125 -5.53125 L 2.03125 -16.578125 Z M 4.8125 -16.578125 "/></g></g><g transform="translate(1014.104325, 745.062511)"><g><path d="M 8.484375 -0.125 C 7.578125 0.125 6.648438 0.25 5.703125 0.25 C 3.492188 0.25 2.390625 -1.003906 2.390625 -3.515625 L 2.390625 -14.578125 L 0.46875 -14.578125 L 0.46875 -16.578125 L 2.5 -16.578125 L 3.3125 -20.296875 L 5.15625 -20.296875 L 5.15625 -16.578125 L 8.21875 -16.578125 L 8.21875 -14.578125 L 5.15625 -14.578125 L 5.15625 -4.109375 C 5.15625 -3.304688 5.285156 -2.742188 5.546875 -2.421875 C 5.804688 -2.109375 6.253906 -1.953125 6.890625 -1.953125 C 7.265625 -1.953125 7.796875 -2.019531 8.484375 -2.15625 Z M 8.484375 -0.125 "/></g></g></g><g fill="#000000" fill-opacity="1"><g transform="translate(1046.531464, 745.062511)"><g><path d="M 16.578125 0 L 5.03125 -18.390625 L 5.109375 -16.90625 L 5.1875 -14.34375 L 5.1875 0 L 2.578125 0 L 2.578125 -21.59375 L 5.984375 -21.59375 L 17.65625 -3.078125 C 17.53125 -5.078125 17.46875 -6.53125 17.46875 -7.4375 L 17.46875 -21.59375 L 20.109375 -21.59375 L 20.109375 0 Z M 16.578125 0 "/></g></g><g transform="translate(1069.195355, 745.062511)"><g><path d="M 16.140625 -8.3125 C 16.140625 -5.40625 15.5 -3.238281 14.21875 -1.8125 C 12.945312 -0.394531 11.09375 0.3125 8.65625 0.3125 C 6.238281 0.3125 4.410156 -0.425781 3.171875 -1.90625 C 1.929688 -3.382812 1.3125 -5.519531 1.3125 -8.3125 C 1.3125 -14.03125 3.789062 -16.890625 8.75 -16.890625 C 11.28125 -16.890625 13.144531 -16.191406 14.34375 -14.796875 C 15.539062 -13.398438 16.140625 -11.238281 16.140625 -8.3125 Z M 13.25 -8.3125 C 13.25 -10.59375 12.90625 -12.253906 12.21875 -13.296875 C 11.539062 -14.335938 10.398438 -14.859375 8.796875 -14.859375 C 7.179688 -14.859375 6.015625 -14.328125 5.296875 -13.265625 C 4.578125 -12.203125 4.21875 -10.550781 4.21875 -8.3125 C 4.21875 -6.125 4.570312 -4.476562 5.28125 -3.375 C 5.988281 -2.28125 7.101562 -1.734375 8.625 -1.734375 C 10.28125 -1.734375 11.460938 -2.265625 12.171875 -3.328125 C 12.890625 -4.390625 13.25 -6.050781 13.25 -8.3125 Z M 13.25 -8.3125 "/></g></g><g transform="translate(1086.649155, 745.062511)"><g><path d="M 9.390625 0 L 6.125 0 L 0.109375 -16.578125 L 3.046875 -16.578125 L 6.703125 -5.796875 C 6.828125 -5.390625 7.175781 -4.175781 7.75 -2.15625 L 8.296875 -3.953125 L 8.890625 -5.765625 L 12.65625 -16.578125 L 15.59375 -16.578125 Z M 9.390625 0 "/></g></g></g><g fill="#000000" fill-opacity="1"><g transform="translate(1123.428156, 745.062511)"><g><path d="M 21.171875 -11.015625 C 21.171875 -8.785156 20.734375 -6.835938 19.859375 -5.171875 C 18.992188 -3.503906 17.765625 -2.222656 16.171875 -1.328125 C 14.578125 -0.441406 12.738281 0 10.65625 0 L 2.578125 0 L 2.578125 -21.59375 L 9.71875 -21.59375 C 13.375 -21.59375 16.195312 -20.675781 18.1875 -18.84375 C 20.175781 -17.007812 21.171875 -14.398438 21.171875 -11.015625 Z M 18.21875 -11.015625 C 18.21875 -13.691406 17.484375 -15.734375 16.015625 -17.140625 C 14.554688 -18.546875 12.4375 -19.25 9.65625 -19.25 L 5.5 -19.25 L 5.5 -2.34375 L 10.3125 -2.34375 C 11.894531 -2.34375 13.285156 -2.6875 14.484375 -3.375 C 15.691406 -4.070312 16.613281 -5.078125 17.25 -6.390625 C 17.894531 -7.703125 18.21875 -9.242188 18.21875 -11.015625 Z M 18.21875 -11.015625 "/></g></g><g transform="translate(1146.092047, 745.062511)"><g><path d="M 4.234375 -7.703125 C 4.234375 -5.804688 4.625 -4.34375 5.40625 -3.3125 C 6.195312 -2.28125 7.347656 -1.765625 8.859375 -1.765625 C 10.054688 -1.765625 11.015625 -2.003906 11.734375 -2.484375 C 12.453125 -2.960938 12.941406 -3.570312 13.203125 -4.3125 L 15.625 -3.625 C 14.625 -1 12.367188 0.3125 8.859375 0.3125 C 6.410156 0.3125 4.539062 -0.414062 3.25 -1.875 C 1.96875 -3.34375 1.328125 -5.519531 1.328125 -8.40625 C 1.328125 -11.132812 1.96875 -13.226562 3.25 -14.6875 C 4.539062 -16.15625 6.375 -16.890625 8.75 -16.890625 C 13.625 -16.890625 16.0625 -13.953125 16.0625 -8.078125 L 16.0625 -7.703125 Z M 13.21875 -9.828125 C 13.0625 -11.578125 12.613281 -12.851562 11.875 -13.65625 C 11.144531 -14.457031 10.085938 -14.859375 8.703125 -14.859375 C 7.367188 -14.859375 6.3125 -14.410156 5.53125 -13.515625 C 4.75 -12.617188 4.328125 -11.390625 4.265625 -9.828125 Z M 13.21875 -9.828125 "/></g></g><g transform="translate(1163.545848, 745.062511)"><g><path d="M 1.265625 0 L 1.265625 -2.09375 L 10.546875 -14.453125 L 1.796875 -14.453125 L 1.796875 -16.578125 L 13.8125 -16.578125 L 13.8125 -14.484375 L 4.515625 -2.125 L 14.125 -2.125 L 14.125 0 Z M 1.265625 0 "/></g></g></g><g fill="#000000" fill-opacity="1"><g transform="translate(304.813212, 714.660104)"><g><path d="M 16.234375 -10.8125 C 16.234375 -7.195312 15.597656 -4.4375 14.328125 -2.53125 C 13.054688 -0.632812 11.175781 0.3125 8.6875 0.3125 C 6.207031 0.3125 4.34375 -0.628906 3.09375 -2.515625 C 1.84375 -4.410156 1.21875 -7.175781 1.21875 -10.8125 C 1.21875 -14.519531 1.820312 -17.296875 3.03125 -19.140625 C 4.25 -20.992188 6.164062 -21.921875 8.78125 -21.921875 C 11.320312 -21.921875 13.195312 -20.984375 14.40625 -19.109375 C 15.625 -17.242188 16.234375 -14.476562 16.234375 -10.8125 Z M 13.421875 -10.8125 C 13.421875 -13.925781 13.0625 -16.179688 12.34375 -17.578125 C 11.625 -18.984375 10.4375 -19.6875 8.78125 -19.6875 C 7.082031 -19.6875 5.863281 -18.992188 5.125 -17.609375 C 4.382812 -16.234375 4.015625 -13.96875 4.015625 -10.8125 C 4.015625 -7.738281 4.390625 -5.492188 5.140625 -4.078125 C 5.890625 -2.660156 7.082031 -1.953125 8.71875 -1.953125 C 10.34375 -1.953125 11.53125 -2.675781 12.28125 -4.125 C 13.039062 -5.570312 13.421875 -7.800781 13.421875 -10.8125 Z M 13.421875 -10.8125 "/></g></g></g><g fill="#000000" fill-opacity="1"><g transform="translate(269.721728, 589.127558)"><g><path d="M 1.578125 0 L 1.578125 -1.953125 C 2.097656 -3.140625 2.734375 -4.191406 3.484375 -5.109375 C 4.234375 -6.023438 5.019531 -6.851562 5.84375 -7.59375 C 6.675781 -8.332031 7.5 -9.019531 8.3125 -9.65625 C 9.125 -10.289062 9.859375 -10.921875 10.515625 -11.546875 C 11.171875 -12.179688 11.695312 -12.847656 12.09375 -13.546875 C 12.5 -14.242188 12.703125 -15.03125 12.703125 -15.90625 C 12.703125 -17.09375 12.351562 -18.015625 11.65625 -18.671875 C 10.96875 -19.328125 10.003906 -19.65625 8.765625 -19.65625 C 7.585938 -19.65625 6.617188 -19.332031 5.859375 -18.6875 C 5.097656 -18.050781 4.648438 -17.15625 4.515625 -16 L 1.703125 -16.265625 C 1.910156 -17.992188 2.644531 -19.367188 3.90625 -20.390625 C 5.164062 -21.410156 6.785156 -21.921875 8.765625 -21.921875 C 10.941406 -21.921875 12.613281 -21.40625 13.78125 -20.375 C 14.957031 -19.351562 15.546875 -17.894531 15.546875 -16 C 15.546875 -15.164062 15.351562 -14.332031 14.96875 -13.5 C 14.582031 -12.675781 14.007812 -11.847656 13.25 -11.015625 C 12.5 -10.191406 11.054688 -8.910156 8.921875 -7.171875 C 7.742188 -6.210938 6.804688 -5.347656 6.109375 -4.578125 C 5.421875 -3.804688 4.921875 -3.0625 4.609375 -2.34375 L 15.875 -2.34375 L 15.875 0 Z M 1.578125 0 "/></g></g><g transform="translate(287.175529, 589.127558)"><g><path d="M 16.234375 -10.8125 C 16.234375 -7.195312 15.597656 -4.4375 14.328125 -2.53125 C 13.054688 -0.632812 11.175781 0.3125 8.6875 0.3125 C 6.207031 0.3125 4.34375 -0.628906 3.09375 -2.515625 C 1.84375 -4.410156 1.21875 -7.175781 1.21875 -10.8125 C 1.21875 -14.519531 1.820312 -17.296875 3.03125 -19.140625 C 4.25 -20.992188 6.164062 -21.921875 8.78125 -21.921875 C 11.320312 -21.921875 13.195312 -20.984375 14.40625 -19.109375 C 15.625 -17.242188 16.234375 -14.476562 16.234375 -10.8125 Z M 13.421875 -10.8125 C 13.421875 -13.925781 13.0625 -16.179688 12.34375 -17.578125 C 11.625 -18.984375 10.4375 -19.6875 8.78125 -19.6875 C 7.082031 -19.6875 5.863281 -18.992188 5.125 -17.609375 C 4.382812 -16.234375 4.015625 -13.96875 4.015625 -10.8125 C 4.015625 -7.738281 4.390625 -5.492188 5.140625 -4.078125 C 5.890625 -2.660156 7.082031 -1.953125 8.71875 -1.953125 C 10.34375 -1.953125 11.53125 -2.675781 12.28125 -4.125 C 13.039062 -5.570312 13.421875 -7.800781 13.421875 -10.8125 Z M 13.421875 -10.8125 "/></g></g><g transform="translate(304.62933, 589.127558)"><g><path d="M 16.234375 -10.8125 C 16.234375 -7.195312 15.597656 -4.4375 14.328125 -2.53125 C 13.054688 -0.632812 11.175781 0.3125 8.6875 0.3125 C 6.207031 0.3125 4.34375 -0.628906 3.09375 -2.515625 C 1.84375 -4.410156 1.21875 -7.175781 1.21875 -10.8125 C 1.21875 -14.519531 1.820312 -17.296875 3.03125 -19.140625 C 4.25 -20.992188 6.164062 -21.921875 8.78125 -21.921875 C 11.320312 -21.921875 13.195312 -20.984375 14.40625 -19.109375 C 15.625 -17.242188 16.234375 -14.476562 16.234375 -10.8125 Z M 13.421875 -10.8125 C 13.421875 -13.925781 13.0625 -16.179688 12.34375 -17.578125 C 11.625 -18.984375 10.4375 -19.6875 8.78125 -19.6875 C 7.082031 -19.6875 5.863281 -18.992188 5.125 -17.609375 C 4.382812 -16.234375 4.015625 -13.96875 4.015625 -10.8125 C 4.015625 -7.738281 4.390625 -5.492188 5.140625 -4.078125 C 5.890625 -2.660156 7.082031 -1.953125 8.71875 -1.953125 C 10.34375 -1.953125 11.53125 -2.675781 12.28125 -4.125 C 13.039062 -5.570312 13.421875 -7.800781 13.421875 -10.8125 Z M 13.421875 -10.8125 "/></g></g></g><g fill="#000000" fill-opacity="1"><g transform="translate(269.721728, 463.595061)"><g><path d="M 13.5 -4.890625 L 13.5 0 L 10.890625 0 L 10.890625 -4.890625 L 0.71875 -4.890625 L 0.71875 -7.03125 L 10.609375 -21.59375 L 13.5 -21.59375 L 13.5 -7.0625 L 16.53125 -7.0625 L 16.53125 -4.890625 Z M 10.890625 -18.484375 C 10.867188 -18.421875 10.722656 -18.148438 10.453125 -17.671875 C 10.191406 -17.191406 10 -16.851562 9.875 -16.65625 L 4.34375 -8.5 L 3.515625 -7.375 L 3.265625 -7.0625 L 10.890625 -7.0625 Z M 10.890625 -18.484375 "/></g></g><g transform="translate(287.175529, 463.595061)"><g><path d="M 16.234375 -10.8125 C 16.234375 -7.195312 15.597656 -4.4375 14.328125 -2.53125 C 13.054688 -0.632812 11.175781 0.3125 8.6875 0.3125 C 6.207031 0.3125 4.34375 -0.628906 3.09375 -2.515625 C 1.84375 -4.410156 1.21875 -7.175781 1.21875 -10.8125 C 1.21875 -14.519531 1.820312 -17.296875 3.03125 -19.140625 C 4.25 -20.992188 6.164062 -21.921875 8.78125 -21.921875 C 11.320312 -21.921875 13.195312 -20.984375 14.40625 -19.109375 C 15.625 -17.242188 16.234375 -14.476562 16.234375 -10.8125 Z M 13.421875 -10.8125 C 13.421875 -13.925781 13.0625 -16.179688 12.34375 -17.578125 C 11.625 -18.984375 10.4375 -19.6875 8.78125 -19.6875 C 7.082031 -19.6875 5.863281 -18.992188 5.125 -17.609375 C 4.382812 -16.234375 4.015625 -13.96875 4.015625 -10.8125 C 4.015625 -7.738281 4.390625 -5.492188 5.140625 -4.078125 C 5.890625 -2.660156 7.082031 -1.953125 8.71875 -1.953125 C 10.34375 -1.953125 11.53125 -2.675781 12.28125 -4.125 C 13.039062 -5.570312 13.421875 -7.800781 13.421875 -10.8125 Z M 13.421875 -10.8125 "/></g></g><g transform="translate(304.62933, 463.595061)"><g><path d="M 16.234375 -10.8125 C 16.234375 -7.195312 15.597656 -4.4375 14.328125 -2.53125 C 13.054688 -0.632812 11.175781 0.3125 8.6875 0.3125 C 6.207031 0.3125 4.34375 -0.628906 3.09375 -2.515625 C 1.84375 -4.410156 1.21875 -7.175781 1.21875 -10.8125 C 1.21875 -14.519531 1.820312 -17.296875 3.03125 -19.140625 C 4.25 -20.992188 6.164062 -21.921875 8.78125 -21.921875 C 11.320312 -21.921875 13.195312 -20.984375 14.40625 -19.109375 C 15.625 -17.242188 16.234375 -14.476562 16.234375 -10.8125 Z M 13.421875 -10.8125 C 13.421875 -13.925781 13.0625 -16.179688 12.34375 -17.578125 C 11.625 -18.984375 10.4375 -19.6875 8.78125 -19.6875 C 7.082031 -19.6875 5.863281 -18.992188 5.125 -17.609375 C 4.382812 -16.234375 4.015625 -13.96875 4.015625 -10.8125 C 4.015625 -7.738281 4.390625 -5.492188 5.140625 -4.078125 C 5.890625 -2.660156 7.082031 -1.953125 8.71875 -1.953125 C 10.34375 -1.953125 11.53125 -2.675781 12.28125 -4.125 C 13.039062 -5.570312 13.421875 -7.800781 13.421875 -10.8125 Z M 13.421875 -10.8125 "/></g></g></g><g fill="#000000" fill-opacity="1"><g transform="translate(269.721728, 338.062561)"><g><path d="M 16.078125 -7.0625 C 16.078125 -4.78125 15.457031 -2.976562 14.21875 -1.65625 C 12.988281 -0.34375 11.285156 0.3125 9.109375 0.3125 C 6.671875 0.3125 4.804688 -0.59375 3.515625 -2.40625 C 2.234375 -4.21875 1.59375 -6.847656 1.59375 -10.296875 C 1.59375 -14.035156 2.257812 -16.90625 3.59375 -18.90625 C 4.9375 -20.914062 6.84375 -21.921875 9.3125 -21.921875 C 12.570312 -21.921875 14.628906 -20.453125 15.484375 -17.515625 L 12.84375 -17.046875 C 12.300781 -18.804688 11.113281 -19.6875 9.28125 -19.6875 C 7.707031 -19.6875 6.488281 -18.953125 5.625 -17.484375 C 4.769531 -16.015625 4.34375 -13.890625 4.34375 -11.109375 C 4.84375 -12.035156 5.546875 -12.742188 6.453125 -13.234375 C 7.359375 -13.722656 8.398438 -13.96875 9.578125 -13.96875 C 11.566406 -13.96875 13.144531 -13.34375 14.3125 -12.09375 C 15.488281 -10.84375 16.078125 -9.164062 16.078125 -7.0625 Z M 13.28125 -6.9375 C 13.28125 -8.5 12.894531 -9.703125 12.125 -10.546875 C 11.351562 -11.398438 10.285156 -11.828125 8.921875 -11.828125 C 7.628906 -11.828125 6.585938 -11.453125 5.796875 -10.703125 C 5.003906 -9.953125 4.609375 -8.921875 4.609375 -7.609375 C 4.609375 -5.941406 5.019531 -4.578125 5.84375 -3.515625 C 6.664062 -2.453125 7.722656 -1.921875 9.015625 -1.921875 C 10.335938 -1.921875 11.378906 -2.363281 12.140625 -3.25 C 12.898438 -4.144531 13.28125 -5.375 13.28125 -6.9375 Z M 13.28125 -6.9375 "/></g></g><g transform="translate(287.175529, 338.062561)"><g><path d="M 16.234375 -10.8125 C 16.234375 -7.195312 15.597656 -4.4375 14.328125 -2.53125 C 13.054688 -0.632812 11.175781 0.3125 8.6875 0.3125 C 6.207031 0.3125 4.34375 -0.628906 3.09375 -2.515625 C 1.84375 -4.410156 1.21875 -7.175781 1.21875 -10.8125 C 1.21875 -14.519531 1.820312 -17.296875 3.03125 -19.140625 C 4.25 -20.992188 6.164062 -21.921875 8.78125 -21.921875 C 11.320312 -21.921875 13.195312 -20.984375 14.40625 -19.109375 C 15.625 -17.242188 16.234375 -14.476562 16.234375 -10.8125 Z M 13.421875 -10.8125 C 13.421875 -13.925781 13.0625 -16.179688 12.34375 -17.578125 C 11.625 -18.984375 10.4375 -19.6875 8.78125 -19.6875 C 7.082031 -19.6875 5.863281 -18.992188 5.125 -17.609375 C 4.382812 -16.234375 4.015625 -13.96875 4.015625 -10.8125 C 4.015625 -7.738281 4.390625 -5.492188 5.140625 -4.078125 C 5.890625 -2.660156 7.082031 -1.953125 8.71875 -1.953125 C 10.34375 -1.953125 11.53125 -2.675781 12.28125 -4.125 C 13.039062 -5.570312 13.421875 -7.800781 13.421875 -10.8125 Z M 13.421875 -10.8125 "/></g></g><g transform="translate(304.62933, 338.062561)"><g><path d="M 16.234375 -10.8125 C 16.234375 -7.195312 15.597656 -4.4375 14.328125 -2.53125 C 13.054688 -0.632812 11.175781 0.3125 8.6875 0.3125 C 6.207031 0.3125 4.34375 -0.628906 3.09375 -2.515625 C 1.84375 -4.410156 1.21875 -7.175781 1.21875 -10.8125 C 1.21875 -14.519531 1.820312 -17.296875 3.03125 -19.140625 C 4.25 -20.992188 6.164062 -21.921875 8.78125 -21.921875 C 11.320312 -21.921875 13.195312 -20.984375 14.40625 -19.109375 C 15.625 -17.242188 16.234375 -14.476562 16.234375 -10.8125 Z M 13.421875 -10.8125 C 13.421875 -13.925781 13.0625 -16.179688 12.34375 -17.578125 C 11.625 -18.984375 10.4375 -19.6875 8.78125 -19.6875 C 7.082031 -19.6875 5.863281 -18.992188 5.125 -17.609375 C 4.382812 -16.234375 4.015625 -13.96875 4.015625 -10.8125 C 4.015625 -7.738281 4.390625 -5.492188 5.140625 -4.078125 C 5.890625 -2.660156 7.082031 -1.953125 8.71875 -1.953125 C 10.34375 -1.953125 11.53125 -2.675781 12.28125 -4.125 C 13.039062 -5.570312 13.421875 -7.800781 13.421875 -10.8125 Z M 13.421875 -10.8125 "/></g></g></g><g fill="#000000" fill-opacity="1"><g transform="translate(269.721728, 212.530029)"><g><path d="M 16.09375 -6.03125 C 16.09375 -4.03125 15.457031 -2.472656 14.1875 -1.359375 C 12.925781 -0.242188 11.109375 0.3125 8.734375 0.3125 C 6.421875 0.3125 4.613281 -0.234375 3.3125 -1.328125 C 2.007812 -2.421875 1.359375 -3.976562 1.359375 -6 C 1.359375 -7.40625 1.757812 -8.585938 2.5625 -9.546875 C 3.375 -10.503906 4.410156 -11.085938 5.671875 -11.296875 L 5.671875 -11.359375 C 4.492188 -11.628906 3.566406 -12.222656 2.890625 -13.140625 C 2.210938 -14.066406 1.875 -15.148438 1.875 -16.390625 C 1.875 -18.035156 2.488281 -19.367188 3.71875 -20.390625 C 4.945312 -21.410156 6.597656 -21.921875 8.671875 -21.921875 C 10.796875 -21.921875 12.472656 -21.421875 13.703125 -20.421875 C 14.941406 -19.421875 15.5625 -18.066406 15.5625 -16.359375 C 15.5625 -15.117188 15.21875 -14.035156 14.53125 -13.109375 C 13.84375 -12.191406 12.90625 -11.617188 11.71875 -11.390625 L 11.71875 -11.328125 C 13.101562 -11.097656 14.175781 -10.507812 14.9375 -9.5625 C 15.707031 -8.625 16.09375 -7.445312 16.09375 -6.03125 Z M 12.6875 -16.203125 C 12.6875 -18.640625 11.347656 -19.859375 8.671875 -19.859375 C 7.378906 -19.859375 6.390625 -19.550781 5.703125 -18.9375 C 5.023438 -18.332031 4.6875 -17.421875 4.6875 -16.203125 C 4.6875 -14.960938 5.035156 -14.019531 5.734375 -13.375 C 6.441406 -12.726562 7.429688 -12.40625 8.703125 -12.40625 C 10.003906 -12.40625 10.992188 -12.703125 11.671875 -13.296875 C 12.347656 -13.890625 12.6875 -14.859375 12.6875 -16.203125 Z M 13.234375 -6.28125 C 13.234375 -7.625 12.832031 -8.632812 12.03125 -9.3125 C 11.238281 -9.988281 10.117188 -10.328125 8.671875 -10.328125 C 7.273438 -10.328125 6.179688 -9.960938 5.390625 -9.234375 C 4.609375 -8.503906 4.21875 -7.5 4.21875 -6.21875 C 4.21875 -3.25 5.734375 -1.765625 8.765625 -1.765625 C 10.265625 -1.765625 11.382812 -2.125 12.125 -2.84375 C 12.863281 -3.5625 13.234375 -4.707031 13.234375 -6.28125 Z M 13.234375 -6.28125 "/></g></g><g transform="translate(287.175529, 212.530029)"><g><path d="M 16.234375 -10.8125 C 16.234375 -7.195312 15.597656 -4.4375 14.328125 -2.53125 C 13.054688 -0.632812 11.175781 0.3125 8.6875 0.3125 C 6.207031 0.3125 4.34375 -0.628906 3.09375 -2.515625 C 1.84375 -4.410156 1.21875 -7.175781 1.21875 -10.8125 C 1.21875 -14.519531 1.820312 -17.296875 3.03125 -19.140625 C 4.25 -20.992188 6.164062 -21.921875 8.78125 -21.921875 C 11.320312 -21.921875 13.195312 -20.984375 14.40625 -19.109375 C 15.625 -17.242188 16.234375 -14.476562 16.234375 -10.8125 Z M 13.421875 -10.8125 C 13.421875 -13.925781 13.0625 -16.179688 12.34375 -17.578125 C 11.625 -18.984375 10.4375 -19.6875 8.78125 -19.6875 C 7.082031 -19.6875 5.863281 -18.992188 5.125 -17.609375 C 4.382812 -16.234375 4.015625 -13.96875 4.015625 -10.8125 C 4.015625 -7.738281 4.390625 -5.492188 5.140625 -4.078125 C 5.890625 -2.660156 7.082031 -1.953125 8.71875 -1.953125 C 10.34375 -1.953125 11.53125 -2.675781 12.28125 -4.125 C 13.039062 -5.570312 13.421875 -7.800781 13.421875 -10.8125 Z M 13.421875 -10.8125 "/></g></g><g transform="translate(304.62933, 212.530029)"><g><path d="M 16.234375 -10.8125 C 16.234375 -7.195312 15.597656 -4.4375 14.328125 -2.53125 C 13.054688 -0.632812 11.175781 0.3125 8.6875 0.3125 C 6.207031 0.3125 4.34375 -0.628906 3.09375 -2.515625 C 1.84375 -4.410156 1.21875 -7.175781 1.21875 -10.8125 C 1.21875 -14.519531 1.820312 -17.296875 3.03125 -19.140625 C 4.25 -20.992188 6.164062 -21.921875 8.78125 -21.921875 C 11.320312 -21.921875 13.195312 -20.984375 14.40625 -19.109375 C 15.625 -17.242188 16.234375 -14.476562 16.234375 -10.8125 Z M 13.421875 -10.8125 C 13.421875 -13.925781 13.0625 -16.179688 12.34375 -17.578125 C 11.625 -18.984375 10.4375 -19.6875 8.78125 -19.6875 C 7.082031 -19.6875 5.863281 -18.992188 5.125 -17.609375 C 4.382812 -16.234375 4.015625 -13.96875 4.015625 -10.8125 C 4.015625 -7.738281 4.390625 -5.492188 5.140625 -4.078125 C 5.890625 -2.660156 7.082031 -1.953125 8.71875 -1.953125 C 10.34375 -1.953125 11.53125 -2.675781 12.28125 -4.125 C 13.039062 -5.570312 13.421875 -7.800781 13.421875 -10.8125 Z M 13.421875 -10.8125 "/></g></g></g><g fill="#000000" fill-opacity="1"><g transform="translate(253.141402, 86.997517)"><g><path d="M 2.390625 0 L 2.390625 -2.34375 L 7.890625 -2.34375 L 7.890625 -18.953125 L 3.015625 -15.484375 L 3.015625 -18.09375 L 8.125 -21.59375 L 10.671875 -21.59375 L 10.671875 -2.34375 L 15.921875 -2.34375 L 15.921875 0 Z M 2.390625 0 "/></g></g><g transform="translate(270.595203, 86.997517)"><g><path d="M 16.234375 -10.8125 C 16.234375 -7.195312 15.597656 -4.4375 14.328125 -2.53125 C 13.054688 -0.632812 11.175781 0.3125 8.6875 0.3125 C 6.207031 0.3125 4.34375 -0.628906 3.09375 -2.515625 C 1.84375 -4.410156 1.21875 -7.175781 1.21875 -10.8125 C 1.21875 -14.519531 1.820312 -17.296875 3.03125 -19.140625 C 4.25 -20.992188 6.164062 -21.921875 8.78125 -21.921875 C 11.320312 -21.921875 13.195312 -20.984375 14.40625 -19.109375 C 15.625 -17.242188 16.234375 -14.476562 16.234375 -10.8125 Z M 13.421875 -10.8125 C 13.421875 -13.925781 13.0625 -16.179688 12.34375 -17.578125 C 11.625 -18.984375 10.4375 -19.6875 8.78125 -19.6875 C 7.082031 -19.6875 5.863281 -18.992188 5.125 -17.609375 C 4.382812 -16.234375 4.015625 -13.96875 4.015625 -10.8125 C 4.015625 -7.738281 4.390625 -5.492188 5.140625 -4.078125 C 5.890625 -2.660156 7.082031 -1.953125 8.71875 -1.953125 C 10.34375 -1.953125 11.53125 -2.675781 12.28125 -4.125 C 13.039062 -5.570312 13.421875 -7.800781 13.421875 -10.8125 Z M 13.421875 -10.8125 "/></g></g><g transform="translate(288.049004, 86.997517)"><g><path d="M 16.234375 -10.8125 C 16.234375 -7.195312 15.597656 -4.4375 14.328125 -2.53125 C 13.054688 -0.632812 11.175781 0.3125 8.6875 0.3125 C 6.207031 0.3125 4.34375 -0.628906 3.09375 -2.515625 C 1.84375 -4.410156 1.21875 -7.175781 1.21875 -10.8125 C 1.21875 -14.519531 1.820312 -17.296875 3.03125 -19.140625 C 4.25 -20.992188 6.164062 -21.921875 8.78125 -21.921875 C 11.320312 -21.921875 13.195312 -20.984375 14.40625 -19.109375 C 15.625 -17.242188 16.234375 -14.476562 16.234375 -10.8125 Z M 13.421875 -10.8125 C 13.421875 -13.925781 13.0625 -16.179688 12.34375 -17.578125 C 11.625 -18.984375 10.4375 -19.6875 8.78125 -19.6875 C 7.082031 -19.6875 5.863281 -18.992188 5.125 -17.609375 C 4.382812 -16.234375 4.015625 -13.96875 4.015625 -10.8125 C 4.015625 -7.738281 4.390625 -5.492188 5.140625 -4.078125 C 5.890625 -2.660156 7.082031 -1.953125 8.71875 -1.953125 C 10.34375 -1.953125 11.53125 -2.675781 12.28125 -4.125 C 13.039062 -5.570312 13.421875 -7.800781 13.421875 -10.8125 Z M 13.421875 -10.8125 "/></g></g><g transform="translate(305.502805, 86.997517)"><g><path d="M 16.234375 -10.8125 C 16.234375 -7.195312 15.597656 -4.4375 14.328125 -2.53125 C 13.054688 -0.632812 11.175781 0.3125 8.6875 0.3125 C 6.207031 0.3125 4.34375 -0.628906 3.09375 -2.515625 C 1.84375 -4.410156 1.21875 -7.175781 1.21875 -10.8125 C 1.21875 -14.519531 1.820312 -17.296875 3.03125 -19.140625 C 4.25 -20.992188 6.164062 -21.921875 8.78125 -21.921875 C 11.320312 -21.921875 13.195312 -20.984375 14.40625 -19.109375 C 15.625 -17.242188 16.234375 -14.476562 16.234375 -10.8125 Z M 13.421875 -10.8125 C 13.421875 -13.925781 13.0625 -16.179688 12.34375 -17.578125 C 11.625 -18.984375 10.4375 -19.6875 8.78125 -19.6875 C 7.082031 -19.6875 5.863281 -18.992188 5.125 -17.609375 C 4.382812 -16.234375 4.015625 -13.96875 4.015625 -10.8125 C 4.015625 -7.738281 4.390625 -5.492188 5.140625 -4.078125 C 5.890625 -2.660156 7.082031 -1.953125 8.71875 -1.953125 C 10.34375 -1.953125 11.53125 -2.675781 12.28125 -4.125 C 13.039062 -5.570312 13.421875 -7.800781 13.421875 -10.8125 Z M 13.421875 -10.8125 "/></g></g></g><path stroke-linecap="butt" transform="matrix(1.961446, 0, 0, 1.961446, 347.765818, 76.209566)" fill="none" stroke-linejoin="miter" d="M -0.0000985633 319.999458 L 428.305258 319.999458 " stroke="#000000" stroke-width="1" stroke-opacity="0.6" stroke-miterlimit="4"/><path stroke-linecap="butt" transform="matrix(1.961446, 0, 0, 1.961446, 347.765818, 76.209566)" fill="none" stroke-linejoin="miter" d="M -0.0000985633 256.000105 L 428.305258 256.000105 " stroke="#000000" stroke-width="1" stroke-opacity="0.251" stroke-miterlimit="4"/><path stroke-linecap="butt" transform="matrix(1.961446, 0, 0, 1.961446, 347.765818, 76.209566)" fill="none" stroke-linejoin="miter" d="M -0.0000985633 192.000751 L 428.305258 192.000751 " stroke="#000000" stroke-width="1" stroke-opacity="0.251" stroke-miterlimit="4"/><path stroke-linecap="butt" transform="matrix(1.961446, 0, 0, 1.961446, 347.765818, 76.209566)" fill="none" stroke-linejoin="miter" d="M -0.0000985633 127.999406 L 428.305258 127.999406 " stroke="#000000" stroke-width="1" stroke-opacity="0.251" stroke-miterlimit="4"/><path stroke-linecap="butt" transform="matrix(1.961446, 0, 0, 1.961446, 347.765818, 76.209566)" fill="none" stroke-linejoin="miter" d="M -0.0000985633 64.000053 L 428.305258 64.000053 " stroke="#000000" stroke-width="1" stroke-opacity="0.251" stroke-miterlimit="4"/><path stroke-linecap="butt" transform="matrix(1.961446, 0, 0, 1.961446, 347.765818, 76.209566)" fill="none" stroke-linejoin="miter" d="M -0.0000985633 0.000699348 L 428.305258 0.000699348 " stroke="#000000" stroke-width="1" stroke-opacity="0.251" stroke-miterlimit="4"/><g clip-path="url(#80c6cfa53f)"><path fill="#8fd29e" d="M 350.539062 421.425781 L 379.644531 421.425781 C 380.015625 421.425781 380.367188 421.496094 380.707031 421.636719 C 381.046875 421.777344 381.347656 421.976562 381.605469 422.234375 C 381.867188 422.496094 382.066406 422.796875 382.207031 423.136719 C 382.347656 423.476562 382.417969 423.828125 382.417969 424.195312 L 382.417969 703.871094 C 382.417969 704.238281 382.347656 704.59375 382.207031 704.933594 C 382.066406 705.273438 381.867188 705.574219 381.605469 705.832031 C 381.347656 706.09375 381.046875 706.292969 380.707031 706.433594 C 380.367188 706.574219 380.015625 706.644531 379.644531 706.644531 L 350.539062 706.644531 C 350.171875 706.644531 349.816406 706.574219 349.476562 706.433594 C 349.136719 706.292969 348.835938 706.09375 348.578125 705.832031 C 348.316406 705.574219 348.117188 705.273438 347.976562 704.933594 C 347.835938 704.59375 347.765625 704.238281 347.765625 703.871094 L 347.765625 424.195312 C 347.765625 423.828125 347.835938 423.476562 347.976562 423.136719 C 348.117188 422.796875 348.316406 422.496094 348.578125 422.234375 C 348.835938 421.976562 349.136719 421.777344 349.476562 421.636719 C 349.816406 421.496094 350.171875 421.425781 350.539062 421.425781 Z M 350.539062 421.425781 " fill-opacity="1" fill-rule="nonzero"/></g><g clip-path="url(#3590b5f9c1)"><path fill="#e86c6c" d="M 387.015625 390.039062 L 416.125 390.039062 C 416.492188 390.039062 416.84375 390.109375 417.183594 390.25 C 417.523438 390.390625 417.824219 390.59375 418.082031 390.851562 C 418.34375 391.113281 418.542969 391.414062 418.683594 391.753906 C 418.824219 392.089844 418.894531 392.445312 418.894531 392.8125 L 418.894531 703.871094 C 418.894531 704.238281 418.824219 704.59375 418.683594 704.933594 C 418.542969 705.273438 418.34375 705.574219 418.082031 705.832031 C 417.824219 706.09375 417.523438 706.292969 417.183594 706.433594 C 416.84375 706.574219 416.492188 706.644531 416.125 706.644531 L 387.015625 706.644531 C 386.648438 706.644531 386.292969 706.574219 385.953125 706.433594 C 385.613281 706.292969 385.3125 706.09375 385.054688 705.832031 C 384.792969 705.574219 384.59375 705.273438 384.453125 704.933594 C 384.3125 704.59375 384.242188 704.238281 384.242188 703.871094 L 384.242188 392.8125 C 384.242188 392.445312 384.3125 392.089844 384.453125 391.753906 C 384.59375 391.414062 384.792969 391.113281 385.054688 390.851562 C 385.3125 390.59375 385.613281 390.390625 385.953125 390.25 C 386.292969 390.109375 386.648438 390.039062 387.015625 390.039062 Z M 387.015625 390.039062 " fill-opacity="1" fill-rule="nonzero"/></g><g clip-path="url(#ff5700eeb9)"><path fill="#8fd29e" d="M 427.433594 390.039062 L 456.542969 390.039062 C 456.910156 390.039062 457.265625 390.109375 457.605469 390.25 C 457.945312 390.390625 458.242188 390.59375 458.503906 390.851562 C 458.761719 391.113281 458.964844 391.414062 459.105469 391.753906 C 459.246094 392.089844 459.316406 392.445312 459.316406 392.8125 L 459.316406 703.871094 C 459.316406 704.238281 459.246094 704.59375 459.105469 704.933594 C 458.964844 705.273438 458.761719 705.574219 458.503906 705.832031 C 458.242188 706.09375 457.945312 706.292969 457.605469 706.433594 C 457.265625 706.574219 456.910156 706.644531 456.542969 706.644531 L 427.433594 706.644531 C 427.066406 706.644531 426.714844 706.574219 426.375 706.433594 C 426.035156 706.292969 425.734375 706.09375 425.472656 705.832031 C 425.214844 705.574219 425.015625 705.273438 424.875 704.933594 C 424.734375 704.59375 424.664062 704.238281 424.664062 703.871094 L 424.664062 392.8125 C 424.664062 392.445312 424.734375 392.089844 424.875 391.753906 C 425.015625 391.414062 425.214844 391.113281 425.472656 390.851562 C 425.734375 390.59375 426.035156 390.390625 426.375 390.25 C 426.714844 390.109375 427.066406 390.039062 427.433594 390.039062 Z M 427.433594 390.039062 " fill-opacity="1" fill-rule="nonzero"/></g><g clip-path="url(#9e4295d682)"><path fill="#e86c6c" d="M 463.910156 390.039062 L 493.019531 390.039062 C 493.386719 390.039062 493.742188 390.109375 494.082031 390.25 C 494.421875 390.390625 494.71875 390.59375 494.980469 390.851562 C 495.238281 391.113281 495.441406 391.414062 495.582031 391.753906 C 495.722656 392.089844 495.792969 392.445312 495.792969 392.8125 L 495.792969 703.871094 C 495.792969 704.238281 495.722656 704.59375 495.582031 704.933594 C 495.441406 705.273438 495.238281 705.574219 494.980469 705.832031 C 494.71875 706.09375 494.421875 706.292969 494.082031 706.433594 C 493.742188 706.574219 493.386719 706.644531 493.019531 706.644531 L 463.910156 706.644531 C 463.542969 706.644531 463.191406 706.574219 462.851562 706.433594 C 462.511719 706.292969 462.210938 706.09375 461.953125 705.832031 C 461.691406 705.574219 461.492188 705.273438 461.351562 704.933594 C 461.210938 704.59375 461.140625 704.238281 461.140625 703.871094 L 461.140625 392.8125 C 461.140625 392.445312 461.210938 392.089844 461.351562 391.753906 C 461.492188 391.414062 461.691406 391.113281 461.953125 390.851562 C 462.210938 390.59375 462.511719 390.390625 462.851562 390.25 C 463.191406 390.109375 463.542969 390.039062 463.910156 390.039062 Z M 463.910156 390.039062 " fill-opacity="1" fill-rule="nonzero"/></g><g clip-path="url(#e6753ec615)"><path fill="#8fd29e" d="M 504.332031 327.273438 L 533.441406 327.273438 C 533.808594 327.273438 534.160156 327.34375 534.5 327.484375 C 534.839844 327.625 535.140625 327.828125 535.398438 328.085938 C 535.660156 328.347656 535.859375 328.644531 536 328.984375 C 536.140625 329.324219 536.210938 329.679688 536.210938 330.046875 L 536.210938 703.871094 C 536.210938 704.238281 536.140625 704.59375 536 704.933594 C 535.859375 705.273438 535.660156 705.574219 535.398438 705.832031 C 535.140625 706.09375 534.839844 706.292969 534.5 706.433594 C 534.160156 706.574219 533.808594 706.644531 533.441406 706.644531 L 504.332031 706.644531 C 503.964844 706.644531 503.609375 706.574219 503.269531 706.433594 C 502.929688 706.292969 502.632812 706.09375 502.371094 705.832031 C 502.113281 705.574219 501.910156 705.273438 501.769531 704.933594 C 501.628906 704.59375 501.558594 704.238281 501.558594 703.871094 L 501.558594 330.046875 C 501.558594 329.679688 501.628906 329.324219 501.769531 328.984375 C 501.910156 328.644531 502.113281 328.347656 502.371094 328.085938 C 502.632812 327.828125 502.929688 327.625 503.269531 327.484375 C 503.609375 327.34375 503.964844 327.273438 504.332031 327.273438 Z M 504.332031 327.273438 " fill-opacity="1" fill-rule="nonzero"/></g><g clip-path="url(#570f84ae35)"><path fill="#e86c6c" d="M 540.808594 421.425781 L 569.917969 421.425781 C 570.285156 421.425781 570.636719 421.496094 570.976562 421.636719 C 571.316406 421.777344 571.617188 421.976562 571.875 422.234375 C 572.136719 422.496094 572.335938 422.796875 572.476562 423.136719 C 572.617188 423.476562 572.6875 423.828125 572.6875 424.195312 L 572.6875 703.871094 C 572.6875 704.238281 572.617188 704.59375 572.476562 704.933594 C 572.335938 705.273438 572.136719 705.574219 571.875 705.832031 C 571.617188 706.09375 571.316406 706.292969 570.976562 706.433594 C 570.636719 706.574219 570.285156 706.644531 569.917969 706.644531 L 540.808594 706.644531 C 540.441406 706.644531 540.085938 706.574219 539.746094 706.433594 C 539.40625 706.292969 539.109375 706.09375 538.847656 705.832031 C 538.589844 705.574219 538.386719 705.273438 538.246094 704.933594 C 538.105469 704.59375 538.035156 704.238281 538.035156 703.871094 L 538.035156 424.195312 C 538.035156 423.828125 538.105469 423.476562 538.246094 423.136719 C 538.386719 422.796875 538.589844 422.496094 538.847656 422.234375 C 539.109375 421.976562 539.40625 421.777344 539.746094 421.636719 C 540.085938 421.496094 540.441406 421.425781 540.808594 421.425781 Z M 540.808594 421.425781 " fill-opacity="1" fill-rule="nonzero"/></g><g clip-path="url(#e9f95575da)"><path fill="#8fd29e" d="M 581.226562 484.191406 L 610.335938 484.191406 C 610.703125 484.191406 611.058594 484.261719 611.398438 484.402344 C 611.738281 484.542969 612.035156 484.742188 612.296875 485.003906 C 612.558594 485.261719 612.757812 485.5625 612.898438 485.902344 C 613.039062 486.242188 613.109375 486.59375 613.109375 486.960938 L 613.109375 703.871094 C 613.109375 704.238281 613.039062 704.59375 612.898438 704.933594 C 612.757812 705.273438 612.558594 705.574219 612.296875 705.832031 C 612.035156 706.09375 611.738281 706.292969 611.398438 706.433594 C 611.058594 706.574219 610.703125 706.644531 610.335938 706.644531 L 581.226562 706.644531 C 580.859375 706.644531 580.507812 706.574219 580.167969 706.433594 C 579.828125 706.292969 579.527344 706.09375 579.269531 705.832031 C 579.007812 705.574219 578.808594 705.273438 578.667969 704.933594 C 578.527344 704.59375 578.457031 704.238281 578.457031 703.871094 L 578.457031 486.960938 C 578.457031 486.59375 578.527344 486.242188 578.667969 485.902344 C 578.808594 485.5625 579.007812 485.261719 579.269531 485.003906 C 579.527344 484.742188 579.828125 484.542969 580.167969 484.402344 C 580.507812 484.261719 580.859375 484.191406 581.226562 484.191406 Z M 581.226562 484.191406 " fill-opacity="1" fill-rule="nonzero"/></g><g clip-path="url(#e9b21ce236)"><path fill="#e86c6c" d="M 617.703125 421.425781 L 646.8125 421.425781 C 647.179688 421.425781 647.535156 421.496094 647.875 421.636719 C 648.214844 421.777344 648.515625 421.976562 648.773438 422.234375 C 649.035156 422.496094 649.234375 422.796875 649.375 423.136719 C 649.515625 423.476562 649.585938 423.828125 649.585938 424.195312 L 649.585938 703.871094 C 649.585938 704.238281 649.515625 704.59375 649.375 704.933594 C 649.234375 705.273438 649.035156 705.574219 648.773438 705.832031 C 648.515625 706.09375 648.214844 706.292969 647.875 706.433594 C 647.535156 706.574219 647.179688 706.644531 646.8125 706.644531 L 617.703125 706.644531 C 617.335938 706.644531 616.984375 706.574219 616.644531 706.433594 C 616.304688 706.292969 616.003906 706.09375 615.746094 705.832031 C 615.484375 705.574219 615.285156 705.273438 615.144531 704.933594 C 615.003906 704.59375 614.933594 704.238281 614.933594 703.871094 L 614.933594 424.195312 C 614.933594 423.828125 615.003906 423.476562 615.144531 423.136719 C 615.285156 422.796875 615.484375 422.496094 615.746094 422.234375 C 616.003906 421.976562 616.304688 421.777344 616.644531 421.636719 C 616.984375 421.496094 617.335938 421.425781 617.703125 421.425781 Z M 617.703125 421.425781 " fill-opacity="1" fill-rule="nonzero"/></g><g clip-path="url(#18e6fdc385)"><path fill="#8fd29e" d="M 658.125 452.808594 L 687.234375 452.808594 C 687.601562 452.808594 687.953125 452.878906 688.292969 453.019531 C 688.632812 453.160156 688.933594 453.359375 689.195312 453.617188 C 689.453125 453.878906 689.652344 454.179688 689.792969 454.519531 C 689.933594 454.859375 690.003906 455.210938 690.003906 455.578125 L 690.003906 703.871094 C 690.003906 704.238281 689.933594 704.59375 689.792969 704.933594 C 689.652344 705.273438 689.453125 705.574219 689.195312 705.832031 C 688.933594 706.09375 688.632812 706.292969 688.292969 706.433594 C 687.953125 706.574219 687.601562 706.644531 687.234375 706.644531 L 658.125 706.644531 C 657.757812 706.644531 657.402344 706.574219 657.0625 706.433594 C 656.722656 706.292969 656.425781 706.09375 656.164062 705.832031 C 655.90625 705.574219 655.703125 705.273438 655.5625 704.933594 C 655.421875 704.59375 655.351562 704.238281 655.351562 703.871094 L 655.351562 455.578125 C 655.351562 455.210938 655.421875 454.859375 655.5625 454.519531 C 655.703125 454.179688 655.90625 453.878906 656.164062 453.617188 C 656.425781 453.359375 656.722656 453.160156 657.0625 453.019531 C 657.402344 452.878906 657.757812 452.808594 658.125 452.808594 Z M 658.125 452.808594 " fill-opacity="1" fill-rule="nonzero"/></g><g clip-path="url(#31b36ec65e)"><path fill="#e86c6c" d="M 694.601562 390.039062 L 723.710938 390.039062 C 724.078125 390.039062 724.429688 390.109375 724.769531 390.25 C 725.109375 390.390625 725.410156 390.59375 725.671875 390.851562 C 725.929688 391.113281 726.128906 391.414062 726.269531 391.753906 C 726.410156 392.089844 726.480469 392.445312 726.480469 392.8125 L 726.480469 703.871094 C 726.480469 704.238281 726.410156 704.59375 726.269531 704.933594 C 726.128906 705.273438 725.929688 705.574219 725.671875 705.832031 C 725.410156 706.09375 725.109375 706.292969 724.769531 706.433594 C 724.429688 706.574219 724.078125 706.644531 723.710938 706.644531 L 694.601562 706.644531 C 694.234375 706.644531 693.878906 706.574219 693.539062 706.433594 C 693.203125 706.292969 692.902344 706.09375 692.640625 705.832031 C 692.382812 705.574219 692.179688 705.273438 692.039062 704.933594 C 691.898438 704.59375 691.828125 704.238281 691.828125 703.871094 L 691.828125 392.8125 C 691.828125 392.445312 691.898438 392.089844 692.039062 391.753906 C 692.179688 391.414062 692.382812 391.113281 692.640625 390.851562 C 692.902344 390.59375 693.203125 390.390625 693.539062 390.25 C 693.878906 390.109375 694.234375 390.039062 694.601562 390.039062 Z M 694.601562 390.039062 " fill-opacity="1" fill-rule="nonzero"/></g><g clip-path="url(#8a840fddc9)"><path fill="#8fd29e" d="M 735.023438 390.039062 L 764.128906 390.039062 C 764.496094 390.039062 764.851562 390.109375 765.191406 390.25 C 765.53125 390.390625 765.832031 390.59375 766.089844 390.851562 C 766.351562 391.113281 766.550781 391.414062 766.691406 391.753906 C 766.832031 392.089844 766.902344 392.445312 766.902344 392.8125 L 766.902344 703.871094 C 766.902344 704.238281 766.832031 704.59375 766.691406 704.933594 C 766.550781 705.273438 766.351562 705.574219 766.089844 705.832031 C 765.832031 706.09375 765.53125 706.292969 765.191406 706.433594 C 764.851562 706.574219 764.496094 706.644531 764.128906 706.644531 L 735.023438 706.644531 C 734.652344 706.644531 734.300781 706.574219 733.960938 706.433594 C 733.621094 706.292969 733.320312 706.09375 733.0625 705.832031 C 732.800781 705.574219 732.601562 705.273438 732.460938 704.933594 C 732.320312 704.59375 732.25 704.238281 732.25 703.871094 L 732.25 392.8125 C 732.25 392.445312 732.320312 392.089844 732.460938 391.753906 C 732.601562 391.414062 732.800781 391.113281 733.0625 390.851562 C 733.320312 390.59375 733.621094 390.390625 733.960938 390.25 C 734.300781 390.109375 734.652344 390.039062 735.023438 390.039062 Z M 735.023438 390.039062 " fill-opacity="1" fill-rule="nonzero"/></g><g clip-path="url(#55a39dee64)"><path fill="#e86c6c" d="M 771.5 233.125 L 800.605469 233.125 C 800.972656 233.125 801.328125 233.195312 801.667969 233.335938 C 802.007812 233.476562 802.308594 233.675781 802.566406 233.9375 C 802.828125 234.195312 803.027344 234.496094 803.167969 234.835938 C 803.308594 235.175781 803.378906 235.53125 803.378906 235.898438 L 803.378906 703.871094 C 803.378906 704.238281 803.308594 704.59375 803.167969 704.933594 C 803.027344 705.273438 802.828125 705.574219 802.566406 705.832031 C 802.308594 706.09375 802.007812 706.292969 801.667969 706.433594 C 801.328125 706.574219 800.972656 706.644531 800.605469 706.644531 L 771.5 706.644531 C 771.132812 706.644531 770.777344 706.574219 770.4375 706.433594 C 770.097656 706.292969 769.796875 706.09375 769.539062 705.832031 C 769.277344 705.574219 769.078125 705.273438 768.9375 704.933594 C 768.796875 704.59375 768.726562 704.238281 768.726562 703.871094 L 768.726562 235.898438 C 768.726562 235.53125 768.796875 235.175781 768.9375 234.835938 C 769.078125 234.496094 769.277344 234.195312 769.539062 233.9375 C 769.796875 233.675781 770.097656 233.476562 770.4375 233.335938 C 770.777344 233.195312 771.132812 233.125 771.5 233.125 Z M 771.5 233.125 " fill-opacity="1" fill-rule="nonzero"/></g><g clip-path="url(#befc69334d)"><path fill="#8fd29e" d="M 811.917969 208.019531 L 841.027344 208.019531 C 841.394531 208.019531 841.75 208.089844 842.085938 208.230469 C 842.425781 208.371094 842.726562 208.570312 842.988281 208.832031 C 843.246094 209.089844 843.449219 209.390625 843.589844 209.730469 C 843.730469 210.070312 843.800781 210.421875 843.800781 210.789062 L 843.800781 703.871094 C 843.800781 704.238281 843.730469 704.59375 843.589844 704.933594 C 843.449219 705.273438 843.246094 705.574219 842.988281 705.832031 C 842.726562 706.09375 842.425781 706.292969 842.085938 706.433594 C 841.75 706.574219 841.394531 706.644531 841.027344 706.644531 L 811.917969 706.644531 C 811.550781 706.644531 811.199219 706.574219 810.859375 706.433594 C 810.519531 706.292969 810.21875 706.09375 809.957031 705.832031 C 809.699219 705.574219 809.5 705.273438 809.355469 704.933594 C 809.214844 704.59375 809.144531 704.238281 809.144531 703.871094 L 809.144531 210.789062 C 809.144531 210.421875 809.214844 210.070312 809.355469 209.730469 C 809.5 209.390625 809.699219 209.089844 809.957031 208.832031 C 810.21875 208.570312 810.519531 208.371094 810.859375 208.230469 C 811.199219 208.089844 811.550781 208.019531 811.917969 208.019531 Z M 811.917969 208.019531 " fill-opacity="1" fill-rule="nonzero"/></g><g clip-path="url(#ad497e8f29)"><path fill="#e86c6c" d="M 848.394531 201.742188 L 877.503906 201.742188 C 877.871094 201.742188 878.226562 201.8125 878.566406 201.953125 C 878.902344 202.09375 879.203125 202.292969 879.464844 202.554688 C 879.722656 202.8125 879.925781 203.113281 880.066406 203.453125 C 880.207031 203.792969 880.277344 204.148438 880.277344 204.515625 L 880.277344 703.871094 C 880.277344 704.238281 880.207031 704.59375 880.066406 704.933594 C 879.925781 705.273438 879.722656 705.574219 879.464844 705.832031 C 879.203125 706.09375 878.902344 706.292969 878.566406 706.433594 C 878.226562 706.574219 877.871094 706.644531 877.503906 706.644531 L 848.394531 706.644531 C 848.027344 706.644531 847.675781 706.574219 847.335938 706.433594 C 846.996094 706.292969 846.695312 706.09375 846.433594 705.832031 C 846.175781 705.574219 845.976562 705.273438 845.835938 704.933594 C 845.691406 704.59375 845.621094 704.238281 845.625 703.871094 L 845.625 204.515625 C 845.621094 204.148438 845.691406 203.792969 845.835938 203.453125 C 845.976562 203.113281 846.175781 202.8125 846.433594 202.554688 C 846.695312 202.292969 846.996094 202.09375 847.335938 201.953125 C 847.675781 201.8125 848.027344 201.742188 848.394531 201.742188 Z M 848.394531 201.742188 " fill-opacity="1" fill-rule="nonzero"/></g><g clip-path="url(#468aa6777e)"><path fill="#8fd29e" d="M 888.816406 415.148438 L 917.921875 415.148438 C 918.292969 415.148438 918.644531 415.21875 918.984375 415.359375 C 919.324219 415.5 919.625 415.699219 919.882812 415.960938 C 920.144531 416.21875 920.34375 416.519531 920.484375 416.859375 C 920.625 417.199219 920.695312 417.550781 920.695312 417.917969 L 920.695312 703.871094 C 920.695312 704.238281 920.625 704.59375 920.484375 704.933594 C 920.34375 705.273438 920.144531 705.574219 919.882812 705.832031 C 919.625 706.09375 919.324219 706.292969 918.984375 706.433594 C 918.644531 706.574219 918.292969 706.644531 917.921875 706.644531 L 888.816406 706.644531 C 888.449219 706.644531 888.09375 706.574219 887.753906 706.433594 C 887.414062 706.292969 887.113281 706.09375 886.855469 705.832031 C 886.59375 705.574219 886.394531 705.273438 886.253906 704.933594 C 886.113281 704.59375 886.042969 704.238281 886.042969 703.871094 L 886.042969 417.917969 C 886.042969 417.550781 886.113281 417.199219 886.253906 416.859375 C 886.394531 416.519531 886.59375 416.21875 886.855469 415.960938 C 887.113281 415.699219 887.414062 415.5 887.753906 415.359375 C 888.09375 415.21875 888.449219 415.148438 888.816406 415.148438 Z M 888.816406 415.148438 " fill-opacity="1" fill-rule="nonzero"/></g><g clip-path="url(#5d9ec5a7fb)"><path fill="#e86c6c" d="M 925.292969 452.808594 L 954.402344 452.808594 C 954.769531 452.808594 955.121094 452.878906 955.460938 453.019531 C 955.800781 453.160156 956.101562 453.359375 956.359375 453.617188 C 956.621094 453.878906 956.820312 454.179688 956.960938 454.519531 C 957.101562 454.859375 957.171875 455.210938 957.171875 455.578125 L 957.171875 703.871094 C 957.171875 704.238281 957.101562 704.59375 956.960938 704.933594 C 956.820312 705.273438 956.621094 705.574219 956.359375 705.832031 C 956.101562 706.09375 955.800781 706.292969 955.460938 706.433594 C 955.121094 706.574219 954.769531 706.644531 954.402344 706.644531 L 925.292969 706.644531 C 924.925781 706.644531 924.570312 706.574219 924.230469 706.433594 C 923.890625 706.292969 923.589844 706.09375 923.332031 705.832031 C 923.070312 705.574219 922.871094 705.273438 922.730469 704.933594 C 922.589844 704.59375 922.519531 704.238281 922.519531 703.871094 L 922.519531 455.578125 C 922.519531 455.210938 922.589844 454.859375 922.730469 454.519531 C 922.871094 454.179688 923.070312 453.878906 923.332031 453.617188 C 923.589844 453.359375 923.890625 453.160156 924.230469 453.019531 C 924.570312 452.878906 924.925781 452.808594 925.292969 452.808594 Z M 925.292969 452.808594 " fill-opacity="1" fill-rule="nonzero"/></g><g clip-path="url(#cfa330c2ec)"><path fill="#8fd29e" d="M 965.710938 484.191406 L 994.820312 484.191406 C 995.1875 484.191406 995.542969 484.261719 995.882812 484.402344 C 996.222656 484.542969 996.519531 484.742188 996.78125 485.003906 C 997.039062 485.261719 997.242188 485.5625 997.382812 485.902344 C 997.523438 486.242188 997.59375 486.59375 997.59375 486.960938 L 997.59375 703.871094 C 997.59375 704.238281 997.523438 704.59375 997.382812 704.933594 C 997.242188 705.273438 997.039062 705.574219 996.78125 705.832031 C 996.519531 706.09375 996.222656 706.292969 995.882812 706.433594 C 995.542969 706.574219 995.1875 706.644531 994.820312 706.644531 L 965.710938 706.644531 C 965.34375 706.644531 964.992188 706.574219 964.652344 706.433594 C 964.3125 706.292969 964.011719 706.09375 963.75 705.832031 C 963.492188 705.574219 963.292969 705.273438 963.152344 704.933594 C 963.011719 704.59375 962.941406 704.238281 962.941406 703.871094 L 962.941406 486.960938 C 962.941406 486.59375 963.011719 486.242188 963.152344 485.902344 C 963.292969 485.5625 963.492188 485.261719 963.75 485.003906 C 964.011719 484.742188 964.3125 484.542969 964.652344 484.402344 C 964.992188 484.261719 965.34375 484.191406 965.710938 484.191406 Z M 965.710938 484.191406 " fill-opacity="1" fill-rule="nonzero"/></g><g clip-path="url(#a2817455a7)"><path fill="#e86c6c" d="M 1002.1875 578.339844 L 1031.296875 578.339844 C 1031.664062 578.339844 1032.019531 578.410156 1032.359375 578.550781 C 1032.699219 578.691406 1032.996094 578.890625 1033.257812 579.152344 C 1033.515625 579.410156 1033.71875 579.710938 1033.859375 580.050781 C 1034 580.390625 1034.070312 580.746094 1034.070312 581.113281 L 1034.070312 703.871094 C 1034.070312 704.238281 1034 704.59375 1033.859375 704.933594 C 1033.71875 705.273438 1033.515625 705.574219 1033.257812 705.832031 C 1032.996094 706.09375 1032.699219 706.292969 1032.359375 706.433594 C 1032.019531 706.574219 1031.664062 706.644531 1031.296875 706.644531 L 1002.1875 706.644531 C 1001.820312 706.644531 1001.46875 706.574219 1001.128906 706.433594 C 1000.789062 706.292969 1000.488281 706.09375 1000.230469 705.832031 C 999.96875 705.574219 999.769531 705.273438 999.628906 704.933594 C 999.488281 704.59375 999.417969 704.238281 999.417969 703.871094 L 999.417969 581.113281 C 999.417969 580.746094 999.488281 580.390625 999.628906 580.050781 C 999.769531 579.710938 999.96875 579.410156 1000.230469 579.152344 C 1000.488281 578.890625 1000.789062 578.691406 1001.128906 578.550781 C 1001.46875 578.410156 1001.820312 578.339844 1002.1875 578.339844 Z M 1002.1875 578.339844 " fill-opacity="1" fill-rule="nonzero"/></g><g clip-path="url(#d2f6692108)"><path fill="#8fd29e" d="M 1042.609375 584.617188 L 1071.71875 584.617188 C 1072.085938 584.617188 1072.4375 584.6875 1072.777344 584.828125 C 1073.117188 584.96875 1073.417969 585.167969 1073.675781 585.429688 C 1073.9375 585.6875 1074.136719 585.988281 1074.277344 586.328125 C 1074.417969 586.667969 1074.488281 587.019531 1074.488281 587.386719 L 1074.488281 703.871094 C 1074.488281 704.238281 1074.417969 704.59375 1074.277344 704.933594 C 1074.136719 705.273438 1073.9375 705.574219 1073.675781 705.832031 C 1073.417969 706.09375 1073.117188 706.292969 1072.777344 706.433594 C 1072.4375 706.574219 1072.085938 706.644531 1071.71875 706.644531 L 1042.609375 706.644531 C 1042.242188 706.644531 1041.886719 706.574219 1041.546875 706.433594 C 1041.207031 706.292969 1040.910156 706.09375 1040.648438 705.832031 C 1040.386719 705.574219 1040.1875 705.273438 1040.046875 704.933594 C 1039.90625 704.59375 1039.835938 704.238281 1039.835938 703.871094 L 1039.835938 587.386719 C 1039.835938 587.019531 1039.90625 586.667969 1040.046875 586.328125 C 1040.1875 585.988281 1040.386719 585.6875 1040.648438 585.429688 C 1040.910156 585.167969 1041.207031 584.96875 1041.546875 584.828125 C 1041.886719 584.6875 1042.242188 584.617188 1042.609375 584.617188 Z M 1042.609375 584.617188 " fill-opacity="1" fill-rule="nonzero"/></g><g clip-path="url(#6d89ae056d)"><path fill="#e86c6c" d="M 1079.085938 578.339844 L 1108.195312 578.339844 C 1108.5625 578.339844 1108.914062 578.410156 1109.253906 578.550781 C 1109.59375 578.691406 1109.894531 578.890625 1110.152344 579.152344 C 1110.414062 579.410156 1110.613281 579.710938 1110.753906 580.050781 C 1110.894531 580.390625 1110.964844 580.746094 1110.964844 581.113281 L 1110.964844 703.871094 C 1110.964844 704.238281 1110.894531 704.59375 1110.753906 704.933594 C 1110.613281 705.273438 1110.414062 705.574219 1110.152344 705.832031 C 1109.894531 706.09375 1109.59375 706.292969 1109.253906 706.433594 C 1108.914062 706.574219 1108.5625 706.644531 1108.195312 706.644531 L 1079.085938 706.644531 C 1078.71875 706.644531 1078.363281 706.574219 1078.023438 706.433594 C 1077.683594 706.292969 1077.386719 706.09375 1077.125 705.832031 C 1076.867188 705.574219 1076.664062 705.273438 1076.523438 704.933594 C 1076.382812 704.59375 1076.3125 704.238281 1076.3125 703.871094 L 1076.3125 581.113281 C 1076.3125 580.746094 1076.382812 580.390625 1076.523438 580.050781 C 1076.664062 579.710938 1076.867188 579.410156 1077.125 579.152344 C 1077.386719 578.890625 1077.683594 578.691406 1078.023438 578.550781 C 1078.363281 578.410156 1078.71875 578.339844 1079.085938 578.339844 Z M 1079.085938 578.339844 " fill-opacity="1" fill-rule="nonzero"/></g><g clip-path="url(#a07fc463dd)"><path fill="#8fd29e" d="M 1119.503906 214.296875 L 1148.613281 214.296875 C 1148.980469 214.296875 1149.335938 214.367188 1149.675781 214.507812 C 1150.015625 214.648438 1150.3125 214.847656 1150.574219 215.105469 C 1150.835938 215.367188 1151.035156 215.667969 1151.175781 216.007812 C 1151.316406 216.347656 1151.386719 216.699219 1151.386719 217.066406 L 1151.386719 703.871094 C 1151.386719 704.238281 1151.316406 704.59375 1151.175781 704.933594 C 1151.035156 705.273438 1150.835938 705.574219 1150.574219 705.832031 C 1150.3125 706.09375 1150.015625 706.292969 1149.675781 706.433594 C 1149.335938 706.574219 1148.980469 706.644531 1148.613281 706.644531 L 1119.503906 706.644531 C 1119.136719 706.644531 1118.785156 706.574219 1118.445312 706.433594 C 1118.105469 706.292969 1117.804688 706.09375 1117.546875 705.832031 C 1117.285156 705.574219 1117.085938 705.273438 1116.945312 704.933594 C 1116.804688 704.59375 1116.734375 704.238281 1116.734375 703.871094 L 1116.734375 217.066406 C 1116.734375 216.699219 1116.804688 216.347656 1116.945312 216.007812 C 1117.085938 215.667969 1117.285156 215.367188 1117.546875 215.105469 C 1117.804688 214.847656 1118.105469 214.648438 1118.445312 214.507812 C 1118.785156 214.367188 1119.136719 214.296875 1119.503906 214.296875 Z M 1119.503906 214.296875 " fill-opacity="1" fill-rule="nonzero"/></g><g clip-path="url(#dffcaf4014)"><path fill="#e86c6c" d="M 1155.980469 138.976562 L 1185.089844 138.976562 C 1185.457031 138.976562 1185.8125 139.046875 1186.152344 139.1875 C 1186.492188 139.328125 1186.792969 139.527344 1187.050781 139.789062 C 1187.3125 140.046875 1187.511719 140.347656 1187.652344 140.6875 C 1187.792969 141.027344 1187.863281 141.378906 1187.863281 141.75 L 1187.863281 703.871094 C 1187.863281 704.238281 1187.792969 704.59375 1187.652344 704.933594 C 1187.511719 705.273438 1187.3125 705.574219 1187.050781 705.832031 C 1186.789062 706.09375 1186.492188 706.292969 1186.152344 706.433594 C 1185.8125 706.574219 1185.457031 706.644531 1185.089844 706.644531 L 1155.980469 706.644531 C 1155.613281 706.644531 1155.261719 706.574219 1154.921875 706.433594 C 1154.582031 706.292969 1154.28125 706.09375 1154.023438 705.832031 C 1153.761719 705.574219 1153.5625 705.273438 1153.421875 704.933594 C 1153.28125 704.59375 1153.210938 704.238281 1153.210938 703.871094 L 1153.210938 141.75 C 1153.210938 141.378906 1153.28125 141.027344 1153.421875 140.6875 C 1153.5625 140.347656 1153.761719 140.046875 1154.023438 139.789062 C 1154.28125 139.527344 1154.582031 139.328125 1154.921875 139.1875 C 1155.261719 139.046875 1155.613281 138.976562 1155.980469 138.976562 Z M 1155.980469 138.976562 " fill-opacity="1" fill-rule="nonzero"/></g></svg>