<svg width="36" height="36" viewBox="0 0 36 36" fill="none" xmlns="http://www.w3.org/2000/svg">
<path d="M17.925 27C18.45 27 18.894 26.8185 19.257 26.4555C19.62 26.0925 19.801 25.649 19.8 25.125C19.799 24.601 19.618 24.157 19.257 23.793C18.896 23.429 18.452 23.248 17.925 23.25C17.398 23.252 16.9545 23.4335 16.5945 23.7945C16.2345 24.1555 16.053 24.599 16.05 25.125C16.047 25.651 16.2285 26.095 16.5945 26.457C16.9605 26.819 17.404 27 17.925 27ZM16.575 21.225H19.35C19.35 20.4 19.444 19.75 19.632 19.275C19.82 18.8 20.351 18.15 21.225 17.325C21.875 16.675 22.3875 16.056 22.7625 15.468C23.1375 14.88 23.325 14.174 23.325 13.35C23.325 11.95 22.8125 10.875 21.7875 10.125C20.7625 9.37501 19.55 9.00001 18.15 9.00001C16.725 9.00001 15.569 9.37501 14.682 10.125C13.795 10.875 13.176 11.775 12.825 12.825L15.3 13.8C15.425 13.35 15.7065 12.8625 16.1445 12.3375C16.5825 11.8125 17.251 11.55 18.15 11.55C18.95 11.55 19.55 11.769 19.95 12.207C20.35 12.645 20.55 13.126 20.55 13.65C20.55 14.15 20.4 14.619 20.1 15.057C19.8 15.495 19.425 15.901 18.975 16.275C17.875 17.25 17.2 17.9875 16.95 18.4875C16.7 18.9875 16.575 19.9 16.575 21.225ZM18 33C15.925 33 13.975 32.6065 12.15 31.8195C10.325 31.0325 8.7375 29.9635 7.3875 28.6125C6.0375 27.2615 4.969 25.674 4.182 23.85C3.395 22.026 3.001 20.076 3 18C2.999 15.924 3.393 13.974 4.182 12.15C4.971 10.326 6.0395 8.73851 7.3875 7.38751C8.7355 6.03651 10.323 4.96801 12.15 4.18201C13.977 3.39601 15.927 3.00201 18 3.00001C20.073 2.99801 22.023 3.39201 23.85 4.18201C25.677 4.97201 27.2645 6.04051 28.6125 7.38751C29.9605 8.73451 31.0295 10.322 31.8195 12.15C32.6095 13.978 33.003 15.928 33 18C32.997 20.072 32.603 22.022 31.818 23.85C31.033 25.678 29.9645 27.2655 28.6125 28.6125C27.2605 29.9595 25.673 31.0285 23.85 31.8195C22.027 32.6105 20.077 33.004 18 33ZM18 30C21.35 30 24.1875 28.8375 26.5125 26.5125C28.8375 24.1875 30 21.35 30 18C30 14.65 28.8375 11.8125 26.5125 9.48751C24.1875 7.16251 21.35 6.00001 18 6.00001C14.65 6.00001 11.8125 7.16251 9.4875 9.48751C7.1625 11.8125 6 14.65 6 18C6 21.35 7.1625 24.1875 9.4875 26.5125C11.8125 28.8375 14.65 30 18 30Z" fill="#CCCCCC"/>
</svg>
