<svg width="36" height="36" viewBox="0 0 36 36" fill="none" xmlns="http://www.w3.org/2000/svg">
<path d="M24 4.5C24.3674 4.50005 24.722 4.63493 24.9966 4.87907C25.2711 5.12321 25.4465 5.45962 25.4895 5.8245L25.5 6V7.5H28.5C29.2569 7.49976 29.9858 7.78561 30.5408 8.30025C31.0958 8.81488 31.4357 9.52027 31.4925 10.275L31.5 10.5V28.5C31.5002 29.2569 31.2144 29.9858 30.6998 30.5408C30.1851 31.0958 29.4797 31.4357 28.725 31.4925L28.5 31.5H7.5C6.74314 31.5002 6.01415 31.2144 5.45918 30.6998C4.90421 30.1851 4.56427 29.4797 4.5075 28.725L4.5 28.5V10.5C4.49976 9.74314 4.78561 9.01415 5.30025 8.45918C5.81488 7.90421 6.52027 7.56427 7.275 7.5075L7.5 7.5H10.5V6C10.5004 5.61768 10.6468 5.24995 10.9093 4.97195C11.1717 4.69394 11.5304 4.52665 11.9121 4.50424C12.2938 4.48184 12.6696 4.60601 12.9627 4.8514C13.2559 5.09678 13.4443 5.44486 13.4895 5.8245L13.5 6V7.5H22.5V6C22.5 5.60218 22.658 5.22064 22.9393 4.93934C23.2206 4.65804 23.6022 4.5 24 4.5ZM28.5 18H7.5V28.5H28.5V18ZM28.5 10.5H7.5V15H28.5V10.5Z" fill="#CCCCCC"/>
</svg>
