<svg width="36" height="36" viewBox="0 0 36 36" fill="none" xmlns="http://www.w3.org/2000/svg">
<path d="M18 3L13.5 7.5H7.5V13.5L3 18L7.5 22.5V28.5H13.5L18 33L22.5 28.5H28.5V22.5L33 18L28.5 13.5V7.5H22.5L18 3Z" stroke="#CCCCCC" stroke-width="3" stroke-linejoin="round"/>
<path d="M18 22.5C19.1935 22.5 20.3381 22.0259 21.182 21.182C22.0259 20.3381 22.5 19.1935 22.5 18C22.5 16.8065 22.0259 15.6619 21.182 14.818C20.3381 13.9741 19.1935 13.5 18 13.5C16.8065 13.5 15.6619 13.9741 14.818 14.818C13.9741 15.6619 13.5 16.8065 13.5 18C13.5 19.1935 13.9741 20.3381 14.818 21.182C15.6619 22.0259 16.8065 22.5 18 22.5Z" stroke="#CCCCCC" stroke-width="3" stroke-linejoin="round"/>
</svg>
