<svg width="36" height="36" viewBox="0 0 36 36" fill="none" xmlns="http://www.w3.org/2000/svg">
<path d="M19.029 27.3329C19.6305 27.4499 20.2425 27.5114 20.856 27.5174C22.4032 27.5191 23.933 27.1919 25.344 26.5574L29.9865 27.2399C30.2036 27.2414 30.4186 27.1972 30.6175 27.1101C30.8164 27.023 30.9946 26.8949 31.1407 26.7343C31.2867 26.5737 31.3973 26.384 31.4652 26.1778C31.533 25.9716 31.5567 25.7533 31.5345 25.5374L30.9765 20.8484C31.5733 19.476 31.8792 17.9949 31.875 16.4984C31.8711 15.0581 31.5832 13.6327 31.0279 12.3038C30.4725 10.9749 29.6606 9.76851 28.6385 8.7537C27.6165 7.73889 26.4043 6.93556 25.0715 6.38967C23.7387 5.84379 22.3113 5.56606 20.871 5.57237C18.3965 5.57204 15.9949 6.41044 14.0583 7.95074C12.1216 9.49104 10.7642 11.6423 10.2075 14.0534" stroke="#CCCCCC" stroke-width="3" stroke-linecap="round" stroke-linejoin="round"/>
<path d="M20.8561 22.1176C20.8453 24.0111 20.2023 25.8468 19.0291 27.3331C18.2351 28.3054 17.2337 29.0879 16.0982 29.6234C14.9628 30.1588 13.722 30.4336 12.4666 30.4276C11.2824 30.4221 10.1124 30.1692 9.03163 29.6851L5.56513 30.3046C5.39096 30.3238 5.21469 30.3024 5.05024 30.2419C4.88579 30.1813 4.73765 30.0834 4.61751 29.9559C4.49736 29.8283 4.4085 29.6746 4.35794 29.5068C4.30737 29.339 4.29648 29.1618 4.32613 28.9891L4.80613 25.4446C4.35066 24.3943 4.11874 23.2608 4.12513 22.1161C4.12352 20.2936 4.71662 18.5203 5.81438 17.0654C6.91214 15.6106 8.45461 14.5537 10.2076 14.0551C10.946 13.8355 11.7128 13.7258 12.4831 13.7296C14.7054 13.7336 16.8353 14.6193 18.4052 16.1922C19.975 17.7652 20.8565 19.8968 20.8561 22.1191" stroke="#CCCCCC" stroke-width="3" stroke-linecap="round" stroke-linejoin="round"/>
</svg>
