<svg width="36" height="36" viewBox="0 0 36 36" fill="none" xmlns="http://www.w3.org/2000/svg">
<path d="M7.5 18.0001C7.5 20.6501 8.3625 22.9626 10.0875 24.9376C11.8125 26.9126 13.9875 28.0751 16.6125 28.4251C17.0125 28.4751 17.344 28.6501 17.607 28.9501C17.87 29.2501 18.001 29.6001 18 30.0001C18 30.4251 17.8185 30.7751 17.4555 31.0501C17.0925 31.3251 16.6865 31.4376 16.2375 31.3876C12.8625 30.9626 10.0625 29.4811 7.8375 26.9431C5.6125 24.4051 4.5 21.4241 4.5 18.0001C4.5 14.6001 5.6065 11.6316 7.8195 9.09457C10.0325 6.55757 12.826 5.06357 16.2 4.61257C16.675 4.56257 17.094 4.66907 17.457 4.93207C17.82 5.19507 18.001 5.55107 18 6.00007C18 6.40007 17.869 6.75007 17.607 7.05007C17.345 7.35007 17.0135 7.52507 16.6125 7.57507C13.9875 7.92507 11.8125 9.08757 10.0875 11.0626C8.3625 13.0376 7.5 15.3501 7.5 18.0001ZM25.7625 19.5001H15C14.575 19.5001 14.219 19.3561 13.932 19.0681C13.645 18.7801 13.501 18.4241 13.5 18.0001C13.499 17.5761 13.643 17.2201 13.932 16.9321C14.221 16.6441 14.577 16.5001 15 16.5001H25.7625L22.95 13.6876C22.65 13.3876 22.5 13.0316 22.5 12.6196C22.5 12.2076 22.65 11.8511 22.95 11.5501C23.25 11.2491 23.6 11.0991 24 11.1001C24.4 11.1011 24.75 11.2511 25.05 11.5501L30.45 16.9501C30.75 17.2501 30.9 17.6001 30.9 18.0001C30.9 18.4001 30.75 18.7501 30.45 19.0501L25.05 24.4501C24.75 24.7501 24.4 24.8941 24 24.8821C23.6 24.8701 23.25 24.7136 22.95 24.4126C22.65 24.1116 22.5 23.7616 22.5 23.3626C22.5 22.9636 22.65 22.6136 22.95 22.3126L25.7625 19.5001Z" fill="white"/>
</svg>
