<svg width="25" height="25" viewBox="0 0 25 25" fill="none" xmlns="http://www.w3.org/2000/svg">
<g clip-path="url(#clip0_264_44)">
<path d="M18.2632 18.773C16.5538 20.076 14.4723 20.7979 12.3232 20.833C5.32324 20.833 1.32324 12.833 1.32324 12.833C2.56713 10.5149 4.29238 8.48964 6.38324 6.89303M10.2232 5.07303C10.9116 4.91191 11.6163 4.83137 12.3232 4.83303C19.3232 4.83303 23.3232 12.833 23.3232 12.833C22.7162 13.9686 21.9923 15.0378 21.1632 16.023M14.4432 14.953C14.1686 15.2478 13.8374 15.4842 13.4694 15.6482C13.1014 15.8121 12.7041 15.9003 12.3013 15.9074C11.8985 15.9145 11.4984 15.8404 11.1249 15.6895C10.7513 15.5386 10.412 15.3141 10.1271 15.0292C9.84221 14.7443 9.61764 14.405 9.46675 14.0314C9.31587 13.6579 9.24177 13.2578 9.24888 12.8549C9.25598 12.4521 9.34415 12.0549 9.50812 11.6869C9.67209 11.3189 9.9085 10.9877 10.2032 10.713" stroke="white" stroke-width="2" stroke-linecap="round" stroke-linejoin="round"/>
<path d="M1.32324 1.83301L23.3232 23.833" stroke="white" stroke-width="2" stroke-linecap="round" stroke-linejoin="round"/>
</g>
<defs>
<clipPath id="clip0_264_44">
<rect width="24" height="24" fill="white" transform="translate(0.323242 0.833008)"/>
</clipPath>
</defs>
</svg>
