<svg width="36" height="36" viewBox="0 0 36 36" fill="none" xmlns="http://www.w3.org/2000/svg">
<path d="M13.5 31.5H22.5M13.5 31.5V24M13.5 31.5H5.4C5.16131 31.5 4.93239 31.4052 4.7636 31.2364C4.59482 31.0676 4.5 30.8387 4.5 30.6V24.9C4.5 24.6613 4.59482 24.4324 4.7636 24.2636C4.93239 24.0948 5.16131 24 5.4 24H13.5M22.5 31.5V13.5M22.5 31.5H30.6C30.8387 31.5 31.0676 31.4052 31.2364 31.2364C31.4052 31.0676 31.5 30.8387 31.5 30.6V5.4C31.5 5.16131 31.4052 4.93239 31.2364 4.7636C31.0676 4.59482 30.8387 4.5 30.6 4.5H23.4C23.1613 4.5 22.9324 4.59482 22.7636 4.7636C22.5948 4.93239 22.5 5.16131 22.5 5.4V13.5M13.5 24V14.4C13.5 14.1613 13.5948 13.9324 13.7636 13.7636C13.9324 13.5948 14.1613 13.5 14.4 13.5H22.5" stroke="#CCCCCC" stroke-width="3"/>
</svg>
