<svg width="36" height="36" viewBox="0 0 36 36" fill="none" xmlns="http://www.w3.org/2000/svg">
<path fill-rule="evenodd" clip-rule="evenodd" d="M27.0486 13.0175C27.4153 12.7121 27.8883 12.5648 28.3635 12.608C28.8388 12.6512 29.2774 12.8813 29.583 13.2479L33.3324 17.7479C33.6245 18.116 33.7611 18.5837 33.7129 19.0511C33.6648 19.5186 33.4357 19.9486 33.0747 20.2495C32.7137 20.5503 32.2494 20.698 31.7809 20.6611C31.3125 20.6242 30.877 20.4055 30.5676 20.0519L26.8182 15.5519C26.5128 15.1852 26.3656 14.7122 26.4088 14.237C26.452 13.7617 26.6821 13.3231 27.0486 13.0175Z" fill="#CCCCCC"/>
<path fill-rule="evenodd" clip-rule="evenodd" d="M27.0487 24.7825C26.6819 24.4771 26.4514 24.0386 26.4079 23.5634C26.3644 23.0881 26.5113 22.615 26.8165 22.2481L30.5677 17.7481C30.7169 17.5601 30.9022 17.4038 31.1127 17.2884C31.3231 17.1731 31.5546 17.101 31.7933 17.0764C32.0321 17.0518 32.2733 17.0752 32.5029 17.1452C32.7325 17.2152 32.9457 17.3304 33.1301 17.4841C33.3145 17.6378 33.4663 17.8267 33.5766 18.0399C33.6868 18.2531 33.7534 18.4862 33.7722 18.7255C33.7911 18.9647 33.7619 19.2054 33.6864 19.4332C33.6109 19.661 33.4906 19.8714 33.3325 20.0521L29.5831 24.5521C29.2775 24.9186 28.8389 25.1488 28.3636 25.192C27.8884 25.2352 27.4154 25.0879 27.0487 24.7825Z" fill="#CCCCCC"/>
<path fill-rule="evenodd" clip-rule="evenodd" d="M31.4999 18.9C31.4999 19.3774 31.3103 19.8352 30.9727 20.1728C30.6351 20.5104 30.1773 20.7 29.6999 20.7H17.9999C17.5225 20.7 17.0647 20.5104 16.7271 20.1728C16.3895 19.8352 16.1999 19.3774 16.1999 18.9C16.1999 18.4226 16.3895 17.9648 16.7271 17.6272C17.0647 17.2896 17.5225 17.1 17.9999 17.1H29.6999C30.1773 17.1 30.6351 17.2896 30.9727 17.6272C31.3103 17.9648 31.4999 18.4226 31.4999 18.9ZM5.3999 6.3C5.3999 5.82261 5.58954 5.36477 5.92711 5.02721C6.26468 4.68964 6.72251 4.5 7.1999 4.5H23.3999C23.8773 4.5 24.3351 4.68964 24.6727 5.02721C25.0103 5.36477 25.1999 5.82261 25.1999 6.3C25.1999 6.77739 25.0103 7.23523 24.6727 7.57279C24.3351 7.91036 23.8773 8.1 23.3999 8.1H7.1999C6.72251 8.1 6.26468 7.91036 5.92711 7.57279C5.58954 7.23523 5.3999 6.77739 5.3999 6.3ZM5.3999 31.5C5.3999 31.0226 5.58954 30.5648 5.92711 30.2272C6.26468 29.8896 6.72251 29.7 7.1999 29.7H23.3999C23.8773 29.7 24.3351 29.8896 24.6727 30.2272C25.0103 30.5648 25.1999 31.0226 25.1999 31.5C25.1999 31.9774 25.0103 32.4352 24.6727 32.7728C24.3351 33.1104 23.8773 33.3 23.3999 33.3H7.1999C6.72251 33.3 6.26468 33.1104 5.92711 32.7728C5.58954 32.4352 5.3999 31.9774 5.3999 31.5Z" fill="#CCCCCC"/>
<path fill-rule="evenodd" clip-rule="evenodd" d="M23.3999 4.5C23.8773 4.5 24.3351 4.68964 24.6727 5.02721C25.0103 5.36477 25.1999 5.82261 25.1999 6.3V13.5C25.1999 13.9774 25.0103 14.4352 24.6727 14.7728C24.3351 15.1104 23.8773 15.3 23.3999 15.3C22.9225 15.3 22.4647 15.1104 22.1271 14.7728C21.7895 14.4352 21.5999 13.9774 21.5999 13.5V6.3C21.5999 5.82261 21.7895 5.36477 22.1271 5.02721C22.4647 4.68964 22.9225 4.5 23.3999 4.5ZM23.3999 22.5C23.8773 22.5 24.3351 22.6896 24.6727 23.0272C25.0103 23.3648 25.1999 23.8226 25.1999 24.3V31.5C25.1999 31.9774 25.0103 32.4352 24.6727 32.7728C24.3351 33.1104 23.8773 33.3 23.3999 33.3C22.9225 33.3 22.4647 33.1104 22.1271 32.7728C21.7895 32.4352 21.5999 31.9774 21.5999 31.5V24.3C21.5999 23.8226 21.7895 23.3648 22.1271 23.0272C22.4647 22.6896 22.9225 22.5 23.3999 22.5ZM7.1999 4.5C7.67729 4.5 8.13513 4.68964 8.47269 5.02721C8.81026 5.36477 8.9999 5.82261 8.9999 6.3V31.5C8.9999 31.9774 8.81026 32.4352 8.47269 32.7728C8.13513 33.1104 7.67729 33.3 7.1999 33.3C6.72251 33.3 6.26468 33.1104 5.92711 32.7728C5.58954 32.4352 5.3999 31.9774 5.3999 31.5V6.3C5.3999 5.82261 5.58954 5.36477 5.92711 5.02721C6.26468 4.68964 6.72251 4.5 7.1999 4.5Z" fill="#CCCCCC"/>
</svg>
